<svg xmlns="http://www.w3.org/2000/svg" xmlns:xlink="http://www.w3.org/1999/xlink" width="400" height="281" viewBox="0 0 400 281">
  <defs>
    <clipPath id="clip-path">
      <rect id="Rectángulo_404642" data-name="Rectángulo 404642" width="400" height="281" rx="8" transform="translate(285.051 3715)" fill="#9cc8ff"/>
    </clipPath>
    <clipPath id="clip-path-2">
      <rect id="Rectángulo_405162" data-name="Rectángulo 405162" width="491.66" height="284.789" fill="none"/>
    </clipPath>
  </defs>
  <g id="Enmascarar_grupo_1098789" data-name="Enmascarar grupo 1098789" transform="translate(-285.051 -3715)" clip-path="url(#clip-path)">
    <g id="Grupo_1119493" data-name="Grupo 1119493" transform="translate(249.541 3671.936)">
      <g id="Grupo_1119371" data-name="Grupo 1119371" transform="translate(0 47.184)">
        <g id="Grupo_1119370" data-name="Grupo 1119370" transform="translate(0 0)" clip-path="url(#clip-path-2)">
          <g id="Grupo_1119368" data-name="Grupo 1119368" transform="translate(-11.405 33.949)">
            <g id="Grupo_1119367" data-name="Grupo 1119367">
              <g id="Grupo_1119366" data-name="Grupo 1119366" transform="translate(0 20.53)">
                <path id="Trazado_917147" data-name="Trazado 917147" d="M-18.037,217.4C3.428,180.846,31.351,163.137,51.47,153.96c118.521-54.069,337.09,18.7,394.331,132.233a145.857,145.857,0,0,1,14.842,79.879L-18.037,284.765Z" transform="translate(18.037 -135.734)" fill="#75a335"/>
              </g>
              <path id="Trazado_917148" data-name="Trazado 917148" d="M303.751,136.446c-6.506-8.849-5.635-32.967,9.7-33.179,9.892,2.033,14.54,13.306,12.694,22.278,7.113-13.411,26.87-3.441,14.418,6.214" transform="translate(-98.865 -103.267)" fill="#75a335"/>
              <path id="Trazado_917149" data-name="Trazado 917149" d="M39.748,170.649c-6.267-.353-12.188-3.931-14.937-9.026a15.021,15.021,0,0,1,.912-15.588c2.76-3.92,8.937-5.107,12.567-1.42-1.47-23.157,33.883-34.489,31.772-7.146,10.747-7.2,24.378,4.546,16.922,14.567" transform="translate(2.928 -109.967)" fill="#75a335"/>
              <path id="Trazado_917150" data-name="Trazado 917150" d="M599.087,243.4a19.391,19.391,0,0,1-2.224-9.464,11.851,11.851,0,0,1,4.325-8.664,10.552,10.552,0,0,1,10.079-1.642,7.04,7.04,0,0,1,1.418-8.464,11.8,11.8,0,0,1,9.2-2.937,17.183,17.183,0,0,1,9.023,3.789,19.257,19.257,0,0,1,6.806,10.444c1.687,7.008-1.041,14.3-4.875,20.58a9.118,9.118,0,0,1,8.269,1.669,10.286,10.286,0,0,1,3.643,7.116,11.549,11.549,0,0,1-2.859,8.688,12.242,12.242,0,0,1-8.925,3.972l.809-.446" transform="translate(-208.033 -143.311)" fill="#75a335"/>
            </g>
          </g>
          <g id="Grupo_1119369" data-name="Grupo 1119369" transform="translate(-11.405 137.254)">
            <path id="Trazado_917151" data-name="Trazado 917151" d="M253.3,266.682a654.361,654.361,0,0,0-106.4,9.969c27.417,17.333,48.067,43.589,61.81,72.137,13.067,27.143,20.352,56.4,25.461,85.9q48.986-.06,97.972-.128C332.023,371.5,302.563,308.991,253.3,266.682Z" transform="translate(-42.605 -266.655)" fill="#8fc741"/>
            <path id="Trazado_917152" data-name="Trazado 917152" d="M105.337,282.448a699.457,699.457,0,0,0-71.484,16.44A138.33,138.33,0,0,1,86.662,361.3c10.669,24.948,14.038,52.386,11.452,79.242q47.247,0,94.493-.057c-5.109-29.5-12.394-58.76-25.461-85.9C153.4,326.037,132.754,299.781,105.337,282.448Z" transform="translate(-1.041 -272.452)" fill="#7ead39"/>
            <path id="Trazado_917153" data-name="Trazado 917153" d="M67.584,370.862a138.33,138.33,0,0,0-52.809-62.415q-16.413,4.694-32.812,10.261V449.984q48.537.136,97.073.119C81.622,423.248,78.253,395.81,67.584,370.862Z" transform="translate(18.037 -282.011)" fill="#8fc741"/>
            <path id="Trazado_917154" data-name="Trazado 917154" d="M315.171,266.666c49.259,42.309,78.719,104.821,78.84,167.882q39.7-.048,79.4-.057C470.022,374.755,443.88,316.382,401,272.528A531.264,531.264,0,0,0,315.171,266.666Z" transform="translate(-104.473 -266.64)" fill="#7ead39"/>
            <path id="Trazado_917155" data-name="Trazado 917155" d="M651.625,351.142a179.246,179.246,0,0,0-28.679-19.906c23.944,37.925,35.379,82.953,31.945,127.052q20.71.03,41.422.075C700.063,397.548,666.1,363.585,651.625,351.142Z" transform="translate(-217.632 -290.39)" fill="#7ead39"/>
            <path id="Trazado_917156" data-name="Trazado 917156" d="M559.691,310.909c-29.262-16.552-66.456-28.416-108.789-34.958,42.882,43.854,69.024,102.227,72.413,161.964q34.16-.006,68.321.047C595.07,393.862,583.635,348.835,559.691,310.909Z" transform="translate(-154.377 -270.063)" fill="#8fc741"/>
          </g>
        </g>
      </g>
      <path id="Trazado_917157" data-name="Trazado 917157" d="M469.37,102.527a3.081,3.081,0,0,1-2.1,1.32,2.985,2.985,0,0,1-2.249-1.288,8.66,8.66,0,0,1-.29-10.372,5.089,5.089,0,0,1,2.89-2.068c2.947-.632,3.722,2.262,3.983,4.529A10.6,10.6,0,0,1,469.37,102.527Z" transform="translate(-170.285 -17.268)" fill="#fff"/>
      <g id="Grupo_1119404" data-name="Grupo 1119404" transform="translate(218.862 43.064)">
        <g id="Grupo_1119380" data-name="Grupo 1119380" transform="translate(84.122 44.398)">
          <g id="Grupo_1119376" data-name="Grupo 1119376" transform="translate(0 32.865)">
            <g id="Grupo_1119372" data-name="Grupo 1119372" transform="translate(11.346 0.868)">
              <path id="Trazado_917158" data-name="Trazado 917158" d="M500.01,166.625c18.672,15.895,33.38,35.763,48.3,55.062,4.113,5.559,9.283,13.128,9.1,20.405-5.336,35.667-52.674-13.378-60.311-27.158C498.25,198.874,498.492,182.538,500.01,166.625Z" transform="translate(-497.096 -166.625)" fill="#e3ae99"/>
              <path id="Trazado_917159" data-name="Trazado 917159" d="M542.027,254.908A58.85,58.85,0,0,0,538.5,277.8a47.046,47.046,0,0,1-6.785-5.831A60.756,60.756,0,0,1,542.027,254.908Z" transform="translate(-509.823 -199.084)" fill="#dd937c"/>
            </g>
            <g id="Grupo_1119375" data-name="Grupo 1119375">
              <path id="Trazado_917160" data-name="Trazado 917160" d="M493.405,165.252c12.389,7.91,22.185,18.334,30.664,30.233a8.4,8.4,0,0,1,6.276,11.631c-5.109,11.735-13.425,21.857-15.7,34.453-2.36,1.242-5.505,2.194-7.769.785s-3.239-4.84-1.537-6.893a49.621,49.621,0,0,1-26.186-30.034Z" transform="translate(-479.153 -165.252)" fill="#d56d42"/>
              <g id="Grupo_1119374" data-name="Grupo 1119374" transform="translate(23.49 12.695)">
                <g id="Grupo_1119373" data-name="Grupo 1119373">
                  <path id="Trazado_917161" data-name="Trazado 917161" d="M516.3,192.731a107.066,107.066,0,0,1,16.558,19.108" transform="translate(-516.301 -188.05)" fill="none" stroke="#c85426" stroke-miterlimit="10" stroke-width="1"/>
                  <path id="Trazado_917162" data-name="Trazado 917162" d="M520.739,229.192a24.889,24.889,0,0,1,7.407,5.492" transform="translate(-517.933 -201.456)" fill="none" stroke="#c85426" stroke-miterlimit="10" stroke-width="1"/>
                  <path id="Trazado_917163" data-name="Trazado 917163" d="M523.045,185.329a25.871,25.871,0,0,0-5.257,11.123" transform="translate(-516.848 -185.329)" fill="none" stroke="#c85426" stroke-miterlimit="10" stroke-width="1"/>
                  <path id="Trazado_917164" data-name="Trazado 917164" d="M523.474,227.29a45.451,45.451,0,0,1,12.208-23.352" transform="translate(-518.938 -192.171)" fill="none" stroke="#c85426" stroke-miterlimit="10" stroke-width="1"/>
                </g>
              </g>
              <path id="Trazado_917165" data-name="Trazado 917165" d="M539.134,213.965a91.62,91.62,0,0,0-18.4,31.327" transform="translate(-494.439 -183.162)" fill="none" stroke="#202020" stroke-linecap="round" stroke-linejoin="round" stroke-width="1"/>
            </g>
          </g>
          <g id="Grupo_1119379" data-name="Grupo 1119379" transform="translate(42.878)">
            <g id="Grupo_1119377" data-name="Grupo 1119377" transform="translate(0 30.451)">
              <path id="Trazado_917166" data-name="Trazado 917166" d="M555.681,161.434l-7.595,55.654c-.774,5.669-1.549,11.414-.852,17.093s3.045,11.38,7.51,14.957,11.275,4.5,15.954,1.2c4.3-3.024,5.883-8.585,6.817-13.756,4.269-23.618,1.064-47.872-2.147-71.657Z" transform="translate(-546.962 -161.434)" fill="#e3ae99"/>
              <path id="Trazado_917167" data-name="Trazado 917167" d="M548.449,254.908a49.267,49.267,0,0,0,.6,14.054" transform="translate(-547.428 -195.801)" fill="none" stroke="#202020" stroke-linecap="round" stroke-linejoin="round" stroke-width="1"/>
            </g>
            <g id="Grupo_1119378" data-name="Grupo 1119378" transform="translate(8.058)">
              <path id="Trazado_917168" data-name="Trazado 917168" d="M560.538,143.978c-2.95-9.187,2.839-17.662,3.437-26.479-.087-1.388-.342-3.042.722-3.938,6.049-2.228,5.984,9.252,4.746,12.84,3.092-1.758,17.932-1.3,13.106,4.617a3.622,3.622,0,0,1,.44,6.726c3.513-.043,4.289,5.431.964,6.447,6.007,2.723-.637,7.059-4.582,5.413Z" transform="translate(-559.705 -113.277)" fill="#e3ae99"/>
              <path id="Trazado_917169" data-name="Trazado 917169" d="M576.754,133.671a3.234,3.234,0,0,0-2.069,3.943,4.1,4.1,0,0,0,3.746,2.755,7.322,7.322,0,0,0-2.513,1.657,2.5,2.5,0,0,0-.444,2.805,3.678,3.678,0,0,0,2.739,1.328,2.518,2.518,0,1,0,.351,4.923c-1.194.421-2.513,1.138-2.7,2.39a2.557,2.557,0,0,0,1.288,2.405,6.7,6.7,0,0,0,2.749.806,40.949,40.949,0,0,0,5.531.341" transform="translate(-565.169 -120.775)" fill="none" stroke="#202020" stroke-linecap="round" stroke-linejoin="round" stroke-width="1"/>
              <path id="Trazado_917170" data-name="Trazado 917170" d="M573.989,157.569a8.223,8.223,0,0,1-3.344,6.333" transform="translate(-563.727 -129.562)" fill="none" stroke="#202020" stroke-linecap="round" stroke-linejoin="round" stroke-width="1"/>
              <path id="Trazado_917171" data-name="Trazado 917171" d="M580,143.286q5.125-.892,10.229-1.9" transform="translate(-567.167 -123.613)" fill="none" stroke="#202020" stroke-linecap="round" stroke-linejoin="round" stroke-width="1"/>
              <path id="Trazado_917172" data-name="Trazado 917172" d="M580.333,152.85c3.578-.163,6.744-.547,10.3-.981" transform="translate(-567.289 -127.466)" fill="none" stroke="#202020" stroke-linecap="round" stroke-linejoin="round" stroke-width="1"/>
              <path id="Trazado_917173" data-name="Trazado 917173" d="M580.888,161.207c3.79.087,6.973.393,10.763.481" transform="translate(-567.493 -130.899)" fill="none" stroke="#202020" stroke-linecap="round" stroke-linejoin="round" stroke-width="1"/>
            </g>
          </g>
        </g>
        <g id="Grupo_1119384" data-name="Grupo 1119384" transform="translate(3.67 69.907)">
          <path id="Trazado_917174" data-name="Trazado 917174" d="M464.328,277.575c-2.135-29.674-5.093-59.246-7.228-88.921-.53-7.366-1.934-15.555-5.443-22.2-10.919-16.3-46.384-13.566-63.862-10.526-11.589,2.015-23.171,2.381-27.231,14.341-1.619,5.19-2.1,12.79-1.8,18.217,1.735,44.209,2.69,89.284-6.841,132.713q.112-.451.223-.9L469.5,325.2c1.062-10.117-2.216-19.361-3.85-29.174Q464.992,286.8,464.328,277.575Z" transform="translate(-351.923 -153.618)" fill="#d56d42"/>
          <path id="Trazado_917175" data-name="Trazado 917175" d="M382.739,217.693l82.076,35.535,1.5,17.371-102.389,9.6.133-40.882Z" transform="translate(-356.338 -177.176)" fill="#c85426"/>
          <g id="Grupo_1119383" data-name="Grupo 1119383" transform="translate(9.745 5.713)">
            <g id="Grupo_1119382" data-name="Grupo 1119382">
              <g id="Grupo_1119381" data-name="Grupo 1119381" transform="translate(1.946)">
                <path id="Trazado_917176" data-name="Trazado 917176" d="M427.721,162.832a580.364,580.364,0,0,1,5.812,114.5" transform="translate(-391.482 -162.719)" fill="none" stroke="#c85426" stroke-miterlimit="10" stroke-width="1"/>
                <path id="Trazado_917177" data-name="Trazado 917177" d="M475.153,281.495a506.016,506.016,0,0,0-7.833-118.406" transform="translate(-406.041 -162.813)" fill="none" stroke="#c85426" stroke-miterlimit="10" stroke-width="1"/>
                <path id="Trazado_917178" data-name="Trazado 917178" d="M498.105,282.674a419.182,419.182,0,0,0-5.141-120.021" transform="translate(-415.47 -162.653)" fill="none" stroke="#c85426" stroke-miterlimit="10" stroke-width="1"/>
                <path id="Trazado_917179" data-name="Trazado 917179" d="M384.821,164.227c13.414,11.037,13.6,30.191,12.8,46.22-.883,23.754-1.284,47.591-2.69,71.306" transform="translate(-375.709 -163.232)" fill="none" stroke="#c85426" stroke-miterlimit="10" stroke-width="1"/>
                <path id="Trazado_917180" data-name="Trazado 917180" d="M371.569,231.517a422.038,422.038,0,0,1-1.158,82.124" transform="translate(-370.411 -187.972)" fill="none" stroke="#c85426" stroke-miterlimit="10" stroke-width="1"/>
              </g>
              <path id="Trazado_917181" data-name="Trazado 917181" d="M404.314,200.72c23.059,2.384,47.323.183,70.614-2.784" transform="translate(-380.93 -175.625)" fill="none" stroke="#c85426" stroke-miterlimit="10" stroke-width="1"/>
              <path id="Trazado_917182" data-name="Trazado 917182" d="M401,227.268a171.363,171.363,0,0,0,75.084-5.157" transform="translate(-379.71 -184.514)" fill="none" stroke="#c85426" stroke-miterlimit="10" stroke-width="1"/>
              <path id="Trazado_917183" data-name="Trazado 917183" d="M367.334,302.428a180.041,180.041,0,0,0,99.1-6.229" transform="translate(-367.334 -211.754)" fill="none" stroke="#c85426" stroke-miterlimit="10" stroke-width="1"/>
              <path id="Trazado_917184" data-name="Trazado 917184" d="M398.159,178.842a497.488,497.488,0,0,1,73.043-1.754" transform="translate(-378.667 -167.73)" fill="none" stroke="#c85426" stroke-miterlimit="10" stroke-width="1"/>
            </g>
          </g>
          <path id="Trazado_917185" data-name="Trazado 917185" d="M447.407,166.323a134.046,134.046,0,0,1,4.763,31.071" transform="translate(-387.029 -158.289)" fill="none" stroke="#202020" stroke-linecap="round" stroke-linejoin="round" stroke-width="1"/>
          <path id="Trazado_917186" data-name="Trazado 917186" d="M521.743,251.766c-1.583-20.416-2.823-39.931-5.934-60.932" transform="translate(-412.179 -167.301)" fill="none" stroke="#202020" stroke-linecap="round" stroke-linejoin="round" stroke-width="1"/>
        </g>
        <g id="Grupo_1119387" data-name="Grupo 1119387" transform="translate(27.132 59.825)">
          <path id="Trazado_917187" data-name="Trazado 917187" d="M438.439,203.2a16,16,0,0,0,2.119,10.3,21.814,21.814,0,0,0,4.642-6.35c1.9-4.635.458-10.146,2.453-14.739a6.451,6.451,0,0,0-1.481-.262,4.413,4.413,0,0,0-1.571.306,3.4,3.4,0,0,0-1.283.811,4.79,4.79,0,0,0-.491.873c-.531.911-1.38,1.658-1.96,2.553a16.115,16.115,0,0,0-1.492,2.912A15.725,15.725,0,0,0,438.439,203.2Z" transform="translate(-407.142 -157.702)" fill="#f5de41"/>
          <path id="Trazado_917188" data-name="Trazado 917188" d="M455.121,197.3c.857,1.128,1.953,2.049,2.91,3.095a16.194,16.194,0,0,1,3.866,7.512,13.627,13.627,0,0,0,2.07-8.342,10.36,10.36,0,0,0-4.13-7.41,5.476,5.476,0,0,0-2.51-1.053,3.062,3.062,0,0,0-2.529.814,3.223,3.223,0,0,0-.942,2.56A6.109,6.109,0,0,0,455.121,197.3Z" transform="translate(-412.855 -157.311)" fill="#f5de41"/>
          <path id="Trazado_917189" data-name="Trazado 917189" d="M442.087,144.673a10.376,10.376,0,0,0-.806-1.238c-.383-.338-.839-.578-1.234-.918a14.523,14.523,0,0,0-3.193-2.064,29.036,29.036,0,0,0-7.281-2.216,32.083,32.083,0,0,0-14.733.651,14.37,14.37,0,0,0-5.375,2.5,13.314,13.314,0,0,0-1.928,2.017c-.152.2-1.373,2.266-1.408,2.261a18.893,18.893,0,0,0-17.1,6.716,78.288,78.288,0,0,0,23.551,16.472c4.24,1.922,8.723,3.127,13.133,4.63a6.518,6.518,0,0,0,1.827.431,1.4,1.4,0,0,0,1.614-1.31,3.228,3.228,0,0,0-.719-1.714c-3.581-5.257-7.969-10.1-10.2-16.054a10.088,10.088,0,0,1-.758-5.618c.343-1.5,2.41-2.221,3.758-2.536a10.24,10.24,0,0,1,6.113.4,8.789,8.789,0,0,1,3.066,2.066,5.873,5.873,0,0,1,1.64,3.293,23.406,23.406,0,0,1-.1,8.655c-.64,3.662-1.786,7.219-2.505,10.867a1.9,1.9,0,0,0,.083,1.373,1.287,1.287,0,0,0,1.213.514,3.513,3.513,0,0,0,1.3-.467,42.481,42.481,0,0,0,11.362-9.146,127.137,127.137,0,0,0,9.011-11.551,3.583,3.583,0,0,0,.794-1.635,3.05,3.05,0,0,0-.7-2,10.092,10.092,0,0,0-10.24-3.946C442.3,145.092,442.221,144.912,442.087,144.673Z" transform="translate(-389.027 -137.675)" fill="#f5de41"/>
          <g id="Grupo_1119386" data-name="Grupo 1119386" transform="translate(33.7 28.136)">
            <path id="Trazado_917190" data-name="Trazado 917190" d="M454.374,187.244a34.725,34.725,0,0,0-2.249-3.146c-.651-.81-1.2-1.808-2.3-1.9a5.182,5.182,0,0,0-5.124,2.572l-1.751,3.155a3.079,3.079,0,0,0-.563,2.283,2.782,2.782,0,0,0,1.866,1.546,10.669,10.669,0,0,0,5.439.633,7.288,7.288,0,0,0,4.663-2.728,2.069,2.069,0,0,0,.489-1.2A2.393,2.393,0,0,0,454.374,187.244Z" transform="translate(-442.322 -182.171)" fill="#f5de41"/>
            <g id="Grupo_1119385" data-name="Grupo 1119385" transform="translate(0.051 0.14)">
              <path id="Trazado_917191" data-name="Trazado 917191" d="M442.4,189.746a17.725,17.725,0,0,1,3.033-5.034" transform="translate(-442.402 -183.245)" fill="none" stroke="#202020" stroke-linecap="round" stroke-linejoin="round" stroke-width="1"/>
              <path id="Trazado_917192" data-name="Trazado 917192" d="M455.138,182.392a14.06,14.06,0,0,1,4.225,5.341" transform="translate(-447.085 -182.392)" fill="none" stroke="#202020" stroke-linecap="round" stroke-linejoin="round" stroke-width="1"/>
              <path id="Trazado_917193" data-name="Trazado 917193" d="M443.994,197.09a15.818,15.818,0,0,0,4.551.962" transform="translate(-442.987 -187.796)" fill="none" stroke="#202020" stroke-linecap="round" stroke-linejoin="round" stroke-width="1"/>
              <path id="Trazado_917194" data-name="Trazado 917194" d="M454.518,196.025a14.037,14.037,0,0,0,2.9-1.367,4.71,4.71,0,0,0,1.958-2.466" transform="translate(-446.857 -185.995)" fill="none" stroke="#202020" stroke-linecap="round" stroke-linejoin="round" stroke-width="1"/>
            </g>
          </g>
        </g>
        <g id="Grupo_1119390" data-name="Grupo 1119390" transform="translate(46.372 49.836)">
          <g id="Grupo_1119388" data-name="Grupo 1119388" transform="translate(0.694)">
            <path id="Trazado_917195" data-name="Trazado 917195" d="M432.681,121.881a12.445,12.445,0,0,0-2.6.193c-2.527,6.6-1.331,17.063-8.741,20.426-2.765.476,2.585,4.127,3.6,4.485a18.966,18.966,0,0,0,9.2,2.535c5.272.128,11.932-2.276,13.96-7.408-8.18-2.377-3.031-12.717-3.556-18.763C440.567,123.581,436.61,121.978,432.681,121.881Z" transform="translate(-420.551 -121.877)" fill="#e3ae99"/>
            <path id="Trazado_917196" data-name="Trazado 917196" d="M438.009,137.273a7.5,7.5,0,0,0,7.047.215,6.821,6.821,0,0,0,3.167-6.983,7.684,7.684,0,0,0-5.12-5.819,8,8,0,0,0-7.154,1.182,8.34,8.34,0,0,0-3.074,4.775,2.109,2.109,0,0,0,.378,2.138,25.553,25.553,0,0,0,2.005,2.414A11.6,11.6,0,0,0,438.009,137.273Z" transform="translate(-425.036 -122.771)" fill="#dd937c"/>
          </g>
          <g id="Grupo_1119389" data-name="Grupo 1119389" transform="translate(0 14.48)">
            <path id="Trazado_917197" data-name="Trazado 917197" d="M430.142,152.036a22.915,22.915,0,0,0,3.274,3.108c1.223.936,2.538,1.792,3.827,2.622a12.168,12.168,0,0,0-6.517,6.01c-8.368-2.531-12.387-9.257-11-13.656,1.1-3.511,5.486-5.018,6.505-5.343A20,20,0,0,0,430.142,152.036Z" transform="translate(-419.454 -144.776)" fill="#d56d42"/>
            <path id="Trazado_917198" data-name="Trazado 917198" d="M451.8,152.115a15.876,15.876,0,0,1-1.693,3.385,11.946,11.946,0,0,1-2.67,2.844c1.724.529,5.09,2.312,6.344,4.374,4.716-2.126,7.257-7.039,6-11.031-1.318-4.2-5.964-5.54-6.319-5.637A31.326,31.326,0,0,1,451.8,152.115Z" transform="translate(-429.744 -145.244)" fill="#d56d42"/>
            <path id="Trazado_917199" data-name="Trazado 917199" d="M439.125,169.866a11.9,11.9,0,0,1,5.259-4.374,13.615,13.615,0,0,1,6.264,4.163" transform="translate(-426.686 -152.393)" fill="none" stroke="#202020" stroke-linecap="round" stroke-linejoin="round" stroke-width="1"/>
          </g>
        </g>
        <g id="Grupo_1119396" data-name="Grupo 1119396" transform="translate(35.842)">
          <path id="Trazado_917200" data-name="Trazado 917200" d="M417.555,96.064c4.275,11.582,19.487,12.786,29.694,9.29,15.825-5.86,13.427-35.731,4.482-43.013C426.32,41.654,406.837,73.706,417.555,96.064Z" transform="translate(-407.121 -47.701)" fill="#e3ae99"/>
          <g id="Grupo_1119393" data-name="Grupo 1119393" transform="translate(0.164)">
            <path id="Trazado_917201" data-name="Trazado 917201" d="M423.579,118.856c-14.976-5.228-18.319-33.9-6.763-28.547,2.7,13.7,5.745,14.222,13.257,12.789a41.2,41.2,0,0,1,16.5.18c6.3,1.373,10.78.819,10.48-9.763C464.2,115.916,443.019,125.643,423.579,118.856Z" transform="translate(-405.572 -60.191)" fill="#202020"/>
            <g id="Grupo_1119392" data-name="Grupo 1119392">
              <path id="Trazado_917202" data-name="Trazado 917202" d="M411.855,80.076c5.449-1.29,7.673-7.151,6.375-12.12,9.8,3.343,35.492,7.1,42.377-2.068,1.228-5.505-4.522-10.012-9.563-11.459,5.659-3.277,2.845-11.142-3.386-11.347-4.075-.259-7.5,2.529-11.375,3.676-6.388,1.894-13.81-.752-19.967,1.664-4.848,1.9-7.74,7.04-6.526,11.6C400.2,63.868,400.839,79.7,411.855,80.076Z" transform="translate(-403.06 -43.064)" fill="#202020"/>
              <g id="Grupo_1119391" data-name="Grupo 1119391" transform="translate(5.011 1.326)">
                <path id="Trazado_917203" data-name="Trazado 917203" d="M412.855,70.512a10.774,10.774,0,0,1-1.87,18.682" transform="translate(-410.985 -54.482)" fill="none" stroke="#4e4e4e" stroke-linecap="round" stroke-linejoin="round" stroke-width="0.75"/>
                <path id="Trazado_917204" data-name="Trazado 917204" d="M413.546,66.824c2.248,2.335,5.513,3.35,8.665,4.1A89.365,89.365,0,0,0,439.2,73.292a32.283,32.283,0,0,0,11.354-1.116A11.8,11.8,0,0,0,455,69.725a6.61,6.61,0,0,0,2.207-4.48,4.624,4.624,0,0,0-2.334-4.256" transform="translate(-411.927 -50.98)" fill="none" stroke="#4e4e4e" stroke-linecap="round" stroke-linejoin="round" stroke-width="0.75"/>
                <path id="Trazado_917205" data-name="Trazado 917205" d="M412.917,61.015c10.286,2.446,21.69.475,30.142-5.878a11.191,11.191,0,0,0,3.888-4.462,4.9,4.9,0,0,0-1-5.514" transform="translate(-411.695 -45.161)" fill="none" stroke="#4e4e4e" stroke-linecap="round" stroke-linejoin="round" stroke-width="0.75"/>
              </g>
            </g>
          </g>
          <g id="Grupo_1119394" data-name="Grupo 1119394" transform="translate(13.339 32.445)">
            <path id="Trazado_917206" data-name="Trazado 917206" d="M451.952,97.936a2.361,2.361,0,0,1,3.117.19,2.735,2.735,0,0,1,.342,3.188,3.259,3.259,0,0,1-2.89,1.545" transform="translate(-434.212 -95.499)" fill="none" stroke="#202020" stroke-linecap="round" stroke-linejoin="round" stroke-width="1"/>
            <path id="Trazado_917207" data-name="Trazado 917207" d="M440.1,99.07a1.666,1.666,0,0,0,1.293-.526,2.514,2.514,0,0,0,.627-1.275,2.591,2.591,0,0,0-.152-1.587c-.538-1.152-2.427-1.47-3.067-.242C438.189,96.619,438.457,98.941,440.1,99.07Z" transform="translate(-429.266 -94.478)" fill="#202020"/>
            <path id="Trazado_917208" data-name="Trazado 917208" d="M465,98.787a1.668,1.668,0,0,0,1.293-.526,2.515,2.515,0,0,0,.627-1.275,2.589,2.589,0,0,0-.152-1.586c-.537-1.152-2.426-1.47-3.067-.242C463.084,96.336,463.352,98.658,465,98.787Z" transform="translate(-438.419 -94.374)" fill="#202020"/>
            <path id="Trazado_917209" data-name="Trazado 917209" d="M423.959,117.906c-.72,4.416,4.968,6.407,5.853,1.571C430.6,115.181,424.769,112.944,423.959,117.906Z" transform="translate(-423.897 -101.986)" fill="#dd937c"/>
            <path id="Trazado_917210" data-name="Trazado 917210" d="M471.831,118c-.718,4.415,4.371,6.117,5.854,1.571C479.039,115.414,472.639,113.033,471.831,118Z" transform="translate(-441.495 -102.034)" fill="#dd937c"/>
            <path id="Trazado_917211" data-name="Trazado 917211" d="M453.421,121.71a14.613,14.613,0,0,1-6.4.516,8.606,8.606,0,0,1-5.476-3.15" transform="translate(-430.386 -103.456)" fill="none" stroke="#fff" stroke-linecap="round" stroke-linejoin="round" stroke-width="1"/>
          </g>
          <g id="Grupo_1119395" data-name="Grupo 1119395" transform="translate(0 31.888)">
            <path id="Trazado_917212" data-name="Trazado 917212" d="M413.852,99.691a19.59,19.59,0,0,1-.016,5.194c-2.711,2.167-8.012,1.961-10-1.228-3.013-4.861,1-10.63,6.552-10.134C413.667,93.4,413.443,97.375,413.852,99.691Z" transform="translate(-402.802 -93.494)" fill="#e3ae99"/>
            <path id="Trazado_917213" data-name="Trazado 917213" d="M410.061,98.284a3.12,3.12,0,0,0-1.517,2.083,3.835,3.835,0,0,0,1.263,3.719,3.032,3.032,0,0,0,1.831.734,2.194,2.194,0,0,0,1.771-.787,1.076,1.076,0,0,0,.261-.826c-.082-.455-.554-.724-1-.858a3.01,3.01,0,0,1-1.264-.529A1.112,1.112,0,0,1,412,99.915a1.839,1.839,0,0,0,.551-.1c.606-.3.24-1.246-.207-1.514A2.43,2.43,0,0,0,410.061,98.284Z" transform="translate(-404.881 -95.154)" fill="#dd937c"/>
          </g>
        </g>
        <g id="Grupo_1119403" data-name="Grupo 1119403" transform="translate(0 76.52)">
          <g id="Grupo_1119397" data-name="Grupo 1119397" transform="translate(1.873 3.207)">
            <path id="Trazado_917214" data-name="Trazado 917214" d="M351.233,186.215c-6.474,20.923,2.068,50.373,20.06,61.589,21.58,13.453,61.505-4.331,87.566-6.607-.058-1.82-1.442-23.434-2.178-23.427a647.967,647.967,0,0,1-66.1-2.664,272.016,272.016,0,0,0-16.4-41.13C369.118,160.489,353.23,178.764,351.233,186.215Z" transform="translate(-349.081 -169.148)" fill="#e3ae99"/>
            <path id="Trazado_917215" data-name="Trazado 917215" d="M396.585,241.832a161.89,161.89,0,0,0-13.049,14.27c-3.96,5.092-7.169,10.2-9.089,16.36-4.342-3.513-7.687-7.416-8.762-10.557l.117.248a23.975,23.975,0,0,1,6.119-8.8,46.364,46.364,0,0,1,8.781-6.03C385.7,244.555,390.9,242.412,396.585,241.832Z" transform="translate(-355.185 -195.872)" fill="#dd937c"/>
          </g>
          <g id="Grupo_1119399" data-name="Grupo 1119399" transform="translate(104.593 47.396)">
            <path id="Trazado_917216" data-name="Trazado 917216" d="M511.527,243.533c1.872-5.271,8.748-6.568,10.135-.329,4.076-1.329,8.211,4.072,3.368,6.079,3.982-.628,4.175,5.943.094,5.17,4.227-.221,3.571,5.925-.068,6.448,1.755.037,2.768,2.868,1.543,4.037a63.347,63.347,0,0,1-10.572,2.206" transform="translate(-511.527 -239.031)" fill="#e3ae99"/>
            <g id="Grupo_1119398" data-name="Grupo 1119398" transform="translate(9.897 10.167)">
              <path id="Trazado_917217" data-name="Trazado 917217" d="M530.859,255.11l-3.681.441" transform="translate(-527.178 -255.11)" fill="none" stroke="#202020" stroke-linecap="round" stroke-linejoin="round" stroke-width="1"/>
              <path id="Trazado_917218" data-name="Trazado 917218" d="M532.662,263.5a10.61,10.61,0,0,0-3.2.244" transform="translate(-528.019 -258.185)" fill="none" stroke="#202020" stroke-linecap="round" stroke-linejoin="round" stroke-width="1"/>
              <path id="Trazado_917219" data-name="Trazado 917219" d="M531.888,273.675l-2.165.273" transform="translate(-528.114 -261.936)" fill="none" stroke="#202020" stroke-linecap="round" stroke-linejoin="round" stroke-width="1"/>
            </g>
          </g>
          <g id="Grupo_1119402" data-name="Grupo 1119402">
            <path id="Trazado_917220" data-name="Trazado 917220" d="M347.862,188.9c-3.578,11.768-1.372,24.734,4.124,35.536a10.307,10.307,0,0,0,8.445,13.749,66.978,66.978,0,0,1,17.952-17.619c3.894-3.214,9.481-4.249,12.752-8.109,2.629-4.23-1.258-8.406-5.377-9.42-2.582-12.01-6.94-23.324-13.982-33.38C362.431,159.145,350.16,181.345,347.862,188.9Z" transform="translate(-346.119 -165.108)" fill="#d56d42"/>
            <g id="Grupo_1119401" data-name="Grupo 1119401" transform="translate(0.93)">
              <g id="Grupo_1119400" data-name="Grupo 1119400">
                <path id="Trazado_917221" data-name="Trazado 917221" d="M390,177.091c-12.16,5.769-9.133,24.092-6.891,34.922q-.144-.418-.288-.836" transform="translate(-359.894 -168.862)" fill="none" stroke="#c85426" stroke-miterlimit="10" stroke-width="1"/>
                <path id="Trazado_917222" data-name="Trazado 917222" d="M373.032,164.077c-19.194,7.595-22.428,35.617-14.263,52.444" transform="translate(-350.157 -164.077)" fill="none" stroke="#c85426" stroke-miterlimit="10" stroke-width="1"/>
                <path id="Trazado_917223" data-name="Trazado 917223" d="M347.59,225.6c7.248-10.295,23.162-18.27,36.188-13.9" transform="translate(-347.59 -181.138)" fill="none" stroke="#c85426" stroke-miterlimit="10" stroke-width="1"/>
                <path id="Trazado_917224" data-name="Trazado 917224" d="M354.2,189.222c8.941-3.25,20.125-1.184,27.823,4.407" transform="translate(-350.022 -172.754)" fill="none" stroke="#c85426" stroke-miterlimit="10" stroke-width="1"/>
              </g>
            </g>
            <path id="Trazado_917225" data-name="Trazado 917225" d="M355.755,244.988a12.784,12.784,0,0,0,1.347-2.3,10.582,10.582,0,0,1,1.882-2.358,52.053,52.053,0,0,1,4.562-4.417,57.164,57.164,0,0,1,10.521-7.126,61.559,61.559,0,0,1,8.046-3.535,14.39,14.39,0,0,1,6.742-1.119,8.122,8.122,0,0,1,4.945,2.685,6.488,6.488,0,0,1,1.68,4.244,4.663,4.663,0,0,1-2.13,3.926" transform="translate(-349.662 -186.126)" fill="none" stroke="#202020" stroke-linecap="round" stroke-linejoin="round" stroke-width="1"/>
            <path id="Trazado_917226" data-name="Trazado 917226" d="M404.177,211.116a84.483,84.483,0,0,0-8.466-21.535" transform="translate(-364.353 -173.454)" fill="none" stroke="#202020" stroke-linecap="round" stroke-linejoin="round" stroke-width="1"/>
          </g>
        </g>
      </g>
      <g id="Grupo_1119425" data-name="Grupo 1119425" transform="translate(65.46 45.905)">
        <path id="Trazado_917227" data-name="Trazado 917227" d="M114.625,204.7c-4.751,13.3-3.826,36.171,13.08,39.262,3.21-.329,5.277-3.485,6.7-6.38,9.347-19.64,13.658-44.137,4.533-64.588C131.892,160.233,115.41,198.835,114.625,204.7Z" transform="translate(-106.692 -92.732)" fill="#e4e4e4"/>
        <g id="Grupo_1119407" data-name="Grupo 1119407" transform="translate(7.033 69.434)">
          <g id="Grupo_1119405" data-name="Grupo 1119405" transform="translate(32.057)">
            <path id="Trazado_917228" data-name="Trazado 917228" d="M165.865,188.825a50.731,50.731,0,0,1,4.257-28.734,98.679,98.679,0,0,1,29.693-2.555,107.774,107.774,0,0,1,18.966,2.634,162.334,162.334,0,0,0-14.788,27.823C191.344,189.938,178.9,188.825,165.865,188.825Z" transform="translate(-165.341 -157.363)" fill="#e4e4e4"/>
            <path id="Trazado_917229" data-name="Trazado 917229" d="M186.261,159.034a12.831,12.831,0,0,0,4.474,10.062,16.019,16.019,0,0,0,10.5,3.423,21.289,21.289,0,0,0,19.408-13.02" transform="translate(-173.03 -157.978)" fill="none" stroke="#202020" stroke-linecap="round" stroke-linejoin="round" stroke-width="1"/>
          </g>
          <g id="Grupo_1119406" data-name="Grupo 1119406" transform="translate(0 2.727)">
            <path id="Trazado_917230" data-name="Trazado 917230" d="M122.059,283.542q2.133-8.8,4.265-17.61c1.112-4.592,3.86-10.712,2.935-15.426-1.557-7.928-3.594-15.752-5.21-23.668-1.563-7.652-3.574-14.966-2.471-22.852a71.278,71.278,0,0,1,3.92-14.549,146.787,146.787,0,0,1,8.531-19,9.652,9.652,0,0,1,2.672-3.619,25.7,25.7,0,0,1,4.146-1.735,81.31,81.31,0,0,1,10.46-3.364c.058-.015.118-.027.176-.042a50.731,50.731,0,0,0-4.258,28.734c13.038,0,25.479,1.114,38.128-.832a162.333,162.333,0,0,1,14.788-27.823c2.836.665,5.642,1.444,8.39,2.384,5.551,1.9,11.217,4.287,15.638,8.242,5.052,4.52,7.007,11,6.769,17.659-.243,6.806-3.15,12.87-5.169,19.316-2.295,7.326-4.538,14.669-6.621,22.059-1.4,4.975-2.742,10.034-2.811,15.2-.1,7.639,2.563,15.007,5.039,22.235a531.547,531.547,0,0,1,16.3,58.172q-.116-.451-.232-.9L114.65,331.033C114.472,314.969,118.277,299.157,122.059,283.542Z" transform="translate(-114.644 -161.676)" fill="#f5de41"/>
            <path id="Trazado_917231" data-name="Trazado 917231" d="M132.274,201.975l92.8,44.256a51.674,51.674,0,0,0-2.777,17.053L133.016,278a34.206,34.206,0,0,0,2.333-11.221,185.072,185.072,0,0,1-3.076-64.8Z" transform="translate(-120.564 -176.493)" fill="#ecb53a"/>
            <path id="Trazado_917232" data-name="Trazado 917232" d="M270.306,246.169c-3.951,14.6-7.925,29.9-4.617,44.663,1.463,6.526,4.3,12.647,6.593,18.93,2.682,7.348,4.644,15.043,4.784,22.865" transform="translate(-169.725 -192.741)" fill="none" stroke="#202020" stroke-linecap="round" stroke-linejoin="round" stroke-width="1"/>
            <path id="Trazado_917233" data-name="Trazado 917233" d="M136.988,364.542l6.691-30.355,56.622-.5,5.575,37.215" transform="translate(-122.859 -224.92)" fill="none" stroke="#202020" stroke-linecap="round" stroke-linejoin="round" stroke-width="1"/>
          </g>
        </g>
        <path id="Trazado_917234" data-name="Trazado 917234" d="M270.636,180.991c3.217,6.4,3.6,13.983,1.962,20.95s-5.195,13.368-9.491,19.094a168.658,168.658,0,0,1-14.327,15.977c-3.542,3.645-7.558,7.548-12.63,7.869-5.167.326-10-3.482-11.964-8.271s-1.476-10.288.15-15.2,4.307-9.4,6.758-13.957c4.412-8.208,8.134-16.773,12.71-24.9a90.727,90.727,0,0,1,7.647-11.657c1.316-1.672,1.886-2.4,4-1.985a19.869,19.869,0,0,1,5.788,2.185A23.443,23.443,0,0,1,270.636,180.991Z" transform="translate(-147.414 -92.133)" fill="#e4e4e4"/>
        <g id="Grupo_1119408" data-name="Grupo 1119408" transform="translate(54.915 51.679)">
          <path id="Trazado_917235" data-name="Trazado 917235" d="M206.591,130.07q1.873-.295,3.733-.667a73.822,73.822,0,0,1,.984,7.566,18.756,18.756,0,0,0,2.108,7.281,10.043,10.043,0,0,0,5.023,3.981,13.718,13.718,0,0,1-3.339,4.478,15.6,15.6,0,0,1-3.222,2.106c-3.489,1.669-12.044,3.714-17.779-1.3a13.289,13.289,0,0,1-3.731-5.625c1.622-.245,3.386-.617,4.412-1.9,1.143-1.425.976-3.461.749-5.274l-1.193-9.554A91.916,91.916,0,0,0,206.591,130.07Z" transform="translate(-190.367 -129.328)" fill="#af8566"/>
          <path id="Trazado_917236" data-name="Trazado 917236" d="M207.826,142.216a7.5,7.5,0,0,1-7.044.295,6.821,6.821,0,0,1-3.246-6.947,7.685,7.685,0,0,1,5.054-5.876,7.992,7.992,0,0,1,7.167,1.1,8.34,8.34,0,0,1,3.128,4.739,2.109,2.109,0,0,1-.353,2.142,25.537,25.537,0,0,1-1.977,2.436A11.619,11.619,0,0,1,207.826,142.216Z" transform="translate(-192.972 -129.284)" fill="#83654d"/>
        </g>
        <g id="Grupo_1119414" data-name="Grupo 1119414" transform="translate(42.275)">
          <path id="Trazado_917237" data-name="Trazado 917237" d="M211.762,102.042c-4.143,11.631-19.341,13.006-29.586,9.627-15.891-5.679-13.832-35.575-4.971-42.959C202.378,47.735,222.224,79.562,211.762,102.042Z" transform="translate(-170.376 -52.816)" fill="#af8566"/>
          <g id="Grupo_1119411" data-name="Grupo 1119411" transform="translate(0.757)">
            <g id="Grupo_1119409" data-name="Grupo 1119409" transform="translate(38.147)">
              <path id="Trazado_917238" data-name="Trazado 917238" d="M240.858,48.646c17.025-6.1,33.011,14.7,28.089,30.512-2.794,8.751-16.671,13.184-18.133,1.33-1.473-8.981-2.35-28.373-16.255-20.3C227.225,58.23,236.974,49.456,240.858,48.646Z" transform="translate(-231.9 -47.557)" fill="#202020"/>
              <path id="Trazado_917239" data-name="Trazado 917239" d="M235.08,56.783c3.893-3.439,8.855-6.182,14.028-5.724a15.639,15.639,0,0,1,8.258,3.523,27.992,27.992,0,0,1,5.921,6.868,27.278,27.278,0,0,1,3.853,8.638,15,15,0,0,1-.693,9.319,6.277,6.277,0,0,1-3.409,3.579,5.224,5.224,0,0,1-5.3-1.557,9.47,9.47,0,0,1-2.251-5.283c-.263-1.927-.178-3.884-.25-5.828a20.445,20.445,0,0,0-2.523-9.8,11.073,11.073,0,0,0-8.141-5.547c-3.394-.312-7.038,1.731-8,5" transform="translate(-233.069 -48.826)" fill="none" stroke="#4e4e4e" stroke-linecap="round" stroke-linejoin="round" stroke-width="0.75"/>
            </g>
            <path id="Trazado_917240" data-name="Trazado 917240" d="M222.719,66.629a6.865,6.865,0,0,1,1.165-4.342,7.92,7.92,0,0,1,3.946-3.352,6.259,6.259,0,1,1-2.5,10.163Z" transform="translate(-190.365 -51.621)" fill="#556f86"/>
            <g id="Grupo_1119410" data-name="Grupo 1119410" transform="translate(0 5.592)">
              <path id="Trazado_917241" data-name="Trazado 917241" d="M216.878,86.67c.011.08.022.159.033.239-4.508-.971-8.416-4.484-7.314-9.452-10.034,7.2-25.264-1.391-29.955-11.568,1.433,5.766-2.462,11.907-8.068,13.572-.317-36.945,54.784-25.91,45.236,7.784" transform="translate(-171.573 -56.4)" fill="#202020"/>
              <path id="Trazado_917242" data-name="Trazado 917242" d="M194.3,58.609a9.931,9.931,0,0,0,1.463,8.319,12.7,12.7,0,0,0,7.049,4.854,17.687,17.687,0,0,0,8.644.068c3.539-.8,7.048-2.671,8.794-5.853" transform="translate(-179.795 -57.212)" fill="none" stroke="#4e4e4e" stroke-linecap="round" stroke-linejoin="round" stroke-width="0.75"/>
              <path id="Trazado_917243" data-name="Trazado 917243" d="M241.239,82.809a6.876,6.876,0,0,0,.393,11.03" transform="translate(-196.238 -66.11)" fill="none" stroke="#4e4e4e" stroke-linecap="round" stroke-linejoin="round" stroke-width="0.75"/>
              <path id="Trazado_917244" data-name="Trazado 917244" d="M207.8,56.989a8.283,8.283,0,0,0,13.061,4.459" transform="translate(-184.891 -56.617)" fill="none" stroke="#4e4e4e" stroke-linecap="round" stroke-linejoin="round" stroke-width="0.75"/>
            </g>
          </g>
          <g id="Grupo_1119412" data-name="Grupo 1119412" transform="translate(2.22 33.751)">
            <path id="Trazado_917245" data-name="Trazado 917245" d="M200.729,104.121a2.362,2.362,0,0,0-3.115.225,2.735,2.735,0,0,0-.306,3.191,3.26,3.26,0,0,0,2.907,1.512" transform="translate(-182.361 -101.927)" fill="none" stroke="#202020" stroke-linecap="round" stroke-linejoin="round" stroke-width="1"/>
            <path id="Trazado_917246" data-name="Trazado 917246" d="M213.289,105.345a1.664,1.664,0,0,1-1.3-.511,2.515,2.515,0,0,1-.642-1.268,2.593,2.593,0,0,1,.134-1.588c.524-1.158,2.41-1.5,3.064-.276C215.175,102.873,214.933,105.2,213.289,105.345Z" transform="translate(-187.637 -100.933)" fill="#202020"/>
            <path id="Trazado_917247" data-name="Trazado 917247" d="M188.066,105.345a1.664,1.664,0,0,1-1.3-.511,2.515,2.515,0,0,1-.642-1.268,2.593,2.593,0,0,1,.134-1.588c.524-1.158,2.41-1.5,3.064-.276C189.952,102.873,189.71,105.2,188.066,105.345Z" transform="translate(-178.364 -100.933)" fill="#202020"/>
            <path id="Trazado_917248" data-name="Trazado 917248" d="M193.436,115.372c4.282,1.7,10.7,1.631,14.15-.546-.331,6.195-7.971,9.983-13.539,8.2" transform="translate(-181.075 -106.041)" fill="#fff"/>
            <path id="Trazado_917249" data-name="Trazado 917249" d="M229.3,118.806c.771,4.407-4.894,6.463-5.835,1.638C222.633,116.157,228.439,113.853,229.3,118.806Z" transform="translate(-192.087 -106.476)" fill="#83654d"/>
            <path id="Trazado_917250" data-name="Trazado 917250" d="M179.923,117.466c.769,4.407-4.3,6.167-5.835,1.638C172.686,114.967,179.059,112.513,179.923,117.466Z" transform="translate(-173.888 -105.999)" fill="#83654d"/>
          </g>
          <g id="Grupo_1119413" data-name="Grupo 1119413" transform="translate(40.84 32.047)">
            <path id="Trazado_917251" data-name="Trazado 917251" d="M235.1,104.482a19.548,19.548,0,0,0,.076,5.193c2.735,2.136,8.033,1.87,9.988-1.342,2.957-4.895-1.125-10.618-6.666-10.059C235.215,98.185,235.484,102.161,235.1,104.482Z" transform="translate(-234.963 -98.237)" fill="#af8566"/>
            <path id="Trazado_917252" data-name="Trazado 917252" d="M242.337,103a3.118,3.118,0,0,1,1.54,2.065,3.836,3.836,0,0,1-1.22,3.733,3.036,3.036,0,0,1-1.823.754,2.194,2.194,0,0,1-1.779-.766,1.073,1.073,0,0,1-.271-.823c.077-.456.546-.73.986-.869a3.016,3.016,0,0,0,1.258-.543,1.112,1.112,0,0,0-.615-1.9,1.823,1.823,0,0,1-.553-.09c-.61-.3-.254-1.243.19-1.516A2.43,2.43,0,0,1,242.337,103Z" transform="translate(-236.364 -99.893)" fill="#83654d"/>
          </g>
        </g>
        <g id="Grupo_1119418" data-name="Grupo 1119418" transform="translate(8.987 97.902)">
          <g id="Grupo_1119415" data-name="Grupo 1119415" transform="translate(0 4.457)">
            <path id="Trazado_917253" data-name="Trazado 917253" d="M204.757,229.814,139.435,258.29a16.063,16.063,0,0,1-20.756-9.629h0a16.063,16.063,0,0,1,11.011-20.943l69.068-18.285Z" transform="translate(-117.733 -209.433)" fill="#e4e4e4"/>
            <path id="Trazado_917254" data-name="Trazado 917254" d="M124.084,243.465A14.006,14.006,0,0,0,119,255.849" transform="translate(-118.165 -221.945)" fill="none" stroke="#202020" stroke-linecap="round" stroke-linejoin="round" stroke-width="1"/>
          </g>
          <g id="Grupo_1119417" data-name="Grupo 1119417" transform="translate(80.394)">
            <path id="Trazado_917255" data-name="Trazado 917255" d="M244.872,207.165c3.059-2.713,7.368-3.38,11.419-3.932l5.709-.778a2.646,2.646,0,0,1,1.912.222,1.809,1.809,0,0,1,.134,2.49,5.247,5.247,0,0,1-2.328,1.459,30.872,30.872,0,0,1,6,1.7,4.921,4.921,0,0,1,1.853,1.237,2.117,2.117,0,0,1,.448,2.091,1.371,1.371,0,0,1-1.838.744,5.279,5.279,0,0,1,2.34,1.066,2.43,2.43,0,0,1,.845,2.322,1.6,1.6,0,0,1-1.6,1.2,2.007,2.007,0,0,1,1.766,1.986,2.972,2.972,0,0,1-1.423,2.421,5.96,5.96,0,0,1-2.778.831,1.747,1.747,0,0,1,1.038,1.927A2.813,2.813,0,0,1,266.992,226a8.117,8.117,0,0,1-4.053.839,131.159,131.159,0,0,1-15.853-.322Z" transform="translate(-244.872 -202.384)" fill="#af8566"/>
            <path id="Trazado_917256" data-name="Trazado 917256" d="M269.9,209.313a43.077,43.077,0,0,0-6.151-.47" transform="translate(-251.814 -204.759)" fill="none" stroke="#202020" stroke-linecap="round" stroke-linejoin="round" stroke-width="1"/>
            <g id="Grupo_1119416" data-name="Grupo 1119416" transform="translate(9.202 8.076)">
              <path id="Trazado_917257" data-name="Trazado 917257" d="M273.988,217.3a76.9,76.9,0,0,0-14.2-2.144" transform="translate(-259.56 -215.156)" fill="none" stroke="#202020" stroke-linecap="round" stroke-linejoin="round" stroke-width="1"/>
              <path id="Trazado_917258" data-name="Trazado 917258" d="M275.829,224.3a56.735,56.735,0,0,0-15-1.922" transform="translate(-259.94 -217.811)" fill="none" stroke="#202020" stroke-linecap="round" stroke-linejoin="round" stroke-width="1"/>
              <path id="Trazado_917259" data-name="Trazado 917259" d="M272.595,233.149a45.254,45.254,0,0,0-13.17-1.477" transform="translate(-259.425 -221.218)" fill="none" stroke="#202020" stroke-linecap="round" stroke-linejoin="round" stroke-width="1"/>
            </g>
          </g>
        </g>
        <g id="Grupo_1119424" data-name="Grupo 1119424" transform="translate(0 97.644)">
          <g id="Grupo_1119420" data-name="Grupo 1119420" transform="translate(14.346 8.071)">
            <path id="Trazado_917260" data-name="Trazado 917260" d="M126.209,232.649l66.415,28.218a16.064,16.064,0,0,0,20.445-10.272h0a16.063,16.063,0,0,0-11.661-20.589l-69.445-15.267Z" transform="translate(-126.209 -214.739)" fill="#e4e4e4"/>
            <g id="Grupo_1119419" data-name="Grupo 1119419" transform="translate(37.63 7.008)">
              <path id="Trazado_917261" data-name="Trazado 917261" d="M251.365,241.214a13.405,13.405,0,0,1,8.141,10.793" transform="translate(-209.855 -231.48)" fill="none" stroke="#202020" stroke-linecap="round" stroke-linejoin="round" stroke-width="1"/>
              <path id="Trazado_917262" data-name="Trazado 917262" d="M224.713,234.378c-13.005-3.46-25.84-5.713-38.994-8.557" transform="translate(-185.719 -225.821)" fill="none" stroke="#202020" stroke-linecap="round" stroke-linejoin="round" stroke-width="1"/>
            </g>
            <line id="Línea_643" data-name="Línea 643" x1="38.458" y1="16.708" transform="translate(1.668 18.251)" fill="none" stroke="#202020" stroke-linecap="round" stroke-linejoin="round" stroke-width="1"/>
          </g>
          <g id="Grupo_1119423" data-name="Grupo 1119423">
            <g id="Grupo_1119421" data-name="Grupo 1119421">
              <path id="Trazado_917263" data-name="Trazado 917263" d="M119.535,228.3c-4.49-1.092-9.437-.722-13.808-1.784-1.434-1.219-2.166-4.263-.114-5.264-3.527-.181-2.107-5.337.681-5.758a2.961,2.961,0,0,1,1.543-5.42c-2.168-4.144,4.245-5.929,7.673-5a2.909,2.909,0,0,1,.427-3.1c4.054,2.739,9.611,4.237,11.584,8.813" transform="translate(-103.521 -201.975)" fill="#af8566"/>
            </g>
            <g id="Grupo_1119422" data-name="Grupo 1119422" transform="translate(2.056 3.139)">
              <path id="Trazado_917264" data-name="Trazado 917264" d="M122.557,206.939a14.861,14.861,0,0,1,5.392,2.6" transform="translate(-112.576 -206.939)" fill="none" stroke="#202020" stroke-linecap="round" stroke-linejoin="round" stroke-width="1"/>
              <path id="Trazado_917265" data-name="Trazado 917265" d="M110.226,214.778a17.7,17.7,0,0,1,4.68.31" transform="translate(-108.043 -209.807)" fill="none" stroke="#202020" stroke-linecap="round" stroke-linejoin="round" stroke-width="1"/>
              <path id="Trazado_917266" data-name="Trazado 917266" d="M108.008,223.132a16.109,16.109,0,0,1,5.233.1" transform="translate(-107.227 -212.831)" fill="none" stroke="#202020" stroke-linecap="round" stroke-linejoin="round" stroke-width="1"/>
              <path id="Trazado_917267" data-name="Trazado 917267" d="M106.773,232.274a13.042,13.042,0,0,1,4.419.032" transform="translate(-106.773 -216.19)" fill="none" stroke="#202020" stroke-linecap="round" stroke-linejoin="round" stroke-width="1"/>
            </g>
          </g>
        </g>
      </g>
      <g id="Grupo_1119492" data-name="Grupo 1119492" transform="translate(0 219.203)">
        <g id="Grupo_1119428" data-name="Grupo 1119428" transform="translate(0 57.46)">
          <path id="Trazado_917268" data-name="Trazado 917268" d="M0,467.824v-18.5c111.1-31.755,282.518-60.9,465.351-6.38a707.744,707.744,0,0,1,69.842,24.878Z" transform="translate(0 -412.487)" fill="#445c21"/>
          <g id="Grupo_1119427" data-name="Grupo 1119427" transform="translate(434.136 31.329)">
            <g id="Grupo_1119426" data-name="Grupo 1119426">
              <path id="Trazado_917269" data-name="Trazado 917269" d="M705.029,471.851c4.847-2.13-1.667-13.474-5.551-8.622C696.214,466.762,700.844,472.814,705.029,471.851Z" transform="translate(-690.906 -462.033)" fill="#75a335"/>
              <path id="Trazado_917270" data-name="Trazado 917270" d="M723.6,475.649c3.5,4.524,6.451-.389,1.815-4.09C721.658,468.443,721.677,473.532,723.6,475.649Z" transform="translate(-699.711 -465.173)" fill="#75a335"/>
              <path id="Trazado_917271" data-name="Trazado 917271" d="M745.93,484.64c.176,2.647,2.4,6.331,5.4,5.815C758.3,485.855,746.175,476.461,745.93,484.64Z" transform="translate(-708.39 -469.158)" fill="#75a335"/>
              <path id="Trazado_917272" data-name="Trazado 917272" d="M689.921,485.312c3.63.4,2.082-7.267-.89-6.94C685.168,479.219,686.125,485.141,689.921,485.312Z" transform="translate(-686.562 -468.037)" fill="#75a335"/>
            </g>
          </g>
        </g>
        <g id="Grupo_1119491" data-name="Grupo 1119491" transform="translate(4.699)">
          <g id="Grupo_1119463" data-name="Grupo 1119463" transform="translate(261.668)">
            <g id="Grupo_1119460" data-name="Grupo 1119460">
              <g id="Grupo_1119432" data-name="Grupo 1119432" transform="translate(0 22.292)">
                <g id="Grupo_1119431" data-name="Grupo 1119431">
                  <g id="Grupo_1119429" data-name="Grupo 1119429" transform="translate(92.355 4.198)">
                    <path id="Trazado_917273" data-name="Trazado 917273" d="M631.585,390.634l-58.83-27.123-5.455,23.9Z" transform="translate(-567.3 -363.511)" fill="#3d2f28"/>
                  </g>
                  <g id="Grupo_1119430" data-name="Grupo 1119430">
                    <path id="Trazado_917274" data-name="Trazado 917274" d="M519.055,361.07l-97.81-4.2,21.294,24.54,71.061,3.56Z" transform="translate(-421.246 -356.872)" fill="#3d2f28"/>
                  </g>
                </g>
              </g>
              <g id="Grupo_1119459" data-name="Grupo 1119459" transform="translate(8.188)">
                <g id="Grupo_1119434" data-name="Grupo 1119434" transform="translate(77.561 0.399)">
                  <g id="Grupo_1119433" data-name="Grupo 1119433">
                    <path id="Trazado_917275" data-name="Trazado 917275" d="M565.453,330.158a17.449,17.449,0,0,1,2.212-5.047,5.724,5.724,0,0,1,9.661-.405c2.426,2.861,2.828,6.87,3.124,10.61l2.9,36.655a9.833,9.833,0,0,1-.529,5.2c-1.377,2.755-4.875,3.563-7.938,3.891-3.659.391-7.452.531-10.928-.679-2.826-.984-5.857-3.216-6.856-6.163-.777-2.291.5-5.1.821-7.4,1.108-7.866,2.339-15.715,4.061-23.473C562.968,338.908,564.107,334.5,565.453,330.158Z" transform="translate(-556.854 -322.249)" fill="#f5de41"/>
                    <path id="Trazado_917276" data-name="Trazado 917276" d="M575.244,323.731a304.711,304.711,0,0,0-5.064,37.6" transform="translate(-561.753 -322.794)" fill="none" stroke="#ecb53a" stroke-miterlimit="10" stroke-width="1"/>
                    <path id="Trazado_917277" data-name="Trazado 917277" d="M585.769,323.843q2.819,17,4.019,34.211" transform="translate(-567.485 -322.835)" fill="none" stroke="#ecb53a" stroke-miterlimit="10" stroke-width="1"/>
                    <path id="Trazado_917278" data-name="Trazado 917278" d="M571.132,331.774c.618,1.024,1.992,1.224,3.184,1.316a26.807,26.807,0,0,0,5.243.059,9.063,9.063,0,0,0,4.812-1.912" transform="translate(-562.103 -325.554)" fill="none" stroke="#ecb53a" stroke-miterlimit="10" stroke-width="1"/>
                    <path id="Trazado_917279" data-name="Trazado 917279" d="M568.365,343.2a20.847,20.847,0,0,0,16.086,1.662" transform="translate(-561.086 -329.953)" fill="none" stroke="#ecb53a" stroke-miterlimit="10" stroke-width="1"/>
                    <path id="Trazado_917280" data-name="Trazado 917280" d="M565.991,352.842a21.988,21.988,0,0,0,18.221,2.73" transform="translate(-560.213 -333.497)" fill="none" stroke="#ecb53a" stroke-miterlimit="10" stroke-width="1"/>
                    <path id="Trazado_917281" data-name="Trazado 917281" d="M564.589,363.792a29.837,29.837,0,0,0,18.742,3.786" transform="translate(-559.698 -337.523)" fill="none" stroke="#ecb53a" stroke-miterlimit="10" stroke-width="1"/>
                  </g>
                  <path id="Trazado_917282" data-name="Trazado 917282" d="M561.568,363.159a23.125,23.125,0,0,1,10.855,12.79,57.944,57.944,0,0,1,10.989-15.006c1.163,5.1,2.328,10.214,3.095,15.392.841,5.676,1.179,11.605-.684,17.033a14,14,0,0,1-5.185,7.287,12.472,12.472,0,0,1-11.017.919,15.893,15.893,0,0,1-9.457-9.97c-.828-2.586-.523-5.332-.436-8.009q.155-4.781.565-9.549Q560.763,368.584,561.568,363.159Z" transform="translate(-557.864 -336.475)" fill="#6c9631"/>
                </g>
                <g id="Grupo_1119438" data-name="Grupo 1119438" transform="translate(95.318 7.891)">
                  <g id="Grupo_1119437" data-name="Grupo 1119437" transform="translate(1.666)">
                    <path id="Trazado_917283" data-name="Trazado 917283" d="M595.531,349.987c1.087-4.64,2.295-9.512,5.561-12.982,1.728-1.834,4.194-3.22,6.685-2.848a7.4,7.4,0,0,1,5.375,4.707,19.93,19.93,0,0,1,1.1,7.344c.109,7.074-.281,14.145-.7,21.208-.336,5.664-.7,11.4-2.449,16.795-.955,2.958-2.437,5.924-5.029,7.64a11.258,11.258,0,0,1-7.043,1.6,13.11,13.11,0,0,1-9.046-4.366,10.3,10.3,0,0,1-2.418-6.446c-.021-2.107,1.189-3.766,1.662-5.774q2.025-8.6,4.031-17.2Q594.4,354.826,595.531,349.987Z" transform="translate(-587.571 -334.097)" fill="#ecb53a"/>
                    <g id="Grupo_1119436" data-name="Grupo 1119436" transform="translate(6.932 0.4)">
                      <g id="Grupo_1119435" data-name="Grupo 1119435">
                        <path id="Trazado_917284" data-name="Trazado 917284" d="M609.36,334.73a117.893,117.893,0,0,0-9.446,33.673" transform="translate(-599.041 -334.73)" fill="none" stroke="#f5de41" stroke-linecap="round" stroke-linejoin="round" stroke-width="1"/>
                        <path id="Trazado_917285" data-name="Trazado 917285" d="M621.279,337.639q-3.82,15.332-6.248,30.965" transform="translate(-604.599 -335.8)" fill="none" stroke="#f5de41" stroke-linecap="round" stroke-linejoin="round" stroke-width="1"/>
                        <path id="Trazado_917286" data-name="Trazado 917286" d="M607.529,340.042a37.553,37.553,0,0,0,13.264,2.535" transform="translate(-601.841 -336.683)" fill="none" stroke="#f5de41" stroke-linecap="round" stroke-linejoin="round" stroke-width="1"/>
                        <path id="Trazado_917287" data-name="Trazado 917287" d="M602.982,348.686a31.936,31.936,0,0,0,16.626,4.9" transform="translate(-600.169 -339.861)" fill="none" stroke="#f5de41" stroke-linecap="round" stroke-linejoin="round" stroke-width="1"/>
                        <path id="Trazado_917288" data-name="Trazado 917288" d="M600.037,360.939a36.526,36.526,0,0,0,16.311,5.79" transform="translate(-599.086 -344.366)" fill="none" stroke="#f5de41" stroke-linecap="round" stroke-linejoin="round" stroke-width="1"/>
                        <path id="Trazado_917289" data-name="Trazado 917289" d="M598.533,374.593a43.4,43.4,0,0,0,15.51,4.889" transform="translate(-598.533 -349.386)" fill="none" stroke="#f5de41" stroke-linecap="round" stroke-linejoin="round" stroke-width="1"/>
                      </g>
                    </g>
                  </g>
                  <path id="Trazado_917290" data-name="Trazado 917290" d="M594.906,355.157l1.685,18c-.054-.574,1.3-2.113,1.623-2.613q.944-1.45,1.953-2.856a48.817,48.817,0,0,1,3.991-4.951q4.611-4.95,9.672-9.453c.53,12.678-.975,25.355-2.963,37.888a24.849,24.849,0,0,1-1.568,6.238,10.655,10.655,0,0,1-4.025,4.57c-1.8,1.228-4.581.95-6.62.451-3.453-.845-6.482-2.89-9.279-5.083-1.854-1.454-3.85-3.245-4.353-5.656-.29-1.392.237-2.833.537-4.192q.486-2.2,1.026-4.383c1.484-6.022,3.241-11.972,5.1-17.888C592.734,361.868,593.82,358.513,594.906,355.157Z" transform="translate(-584.935 -341.152)" fill="#445c21"/>
                </g>
                <g id="Grupo_1119442" data-name="Grupo 1119442" transform="translate(108.598 19.154)">
                  <g id="Grupo_1119441" data-name="Grupo 1119441" transform="translate(2.317)">
                    <path id="Trazado_917291" data-name="Trazado 917291" d="M628.927,361.41c3.328-3.4,6.791-6.883,11.206-8.647a10.227,10.227,0,0,1,4.382-.84,5.683,5.683,0,0,1,3.976,1.834,6.878,6.878,0,0,1,1.411,4.078c.24,3.738-1.1,7.39-2.629,10.81-4.461,9.967-10.714,19.043-17.6,27.521-1.875,2.309-3.936,4.675-6.741,5.663a9.846,9.846,0,0,1-10.34-3.034,13.461,13.461,0,0,1-2.837-10.721c.585-4.02,2.624-7.382,5.071-10.528,2.818-3.623,5.563-7.193,8.707-10.552C625.305,365.105,627.116,363.257,628.927,361.41Z" transform="translate(-609.602 -351.909)" fill="#f5de41"/>
                    <g id="Grupo_1119440" data-name="Grupo 1119440" transform="translate(13.629 0.62)">
                      <g id="Grupo_1119439" data-name="Grupo 1119439">
                        <path id="Trazado_917292" data-name="Trazado 917292" d="M631.683,384.158a109.5,109.5,0,0,1,14.558-24.436c2.09-2.725,4.4-5.481,7.553-6.833" transform="translate(-631.35 -352.889)" fill="none" stroke="#ecb53a" stroke-miterlimit="10" stroke-width="1"/>
                        <path id="Trazado_917293" data-name="Trazado 917293" d="M658.235,354.429c-4.271,12.453-11.813,23.478-19.267,34.331" transform="translate(-634.028 -353.455)" fill="none" stroke="#ecb53a" stroke-miterlimit="10" stroke-width="1"/>
                        <path id="Trazado_917294" data-name="Trazado 917294" d="M653.477,355.6a20.217,20.217,0,0,0,12.136,6.978" transform="translate(-639.363 -353.887)" fill="none" stroke="#ecb53a" stroke-miterlimit="10" stroke-width="1"/>
                        <path id="Trazado_917295" data-name="Trazado 917295" d="M644.949,362.955a22.379,22.379,0,0,0,14.826,9.671" transform="translate(-636.227 -356.59)" fill="none" stroke="#ecb53a" stroke-miterlimit="10" stroke-width="1"/>
                        <path id="Trazado_917296" data-name="Trazado 917296" d="M636.535,373.1a27.549,27.549,0,0,0,9.275,9.219,30.288,30.288,0,0,0,4.24,2.1q1.261.51,2.559.918" transform="translate(-633.134 -360.321)" fill="none" stroke="#ecb53a" stroke-miterlimit="10" stroke-width="1"/>
                        <path id="Trazado_917297" data-name="Trazado 917297" d="M631.156,386.958a50.391,50.391,0,0,0,11.543,7.977,3.931,3.931,0,0,0,1.452.5" transform="translate(-631.156 -365.415)" fill="none" stroke="#ecb53a" stroke-miterlimit="10" stroke-width="1"/>
                      </g>
                    </g>
                  </g>
                  <path id="Trazado_917298" data-name="Trazado 917298" d="M606.429,400.787c-1.22-3.016.061-6.821,1.332-9.64a44.559,44.559,0,0,1,5.147-8.244,149.5,149.5,0,0,1,11.586-13.218c2.078,6.32,1.457,13.168.814,19.789a125.058,125.058,0,0,1,18.618-10.235c-1.492,8.351-6.233,15.772-11.619,22.326a28.583,28.583,0,0,1-6.822,6.465,11.594,11.594,0,0,1-9.027,1.646,15.341,15.341,0,0,1-5.752-3.545A14.92,14.92,0,0,1,606.429,400.787Z" transform="translate(-605.937 -358.445)" fill="#6c9631"/>
                </g>
                <g id="Grupo_1119446" data-name="Grupo 1119446" transform="translate(51.072 4.659)">
                  <g id="Grupo_1119445" data-name="Grupo 1119445">
                    <path id="Trazado_917299" data-name="Trazado 917299" d="M523.1,349.185c1.957-5.823,3.989-11.78,8.082-16.642,1.679-1.994,4.171-3.924,6.927-3.5a5.764,5.764,0,0,1,3.69,2.367,11.3,11.3,0,0,1,1.647,3.881,65.674,65.674,0,0,1,1.644,13.316q.619,12.193.727,24.4a10.332,10.332,0,0,1-.857,5.155c-1.493,2.725-5.081,3.95-8.419,4.534a27.957,27.957,0,0,1-12.967-.439c-3.37-1.043-9.893-4.555-8.384-8.425,1.968-5.045,3.193-10.372,4.868-15.51C521.049,355.275,522.073,352.23,523.1,349.185Z" transform="translate(-514.962 -328.986)" fill="#ecb53a"/>
                    <g id="Grupo_1119444" data-name="Grupo 1119444" transform="translate(10.69 0.369)">
                      <g id="Grupo_1119443" data-name="Grupo 1119443">
                        <path id="Trazado_917300" data-name="Trazado 917300" d="M542.69,329.569a159.945,159.945,0,0,0-10.822,36.143" transform="translate(-531.868 -329.569)" fill="none" stroke="#f5de41" stroke-linecap="round" stroke-linejoin="round" stroke-width="1"/>
                        <path id="Trazado_917301" data-name="Trazado 917301" d="M555.517,331.6q.055,20.316-1.053,40.613" transform="translate(-540.176 -330.314)" fill="none" stroke="#f5de41" stroke-linecap="round" stroke-linejoin="round" stroke-width="1"/>
                        <path id="Trazado_917302" data-name="Trazado 917302" d="M540.633,335.533a32.964,32.964,0,0,0,12.6,4.912" transform="translate(-535.091 -331.762)" fill="none" stroke="#f5de41" stroke-linecap="round" stroke-linejoin="round" stroke-width="1"/>
                        <path id="Trazado_917303" data-name="Trazado 917303" d="M535,343.495a57.685,57.685,0,0,0,17.331,7.313" transform="translate(-533.021 -334.689)" fill="none" stroke="#f5de41" stroke-linecap="round" stroke-linejoin="round" stroke-width="1"/>
                        <path id="Trazado_917304" data-name="Trazado 917304" d="M533.882,355.517a42.769,42.769,0,0,0,17.661,6.571" transform="translate(-532.608 -339.109)" fill="none" stroke="#f5de41" stroke-linecap="round" stroke-linejoin="round" stroke-width="1"/>
                        <path id="Trazado_917305" data-name="Trazado 917305" d="M532.148,368.949a48.735,48.735,0,0,0,17.51,6.893" transform="translate(-531.971 -344.048)" fill="none" stroke="#f5de41" stroke-linecap="round" stroke-linejoin="round" stroke-width="1"/>
                      </g>
                    </g>
                  </g>
                  <path id="Trazado_917306" data-name="Trazado 917306" d="M526.659,345.017a42.1,42.1,0,0,1,10.624,28.055c3.273-7.938,6.579-15.994,7.634-24.516q2.021,13.6,2.736,27.355c.335,6.459.384,13.242-2.569,19a57.587,57.587,0,0,1-12.405.613,19.327,19.327,0,0,1-11.339-4.574,17.927,17.927,0,0,1-4.692-7.668,15.674,15.674,0,0,1-1-4.478,10.865,10.865,0,0,1,.758-3.018c.9-3.3,1.172-6.8,2.023-10.134a85.671,85.671,0,0,1,8.229-20.634Z" transform="translate(-515.215 -334.88)" fill="#445c21"/>
                </g>
                <g id="Grupo_1119450" data-name="Grupo 1119450">
                  <g id="Grupo_1119449" data-name="Grupo 1119449" transform="translate(1.131)">
                    <path id="Trazado_917307" data-name="Trazado 917307" d="M456.867,335.894c1.931,7.88,3.86,15.766,5.413,23.731a181.626,181.626,0,0,1,2.806,19.365c.138,1.622.161,3.263.326,4.881a8.52,8.52,0,0,1-.049,3.528,9.285,9.285,0,0,1-4.676,5.485c-3,1.545-6.556,1.645-9.9,1.162-4.271-.617-8.622-2.288-11.275-5.692a15.587,15.587,0,0,1-2.88-7.154,46.475,46.475,0,0,1-.371-7.776q.059-7.134.117-14.268c.037-4.49-.3-8.891-.376-13.381-.061-3.521,0-7.047.231-10.562a23.194,23.194,0,0,1,1.617-8.067,9.143,9.143,0,0,1,5.922-5.352c3.486-.808,7.128,1.268,9.236,4.159S456.015,332.418,456.867,335.894Z" transform="translate(-435.983 -321.618)" fill="#f5de41"/>
                    <g id="Grupo_1119448" data-name="Grupo 1119448" transform="translate(1.691 0.665)">
                      <g id="Grupo_1119447" data-name="Grupo 1119447">
                        <path id="Trazado_917308" data-name="Trazado 917308" d="M444.77,323.539a296.077,296.077,0,0,0,6.674,36.968" transform="translate(-440.905 -322.99)" fill="none" stroke="#ecb53a" stroke-miterlimit="10" stroke-width="1"/>
                        <path id="Trazado_917309" data-name="Trazado 917309" d="M454.83,322.67q5.525,17.921,9.7,36.223" transform="translate(-444.603 -322.67)" fill="none" stroke="#ecb53a" stroke-miterlimit="10" stroke-width="1"/>
                        <path id="Trazado_917310" data-name="Trazado 917310" d="M439.679,328.941q6.865-1.005,13.651-2.472" transform="translate(-439.033 -324.067)" fill="none" stroke="#ecb53a" stroke-miterlimit="10" stroke-width="1"/>
                        <path id="Trazado_917311" data-name="Trazado 917311" d="M438.657,337.579a115.033,115.033,0,0,0,17.093-3.641" transform="translate(-438.657 -326.813)" fill="none" stroke="#ecb53a" stroke-miterlimit="10" stroke-width="1"/>
                        <path id="Trazado_917312" data-name="Trazado 917312" d="M440.956,350.06A82.621,82.621,0,0,0,458.13,345.7" transform="translate(-439.502 -331.138)" fill="none" stroke="#ecb53a" stroke-miterlimit="10" stroke-width="1"/>
                        <path id="Trazado_917313" data-name="Trazado 917313" d="M443.852,361.326a70.39,70.39,0,0,0,16.59-6.851" transform="translate(-440.567 -334.364)" fill="none" stroke="#ecb53a" stroke-miterlimit="10" stroke-width="1"/>
                      </g>
                    </g>
                  </g>
                  <path id="Trazado_917314" data-name="Trazado 917314" d="M455.158,334.917c4.138,11.3,11.417,36.052,5.055,46.834-4.973,6.124-14.654,3.715-18.78-2.247-4.5-5.878-5.08-13.584-5.739-20.711-1.257-8.7-2.539-15-.183-23.776,7.289,5.723,11.341,14.6,14.229,23.405A69.126,69.126,0,0,1,455.158,334.917Z" transform="translate(-434.195 -326.508)" fill="#6c9631"/>
                </g>
                <g id="Grupo_1119454" data-name="Grupo 1119454" transform="translate(14.406 1.027)">
                  <g id="Grupo_1119453" data-name="Grupo 1119453" transform="translate(0.088)">
                    <path id="Trazado_917315" data-name="Trazado 917315" d="M474.664,331.08c1.593-2.574,3.379-5.172,5.995-6.7s6.279-1.662,8.433.466c2.052,2.027,2.113,5.274,1.924,8.152-.929,14.131-4.593,27.955-9.176,41.355-.915,2.675-2.046,5.56-4.506,6.956-2.183,1.24-4.89.988-7.347.475a22.139,22.139,0,0,1-10-4.517c-1.129-.974-2.689-2.42-2.852-4-.154-1.49.819-3.321,1.246-4.711a186.37,186.37,0,0,1,9.286-24.507A128.2,128.2,0,0,1,474.664,331.08Z" transform="translate(-457.116 -323.242)" fill="#ecb53a"/>
                    <g id="Grupo_1119452" data-name="Grupo 1119452" transform="translate(8.71 0.248)">
                      <g id="Grupo_1119451" data-name="Grupo 1119451">
                        <path id="Trazado_917316" data-name="Trazado 917316" d="M490.067,323.634a172.236,172.236,0,0,0-18.788,38.988" transform="translate(-471.034 -323.634)" fill="none" stroke="#f5de41" stroke-linecap="round" stroke-linejoin="round" stroke-width="1"/>
                        <path id="Trazado_917317" data-name="Trazado 917317" d="M499.311,326.52q-7.65,19.619-14.4,39.573" transform="translate(-476.046 -324.695)" fill="none" stroke="#f5de41" stroke-linecap="round" stroke-linejoin="round" stroke-width="1"/>
                        <path id="Trazado_917318" data-name="Trazado 917318" d="M490.834,328.126a19.476,19.476,0,0,0,12.25,4.983" transform="translate(-478.223 -325.286)" fill="none" stroke="#f5de41" stroke-linecap="round" stroke-linejoin="round" stroke-width="1"/>
                        <path id="Trazado_917319" data-name="Trazado 917319" d="M484.491,336.766a42.085,42.085,0,0,0,15.261,7.836" transform="translate(-475.891 -328.462)" fill="none" stroke="#f5de41" stroke-linecap="round" stroke-linejoin="round" stroke-width="1"/>
                        <path id="Trazado_917320" data-name="Trazado 917320" d="M478.924,346.352a56.156,56.156,0,0,0,17.456,10.365" transform="translate(-473.844 -331.987)" fill="none" stroke="#f5de41" stroke-linecap="round" stroke-linejoin="round" stroke-width="1"/>
                        <path id="Trazado_917321" data-name="Trazado 917321" d="M475.921,359.688a51.837,51.837,0,0,0,15.569,8.332" transform="translate(-472.74 -336.89)" fill="none" stroke="#f5de41" stroke-linecap="round" stroke-linejoin="round" stroke-width="1"/>
                        <path id="Trazado_917322" data-name="Trazado 917322" d="M470.891,370.059a67.114,67.114,0,0,0,14.41,7.415" transform="translate(-470.891 -340.703)" fill="none" stroke="#f5de41" stroke-linecap="round" stroke-linejoin="round" stroke-width="1"/>
                      </g>
                    </g>
                  </g>
                  <path id="Trazado_917323" data-name="Trazado 917323" d="M468.48,351.923a98.948,98.948,0,0,1,3.379,20.616,60.158,60.158,0,0,1,18.3-16.26,85.5,85.5,0,0,1-4.51,22.508c-1.7,5.242-4.046,10.8-8.853,13.492a13.483,13.483,0,0,1-12.232.176,16.155,16.155,0,0,1-6.234-5.461c-1.82-2.655-1.466-3.945-.875-6.882a85.319,85.319,0,0,1,5.783-18.472A79,79,0,0,1,468.48,351.923Z" transform="translate(-456.977 -333.787)" fill="#445c21"/>
                </g>
                <g id="Grupo_1119458" data-name="Grupo 1119458" transform="translate(37.906 10.17)">
                  <g id="Grupo_1119457" data-name="Grupo 1119457" transform="translate(0.139)">
                    <path id="Trazado_917324" data-name="Trazado 917324" d="M513.177,345.487c4.046,7.328,7.768,14.838,11.078,22.528a200.49,200.49,0,0,1,7.518,21.787c.5,1.642.925,3.485.145,5.012-.975,1.91-3.373,2.5-5.483,2.88l-10.684,1.941c-2.534.46-5.211.911-7.633.034a9.875,9.875,0,0,1-5.1-4.8,29.1,29.1,0,0,1-2.284-6.774c-3.043-12.3-6-24.744-6.35-37.414a20.084,20.084,0,0,1,.51-6.033c1.175-4.154,6.2-7.781,10.6-6.771C509.123,338.7,511.379,342.23,513.177,345.487Z" transform="translate(-494.361 -337.702)" fill="#f5de41"/>
                    <g id="Grupo_1119456" data-name="Grupo 1119456" transform="translate(0.212 0.345)">
                      <g id="Grupo_1119455" data-name="Grupo 1119455">
                        <path id="Trazado_917325" data-name="Trazado 917325" d="M499.327,343.464a315.417,315.417,0,0,0,10.321,31.116" transform="translate(-496.399 -340.166)" fill="none" stroke="#ecb53a" stroke-miterlimit="10" stroke-width="1"/>
                        <path id="Trazado_917326" data-name="Trazado 917326" d="M509.453,338.248q5.6,16.042,12.042,31.775" transform="translate(-500.122 -338.248)" fill="none" stroke="#ecb53a" stroke-miterlimit="10" stroke-width="1"/>
                        <path id="Trazado_917327" data-name="Trazado 917327" d="M494.7,348.281a40.92,40.92,0,0,0,15.352-5.174" transform="translate(-494.696 -340.034)" fill="none" stroke="#ecb53a" stroke-miterlimit="10" stroke-width="1"/>
                        <path id="Trazado_917328" data-name="Trazado 917328" d="M494.822,359.454a92.137,92.137,0,0,0,18.7-8.142" transform="translate(-494.742 -343.051)" fill="none" stroke="#ecb53a" stroke-miterlimit="10" stroke-width="1"/>
                        <path id="Trazado_917329" data-name="Trazado 917329" d="M495.718,368.063a149.846,149.846,0,0,0,21.152-6.814" transform="translate(-495.072 -346.705)" fill="none" stroke="#ecb53a" stroke-miterlimit="10" stroke-width="1"/>
                        <path id="Trazado_917330" data-name="Trazado 917330" d="M498.425,378.606a54.5,54.5,0,0,0,22.894-7.126" transform="translate(-496.067 -350.466)" fill="none" stroke="#ecb53a" stroke-miterlimit="10" stroke-width="1"/>
                      </g>
                    </g>
                  </g>
                  <path id="Trazado_917331" data-name="Trazado 917331" d="M494.141,370.755a40.612,40.612,0,0,1,17.738,10.14,126.411,126.411,0,0,1,5.27-20.215c4.035,7.65,8.093,15.356,10.639,23.621a23.855,23.855,0,0,1,1.214,6.09,10.369,10.369,0,0,1-1.435,5.962c-1.785,2.8-5.211,4.244-8.53,4.335a22.578,22.578,0,0,1-9.6-2.337c-2.084-.921-4.11-1.967-6.2-2.878-1.548-.675-3.2-.787-3.695-2.55-1.317-4.679-2.309-9.474-3.461-14.2Z" transform="translate(-494.141 -346.15)" fill="#6c9631"/>
                </g>
              </g>
            </g>
            <g id="Grupo_1119462" data-name="Grupo 1119462" transform="translate(15.52 46.832)">
              <path id="Trazado_917332" data-name="Trazado 917332" d="M564.893,461.645l22.016-59.184-135.346-6.781-5.775,65.964Z" transform="translate(-445.789 -395.681)" fill="#ac7053"/>
              <path id="Trazado_917333" data-name="Trazado 917333" d="M451.564,395.681l113.329,65.964h-119.1Z" transform="translate(-445.789 -395.681)" fill="#734937"/>
              <g id="Grupo_1119461" data-name="Grupo 1119461" transform="translate(1.678 10.839)">
                <line id="Línea_644" data-name="Línea 644" x2="130.703" transform="translate(1.892 14.349)" fill="none" stroke="#3d2f28" stroke-miterlimit="10" stroke-width="1"/>
                <line id="Línea_645" data-name="Línea 645" x2="122.107" y2="6.584" transform="translate(0 35.959)" fill="none" stroke="#3d2f28" stroke-miterlimit="10" stroke-width="1"/>
                <path id="Trazado_917334" data-name="Trazado 917334" d="M459.386,454.246a2.575,2.575,0,0,1,2.607-2.564,2.641,2.641,0,0,1,2.866,2.331,2.574,2.574,0,0,1-2.606,2.564A2.64,2.64,0,0,1,459.386,454.246Z" transform="translate(-452.465 -427.109)" fill="#3d2f28"/>
                <path id="Trazado_917335" data-name="Trazado 917335" d="M461.387,415.254a2.438,2.438,0,0,1,2.469-2.429,2.5,2.5,0,0,1,2.715,2.209,2.439,2.439,0,0,1-2.469,2.429A2.5,2.5,0,0,1,461.387,415.254Z" transform="translate(-453.201 -412.823)" fill="#3d2f28"/>
                <path id="Trazado_917336" data-name="Trazado 917336" d="M648.459,419.72a2.44,2.44,0,0,1,2.469-2.429,2.5,2.5,0,0,1,2.715,2.209,2.439,2.439,0,0,1-2.469,2.429A2.5,2.5,0,0,1,648.459,419.72Z" transform="translate(-521.981 -414.464)" fill="#3d2f28"/>
                <path id="Trazado_917337" data-name="Trazado 917337" d="M633.153,460.507a2.438,2.438,0,0,1,2.469-2.429,2.5,2.5,0,0,1,2.715,2.209,2.438,2.438,0,0,1-2.469,2.429A2.5,2.5,0,0,1,633.153,460.507Z" transform="translate(-516.354 -429.461)" fill="#3d2f28"/>
                <path id="Trazado_917338" data-name="Trazado 917338" d="M620.1,488.656a2.439,2.439,0,0,1,2.469-2.429,2.5,2.5,0,0,1,2.715,2.208,2.439,2.439,0,0,1-2.469,2.429A2.5,2.5,0,0,1,620.1,488.656Z" transform="translate(-511.553 -439.81)" fill="#3d2f28"/>
                <path id="Trazado_917339" data-name="Trazado 917339" d="M458.007,489.717a2.485,2.485,0,0,1-2.7-2.194,2.422,2.422,0,0,1,2.453-2.413,2.484,2.484,0,0,1,2.7,2.194A2.422,2.422,0,0,1,458.007,489.717Z" transform="translate(-450.966 -439.399)" fill="#3d2f28"/>
              </g>
            </g>
          </g>
          <g id="Grupo_1119476" data-name="Grupo 1119476" transform="translate(0 11.866)">
            <g id="Grupo_1119473" data-name="Grupo 1119473" transform="translate(0)">
              <path id="Trazado_917340" data-name="Trazado 917340" d="M66.262,361.07,7.432,388.193l64.285-3.221,71.061-3.56,21.294-24.54Z" transform="translate(-7.432 -346.446)" fill="#3d2f28"/>
              <g id="Grupo_1119472" data-name="Grupo 1119472" transform="translate(9.515)">
                <g id="Grupo_1119464" data-name="Grupo 1119464" transform="translate(10.927 3.276)">
                  <path id="Trazado_917341" data-name="Trazado 917341" d="M42.636,375.164a16.026,16.026,0,0,1-2.79-8.087,17.226,17.226,0,0,1,2.35-10.893,11.271,11.271,0,0,1,9.463-5.326,14.823,14.823,0,0,0,3.824.05,13.53,13.53,0,0,0,2.816-1.3,12.232,12.232,0,0,1,10.676.216,16.415,16.415,0,0,1,7.4,7.932,25.161,25.161,0,0,1,2.076,10.776,18.008,18.008,0,0,1-2.616,9.986c-2.983,4.4-8.554,6.355-13.856,6.674a24.048,24.048,0,0,1-12.031-2.163,16.443,16.443,0,0,1-8.264-8.791" transform="translate(-39.759 -346.64)" fill="#d56d42"/>
                  <path id="Trazado_917342" data-name="Trazado 917342" d="M54.906,348.908a1.954,1.954,0,0,0-.793.283.857.857,0,0,0-.394.711,1.016,1.016,0,0,0,.657.794,3.969,3.969,0,0,0,2.532,0,2.678,2.678,0,0,0-1.413,2.109,1.23,1.23,0,0,0,.417,1.148,1.272,1.272,0,0,0,1.141.02,3.229,3.229,0,0,0,2.028-2.6A2.773,2.773,0,0,0,59.954,353a2,2,0,0,0,1.748.46,1.72,1.72,0,0,0,.184-3.282,2.8,2.8,0,0,0,1.97-1.365,1.265,1.265,0,0,0,.029-1.409,1.421,1.421,0,0,0-1.478-.219,6.792,6.792,0,0,0-2.665,1.545,5.424,5.424,0,0,0,.475-1.3A1.829,1.829,0,0,0,60,346.089a1.117,1.117,0,0,0-1.2-.484,1.485,1.485,0,0,0-.861,1.141,3.692,3.692,0,0,0-.063,1.384c.041.283.357.916-.126.968a2.6,2.6,0,0,1-.669-.156,5.723,5.723,0,0,0-.7-.1A5.784,5.784,0,0,0,54.906,348.908Z" transform="translate(-44.892 -345.565)" fill="#445c21"/>
                </g>
                <g id="Grupo_1119465" data-name="Grupo 1119465" transform="translate(67.433 0.442)">
                  <path id="Trazado_917343" data-name="Trazado 917343" d="M129.529,358.086a13.979,13.979,0,0,0-.406,3.578,15.2,15.2,0,0,0,4.538,10.4,20.661,20.661,0,0,0,7.229,4.731,23.874,23.874,0,0,0,17.521-.426,14.621,14.621,0,0,0,8.659-14.3c-.277-7.132-5.387-14.3-12.434-16.073a11.947,11.947,0,0,0-10.351,2.051,12.891,12.891,0,0,0-10.769,3.207A13.737,13.737,0,0,0,129.529,358.086Z" transform="translate(-129.121 -342.748)" fill="#d56d42"/>
                  <path id="Trazado_917344" data-name="Trazado 917344" d="M141.132,345.618a1.174,1.174,0,0,0-.672.974,1.146,1.146,0,0,0,.756.868,2.968,2.968,0,0,0,2.484-.028,3.8,3.8,0,0,0-1.318,1.287,1.305,1.305,0,0,0,.317,1.667,1.608,1.608,0,0,0,1.661-.228,4.641,4.641,0,0,0,1.758-2.116,3.111,3.111,0,0,0,.763,2.322,1.809,1.809,0,0,0,1.317.386,1.928,1.928,0,0,0,1.726-1.5,1.56,1.56,0,0,0-1.27-1.784,7.471,7.471,0,0,0,2.166-.227,2.694,2.694,0,0,0,1.676-1.305,1.671,1.671,0,0,0-.353-1.992,1.837,1.837,0,0,0-1.621-.245,5.356,5.356,0,0,0-1.5.783,3.926,3.926,0,0,0,.615-1.338,1.942,1.942,0,0,0-.207-1.43,1.3,1.3,0,0,0-1.255-.619c-.611.1-1.014.674-1.308,1.218a5.87,5.87,0,0,0-.63,1.576,2.691,2.691,0,0,0,.14,1.669,1.451,1.451,0,0,0-1.458-.908c-.412.04-.538.273-.751.565-.177.243-.606-.01-.9-.045A3.373,3.373,0,0,0,141.132,345.618Z" transform="translate(-133.289 -341.082)" fill="#445c21"/>
                </g>
                <g id="Grupo_1119466" data-name="Grupo 1119466" transform="translate(34.194 7.362)">
                  <path id="Trazado_917345" data-name="Trazado 917345" d="M108.554,358.756c10,17.894-4.931,31.64-22.945,25.212-12.635-4.307-12.446-27.909,3.1-25.954C91.615,349.654,104.092,353.895,108.554,358.756Z" transform="translate(-76.554 -352.48)" fill="#c85426"/>
                  <path id="Trazado_917346" data-name="Trazado 917346" d="M90.49,358.524a4.064,4.064,0,0,1-3.007-.46c-.341-.206-.686-.542-.623-.936.057-.358.426-.575.772-.685a3.459,3.459,0,0,1,1.809-.076,3.248,3.248,0,0,1-.918-.786,1.1,1.1,0,0,1-.126-1.145,1.254,1.254,0,0,1,1.409-.415,2.519,2.519,0,0,1,1.642,1.369,4.7,4.7,0,0,1,1.69-2.942,1.369,1.369,0,0,1,1.261-.37.954.954,0,0,1,.576.8,1.527,1.527,0,0,1-.286.982,2.362,2.362,0,0,1,1.849-.362,1.255,1.255,0,0,1,.806.5,1.114,1.114,0,0,1-.188,1.287,2.5,2.5,0,0,1-1.208.661,6.988,6.988,0,0,1-1.853.273,2.414,2.414,0,0,1,1.31,1.167A1.334,1.334,0,0,1,95.033,359a1.435,1.435,0,0,1-1.471-.034,4.214,4.214,0,0,1-1.117-1.062,1.692,1.692,0,0,1-2.649.636" transform="translate(-80.341 -352.027)" fill="#445c21"/>
                </g>
                <g id="Grupo_1119467" data-name="Grupo 1119467" transform="translate(104.868)">
                  <path id="Trazado_917347" data-name="Trazado 917347" d="M188.482,361.854a17.572,17.572,0,0,1,7.08-11.711,14.277,14.277,0,0,1,6.493-2.649,10.523,10.523,0,0,1,6.81,1.394,7.174,7.174,0,0,1,6.238-1.821,11.194,11.194,0,0,1,5.841,3.181,15.6,15.6,0,0,1-.51,22.8,20.492,20.492,0,0,1-11.588,4.686,51.708,51.708,0,0,1-12.656-.649,8.743,8.743,0,0,1-3.676-1.136,3.818,3.818,0,0,1-1.341-2.047c-1.12-2.55-2.358-4.713-2.715-7.548A17.145,17.145,0,0,1,188.482,361.854Z" transform="translate(-188.322 -342.802)" fill="#c85426"/>
                  <path id="Trazado_917348" data-name="Trazado 917348" d="M210.848,342.882a1.556,1.556,0,0,0-1.378.8,1.434,1.434,0,0,0,.493,1.519,3.294,3.294,0,0,0,1.833.761,9.825,9.825,0,0,0,2.012-.035c-.52.1-.8.649-1.008,1.138a2.052,2.052,0,0,0-.23,1.358,1.212,1.212,0,0,0,1.092.8,1.783,1.783,0,0,0,1.3-.529,3.48,3.48,0,0,0,.767-1.206,2.5,2.5,0,0,0,1.095,1.6,2.058,2.058,0,0,0,1.909.14,1.756,1.756,0,0,0,1.014-1.588,1.533,1.533,0,0,0-1.169-1.431,20.68,20.68,0,0,1,2.043-.947,1.893,1.893,0,0,0,1.161-1.767,1.584,1.584,0,0,0-.716-1.036,2.278,2.278,0,0,0-1.315-.389,3.052,3.052,0,0,0-1.87.79,9.067,9.067,0,0,0-1.354,1.56,3.981,3.981,0,0,0,.339-2.763,1.567,1.567,0,0,0-.99-1.243,1.545,1.545,0,0,0-1.5.771,3.69,3.69,0,0,0-.412,3.447A3.048,3.048,0,0,0,210.848,342.882Z" transform="translate(-196.071 -340.384)" fill="#445c21"/>
                </g>
                <g id="Grupo_1119468" data-name="Grupo 1119468" transform="translate(36.407 15.388)">
                  <path id="Trazado_917349" data-name="Trazado 917349" d="M114.045,382.185c-11.4-23.618-45.109-4.076-30.287,17.549,12.743,16.449,39.22.6,29.216-18.2" transform="translate(-80.055 -367.184)" fill="#d56d42"/>
                  <path id="Trazado_917350" data-name="Trazado 917350" d="M101.241,367.847a5.417,5.417,0,0,0-.8.11,3.734,3.734,0,0,0-2.171,1.276,1.543,1.543,0,0,0-.321,1.544,1.618,1.618,0,0,0,1.05.765,3.845,3.845,0,0,0,3.174-.464,4.829,4.829,0,0,0-1.918,1.344,1.658,1.658,0,0,0,.052,2.155,2.2,2.2,0,0,0,1.1.429,3.426,3.426,0,0,0,1.576-.015,3.529,3.529,0,0,0,1.91-2.015c-.348.72.442,2.047,1.055,2.386a1.984,1.984,0,0,0,2.4-.579,2.265,2.265,0,0,0-.125-2.7,3.037,3.037,0,0,0,4.477,1.378,2.166,2.166,0,0,0,1.048-1.753,2.652,2.652,0,0,0-1.662-2.108,6.291,6.291,0,0,0-3.946-.56c.39-.62.99-1.079,1.42-1.671a1.8,1.8,0,0,0,.231-2.039,1.73,1.73,0,0,0-1.306-.606c-2.228-.154-3.913,1.961-4.045,4.047-.185-.558-.861-.758-1.444-.839A8.7,8.7,0,0,0,101.241,367.847Z" transform="translate(-86.598 -364.72)" fill="#445c21"/>
                </g>
                <g id="Grupo_1119469" data-name="Grupo 1119469" transform="translate(0 21.88)">
                  <path id="Trazado_917351" data-name="Trazado 917351" d="M30.254,383.218a20.868,20.868,0,0,1,17.325-3.906,18.223,18.223,0,0,1,7.3,3.441,17.316,17.316,0,0,1,6.148,15.372,19.009,19.009,0,0,1-9.292,13.857A21.083,21.083,0,0,1,35.023,413.7a18.969,18.969,0,0,1-8.624-5.486,15.846,15.846,0,0,1-3.919-10.1A19.783,19.783,0,0,1,26.021,387.8,20.3,20.3,0,0,1,30.254,383.218Z" transform="translate(-22.479 -376.393)" fill="#c85426"/>
                  <path id="Trazado_917352" data-name="Trazado 917352" d="M26.445,385.484c-.313.494-.646,1.2-.185,1.723a1.07,1.07,0,0,0,.979.3,2.383,2.383,0,0,0,.96-.45,6.479,6.479,0,0,0,2.289-2.939q-.072,1.315-.144,2.629a3.179,3.179,0,0,0,.054,1.013,1.074,1.074,0,0,0,.629.752,1.035,1.035,0,0,0,.923-.179,2.366,2.366,0,0,0,.618-.749,6.881,6.881,0,0,0,.786-4.782,3.607,3.607,0,0,0,2.4,1.5,1.99,1.99,0,0,0,2.163-1.515,1.88,1.88,0,0,0-.847-1.747,2.9,2.9,0,0,0-1.959-.412,7.26,7.26,0,0,0,4.287-1.891,1.834,1.834,0,0,0,.739-1.436,1.427,1.427,0,0,0-.941-1.081,3.476,3.476,0,0,0-2.364.09,8.193,8.193,0,0,0-4.362,3.477,4.566,4.566,0,0,0-.654-4.039,1.6,1.6,0,0,0-1.139-.754,1.81,1.81,0,0,0-1.471,1.007,4.707,4.707,0,0,0-.362,2.54,4.8,4.8,0,0,0,1.388,2.777c-.157-.154-1.471.849-1.623.975a6.465,6.465,0,0,0-1.3,1.463c-.347.537-.507,1.17-.847,1.7Z" transform="translate(-23.786 -374.986)" fill="#445c21"/>
                </g>
                <g id="Grupo_1119470" data-name="Grupo 1119470" transform="translate(97.651 11.005)">
                  <path id="Trazado_917353" data-name="Trazado 917353" d="M183.34,370.7c-17.958,20.795,5.237,39.851,26.163,27.8,13.433-8.265,12-26.838-1.382-32.692C201.91,363.091,189.009,364.411,183.34,370.7Z" transform="translate(-176.909 -360.245)" fill="#d56d42"/>
                  <path id="Trazado_917354" data-name="Trazado 917354" d="M210.858,360.257a7.679,7.679,0,0,0-2.928.366c-.395.116-.85.324-.9.733a.994.994,0,0,0,.5.849,3.8,3.8,0,0,0,3.561.475,3.952,3.952,0,0,0-2.252,1,2.064,2.064,0,0,0-.615.879,1.075,1.075,0,0,0,.173,1.024,1.449,1.449,0,0,0,1.435.26,4.3,4.3,0,0,0,2.488-1.713,6.933,6.933,0,0,0-.107,2.675,2.36,2.36,0,0,0,1.712,1.879,1.939,1.939,0,0,0,2.054-1.187,2.336,2.336,0,0,0-.481-2.386,3.784,3.784,0,0,0,4.428,1.439,2.034,2.034,0,0,0,1.415-1.665,2.237,2.237,0,0,0-.959-1.671,5.84,5.84,0,0,0-4.057-1.312,5.355,5.355,0,0,0,1.9-1.114,1.825,1.825,0,0,0,.429-2.029,2.026,2.026,0,0,0-1.485-.916,3.531,3.531,0,0,0-2.882.727,2.836,2.836,0,0,0-.916,2.9A3.751,3.751,0,0,0,210.858,360.257Z" transform="translate(-187.98 -357.789)" fill="#445c21"/>
                </g>
                <g id="Grupo_1119471" data-name="Grupo 1119471" transform="translate(66.249 12.111)">
                  <path id="Trazado_917355" data-name="Trazado 917355" d="M164.048,396.191c8.189-7.074,9.725-21.447.413-28.222-11.814-6.333-29.549-3.791-35.509,9.307C119.821,399.149,149.706,409.714,164.048,396.191Z" transform="translate(-127.249 -361.417)" fill="#c85426"/>
                  <path id="Trazado_917356" data-name="Trazado 917356" d="M166.124,364.58a3,3,0,0,0-2.111.716,1.828,1.828,0,0,0-.455,2.082,2.372,2.372,0,0,0,1.793,1.078,5.519,5.519,0,0,0,3.478-.567,6.224,6.224,0,0,0-1.907,2.188,1.888,1.888,0,1,0,3.194,2.015,6.224,6.224,0,0,0,1.14-2.624,4.772,4.772,0,0,0,1.583,4.412,2.282,2.282,0,0,0,2.153.6,2.182,2.182,0,0,0,1.162-1.244,4.153,4.153,0,0,0-.811-4.435,2.285,2.285,0,0,0,1.368.969,6.773,6.773,0,0,0,1.7.187,5.511,5.511,0,0,0,1.661-.128,1.858,1.858,0,0,0,1.248-1.023,2.254,2.254,0,0,0-.787-2.29,5.606,5.606,0,0,0-5.476-1.315,2.974,2.974,0,0,0,.518-2.441,4.435,4.435,0,0,0-1.272-2.2,3.223,3.223,0,0,0-1.927-1.011,3.028,3.028,0,0,0-2.622,1.495,4.681,4.681,0,0,0-.3,4.522c-.284-.589-.562-.661-1.165-.673C167.559,364.873,166.864,364.592,166.124,364.58Z" transform="translate(-140.54 -359.537)" fill="#445c21"/>
                </g>
              </g>
            </g>
            <g id="Grupo_1119475" data-name="Grupo 1119475" transform="translate(0 34.966)">
              <path id="Trazado_917357" data-name="Trazado 917357" d="M29.448,461.645,7.431,402.462l135.346-6.781,5.775,65.964Z" transform="translate(-7.431 -395.681)" fill="#ac7053"/>
              <path id="Trazado_917358" data-name="Trazado 917358" d="M7.431,406.4l141.12,59.184H29.448Z" transform="translate(-7.431 -399.624)" fill="#734937"/>
              <g id="Grupo_1119474" data-name="Grupo 1119474" transform="translate(7.55 6.297)">
                <line id="Línea_646" data-name="Línea 646" y1="11.066" x2="129.197" transform="translate(0 9.714)" fill="none" stroke="#3d2f28" stroke-miterlimit="10" stroke-width="1"/>
                <line id="Línea_647" data-name="Línea 647" x1="124.279" transform="translate(7.699 41.476)" fill="none" stroke="#3d2f28" stroke-miterlimit="10" stroke-width="1"/>
                <ellipse id="Elipse_11776" data-name="Elipse 11776" cx="3.435" cy="3.073" rx="3.435" ry="3.073" transform="translate(0.39 6.284)" fill="#3d2f28"/>
                <ellipse id="Elipse_11777" data-name="Elipse 11777" cx="2.561" cy="2.291" rx="2.561" ry="2.291" transform="translate(16.923 49.025)" fill="#3d2f28"/>
                <path id="Trazado_917359" data-name="Trazado 917359" d="M40.819,454.246a2.533,2.533,0,1,1-2.517-2.252A2.4,2.4,0,0,1,40.819,454.246Z" transform="translate(-25.406 -422.683)" fill="#3d2f28"/>
                <path id="Trazado_917360" data-name="Trazado 917360" d="M210.758,450.371a2.574,2.574,0,0,1,2.606-2.565,2.64,2.64,0,0,1,2.866,2.331,2.574,2.574,0,0,1-2.606,2.565A2.641,2.641,0,0,1,210.758,450.371Z" transform="translate(-89.737 -421.142)" fill="#3d2f28"/>
                <path id="Trazado_917361" data-name="Trazado 917361" d="M205.821,408.072a2.439,2.439,0,0,1,2.469-2.429,2.5,2.5,0,0,1,2.715,2.209,2.438,2.438,0,0,1-2.469,2.429A2.5,2.5,0,0,1,205.821,408.072Z" transform="translate(-87.922 -405.64)" fill="#3d2f28"/>
                <path id="Trazado_917362" data-name="Trazado 917362" d="M214.427,486.822a2.485,2.485,0,0,1-2.7-2.194,2.423,2.423,0,0,1,2.453-2.413,2.484,2.484,0,0,1,2.7,2.194A2.423,2.423,0,0,1,214.427,486.822Z" transform="translate(-90.094 -433.793)" fill="#3d2f28"/>
              </g>
            </g>
          </g>
          <g id="Grupo_1119490" data-name="Grupo 1119490" transform="translate(135.346 1.204)">
            <path id="Trazado_917363" data-name="Trazado 917363" d="M221.473,381.412l21.294-24.54H347.8l21.294,24.54Z" transform="translate(-221.473 -335.784)" fill="#4c2b21"/>
            <g id="Grupo_1119487" data-name="Grupo 1119487" transform="translate(6.913)">
              <g id="Grupo_1119477" data-name="Grupo 1119477" transform="translate(0 12.793)">
                <path id="Trazado_917364" data-name="Trazado 917364" d="M236.9,366.413c5.224-5.571,6.276-13.638,10.686-19.411,5.557-5.219,14.915,0,14.209,7.382-.155,2.789-1.528,5.4-1.693,8.19,1.073,9.131,7.3,18.625-1.457,26.47C243.064,402.531,223.431,381.963,236.9,366.413Z" transform="translate(-232.405 -344.172)" fill="#fff"/>
                <path id="Trazado_917365" data-name="Trazado 917365" d="M250.266,350.026c-2.471,4.593,5.02,3.91,6.14.7.3,3.624,5.071,3.029,6.894.868.075,2.735,5.345,5.571,5.366,1.444C268.338,342.137,254.537,340.455,250.266,350.026Z" transform="translate(-238.79 -343.755)" fill="#445c21"/>
              </g>
              <g id="Grupo_1119478" data-name="Grupo 1119478" transform="translate(27.092 3.035)">
                <path id="Trazado_917366" data-name="Trazado 917366" d="M280.446,372.551c-6.789-9.085-1.8-15.737.014-24.772-.424-4.782-6.428-9.378-3.586-14.312,3.525-4.916,12.893-2.515,15.049,2.681,1.35,3.235.23,7.384,2.462,10.087,5.69,3.831,12.578,7.239,14.011,14.813C312.533,381.246,292.24,386.753,280.446,372.551Z" transform="translate(-275.567 -329.227)" fill="#fff"/>
                <path id="Trazado_917367" data-name="Trazado 917367" d="M283.066,367.371c.1.63.359,1.342.967,1.533.648.2,1.3-.31,1.688-.868a4.877,4.877,0,0,0,.81-3.446c-.152-1.044-1.4-3-2.651-1.957a3.515,3.515,0,0,0-.795,2.06A8.251,8.251,0,0,0,283.066,367.371Z" transform="translate(-278.087 -340.828)" fill="#e4e4e4"/>
                <path id="Trazado_917368" data-name="Trazado 917368" d="M285.913,356.945a1.822,1.822,0,0,0,.261.776.793.793,0,0,0,.695.369.94.94,0,0,0,.586-.352,2.088,2.088,0,0,0,.39-2.049c-.161-.442-1.035-1.583-1.628-1.253C285.657,354.748,285.839,356.445,285.913,356.945Z" transform="translate(-279.138 -337.901)" fill="#e4e4e4"/>
                <path id="Trazado_917369" data-name="Trazado 917369" d="M275.352,333.39c1.635-6.156,9.832-6.29,14.009-2.622,4.055,1.9,5.559,11.8-.612,7.121,1.833,5.068-5.24,3.776-6.892.647a2.655,2.655,0,0,1-1.428,3.391C276.431,342.753,274.809,336.438,275.352,333.39Z" transform="translate(-275.25 -328.322)" fill="#445c21"/>
              </g>
              <g id="Grupo_1119480" data-name="Grupo 1119480" transform="translate(10.663 25.893)">
                <g id="Grupo_1119479" data-name="Grupo 1119479" transform="translate(0.916 1.892)">
                  <path id="Trazado_917370" data-name="Trazado 917370" d="M281.238,406.581c-12.461,4.167-23.764-7.264-23.618-19.463-.536-4.735-6.167-7.166-6.887-11.647-.451-6.926,9.107-10.422,14.046-6.132,3.247,3.743,6.825,6.525,11.738,7.756C286.646,381.111,295.218,402.586,281.238,406.581Z" transform="translate(-250.718 -367.463)" fill="#e4e4e4"/>
                  <path id="Trazado_917371" data-name="Trazado 917371" d="M276.473,385.187a1.3,1.3,0,0,0,1.488-.2,1.218,1.218,0,0,0,.183-.775c-.047-1.461-1.8-4.029-3.495-2.891C272.78,382.578,275.189,384.721,276.473,385.187Z" transform="translate(-259.264 -372.454)" fill="#fff"/>
                  <path id="Trazado_917372" data-name="Trazado 917372" d="M284.562,386.152a1.321,1.321,0,0,0,1.227.386,1.2,1.2,0,0,0,.555-1.384c-.2-1.112-1.711-2.73-3-2.225C282.035,383.443,284,385.68,284.562,386.152Z" transform="translate(-262.551 -373.114)" fill="#fff"/>
                </g>
                <path id="Trazado_917373" data-name="Trazado 917373" d="M249.706,371.856a9,9,0,0,0,2.963,8.244,2.279,2.279,0,0,0,2.049.695,1.728,1.728,0,0,0,1.039-1.157,5.123,5.123,0,0,0,.158-1.6,3.864,3.864,0,0,0,5.96-4.772,3.1,3.1,0,0,0,3.582.108,3.165,3.165,0,0,0,1.2-3.39,5.227,5.227,0,0,0-1.384-2.106c-2.1-2.157-5.052-3.726-8.039-3.352a8.5,8.5,0,0,0-5.452,3.225,13.1,13.1,0,0,0-2.51,5.917" transform="translate(-249.269 -364.47)" fill="#445c21"/>
              </g>
              <g id="Grupo_1119481" data-name="Grupo 1119481" transform="translate(87.064)">
                <path id="Trazado_917374" data-name="Trazado 917374" d="M404.67,370.885c5.816-5.878,6.359-15.855.83-22.147-4.536-5.337-12.308-7.605-15.677-13.747-1.248-2.275-1.786-4.937-3.367-6.994-3.767-5.172-12.519-3.784-14.435,2.347-1.5,4.4.885,9.1,1.3,13.73.634,6.993-3.232,14.228-.906,20.852C377.037,376.32,398.333,385.113,404.67,370.885Z" transform="translate(-370.622 -323.998)" fill="#fff"/>
                <path id="Trazado_917375" data-name="Trazado 917375" d="M396.353,345.6a1.046,1.046,0,0,0,.856.463.732.732,0,0,0,.529-.419,1.617,1.617,0,0,0,.136-.682,4.244,4.244,0,0,0-.8-2.572c-.5-.684-1.993-1.355-2.053-.011A5.1,5.1,0,0,0,396.353,345.6Z" transform="translate(-379.257 -330.172)" fill="#e4e4e4"/>
                <path id="Trazado_917376" data-name="Trazado 917376" d="M388.371,381.086a3.436,3.436,0,0,0,.587,2.021,1.661,1.661,0,0,0,1.891.608,2.215,2.215,0,0,0,1.062-1.489,7.531,7.531,0,0,0,.21-3.391,3.472,3.472,0,0,0-.761-1.8,1.815,1.815,0,0,0-1.358-.614c-.607.022-.7.487-.912.991A9.008,9.008,0,0,0,388.371,381.086Z" transform="translate(-376.812 -342.973)" fill="#e4e4e4"/>
                <path id="Trazado_917377" data-name="Trazado 917377" d="M378.464,323.562c-9.544-.214-11,20.094-3.988,9.515,1.77,3.963,7.089.615,6.094-2.99C389.483,338.414,391.205,322.635,378.464,323.562Z" transform="translate(-370.093 -323.523)" fill="#445c21"/>
              </g>
              <g id="Grupo_1119482" data-name="Grupo 1119482" transform="translate(65.06 14.54)">
                <path id="Trazado_917378" data-name="Trazado 917378" d="M367.424,377.937c-1.365,8.038-8.454,15.895-17.113,15.046-19.07-1.742-19.3-22.713-4.511-31.235,12.7-4.066,15.48-17.338,23.441-13.27,5.377,4.235.075,10.88-1.349,15.779C366.722,368.682,368.05,373.4,367.424,377.937Z" transform="translate(-335.294 -346.956)" fill="#e4e4e4"/>
                <path id="Trazado_917379" data-name="Trazado 917379" d="M369.45,365.279a1.231,1.231,0,0,0,.973-.164,2.642,2.642,0,0,0,.719-.708c.687-.928.947-3.135-.82-2.452C369.256,362.368,367.644,364.742,369.45,365.279Z" transform="translate(-347.553 -352.146)" fill="#fff"/>
                <path id="Trazado_917380" data-name="Trazado 917380" d="M372.943,351.574a1.616,1.616,0,0,0,1.529,1.043,4.737,4.737,0,0,0,1.908-.469,6.094,6.094,0,0,0-1.02,2.051,2.074,2.074,0,0,0,.638,2.087,2.4,2.4,0,0,0,1.672.343,5.507,5.507,0,0,0,3.545-1.8,7.059,7.059,0,0,0-.006,2.383A2.392,2.392,0,0,0,382.645,359a2.349,2.349,0,0,0,2.395-.783,5.832,5.832,0,0,0,1.136-2.388,8.764,8.764,0,0,0,.063-5.7,6.178,6.178,0,0,0-4.7-3.518,8.293,8.293,0,0,0-5.485,1.054C374.939,348.363,372.52,350.048,372.943,351.574Z" transform="translate(-349.118 -346.517)" fill="#445c21"/>
              </g>
              <g id="Grupo_1119483" data-name="Grupo 1119483" transform="translate(53.262 3.893)">
                <path id="Trazado_917381" data-name="Trazado 917381" d="M316.848,366.028c-1.624-9.357,6.459-12.157,10.7-18.567,3.277-4.077,3.193-10.3,7.007-13.814,4.445-3.97,12.038-.349,11.728,5.613-.085,3.179-2.264,6-2.46,9.173,1.036,8.543,8.093,15.745,3.1,24.98C339.74,387.891,316.6,382.2,316.848,366.028Z" transform="translate(-316.636 -330.526)" fill="#fff"/>
                <path id="Trazado_917382" data-name="Trazado 917382" d="M355.959,368.22c.184.307.474.622.829.58s.567-.429.653-.78c.176-.72,0-3.224-1.207-2.982C354.8,365.323,355.509,367.472,355.959,368.22Z" transform="translate(-330.881 -342.674)" fill="#e4e4e4"/>
                <path id="Trazado_917383" data-name="Trazado 917383" d="M357.154,380.427a2.7,2.7,0,0,0,1.029,1.12,1.66,1.66,0,0,0,1.482.1,2.262,2.262,0,0,0,1.047-2.027,3.617,3.617,0,0,0-.823-2.648c-.61-.652-2.1-1.129-2.73-.262A3.884,3.884,0,0,0,357.154,380.427Z" transform="translate(-331.359 -346.799)" fill="#e4e4e4"/>
                <path id="Trazado_917384" data-name="Trazado 917384" d="M339.993,334.314a2.8,2.8,0,0,0-.763,1.842,1.969,1.969,0,0,0,1.556,1.669,3.226,3.226,0,0,0,2.338-.477,9.6,9.6,0,0,0,1.846-1.594,8.54,8.54,0,0,0-.218,2.789,2.887,2.887,0,0,0,1.485,2.251,2.814,2.814,0,0,0,3.265-1.053,6.365,6.365,0,0,0,1.032-3.51,6.793,6.793,0,0,0,1.569,3.523,2.048,2.048,0,0,0,1.548.641,2.231,2.231,0,0,0,1.714-1.771c.545-1.979-.36-4.094-1.65-5.691a8.832,8.832,0,0,0-4.194-3.009C345.895,328.828,342.139,331.611,339.993,334.314Z" transform="translate(-324.942 -329.68)" fill="#445c21"/>
              </g>
              <g id="Grupo_1119485" data-name="Grupo 1119485" transform="translate(44.053 6.832)">
                <path id="Trazado_917385" data-name="Trazado 917385" d="M330.109,366.65c-.046,7.965-5.773,14.748-13.087,15.542-8.942.755-17.755-10.74-14.1-19.528,5.467-9.36,5.791-9.327,4.547-21,.3-4.783,5.358-8.1,9.568-5.162,4.753,3.45,3.876,10.4,6.4,15.19C326.464,356.273,331.068,360.775,330.109,366.65Z" transform="translate(-302.073 -334.719)" fill="#e4e4e4"/>
                <g id="Grupo_1119484" data-name="Grupo 1119484" transform="translate(15.447 13.546)">
                  <path id="Trazado_917386" data-name="Trazado 917386" d="M328.593,358.953a1.748,1.748,0,0,0,.6.669.808.808,0,0,0,.861,0,1.158,1.158,0,0,0,.361-.882c.068-.867-.053-3.289-1.441-2.962C327.513,356.123,328.092,358.083,328.593,358.953Z" transform="translate(-327.069 -355.749)" fill="#fff"/>
                  <path id="Trazado_917387" data-name="Trazado 917387" d="M331.418,366.9a6.007,6.007,0,0,0,2.616,3.879,1.39,1.39,0,0,0,1.17.279c.492-.175.672-.775.708-1.3a5.523,5.523,0,0,0-.944-3.47,3.408,3.408,0,0,0-1.436-1.262,2.189,2.189,0,0,0-1.85.04C331.16,365.457,331.311,366.337,331.418,366.9Z" transform="translate(-328.27 -359.093)" fill="#fff"/>
                  <path id="Trazado_917388" data-name="Trazado 917388" d="M327.487,365.729c1.088.05.936-2.211-.185-2.18C325.973,363.588,326.486,365.683,327.487,365.729Z" transform="translate(-326.502 -358.617)" fill="#fff"/>
                </g>
                <path id="Trazado_917389" data-name="Trazado 917389" d="M309.454,337.385a6.115,6.115,0,0,0-2.006,2.01,1.778,1.778,0,0,0-.133,1.561,1.641,1.641,0,0,0,1.164.813,3.358,3.358,0,0,0,2.835-.918,9.924,9.924,0,0,0,1.824-2.481,7.684,7.684,0,0,0,1.16,4.441,2.5,2.5,0,0,0,1.368,1.194,2.317,2.317,0,0,0,2.356-1.308,4.857,4.857,0,0,0,.26-4.381,6.494,6.494,0,0,0,2.4,2.12,1.879,1.879,0,0,0,1.352.249,1.737,1.737,0,0,0,.991-1.757,4.493,4.493,0,0,0-1.992-3.546,6.56,6.56,0,0,0-4.018-1.048,20.835,20.835,0,0,0-4.082.886A12.094,12.094,0,0,0,309.454,337.385Z" transform="translate(-303.953 -334.327)" fill="#445c21"/>
              </g>
              <g id="Grupo_1119486" data-name="Grupo 1119486" transform="translate(102.073 8.204)">
                <path id="Trazado_917390" data-name="Trazado 917390" d="M418.661,390.2c-8.865,6.6-22.178,1.551-24.378-9.314-2.012-9.005,3.253-17.487,4.154-26.274.45-4.457-.078-9.611,3.065-13.218,4.432-5.085,13.115-2.546,15.046,3.67,1.086,3.049.7,6.48,1.845,9.508,1.508,3.993,5.366,6.577,7.675,10.166C431.661,373.415,426.953,385.06,418.661,390.2Z" transform="translate(-393.828 -337.301)" fill="#e4e4e4"/>
                <path id="Trazado_917391" data-name="Trazado 917391" d="M399.939,387.73a1.378,1.378,0,0,0,.212.9,1.029,1.029,0,0,0,.918.309,2.087,2.087,0,0,0,1.383-.84,4.593,4.593,0,0,0,.593-3.832c-.4-1.01-1.69-1.969-2.3-.683A10.264,10.264,0,0,0,399.939,387.73Z" transform="translate(-396.075 -353.58)" fill="#fff"/>
                <path id="Trazado_917392" data-name="Trazado 917392" d="M404.755,378.478a1.165,1.165,0,0,0,.491.663.89.89,0,0,0,.926-.126,1.859,1.859,0,0,0,.553-.8,2.529,2.529,0,0,0,.2-1.308,1.285,1.285,0,0,0-1.972-.967C404.3,376.462,404.509,377.809,404.755,378.478Z" transform="translate(-397.757 -350.909)" fill="#fff"/>
                <path id="Trazado_917393" data-name="Trazado 917393" d="M420.317,346.731c-.037-7.339-8.368-13.441-14.694-8.37-6.306,3.915-6.342,14.929-.288,8.769.409,7.224,7.663,4.7,7.94-1.226C413.258,349.894,421.1,351.843,420.317,346.731Z" transform="translate(-396.408 -336.496)" fill="#445c21"/>
              </g>
            </g>
            <g id="Grupo_1119489" data-name="Grupo 1119489" transform="translate(0 45.628)">
              <path id="Trazado_917394" data-name="Trazado 917394" d="M221.473,395.681l5.775,65.964H363.315l5.775-65.964Z" transform="translate(-221.473 -395.681)" fill="#ac7053"/>
              <path id="Trazado_917395" data-name="Trazado 917395" d="M221.473,395.681l141.842,65.964H227.248Z" transform="translate(-221.473 -395.681)" fill="#734937"/>
              <g id="Grupo_1119488" data-name="Grupo 1119488" transform="translate(1.993 5.086)">
                <line id="Línea_648" data-name="Línea 648" y1="4.037" x2="143.985" transform="translate(0 13.641)" fill="none" stroke="#3d2f28" stroke-miterlimit="10" stroke-width="1"/>
                <line id="Línea_649" data-name="Línea 649" x1="139.05" y1="11.641" transform="translate(1.781 38.022)" fill="none" stroke="#3d2f28" stroke-miterlimit="10" stroke-width="1"/>
                <path id="Trazado_917396" data-name="Trazado 917396" d="M439.038,409.975a2.724,2.724,0,1,1-2.707-2.422A2.577,2.577,0,0,1,439.038,409.975Z" transform="translate(-301.467 -405.131)" fill="#3d2f28"/>
                <ellipse id="Elipse_11778" data-name="Elipse 11778" cx="2.707" cy="2.422" rx="2.707" ry="2.422" transform="translate(2.189)" fill="#3d2f28"/>
                <path id="Trazado_917397" data-name="Trazado 917397" d="M240.35,449.517a2.724,2.724,0,1,1-2.707-2.421A2.576,2.576,0,0,1,240.35,449.517Z" transform="translate(-228.416 -419.67)" fill="#3d2f28"/>
                <path id="Trazado_917398" data-name="Trazado 917398" d="M438.075,453.347a2.724,2.724,0,1,1-2.707-2.422A2.577,2.577,0,0,1,438.075,453.347Z" transform="translate(-301.113 -421.078)" fill="#3d2f28"/>
                <path id="Trazado_917399" data-name="Trazado 917399" d="M242.063,487.528a2.724,2.724,0,1,1-2.707-2.422A2.577,2.577,0,0,1,242.063,487.528Z" transform="translate(-229.046 -433.645)" fill="#3d2f28"/>
                <path id="Trazado_917400" data-name="Trazado 917400" d="M435.72,491.358a2.723,2.723,0,1,1-2.706-2.422A2.576,2.576,0,0,1,435.72,491.358Z" transform="translate(-300.247 -435.053)" fill="#3d2f28"/>
              </g>
            </g>
          </g>
        </g>
      </g>
    </g>
  </g>
</svg>
