<svg xmlns="http://www.w3.org/2000/svg" xmlns:xlink="http://www.w3.org/1999/xlink" width="118" height="118" viewBox="0 0 118 118">
  <defs>
    <filter id="Trazado_874925" x="0" y="0" width="117.999" height="118" filterUnits="userSpaceOnUse">
      <feOffset dy="3" input="SourceAlpha"/>
      <feGaussianBlur stdDeviation="3" result="blur"/>
      <feFlood flood-opacity="0.161"/>
      <feComposite operator="in" in2="blur"/>
      <feComposite in="SourceGraphic"/>
    </filter>
  </defs>
  <g id="Grupo_1119512" data-name="Grupo 1119512" transform="translate(-1064.051 -4263)">
    <g id="Grupo_1111553" data-name="Grupo 1111553" transform="translate(264.551 1751.843)">
      <g id="Grupo_1111316" data-name="Grupo 1111316" transform="translate(808.5 2517.157)">
        <g id="Grupo_1109835" data-name="Grupo 1109835" transform="translate(0 0)">
          <g id="Grupo_1107913" data-name="Grupo 1107913" transform="translate(0 0)">
            <g transform="matrix(1, 0, 0, 1, -9, -6)" filter="url(#Trazado_874925)">
              <g id="Trazado_874925-2" data-name="Trazado 874925" transform="translate(9 6)" fill="#9cc8ff" opacity="0.859">
                <path d="M 49.99972534179688 98.4998779296875 C 43.45164108276367 98.4998779296875 37.10022354125977 97.21776580810547 31.12189674377441 94.68914794921875 C 25.34676742553711 92.24647521972656 20.15985298156738 88.74925994873047 15.70523929595947 84.29464721679688 C 11.25062561035156 79.84004974365234 7.753411293029785 74.65313720703125 5.310725212097168 68.87800598144531 C 2.782111167907715 62.89969253540039 1.499996781349182 56.54829406738281 1.499996781349182 50.00022125244141 C 1.499996781349182 43.45157623291016 2.782111167907715 37.10017776489258 5.310725212097168 31.12186431884766 C 7.753411293029785 25.34673500061035 11.25062561035156 20.15983581542969 15.70523929595947 15.70522117614746 C 20.15985298156738 11.25062084197998 25.34676742553711 7.753406524658203 31.12189674377441 5.31073522567749 C 37.10022354125977 2.782120943069458 43.45164108276367 1.500006556510925 49.99972534179688 1.500006556510925 C 56.54780960083008 1.500006556510925 62.89922714233398 2.782120943069458 68.87755584716797 5.31073522567749 C 74.65267944335938 7.753406524658203 79.839599609375 11.25062084197998 84.29421234130859 15.70522117614746 C 88.74882507324219 20.15983581542969 92.24604034423828 25.34673500061035 94.68872833251953 31.12186431884766 C 97.21733856201172 37.10017776489258 98.49945068359375 43.45157623291016 98.49945068359375 49.99964904785156 C 98.49945068359375 56.54829406738281 97.21733856201172 62.89969253540039 94.68872833251953 68.87800598144531 C 92.24604034423828 74.65313720703125 88.74882507324219 79.84004974365234 84.29421234130859 84.29464721679688 C 79.839599609375 88.74925994873047 74.65267944335938 92.24647521972656 68.87755584716797 94.68914794921875 C 62.89922714233398 97.21776580810547 56.54780960083008 98.4998779296875 49.99972534179688 98.4998779296875 Z" stroke="none"/>
                <path d="M 49.99972534179688 3 C 43.65348052978516 3 37.49866485595703 4.242240905761719 31.70623016357422 6.692230224609375 C 26.10989379882812 9.059272766113281 21.08323669433594 12.44853210449219 16.76589202880859 16.76587677001953 C 12.44855499267578 21.08321380615234 9.059295654296875 26.10985565185547 6.692230224609375 31.70618438720703 C 4.24224853515625 37.49859619140625 3 43.65341186523438 3 50.00022888183594 C 3 56.34645843505859 4.24224853515625 62.50127410888672 6.692230224609375 68.29368591308594 C 9.059295654296875 73.8900146484375 12.44855499267578 78.91665649414062 16.76589202880859 83.23399353027344 C 21.08323669433594 87.55132293701172 26.10989379882812 90.94059753417969 31.70623016357422 93.30764007568359 C 37.49866485595703 95.75762939453125 43.65348052978516 96.99987030029297 49.99972534179688 96.99987030029297 C 56.34597015380859 96.99987030029297 62.50078582763672 95.75762939453125 68.293212890625 93.30764007568359 C 73.88955688476562 90.94059753417969 78.91621398925781 87.55132293701172 83.23355865478516 83.23399353027344 C 87.55089569091797 78.91665649414062 90.94015502929688 73.8900146484375 93.30722045898438 68.29368591308594 C 95.7572021484375 62.50127410888672 96.99945068359375 56.34645843505859 96.99945068359375 49.99964141845703 C 96.99945068359375 43.65341186523438 95.7572021484375 37.49859619140625 93.30722045898438 31.70618438720703 C 90.94015502929688 26.10985565185547 87.55089569091797 21.08321380615234 83.23355865478516 16.76587677001953 C 78.91621398925781 12.44853210449219 73.88955688476562 9.059272766113281 68.293212890625 6.692230224609375 C 62.50078582763672 4.242240905761719 56.34597015380859 3 49.99972534179688 3 M 49.99972534179688 0 C 77.61381530761719 0 99.99945068359375 22.38559722900391 99.99945068359375 49.99964141845703 L 99.99945068359375 50.00022888183594 C 99.99945068359375 77.6142578125 77.61381530761719 99.99987030029297 49.99972534179688 99.99987030029297 C 22.38563537597656 99.99987030029297 0 77.6142578125 0 50.00022888183594 L 0 49.99964141845703 C 0 22.38559722900391 22.38563537597656 0 49.99972534179688 0 Z" stroke="none" fill="#fff"/>
              </g>
            </g>
            <g id="Trazado_874923" data-name="Trazado 874923" transform="translate(0 0)" fill="none">
              <path d="M50,0a50,50,0,0,1,50,50h0A50,50,0,0,1,0,50H0A50,50,0,0,1,50,0Z" stroke="none"/>
              <path d="M 49.99972534179688 3 C 43.65348052978516 3 37.49866485595703 4.242240905761719 31.70623016357422 6.692230224609375 C 26.10989379882812 9.059272766113281 21.08323669433594 12.44853210449219 16.76589202880859 16.76587677001953 C 12.44855499267578 21.08321380615234 9.059295654296875 26.10985565185547 6.692230224609375 31.70618438720703 C 4.24224853515625 37.49859619140625 3 43.65341186523438 3 50.00022888183594 C 3 56.34645843505859 4.24224853515625 62.50127410888672 6.692230224609375 68.29368591308594 C 9.059295654296875 73.8900146484375 12.44855499267578 78.91665649414062 16.76589202880859 83.23399353027344 C 21.08323669433594 87.55132293701172 26.10989379882812 90.94059753417969 31.70623016357422 93.30764007568359 C 37.49866485595703 95.75762939453125 43.65348052978516 96.99987030029297 49.99972534179688 96.99987030029297 C 56.34597015380859 96.99987030029297 62.50078582763672 95.75762939453125 68.293212890625 93.30764007568359 C 73.88955688476562 90.94059753417969 78.91621398925781 87.55132293701172 83.23355865478516 83.23399353027344 C 87.55089569091797 78.91665649414062 90.94015502929688 73.8900146484375 93.30722045898438 68.29368591308594 C 95.7572021484375 62.50127410888672 96.99945068359375 56.34645843505859 96.99945068359375 49.99964141845703 C 96.99945068359375 43.65341186523438 95.7572021484375 37.49859619140625 93.30722045898438 31.70618438720703 C 90.94015502929688 26.10985565185547 87.55089569091797 21.08321380615234 83.23355865478516 16.76587677001953 C 78.91621398925781 12.44853210449219 73.88955688476562 9.059272766113281 68.293212890625 6.692230224609375 C 62.50078582763672 4.242240905761719 56.34597015380859 3 49.99972534179688 3 M 49.99972534179688 0 C 77.61381530761719 0 99.99945068359375 22.38559722900391 99.99945068359375 49.99964141845703 L 99.99945068359375 50.00022888183594 C 99.99945068359375 77.6142578125 77.61381530761719 99.99987030029297 49.99972534179688 99.99987030029297 C 22.38563537597656 99.99987030029297 0 77.6142578125 0 50.00022888183594 L 0 49.99964141845703 C 0 22.38559722900391 22.38563537597656 0 49.99972534179688 0 Z" stroke="none" fill="#fff"/>
            </g>
          </g>
        </g>
      </g>
    </g>
    <g id="Grupo_1119511" data-name="Grupo 1119511" transform="translate(1092.051 4288)">
      <g id="Grupo_1119509" data-name="Grupo 1119509">
        <g id="Grupo_1119495" data-name="Grupo 1119495">
          <path id="Trazado_917401" data-name="Trazado 917401" d="M17,33H45V57H17Z" fill="#e6e9ed"/>
        </g>
        <g id="Grupo_1119496" data-name="Grupo 1119496">
          <path id="Trazado_917402" data-name="Trazado 917402" d="M45,33H57V57H45Z" fill="#ccd1d9"/>
        </g>
        <g id="Grupo_1119497" data-name="Grupo 1119497">
          <path id="Trazado_917403" data-name="Trazado 917403" d="M5,33H17V57H5Z" fill="#ccd1d9"/>
        </g>
        <g id="Grupo_1119498" data-name="Grupo 1119498">
          <path id="Trazado_917404" data-name="Trazado 917404" d="M21,9v9.76l4-2.56,4-2.56.16-.1a3.4,3.4,0,0,1,3.68,0l.16.1,4,2.56,4,2.56V9Z" fill="#e6e9ed"/>
        </g>
        <g id="Grupo_1119499" data-name="Grupo 1119499">
          <path id="Trazado_917405" data-name="Trazado 917405" d="M41,9H21a8.776,8.776,0,0,1,8.32-6h3.36A8.778,8.778,0,0,1,41,9Z" fill="#ccd1d9"/>
        </g>
        <g id="Grupo_1119500" data-name="Grupo 1119500">
          <path id="Trazado_917406" data-name="Trazado 917406" d="M58,29a1,1,0,0,1,1,1v2a1,1,0,0,1-1,1H4a1,1,0,0,1-1-1V30a1,1,0,0,1,1-1H58Z" fill="#969faa"/>
        </g>
        <g id="Grupo_1119501" data-name="Grupo 1119501">
          <path id="Trazado_917407" data-name="Trazado 917407" d="M61,58v2a1,1,0,0,1-1,1H2a1,1,0,0,1-1-1V58a1,1,0,0,1,1-1H60A1,1,0,0,1,61,58Z" fill="#969faa"/>
        </g>
        <g id="Grupo_1119502" data-name="Grupo 1119502">
          <path id="Trazado_917408" data-name="Trazado 917408" d="M57,14v5H48a1,1,0,0,1-1-1V14a1,1,0,0,1,1-1h8A1,1,0,0,1,57,14Z" fill="#fcd770"/>
        </g>
        <g id="Grupo_1119503" data-name="Grupo 1119503">
          <path id="Trazado_917409" data-name="Trazado 917409" d="M13,14v5H4a1,1,0,0,1-1-1V14a1,1,0,0,1,1-1h8A1,1,0,0,1,13,14Z" fill="#fcd770"/>
        </g>
        <g id="Grupo_1119504" data-name="Grupo 1119504">
          <path id="Trazado_917410" data-name="Trazado 917410" d="M57,29H49L31,17,13,29H5l8-5.12,8-5.12,4-2.56,4-2.56.16-.1a3.4,3.4,0,0,1,3.68,0l.16.1,4,2.56,4,2.56Z" fill="#ff826e"/>
        </g>
        <g id="Grupo_1119505" data-name="Grupo 1119505">
          <path id="Trazado_917411" data-name="Trazado 917411" d="M49,29H13L31,17Z" fill="#fc6e51"/>
        </g>
        <g id="Grupo_1119506" data-name="Grupo 1119506">
          <circle id="Elipse_11779" data-name="Elipse 11779" cx="2" cy="2" r="2" transform="translate(29 22)" fill="#75b1f2"/>
        </g>
        <g id="Grupo_1119507" data-name="Grupo 1119507">
          <path id="Trazado_917412" data-name="Trazado 917412" d="M39,38v2a1,1,0,0,1-1,1H24a1,1,0,0,1-1-1V38a1,1,0,0,1,1-1H38A1,1,0,0,1,39,38Z" fill="#75b1f2"/>
        </g>
        <g id="Grupo_1119508" data-name="Grupo 1119508">
          <path id="Trazado_917413" data-name="Trazado 917413" d="M39,46V57H23V46a1,1,0,0,1,1-1H38A1,1,0,0,1,39,46Z" fill="#aab2bd"/>
        </g>
      </g>
      <g id="Grupo_1119510" data-name="Grupo 1119510">
        <path id="Trazado_917414" data-name="Trazado 917414" d="M60,56H58V34a2,2,0,0,0,2-2V30a2,2,0,0,0-2-2V14a2,2,0,0,0-2-2H48a2,2,0,0,0-2,2v4a2,2,0,0,0,2,2h8v7.173l-14-8.96V8.838l-.052-.154A9.76,9.76,0,0,0,32.676,2H32V0H30V2h-.676a9.76,9.76,0,0,0-9.272,6.684L20,8.838v9.375l-6,3.84V14a2,2,0,0,0-2-2H4a2,2,0,0,0-2,2v4a2,2,0,0,0,2,2h8v3.333L4.707,28H4a2,2,0,0,0-2,2v2a2,2,0,0,0,2,2V56H2a2,2,0,0,0-2,2v2a2,2,0,0,0,2,2H60a2,2,0,0,0,2-2V58A2,2,0,0,0,60,56ZM4,18V14h8v4ZM56,56H54V34h2ZM24,56V46h6V56Zm8-10h6V56H32Zm6-2H24a2,2,0,0,0-2,2V56H18V34H44V56H40V46A2,2,0,0,0,38,44ZM12,34V56H10V34Zm2,0h2V56H14Zm32,0h2V56H46Zm4,0h2V56H50ZM48,18V14h8v4ZM38,15.653V10h2v6.933ZM28,10v3.093l-2,1.28V10Zm2,0h2v2.135a4.56,4.56,0,0,0-2,0Zm4,0h2v4.373l-2-1.28ZM29.324,4h3.352a7.762,7.762,0,0,1,6.792,4H22.532a7.762,7.762,0,0,1,6.792-4ZM22,10h2v5.653l-2,1.28Zm7.7,4.381a2.454,2.454,0,0,1,2.605,0L53.582,28H49.3L31,15.8,12.7,28H8.417ZM45.7,28H16.3L31,18.2ZM4,30H58v2H4Zm2,4H8V56H6ZM2,60V58H60v2Z"/>
        <path id="Trazado_917415" data-name="Trazado 917415" d="M40,38a2,2,0,0,0-2-2H24a2,2,0,0,0-2,2v2a2,2,0,0,0,2,2H38a2,2,0,0,0,2-2ZM24,40V38H38v2Z"/>
        <path id="Trazado_917416" data-name="Trazado 917416" d="M26,50h2v2H26Z"/>
        <path id="Trazado_917417" data-name="Trazado 917417" d="M34,50h2v2H34Z"/>
        <path id="Trazado_917418" data-name="Trazado 917418" d="M28,24a3,3,0,1,0,3-3A3,3,0,0,0,28,24Zm4,0a1,1,0,1,1-1-1A1,1,0,0,1,32,24Z"/>
      </g>
    </g>
  </g>
</svg>
