<svg xmlns="http://www.w3.org/2000/svg" xmlns:xlink="http://www.w3.org/1999/xlink" width="117.999" height="118" viewBox="0 0 117.999 118">
  <defs>
    <filter id="Trazado_874925" x="-0.001" y="0" width="117.999" height="118" filterUnits="userSpaceOnUse">
      <feOffset dy="3" input="SourceAlpha"/>
      <feGaussianBlur stdDeviation="3" result="blur"/>
      <feFlood flood-opacity="0.161"/>
      <feComposite operator="in" in2="blur"/>
      <feComposite in="SourceGraphic"/>
    </filter>
  </defs>
  <g id="Grupo_1119513" data-name="Grupo 1119513" transform="translate(-10895.001 7325)">
    <g id="Grupo_1111552" data-name="Grupo 1111552" transform="translate(10095.5 -9836.157)">
      <g id="Grupo_1111316" data-name="Grupo 1111316" transform="translate(808.5 2517.157)">
        <g id="Grupo_1109835" data-name="Grupo 1109835" transform="translate(0 0)">
          <g id="Grupo_1107913" data-name="Grupo 1107913" transform="translate(0 0)">
            <g transform="matrix(1, 0, 0, 1, -9, -6)" filter="url(#Trazado_874925)">
              <g id="Trazado_874925-2" data-name="Trazado 874925" transform="translate(9 6)" fill="#9cc8ff" opacity="0.859">
                <path d="M 49.99972534179688 98.4998779296875 C 43.45164108276367 98.4998779296875 37.10022354125977 97.21776580810547 31.12189674377441 94.68914794921875 C 25.34676742553711 92.24647521972656 20.15985298156738 88.74925994873047 15.70523929595947 84.29464721679688 C 11.25062561035156 79.84004974365234 7.753411293029785 74.65313720703125 5.310725212097168 68.87800598144531 C 2.782111167907715 62.89969253540039 1.499996781349182 56.54829406738281 1.499996781349182 50.00022125244141 C 1.499996781349182 43.45157623291016 2.782111167907715 37.10017776489258 5.310725212097168 31.12186431884766 C 7.753411293029785 25.34673500061035 11.25062561035156 20.15983581542969 15.70523929595947 15.70522117614746 C 20.15985298156738 11.25062084197998 25.34676742553711 7.753406524658203 31.12189674377441 5.31073522567749 C 37.10022354125977 2.782120943069458 43.45164108276367 1.500006556510925 49.99972534179688 1.500006556510925 C 56.54780960083008 1.500006556510925 62.89922714233398 2.782120943069458 68.87755584716797 5.31073522567749 C 74.65267944335938 7.753406524658203 79.839599609375 11.25062084197998 84.29421234130859 15.70522117614746 C 88.74882507324219 20.15983581542969 92.24604034423828 25.34673500061035 94.68872833251953 31.12186431884766 C 97.21733856201172 37.10017776489258 98.49945068359375 43.45157623291016 98.49945068359375 49.99964904785156 C 98.49945068359375 56.54829406738281 97.21733856201172 62.89969253540039 94.68872833251953 68.87800598144531 C 92.24604034423828 74.65313720703125 88.74882507324219 79.84004974365234 84.29421234130859 84.29464721679688 C 79.839599609375 88.74925994873047 74.65267944335938 92.24647521972656 68.87755584716797 94.68914794921875 C 62.89922714233398 97.21776580810547 56.54780960083008 98.4998779296875 49.99972534179688 98.4998779296875 Z" stroke="none"/>
                <path d="M 49.99972534179688 3 C 43.65348052978516 3 37.49866485595703 4.242240905761719 31.70623016357422 6.692230224609375 C 26.10989379882812 9.059272766113281 21.08323669433594 12.44853210449219 16.76589202880859 16.76587677001953 C 12.44855499267578 21.08321380615234 9.059295654296875 26.10985565185547 6.692230224609375 31.70618438720703 C 4.24224853515625 37.49859619140625 3 43.65341186523438 3 50.00022888183594 C 3 56.34645843505859 4.24224853515625 62.50127410888672 6.692230224609375 68.29368591308594 C 9.059295654296875 73.8900146484375 12.44855499267578 78.91665649414062 16.76589202880859 83.23399353027344 C 21.08323669433594 87.55132293701172 26.10989379882812 90.94059753417969 31.70623016357422 93.30764007568359 C 37.49866485595703 95.75762939453125 43.65348052978516 96.99987030029297 49.99972534179688 96.99987030029297 C 56.34597015380859 96.99987030029297 62.50078582763672 95.75762939453125 68.293212890625 93.30764007568359 C 73.88955688476562 90.94059753417969 78.91621398925781 87.55132293701172 83.23355865478516 83.23399353027344 C 87.55089569091797 78.91665649414062 90.94015502929688 73.8900146484375 93.30722045898438 68.29368591308594 C 95.7572021484375 62.50127410888672 96.99945068359375 56.34645843505859 96.99945068359375 49.99964141845703 C 96.99945068359375 43.65341186523438 95.7572021484375 37.49859619140625 93.30722045898438 31.70618438720703 C 90.94015502929688 26.10985565185547 87.55089569091797 21.08321380615234 83.23355865478516 16.76587677001953 C 78.91621398925781 12.44853210449219 73.88955688476562 9.059272766113281 68.293212890625 6.692230224609375 C 62.50078582763672 4.242240905761719 56.34597015380859 3 49.99972534179688 3 M 49.99972534179688 0 C 77.61381530761719 0 99.99945068359375 22.38559722900391 99.99945068359375 49.99964141845703 L 99.99945068359375 50.00022888183594 C 99.99945068359375 77.6142578125 77.61381530761719 99.99987030029297 49.99972534179688 99.99987030029297 C 22.38563537597656 99.99987030029297 0 77.6142578125 0 50.00022888183594 L 0 49.99964141845703 C 0 22.38559722900391 22.38563537597656 0 49.99972534179688 0 Z" stroke="none" fill="#fff"/>
              </g>
            </g>
            <g id="Trazado_874923" data-name="Trazado 874923" transform="translate(0 0)" fill="none">
              <path d="M50,0a50,50,0,0,1,50,50h0A50,50,0,0,1,0,50H0A50,50,0,0,1,50,0Z" stroke="none"/>
              <path d="M 49.99972534179688 3 C 43.65348052978516 3 37.49866485595703 4.242240905761719 31.70623016357422 6.692230224609375 C 26.10989379882812 9.059272766113281 21.08323669433594 12.44853210449219 16.76589202880859 16.76587677001953 C 12.44855499267578 21.08321380615234 9.059295654296875 26.10985565185547 6.692230224609375 31.70618438720703 C 4.24224853515625 37.49859619140625 3 43.65341186523438 3 50.00022888183594 C 3 56.34645843505859 4.24224853515625 62.50127410888672 6.692230224609375 68.29368591308594 C 9.059295654296875 73.8900146484375 12.44855499267578 78.91665649414062 16.76589202880859 83.23399353027344 C 21.08323669433594 87.55132293701172 26.10989379882812 90.94059753417969 31.70623016357422 93.30764007568359 C 37.49866485595703 95.75762939453125 43.65348052978516 96.99987030029297 49.99972534179688 96.99987030029297 C 56.34597015380859 96.99987030029297 62.50078582763672 95.75762939453125 68.293212890625 93.30764007568359 C 73.88955688476562 90.94059753417969 78.91621398925781 87.55132293701172 83.23355865478516 83.23399353027344 C 87.55089569091797 78.91665649414062 90.94015502929688 73.8900146484375 93.30722045898438 68.29368591308594 C 95.7572021484375 62.50127410888672 96.99945068359375 56.34645843505859 96.99945068359375 49.99964141845703 C 96.99945068359375 43.65341186523438 95.7572021484375 37.49859619140625 93.30722045898438 31.70618438720703 C 90.94015502929688 26.10985565185547 87.55089569091797 21.08321380615234 83.23355865478516 16.76587677001953 C 78.91621398925781 12.44853210449219 73.88955688476562 9.059272766113281 68.293212890625 6.692230224609375 C 62.50078582763672 4.242240905761719 56.34597015380859 3 49.99972534179688 3 M 49.99972534179688 0 C 77.61381530761719 0 99.99945068359375 22.38559722900391 99.99945068359375 49.99964141845703 L 99.99945068359375 50.00022888183594 C 99.99945068359375 77.6142578125 77.61381530761719 99.99987030029297 49.99972534179688 99.99987030029297 C 22.38563537597656 99.99987030029297 0 77.6142578125 0 50.00022888183594 L 0 49.99964141845703 C 0 22.38559722900391 22.38563537597656 0 49.99972534179688 0 Z" stroke="none" fill="#fff"/>
            </g>
          </g>
        </g>
      </g>
    </g>
    <g id="Page-1" transform="translate(10924 -7299.006)">
      <g id="_031---University" data-name="031---University">
        <g id="colour" transform="translate(1)">
          <path id="Shape" d="M15,54H43v4a1,1,0,0,1-1,1H16a1,1,0,0,1-1-1Z" fill="#808d93"/>
          <path id="Shape-2" data-name="Shape" d="M40,54v4a1,1,0,0,1-1,1h3a1,1,0,0,0,1-1V54Z" fill="#545c60"/>
          <path id="Shape-3" data-name="Shape" d="M15,58H1a1,1,0,0,1-1-1V55a1,1,0,0,1,1-1H15Z" fill="#627d8b"/>
          <path id="Shape-4" data-name="Shape" d="M43,58H57a1,1,0,0,0,1-1V55a1,1,0,0,0-1-1H43Z" fill="#627d8b"/>
          <path id="Shape-5" data-name="Shape" d="M57,54H54a1,1,0,0,1,1,1v2a1,1,0,0,1-1,1h3a1,1,0,0,0,1-1V55A1,1,0,0,0,57,54Z" fill="#384750"/>
          <path id="Rectangle-path" d="M17,30H41V54H17Z" fill="#ffe800"/>
          <path id="Rectangle-path-2" data-name="Rectangle-path" d="M38,30h3V54H38Z" fill="#fbd500"/>
          <path id="Shape-6" data-name="Shape" d="M45,22v3a1,1,0,0,1-1,1H14a1,1,0,0,1-1-1V22Z" fill="#f85600"/>
          <path id="Shape-7" data-name="Shape" d="M42,22v3a1,1,0,0,1-1,1h3a1,1,0,0,0,1-1V22Z" fill="#d24200"/>
          <path id="Shape-8" data-name="Shape" d="M45,22H13l4.4-5.28A2,2,0,0,1,18.94,16H38.17a2,2,0,0,1,1.42.59Z" fill="#f85600"/>
          <path id="Shape-9" data-name="Shape" d="M39.59,16.59A2,2,0,0,0,38.17,16h-3a2,2,0,0,1,1.42.59L42,22h3Z" fill="#d24200"/>
          <path id="Rectangle-path-3" data-name="Rectangle-path" d="M15,26H43v4H15Z" fill="#fdd900"/>
          <path id="Rectangle-path-4" data-name="Rectangle-path" d="M40,26h3v4H40Z" fill="#fbbe00"/>
          <path id="Rectangle-path-5" data-name="Rectangle-path" d="M41,30H57V54H41Z" fill="#fdd900"/>
          <path id="Rectangle-path-6" data-name="Rectangle-path" d="M54,30h3V54H54Z" fill="#fbbe00"/>
          <path id="Shape-10" data-name="Shape" d="M57,30H43V26h1a1,1,0,0,0,1-1V24h7.76a2,2,0,0,1,1.79,1.11Z" fill="#fa9600"/>
          <path id="Shape-11" data-name="Shape" d="M54.55,25.11A2,2,0,0,0,52.76,24h-3a2,2,0,0,1,1.79,1.11L54,30h3Z" fill="#ef7b00"/>
          <path id="Rectangle-path-7" data-name="Rectangle-path" d="M1,30H17V54H1Z" fill="#fdd900"/>
          <path id="Shape-12" data-name="Shape" d="M15,26v4H1l2.45-4.89A2,2,0,0,1,5.24,24H13v1a1,1,0,0,0,1,1Z" fill="#fa9600"/>
          <path id="Rectangle-path-8" data-name="Rectangle-path" d="M25,41h8V54H25Z" fill="#3e54b8"/>
          <path id="Shape-13" data-name="Shape" d="M42.26,6.47,38,7.62,29.25,10a1.06,1.06,0,0,1-.5,0L20,7.62,15.74,6.47a1,1,0,0,1,0-1.94l13-3.5a1.06,1.06,0,0,1,.5,0l13,3.5a1,1,0,0,1,.02,1.94Z" fill="#26aaf7"/>
          <path id="Shape-14" data-name="Shape" d="M42.26,4.53,29.25,1a1.06,1.06,0,0,0-.5,0l-1.25.34L39.26,4.53a1,1,0,0,1,0,1.94L35,7.62l-7.5,2,1.25.34a1.06,1.06,0,0,0,.5,0L38,7.62l4.26-1.15a1,1,0,0,0,0-1.94Z" fill="#1779be"/>
          <path id="Shape-15" data-name="Shape" d="M38,7.62V16H20V7.62L28.75,10a1.06,1.06,0,0,0,.5,0Z" fill="#3e54b8"/>
          <path id="Shape-16" data-name="Shape" d="M35,8.43V16h3V7.62Z" fill="#263995"/>
        </g>
        <g id="outline">
          <path id="Shape-17" data-name="Shape" d="M59,53.28V30a1.06,1.06,0,0,0-.11-.44l-2.44-4.89A3,3,0,0,0,53.76,23H47V22a1,1,0,0,0-.29-.71l-5.42-5.41A2.91,2.91,0,0,0,40,15.13V8.39l2-.54v2.42a3,3,0,0,0,1.37,2.55.94.94,0,0,0,.55.17,1,1,0,0,0,.56-1.83,1.07,1.07,0,0,1-.48-.89v-3a2.035,2.035,0,0,0-.48-3.71L30.51.07a2,2,0,0,0-1,0l-13,3.49a2,2,0,0,0,0,3.88l3.52,1V15h-.06a3,3,0,0,0-2.31,1.08l-4.4,5.28A1,1,0,0,0,13,22v1H6.24a3,3,0,0,0-2.69,1.66L1.11,29.55A1.06,1.06,0,0,0,1,30V53.28A2,2,0,0,0,0,55v2a2,2,0,0,0,2,2H15.28A2,2,0,0,0,17,60H43a2,2,0,0,0,1.72-1H58a2,2,0,0,0,2-2V55A2,2,0,0,0,59,53.28ZM44,53H43V31H57V53ZM33,53H27V42h6Zm1-13H26a1,1,0,0,0-1,1V53H19V31H41V53H35V41A1,1,0,0,0,34,40ZM45,23v2H15V23Zm-2,4v2H17V27Zm10.76-2a1,1,0,0,1,.9.55L56.38,29H45V27a2,2,0,0,0,2-2ZM30,2,43,5.5,30,9,17,5.49ZM22,8.92l7.49,2a1.89,1.89,0,0,0,1,0l7.49-2V15H22Zm-2.83,8.44a1,1,0,0,1,.77-.36H39.17a1,1,0,0,1,.71.29L43.59,21H16.14ZM5.34,25.55a1,1,0,0,1,.9-.55H13a2,2,0,0,0,2,2v2H3.62ZM2,55H15v2H2Zm14-2H3V31H17V53Zm1,5V55H43v3Zm41-1H45V55H58Z"/>
          <path id="Shape-18" data-name="Shape" d="M27,33a1,1,0,0,0-1,1v2a1,1,0,0,0,2,0V34A1,1,0,0,0,27,33Z"/>
          <path id="Shape-19" data-name="Shape" d="M13,34a1,1,0,0,0-1,1v2a1,1,0,0,0,2,0V35A1,1,0,0,0,13,34Z"/>
          <path id="Shape-20" data-name="Shape" d="M7,34a1,1,0,0,0-1,1v2a1,1,0,0,0,2,0V35A1,1,0,0,0,7,34Z"/>
          <path id="Shape-21" data-name="Shape" d="M13,40a1,1,0,0,0-1,1v2a1,1,0,0,0,2,0V41A1,1,0,0,0,13,40Z"/>
          <path id="Shape-22" data-name="Shape" d="M7,40a1,1,0,0,0-1,1v2a1,1,0,0,0,2,0V41A1,1,0,0,0,7,40Z"/>
          <path id="Shape-23" data-name="Shape" d="M13,46a1,1,0,0,0-1,1v2a1,1,0,0,0,2,0V47A1,1,0,0,0,13,46Z"/>
          <path id="Shape-24" data-name="Shape" d="M7,46a1,1,0,0,0-1,1v2a1,1,0,0,0,2,0V47A1,1,0,0,0,7,46Z"/>
          <path id="Shape-25" data-name="Shape" d="M53,34a1,1,0,0,0-1,1v2a1,1,0,0,0,2,0V35A1,1,0,0,0,53,34Z"/>
          <path id="Shape-26" data-name="Shape" d="M47,34a1,1,0,0,0-1,1v2a1,1,0,0,0,2,0V35A1,1,0,0,0,47,34Z"/>
          <path id="Shape-27" data-name="Shape" d="M53,40a1,1,0,0,0-1,1v2a1,1,0,0,0,2,0V41A1,1,0,0,0,53,40Z"/>
          <path id="Shape-28" data-name="Shape" d="M47,40a1,1,0,0,0-1,1v2a1,1,0,0,0,2,0V41A1,1,0,0,0,47,40Z"/>
          <path id="Shape-29" data-name="Shape" d="M53,46a1,1,0,0,0-1,1v2a1,1,0,0,0,2,0V47A1,1,0,0,0,53,46Z"/>
          <path id="Shape-30" data-name="Shape" d="M47,46a1,1,0,0,0-1,1v2a1,1,0,0,0,2,0V47A1,1,0,0,0,47,46Z"/>
          <path id="Shape-31" data-name="Shape" d="M33,33a1,1,0,0,0-1,1v2a1,1,0,0,0,2,0V34A1,1,0,0,0,33,33Z"/>
        </g>
      </g>
    </g>
  </g>
</svg>
