<svg xmlns="http://www.w3.org/2000/svg" xmlns:xlink="http://www.w3.org/1999/xlink" width="117.999" height="118" viewBox="0 0 117.999 118">
  <defs>
    <filter id="Trazado_874925" x="-0.001" y="0" width="117.999" height="118" filterUnits="userSpaceOnUse">
      <feOffset dy="3" input="SourceAlpha"/>
      <feGaussianBlur stdDeviation="3" result="blur"/>
      <feFlood flood-opacity="0.161"/>
      <feComposite operator="in" in2="blur"/>
      <feComposite in="SourceGraphic"/>
    </filter>
  </defs>
  <g id="Grupo_1119554" data-name="Grupo 1119554" transform="translate(-11837.001 7325)">
    <g id="Grupo_1111553" data-name="Grupo 1111553" transform="translate(11037.5 -9836.157)">
      <g id="Grupo_1111316" data-name="Grupo 1111316" transform="translate(808.5 2517.157)">
        <g id="Grupo_1109835" data-name="Grupo 1109835" transform="translate(0 0)">
          <g id="Grupo_1107913" data-name="Grupo 1107913" transform="translate(0 0)">
            <g transform="matrix(1, 0, 0, 1, -9, -6)" filter="url(#Trazado_874925)">
              <g id="Trazado_874925-2" data-name="Trazado 874925" transform="translate(9 6)" fill="#9cc8ff" opacity="0.859">
                <path d="M 49.99972534179688 98.4998779296875 C 43.45164108276367 98.4998779296875 37.10022354125977 97.21776580810547 31.12189674377441 94.68914794921875 C 25.34676742553711 92.24647521972656 20.15985298156738 88.74925994873047 15.70523929595947 84.29464721679688 C 11.25062561035156 79.84004974365234 7.753411293029785 74.65313720703125 5.310725212097168 68.87800598144531 C 2.782111167907715 62.89969253540039 1.499996781349182 56.54829406738281 1.499996781349182 50.00022125244141 C 1.499996781349182 43.45157623291016 2.782111167907715 37.10017776489258 5.310725212097168 31.12186431884766 C 7.753411293029785 25.34673500061035 11.25062561035156 20.15983581542969 15.70523929595947 15.70522117614746 C 20.15985298156738 11.25062084197998 25.34676742553711 7.753406524658203 31.12189674377441 5.31073522567749 C 37.10022354125977 2.782120943069458 43.45164108276367 1.500006556510925 49.99972534179688 1.500006556510925 C 56.54780960083008 1.500006556510925 62.89922714233398 2.782120943069458 68.87755584716797 5.31073522567749 C 74.65267944335938 7.753406524658203 79.839599609375 11.25062084197998 84.29421234130859 15.70522117614746 C 88.74882507324219 20.15983581542969 92.24604034423828 25.34673500061035 94.68872833251953 31.12186431884766 C 97.21733856201172 37.10017776489258 98.49945068359375 43.45157623291016 98.49945068359375 49.99964904785156 C 98.49945068359375 56.54829406738281 97.21733856201172 62.89969253540039 94.68872833251953 68.87800598144531 C 92.24604034423828 74.65313720703125 88.74882507324219 79.84004974365234 84.29421234130859 84.29464721679688 C 79.839599609375 88.74925994873047 74.65267944335938 92.24647521972656 68.87755584716797 94.68914794921875 C 62.89922714233398 97.21776580810547 56.54780960083008 98.4998779296875 49.99972534179688 98.4998779296875 Z" stroke="none"/>
                <path d="M 49.99972534179688 3 C 43.65348052978516 3 37.49866485595703 4.242240905761719 31.70623016357422 6.692230224609375 C 26.10989379882812 9.059272766113281 21.08323669433594 12.44853210449219 16.76589202880859 16.76587677001953 C 12.44855499267578 21.08321380615234 9.059295654296875 26.10985565185547 6.692230224609375 31.70618438720703 C 4.24224853515625 37.49859619140625 3 43.65341186523438 3 50.00022888183594 C 3 56.34645843505859 4.24224853515625 62.50127410888672 6.692230224609375 68.29368591308594 C 9.059295654296875 73.8900146484375 12.44855499267578 78.91665649414062 16.76589202880859 83.23399353027344 C 21.08323669433594 87.55132293701172 26.10989379882812 90.94059753417969 31.70623016357422 93.30764007568359 C 37.49866485595703 95.75762939453125 43.65348052978516 96.99987030029297 49.99972534179688 96.99987030029297 C 56.34597015380859 96.99987030029297 62.50078582763672 95.75762939453125 68.293212890625 93.30764007568359 C 73.88955688476562 90.94059753417969 78.91621398925781 87.55132293701172 83.23355865478516 83.23399353027344 C 87.55089569091797 78.91665649414062 90.94015502929688 73.8900146484375 93.30722045898438 68.29368591308594 C 95.7572021484375 62.50127410888672 96.99945068359375 56.34645843505859 96.99945068359375 49.99964141845703 C 96.99945068359375 43.65341186523438 95.7572021484375 37.49859619140625 93.30722045898438 31.70618438720703 C 90.94015502929688 26.10985565185547 87.55089569091797 21.08321380615234 83.23355865478516 16.76587677001953 C 78.91621398925781 12.44853210449219 73.88955688476562 9.059272766113281 68.293212890625 6.692230224609375 C 62.50078582763672 4.242240905761719 56.34597015380859 3 49.99972534179688 3 M 49.99972534179688 0 C 77.61381530761719 0 99.99945068359375 22.38559722900391 99.99945068359375 49.99964141845703 L 99.99945068359375 50.00022888183594 C 99.99945068359375 77.6142578125 77.61381530761719 99.99987030029297 49.99972534179688 99.99987030029297 C 22.38563537597656 99.99987030029297 0 77.6142578125 0 50.00022888183594 L 0 49.99964141845703 C 0 22.38559722900391 22.38563537597656 0 49.99972534179688 0 Z" stroke="none" fill="#fff"/>
              </g>
            </g>
            <g id="Trazado_874923" data-name="Trazado 874923" transform="translate(0 0)" fill="none">
              <path d="M50,0a50,50,0,0,1,50,50h0A50,50,0,0,1,0,50H0A50,50,0,0,1,50,0Z" stroke="none"/>
              <path d="M 49.99972534179688 3 C 43.65348052978516 3 37.49866485595703 4.242240905761719 31.70623016357422 6.692230224609375 C 26.10989379882812 9.059272766113281 21.08323669433594 12.44853210449219 16.76589202880859 16.76587677001953 C 12.44855499267578 21.08321380615234 9.059295654296875 26.10985565185547 6.692230224609375 31.70618438720703 C 4.24224853515625 37.49859619140625 3 43.65341186523438 3 50.00022888183594 C 3 56.34645843505859 4.24224853515625 62.50127410888672 6.692230224609375 68.29368591308594 C 9.059295654296875 73.8900146484375 12.44855499267578 78.91665649414062 16.76589202880859 83.23399353027344 C 21.08323669433594 87.55132293701172 26.10989379882812 90.94059753417969 31.70623016357422 93.30764007568359 C 37.49866485595703 95.75762939453125 43.65348052978516 96.99987030029297 49.99972534179688 96.99987030029297 C 56.34597015380859 96.99987030029297 62.50078582763672 95.75762939453125 68.293212890625 93.30764007568359 C 73.88955688476562 90.94059753417969 78.91621398925781 87.55132293701172 83.23355865478516 83.23399353027344 C 87.55089569091797 78.91665649414062 90.94015502929688 73.8900146484375 93.30722045898438 68.29368591308594 C 95.7572021484375 62.50127410888672 96.99945068359375 56.34645843505859 96.99945068359375 49.99964141845703 C 96.99945068359375 43.65341186523438 95.7572021484375 37.49859619140625 93.30722045898438 31.70618438720703 C 90.94015502929688 26.10985565185547 87.55089569091797 21.08321380615234 83.23355865478516 16.76587677001953 C 78.91621398925781 12.44853210449219 73.88955688476562 9.059272766113281 68.293212890625 6.692230224609375 C 62.50078582763672 4.242240905761719 56.34597015380859 3 49.99972534179688 3 M 49.99972534179688 0 C 77.61381530761719 0 99.99945068359375 22.38559722900391 99.99945068359375 49.99964141845703 L 99.99945068359375 50.00022888183594 C 99.99945068359375 77.6142578125 77.61381530761719 99.99987030029297 49.99972534179688 99.99987030029297 C 22.38563537597656 99.99987030029297 0 77.6142578125 0 50.00022888183594 L 0 49.99964141845703 C 0 22.38559722900391 22.38563537597656 0 49.99972534179688 0 Z" stroke="none" fill="#fff"/>
            </g>
          </g>
        </g>
      </g>
    </g>
    <g id="Grupo_1119553" data-name="Grupo 1119553" transform="translate(11855.572 -7304)">
      <g id="Grupo_1119551" data-name="Grupo 1119551" transform="translate(7.445 1.02)">
        <path id="Trazado_917482" data-name="Trazado 917482" d="M186.158,25.889h-30.95l2.448-13a6.615,6.615,0,0,1,6.5-5.39h13.052a6.615,6.615,0,0,1,6.5,5.39Z" transform="translate(-135.996 -7.5)" fill="#99e6fc"/>
        <path id="Trazado_917483" data-name="Trazado 917483" d="M301.047,12.89a6.614,6.614,0,0,0-6.5-5.39h-3.536a6.615,6.615,0,0,1,6.5,5.39l2.448,13H303.5Z" transform="translate(-253.334 -7.5)" fill="#62dbfb"/>
        <ellipse id="Elipse_11781" data-name="Elipse 11781" cx="24.165" cy="6.247" rx="24.165" ry="6.247" transform="translate(10.522 13.935)" fill="#766e6e"/>
        <path id="Trazado_917484" data-name="Trazado 917484" d="M193.941,119.178H182.446a6.834,6.834,0,0,1-6.834-6.834V96.2h25.163v16.142A6.834,6.834,0,0,1,193.941,119.178Z" transform="translate(-153.626 -84.141)" fill="#ffb09e"/>
        <path id="Trazado_917485" data-name="Trazado 917485" d="M291.243,96.2v16.142a6.834,6.834,0,0,1-6.834,6.834h3.536a6.834,6.834,0,0,0,6.834-6.834V96.2Z" transform="translate(-247.629 -84.141)" fill="#ffa78f"/>
        <g id="Grupo_1119548" data-name="Grupo 1119548" transform="translate(9.671 10.15)">
          <path id="Trazado_917486" data-name="Trazado 917486" d="M134.834,88.06c0,.63-.613,4.12-.613,4.12,0-3.45-10.819-6.248-24.165-6.248s-24.165,2.8-24.165,6.248c0,0-.851-3.389-.851-3.972,0-3.45,10.732-6.06,25.016-6.06S134.834,84.611,134.834,88.06Z" transform="translate(-85.04 -82.149)" fill="#c8effe"/>
          <path id="Trazado_917487" data-name="Trazado 917487" d="M134.834,88.06c0,.63-.613,4.12-.613,4.12,0-3.45-10.819-6.248-24.165-6.248s-24.165,2.8-24.165,6.248c0,0-.851-3.389-.851-3.972,0-3.45,10.732-6.06,25.016-6.06S134.834,84.611,134.834,88.06Z" transform="translate(-85.04 -82.149)" fill="#c8effe"/>
          <path id="Trazado_917488" data-name="Trazado 917488" d="M134.834,88.06c0,.63-.613,4.12-.613,4.12,0-3.45-10.819-6.248-24.165-6.248s-24.165,2.8-24.165,6.248c0,0-.851-3.389-.851-3.972,0-3.45,10.732-6.06,25.016-6.06S134.834,84.611,134.834,88.06Z" transform="translate(-85.04 -82.149)" fill="#c8effe"/>
        </g>
        <path id="Trazado_917489" data-name="Trazado 917489" d="M54.854,319.879a8.508,8.508,0,0,0-7.935,5.438l-8.711,19.665H49.33l5.525-11.892v9.719H84.091v-22.93Z" transform="translate(-34.905 -277.404)" fill="#99e6fc"/>
        <g id="Grupo_1119549" data-name="Grupo 1119549" transform="translate(45.65 42.475)">
          <path id="Trazado_917490" data-name="Trazado 917490" d="M349.649,319.879h3.536v22.93h-3.536Z" transform="translate(-349.649 -319.879)" fill="#62dbfb"/>
        </g>
        <path id="Trazado_917491" data-name="Trazado 917491" d="M235.69,265.176h8.825v7.438H235.69Z" transform="translate(-205.535 -230.139)" fill="#ffa78f"/>
        <path id="Trazado_917492" data-name="Trazado 917492" d="M273.836,265.176h3.639v7.438h-3.639Z" transform="translate(-238.494 -230.139)" fill="#f89580"/>
        <path id="Trazado_917493" data-name="Trazado 917493" d="M202.349,319.879h4.533v12.186h-4.533Z" transform="translate(-176.727 -277.404)" fill="#4f66d0"/>
        <path id="Trazado_917494" data-name="Trazado 917494" d="M300.6,319.879h4.533v12.186H300.6Z" transform="translate(-261.615 -277.404)" fill="#4f66d0"/>
        <path id="Trazado_917495" data-name="Trazado 917495" d="M375.652,333.09l5.525,11.892H392.3l-8.711-19.665a8.508,8.508,0,0,0-7.935-5.438Z" transform="translate(-326.466 -277.404)" fill="#99e6fc"/>
        <path id="Trazado_917496" data-name="Trazado 917496" d="M383.587,325.317a8.508,8.508,0,0,0-7.935-5.438v.771a8.5,8.5,0,0,1,4.4,4.667l8.711,19.665H392.3Z" transform="translate(-326.466 -277.404)" fill="#62dbfb"/>
        <path id="Trazado_917497" data-name="Trazado 917497" d="M144.329,164.517h-1.36a3.563,3.563,0,1,1,0-7.125h1.36Z" transform="translate(-122.343 -137.011)" fill="#ffa78f"/>
        <path id="Trazado_917498" data-name="Trazado 917498" d="M148.079,409.5H106.169a1.237,1.237,0,0,0-1.237,1.237v4.65l2.049,7.031h40.286l2.049-7.031v-4.65A1.237,1.237,0,0,0,148.079,409.5Z" transform="translate(-92.556 -354.839)" fill="#fcd18a"/>
        <path id="Trazado_917499" data-name="Trazado 917499" d="M387.7,409.5h-4.626a1.237,1.237,0,0,1,1.237,1.237v4.65l-2.049,7.031h4.626l2.049-7.031v-4.65A1.237,1.237,0,0,0,387.7,409.5Z" transform="translate(-332.172 -354.839)" fill="#fbc56d"/>
        <path id="Trazado_917500" data-name="Trazado 917500" d="M360.673,164.517h1.36a3.563,3.563,0,1,0,0-7.125h-1.36Z" transform="translate(-313.524 -137.011)" fill="#ffa78f"/>
        <path id="Trazado_917501" data-name="Trazado 917501" d="M196.438,163.378s-2.243-2.424-8.244-2.424-8.244,2.424-8.244,2.424l-4.338-5.986V167.71a6.164,6.164,0,0,0,6.164,6.164h12.836a6.164,6.164,0,0,0,6.164-6.164V157.392Z" transform="translate(-153.627 -137.011)" fill="#b98080"/>
        <path id="Trazado_917502" data-name="Trazado 917502" d="M299.045,157.39v10.319a6.164,6.164,0,0,1-6.164,6.164h-3.535a6.163,6.163,0,0,0,6.162-6.164v-5.438Z" transform="translate(-251.895 -137.009)" fill="#ae6c6c"/>
        <g id="Grupo_1119550" data-name="Grupo 1119550" transform="translate(0 23.892)">
          <path id="Trazado_917503" data-name="Trazado 917503" d="M60.115,294.527l1.788,3.566-6.548.517a1.848,1.848,0,1,1-.291-3.684Z" transform="translate(-47.997 -279.391)" fill="#fef48b"/>
          <path id="Trazado_917504" data-name="Trazado 917504" d="M46.966,268.3l1.788,3.566-6.548.517a1.848,1.848,0,1,1-.291-3.684Z" transform="translate(-36.636 -256.731)" fill="#fef056"/>
          <path id="Trazado_917505" data-name="Trazado 917505" d="M33.818,242.075l1.788,3.566-6.548.517a1.848,1.848,0,1,1-.291-3.684Z" transform="translate(-25.275 -234.071)" fill="#fef48b"/>
          <path id="Trazado_917506" data-name="Trazado 917506" d="M20.67,215.848l1.788,3.566-6.548.517a1.848,1.848,0,1,1-.291-3.684Z" transform="translate(-13.915 -211.41)" fill="#fef056"/>
          <path id="Trazado_917507" data-name="Trazado 917507" d="M86.412,346.981l1.788,3.566-6.548.517a1.848,1.848,0,1,1-.291-3.684Z" transform="translate(-70.718 -324.713)" fill="#fef48b"/>
          <path id="Trazado_917508" data-name="Trazado 917508" d="M73.264,320.754l1.788,3.566-6.548.517a1.848,1.848,0,1,1-.291-3.684Z" transform="translate(-59.358 -302.052)" fill="#fef056"/>
          <path id="Trazado_917509" data-name="Trazado 917509" d="M103.041,266.326l1.788,3.566,4.332-4.937a1.848,1.848,0,0,0-2.778-2.437Z" transform="translate(-90.922 -251.19)" fill="#fef056"/>
          <path id="Trazado_917510" data-name="Trazado 917510" d="M89.892,240.1l1.788,3.566,4.332-4.937a1.848,1.848,0,1,0-2.778-2.437Z" transform="translate(-79.561 -228.53)" fill="#fef48b"/>
          <path id="Trazado_917511" data-name="Trazado 917511" d="M76.744,213.874l1.788,3.566,4.332-4.937a1.848,1.848,0,1,0-2.778-2.437Z" transform="translate(-68.201 -205.87)" fill="#fef056"/>
          <path id="Trazado_917512" data-name="Trazado 917512" d="M63.6,187.647l1.788,3.566,4.332-4.937a1.848,1.848,0,1,0-2.778-2.437Z" transform="translate(-56.841 -183.209)" fill="#fef48b"/>
          <path id="Trazado_917513" data-name="Trazado 917513" d="M129.338,318.78l1.788,3.566,4.332-4.937a1.848,1.848,0,0,0-2.778-2.437Z" transform="translate(-113.644 -296.511)" fill="#fef056"/>
          <path id="Trazado_917514" data-name="Trazado 917514" d="M116.19,292.553l1.788,3.566,4.332-4.937a1.848,1.848,0,0,0-2.778-2.437Z" transform="translate(-102.283 -273.851)" fill="#fef48b"/>
        </g>
      </g>
      <g id="Grupo_1119552" data-name="Grupo 1119552" transform="translate(6.427 0)">
        <path id="Trazado_917515" data-name="Trazado 917515" d="M74.21,68.185l-8.7-19.644a9.586,9.586,0,0,0-8.876-6.066H47.446V38.9h.986a7.191,7.191,0,0,0,7.183-7.183V29.546a4.7,4.7,0,0,0,4.7-3.168c4.563-1.3,6.916-3,7-5.063.159-.907.617-3.582.617-4.233,0-2.952-4.626-4.8-10.825-5.844L56.16,6.221A7.639,7.639,0,0,0,48.659,0H35.605a7.639,7.639,0,0,0-7.5,6.221l-.179.953a1.02,1.02,0,1,0,2,.377l.179-.953a5.6,5.6,0,0,1,5.5-4.559H48.659a5.6,5.6,0,0,1,5.5,4.559l.814,4.32a100.814,100.814,0,0,0-12.837-.769,81.017,81.017,0,0,0-18.1,1.765C18.765,13.191,16.1,14.979,16.1,17.23a32.665,32.665,0,0,0,.856,4.118A3.575,3.575,0,0,0,18.5,23.925a2.862,2.862,0,0,0-1.723.943l-2.342,2.67-.469-.936.53-2.112a1.02,1.02,0,1,0-1.978-.5l-.359,1.431-1.426-.446a1.02,1.02,0,0,0-.609,1.946l2.043.64.445.887-3.541.28A2.868,2.868,0,0,0,8.348,34.3a2.868,2.868,0,0,0,1.788,3.566,2.868,2.868,0,0,0,1.788,3.566A2.868,2.868,0,0,0,13.712,45,2.868,2.868,0,0,0,15.5,48.562,2.867,2.867,0,0,0,16.985,52L9.816,68.185a1.02,1.02,0,1,0,1.865.826l7.435-16.783,5.207-.411,1.426,2.844H21.058A2.259,2.259,0,0,0,18.8,56.917v4.63a1.112,1.112,0,0,0,.047.325l2.044,7.011a1.02,1.02,0,0,0,1.958-.571l-1.669-5.726H53.587a1.02,1.02,0,0,0,0-2.04H20.841v-3.63a.217.217,0,0,1,.217-.217H62.969a.217.217,0,0,1,.217.217v3.63H58.354a1.02,1.02,0,0,0,0,2.04h4.491l-1.669,5.726a1.02,1.02,0,1,0,1.958.571l2.044-7.011a1.114,1.114,0,0,0,.047-.325v-4.63a2.259,2.259,0,0,0-2.257-2.257H57.652V44.585A7.542,7.542,0,0,1,63.615,49.3q.009.023.019.045l8.712,19.666a1.02,1.02,0,0,0,1.865-.826Zm-28.8-25.71H38.62V38.9h6.786Zm8.169-10.756a5.15,5.15,0,0,1-5.144,5.144H35.6a5.15,5.15,0,0,1-5.144-5.144V24.547l2.491,3.438a1.012,1.012,0,0,0,1.566.1A5.814,5.814,0,0,1,36.2,27.043a14.319,14.319,0,0,1,5.816-1.059,14.319,14.319,0,0,1,5.816,1.059,5.849,5.849,0,0,1,1.687,1.045,1.02,1.02,0,0,0,1.567-.1l2.492-3.439v7.173ZM18.987,21.2h0c0-.668,1.33-2.142,6.313-3.43.971-.251,2.012-.478,3.112-.679v3.288a4.676,4.676,0,0,0-4.846,3.749c-3.575-1.155-4.578-2.356-4.579-2.927Zm34.588-.133L50.05,25.935a13.844,13.844,0,0,0-7.017-1.967V21.825a1.02,1.02,0,1,0-2.04,0v2.142a13.846,13.846,0,0,0-7.017,1.967l-3.524-4.864V16.759a82.363,82.363,0,0,1,11.68-.785,82.812,82.812,0,0,1,11.443.752ZM25.529,24.963a2.633,2.633,0,0,1,2.883-2.543v5.086A2.637,2.637,0,0,1,25.529,24.963Zm30.427,2.543h-.34V22.421A2.636,2.636,0,0,1,58.5,24.963,2.546,2.546,0,0,1,55.955,27.506ZM60.473,24.2a4.666,4.666,0,0,0-4.858-3.82V17.05c4.71.728,9.753,2.73,9.662,4.15C65.277,21.979,63.779,23.162,60.473,24.2ZM19.537,15.7A19.017,19.017,0,0,1,24.508,13.9,78.976,78.976,0,0,1,42.132,12.19a80.4,80.4,0,0,1,17.51,1.635c4.612,1.095,6.248,2.439,6.248,3.257,0,.16-.069.68-.172,1.355-1.821-1.5-5.861-2.666-8.85-3.226a78.9,78.9,0,0,0-14.737-1.276A72.135,72.135,0,0,0,24.79,15.8c-.661.224-4.021.886-6.4,2.766a13.175,13.175,0,0,1-.253-1.333c0-.441.51-1,1.4-1.525Zm4.152,10.6a4.691,4.691,0,0,0,4.723,3.245v2.173A7.192,7.192,0,0,0,35.6,38.9h.985v3.572H29.807a2.86,2.86,0,0,0-.989-.591,2.866,2.866,0,0,0-1.788-3.566,2.866,2.866,0,0,0-1.788-3.566,2.866,2.866,0,0,0-1.788-3.566,2.866,2.866,0,0,0-1.788-3.566,2.853,2.853,0,0,0-.126-2.046q.972.382,2.148.727ZM12.15,38.316A.816.816,0,0,1,12.8,37.9l4.368-.345.8,1.6-5.037.4a.828.828,0,0,1-.805-.454A.816.816,0,0,1,12.15,38.316Zm-1-2.334a.825.825,0,0,1-.806-.454.828.828,0,0,1,.675-1.2l4.367-.345.8,1.6ZM26.7,41.57l-3.333,3.8-.8-1.6,2.889-3.293a.828.828,0,0,1,1.362.175.824.824,0,0,1-.118.917ZM24.917,38l-3.333,3.8-.8-1.6,2.889-3.293a.828.828,0,0,1,1.362.176.825.825,0,0,1-.118.917Zm-1.788-3.566-3.333,3.8-.8-1.6,2.89-3.294a.828.828,0,0,1,1.361.176A.825.825,0,0,1,23.129,34.437Zm-1.788-3.566-3.333,3.8-.8-1.6L20.1,29.778a.828.828,0,0,1,1.362.176A.825.825,0,0,1,21.342,30.871Zm-7.4,11.01a.816.816,0,0,1,.656-.419l4.366-.345.8,1.6-5.037.4a.827.827,0,0,1-.805-.454.816.816,0,0,1,.019-.778Zm1.788,3.566a.816.816,0,0,1,.656-.419l4.366-.345.8,1.6-5.037.4a.827.827,0,0,1-.805-.454.816.816,0,0,1,.019-.778Zm9.435,3.487-.8-1.6,2.889-3.293a.828.828,0,0,1,1.362.175.825.825,0,0,1-.118.917ZM18.309,26.213a.828.828,0,0,1,1.363.175.825.825,0,0,1-.118.917l-.99,1.128h0L16.221,31.1l-.8-1.6Zm-9.735,4.97a.816.816,0,0,1,.656-.419L13.6,30.42l.8,1.6-5.037.4a.826.826,0,0,1-.806-.454A.817.817,0,0,1,8.574,31.183Zm9.781,19.058h-.014l-.042,0a.826.826,0,0,1-.805-.454.828.828,0,0,1,.675-1.2l4.366-.345.8,1.6Zm7.791.661,3.879-4.422a2.858,2.858,0,0,0,.712-1.966h1.309V54.661H28.031Zm7.94,3.758V44.515h2.494v6.391a1.02,1.02,0,1,0,2.04,0V44.515h6.786V54.661Zm13.359,0V44.515H49.94V54.661Zm4.533,0V44.515h3.633V54.661Z" transform="translate(-6.427 0)"/>
        <path id="Trazado_917516" data-name="Trazado 917516" d="M247.337,207.2a4.718,4.718,0,0,1-4.238.06A1.02,1.02,0,0,0,242.025,209a6.117,6.117,0,0,0,3.057.762,7.455,7.455,0,0,0,3.1-.7,1.02,1.02,0,0,0-.842-1.858Z" transform="translate(-209.576 -178.951)"/>
        <path id="Trazado_917517" data-name="Trazado 917517" d="M409.386,266.7a1.02,1.02,0,0,0,1.02-1.02v-.485h.485a1.02,1.02,0,0,0,0-2.04h-.485v-.485a1.02,1.02,0,0,0-2.04,0v.485h-.485a1.02,1.02,0,1,0,0,2.04h.485v.485A1.02,1.02,0,0,0,409.386,266.7Z" transform="translate(-352.413 -226.071)"/>
        <circle id="Elipse_11782" data-name="Elipse 11782" cx="1.02" cy="1.02" r="1.02" transform="translate(60.518 31.511)"/>
      </g>
    </g>
  </g>
</svg>
