<svg xmlns="http://www.w3.org/2000/svg" xmlns:xlink="http://www.w3.org/1999/xlink" width="117.999" height="118" viewBox="0 0 117.999 118">
  <defs>
    <filter id="Trazado_874925" x="0" y="0" width="117.999" height="118" filterUnits="userSpaceOnUse">
      <feOffset dy="3" input="SourceAlpha"/>
      <feGaussianBlur stdDeviation="3" result="blur"/>
      <feFlood flood-opacity="0.161"/>
      <feComposite operator="in" in2="blur"/>
      <feComposite in="SourceGraphic"/>
    </filter>
  </defs>
  <g id="Grupo_1119561" data-name="Grupo 1119561" transform="translate(-196.051 -4958)">
    <g id="Grupo_1119555" data-name="Grupo 1119555" transform="translate(-554 695)">
      <g id="Grupo_1111552" data-name="Grupo 1111552" transform="translate(-49.449 1751.843)">
        <g id="Grupo_1111316" data-name="Grupo 1111316" transform="translate(808.5 2517.157)">
          <g id="Grupo_1109835" data-name="Grupo 1109835" transform="translate(0 0)">
            <g id="Grupo_1107913" data-name="Grupo 1107913" transform="translate(0 0)">
              <g transform="matrix(1, 0, 0, 1, -9, -6)" filter="url(#Trazado_874925)">
                <g id="Trazado_874925-2" data-name="Trazado 874925" transform="translate(9 6)" fill="#e2dacc" opacity="0.859">
                  <path d="M 49.99972534179688 98.4998779296875 C 43.45164108276367 98.4998779296875 37.10022354125977 97.21776580810547 31.12189674377441 94.68914794921875 C 25.34676742553711 92.24647521972656 20.15985298156738 88.74925994873047 15.70523929595947 84.29464721679688 C 11.25062561035156 79.84004974365234 7.753411293029785 74.65313720703125 5.310725212097168 68.87800598144531 C 2.782111167907715 62.89969253540039 1.499996781349182 56.54829406738281 1.499996781349182 50.00022125244141 C 1.499996781349182 43.45157623291016 2.782111167907715 37.10017776489258 5.310725212097168 31.12186431884766 C 7.753411293029785 25.34673500061035 11.25062561035156 20.15983581542969 15.70523929595947 15.70522117614746 C 20.15985298156738 11.25062084197998 25.34676742553711 7.753406524658203 31.12189674377441 5.31073522567749 C 37.10022354125977 2.782120943069458 43.45164108276367 1.500006556510925 49.99972534179688 1.500006556510925 C 56.54780960083008 1.500006556510925 62.89922714233398 2.782120943069458 68.87755584716797 5.31073522567749 C 74.65267944335938 7.753406524658203 79.839599609375 11.25062084197998 84.29421234130859 15.70522117614746 C 88.74882507324219 20.15983581542969 92.24604034423828 25.34673500061035 94.68872833251953 31.12186431884766 C 97.21733856201172 37.10017776489258 98.49945068359375 43.45157623291016 98.49945068359375 49.99964904785156 C 98.49945068359375 56.54829406738281 97.21733856201172 62.89969253540039 94.68872833251953 68.87800598144531 C 92.24604034423828 74.65313720703125 88.74882507324219 79.84004974365234 84.29421234130859 84.29464721679688 C 79.839599609375 88.74925994873047 74.65267944335938 92.24647521972656 68.87755584716797 94.68914794921875 C 62.89922714233398 97.21776580810547 56.54780960083008 98.4998779296875 49.99972534179688 98.4998779296875 Z" stroke="none"/>
                  <path d="M 49.99972534179688 3 C 43.65348052978516 3 37.49866485595703 4.242240905761719 31.70623016357422 6.692230224609375 C 26.10989379882812 9.059272766113281 21.08323669433594 12.44853210449219 16.76589202880859 16.76587677001953 C 12.44855499267578 21.08321380615234 9.059295654296875 26.10985565185547 6.692230224609375 31.70618438720703 C 4.24224853515625 37.49859619140625 3 43.65341186523438 3 50.00022888183594 C 3 56.34645843505859 4.24224853515625 62.50127410888672 6.692230224609375 68.29368591308594 C 9.059295654296875 73.8900146484375 12.44855499267578 78.91665649414062 16.76589202880859 83.23399353027344 C 21.08323669433594 87.55132293701172 26.10989379882812 90.94059753417969 31.70623016357422 93.30764007568359 C 37.49866485595703 95.75762939453125 43.65348052978516 96.99987030029297 49.99972534179688 96.99987030029297 C 56.34597015380859 96.99987030029297 62.50078582763672 95.75762939453125 68.293212890625 93.30764007568359 C 73.88955688476562 90.94059753417969 78.91621398925781 87.55132293701172 83.23355865478516 83.23399353027344 C 87.55089569091797 78.91665649414062 90.94015502929688 73.8900146484375 93.30722045898438 68.29368591308594 C 95.7572021484375 62.50127410888672 96.99945068359375 56.34645843505859 96.99945068359375 49.99964141845703 C 96.99945068359375 43.65341186523438 95.7572021484375 37.49859619140625 93.30722045898438 31.70618438720703 C 90.94015502929688 26.10985565185547 87.55089569091797 21.08321380615234 83.23355865478516 16.76587677001953 C 78.91621398925781 12.44853210449219 73.88955688476562 9.059272766113281 68.293212890625 6.692230224609375 C 62.50078582763672 4.242240905761719 56.34597015380859 3 49.99972534179688 3 M 49.99972534179688 0 C 77.61381530761719 0 99.99945068359375 22.38559722900391 99.99945068359375 49.99964141845703 L 99.99945068359375 50.00022888183594 C 99.99945068359375 77.6142578125 77.61381530761719 99.99987030029297 49.99972534179688 99.99987030029297 C 22.38563537597656 99.99987030029297 0 77.6142578125 0 50.00022888183594 L 0 49.99964141845703 C 0 22.38559722900391 22.38563537597656 0 49.99972534179688 0 Z" stroke="none" fill="#fff"/>
                </g>
              </g>
              <g id="Trazado_874923" data-name="Trazado 874923" transform="translate(0 0)" fill="none">
                <path d="M50,0a50,50,0,0,1,50,50h0A50,50,0,0,1,0,50H0A50,50,0,0,1,50,0Z" stroke="none"/>
                <path d="M 49.99972534179688 3 C 43.65348052978516 3 37.49866485595703 4.242240905761719 31.70623016357422 6.692230224609375 C 26.10989379882812 9.059272766113281 21.08323669433594 12.44853210449219 16.76589202880859 16.76587677001953 C 12.44855499267578 21.08321380615234 9.059295654296875 26.10985565185547 6.692230224609375 31.70618438720703 C 4.24224853515625 37.49859619140625 3 43.65341186523438 3 50.00022888183594 C 3 56.34645843505859 4.24224853515625 62.50127410888672 6.692230224609375 68.29368591308594 C 9.059295654296875 73.8900146484375 12.44855499267578 78.91665649414062 16.76589202880859 83.23399353027344 C 21.08323669433594 87.55132293701172 26.10989379882812 90.94059753417969 31.70623016357422 93.30764007568359 C 37.49866485595703 95.75762939453125 43.65348052978516 96.99987030029297 49.99972534179688 96.99987030029297 C 56.34597015380859 96.99987030029297 62.50078582763672 95.75762939453125 68.293212890625 93.30764007568359 C 73.88955688476562 90.94059753417969 78.91621398925781 87.55132293701172 83.23355865478516 83.23399353027344 C 87.55089569091797 78.91665649414062 90.94015502929688 73.8900146484375 93.30722045898438 68.29368591308594 C 95.7572021484375 62.50127410888672 96.99945068359375 56.34645843505859 96.99945068359375 49.99964141845703 C 96.99945068359375 43.65341186523438 95.7572021484375 37.49859619140625 93.30722045898438 31.70618438720703 C 90.94015502929688 26.10985565185547 87.55089569091797 21.08321380615234 83.23355865478516 16.76587677001953 C 78.91621398925781 12.44853210449219 73.88955688476562 9.059272766113281 68.293212890625 6.692230224609375 C 62.50078582763672 4.242240905761719 56.34597015380859 3 49.99972534179688 3 M 49.99972534179688 0 C 77.61381530761719 0 99.99945068359375 22.38559722900391 99.99945068359375 49.99964141845703 L 99.99945068359375 50.00022888183594 C 99.99945068359375 77.6142578125 77.61381530761719 99.99987030029297 49.99972534179688 99.99987030029297 C 22.38563537597656 99.99987030029297 0 77.6142578125 0 50.00022888183594 L 0 49.99964141845703 C 0 22.38559722900391 22.38563537597656 0 49.99972534179688 0 Z" stroke="none" fill="#fff"/>
              </g>
            </g>
          </g>
        </g>
      </g>
    </g>
    <g id="Grupo_1119560" data-name="Grupo 1119560" transform="translate(215.143 4979.298)">
      <g id="Grupo_1119558" data-name="Grupo 1119558" transform="translate(8.621 1.031)">
        <path id="Trazado_917518" data-name="Trazado 917518" d="M113.177,26.661H80.928l2.551-13.545A6.892,6.892,0,0,1,90.252,7.5h13.6a6.892,6.892,0,0,1,6.773,5.617Z" transform="translate(-71.875 -7.5)" fill="#99e6fc"/>
        <path id="Trazado_917519" data-name="Trazado 917519" d="M231.971,13.117A6.892,6.892,0,0,0,225.2,7.5H221.62a6.892,6.892,0,0,1,6.773,5.617l2.551,13.545h3.578Z" transform="translate(-193.221 -7.5)" fill="#62dbfb"/>
        <ellipse id="Elipse_11783" data-name="Elipse 11783" cx="24.321" cy="6.287" rx="24.321" ry="6.287" transform="translate(0.856 14.351)" fill="#766e6e"/>
        <ellipse id="Elipse_11784" data-name="Elipse 11784" cx="5.141" cy="3.285" rx="5.141" ry="3.285" transform="translate(1.07 38.355) rotate(-39.85)" fill="#8c8585"/>
        <ellipse id="Elipse_11785" data-name="Elipse 11785" cx="3.285" cy="5.141" rx="3.285" ry="5.141" transform="translate(36.86 36.802) rotate(-50.15)" fill="#9e9797"/>
        <path id="Trazado_917520" data-name="Trazado 917520" d="M307.12,252.219c-1.94-1.619-4.3-2.069-5.613-1.168a7.616,7.616,0,0,1,1.892,1.168c2.18,1.819,3,4.423,1.842,5.816a2.154,2.154,0,0,1-.439.4c1.672.709,3.32.61,4.16-.4C310.125,256.642,309.3,254.038,307.12,252.219Z" transform="translate(-262.122 -217.166)" fill="#8c8585"/>
        <path id="Trazado_917521" data-name="Trazado 917521" d="M105.838,97.845l-.721-4.017H74.695l-.721,4.017c-.541,3.89-1.015,9.4-1.3,13.14a8.956,8.956,0,0,0,8.929,9.65H98.214a8.956,8.956,0,0,0,8.929-9.65C106.853,107.243,106.378,101.735,105.838,97.845Z" transform="translate(-64.728 -81.957)" fill="#9e9797"/>
        <path id="Trazado_917522" data-name="Trazado 917522" d="M167.165,280.759H175.7v7.191h-8.532Z" transform="translate(-146.254 -243.184)" fill="#ffcebf"/>
        <path id="Trazado_917523" data-name="Trazado 917523" d="M203.191,280.759h3.578v7.191h-3.578Z" transform="translate(-177.326 -243.184)" fill="#ffb09e"/>
        <path id="Trazado_917524" data-name="Trazado 917524" d="M124.754,131.115h-5.713a9.307,9.307,0,0,1-9.307-9.307v-15.83h24.327v15.83A9.307,9.307,0,0,1,124.754,131.115Z" transform="translate(-96.72 -92.436)" fill="#ffdfcf"/>
        <path id="Trazado_917525" data-name="Trazado 917525" d="M229.648,105.98v15.829a9.306,9.306,0,0,1-9.087,9.305,9.307,9.307,0,0,0,5.509-8.5V105.98Z" transform="translate(-192.307 -92.438)" fill="#ffcebf"/>
        <path id="Trazado_917526" data-name="Trazado 917526" d="M123.679,351.276l-28.265,5.352V333.052h28.265Z" transform="translate(-84.369 -288.286)" fill="#fef48b"/>
        <path id="Trazado_917527" data-name="Trazado 917527" d="M274.942,333.052v18.9l3.578-.678V333.052Z" transform="translate(-239.21 -288.286)" fill="#fef056"/>
        <path id="Trazado_917528" data-name="Trazado 917528" d="M95.414,425.936h28.265v10.8H95.414Z" transform="translate(-84.369 -368.398)" fill="#fe646f"/>
        <g id="Grupo_1119556" data-name="Grupo 1119556" transform="translate(11.045 44.766)">
          <path id="Trazado_917529" data-name="Trazado 917529" d="M274.942,425.936h3.578v10.8h-3.578Z" transform="translate(-250.255 -413.164)" fill="#fd4755"/>
          <path id="Trazado_917530" data-name="Trazado 917530" d="M100.072,333.052H95.414l5.389,15.8a2.2,2.2,0,1,0,4.172-1.423Z" transform="translate(-95.414 -333.052)" fill="#fd4755"/>
          <path id="Trazado_917531" data-name="Trazado 917531" d="M240.242,333.052h-4.658l-4.9,14.38a2.2,2.2,0,0,0,4.172,1.423Z" transform="translate(-211.977 -333.052)" fill="#fd4755"/>
        </g>
        <path id="Trazado_917532" data-name="Trazado 917532" d="M37.334,333.049v23.576l-9.26-4.182V342.309a9.261,9.261,0,0,1,9.26-9.26Z" transform="translate(-26.289 -288.283)" fill="#fef48b"/>
        <path id="Trazado_917533" data-name="Trazado 917533" d="M316.6,356.625l-12.895-5.377-2.744-5.15V333.049a6.592,6.592,0,0,1,5.944,3.744l4.4,9.18Z" transform="translate(-261.655 -288.283)" fill="#fef48b"/>
        <path id="Trazado_917534" data-name="Trazado 917534" d="M303.329,336.793l8.779,17.958,4.494,1.874-5.3-10.652-4.4-9.18a6.592,6.592,0,0,0-5.944-3.744v1.058A6.586,6.586,0,0,1,303.329,336.793Z" transform="translate(-261.654 -288.283)" fill="#fef056"/>
        <path id="Trazado_917535" data-name="Trazado 917535" d="M28.074,449.085h9.26v7.62h-9.26Z" transform="translate(-26.289 -388.363)" fill="#ffcebf"/>
        <path id="Trazado_917536" data-name="Trazado 917536" d="M155.119,316.851l2.412,3.431a.836.836,0,0,0,1.393-.038l2.118-3.393-4.266-2.583Z" transform="translate(-135.864 -272.085)" fill="#99e6fc"/>
        <path id="Trazado_917537" data-name="Trazado 917537" d="M204.112,316.851l-2.412,3.431a.836.836,0,0,1-1.393-.038l-2.118-3.393,4.266-2.583Z" transform="translate(-173.011 -272.085)" fill="#62dbfb"/>
        <path id="Trazado_917538" data-name="Trazado 917538" d="M104.084,115.287s12.494-.258,17.783-8.644c0,0,1.8,6.128,6.544,6.128l.828-6.794H103.183Z" transform="translate(-91.07 -92.436)" fill="#9e9797"/>
        <path id="Trazado_917539" data-name="Trazado 917539" d="M333.816,437.685h-9.81l-3.085-5.377,7.6-5.275Z" transform="translate(-278.867 -369.344)" fill="#ffcebf"/>
        <path id="Trazado_917540" data-name="Trazado 917540" d="M333.816,437.685h-9.81l-3.085-5.377,7.6-5.275Z" transform="translate(-278.867 -369.344)" fill="#ffcebf"/>
        <path id="Trazado_917541" data-name="Trazado 917541" d="M245.095,110.986c-.29-3.742-.764-9.251-1.3-13.14l-.721-4.017h-3.578l.721,4.017c.541,3.89,1.015,9.4,1.3,13.14a8.956,8.956,0,0,1-8.929,9.65h3.578a8.956,8.956,0,0,0,8.929-9.65Z" transform="translate(-202.68 -81.958)" fill="#8c8585"/>
        <path id="Trazado_917542" data-name="Trazado 917542" d="M359.833,427.032l-2.6,1.808,4.324,8.844h3.578Z" transform="translate(-310.183 -369.343)" fill="#ffb09e"/>
        <g id="Grupo_1119557" data-name="Grupo 1119557" transform="translate(54.947 36.258)">
          <path id="Trazado_917543" data-name="Trazado 917543" d="M418.408,273.038v30.221h-3.727V273.091a1.9,1.9,0,0,1,1.774-1.913A1.862,1.862,0,0,1,418.408,273.038Z" transform="translate(-414.681 -271.175)" fill="#9e9797"/>
        </g>
        <path id="Trazado_917544" data-name="Trazado 917544" d="M65.207,90.116c0,.634-.617,4.147-.617,4.147,0-3.472-10.889-6.288-24.321-6.288S15.947,90.79,15.947,94.263c0,0-.856-3.411-.856-4,0-3.472,10.8-6.1,25.178-6.1S65.207,86.644,65.207,90.116Z" transform="translate(-15.091 -73.624)" fill="#c8effe"/>
        <path id="Trazado_917545" data-name="Trazado 917545" d="M65.207,90.116c0,.634-.617,4.147-.617,4.147,0-3.472-10.889-6.288-24.321-6.288S15.947,90.79,15.947,94.263c0,0-.856-3.411-.856-4,0-3.472,10.8-6.1,25.178-6.1S65.207,86.644,65.207,90.116Z" transform="translate(-15.091 -73.624)" fill="#c8effe"/>
        <path id="Trazado_917546" data-name="Trazado 917546" d="M369,169.854c-6.442,1.871-8.735,13.031-9.424,17.752a1.84,1.84,0,0,0,1.82,2.107h2.377a1.247,1.247,0,0,1,1.247,1.247v2.361a1.544,1.544,0,0,0,1.544,1.544h4.87a1.544,1.544,0,0,0,1.544-1.544V190.96a1.247,1.247,0,0,1,1.247-1.247H376.6a1.84,1.84,0,0,0,1.82-2.107C377.736,182.885,375.443,171.725,369,169.854Z" transform="translate(-312.19 -147.529)" fill="#eef5f6"/>
        <path id="Trazado_917547" data-name="Trazado 917547" d="M423.506,187.6c-.689-4.721-2.982-15.881-9.424-17.752a7.221,7.221,0,0,0-2.256,1.129c4.742,3.47,6.566,12.5,7.168,16.623a1.84,1.84,0,0,1-1.82,2.107h-.625a1.247,1.247,0,0,0-1.247,1.247v2.361a1.544,1.544,0,0,1-1.544,1.544h2.76a1.544,1.544,0,0,0,1.544-1.544v-2.361a1.247,1.247,0,0,1,1.247-1.247h2.377A1.84,1.84,0,0,0,423.506,187.6Z" transform="translate(-357.272 -147.528)" fill="#deecf1"/>
      </g>
      <g id="Grupo_1119559" data-name="Grupo 1119559" transform="translate(7.59)">
        <path id="Trazado_917548" data-name="Trazado 917548" d="M191.72,186.32a1.031,1.031,0,0,0,1.031-1.031v-3.034a1.031,1.031,0,0,0-2.063,0v3.034A1.031,1.031,0,0,0,191.72,186.32Z" transform="translate(-165.511 -156.304)"/>
        <path id="Trazado_917549" data-name="Trazado 917549" d="M172.917,234.845a5.965,5.965,0,0,0,2.98.743,7.25,7.25,0,0,0,3.013-.678,1.031,1.031,0,0,0-.852-1.879,4.518,4.518,0,0,1-4.055.06,1.031,1.031,0,0,0-1.086,1.753Z" transform="translate(-149.766 -200.908)"/>
        <path id="Trazado_917550" data-name="Trazado 917550" d="M75.877,40.959a45.672,45.672,0,0,0-2.619-10.183c-1.89-4.665-4.417-7.491-7.51-8.4a1.047,1.047,0,0,0-.63,0c-3.093.911-5.62,3.737-7.51,8.4a39.684,39.684,0,0,0-1.859,6.077,8.778,8.778,0,0,0-1.467-1.56,8.465,8.465,0,0,0-2.651-1.518,10.33,10.33,0,0,0,.435-3.8c-.078-1.011-.16-2.022-.244-3.018,4.78-1.313,7.243-3.054,7.328-5.179.16-.914.621-3.6.621-4.26,0-2.892-4.406-4.736-10.39-5.8l-.993-5.269A7.931,7.931,0,0,0,40.6,0H27a7.929,7.929,0,0,0-7.787,6.456L19,7.6a1.031,1.031,0,0,0,2.027.382l.215-1.141A5.865,5.865,0,0,1,27,2.063H40.6a5.867,5.867,0,0,1,5.76,4.775l.856,4.546A100.083,100.083,0,0,0,33.8,10.542a81.554,81.554,0,0,0-18.223,1.776c-5.3,1.285-7.986,3.086-7.986,5.354a32.922,32.922,0,0,0,.862,4.149c.113,2.108,2.575,3.835,7.326,5.14-.084.991-.166,2-.244,3.017a9.981,9.981,0,0,0,.406,3.7,8.379,8.379,0,0,0-2.974,1.617c-2.657,2.217-3.524,5.41-1.973,7.268a3.642,3.642,0,0,0,2.886,1.227A7.451,7.451,0,0,0,18.5,41.92a8.36,8.36,0,0,0,2.05-2.49,10.278,10.278,0,0,0,4.941,1.31H28.5v2.172l-1.188,1.853H19.667A10.293,10.293,0,0,0,9.375,55.057V69.373a1.031,1.031,0,0,0,2.063,0V62.784h7.2v6.589a1.032,1.032,0,0,0,2.063,0V59.6h2.587l.8,2.332a3.235,3.235,0,0,0,3.062,2.191A3.29,3.29,0,0,0,30.121,59.6h7.356a3.3,3.3,0,0,0,2.979,4.523,3.235,3.235,0,0,0,3.062-2.191l.8-2.332H46.9v9.771a1.031,1.031,0,0,0,2.063,0v-6.4l3.9,6.912a1.031,1.031,0,1,0,1.789-1.026L52.041,64.3l5.839-4.055,4.738,9.525a1.034,1.034,0,0,0,1.982-.466V53.2a1.031,1.031,0,0,0-2.063,0V64.98L54.8,49.095a7.661,7.661,0,0,0-6.874-4.329H40.285L39.1,42.912V40.741h3.011a9.935,9.935,0,0,0,4.674-1.156,8.466,8.466,0,0,0,1.967,2.336c1.885,1.519,4.55,2.6,6.834,1.241.025.031.049.062.075.092a2.869,2.869,0,0,0,2.172.993h2.377a.216.216,0,0,1,.216.216v2.361A2.578,2.578,0,0,0,63,49.4h3.268V69.373a1.031,1.031,0,1,0,2.063,0V49.355a2.578,2.578,0,0,0,2.115-2.532V44.462a.216.216,0,0,1,.216-.216h2.377a2.871,2.871,0,0,0,2.841-3.287Zm-28.166-4.6a8.109,8.109,0,0,1-4.817,2.283,10.327,10.327,0,0,0,4.1-8.238V21.367a1.032,1.032,0,0,0-1.032-1.032,4.809,4.809,0,0,1-3.781-2.048,9.869,9.869,0,0,1-1.023-1.574,64.465,64.465,0,0,1,7.647,1.063c.286,2.184,1.1,11.064,1.2,12.363a8.01,8.01,0,0,1-2.3,6.218Zm-9.971,8.26.74,1.154-1.844,2.623-1.408-2.256Zm-.706-1.984L33.8,44.592l-3.235-1.959v-1.9c.748.013,5.49.021,6.47,0ZM22.667,24.853a31.768,31.768,0,0,0,6.026-1.117,20.765,20.765,0,0,0,10.471-6.393,12.173,12.173,0,0,0,1.411,2.238,7.119,7.119,0,0,0,4.356,2.73V30.4a8.285,8.285,0,0,1-8.276,8.276H30.943A8.285,8.285,0,0,1,22.667,30.4Zm7.192,19.764,2.512,1.521-1.408,2.256-1.844-2.623ZM51.636,24.871c-.233-2.569-.464-4.776-.688-6.591,2.439.716,5.586,1.622,6.14,3.392,0,.636-1.188,1.971-5.453,3.2ZM11.06,16.141a19.136,19.136,0,0,1,5-1.818A79.487,79.487,0,0,1,33.8,12.6,80.923,80.923,0,0,1,51.421,14.25c6.108,1.45,6.285,3.091,6.285,3.273,0,.16-.069.679-.171,1.355-1.386-1.156-4.664-2.347-7.582-2.966A76.336,76.336,0,0,0,33.8,14.351a72.952,72.952,0,0,0-17.456,1.875A17.014,17.014,0,0,0,9.906,19a13.159,13.159,0,0,1-.253-1.332c0-.442.513-1,1.408-1.531Zm-.551,5.529c.682-1.933,3.829-2.655,6.14-3.391-.226,1.83-.457,4.037-.688,6.591C11.694,23.642,10.509,22.305,10.509,21.67Zm6.669,18.667c-1.86,1.551-3.917,1.721-4.6.9s-.147-2.811,1.711-4.363a6.111,6.111,0,0,1,2.467-1.285,10.359,10.359,0,0,0,2.094,2.618A6.174,6.174,0,0,1,17.178,40.337Zm2.71-3.98a7.912,7.912,0,0,1-2.3-6.218c.1-1.307.913-10.155,1.2-12.363A76.622,76.622,0,0,1,33.8,16.414c1.14,0,2.273.022,3.39.063-5.454,6.075-15.467,6.372-15.576,6.374A1.04,1.04,0,0,0,20.6,23.906v6.5a10.327,10.327,0,0,0,4.1,8.237,8.083,8.083,0,0,1-4.816-2.282Zm-8.45,24.365V55.057a8.233,8.233,0,0,1,7.2-8.165v13.83Zm9.26-3.183V52.017l1.883,5.522Zm7.4,4.032a1.16,1.16,0,0,1-.954.49,1.173,1.173,0,0,1-1.11-.794L21.108,46.829h2.478l4.666,13.682A1.159,1.159,0,0,1,28.1,61.571Zm1.322-4.032L25.765,46.829h1.575l2.1,2.993a1.937,1.937,0,0,0,3.323-.425v4.442a1.031,1.031,0,0,0,2.063,0V49.4a1.939,1.939,0,0,0,3.323.424l2.1-2.993h1.575L38.18,57.539H29.418Zm11.038,4.523a1.173,1.173,0,0,1-1.11-1.551l4.666-13.682H46.49L41.566,61.267A1.173,1.173,0,0,1,40.456,62.062Zm4.561-4.523L46.9,52.018v5.521Zm3.946-10.613a5.594,5.594,0,0,1,3.982,3.06l4.018,8.388L51.04,62.487l-2.078-3.9V46.926Zm3.984-5.23a5.869,5.869,0,0,1-2.877-1.359,6.371,6.371,0,0,1-1.57-1.912,10.418,10.418,0,0,0,2.3-2.75,6.369,6.369,0,0,1,2.16,1.2c1.194,1.13,2.541,2.635,1.71,4.363A1.951,1.951,0,0,1,52.947,41.7Zm20.7.208a.8.8,0,0,1-.611.279H70.659a2.281,2.281,0,0,0-2.279,2.279v2.361a.513.513,0,0,1-.513.513H63a.513.513,0,0,1-.513-.513V44.462a2.281,2.281,0,0,0-2.279-2.279H57.828a.809.809,0,0,1-.8-.926,44.5,44.5,0,0,1,2.49-9.706c1.345-3.318,2.983-5.542,4.882-6.637V37.291a1.031,1.031,0,1,0,2.063,0V24.914c1.9,1.095,3.538,3.319,4.882,6.637a44.479,44.479,0,0,1,2.49,9.706.8.8,0,0,1-.188.647Z" transform="translate(-7.59)"/>
      </g>
    </g>
  </g>
</svg>
