<svg xmlns="http://www.w3.org/2000/svg" xmlns:xlink="http://www.w3.org/1999/xlink" width="102.949" height="102.949" viewBox="0 0 102.949 102.949">
  <defs>
    <filter id="Trazado_874925" x="0" y="0" width="102.949" height="102.949" filterUnits="userSpaceOnUse">
      <feOffset dy="3" input="SourceAlpha"/>
      <feGaussianBlur stdDeviation="3" result="blur"/>
      <feFlood flood-opacity="0.161"/>
      <feComposite operator="in" in2="blur"/>
      <feComposite in="SourceGraphic"/>
    </filter>
  </defs>
  <g id="Grupo_1115635" data-name="Grupo 1115635" transform="translate(-1108.134 -1933.999)">
    <g id="Grupo_1111553" data-name="Grupo 1111553" transform="translate(1117.134 1939.999)">
      <g id="Grupo_1111316" data-name="Grupo 1111316" transform="translate(0 0)">
        <g id="Grupo_1109835" data-name="Grupo 1109835" transform="translate(0 0)">
          <g id="Grupo_1107913" data-name="Grupo 1107913" transform="translate(0 0)">
            <g transform="matrix(1, 0, 0, 1, -9, -6)" filter="url(#Trazado_874925)">
              <g id="Trazado_874925-2" data-name="Trazado 874925" transform="translate(9 6)" fill="#9cc8ff">
                <path d="M 42.4743766784668 83.44911193847656 C 36.94221115112305 83.44911193847656 31.57631874084473 82.365966796875 26.52575302124023 80.22975921630859 C 21.64674186706543 78.16610717773438 17.26461219787598 75.21150970458984 13.50111770629883 71.44801330566406 C 9.737611770629883 67.68451690673828 6.782999992370605 63.30240249633789 4.719353199005127 58.42338943481445 C 2.583141326904297 53.37283706665039 1.500000238418579 48.00695419311523 1.500000238418579 42.47480392456055 C 1.500000238418579 36.94215774536133 2.583141326904297 31.57627296447754 4.719353199005127 26.52572059631348 C 6.782999992370605 21.64670944213867 9.737611770629883 17.26459121704102 13.50111770629883 13.50109672546387 C 17.26461219787598 9.737603187561035 21.64674186706543 6.783002853393555 26.52575302124023 4.719356060028076 C 31.57631874084473 2.583144187927246 36.94221115112305 1.500002980232239 42.4743766784668 1.500002980232239 C 48.00654220581055 1.500002980232239 53.3724365234375 2.583144187927246 58.42300033569336 4.719356060028076 C 63.3020133972168 6.783002853393555 67.68414306640625 9.737603187561035 71.4476318359375 13.50109672546387 C 75.21114349365234 17.26459121704102 78.16575622558594 21.64670944213867 80.22940063476562 26.52572059631348 C 82.36560821533203 31.57627296447754 83.44875335693359 36.94215774536133 83.44875335693359 42.47430801391602 C 83.44875335693359 48.00695419311523 82.36560821533203 53.37283706665039 80.22940063476562 58.42338943481445 C 78.16575622558594 63.30240249633789 75.21114349365234 67.68451690673828 71.4476318359375 71.44801330566406 C 67.68414306640625 75.21150970458984 63.3020133972168 78.16610717773438 58.42300033569336 80.22975921630859 C 53.3724365234375 82.365966796875 48.00654220581055 83.44911193847656 42.4743766784668 83.44911193847656 Z" stroke="none"/>
                <path d="M 42.4743766784668 2.999992370605469 C 37.14404296875 2.999992370605469 31.97475051879883 4.04327392578125 27.11008453369141 6.100852966308594 C 22.40987014770508 8.088874816894531 18.18800354003906 10.93553161621094 14.56177520751953 14.56175231933594 C 10.935546875 18.18798065185547 8.088882446289062 22.40983581542969 6.100852966308594 27.11005020141602 C 4.043281555175781 31.97470092773438 3 37.14398193359375 3 42.47479629516602 C 3 47.80511474609375 4.043281555175781 52.97439575195312 6.100852966308594 57.83905029296875 C 8.088882446289062 62.53927612304688 10.935546875 66.76113128662109 14.56177520751953 70.38735961914062 C 18.18800354003906 74.01356506347656 22.40987014770508 76.86023712158203 27.11008453369141 78.8482666015625 C 31.97475051879883 80.90583801269531 37.14404296875 81.94911956787109 42.4743766784668 81.94911956787109 C 47.80471038818359 81.94911956787109 52.97400283813477 80.90583801269531 57.83866882324219 78.8482666015625 C 62.53888320922852 76.86023712158203 66.76074981689453 74.01356506347656 70.38697814941406 70.38735961914062 C 74.01320648193359 66.76113128662109 76.85987091064453 62.53927612304688 78.847900390625 57.83905029296875 C 80.90547180175781 52.97439575195312 81.94875335693359 47.80511474609375 81.94875335693359 42.47430419921875 C 81.94875335693359 37.14398193359375 80.90547180175781 31.97470092773438 78.847900390625 27.11005020141602 C 76.85987091064453 22.40983581542969 74.01320648193359 18.18798065185547 70.38697814941406 14.56175231933594 C 66.76074981689453 10.93553161621094 62.53888320922852 8.088874816894531 57.83866882324219 6.100852966308594 C 52.97400283813477 4.04327392578125 47.80471038818359 2.999992370605469 42.4743766784668 2.999992370605469 M 42.4743766784668 -7.62939453125e-06 C 65.93232727050781 -7.62939453125e-06 84.94875335693359 19.01639556884766 84.94875335693359 42.47430419921875 L 84.94875335693359 42.47479629516602 C 84.94875335693359 65.93270111083984 65.93232727050781 84.94911956787109 42.4743766784668 84.94911956787109 C 19.01643371582031 84.94911956787109 0 65.93270111083984 0 42.47479629516602 L 0 42.47430419921875 C 0 19.01639556884766 19.01643371582031 -7.62939453125e-06 42.4743766784668 -7.62939453125e-06 Z" stroke="none" fill="#fff"/>
              </g>
            </g>
            <g id="Trazado_874923" data-name="Trazado 874923" transform="translate(0 0)" fill="none">
              <path d="M42.474,0A42.474,42.474,0,0,1,84.949,42.474h0A42.474,42.474,0,0,1,0,42.475H0A42.474,42.474,0,0,1,42.474,0Z" stroke="none"/>
              <path d="M 42.4743766784668 2.999992370605469 C 37.14404296875 2.999992370605469 31.97475051879883 4.04327392578125 27.11008453369141 6.100852966308594 C 22.40987014770508 8.088874816894531 18.18800354003906 10.93553161621094 14.56177520751953 14.56175231933594 C 10.935546875 18.18798065185547 8.088882446289062 22.40983581542969 6.100852966308594 27.11005020141602 C 4.043281555175781 31.97470092773438 3 37.14398193359375 3 42.47479629516602 C 3 47.80511474609375 4.043281555175781 52.97439575195312 6.100852966308594 57.83905029296875 C 8.088882446289062 62.53927612304688 10.935546875 66.76113128662109 14.56177520751953 70.38735961914062 C 18.18800354003906 74.01356506347656 22.40987014770508 76.86023712158203 27.11008453369141 78.8482666015625 C 31.97475051879883 80.90583801269531 37.14404296875 81.94911956787109 42.4743766784668 81.94911956787109 C 47.80471038818359 81.94911956787109 52.97400283813477 80.90583801269531 57.83866882324219 78.8482666015625 C 62.53888320922852 76.86023712158203 66.76074981689453 74.01356506347656 70.38697814941406 70.38735961914062 C 74.01320648193359 66.76113128662109 76.85987091064453 62.53927612304688 78.847900390625 57.83905029296875 C 80.90547180175781 52.97439575195312 81.94875335693359 47.80511474609375 81.94875335693359 42.47430419921875 C 81.94875335693359 37.14398193359375 80.90547180175781 31.97470092773438 78.847900390625 27.11005020141602 C 76.85987091064453 22.40983581542969 74.01320648193359 18.18798065185547 70.38697814941406 14.56175231933594 C 66.76074981689453 10.93553161621094 62.53888320922852 8.088874816894531 57.83866882324219 6.100852966308594 C 52.97400283813477 4.04327392578125 47.80471038818359 2.999992370605469 42.4743766784668 2.999992370605469 M 42.4743766784668 -7.62939453125e-06 C 65.93232727050781 -7.62939453125e-06 84.94875335693359 19.01639556884766 84.94875335693359 42.47430419921875 L 84.94875335693359 42.47479629516602 C 84.94875335693359 65.93270111083984 65.93232727050781 84.94911956787109 42.4743766784668 84.94911956787109 C 19.01643371582031 84.94911956787109 0 65.93270111083984 0 42.47479629516602 L 0 42.47430419921875 C 0 19.01639556884766 19.01643371582031 -7.62939453125e-06 42.4743766784668 -7.62939453125e-06 Z" stroke="none" fill="#fff"/>
            </g>
          </g>
        </g>
      </g>
    </g>
    <g id="Grupo_1113315" data-name="Grupo 1113315" transform="translate(1134.237 1957.527)">
      <path id="Trazado_902453" data-name="Trazado 902453" d="M100.025,11h25.07l5.439,5.439V50.733H100.025Z" transform="translate(-90.581 -10.405)" fill="#cfe8ff" fill-rule="evenodd"/>
      <path id="Trazado_902454" data-name="Trazado 902454" d="M395.143,53.878l1.177,1.177V89.349h-1.177Z" transform="translate(-356.368 -49.02)" fill="#b6dbff" fill-rule="evenodd"/>
      <path id="Trazado_902455" data-name="Trazado 902455" d="M11.045,344.19H42.452v15.583H11.045Z" transform="translate(-10.445 -310.478)" fill="#2dd62d"/>
      <path id="Trazado_902456" data-name="Trazado 902456" d="M58.482,360.6a1.576,1.576,0,0,0,1.391,1.948v2.592H32.789v-2.592A1.576,1.576,0,0,0,34.18,360.6Z" transform="translate(-30.028 -325.261)" fill="#29b933" fill-rule="evenodd"/>
      <path id="Trazado_902457" data-name="Trazado 902457" d="M34.737,365.933H57.926a1.948,1.948,0,0,0,1.948,1.948v7.365a1.948,1.948,0,0,0-1.948,1.948H34.737a1.948,1.948,0,0,0-1.948-1.948v-7.365A1.948,1.948,0,0,0,34.737,365.933Z" transform="translate(-30.028 -330.06)" fill="#96ff96" fill-rule="evenodd"/>
      <circle id="Elipse_11645" data-name="Elipse 11645" cx="5.611" cy="5.611" r="5.611" transform="translate(10.292 46.712) rotate(-85.927)" fill="#29b933"/>
      <path id="Trazado_902458" data-name="Trazado 902458" d="M118.295,366.123a5.279,5.279,0,1,1-5.6,5.269A5.611,5.611,0,0,1,118.295,366.123Z" transform="translate(-101.991 -330.232)" fill="#2dd62d" fill-rule="evenodd"/>
      <path id="Trazado_902459" data-name="Trazado 902459" d="M319.724,344.19h.728v15.583h-.728Z" transform="translate(-288.445 -310.478)" fill="#29b933"/>
      <path id="Trazado_902460" data-name="Trazado 902460" d="M352.266,11,357.7,16.44h-5.439Z" transform="translate(-317.753 -10.405)" fill="#4eb1fc" fill-rule="evenodd"/>
      <path id="Trazado_902461" data-name="Trazado 902461" d="M145.557,174.511h3.616V188.1h-3.616Z" transform="translate(-131.588 -157.664)" fill="#4eb1fc"/>
      <path id="Trazado_902462" data-name="Trazado 902462" d="M81.832,238.53h3.616v7.23H81.832Z" transform="translate(-74.197 -215.32)" fill="#fdc72e"/>
      <path id="Trazado_902463" data-name="Trazado 902463" d="M209.282,185.03H212.9v12.547h-3.616Z" transform="translate(-188.98 -167.137)" fill="#2dd62d"/>
      <path id="Trazado_902464" data-name="Trazado 902464" d="M273.007,135.8h3.616v17.44h-3.616Z" transform="translate(-246.371 -122.796)" fill="#f89b00"/>
      <path id="Trazado_902465" data-name="Trazado 902465" d="M18.106,270.182h3.616v4.084H18.106Z" transform="translate(-16.804 -243.826)" fill="#fb545c"/>
      <path id="Trazado_902466" data-name="Trazado 902466" d="M298.6,135.8h1.073v17.44H298.6Z" transform="translate(-269.421 -122.796)" fill="#e68207"/>
      <path id="Trazado_902467" data-name="Trazado 902467" d="M234.875,185.03h1.073v12.547h-1.073Z" transform="translate(-212.029 -167.137)" fill="#29b933"/>
      <path id="Trazado_902468" data-name="Trazado 902468" d="M171.15,174.511h1.073V188.1H171.15Z" transform="translate(-154.637 -157.664)" fill="#2a92fa"/>
      <path id="Trazado_902469" data-name="Trazado 902469" d="M107.424,238.53H108.5v7.23h-1.073Z" transform="translate(-97.245 -215.32)" fill="#f9ac00"/>
      <path id="Trazado_902470" data-name="Trazado 902470" d="M43.7,270.182h1.073v4.084H43.7Z" transform="translate(-39.853 -243.826)" fill="#e8333c"/>
      <g id="Grupo_1113315-2" data-name="Grupo 1113315" transform="translate(30.61 23.487)">
        <path id="Trazado_902471" data-name="Trazado 902471" d="M323.589,306.736c3.539,1.4,6.554,6.372,7.646,10.609,1.833,7.108-2.234,8.582-8.9,8.7-6.668-.116-10.735-1.591-8.9-8.7,1.092-4.237,4.107-9.214,7.646-10.609h2.512Z" transform="translate(-312.991 -300.234)" fill="#d19458" fill-rule="evenodd"/>
        <path id="Trazado_902472" data-name="Trazado 902472" d="M321.248,326.011c-6.016-.265-9.549-1.952-7.818-8.665,1.092-4.237,4.107-9.214,7.646-10.609h.343c3.539,1.4,6.554,6.372,7.646,10.609C330.8,324.059,327.264,325.746,321.248,326.011Z" transform="translate(-312.99 -300.234)" fill="#e6b17c" fill-rule="evenodd"/>
        <path id="Trazado_902473" data-name="Trazado 902473" d="M354.43,248.673l-1.814.005c-4.1-5.622-3.137-7.623-1.231-7.03a3.387,3.387,0,0,1,1.212.719c.531.438.955.642,1.409,0,.987-1.4,1.871-1.4,2.858,0,.454.644.877.44,1.409,0a3.388,3.388,0,0,1,1.212-.719c1.906-.593,2.874,1.409-1.231,7.03l-1.814-.005c-.379,0-.692,0-1,0s-.626,0-1,0Z" transform="translate(-346.092 -241.314)" fill="#d19458" fill-rule="evenodd"/>
        <path id="Trazado_902474" data-name="Trazado 902474" d="M354.43,248.674H354.1l-.831,0-.652,0c-4.1-5.619-3.134-7.62-1.228-7.027a3.386,3.386,0,0,1,1.212.718c.531.438.955.642,1.409,0,.987-1.4,1.871-1.4,2.858,0,.454.644.877.44,1.409,0a5.536,5.536,0,0,1,.5-.381c.52.852.019,2.984-2.685,6.689l-.652,0-.831,0h-.174Z" transform="translate(-346.092 -241.315)" fill="#e6b17c" fill-rule="evenodd"/>
      </g>
      <rect id="Rectángulo_404828" data-name="Rectángulo 404828" width="9.384" height="2.083" rx="1.042" transform="translate(35.261 29.808)" fill="#96602a"/>
      <g id="Grupo_1113316" data-name="Grupo 1113316" transform="translate(0 0)">
        <path id="Trazado_902475" data-name="Trazado 902475" d="M366.362,304.913h-5.538a1.042,1.042,0,0,0,0,2.083h5.538a1.042,1.042,0,0,0,0-2.083Z" transform="translate(-324.522 -275.105)" fill="#ab733a" fill-rule="evenodd"/>
        <path id="Trazado_902476" data-name="Trazado 902476" d="M6.9,34.844H9.328V31.952H6.9Zm-1.192.6V31.356a.6.6,0,0,1,.6-.6H9.927a.594.594,0,0,1,.594.6V35.44a.593.593,0,0,1-.594.6H6.311A.6.6,0,0,1,5.712,35.44ZM34.663,18.6H32.24V34.844h2.423Zm.6-1.192a.593.593,0,0,1,.594.6V35.44a.593.593,0,0,1-.594.6H31.646a.6.6,0,0,1-.6-.6V18a.6.6,0,0,1,.6-.6Zm-6.93,6.086H25.908V34.844h2.423Zm.594-1.192a.6.6,0,0,1,.6.6V35.44a.6.6,0,0,1-.6.6H25.31a.593.593,0,0,1-.594-.6V22.893a.593.593,0,0,1,.594-.6Zm-13.261,6.51H13.241v6.037h2.423Zm.594-1.192a.6.6,0,0,1,.6.6v7.23a.6.6,0,0,1-.6.6H12.642a.6.6,0,0,1-.594-.6v-7.23a.6.6,0,0,1,.594-.6ZM22,22.444H19.572v12.4H22Zm.6-1.192a.594.594,0,0,1,.594.6V35.44a.593.593,0,0,1-.594.6H18.978a.6.6,0,0,1-.6-.6V21.847a.6.6,0,0,1,.6-.6h3.616ZM8.4,29.834a.6.6,0,0,1-.421-1.018l12.04-12.043a.6.6,0,0,1,.656-.127l5.876,2.491,7.088-7.087L33.3,12.1a.6.6,0,0,1-.172-1.18l2.117-.31a.6.6,0,0,1,.508.169.619.619,0,0,1,.168.508L35.611,13.4a.6.6,0,0,1-.589.51.571.571,0,0,1-.086-.006.6.6,0,0,1-.5-.677l.048-.333-7.371,7.372a.6.6,0,0,1-.656.127L20.578,17.9,8.82,29.659a.591.591,0,0,1-.422.175Zm38.75,17.59a2.658,2.658,0,0,0-1.59-.945v2.538c.838-.088,1.5-.432,1.633-.883a.874.874,0,0,0-.043-.71Zm-2.782-2.476v-2.61a2.244,2.244,0,0,0-1.25.56,1.036,1.036,0,0,0-.311.783,1.12,1.12,0,0,0,.484.8,3.215,3.215,0,0,0,1.078.468Zm3.827,1.9a2.074,2.074,0,0,1,.148,1.621,2.958,2.958,0,0,1-2.782,1.745v.814a.6.6,0,1,1-1.192,0v-.849A3.165,3.165,0,0,1,41.5,47.987a.6.6,0,0,1,1.164-.271,1.974,1.974,0,0,0,1.705,1.25V46.181a4.874,4.874,0,0,1-1.805-.76,2.323,2.323,0,0,1-.948-1.655,2.213,2.213,0,0,1,.647-1.7,3.452,3.452,0,0,1,2.107-.933V40.3a.6.6,0,1,1,1.192,0v.831a4.72,4.72,0,0,1,.733.14A2.746,2.746,0,0,1,48.408,43.2a.6.6,0,0,1-1.164.264c-.153-.665-.939-.951-1.274-1.043a3.393,3.393,0,0,0-.412-.088v2.908c.1.025.2.05.292.078a3.672,3.672,0,0,1,2.342,1.526Zm5.091-1.1c.67,2.6.546,4.457-.383,5.68-1.14,1.5-3.587,2.2-7.94,2.273-4.353-.077-6.8-.778-7.941-2.273-.929-1.222-1.054-3.08-.383-5.68a19.378,19.378,0,0,1,4.521-8.268c.053,0,.1.008.153.008h7.3c.053,0,.105,0,.153-.008a19.328,19.328,0,0,1,4.521,8.268ZM24.941,51.539h7.442a2.557,2.557,0,0,1,1.877-1.878V43.345a2.558,2.558,0,0,1-1.877-1.878H24.941a6.2,6.2,0,0,1,0,10.072ZM17.685,41.467H10.238A2.551,2.551,0,0,1,8.36,43.345v6.316a2.549,2.549,0,0,1,1.877,1.878h7.447a6.2,6.2,0,0,1,0-10.072ZM26.33,46.5a5.017,5.017,0,1,1-5.019-5.017A5.024,5.024,0,0,1,26.33,46.5Zm10.1,7.2V52.56a4.763,4.763,0,0,1-.354-.41A4.869,4.869,0,0,1,35.29,50.6a.6.6,0,0,1-.431.184A1.355,1.355,0,0,0,33.5,52.135a.593.593,0,0,1-.594.6H9.711a.6.6,0,0,1-.594-.6,1.355,1.355,0,0,0-1.355-1.352.6.6,0,0,1-.594-.6V42.819a.6.6,0,0,1,.594-.6,1.356,1.356,0,0,0,1.355-1.352.6.6,0,0,1,.594-.6h23.2a.593.593,0,0,1,.594.6,1.356,1.356,0,0,0,1.355,1.352.593.593,0,0,1,.594.6v2.734l.029-.1a20.135,20.135,0,0,1,.943-2.782V39.305H6.2V53.7Zm5.3-19.489h6.465c1.954-2.983,2.026-4.4,1.748-4.77-.163-.215-.618-.093-.752-.051a2.737,2.737,0,0,0-.982.587L48.178,30a1.758,1.758,0,0,1-1.327.534,1.4,1.4,0,0,1-.948-.653c-.364-.515-.7-.8-.944-.8s-.58.283-.939.8a1.418,1.418,0,0,1-.953.653A1.763,1.763,0,0,1,41.741,30l-.024-.023a2.78,2.78,0,0,0-.982-.587c-.139-.042-.594-.164-.757.051-.273.369-.206,1.786,1.748,4.77ZM40.118,10.439h3.405l-3.405-3.4v3.4Zm8.491,25.856a.445.445,0,0,0,0-.891h-7.3a.445.445,0,1,0,0,.891ZM53.848,52.15c-1.758,2.312-5.474,2.684-8.879,2.743H44.95c-2.6-.045-5.378-.274-7.332-1.41V54.3a.6.6,0,0,1-.6.6H5.6a.593.593,0,0,1-.594-.6V38.709a.594.594,0,0,1,.594-.6H37.019a.6.6,0,0,1,.6.6v1.544a18.1,18.1,0,0,1,2.438-3.35,1.637,1.637,0,0,1,.407-2.453c-1.71-2.721-2.208-4.692-1.437-5.722a1.774,1.774,0,0,1,2.064-.476,3.888,3.888,0,0,1,1.384.806l.029.022a1.315,1.315,0,0,0,.4.269.536.536,0,0,0,.139-.154,3.14,3.14,0,0,1,1.322-1.185V11.632H39.524a.6.6,0,0,1-.6-.6V6.193H15.046V19.721a.6.6,0,1,1-1.192,0V5.6a.587.587,0,0,1,.177-.422A.594.594,0,0,1,14.452,5H39.524a.6.6,0,0,1,.422.174l5.436,5.439a.585.585,0,0,1,.177.421V28.008a3.164,3.164,0,0,1,1.317,1.186.748.748,0,0,0,.139.154,1.369,1.369,0,0,0,.407-.269l.024-.022a3.874,3.874,0,0,1,1.389-.806,1.767,1.767,0,0,1,2.059.476c.771,1.03.273,3-1.437,5.721a1.637,1.637,0,0,1,.407,2.454,20.571,20.571,0,0,1,4.578,8.547c.766,2.976.57,5.168-.594,6.7Zm-31.12-4.306a1.505,1.505,0,0,0-.819-.527v1.39c.465-.085.781-.286.838-.484a.461.461,0,0,0-.019-.378Zm-2.011-2.084V44.329a1.268,1.268,0,0,0-.6.309.578.578,0,0,0-.177.431.661.661,0,0,0,.283.451,1.687,1.687,0,0,0,.5.24Zm3.056,1.507A2.768,2.768,0,0,0,22,46.093l-.086-.023V44.325l.081.02c.211.058.7.234.79.621a.6.6,0,0,0,1.164-.264A2.13,2.13,0,0,0,22.311,43.2a3.423,3.423,0,0,0-.4-.085v-.447a.6.6,0,1,0-1.192,0v.452a2.6,2.6,0,0,0-1.465.7,1.745,1.745,0,0,0-.5,1.343,1.815,1.815,0,0,0,.738,1.306A3.422,3.422,0,0,0,20.717,47v1.652a1.123,1.123,0,0,1-.886-.722.6.6,0,0,0-1.164.271,2.38,2.38,0,0,0,2.05,1.673v.466a.6.6,0,1,0,1.192,0v-.432a2.2,2.2,0,0,0,1.983-1.353,1.642,1.642,0,0,0-.12-1.29ZM11.143,47.1a.6.6,0,1,1,0-1.192h1.178a.6.6,0,0,1,0,1.192Zm20.934-.6a.6.6,0,0,1-.594.6H30.3a.6.6,0,0,1,0-1.192h1.183A.6.6,0,0,1,32.076,46.5Z" transform="translate(-5.008 -5)" fill="#021047" fill-rule="evenodd"/>
      </g>
    </g>
  </g>
</svg>
