<svg xmlns="http://www.w3.org/2000/svg" width="190" height="167.697" viewBox="0 0 190 167.697">
  <g id="Grupo_1119216" data-name="Grupo 1119216" transform="translate(-180.051 -1729)">
    <rect id="Rectángulo_404958" data-name="Rectángulo 404958" width="190" height="167.697" rx="8" transform="translate(180.051 1729)" fill="#9cc8ff"/>
    <g id="person-protection-insurance-health-hands" transform="translate(223.051 1761)">
      <path id="Trazado_916696" data-name="Trazado 916696" d="M72.9,44.447A26.469,26.469,0,0,1,49.756,70.7a27.649,27.649,0,0,1-6.612,0,26.447,26.447,0,0,1,0-52.482,25.538,25.538,0,0,1,6.612,0A26.447,26.447,0,0,1,72.9,44.447Z" transform="translate(11.751 10.447)" fill="#bdfdff"/>
      <path id="Trazado_916697" data-name="Trazado 916697" d="M63.753,44.447A26.469,26.469,0,0,1,40.612,70.7,27.649,27.649,0,0,1,34,70.7a26.447,26.447,0,0,0,0-52.482,25.538,25.538,0,0,1,6.612,0A26.447,26.447,0,0,1,63.753,44.447Z" transform="translate(20.895 10.447)" fill="#46f8ff"/>
      <path id="Trazado_916698" data-name="Trazado 916698" d="M41.463,23.453A4.959,4.959,0,0,0,33,26.957v6.612a4.959,4.959,0,0,0,9.918,0V26.957a4.948,4.948,0,0,0-1.455-3.5Z" transform="translate(20.242 13.061)" fill="#ffc477"/>
      <path id="Trazado_916699" data-name="Trazado 916699" d="M41.612,26.959v6.612a4.959,4.959,0,0,1-4.959,4.959,4.582,4.582,0,0,1-1.653-.3,4.906,4.906,0,0,0,3.306-4.661V26.959a4.948,4.948,0,0,0-1.455-3.5A4.691,4.691,0,0,0,35,22.3a4.582,4.582,0,0,1,1.653-.3,4.959,4.959,0,0,1,4.959,4.959Z" transform="translate(21.548 13.059)" fill="#ffa733"/>
      <path id="Trazado_916700" data-name="Trazado 916700" d="M55,8h9.918V27.836H55Z" transform="translate(34.607 3.918)" fill="#2488ff"/>
      <path id="Trazado_916701" data-name="Trazado 916701" d="M46.886,12.918H13.959a4.959,4.959,0,0,1,0-9.918H69.366a6.572,6.572,0,0,1,4.3,1.587L79.6,9.678a6.612,6.612,0,0,0,4.3,1.587h1.141V31.1H68.622a6.488,6.488,0,0,1-3.306-.893L48.241,20.356a4.982,4.982,0,0,1-1.818-6.777,4.724,4.724,0,0,1,.463-.661Z" transform="translate(4.571 0.653)" fill="#ffc477"/>
      <path id="Trazado_916702" data-name="Trazado 916702" d="M85.036,11.265v4.959H83.9a6.612,6.612,0,0,1-4.3-1.587L73.664,9.546a6.572,6.572,0,0,0-4.3-1.587H13.959a4.948,4.948,0,0,0-3.5,1.455,5.455,5.455,0,0,0-.793,1.025A4.963,4.963,0,0,1,13.959,3H69.366a6.572,6.572,0,0,1,4.3,1.587L79.6,9.678a6.612,6.612,0,0,0,4.3,1.587Z" transform="translate(4.571 0.653)" fill="#ffa733"/>
      <path id="Trazado_916703" data-name="Trazado 916703" d="M47.15,62.183H80.077a4.959,4.959,0,1,1,0,9.918H24.67a6.572,6.572,0,0,1-4.3-1.587l-5.934-5.091a6.612,6.612,0,0,0-4.3-1.587H9V44H25.414a6.488,6.488,0,0,1,3.306.893l17.075,9.852a4.969,4.969,0,0,1,1.818,6.777A4.724,4.724,0,0,1,47.15,62.183Z" transform="translate(4.571 27.424)" fill="#ffc477"/>
      <path id="Trazado_916704" data-name="Trazado 916704" d="M47.613,61.521A5.175,5.175,0,0,0,45.795,59.7L28.72,49.852a6.488,6.488,0,0,0-3.306-.893H9V44H25.414a6.488,6.488,0,0,1,3.306.893l17.075,9.852a4.969,4.969,0,0,1,1.818,6.777Z" transform="translate(4.571 27.424)" fill="#ffa733"/>
      <path id="Trazado_916705" data-name="Trazado 916705" d="M69.966,59.959a5,5,0,0,1-.661,2.479,5.455,5.455,0,0,0-.793-1.025,4.947,4.947,0,0,0-3.5-1.455H32.08a4.724,4.724,0,0,0,.463-.661,4.959,4.959,0,0,0,.661-2.463A5.022,5.022,0,0,0,32.857,55h32.15a4.959,4.959,0,0,1,4.959,4.959Z" transform="translate(19.641 34.607)" fill="#ffa733"/>
      <path id="Trazado_916706" data-name="Trazado 916706" d="M44.612,38.612V51.836H38V32A6.612,6.612,0,0,1,44.612,38.612Z" transform="translate(23.507 19.589)" fill="#7ed63e"/>
      <path id="Trazado_916707" data-name="Trazado 916707" d="M44.612,38.612V51.836H41.306V38.612A6.579,6.579,0,0,0,38,32.893V32A6.612,6.612,0,0,1,44.612,38.612Z" transform="translate(23.507 19.589)" fill="#5eac24"/>
      <path id="Trazado_916708" data-name="Trazado 916708" d="M42.918,26.959v3.306H39.959a6.6,6.6,0,0,1-3.67-1.107L33,26.959a4.959,4.959,0,0,1,9.918,0Z" transform="translate(20.242 13.059)" fill="#a78966"/>
      <path id="Trazado_916709" data-name="Trazado 916709" d="M41.612,26.959v3.306H38.653a2.441,2.441,0,0,1-.347-.017V26.959a4.948,4.948,0,0,0-1.455-3.5A4.691,4.691,0,0,0,35,22.3a4.582,4.582,0,0,1,1.653-.3,4.959,4.959,0,0,1,4.959,4.959Z" transform="translate(21.548 13.059)" fill="#957856"/>
      <path id="Trazado_916710" data-name="Trazado 916710" d="M40.612,32V51.836H34V32h6.612Z" transform="translate(20.895 19.589)" fill="#ffd422"/>
      <path id="Trazado_916711" data-name="Trazado 916711" d="M36.612,32V51.836H30V38.612A6.612,6.612,0,0,1,36.612,32Z" transform="translate(18.283 19.589)" fill="#7ed63e"/>
      <path id="Trazado_916712" data-name="Trazado 916712" d="M3,44h9.918V63.836H3Z" transform="translate(0.653 27.424)" fill="#2488ff"/>
      <path id="Trazado_916713" data-name="Trazado 916713" d="M99.525,10.265H88.466a4.886,4.886,0,0,1-3.223-1.19L79.309,3.984A8.265,8.265,0,0,0,73.937,2H18.53a6.612,6.612,0,0,0,0,13.224H48.861a6.656,6.656,0,0,0,3.124,7.223l7.62,4.4a26.778,26.778,0,0,0-4.909.182A28.056,28.056,0,0,0,35.853,71.887L34.134,70.9a8.058,8.058,0,0,0-4.149-1.124H3.653A1.653,1.653,0,0,0,2,71.424V91.26a1.653,1.653,0,0,0,1.653,1.653H14.711a4.886,4.886,0,0,1,3.223,1.19l5.934,5.091a8.265,8.265,0,0,0,5.372,1.984H84.648a6.612,6.612,0,0,0,0-13.224H54.333a6.281,6.281,0,0,0,.165-1.471,6.69,6.69,0,0,0-1.322-3.967c.512.1,1.008.2,1.521.264a28.682,28.682,0,0,0,7.009,0A28.079,28.079,0,0,0,76.268,33.406H99.525a1.653,1.653,0,0,0,1.653-1.653V11.918a1.653,1.653,0,0,0-1.653-1.653ZM11.918,89.607H5.306V73.077h6.612Zm72.73,1.653a3.306,3.306,0,1,1,0,6.612H29.241a4.886,4.886,0,0,1-3.223-1.19l-5.934-5.091a8.2,8.2,0,0,0-4.86-1.934V73.077H29.985a4.82,4.82,0,0,1,2.479.678L49.539,83.59a3.365,3.365,0,0,1,1.653,2.893,3.207,3.207,0,0,1-.446,1.636,2.5,2.5,0,0,1-.3.43v.017a3.327,3.327,0,0,1-4.215.76L27.621,78.582l-1.653,2.876L44.58,92.2a6.612,6.612,0,0,0,7.852-.942ZM83,54.895A24.832,24.832,0,0,1,61.308,79.507a26.059,26.059,0,0,1-6.215,0A24.794,24.794,0,0,1,55.11,30.3a23.142,23.142,0,0,1,3.091-.2,23.57,23.57,0,0,1,3.108.2A24.8,24.8,0,0,1,83,54.895ZM87.954,30.1H73.193a4.82,4.82,0,0,1-2.479-.678L53.639,19.588a3.339,3.339,0,0,1-1.207-4.529,2.5,2.5,0,0,1,.3-.43v-.017a3.407,3.407,0,0,1,4.215-.76L75.557,24.6,77.21,21.72,58.6,10.976a6.794,6.794,0,0,0-7.852.942H18.53a3.306,3.306,0,1,1,0-6.612H73.937A4.886,4.886,0,0,1,77.16,6.5l5.934,5.091a8.2,8.2,0,0,0,4.86,1.934Zm9.918,0H91.26V13.571h6.612Z" transform="translate(0 0)"/>
      <path id="Trazado_916714" data-name="Trazado 916714" d="M46.075,37.86a6.554,6.554,0,0,0,1.107-3.637V27.612a6.612,6.612,0,0,0-13.224,0v6.612a6.554,6.554,0,0,0,1.107,3.637A8.265,8.265,0,0,0,29,45.794V59.018a1.653,1.653,0,0,0,1.653,1.653H50.489a1.653,1.653,0,0,0,1.653-1.653V45.794a8.265,8.265,0,0,0-6.066-7.934Zm-10.463,19.5H32.306V45.794a4.975,4.975,0,0,1,3.306-4.661Zm6.612,0H38.918V40.836h3.306Zm1.653-23.141a3.306,3.306,0,0,1-6.612,0V30.7l.727.479a8.2,8.2,0,0,0,4.579,1.388h1.306Zm0-4.959H42.571a4.909,4.909,0,0,1-2.744-.826L37.381,26.8a3.3,3.3,0,0,1,6.5.81Zm4.959,28.1H45.53V41.133a4.975,4.975,0,0,1,3.306,4.661Z" transform="translate(17.63 12.406)"/>
    </g>
  </g>
</svg>
