<svg xmlns="http://www.w3.org/2000/svg" xmlns:xlink="http://www.w3.org/1999/xlink" width="399" height="360.832" viewBox="0 0 399 360.832">
  <defs>
    <filter id="Rectángulo_405107" x="-3" y="-2" width="417" height="378.832" filterUnits="userSpaceOnUse">
      <feOffset dx="6" dy="7" input="SourceAlpha"/>
      <feGaussianBlur stdDeviation="3" result="blur"/>
      <feFlood flood-opacity="0.161"/>
      <feComposite operator="in" in2="blur"/>
      <feComposite in="SourceGraphic"/>
    </filter>
    <clipPath id="clip-path">
      <g transform="matrix(1, 0, 0, 1, 0, 0)" filter="url(#Rectángulo_405107)">
        <rect id="Rectángulo_405107-2" data-name="Rectángulo 405107" width="399" height="360.832" rx="8" fill="#fff"/>
      </g>
    </clipPath>
    <clipPath id="clip-path-2">
      <rect id="Rectángulo_405106" data-name="Rectángulo 405106" width="569.951" height="360.833" rx="8" fill="#ffea99"/>
    </clipPath>
  </defs>
  <g id="Enmascarar_grupo_1098781" data-name="Enmascarar grupo 1098781" clip-path="url(#clip-path)">
    <g id="Enmascarar_grupo_1098780" data-name="Enmascarar grupo 1098780" transform="translate(-94.895 0)" clip-path="url(#clip-path-2)">
      <g id="Grupo_1116286" data-name="Grupo 1116286" transform="translate(8.448 -130.786)">
        <g id="Grupo_1116285" data-name="Grupo 1116285" transform="translate(0 0)">
          <g id="Grupo_1116102" data-name="Grupo 1116102">
            <path id="Trazado_912599" data-name="Trazado 912599" d="M35.39,163.1h451.7a239.9,239.9,0,0,0-2.586-43.286c-4.169-29.119-10.166-58.539-19.4-86.52C456.707,7.83,445.67-16.4,430.856-38.144c-34.968-51.4-90.389-89.069-151.658-100.735C191.928-155.524,86.935-117.407,39.731-39.673c-1.169,1.889-13.6,153.471-29.714,173.579C7.431,137.131,17.351,147.779,35.39,163.1Z" transform="translate(42.936 118.466)" fill="#ffbf5c"/>
            <g id="Grupo_1116101" data-name="Grupo 1116101" transform="translate(0 86.703)">
              <path id="Trazado_912600" data-name="Trazado 912600" d="M-79.948,126.242c.782-1.59,1.59-3.154,2.448-4.693A138.983,138.983,0,0,1-60.872,97.328c7.8-9.033,16.8-16.98,25.382-25.256,16.527,1.262,32.574,7.014,45.063,17.838C30.161,59.556,76.056,50.145,106.94,69.9c27.4,17.561,39.41,51.094,47.056,82.733,26.544-14.81,64.062-4.592,79.428,21.623,10.749-15.592,23.667-30.453,40.748-38.628,17.056-8.175,39.033-8.326,53.616,3.734,16.7-13.574,39.487-18.469,60.807-15.114,1.716,11.858,3.078,23.642,4.213,35.223.177,1.716.354,3.406.5,5.122q2.725,31.148,4.239,62.321C398.611,248.033-101.091,168.529-79.948,126.242Z" transform="translate(101.389 9.93)" fill="#ffdfd6"/>
              <path id="Trazado_912601" data-name="Trazado 912601" d="M491.84,354.453q-.125-10.029-.327-20.049c-.025-1.665-.076-3.305-.127-4.971,0-.5,0-1.009-.025-1.513-.127-6.106-.278-12.187-.5-18.293a14.1,14.1,0,0,0-.026-1.463c-.2-7.116-.479-14.23-.757-21.32-.026-.479-.05-.909-.076-1.363v-.025c-.2-4.793-.4-9.612-.656-14.406-3.28-1.136-6.585-2.2-9.89-3.179a17.508,17.508,0,0,0-1.867-.555,288.019,288.019,0,0,0-28.411-6.989q-.984-.227-1.968-.378c-10.193-1.943-20.488-3.406-30.883-4.466-.757-.1-1.513-.177-2.3-.227-10.471-1.035-21.018-1.64-31.615-1.918-.782-.025-1.59-.05-2.4-.05-11.833-.253-23.742-.1-35.6.4-.832.025-1.665.05-2.5.126-6.608.262-13.2.657-19.772,1.129v99.508Z" transform="translate(9.598 -34.205)" fill="#777221"/>
              <g id="Grupo_1116069" data-name="Grupo 1116069" transform="translate(259.447 219.082)">
                <g id="Grupo_1116060" data-name="Grupo 1116060" transform="translate(0 2.649)">
                  <path id="Trazado_912602" data-name="Trazado 912602" d="M288.23,256.753c-22.733,16.148-43.12,35.021-58.662,58.334l-1.059-.707c15.265-22.834,35.121-41.455,57.249-57.426C286.59,256.88,287.4,256.8,288.23,256.753Z" transform="translate(-228.508 -256.753)" fill="#d1ca65"/>
                </g>
                <g id="Grupo_1116061" data-name="Grupo 1116061" transform="translate(19.125 0.404)">
                  <path id="Trazado_912603" data-name="Trazado 912603" d="M328.719,253.845a421.409,421.409,0,0,0-74.558,59.192l-.883-.883a420.7,420.7,0,0,1,72.944-58.183C327.054,253.9,327.887,253.87,328.719,253.845Z" transform="translate(-253.278 -253.845)" fill="#d1ca65"/>
                </g>
                <g id="Grupo_1116062" data-name="Grupo 1116062" transform="translate(28.41)">
                  <path id="Trazado_912604" data-name="Trazado 912604" d="M369.458,253.372a686.74,686.74,0,0,0-103.347,73.3l-.808-.959a686.181,686.181,0,0,1,101.757-72.388C367.869,253.322,368.676,253.347,369.458,253.372Z" transform="translate(-265.304 -253.322)" fill="#d1ca65"/>
                </g>
                <g id="Grupo_1116063" data-name="Grupo 1116063" transform="translate(52.884 1.968)">
                  <path id="Trazado_912605" data-name="Trazado 912605" d="M410.594,256.1a542.491,542.491,0,0,0-112.733,79.553l-.858-.933A546.016,546.016,0,0,1,408.3,255.871C409.08,255.921,409.836,256,410.594,256.1Z" transform="translate(-297.003 -255.871)" fill="#d1ca65"/>
                </g>
                <g id="Grupo_1116064" data-name="Grupo 1116064" transform="translate(62.447 6.661)">
                  <path id="Trazado_912606" data-name="Trazado 912606" d="M446.268,262.327a637.616,637.616,0,0,0-136.021,95.9l-.858-.934A638.425,638.425,0,0,1,444.3,261.949Q445.284,262.1,446.268,262.327Z" transform="translate(-309.389 -261.949)" fill="#d1ca65"/>
                </g>
                <g id="Grupo_1116065" data-name="Grupo 1116065" transform="translate(90.302 14.028)">
                  <path id="Trazado_912607" data-name="Trazado 912607" d="M484.767,272.046a480.7,480.7,0,0,0-138.444,91.085l-.858-.909A481.308,481.308,0,0,1,482.9,271.491,17.489,17.489,0,0,1,484.767,272.046Z" transform="translate(-345.466 -271.491)" fill="#d1ca65"/>
                </g>
                <g id="Grupo_1116066" data-name="Grupo 1116066" transform="translate(126.509 32.194)">
                  <path id="Trazado_912608" data-name="Trazado 912608" d="M506.078,296.383a551.008,551.008,0,0,0-112.884,79.933l-.832-.934A551.026,551.026,0,0,1,506,295.02C506.027,295.474,506.052,295.9,506.078,296.383Z" transform="translate(-392.361 -295.02)" fill="#d1ca65"/>
                </g>
                <g id="Grupo_1116067" data-name="Grupo 1116067" transform="translate(158.275 54.878)">
                  <path id="Trazado_912609" data-name="Trazado 912609" d="M516.237,325.862a538.306,538.306,0,0,0-81.9,58.562l-.832-.934A540.836,540.836,0,0,1,516.211,324.4,14.149,14.149,0,0,1,516.237,325.862Z" transform="translate(-433.504 -324.399)" fill="#d1ca65"/>
                </g>
                <g id="Grupo_1116068" data-name="Grupo 1116068" transform="translate(186.962 74.634)">
                  <path id="Trazado_912610" data-name="Trazado 912610" d="M525.235,351.5a429.466,429.466,0,0,0-53.742,40.446l-.832-.933a433.5,433.5,0,0,1,54.549-41.025C525.235,350.491,525.235,351,525.235,351.5Z" transform="translate(-470.66 -349.987)" fill="#d1ca65"/>
                </g>
              </g>
              <path id="Trazado_912611" data-name="Trazado 912611" d="M393.509,453.869H281.519L90.407,416.793-69.354,453.869H-95.243c-.025-.354-.076-.732-.1-1.086-.3-3-.605-6-.883-9.007-4.819-52.052-9.108-104.179-10.748-156.433-1.54-48.444-1.312-99.511,20.891-143.893.782-1.59,1.59-3.154,2.448-4.693A483.96,483.96,0,0,1-.525,135.578c31.362,1.514,62.977,6.207,91.841,18.57,1.691.732,3.356,1.463,5.021,2.245,52.961,24.576,91.488,72.086,134.179,112.355.429.429.883.832,1.312,1.236.152.151.278.277.429.4l.076.076c12.161,11.379,25.155,22.455,40.723,28.385,2.422.908,4.87,1.716,7.343,2.372a89.41,89.41,0,0,0,11.178,2.245c16.3,2.322,33.356.858,49.957.378,17.258-.5,35.021.3,52.052,3.634q.454,22.367.53,44.76C394.266,386.1,393.938,419.958,393.509,453.869Z" transform="translate(107.525 -7.278)" fill="#d1ca65"/>
              <g id="Grupo_1116072" data-name="Grupo 1116072" transform="translate(51.997 0)">
                <g id="Grupo_1116070" data-name="Grupo 1116070" transform="translate(0)">
                  <path id="Trazado_912612" data-name="Trazado 912612" d="M110.149,44.581A41.666,41.666,0,0,1,99.3,62.495c-5.022,5-16.956,3.886-23.339,6.232-12.716,4.693-15.895.58-29.192-1.388-6.459-.933-12.893-3.128-19.227-5.3-2.5-.858-4.971-1.716-7.443-2.5-2.4-.731-4.87-1.614-7.393-2.522-7.6-2.725-15.618-5.728-23.061-6.182-3.28-.2-6.585-.454-9.89-.732A148.843,148.843,0,0,0-4.78,32.924c.53-.681,1.035-1.387,1.54-2.094C9,13.622,15.052-7.143,25.322-25.587c.908-1.64,1.841-3.255,2.826-4.844a159.3,159.3,0,0,1,41.328,10.47C95.212-9.338,118.929,14.707,110.149,44.581Z" transform="translate(35.637 30.431)" fill="#d1ca65"/>
                  <path id="Trazado_912613" data-name="Trazado 912613" d="M94.756,81.2A48.7,48.7,0,0,1,77.245,92.323c-12.716,4.694-26.517,4.365-39.814,2.4a169.665,169.665,0,0,1-22.3-4.794c-1.463-.429-2.926-.858-4.365-1.312-.858-.278-1.741-.555-2.6-.833-6.812-2.245-13.6-4.718-20.538-5.954a49.933,49.933,0,0,0-5.8-.706c-7.393-.454-14.71.883-22,2.372,4.592-4.441,9.31-8.781,13.9-13.221.5-.479.984-.959,1.489-1.464A148.841,148.841,0,0,0-9.323,51.626a76.693,76.693,0,0,1,9.26,3.532c20.362,9.361,38.1,28.082,60.152,28.713,9.789.252,19.4-3.179,29.192-3.179A28.879,28.879,0,0,1,94.756,81.2Z" transform="translate(40.18 11.729)" fill="#777221"/>
                </g>
                <g id="Grupo_1116071" data-name="Grupo 1116071" transform="translate(23.11 77.597)">
                  <line id="Línea_637" data-name="Línea 637" y2="150.012" transform="translate(25.231)" fill="none" stroke="#281b14" stroke-linecap="round" stroke-linejoin="round" stroke-width="1.823"/>
                  <line id="Línea_638" data-name="Línea 638" x2="25.231" y2="53.674" transform="translate(0 5.964)" fill="none" stroke="#281b14" stroke-linecap="round" stroke-linejoin="round" stroke-width="1.823"/>
                  <line id="Línea_639" data-name="Línea 639" x1="16.515" y2="19.268" transform="translate(25.69 12.386)" fill="none" stroke="#281b14" stroke-linecap="round" stroke-linejoin="round" stroke-width="1.823"/>
                </g>
              </g>
              <g id="Grupo_1116075" data-name="Grupo 1116075" transform="translate(335.811 109.612)">
                <g id="Grupo_1116073" data-name="Grupo 1116073" transform="translate(0 0)">
                  <path id="Trazado_912614" data-name="Trazado 912614" d="M479.839,165.142a29.258,29.258,0,0,1-7.6,12.556c-3.518,3.493-11.884,2.724-16.362,4.367-8.905,3.285-11.127.414-20.444-.964-6.314-.925-12.566-3.538-18.691-5.463-6.692-2.1-14.371-5.673-21.32-6.106-10.02-.623-20.336-1.909-30.373-1.607-8.082.246-17.979,11.455-24.928,6.9a34.307,34.307,0,0,1-6.177-5.136,23.491,23.491,0,0,1-6.143-11.537,25.215,25.215,0,0,1,.6-11.253c2.351-8.761,8.322-15.954,15.357-20.826,13.3-9.211,30.287-12.464,46.119-13.884,20.173-1.809,42.591-.073,61.468,7.733C469.362,127.378,485.991,144.216,479.839,165.142Z" transform="translate(-327.414 -111.537)" fill="#d1ca65"/>
                  <path id="Trazado_912615" data-name="Trazado 912615" d="M474.164,190.357a34.3,34.3,0,0,1-12.268,7.8c-8.905,3.286-18.583,3.059-27.9,1.681a120.6,120.6,0,0,1-18.685-4.286c-6.692-2.1-13.315-4.815-20.264-5.249-10.02-.623-19.8,3.512-29.838,3.814a40.231,40.231,0,0,1-23.163-6.627,34.308,34.308,0,0,1-6.177-5.136c1.235-.68,2.454-1.4,3.671-2.1,20.9-12.1,46.379-18.145,68.188-8.138,14.275,6.552,26.7,19.674,42.14,20.109,6.863.188,13.607-2.228,20.453-2.228A20.5,20.5,0,0,1,474.164,190.357Z" transform="translate(-329.341 -124.196)" fill="#777221"/>
                </g>
                <g id="Grupo_1116074" data-name="Grupo 1116074" transform="translate(66.479 55.422)">
                  <line id="Línea_640" data-name="Línea 640" y2="105.092" transform="translate(17.676)" fill="none" stroke="#281b14" stroke-linecap="round" stroke-linejoin="round" stroke-width="1.277"/>
                  <line id="Línea_641" data-name="Línea 641" x2="17.676" y2="37.602" transform="translate(0 4.178)" fill="none" stroke="#281b14" stroke-linecap="round" stroke-linejoin="round" stroke-width="1.277"/>
                  <line id="Línea_642" data-name="Línea 642" x1="11.57" y2="13.498" transform="translate(17.997 8.677)" fill="none" stroke="#281b14" stroke-linecap="round" stroke-linejoin="round" stroke-width="1.277"/>
                </g>
              </g>
              <g id="Grupo_1116100" data-name="Grupo 1116100" transform="translate(30.929 163.066)">
                <g id="Grupo_1116079" data-name="Grupo 1116079" transform="translate(363.463 195.088)">
                  <g id="Grupo_1116076" data-name="Grupo 1116076" transform="translate(0 4.183)">
                    <path id="Trazado_912616" data-name="Trazado 912616" d="M412.792,454.394a1.343,1.343,0,0,1-1.135-.623l-8.16-12.843a1.343,1.343,0,0,1,2.267-1.441l8.16,12.844a1.344,1.344,0,0,1-1.132,2.063Z" transform="translate(-403.288 -438.865)" fill="#777221"/>
                  </g>
                  <g id="Grupo_1116077" data-name="Grupo 1116077" transform="translate(13.777)">
                    <path id="Trazado_912617" data-name="Trazado 912617" d="M424.751,450.762a1.344,1.344,0,0,1-1.326-1.137L421.147,435a1.343,1.343,0,1,1,2.654-.413l2.278,14.629a1.343,1.343,0,0,1-1.12,1.533A1.374,1.374,0,0,1,424.751,450.762Z" transform="translate(-421.131 -433.447)" fill="#777221"/>
                  </g>
                  <g id="Grupo_1116078" data-name="Grupo 1116078" transform="translate(25.062 0.587)">
                    <path id="Trazado_912618" data-name="Trazado 912618" d="M437.092,451.521c-.029,0-.059,0-.089,0a1.342,1.342,0,0,1-1.253-1.427l.95-14.626a1.343,1.343,0,1,1,2.68.174l-.95,14.626A1.342,1.342,0,0,1,437.092,451.521Z" transform="translate(-435.747 -434.208)" fill="#777221"/>
                  </g>
                </g>
                <g id="Grupo_1116083" data-name="Grupo 1116083" transform="translate(424.527 148.81)">
                  <g id="Grupo_1116080" data-name="Grupo 1116080" transform="translate(0 4.184)">
                    <path id="Trazado_912619" data-name="Trazado 912619" d="M491.882,394.454a1.343,1.343,0,0,1-1.135-.623l-8.16-12.843a1.343,1.343,0,0,1,2.267-1.44l8.16,12.843a1.343,1.343,0,0,1-1.132,2.063Z" transform="translate(-482.378 -378.926)" fill="#777221"/>
                  </g>
                  <g id="Grupo_1116081" data-name="Grupo 1116081" transform="translate(13.777 0)">
                    <path id="Trazado_912620" data-name="Trazado 912620" d="M503.841,390.822a1.344,1.344,0,0,1-1.325-1.137l-2.278-14.629a1.343,1.343,0,0,1,2.654-.413l2.278,14.629a1.345,1.345,0,0,1-1.12,1.534A1.361,1.361,0,0,1,503.841,390.822Z" transform="translate(-500.222 -373.507)" fill="#777221"/>
                  </g>
                  <g id="Grupo_1116082" data-name="Grupo 1116082" transform="translate(25.063 0.587)">
                    <path id="Trazado_912621" data-name="Trazado 912621" d="M516.182,391.581l-.089,0a1.343,1.343,0,0,1-1.252-1.428l.95-14.626a1.343,1.343,0,1,1,2.68.174l-.95,14.626A1.343,1.343,0,0,1,516.182,391.581Z" transform="translate(-514.838 -374.268)" fill="#777221"/>
                  </g>
                </g>
                <g id="Grupo_1116087" data-name="Grupo 1116087" transform="translate(76.016 76.015)">
                  <g id="Grupo_1116084" data-name="Grupo 1116084" transform="translate(0 4.184)">
                    <path id="Trazado_912622" data-name="Trazado 912622" d="M40.493,300.172a1.343,1.343,0,0,1-1.135-.623L31.2,286.706a1.343,1.343,0,0,1,2.267-1.441l8.16,12.843a1.344,1.344,0,0,1-1.132,2.064Z" transform="translate(-30.989 -284.643)" fill="#777221"/>
                  </g>
                  <g id="Grupo_1116085" data-name="Grupo 1116085" transform="translate(13.777)">
                    <path id="Trazado_912623" data-name="Trazado 912623" d="M52.452,296.539a1.344,1.344,0,0,1-1.326-1.137l-2.278-14.629a1.343,1.343,0,1,1,2.654-.413l2.278,14.629a1.343,1.343,0,0,1-1.12,1.533A1.356,1.356,0,0,1,52.452,296.539Z" transform="translate(-48.832 -279.225)" fill="#777221"/>
                  </g>
                  <g id="Grupo_1116086" data-name="Grupo 1116086" transform="translate(25.062 0.588)">
                    <path id="Trazado_912624" data-name="Trazado 912624" d="M64.793,297.3l-.089,0a1.343,1.343,0,0,1-1.253-1.428l.95-14.626a1.343,1.343,0,0,1,2.68.175l-.95,14.626A1.342,1.342,0,0,1,64.793,297.3Z" transform="translate(-63.448 -279.986)" fill="#777221"/>
                  </g>
                </g>
                <g id="Grupo_1116091" data-name="Grupo 1116091">
                  <g id="Grupo_1116088" data-name="Grupo 1116088" transform="translate(0 4.183)">
                    <path id="Trazado_912625" data-name="Trazado 912625" d="M-57.962,201.717a1.344,1.344,0,0,1-1.135-.623l-8.16-12.843a1.344,1.344,0,0,1,.413-1.854,1.344,1.344,0,0,1,1.854.413l8.16,12.843a1.344,1.344,0,0,1-.413,1.854A1.342,1.342,0,0,1-57.962,201.717Z" transform="translate(67.466 -186.188)" fill="#777221"/>
                  </g>
                  <g id="Grupo_1116089" data-name="Grupo 1116089" transform="translate(13.777)">
                    <path id="Trazado_912626" data-name="Trazado 912626" d="M-46,198.085a1.344,1.344,0,0,1-1.325-1.137l-2.278-14.629a1.343,1.343,0,0,1,1.12-1.533,1.346,1.346,0,0,1,1.533,1.12l2.278,14.629a1.343,1.343,0,0,1-1.12,1.533A1.38,1.38,0,0,1-46,198.085Z" transform="translate(49.622 -180.77)" fill="#777221"/>
                  </g>
                  <g id="Grupo_1116090" data-name="Grupo 1116090" transform="translate(25.062 0.587)">
                    <path id="Trazado_912627" data-name="Trazado 912627" d="M-33.662,198.843l-.089,0A1.343,1.343,0,0,1-35,197.414l.95-14.626a1.335,1.335,0,0,1,1.427-1.253,1.343,1.343,0,0,1,1.253,1.428l-.95,14.626A1.343,1.343,0,0,1-33.662,198.843Z" transform="translate(35.006 -181.531)" fill="#777221"/>
                  </g>
                </g>
                <g id="Grupo_1116095" data-name="Grupo 1116095" transform="translate(102.428)">
                  <g id="Grupo_1116092" data-name="Grupo 1116092" transform="translate(0 4.183)">
                    <path id="Trazado_912628" data-name="Trazado 912628" d="M74.7,201.717a1.342,1.342,0,0,1-1.135-.623l-8.16-12.843a1.343,1.343,0,0,1,2.267-1.441l8.16,12.843a1.344,1.344,0,0,1-1.132,2.064Z" transform="translate(-65.198 -186.188)" fill="#777221"/>
                  </g>
                  <g id="Grupo_1116093" data-name="Grupo 1116093" transform="translate(13.777)">
                    <path id="Trazado_912629" data-name="Trazado 912629" d="M86.661,198.085a1.344,1.344,0,0,1-1.325-1.137l-2.278-14.629a1.343,1.343,0,1,1,2.654-.413l2.278,14.629a1.343,1.343,0,0,1-1.12,1.533A1.364,1.364,0,0,1,86.661,198.085Z" transform="translate(-83.041 -180.77)" fill="#777221"/>
                  </g>
                  <g id="Grupo_1116094" data-name="Grupo 1116094" transform="translate(25.062 0.587)">
                    <path id="Trazado_912630" data-name="Trazado 912630" d="M99,198.843l-.089,0a1.343,1.343,0,0,1-1.253-1.427l.95-14.626a1.343,1.343,0,1,1,2.68.175l-.95,14.626A1.342,1.342,0,0,1,99,198.843Z" transform="translate(-97.657 -181.531)" fill="#777221"/>
                  </g>
                </g>
                <g id="Grupo_1116099" data-name="Grupo 1116099" transform="translate(424.527 240.93)">
                  <g id="Grupo_1116096" data-name="Grupo 1116096" transform="translate(0 4.183)">
                    <path id="Trazado_912631" data-name="Trazado 912631" d="M491.882,513.768a1.345,1.345,0,0,1-1.135-.623l-8.16-12.843a1.343,1.343,0,1,1,2.267-1.441l8.16,12.843a1.344,1.344,0,0,1-1.132,2.064Z" transform="translate(-482.378 -498.239)" fill="#777221"/>
                  </g>
                  <g id="Grupo_1116097" data-name="Grupo 1116097" transform="translate(13.777)">
                    <path id="Trazado_912632" data-name="Trazado 912632" d="M503.841,510.136A1.345,1.345,0,0,1,502.517,509l-2.278-14.629a1.343,1.343,0,0,1,2.654-.413l2.278,14.629a1.344,1.344,0,0,1-1.12,1.533A1.363,1.363,0,0,1,503.841,510.136Z" transform="translate(-500.222 -492.821)" fill="#777221"/>
                  </g>
                  <g id="Grupo_1116098" data-name="Grupo 1116098" transform="translate(25.063 0.587)">
                    <path id="Trazado_912633" data-name="Trazado 912633" d="M516.182,510.894l-.089,0a1.342,1.342,0,0,1-1.252-1.427l.95-14.626a1.343,1.343,0,1,1,2.68.174l-.95,14.626A1.343,1.343,0,0,1,516.182,510.894Z" transform="translate(-514.838 -493.582)" fill="#777221"/>
                  </g>
                </g>
              </g>
            </g>
          </g>
          <ellipse id="Elipse_11746" data-name="Elipse 11746" cx="34.773" cy="34.773" rx="34.773" ry="34.773" transform="translate(328.718 235.169) rotate(-76.717)" fill="#ffdfd6"/>
          <g id="Grupo_1116284" data-name="Grupo 1116284" transform="translate(128.778 168.923)">
            <g id="Grupo_1116104" data-name="Grupo 1116104" transform="translate(81.667 99.095)">
              <path id="Trazado_912634" data-name="Trazado 912634" d="M289.685,205.627s48.1,23.905,56.623,60.7l-15.256,99.159H165.04s3.422-101.765,28.268-128.323c26.023-27.818,56.085-32.754,56.085-32.754Z" transform="translate(-165.04 -204.406)" fill="#625970"/>
            </g>
            <g id="Grupo_1116105" data-name="Grupo 1116105" transform="translate(120.548 149.406)">
              <path id="Trazado_912635" data-name="Trazado 912635" d="M218.695,372.949h-.053a.692.692,0,0,1-.636-.742l4.443-58.647a12.584,12.584,0,0,1-6.411-4.91c-3.1-4.338,6.029-35.1,7.08-38.59a.691.691,0,1,1,1.323.4c-3.9,12.943-9.314,34.538-7.279,37.388a10.756,10.756,0,0,0,6.137,4.506.7.7,0,0,1,.572.733l-4.487,59.226A.69.69,0,0,1,218.695,372.949Z" transform="translate(-215.399 -269.568)" fill="#281b14"/>
            </g>
            <g id="Grupo_1116252" data-name="Grupo 1116252" transform="translate(0 180.428)">
              <g id="Grupo_1116154" data-name="Grupo 1116154" transform="translate(0 0)">
                <g id="Grupo_1116121" data-name="Grupo 1116121" transform="translate(0 5.384)">
                  <g id="Grupo_1116107" data-name="Grupo 1116107">
                    <g id="Grupo_1116106" data-name="Grupo 1116106">
                      <path id="Trazado_912636" data-name="Trazado 912636" d="M113.684,408.933l-13.4-6.594a29.242,29.242,0,0,0-5.682-4.587l-.432-.259a39.343,39.343,0,0,0-3.786-1.956c-1.1-.512-2.211-.979-3.344-1.428l-.1-.049c-.276-.1-.533-.215-.8-.313-2.962-1.162-5.967-2.268-8.824-3.643a26.975,26.975,0,0,1-9.49-7.256c-.182-.261-.39-.5-.567-.777a14.81,14.81,0,0,1-2.235-4.853c-.948-3.735-.248-7.657.584-11.4.073-.338.14-.663.232-1.008.029-.218.1-.45.133-.682a16.741,16.741,0,0,0,.445-4.887c-.261-2.666-1.544-5.088-2.739-7.466a40.2,40.2,0,0,1-4.206-12.361c-.052-.243-.072-.487-.105-.737a17.345,17.345,0,0,1,1.035-8.3,23.347,23.347,0,0,1,5.121-7.271,25.5,25.5,0,0,1,6.1-4.748c.237-.1.467-.222.7-.31a12.943,12.943,0,0,1,1.826-.705,18.521,18.521,0,0,1,8.437-.252,29,29,0,0,1,11.53,4.726c.219.154.432.291.633.452a25.96,25.96,0,0,1,9.97,14.03c.889,3.318,1.1,6.9,1.882,10.22.109.5.243,1.023.4,1.521l.006.019-.006.012a13.79,13.79,0,0,0,3.668,6.242q.745.763,1.564,1.471c.2.161.389.316.6.483.509.422,1.035.837,1.563,1.252.822.638,1.651,1.295,2.43,1.99a27.529,27.529,0,0,1,8.654,15.344,9.276,9.276,0,0,1,.194,1.029l.007.019a26.606,26.606,0,0,1-.2,9.664C123.694,394.291,118.234,401.4,113.684,408.933Z" transform="translate(-59.266 -316.721)" fill="#777221"/>
                    </g>
                  </g>
                  <g id="Grupo_1116110" data-name="Grupo 1116110" transform="translate(12.37 1.32)">
                    <g id="Grupo_1116109" data-name="Grupo 1116109">
                      <g id="Grupo_1116108" data-name="Grupo 1116108">
                        <path id="Trazado_912637" data-name="Trazado 912637" d="M113.175,407.275l-.7-.346c.061-2.305.065-4.622-.025-6.94-.015-.475-.037-.937-.065-1.418a75.825,75.825,0,0,0-.877-8.465,81.773,81.773,0,0,0-1.871-8.47l-.012-.006.006-.013-.012-.006c-.1-.361-.2-.736-.313-1.1-.287-1-.593-1.989-.906-2.968-.675-2.139-1.425-4.251-2.2-6.314-.838-2.25-1.7-4.449-2.571-6.573l-.012-.038c-.171-.411-.343-.822-.5-1.228-.343-.822-.673-1.638-1-2.436-.564-1.352-1.154-2.81-1.789-4.336-.177-.4-.348-.81-.52-1.221a.014.014,0,0,1-.006-.019c-1.331-3.115-2.807-6.411-4.407-9.548-.474-.9-.93-1.812-1.428-2.7-.063-.124-.145-.242-.208-.367l.006-.012a101.364,101.364,0,0,0-18.478-24.009c.237-.1.467-.222.7-.31a102.771,102.771,0,0,1,17.992,23.288c.176.3.353.61.511.921.53.946,1.042,1.9,1.529,2.87,2.624,5.137,4.914,10.7,6.76,15.174.241.586.489,1.19.73,1.807.165.393.337.8.5,1.228.013.006.007.018.019.025l-.006.013c.876,2.143,1.751,4.349,2.6,6.6.775,2.063,1.52,4.157,2.214,6.289.477,1.434.917,2.88,1.333,4.345.1.343.185.7.287,1.06l.012.006c.685,2.594,1.289,5.258,1.73,7.935.208,1.348.385,2.7.519,4.038.039.269.059.512.086.774.167,1.686.271,3.372.331,5.051C113.251,402.346,113.247,404.819,113.175,407.275Z" transform="translate(-75.287 -318.431)" fill="#281b14"/>
                      </g>
                    </g>
                  </g>
                  <g id="Grupo_1116112" data-name="Grupo 1116112" transform="translate(0.113 21.957)">
                    <g id="Grupo_1116111" data-name="Grupo 1116111">
                      <path id="Trazado_912638" data-name="Trazado 912638" d="M96.9,362.616a.324.324,0,0,1-.2.1.514.514,0,0,1-.142-.005.336.336,0,0,1-.153-.081,63.1,63.1,0,0,0-36.906-16.739c-.042-.24-.07-.477-.095-.727a63.929,63.929,0,0,1,36.777,16.32c.235.215.47.431.692.642A.362.362,0,0,1,96.9,362.616Z" transform="translate(-59.413 -345.159)" fill="#281b14"/>
                    </g>
                  </g>
                  <g id="Grupo_1116114" data-name="Grupo 1116114" transform="translate(30.836 5.088)">
                    <g id="Grupo_1116113" data-name="Grupo 1116113">
                      <path id="Trazado_912639" data-name="Trazado 912639" d="M99.9,344.005a.346.346,0,0,1-.412.273l-.014,0c-.014,0-.041-.01-.051-.027a.343.343,0,0,1-.212-.368l0-.013c.069-.343.141-.7.211-1.042,1.362-6.468,2.64-13,3.812-19.514.221.155.432.293.622.454-1.212,6.677-2.515,13.376-3.914,19.992A1.489,1.489,0,0,1,99.9,344.005Z" transform="translate(-99.205 -323.311)" fill="#281b14"/>
                    </g>
                  </g>
                  <g id="Grupo_1116116" data-name="Grupo 1116116" transform="translate(6.576 39.051)">
                    <g id="Grupo_1116115" data-name="Grupo 1116115">
                      <path id="Trazado_912640" data-name="Trazado 912640" d="M108.98,392.93a.314.314,0,0,1-.222.263l-.014,0a.28.28,0,0,1-.189.012.61.61,0,0,1-.129-.06,5.1,5.1,0,0,0-.514-.37l-.01-.017a85.009,85.009,0,0,0-40.118-16.415c.039-.221.1-.451.138-.685A86.061,86.061,0,0,1,107.6,391.644c.283.2.551.394.83.605l.029-.122c1.651-7.649,3.55-16.142,5.727-24.827.2.165.4.327.6.492C112.573,376.612,110.66,385.217,108.98,392.93Z" transform="translate(-67.783 -367.3)" fill="#281b14"/>
                    </g>
                  </g>
                  <g id="Grupo_1116118" data-name="Grupo 1116118" transform="translate(49.45 58.13)">
                    <g id="Grupo_1116117" data-name="Grupo 1116117">
                      <path id="Trazado_912641" data-name="Trazado 912641" d="M140.294,393.036l0,.013a72.691,72.691,0,0,1-16.41,18.468.358.358,0,0,1-.131.069.328.328,0,0,1-.173,0,.406.406,0,0,1-.187-.117.339.339,0,0,1,.062-.488c.07-.055.144-.123.215-.178A71.736,71.736,0,0,0,140.1,392.011C140.175,392.345,140.234,392.691,140.294,393.036Z" transform="translate(-123.314 -392.011)" fill="#281b14"/>
                    </g>
                  </g>
                  <g id="Grupo_1116120" data-name="Grupo 1116120" transform="translate(8.002 65.345)">
                    <g id="Grupo_1116119" data-name="Grupo 1116119">
                      <path id="Trazado_912642" data-name="Trazado 912642" d="M111.659,419.07a.323.323,0,0,1-.253.039.345.345,0,0,1-.218-.168l-.031-.05c-2.54-4.616-7.616-7.207-12.265-9.131a110.512,110.512,0,0,0-27.177-7.407c-.5-.065-1.014-.147-1.516-.212-.195-.263-.393-.513-.571-.786.18.029.363.045.543.075.542.075,1.085.149,1.641.228a111.929,111.929,0,0,1,27.353,7.45c4.374,1.814,9.137,4.213,11.935,8.36a12.066,12.066,0,0,1,.7,1.135A.35.35,0,0,1,111.659,419.07Z" transform="translate(-69.63 -401.355)" fill="#281b14"/>
                    </g>
                  </g>
                </g>
                <g id="Grupo_1116137" data-name="Grupo 1116137" transform="translate(74.609 0)">
                  <g id="Grupo_1116123" data-name="Grupo 1116123">
                    <g id="Grupo_1116122" data-name="Grupo 1116122">
                      <path id="Trazado_912643" data-name="Trazado 912643" d="M168.26,401.959l13.4-6.593a29.239,29.239,0,0,1,5.682-4.587l.432-.259a39.536,39.536,0,0,1,3.786-1.957c1.1-.511,2.211-.979,3.345-1.428l.1-.049c.276-.105.533-.215.8-.314,2.962-1.162,5.967-2.267,8.823-3.643a26.982,26.982,0,0,0,9.491-7.255c.183-.261.39-.5.567-.777a14.79,14.79,0,0,0,2.235-4.852c.948-3.736.248-7.657-.584-11.4-.073-.337-.14-.663-.231-1.007-.03-.219-.1-.451-.134-.682a16.741,16.741,0,0,1-.444-4.888c.26-2.665,1.543-5.087,2.738-7.466a40.19,40.19,0,0,0,4.206-12.36c.052-.243.073-.487.105-.737a17.347,17.347,0,0,0-1.035-8.3,23.357,23.357,0,0,0-5.12-7.272,25.487,25.487,0,0,0-6.1-4.747c-.237-.1-.467-.222-.7-.31a12.941,12.941,0,0,0-1.826-.7,18.509,18.509,0,0,0-8.437-.252,28.99,28.99,0,0,0-11.53,4.725c-.219.155-.432.291-.633.452a25.958,25.958,0,0,0-9.97,14.03c-.889,3.318-1.1,6.9-1.882,10.22-.109.506-.243,1.023-.4,1.522l-.007.018.006.012a13.791,13.791,0,0,1-3.668,6.242q-.745.764-1.564,1.471c-.2.161-.389.317-.6.483-.508.422-1.035.837-1.563,1.252-.822.639-1.651,1.3-2.43,1.99a27.531,27.531,0,0,0-8.654,15.345,9.234,9.234,0,0,0-.194,1.029l-.006.019a26.6,26.6,0,0,0,.2,9.665C158.251,387.317,163.71,394.423,168.26,401.959Z" transform="translate(-155.899 -309.748)" fill="#777221"/>
                    </g>
                  </g>
                  <g id="Grupo_1116126" data-name="Grupo 1116126" transform="translate(16.471 1.321)">
                    <g id="Grupo_1116125" data-name="Grupo 1116125">
                      <g id="Grupo_1116124" data-name="Grupo 1116124">
                        <path id="Trazado_912644" data-name="Trazado 912644" d="M177.283,400.3l.7-.346c-.06-2.3-.065-4.622.025-6.94.015-.475.037-.937.065-1.418a75.976,75.976,0,0,1,.877-8.464,81.74,81.74,0,0,1,1.871-8.471l.012-.006-.006-.012.013-.006c.1-.362.2-.736.313-1.1.287-1,.594-1.989.906-2.967.676-2.139,1.425-4.252,2.2-6.314.838-2.25,1.7-4.45,2.571-6.574l.012-.037c.171-.411.343-.823.5-1.228.343-.822.673-1.639,1-2.436.564-1.352,1.154-2.81,1.789-4.337.177-.4.348-.81.52-1.221a.014.014,0,0,0,.006-.019c1.331-3.115,2.807-6.41,4.407-9.548.474-.9.93-1.812,1.428-2.7.063-.125.145-.243.209-.368l-.006-.012a101.306,101.306,0,0,1,18.477-24.009c-.237-.1-.467-.222-.7-.31a102.724,102.724,0,0,0-17.991,23.287c-.177.3-.354.61-.512.921-.53.946-1.042,1.9-1.529,2.871-2.624,5.137-4.914,10.7-6.76,15.174-.241.586-.489,1.191-.73,1.807-.165.392-.336.8-.5,1.227-.012.006-.006.019-.019.025l.006.012c-.875,2.143-1.751,4.349-2.6,6.605-.775,2.063-1.519,4.157-2.213,6.289-.478,1.434-.918,2.88-1.333,4.345-.1.344-.186.7-.288,1.061l-.012.006c-.685,2.593-1.289,5.257-1.73,7.935-.208,1.347-.385,2.7-.519,4.038-.039.268-.059.512-.086.774-.167,1.686-.271,3.372-.331,5.052C177.207,395.372,177.211,397.846,177.283,400.3Z" transform="translate(-177.232 -311.458)" fill="#281b14"/>
                      </g>
                    </g>
                  </g>
                  <g id="Grupo_1116128" data-name="Grupo 1116128" transform="translate(29.088 21.956)">
                    <g id="Grupo_1116127" data-name="Grupo 1116127">
                      <path id="Trazado_912645" data-name="Trazado 912645" d="M193.66,355.642a.332.332,0,0,0,.2.1.51.51,0,0,0,.142-.006.334.334,0,0,0,.154-.08,63.089,63.089,0,0,1,36.9-16.739c.042-.24.07-.477.1-.728a63.94,63.94,0,0,0-36.778,16.32c-.235.215-.47.431-.692.643A.362.362,0,0,0,193.66,355.642Z" transform="translate(-193.573 -338.185)" fill="#281b14"/>
                    </g>
                  </g>
                  <g id="Grupo_1116130" data-name="Grupo 1116130" transform="translate(31.291 5.088)">
                    <g id="Grupo_1116129" data-name="Grupo 1116129">
                      <path id="Trazado_912646" data-name="Trazado 912646" d="M200.387,337.031a.347.347,0,0,0,.412.273l.013,0a.082.082,0,0,0,.051-.027.342.342,0,0,0,.212-.368l0-.014c-.069-.343-.141-.7-.211-1.041-1.362-6.469-2.639-13-3.812-19.514-.221.154-.432.293-.622.454,1.212,6.677,2.515,13.375,3.914,19.992A1.568,1.568,0,0,0,200.387,337.031Z" transform="translate(-196.427 -316.338)" fill="#281b14"/>
                    </g>
                  </g>
                  <g id="Grupo_1116132" data-name="Grupo 1116132" transform="translate(13.204 39.052)">
                    <g id="Grupo_1116131" data-name="Grupo 1116131">
                      <path id="Trazado_912647" data-name="Trazado 912647" d="M178.8,385.957a.311.311,0,0,0,.222.262l.014,0a.279.279,0,0,0,.189.011.575.575,0,0,0,.13-.06,5.258,5.258,0,0,1,.513-.37l.01-.016A85.02,85.02,0,0,1,220,369.364c-.039-.22-.1-.451-.138-.685a86.064,86.064,0,0,0-39.676,15.991c-.282.2-.551.393-.83.6l-.029-.122c-1.651-7.648-3.55-16.142-5.727-24.826-.2.164-.395.327-.6.491C175.211,369.638,177.123,378.244,178.8,385.957Z" transform="translate(-173.001 -360.327)" fill="#281b14"/>
                    </g>
                  </g>
                  <g id="Grupo_1116134" data-name="Grupo 1116134" transform="translate(0.349 58.13)">
                    <g id="Grupo_1116133" data-name="Grupo 1116133">
                      <path id="Trazado_912648" data-name="Trazado 912648" d="M156.351,386.062l0,.014a72.731,72.731,0,0,0,16.41,18.467.387.387,0,0,0,.131.069.336.336,0,0,0,.173,0,.413.413,0,0,0,.187-.117.34.34,0,0,0-.061-.488c-.071-.055-.145-.124-.216-.178a71.739,71.739,0,0,1-16.432-18.793C156.47,385.372,156.41,385.717,156.351,386.062Z" transform="translate(-156.351 -385.037)" fill="#281b14"/>
                    </g>
                  </g>
                  <g id="Grupo_1116136" data-name="Grupo 1116136" transform="translate(16.565 65.344)">
                    <g id="Grupo_1116135" data-name="Grupo 1116135">
                      <path id="Trazado_912649" data-name="Trazado 912649" d="M177.537,412.1a.331.331,0,0,0,.254.039.355.355,0,0,0,.218-.168l.031-.051c2.539-4.616,7.615-7.206,12.264-9.131a110.479,110.479,0,0,1,27.178-7.407c.5-.065,1.014-.147,1.515-.212.195-.263.393-.513.571-.786-.18.029-.363.046-.543.075l-1.641.228a111.927,111.927,0,0,0-27.354,7.45c-4.374,1.815-9.137,4.213-11.935,8.361a12.024,12.024,0,0,0-.7,1.134A.35.35,0,0,0,177.537,412.1Z" transform="translate(-177.354 -394.381)" fill="#281b14"/>
                    </g>
                  </g>
                </g>
                <g id="Grupo_1116153" data-name="Grupo 1116153" transform="translate(132.122 7.823)">
                  <g id="Grupo_1116139" data-name="Grupo 1116139">
                    <g id="Grupo_1116138" data-name="Grupo 1116138">
                      <path id="Trazado_912650" data-name="Trazado 912650" d="M239.211,407.047l14.127-4.834a29.221,29.221,0,0,1,6.22-3.826l.462-.2a39.508,39.508,0,0,1,4-1.458c1.159-.367,2.319-.69,3.5-.991l.106-.036c.286-.069.555-.146.828-.209,3.086-.776,6.208-1.489,9.216-2.489a26.969,26.969,0,0,0,10.337-5.988c.215-.236.452-.45.662-.7a14.815,14.815,0,0,0,2.835-4.528c1.416-3.584,1.221-7.563.872-11.385-.029-.344-.054-.675-.1-1.028,0-.222-.039-.459-.045-.693a16.731,16.731,0,0,1,.182-4.9c.6-2.611,2.179-4.849,3.668-7.057A40.223,40.223,0,0,0,301.829,345c.082-.235.133-.473.2-.717a17.346,17.346,0,0,0,.031-8.366,23.352,23.352,0,0,0-4.152-7.865,25.49,25.49,0,0,0-5.45-5.486c-.221-.131-.435-.28-.652-.4a12.96,12.96,0,0,0-1.721-.932,18.505,18.505,0,0,0-8.336-1.325,28.983,28.983,0,0,0-12.038,3.218c-.238.126-.466.233-.686.368a25.962,25.962,0,0,0-11.676,12.646c-1.3,3.177-1.974,6.7-3.168,9.9-.173.486-.372.983-.594,1.458l-.008.018,0,.013a13.786,13.786,0,0,1-4.434,5.724q-.836.662-1.739,1.259c-.22.134-.426.264-.659.4-.558.353-1.134.7-1.71,1.042-.9.528-1.8,1.075-2.663,1.665a27.525,27.525,0,0,0-10.538,14.116,9.522,9.522,0,0,0-.324,1l-.008.017a26.616,26.616,0,0,0-1.037,9.611C231.148,391.249,235.657,398.992,239.211,407.047Z" transform="translate(-230.39 -319.879)" fill="#777221"/>
                    </g>
                  </g>
                  <g id="Grupo_1116142" data-name="Grupo 1116142" transform="translate(13.208 2.284)">
                    <g id="Grupo_1116141" data-name="Grupo 1116141">
                      <g id="Grupo_1116140" data-name="Grupo 1116140">
                        <path id="Trazado_912651" data-name="Trazado 912651" d="M247.5,406.22l.741-.253c.233-2.295.524-4.594.908-6.88.076-.469.156-.924.246-1.4a75.882,75.882,0,0,1,1.948-8.284,81.852,81.852,0,0,1,2.935-8.164l.013,0,0-.013.013,0c.147-.345.29-.7.452-1.055.412-.953.841-1.9,1.276-2.828.942-2.034,1.955-4.035,2.986-5.982,1.119-2.125,2.255-4.2,3.388-6.193l.017-.035c.222-.386.445-.772.653-1.154.445-.772.876-1.54,1.3-2.289.732-1.269,1.5-2.641,2.326-4.073.226-.373.449-.759.671-1.145a.014.014,0,0,0,.008-.018c1.717-2.92,3.6-6,5.588-8.909.585-.835,1.153-1.679,1.76-2.492.079-.115.175-.222.254-.337l0-.013a101.353,101.353,0,0,1,21.384-21.459c-.221-.131-.435-.28-.652-.4a102.8,102.8,0,0,0-20.812,20.805c-.214.28-.428.56-.625.849-.647.871-1.276,1.75-1.882,2.652-3.257,4.761-6.238,9.988-8.638,14.189-.313.551-.636,1.118-.953,1.7-.214.368-.436.754-.653,1.154-.014,0-.009.018-.022.022l0,.013c-1.141,2.014-2.291,4.09-3.423,6.22-1.032,1.947-2.036,3.93-3,5.956-.656,1.361-1.277,2.74-1.875,4.14-.139.328-.273.669-.421,1.015l-.013,0c-1.009,2.485-1.947,5.05-2.726,7.65-.378,1.31-.726,2.625-1.029,3.939-.073.261-.124.5-.184.757-.38,1.651-.7,3.309-.972,4.967C248.05,401.321,247.739,403.776,247.5,406.22Z" transform="translate(-247.497 -322.838)" fill="#281b14"/>
                      </g>
                    </g>
                  </g>
                  <g id="Grupo_1116144" data-name="Grupo 1116144" transform="translate(32.164 24.372)">
                    <g id="Grupo_1116143" data-name="Grupo 1116143">
                      <path id="Trazado_912652" data-name="Trazado 912652" d="M272.107,364.015a.327.327,0,0,0,.182.121.5.5,0,0,0,.142.012.34.34,0,0,0,.162-.06,63.094,63.094,0,0,1,38.736-11.9c.072-.232.131-.464.188-.71a63.937,63.937,0,0,0-38.556,11.5c-.261.184-.521.368-.768.55A.361.361,0,0,0,272.107,364.015Z" transform="translate(-272.048 -351.446)" fill="#281b14"/>
                    </g>
                  </g>
                  <g id="Grupo_1116146" data-name="Grupo 1116146" transform="translate(38.637 3.245)">
                    <g id="Grupo_1116145" data-name="Grupo 1116145">
                      <path id="Trazado_912653" data-name="Trazado 912653" d="M281.782,345.033a.347.347,0,0,0,.374.323l.014,0a.085.085,0,0,0,.054-.02.342.342,0,0,0,.257-.338l0-.014c-.025-.349-.052-.711-.077-1.06-.527-6.588-.962-13.23-1.3-19.84-.239.125-.466.235-.675.371.351,6.777.791,13.586,1.336,20.328A1.512,1.512,0,0,0,281.782,345.033Z" transform="translate(-280.432 -324.082)" fill="#281b14"/>
                    </g>
                  </g>
                  <g id="Grupo_1116148" data-name="Grupo 1116148" transform="translate(16.366 34.624)">
                    <g id="Grupo_1116147" data-name="Grupo 1116147">
                      <path id="Trazado_912654" data-name="Trazado 912654" d="M254.14,390.808a.312.312,0,0,0,.187.289l.014,0a.281.281,0,0,0,.187.035.615.615,0,0,0,.135-.043,5.247,5.247,0,0,1,.557-.3l.012-.015A85.017,85.017,0,0,1,297.115,379.6c-.011-.224-.038-.459-.05-.7a86.073,86.073,0,0,0-41.389,10.807c-.3.161-.6.32-.9.494l-.014-.124c-.662-7.8-1.465-16.463-2.517-25.354-.224.138-.433.274-.657.412C252.655,374.165,253.455,382.944,254.14,390.808Z" transform="translate(-251.587 -364.724)" fill="#281b14"/>
                    </g>
                  </g>
                  <g id="Grupo_1116150" data-name="Grupo 1116150" transform="translate(1.117 51.858)">
                    <g id="Grupo_1116149" data-name="Grupo 1116149">
                      <path id="Trazado_912655" data-name="Trazado 912655" d="M231.836,388.038l0,.014a72.724,72.724,0,0,0,13.924,20.407.378.378,0,0,0,.122.085.332.332,0,0,0,.171.023.411.411,0,0,0,.2-.093.34.34,0,0,0,0-.492c-.063-.063-.128-.141-.192-.2a71.731,71.731,0,0,1-13.9-20.733C232.042,387.368,231.939,387.7,231.836,388.038Z" transform="translate(-231.836 -387.046)" fill="#281b14"/>
                    </g>
                  </g>
                  <g id="Grupo_1116152" data-name="Grupo 1116152" transform="translate(14.193 66.432)">
                    <g id="Grupo_1116151" data-name="Grupo 1116151">
                      <path id="Trazado_912656" data-name="Trazado 912656" d="M248.917,418.139a.327.327,0,0,0,.246.07.351.351,0,0,0,.238-.139l.037-.046c3.107-4.255,8.471-6.177,13.327-7.495a110.5,110.5,0,0,1,27.9-3.884c.506,0,1.025-.016,1.53-.017.226-.236.455-.458.666-.706-.182.006-.365,0-.547,0-.547.005-1.095.01-1.657.017a111.947,111.947,0,0,0-28.079,3.9c-4.569,1.243-9.6,3.015-12.9,6.773a11.974,11.974,0,0,0-.84,1.035A.351.351,0,0,0,248.917,418.139Z" transform="translate(-248.772 -405.922)" fill="#281b14"/>
                    </g>
                  </g>
                </g>
              </g>
              <g id="Grupo_1119593" data-name="Grupo 1119593" transform="translate(1 11)">
                <path id="Trazado_917557" data-name="Trazado 917557" d="M15,6c2.745,0,5.52-2.006,8.2-1.408C27.015,5.435,30,9.748,30,15A15,15,0,0,1,0,15C0,9.864,2.769,5.61,7.044,4.591,9.186,4.076,12.15,6,15,6Z" transform="translate(33.669 42.436)" fill="#e80715"/>
                <path id="Trazado_917560" data-name="Trazado 917560" d="M45.739,48.8a1.483,1.483,0,0,0-1.316,0c-.587.367-1.772.615-2.192.941s-.792.548-.793.907,0,.771,0,.771a24.016,24.016,0,0,0,2.985-.771,26.682,26.682,0,0,1,2.79-1.3s.714.023,1.233,0,.778-.307,1.191,0,.669-.275,1.686.393a8.617,8.617,0,0,0,3.464.907c.277-.026,1.9.758,1.494,0a5.427,5.427,0,0,0-2.3-1.849c-.5-.135-.5.336-.83,0s-1.6-.006-.885-.549a16.087,16.087,0,0,1,2.523-1.393c.554-.261,2.177-.781,1.494-.851s-1-.091-3.132.448a23.751,23.751,0,0,0-2.8.982c-1.266.358-1.254,1.184-2.324.813s-.859-.645-2.29-.812-2.71-.768-3.945-.58-2.431.127-1.053.58,2.346,1.063,2.639.813,1.208-.577,1.553-.352A4.314,4.314,0,0,1,45.739,48.8Z" transform="translate(0 0.48)" fill="#b4141d"/>
                <path id="Trazado_917558" data-name="Trazado 917558" d="M45.739,48.8a1.483,1.483,0,0,0-1.316,0c-.587.367-1.772.615-2.192.941s-.792.548-.793.907,0,.771,0,.771a24.016,24.016,0,0,0,2.985-.771,26.682,26.682,0,0,1,2.79-1.3s.714.023,1.233,0,.778-.307,1.191,0,.669-.275,1.686.393a8.617,8.617,0,0,0,3.464.907c.277-.026,1.9.758,1.494,0a5.427,5.427,0,0,0-2.3-1.849c-.5-.135-.5.336-.83,0s-1.6-.006-.885-.549a16.087,16.087,0,0,1,2.523-1.393c.554-.261,2.177-.781,1.494-.851s-1-.091-3.132.448a23.751,23.751,0,0,0-2.8.982c-1.266.358-1.254,1.184-2.324.813s-.859-.645-2.29-.812-2.71-.768-3.945-.58-2.431.127-1.053.58,2.346,1.063,2.639.813,1.208-.577,1.553-.352A4.314,4.314,0,0,1,45.739,48.8Z" fill="#9ad354"/>
                <path id="Trazado_917559" data-name="Trazado 917559" d="M50.913,44.579l-.816.93-1.16,2.877c.322.949-1.011,0-1.011,0s1.2-4.376,2.171-4.271S50.913,44.579,50.913,44.579Z" transform="translate(0.36 -0.01)" fill="#481e04"/>
                <path id="Trazado_917561" data-name="Trazado 917561" d="M2.334,0C3.624,0,3.479,1.343,3.479,3s.145,3-1.144,3S0,4.657,0,3,1.045,0,2.334,0Z" transform="translate(37.53 49.295) rotate(30)" fill="#fff" opacity="0.449"/>
              </g>
              <g id="Grupo_1119595" data-name="Grupo 1119595" transform="translate(45 11)">
                <path id="Trazado_917557-2" data-name="Trazado 917557" d="M15,6c2.745,0,5.52-2.006,8.2-1.408C27.015,5.435,30,9.748,30,15A15,15,0,0,1,0,15C0,9.864,2.769,5.61,7.044,4.591,9.186,4.076,12.15,6,15,6Z" transform="translate(33.669 42.436)" fill="#e80715"/>
                <path id="Trazado_917560-2" data-name="Trazado 917560" d="M45.739,48.8a1.483,1.483,0,0,0-1.316,0c-.587.367-1.772.615-2.192.941s-.792.548-.793.907,0,.771,0,.771a24.016,24.016,0,0,0,2.985-.771,26.682,26.682,0,0,1,2.79-1.3s.714.023,1.233,0,.778-.307,1.191,0,.669-.275,1.686.393a8.617,8.617,0,0,0,3.464.907c.277-.026,1.9.758,1.494,0a5.427,5.427,0,0,0-2.3-1.849c-.5-.135-.5.336-.83,0s-1.6-.006-.885-.549a16.087,16.087,0,0,1,2.523-1.393c.554-.261,2.177-.781,1.494-.851s-1-.091-3.132.448a23.751,23.751,0,0,0-2.8.982c-1.266.358-1.254,1.184-2.324.813s-.859-.645-2.29-.812-2.71-.768-3.945-.58-2.431.127-1.053.58,2.346,1.063,2.639.813,1.208-.577,1.553-.352A4.314,4.314,0,0,1,45.739,48.8Z" transform="translate(0 0.48)" fill="#b4141d"/>
                <path id="Trazado_917558-2" data-name="Trazado 917558" d="M45.739,48.8a1.483,1.483,0,0,0-1.316,0c-.587.367-1.772.615-2.192.941s-.792.548-.793.907,0,.771,0,.771a24.016,24.016,0,0,0,2.985-.771,26.682,26.682,0,0,1,2.79-1.3s.714.023,1.233,0,.778-.307,1.191,0,.669-.275,1.686.393a8.617,8.617,0,0,0,3.464.907c.277-.026,1.9.758,1.494,0a5.427,5.427,0,0,0-2.3-1.849c-.5-.135-.5.336-.83,0s-1.6-.006-.885-.549a16.087,16.087,0,0,1,2.523-1.393c.554-.261,2.177-.781,1.494-.851s-1-.091-3.132.448a23.751,23.751,0,0,0-2.8.982c-1.266.358-1.254,1.184-2.324.813s-.859-.645-2.29-.812-2.71-.768-3.945-.58-2.431.127-1.053.58,2.346,1.063,2.639.813,1.208-.577,1.553-.352A4.314,4.314,0,0,1,45.739,48.8Z" fill="#9ad354"/>
                <path id="Trazado_917559-2" data-name="Trazado 917559" d="M50.913,44.579l-.816.93-1.16,2.877c.322.949-1.011,0-1.011,0s1.2-4.376,2.171-4.271S50.913,44.579,50.913,44.579Z" transform="translate(0.36 -0.01)" fill="#481e04"/>
                <path id="Trazado_917561-2" data-name="Trazado 917561" d="M2.334,0C3.624,0,3.479,1.343,3.479,3s.145,3-1.144,3S0,4.657,0,3,1.045,0,2.334,0Z" transform="translate(37.53 49.295) rotate(30)" fill="#fff" opacity="0.449"/>
              </g>
              <g id="Grupo_1119597" data-name="Grupo 1119597" transform="translate(92 12)">
                <path id="Trazado_917557-3" data-name="Trazado 917557" d="M15,6c2.745,0,5.52-2.006,8.2-1.408C27.015,5.435,30,9.748,30,15A15,15,0,0,1,0,15C0,9.864,2.769,5.61,7.044,4.591,9.186,4.076,12.15,6,15,6Z" transform="translate(33.669 42.436)" fill="#e80715"/>
                <path id="Trazado_917560-3" data-name="Trazado 917560" d="M45.739,48.8a1.483,1.483,0,0,0-1.316,0c-.587.367-1.772.615-2.192.941s-.792.548-.793.907,0,.771,0,.771a24.016,24.016,0,0,0,2.985-.771,26.682,26.682,0,0,1,2.79-1.3s.714.023,1.233,0,.778-.307,1.191,0,.669-.275,1.686.393a8.617,8.617,0,0,0,3.464.907c.277-.026,1.9.758,1.494,0a5.427,5.427,0,0,0-2.3-1.849c-.5-.135-.5.336-.83,0s-1.6-.006-.885-.549a16.087,16.087,0,0,1,2.523-1.393c.554-.261,2.177-.781,1.494-.851s-1-.091-3.132.448a23.751,23.751,0,0,0-2.8.982c-1.266.358-1.254,1.184-2.324.813s-.859-.645-2.29-.812-2.71-.768-3.945-.58-2.431.127-1.053.58,2.346,1.063,2.639.813,1.208-.577,1.553-.352A4.314,4.314,0,0,1,45.739,48.8Z" transform="translate(0 0.48)" fill="#b4141d"/>
                <path id="Trazado_917558-3" data-name="Trazado 917558" d="M45.739,48.8a1.483,1.483,0,0,0-1.316,0c-.587.367-1.772.615-2.192.941s-.792.548-.793.907,0,.771,0,.771a24.016,24.016,0,0,0,2.985-.771,26.682,26.682,0,0,1,2.79-1.3s.714.023,1.233,0,.778-.307,1.191,0,.669-.275,1.686.393a8.617,8.617,0,0,0,3.464.907c.277-.026,1.9.758,1.494,0a5.427,5.427,0,0,0-2.3-1.849c-.5-.135-.5.336-.83,0s-1.6-.006-.885-.549a16.087,16.087,0,0,1,2.523-1.393c.554-.261,2.177-.781,1.494-.851s-1-.091-3.132.448a23.751,23.751,0,0,0-2.8.982c-1.266.358-1.254,1.184-2.324.813s-.859-.645-2.29-.812-2.71-.768-3.945-.58-2.431.127-1.053.58,2.346,1.063,2.639.813,1.208-.577,1.553-.352A4.314,4.314,0,0,1,45.739,48.8Z" fill="#9ad354"/>
                <path id="Trazado_917559-3" data-name="Trazado 917559" d="M50.913,44.579l-.816.93-1.16,2.877c.322.949-1.011,0-1.011,0s1.2-4.376,2.171-4.271S50.913,44.579,50.913,44.579Z" transform="translate(0.36 -0.01)" fill="#481e04"/>
                <path id="Trazado_917561-3" data-name="Trazado 917561" d="M2.334,0C3.624,0,3.479,1.343,3.479,3s.145,3-1.144,3S0,4.657,0,3,1.045,0,2.334,0Z" transform="translate(37.53 49.295) rotate(30)" fill="#fff" opacity="0.449"/>
              </g>
              <g id="Grupo_1119594" data-name="Grupo 1119594" transform="translate(22 17)">
                <path id="Trazado_917557-4" data-name="Trazado 917557" d="M15,6c2.745,0,5.52-2.006,8.2-1.408C27.015,5.435,30,9.748,30,15A15,15,0,0,1,0,15C0,9.864,2.769,5.61,7.044,4.591,9.186,4.076,12.15,6,15,6Z" transform="translate(33.669 42.436)" fill="#fc0d1b"/>
                <path id="Trazado_917560-4" data-name="Trazado 917560" d="M45.739,48.8a1.483,1.483,0,0,0-1.316,0c-.587.367-1.772.615-2.192.941s-.792.548-.793.907,0,.771,0,.771a24.016,24.016,0,0,0,2.985-.771,26.682,26.682,0,0,1,2.79-1.3s.714.023,1.233,0,.778-.307,1.191,0,.669-.275,1.686.393a8.617,8.617,0,0,0,3.464.907c.277-.026,1.9.758,1.494,0a5.427,5.427,0,0,0-2.3-1.849c-.5-.135-.5.336-.83,0s-1.6-.006-.885-.549a16.087,16.087,0,0,1,2.523-1.393c.554-.261,2.177-.781,1.494-.851s-1-.091-3.132.448a23.751,23.751,0,0,0-2.8.982c-1.266.358-1.254,1.184-2.324.813s-.859-.645-2.29-.812-2.71-.768-3.945-.58-2.431.127-1.053.58,2.346,1.063,2.639.813,1.208-.577,1.553-.352A4.314,4.314,0,0,1,45.739,48.8Z" transform="translate(0 0.48)" fill="#b4141d"/>
                <path id="Trazado_917558-4" data-name="Trazado 917558" d="M45.739,48.8a1.483,1.483,0,0,0-1.316,0c-.587.367-1.772.615-2.192.941s-.792.548-.793.907,0,.771,0,.771a24.016,24.016,0,0,0,2.985-.771,26.682,26.682,0,0,1,2.79-1.3s.714.023,1.233,0,.778-.307,1.191,0,.669-.275,1.686.393a8.617,8.617,0,0,0,3.464.907c.277-.026,1.9.758,1.494,0a5.427,5.427,0,0,0-2.3-1.849c-.5-.135-.5.336-.83,0s-1.6-.006-.885-.549a16.087,16.087,0,0,1,2.523-1.393c.554-.261,2.177-.781,1.494-.851s-1-.091-3.132.448a23.751,23.751,0,0,0-2.8.982c-1.266.358-1.254,1.184-2.324.813s-.859-.645-2.29-.812-2.71-.768-3.945-.58-2.431.127-1.053.58,2.346,1.063,2.639.813,1.208-.577,1.553-.352A4.314,4.314,0,0,1,45.739,48.8Z" fill="#9ad354"/>
                <path id="Trazado_917559-4" data-name="Trazado 917559" d="M50.913,44.579l-.816.93-1.16,2.877c.322.949-1.011,0-1.011,0s1.2-4.376,2.171-4.271S50.913,44.579,50.913,44.579Z" transform="translate(0.36 -0.01)" fill="#481e04"/>
                <path id="Trazado_917561-4" data-name="Trazado 917561" d="M2.334,0C3.624,0,3.479,1.343,3.479,3s.145,3-1.144,3S0,4.657,0,3,1.045,0,2.334,0Z" transform="translate(37.53 49.295) rotate(30)" fill="#fff" opacity="0.449"/>
              </g>
              <g id="Grupo_1119596" data-name="Grupo 1119596" transform="translate(66 17)">
                <path id="Trazado_917557-5" data-name="Trazado 917557" d="M15,6c2.745,0,5.52-2.006,8.2-1.408C27.015,5.435,30,9.748,30,15A15,15,0,0,1,0,15C0,9.864,2.769,5.61,7.044,4.591,9.186,4.076,12.15,6,15,6Z" transform="translate(33.669 42.436)" fill="#fc0d1b"/>
                <path id="Trazado_917560-5" data-name="Trazado 917560" d="M45.739,48.8a1.483,1.483,0,0,0-1.316,0c-.587.367-1.772.615-2.192.941s-.792.548-.793.907,0,.771,0,.771a24.016,24.016,0,0,0,2.985-.771,26.682,26.682,0,0,1,2.79-1.3s.714.023,1.233,0,.778-.307,1.191,0,.669-.275,1.686.393a8.617,8.617,0,0,0,3.464.907c.277-.026,1.9.758,1.494,0a5.427,5.427,0,0,0-2.3-1.849c-.5-.135-.5.336-.83,0s-1.6-.006-.885-.549a16.087,16.087,0,0,1,2.523-1.393c.554-.261,2.177-.781,1.494-.851s-1-.091-3.132.448a23.751,23.751,0,0,0-2.8.982c-1.266.358-1.254,1.184-2.324.813s-.859-.645-2.29-.812-2.71-.768-3.945-.58-2.431.127-1.053.58,2.346,1.063,2.639.813,1.208-.577,1.553-.352A4.314,4.314,0,0,1,45.739,48.8Z" transform="translate(0 0.48)" fill="#b4141d"/>
                <path id="Trazado_917558-5" data-name="Trazado 917558" d="M45.739,48.8a1.483,1.483,0,0,0-1.316,0c-.587.367-1.772.615-2.192.941s-.792.548-.793.907,0,.771,0,.771a24.016,24.016,0,0,0,2.985-.771,26.682,26.682,0,0,1,2.79-1.3s.714.023,1.233,0,.778-.307,1.191,0,.669-.275,1.686.393a8.617,8.617,0,0,0,3.464.907c.277-.026,1.9.758,1.494,0a5.427,5.427,0,0,0-2.3-1.849c-.5-.135-.5.336-.83,0s-1.6-.006-.885-.549a16.087,16.087,0,0,1,2.523-1.393c.554-.261,2.177-.781,1.494-.851s-1-.091-3.132.448a23.751,23.751,0,0,0-2.8.982c-1.266.358-1.254,1.184-2.324.813s-.859-.645-2.29-.812-2.71-.768-3.945-.58-2.431.127-1.053.58,2.346,1.063,2.639.813,1.208-.577,1.553-.352A4.314,4.314,0,0,1,45.739,48.8Z" fill="#9ad354"/>
                <path id="Trazado_917559-5" data-name="Trazado 917559" d="M50.913,44.579l-.816.93-1.16,2.877c.322.949-1.011,0-1.011,0s1.2-4.376,2.171-4.271S50.913,44.579,50.913,44.579Z" transform="translate(0.36 -0.01)" fill="#481e04"/>
                <path id="Trazado_917561-5" data-name="Trazado 917561" d="M2.334,0C3.624,0,3.479,1.343,3.479,3s.145,3-1.144,3S0,4.657,0,3,1.045,0,2.334,0Z" transform="translate(37.53 49.295) rotate(30)" fill="#fff" opacity="0.449"/>
              </g>
              <g id="Grupo_1119598" data-name="Grupo 1119598" transform="translate(109 17)">
                <path id="Trazado_917557-6" data-name="Trazado 917557" d="M15,6c2.745,0,5.52-2.006,8.2-1.408C27.015,5.435,30,9.748,30,15A15,15,0,0,1,0,15C0,9.864,2.769,5.61,7.044,4.591,9.186,4.076,12.15,6,15,6Z" transform="translate(33.669 42.436)" fill="#fc0d1b"/>
                <path id="Trazado_917560-6" data-name="Trazado 917560" d="M45.739,48.8a1.483,1.483,0,0,0-1.316,0c-.587.367-1.772.615-2.192.941s-.792.548-.793.907,0,.771,0,.771a24.016,24.016,0,0,0,2.985-.771,26.682,26.682,0,0,1,2.79-1.3s.714.023,1.233,0,.778-.307,1.191,0,.669-.275,1.686.393a8.617,8.617,0,0,0,3.464.907c.277-.026,1.9.758,1.494,0a5.427,5.427,0,0,0-2.3-1.849c-.5-.135-.5.336-.83,0s-1.6-.006-.885-.549a16.087,16.087,0,0,1,2.523-1.393c.554-.261,2.177-.781,1.494-.851s-1-.091-3.132.448a23.751,23.751,0,0,0-2.8.982c-1.266.358-1.254,1.184-2.324.813s-.859-.645-2.29-.812-2.71-.768-3.945-.58-2.431.127-1.053.58,2.346,1.063,2.639.813,1.208-.577,1.553-.352A4.314,4.314,0,0,1,45.739,48.8Z" transform="translate(0 0.48)" fill="#b4141d"/>
                <path id="Trazado_917558-6" data-name="Trazado 917558" d="M45.739,48.8a1.483,1.483,0,0,0-1.316,0c-.587.367-1.772.615-2.192.941s-.792.548-.793.907,0,.771,0,.771a24.016,24.016,0,0,0,2.985-.771,26.682,26.682,0,0,1,2.79-1.3s.714.023,1.233,0,.778-.307,1.191,0,.669-.275,1.686.393a8.617,8.617,0,0,0,3.464.907c.277-.026,1.9.758,1.494,0a5.427,5.427,0,0,0-2.3-1.849c-.5-.135-.5.336-.83,0s-1.6-.006-.885-.549a16.087,16.087,0,0,1,2.523-1.393c.554-.261,2.177-.781,1.494-.851s-1-.091-3.132.448a23.751,23.751,0,0,0-2.8.982c-1.266.358-1.254,1.184-2.324.813s-.859-.645-2.29-.812-2.71-.768-3.945-.58-2.431.127-1.053.58,2.346,1.063,2.639.813,1.208-.577,1.553-.352A4.314,4.314,0,0,1,45.739,48.8Z" fill="#9ad354"/>
                <path id="Trazado_917559-6" data-name="Trazado 917559" d="M50.913,44.579l-.816.93-1.16,2.877c.322.949-1.011,0-1.011,0s1.2-4.376,2.171-4.271S50.913,44.579,50.913,44.579Z" transform="translate(0.36 -0.01)" fill="#481e04"/>
                <path id="Trazado_917561-6" data-name="Trazado 917561" d="M2.334,0C3.624,0,3.479,1.343,3.479,3s.145,3-1.144,3S0,4.657,0,3,1.045,0,2.334,0Z" transform="translate(37.53 49.295) rotate(30)" fill="#fff" opacity="0.449"/>
              </g>
            </g>
            <g id="Grupo_1116260" data-name="Grupo 1116260" transform="translate(146.097 8.686)">
              <g id="Grupo_1116253" data-name="Grupo 1116253" transform="translate(0)">
                <path id="Trazado_912702" data-name="Trazado 912702" d="M248.49,119.131c0-.919.061-1.821.137-2.72v-.024h0a31.807,31.807,0,1,1,62.392,10.967c-.779,5.483-4.237,32.923-4.237,32.923s-25.238,1.921-39.914,1.372c-6.115-.229-10.254-2.077-13-4.155a13.018,13.018,0,0,1-5-10.321l-.194-24.652A32.185,32.185,0,0,1,248.49,119.131Z" transform="translate(-248.49 -87.309)" fill="#f08c7b"/>
              </g>
              <g id="Grupo_1116254" data-name="Grupo 1116254" transform="translate(16.667 58.705)">
                <path id="Trazado_912703" data-name="Trazado 912703" d="M271.657,169.789v24.819s-7.683,14.46,10.83,19.34,31.137-17.68,31.137-17.68l-.144-32.926Z" transform="translate(-270.077 -163.343)" fill="#f08c7b"/>
              </g>
              <g id="Grupo_1116255" data-name="Grupo 1116255" transform="translate(50.839 41.889)">
                <path id="Trazado_912704" data-name="Trazado 912704" d="M327.192,141.707a10.056,10.056,0,0,1,7.986,7.26,9.789,9.789,0,0,1-3.664,10.113c-2.513,1.8-5.725,2.252-8.8,2.522-1.99.174-4.177.241-5.774-.96a6.132,6.132,0,0,1-2-3.078C312.37,149.648,318.3,140.284,327.192,141.707Z" transform="translate(-314.336 -141.563)" fill="#f08c7b"/>
              </g>
              <g id="Grupo_1116256" data-name="Grupo 1116256" transform="translate(18.247 74.064)">
                <path id="Trazado_912705" data-name="Trazado 912705" d="M272.124,184.654v9.3L301.6,183.235l-29.348.274Z" transform="translate(-272.124 -183.235)" fill="#281b14"/>
              </g>
              <g id="Grupo_1116259" data-name="Grupo 1116259" transform="translate(4.389 36.073)">
                <g id="Grupo_1116257" data-name="Grupo 1116257" transform="translate(25.923)">
                  <path id="Trazado_912706" data-name="Trazado 912706" d="M287.75,137.254a3.223,3.223,0,1,0,3.223-3.223A3.224,3.224,0,0,0,287.75,137.254Z" transform="translate(-287.75 -134.031)" fill="#281b14"/>
                </g>
                <g id="Grupo_1116258" data-name="Grupo 1116258">
                  <path id="Trazado_912707" data-name="Trazado 912707" d="M254.175,137.254a3.223,3.223,0,1,0,3.223-3.223A3.223,3.223,0,0,0,254.175,137.254Z" transform="translate(-254.175 -134.031)" fill="#281b14"/>
                </g>
              </g>
            </g>
            <g id="Grupo_1116261" data-name="Grupo 1116261" transform="translate(187.922 12.23)">
              <path id="Trazado_912708" data-name="Trazado 912708" d="M314.438,91.924c-3.8.115-6.291,4.2-8.094,7.539a28.549,28.549,0,0,0-3.68,13.9,19.511,19.511,0,0,0,5.185,13.217,33.339,33.339,0,0,0,5.286,4.145l3.219,8.1,6.431-8.376s5.235-.15,7.927,3.739c0,0,4.935-13.162,3.888-25.724S327.48,91.529,314.438,91.924Z" transform="translate(-302.66 -91.9)" fill="#281b14"/>
            </g>
            <g id="Grupo_1116262" data-name="Grupo 1116262" transform="translate(140.893)">
              <path id="Trazado_912709" data-name="Trazado 912709" d="M300.078,93.046a15.568,15.568,0,0,0-15.255,9.572H241.749s2.842-21.088,23.183-25.426,37.838,4.636,41.278,12.414Z" transform="translate(-241.749 -76.059)" fill="#281b14"/>
            </g>
            <g id="Grupo_1116265" data-name="Grupo 1116265" transform="translate(161.256 44.449)">
              <g id="Grupo_1116263" data-name="Grupo 1116263" transform="translate(0 0)">
                <path id="Trazado_912710" data-name="Trazado 912710" d="M271.523,148.464a2.716,2.716,0,0,1-.443-.036A3.313,3.313,0,0,1,268.907,147a6.754,6.754,0,0,1-.783-3.824,48.412,48.412,0,0,1,.624-7.632l.182-1.319a.683.683,0,0,1,.778-.591.692.692,0,0,1,.591.777l-.183,1.323a46.805,46.805,0,0,0-.611,7.453,5.557,5.557,0,0,0,.561,3.061,1.911,1.911,0,0,0,1.237.813,1.008,1.008,0,0,0,.809-.172.691.691,0,1,1,.858,1.083A2.308,2.308,0,0,1,271.523,148.464Z" transform="translate(-268.124 -133.629)" fill="#281b14"/>
              </g>
              <g id="Grupo_1116264" data-name="Grupo 1116264" transform="translate(1.977 15.645)">
                <path id="Trazado_912711" data-name="Trazado 912711" d="M274.082,158.925a5.583,5.583,0,0,1-3.091-.924.691.691,0,0,1,.769-1.148,4.143,4.143,0,0,0,6.323-2.438.691.691,0,0,1,1.34.337,5.61,5.61,0,0,1-3.372,3.813A5.5,5.5,0,0,1,274.082,158.925Z" transform="translate(-270.684 -153.893)" fill="#281b14"/>
              </g>
            </g>
            <g id="Grupo_1116268" data-name="Grupo 1116268" transform="translate(148.132 37.345)">
              <g id="Grupo_1116266" data-name="Grupo 1116266" transform="translate(26.781)">
                <path id="Trazado_912712" data-name="Trazado 912712" d="M293.93,128.372a.686.686,0,0,1-.566-.295,5.323,5.323,0,0,0-6.573-1.785.691.691,0,1,1-.575-1.256,6.7,6.7,0,0,1,8.279,2.249.69.69,0,0,1-.169.961A.681.681,0,0,1,293.93,128.372Z" transform="translate(-285.812 -124.428)" fill="#281b14"/>
              </g>
              <g id="Grupo_1116267" data-name="Grupo 1116267" transform="translate(0 0.004)">
                <path id="Trazado_912713" data-name="Trazado 912713" d="M251.815,128.307a.68.68,0,0,1-.372-.11.69.69,0,0,1-.208-.954,6.132,6.132,0,0,1,3.511-2.5,9.369,9.369,0,0,1,4.179-.141.691.691,0,0,1,.564.8.7.7,0,0,1-.8.564,7.983,7.983,0,0,0-3.565.107,4.824,4.824,0,0,0-2.729,1.92A.688.688,0,0,1,251.815,128.307Z" transform="translate(-251.125 -124.433)" fill="#281b14"/>
              </g>
            </g>
            <g id="Grupo_1116274" data-name="Grupo 1116274" transform="translate(4.268 256.591)">
              <g id="Grupo_1116269" data-name="Grupo 1116269" transform="translate(0.829)">
                <path id="Trazado_912714" data-name="Trazado 912714" d="M286.016,408.394l4.188,68.29H65.868v-68.29Z" transform="translate(-65.868 -408.394)" fill="#6e3121"/>
              </g>
              <g id="Grupo_1116270" data-name="Grupo 1116270" transform="translate(196.457)">
                <rect id="Rectángulo_405105" data-name="Rectángulo 405105" width="48.45" height="68.29" fill="#281b14"/>
              </g>
              <g id="Grupo_1116273" data-name="Grupo 1116273" transform="translate(0 19.508)">
                <g id="Grupo_1116271" data-name="Grupo 1116271">
                  <path id="Trazado_912715" data-name="Trazado 912715" d="M297.458,437.7h-.008L65.46,435.01a.674.674,0,0,1,.008-1.349h.008l231.99,2.691a.674.674,0,0,1-.008,1.349Z" transform="translate(-64.794 -433.661)" fill="#281b14"/>
                </g>
                <g id="Grupo_1116272" data-name="Grupo 1116272" transform="translate(0.427 26.92)">
                  <path id="Trazado_912716" data-name="Trazado 912716" d="M298.012,470.325h0l-231.99-.449a.674.674,0,0,1,0-1.349h0l231.99.449a.674.674,0,0,1,0,1.349Z" transform="translate(-65.347 -468.528)" fill="#281b14"/>
                </g>
              </g>
            </g>
            <g id="Grupo_1116281" data-name="Grupo 1116281" transform="translate(156.516 246.862)">
              <g id="Grupo_1116279" data-name="Grupo 1116279">
                <g id="Grupo_1116275" data-name="Grupo 1116275">
                  <path id="Trazado_912717" data-name="Trazado 912717" d="M297.959,395.792s-3.888,3.141-13.161,10.32c-8.545,6.614-24.071,20.793-22.733,22.434s23.911-11.077,23.911-11.077a38.061,38.061,0,0,1-8.385,12.786c-5.568,5.213-14.113,10.123-13.843,12.112s9.512-.789,9.512-.789-4.637,3.871-1.384,5.453,9.878-2.56,9.878-2.56-3.86,4.373-2.021,5.236,6.876-2.793,16.991-8.827S320.843,425.4,320.843,425.4Z" transform="translate(-261.984 -395.792)" fill="#f08c7b"/>
                </g>
                <g id="Grupo_1116276" data-name="Grupo 1116276" transform="translate(26.204 26.135)">
                  <path id="Trazado_912718" data-name="Trazado 912718" d="M306.63,444.786s-11.554,10.768-10.656,12.563,30.4-22.77,30.4-22.77l-3.926-4.936-15.368,14.7Z" transform="translate(-295.924 -429.642)" fill="#f08c7b"/>
                </g>
                <g id="Grupo_1116277" data-name="Grupo 1116277" transform="translate(1.061 17.374)">
                  <path id="Trazado_912719" data-name="Trazado 912719" d="M266.919,449.444a5.967,5.967,0,0,1-2.193-.344,1.975,1.975,0,0,1-1.343-1.483c-.275-1.517,1.78-3.056,6.079-6.118,3.141-2.238,7.051-5.022,9.484-7.922,4.906-5.845,7.649-14.705,7.677-14.794a.691.691,0,0,1,1.321.4c-.113.374-2.854,9.219-7.939,15.28-2.547,3.033-6.535,5.875-9.741,8.159-2.25,1.6-5.652,4.025-5.521,4.747.032.175.2.326.5.449,1.963.8,7.246-.315,10.865-2.893,3.755-2.678,11.571-8.249,14.831-13.988a.691.691,0,1,1,1.2.683c-3.411,6-11.394,11.695-15.231,14.43A18.8,18.8,0,0,1,266.919,449.444Z" transform="translate(-263.358 -418.294)" fill="#281b14"/>
                </g>
                <g id="Grupo_1116278" data-name="Grupo 1116278" transform="translate(8.261 34.009)">
                  <path id="Trazado_912720" data-name="Trazado 912720" d="M276.7,458.417a5.345,5.345,0,0,1-2.735-.749,2.379,2.379,0,0,1-1.266-1.778c-.237-1.807,1.641-3.744,1.855-3.959a.691.691,0,0,1,.977.977c-.42.422-1.59,1.842-1.463,2.8a1,1,0,0,0,.588.761c2.442,1.411,5.285.29,11.708-4.6a155.267,155.267,0,0,0,13.352-11.824.691.691,0,1,1,.981.974,157.1,157.1,0,0,1-13.5,11.95C282.672,456.422,279.45,458.417,276.7,458.417Z" transform="translate(-272.683 -439.84)" fill="#281b14"/>
                </g>
              </g>
              <g id="Grupo_1116280" data-name="Grupo 1116280" transform="translate(16.562 36.213)">
                <path id="Trazado_912721" data-name="Trazado 912721" d="M285.463,461.315a2,2,0,0,1-1.266-.375,1.955,1.955,0,0,1-.756-1.43c-.142-1.917,2.189-4.43,2.455-4.711a.691.691,0,0,1,1,.952c-.842.889-2.153,2.668-2.079,3.657a.567.567,0,0,0,.229.442c.656.517,4.37-.486,13.706-7.92a88.812,88.812,0,0,0,9.787-9.006.691.691,0,0,1,1.03.921,90.257,90.257,0,0,1-9.956,9.166C292.681,458.534,287.937,461.315,285.463,461.315Z" transform="translate(-283.435 -442.695)" fill="#281b14"/>
              </g>
            </g>
            <g id="Grupo_1116282" data-name="Grupo 1116282" transform="translate(185.761 161.013)">
              <path id="Trazado_912722" data-name="Trazado 912722" d="M377.036,284.6a212.416,212.416,0,0,1-1.8,63.265c-6.282,33.2-46.214,59.226-46.214,59.226l-29.165-33.651s33.2-20.191,35.447-61.918Z" transform="translate(-299.862 -284.602)" fill="#625970"/>
            </g>
            <g id="Grupo_1116283" data-name="Grupo 1116283" transform="translate(185.07 157.182)">
              <path id="Trazado_912723" data-name="Trazado 912723" d="M299.66,373a.691.691,0,0,1-.375-1.272c.2-.127,19.667-12.8,27.269-28.879,7.635-16.152,11.86-62.121,11.9-62.581a.691.691,0,1,1,1.377.123c-.172,1.9-4.289,46.674-12.028,63.049-7.773,16.441-27.571,29.322-27.77,29.45A.685.685,0,0,1,299.66,373Z" transform="translate(-298.967 -279.639)" fill="#281b14"/>
            </g>
          </g>
        </g>
      </g>
    </g>
  </g>
</svg>
