<svg xmlns="http://www.w3.org/2000/svg" xmlns:xlink="http://www.w3.org/1999/xlink" width="102.949" height="102.949" viewBox="0 0 102.949 102.949">
  <defs>
    <filter id="Trazado_874925" x="0" y="0" width="102.949" height="102.949" filterUnits="userSpaceOnUse">
      <feOffset dy="3" input="SourceAlpha"/>
      <feGaussianBlur stdDeviation="3" result="blur"/>
      <feFlood flood-opacity="0.161"/>
      <feComposite operator="in" in2="blur"/>
      <feComposite in="SourceGraphic"/>
    </filter>
  </defs>
  <g id="Grupo_1116306" data-name="Grupo 1116306" transform="translate(-591.051 -4431.335)">
    <g id="Grupo_1111316" data-name="Grupo 1111316" transform="translate(600.051 4437.335)">
      <g id="Grupo_1109835" data-name="Grupo 1109835" transform="translate(0 0)">
        <g id="Grupo_1107913" data-name="Grupo 1107913" transform="translate(0 0)">
          <g transform="matrix(1, 0, 0, 1, -9, -6)" filter="url(#Trazado_874925)">
            <g id="Trazado_874925-2" data-name="Trazado 874925" transform="translate(9 6)" fill="#fc0" opacity="0.859">
              <path d="M 42.47446823120117 83.44929504394531 C 36.94229125976562 83.44929504394531 31.57638549804688 82.36614227294922 26.52582168579102 80.22994232177734 C 21.64678573608398 78.16628265380859 17.26464462280273 75.211669921875 13.50113868713379 71.44816589355469 C 9.737632751464844 67.68466949462891 6.78300952911377 63.30253982543945 4.719362258911133 58.42351913452148 C 2.583150625228882 53.37295150756836 1.499997615814209 48.00706100463867 1.499997615814209 42.47489547729492 C 1.499997615814209 36.94223403930664 2.583150625228882 31.57634162902832 4.719362258911133 26.52577781677246 C 6.78300952911377 21.64675331115723 9.737632751464844 17.26462364196777 13.50113868713379 13.50113010406494 C 17.26464462280273 9.737624168395996 21.64678573608398 6.783012390136719 26.52582168579102 4.719353199005127 C 31.57638549804688 2.583153486251831 36.94229125976562 1.500000476837158 42.47446823120117 1.500000476837158 C 48.00664520263672 1.500000476837158 53.37255096435547 2.583153486251831 58.42311477661133 4.719353199005127 C 63.30215072631836 6.783012390136719 67.68428802490234 9.737624168395996 71.44779968261719 13.50113010406494 C 75.2113037109375 17.26462364196777 78.16592407226562 21.64675331115723 80.22957611083984 26.52577781677246 C 82.36578369140625 31.57634162902832 83.44893646240234 36.94223403930664 83.44893646240234 42.47439956665039 C 83.44893646240234 48.00706100463867 82.36578369140625 53.37295150756836 80.22957611083984 58.42351913452148 C 78.16592407226562 63.30253982543945 75.2113037109375 67.68466949462891 71.44779968261719 71.44816589355469 C 67.68428802490234 75.211669921875 63.30215072631836 78.16628265380859 58.42311477661133 80.22994232177734 C 53.37255096435547 82.36614227294922 48.00664520263672 83.44929504394531 42.47446823120117 83.44929504394531 Z" stroke="none"/>
              <path d="M 42.47446823120117 2.999992370605469 C 37.14412307739258 2.999992370605469 31.97481536865234 4.04327392578125 27.11014938354492 6.100860595703125 C 22.40990829467773 8.088890075683594 18.18804168701172 10.93555450439453 14.56179809570312 14.56178283691406 C 10.93557739257812 18.18801116943359 8.088897705078125 22.40987396240234 6.100868225097656 27.11009979248047 C 4.043281555175781 31.97476577758789 3 37.14406204223633 3 42.47488784790039 C 3 47.80522155761719 4.043281555175781 52.97451400756836 6.100868225097656 57.83917999267578 C 8.088897705078125 62.53940582275391 10.93557739257812 66.76127624511719 14.56179809570312 70.38749694824219 C 18.18804168701172 74.01372528076172 22.40990829467773 76.86039733886719 27.11014938354492 78.84841918945312 C 31.97481536865234 80.906005859375 37.14412307739258 81.94928741455078 42.47446823120117 81.94928741455078 C 47.80481338500977 81.94928741455078 52.97412109375 80.906005859375 57.83879089355469 78.84841918945312 C 62.53902816772461 76.86039733886719 66.76089477539062 74.01372528076172 70.38713073730469 70.38749694824219 C 74.01335906982422 66.76127624511719 76.86003875732422 62.53940582275391 78.84806823730469 57.83917999267578 C 80.90565490722656 52.97451400756836 81.94893646240234 47.80522155761719 81.94893646240234 42.47439575195312 C 81.94893646240234 37.14406204223633 80.90565490722656 31.97476577758789 78.84806823730469 27.11009979248047 C 76.86003875732422 22.40987396240234 74.01335906982422 18.18801116943359 70.38713073730469 14.56178283691406 C 66.76089477539062 10.93555450439453 62.53902816772461 8.088890075683594 57.83879089355469 6.100860595703125 C 52.97412109375 4.04327392578125 47.80481338500977 2.999992370605469 42.47446823120117 2.999992370605469 M 42.47446823120117 -7.62939453125e-06 C 65.93246459960938 -7.62939453125e-06 84.94893646240234 19.01643371582031 84.94893646240234 42.47439575195312 L 84.94893646240234 42.47488784790039 C 84.94893646240234 65.93284606933594 65.93246459960938 84.94928741455078 42.47446823120117 84.94928741455078 C 19.01647186279297 84.94928741455078 0 65.93284606933594 0 42.47488784790039 L 0 42.47439575195312 C 0 19.01643371582031 19.01647186279297 -7.62939453125e-06 42.47446823120117 -7.62939453125e-06 Z" stroke="none" fill="#fff"/>
            </g>
          </g>
          <g id="Trazado_874923" data-name="Trazado 874923" transform="translate(0 0)" fill="none">
            <path d="M42.474,0A42.474,42.474,0,0,1,84.949,42.474h0A42.474,42.474,0,0,1,0,42.475H0A42.474,42.474,0,0,1,42.474,0Z" stroke="none"/>
            <path d="M 42.47446823120117 2.999992370605469 C 37.14412307739258 2.999992370605469 31.97481536865234 4.04327392578125 27.11014938354492 6.100860595703125 C 22.40990829467773 8.088890075683594 18.18804168701172 10.93555450439453 14.56179809570312 14.56178283691406 C 10.93557739257812 18.18801116943359 8.088897705078125 22.40987396240234 6.100868225097656 27.11009979248047 C 4.043281555175781 31.97476577758789 3 37.14406204223633 3 42.47488784790039 C 3 47.80522155761719 4.043281555175781 52.97451400756836 6.100868225097656 57.83917999267578 C 8.088897705078125 62.53940582275391 10.93557739257812 66.76127624511719 14.56179809570312 70.38749694824219 C 18.18804168701172 74.01372528076172 22.40990829467773 76.86039733886719 27.11014938354492 78.84841918945312 C 31.97481536865234 80.906005859375 37.14412307739258 81.94928741455078 42.47446823120117 81.94928741455078 C 47.80481338500977 81.94928741455078 52.97412109375 80.906005859375 57.83879089355469 78.84841918945312 C 62.53902816772461 76.86039733886719 66.76089477539062 74.01372528076172 70.38713073730469 70.38749694824219 C 74.01335906982422 66.76127624511719 76.86003875732422 62.53940582275391 78.84806823730469 57.83917999267578 C 80.90565490722656 52.97451400756836 81.94893646240234 47.80522155761719 81.94893646240234 42.47439575195312 C 81.94893646240234 37.14406204223633 80.90565490722656 31.97476577758789 78.84806823730469 27.11009979248047 C 76.86003875732422 22.40987396240234 74.01335906982422 18.18801116943359 70.38713073730469 14.56178283691406 C 66.76089477539062 10.93555450439453 62.53902816772461 8.088890075683594 57.83879089355469 6.100860595703125 C 52.97412109375 4.04327392578125 47.80481338500977 2.999992370605469 42.47446823120117 2.999992370605469 M 42.47446823120117 -7.62939453125e-06 C 65.93246459960938 -7.62939453125e-06 84.94893646240234 19.01643371582031 84.94893646240234 42.47439575195312 L 84.94893646240234 42.47488784790039 C 84.94893646240234 65.93284606933594 65.93246459960938 84.94928741455078 42.47446823120117 84.94928741455078 C 19.01647186279297 84.94928741455078 0 65.93284606933594 0 42.47488784790039 L 0 42.47439575195312 C 0 19.01643371582031 19.01647186279297 -7.62939453125e-06 42.47446823120117 -7.62939453125e-06 Z" stroke="none" fill="#fff"/>
          </g>
        </g>
      </g>
    </g>
    <g id="Grupo_1116305" data-name="Grupo 1116305" transform="translate(607.577 4446.472)">
      <path id="Trazado_912790" data-name="Trazado 912790" d="M358.574,114.678l12.686,16.127,6.9-5.941-11.708-15.208Zm0,0" transform="translate(-309.586 -94.243)" fill="#6289fa"/>
      <path id="Trazado_912791" data-name="Trazado 912791" d="M30.87,114.668,16.942,131.637l-6.9-5.94,12.949-16.04Zm0,0" transform="translate(-8.668 -94.243)" fill="#6289fa"/>
      <path id="Trazado_912792" data-name="Trazado 912792" d="M113.966,162.48,101.28,146.353H91.01l-8.018,2.315-8.5-2.325L60.566,163.312l6.883,9.276-.727.728a3.475,3.475,0,0,0,4.309,5.4l-.006.162a3.475,3.475,0,0,0,4.9,4.931l0,.013a3.476,3.476,0,0,0,4.915,4.916l.666-.666,0,.062a3.475,3.475,0,0,0,4.915,4.915l1.621-1.621a5.339,5.339,0,0,0,.659-.908,3.59,3.59,0,0,1-.659.908l-.009.009L89.35,192.5a3.476,3.476,0,1,0,4.916-4.915l0,0a3.476,3.476,0,0,0,4.915-4.916l.005,0a3.476,3.476,0,0,0,4.915-4.915l0-.005a3.476,3.476,0,0,0,4.916-4.915Zm0,0" transform="translate(-52.292 -125.919)" fill="#fcc89d"/>
      <path id="Trazado_912793" data-name="Trazado 912793" d="M69.664,115.368,57.956,100.16a1.372,1.372,0,0,0-1.823-.32l-7.559,4.807H38.716a1.359,1.359,0,0,0-.377.063l-7.644,2.2-7.931-2.169-7.707-4.9a1.371,1.371,0,0,0-1.8.3L.3,116.175a1.371,1.371,0,0,0,.173,1.9l6.787,5.841,6.089,8.206a4.843,4.843,0,0,0,3.047,8.135,4.878,4.878,0,0,0-.057.741,4.848,4.848,0,0,0,4.847,4.847l.052,0c0,.033,0,.066,0,.1a4.847,4.847,0,0,0,4.847,4.847,4.946,4.946,0,0,0,.757-.059,4.847,4.847,0,0,0,8.249,2.951l.741-.741.311.251a4.845,4.845,0,0,0,8.215-3.56,4.839,4.839,0,0,0,4.92-4.918,4.843,4.843,0,0,0,4.92-4.923,4.845,4.845,0,0,0,4.141-7.485L62.787,123l6.684-5.752A1.371,1.371,0,0,0,69.664,115.368ZM14.618,102.812l5.542,3.524L8.1,121.022l-4.831-4.158ZM15.4,133.95l1.673-1.673c.051-.051.1-.1.159-.144a2.1,2.1,0,0,1,1.143-.464l.036,0c.06,0,.12-.008.18-.007a2.092,2.092,0,0,1,1.5.659A2.156,2.156,0,0,1,20,135.3l-1.622,1.622A2.1,2.1,0,0,1,15.4,133.95Zm4.3,8.537a2.1,2.1,0,0,1,0-2.975l3.243-3.243a2.126,2.126,0,0,1,2.392-.413,2.1,2.1,0,0,1,1.159,2.173,2.22,2.22,0,0,1-.627,1.267l-3.192,3.191a2.1,2.1,0,0,1-2.976,0Zm4.9,4.944a2.1,2.1,0,0,1,0-2.975l3.243-3.243a2.128,2.128,0,0,1,2.543-.334,2.094,2.094,0,0,1,1,2.126,2.223,2.223,0,0,1-.623,1.234l-3.191,3.191a2.1,2.1,0,0,1-2.976,0Zm5.578,4.312a2.106,2.106,0,0,1,0-2.975L31.85,147.1c.051-.051.1-.1.158-.143l0,0a2.1,2.1,0,0,1,.933-.433l.024,0c.059-.011.118-.019.178-.025l.073,0c.049,0,.1-.006.147-.005a2.09,2.09,0,0,1,1.5.659,1.9,1.9,0,0,1,.136.16,2.171,2.171,0,0,1-.237,2.833l-1.613,1.613A2.106,2.106,0,0,1,30.177,151.743Zm25.587-15.307a2.106,2.106,0,0,1-2.975,0,1.252,1.252,0,0,0-.093-.084l-8.819-8.912a1.372,1.372,0,0,0-1.95,1.93l8.915,9.008,0,0a2.1,2.1,0,1,1-2.976,2.976L41.9,135.331a1.372,1.372,0,0,0-1.949,1.93l5.873,5.933a1.306,1.306,0,0,0,.1.107,2.1,2.1,0,1,1-2.976,2.975l-3.255-3.289a1.372,1.372,0,1,0-1.95,1.929l3.164,3.2a1.221,1.221,0,0,0,.1.108,2.1,2.1,0,0,1-2.975,2.976,3.035,3.035,0,0,0-.311-.248c-.09-.068-.113-.116-.068-.225s.113-.21.159-.321.091-.251.13-.379a4.945,4.945,0,0,0,.178-2.11,4.8,4.8,0,0,0-4.089-4.129,4.892,4.892,0,0,0-1.175-4.414,4.811,4.811,0,0,0-3.455-1.516h-.145A4.8,4.8,0,0,0,24.5,132.91a4.934,4.934,0,0,0-1.17.124,4.83,4.83,0,0,0-8.015-2.87l-5.3-7.144L22.7,107.567l4.043,1.106-5.28,9.316a4.848,4.848,0,0,0,1.828,6.607q.106.06.213.114l.017.008a4.877,4.877,0,0,0,.582.244,4.847,4.847,0,0,0,5.8-2.193l3.431-6.054,6.126.434L55.765,133.46A2.107,2.107,0,0,1,55.764,136.436Zm.568-6.287-15.3-15.3a1.214,1.214,0,0,0-.091-.083,1.373,1.373,0,0,0-.782-.315l-7.5-.532a1.394,1.394,0,0,0-1.29.692l-3.857,6.807a2.1,2.1,0,1,1-3.661-2.075L29,110.253l2.087-.6.041-.014,7.788-2.249h9.41l11.747,14.933Zm5.534-9.979L51,106.353l5.544-3.526L66.7,116.013Zm0,0" transform="translate(0 -85.583)"/>
      <path id="Trazado_912794" data-name="Trazado 912794" d="M301.516,40.984a1.368,1.368,0,0,0,.97-.4l9.369-9.369a1.372,1.372,0,0,0-1.94-1.94l-9.369,9.369a1.372,1.372,0,0,0,.97,2.342Zm0,0" transform="translate(-259.139 -24.495)"/>
      <path id="Trazado_912795" data-name="Trazado 912795" d="M132.966,40.582a1.372,1.372,0,0,0,1.94-1.94l-9.369-9.369a1.372,1.372,0,0,0-1.94,1.94Zm0,0" transform="translate(-106.365 -24.495)"/>
      <path id="Trazado_912796" data-name="Trazado 912796" d="M247.332,51.2a1.372,1.372,0,0,0,1.372-1.372V42.071a1.372,1.372,0,1,0-2.743,0v7.754A1.372,1.372,0,0,0,247.332,51.2Zm0,0" transform="translate(-212.358 -34.707)"/>
      <path id="Trazado_912797" data-name="Trazado 912797" d="M246.089,2.392a1.371,1.371,0,1,0,2.1-1.613,1.371,1.371,0,0,0-2.1,1.613Zm0,0" transform="translate(-212.38)"/>
    </g>
  </g>
</svg>
