<svg xmlns="http://www.w3.org/2000/svg" xmlns:xlink="http://www.w3.org/1999/xlink" width="102.949" height="102.949" viewBox="0 0 102.949 102.949">
  <defs>
    <filter id="Trazado_874925" x="0" y="0" width="102.949" height="102.949" filterUnits="userSpaceOnUse">
      <feOffset dy="3" input="SourceAlpha"/>
      <feGaussianBlur stdDeviation="3" result="blur"/>
      <feFlood flood-opacity="0.161"/>
      <feComposite operator="in" in2="blur"/>
      <feComposite in="SourceGraphic"/>
    </filter>
  </defs>
  <g id="Grupo_1116317" data-name="Grupo 1116317" transform="translate(-906.051 -4433)">
    <g id="Grupo_1111316" data-name="Grupo 1111316" transform="translate(915.051 4439)">
      <g id="Grupo_1109835" data-name="Grupo 1109835" transform="translate(0 0)">
        <g id="Grupo_1107913" data-name="Grupo 1107913" transform="translate(0 0)">
          <g transform="matrix(1, 0, 0, 1, -9, -6)" filter="url(#Trazado_874925)">
            <g id="Trazado_874925-2" data-name="Trazado 874925" transform="translate(9 6)" fill="#fc0" opacity="0.859">
              <path d="M 42.47446823120117 83.44929504394531 C 36.94229125976562 83.44929504394531 31.57638549804688 82.36614227294922 26.52582168579102 80.22994232177734 C 21.64678573608398 78.16628265380859 17.26464462280273 75.211669921875 13.50113868713379 71.44816589355469 C 9.737632751464844 67.68466949462891 6.78300952911377 63.30253982543945 4.719362258911133 58.42351913452148 C 2.583150625228882 53.37295150756836 1.499997615814209 48.00706100463867 1.499997615814209 42.47489547729492 C 1.499997615814209 36.94223403930664 2.583150625228882 31.57634162902832 4.719362258911133 26.52577781677246 C 6.78300952911377 21.64675331115723 9.737632751464844 17.26462364196777 13.50113868713379 13.50113010406494 C 17.26464462280273 9.737624168395996 21.64678573608398 6.783012390136719 26.52582168579102 4.719353199005127 C 31.57638549804688 2.583153486251831 36.94229125976562 1.500000476837158 42.47446823120117 1.500000476837158 C 48.00664520263672 1.500000476837158 53.37255096435547 2.583153486251831 58.42311477661133 4.719353199005127 C 63.30215072631836 6.783012390136719 67.68428802490234 9.737624168395996 71.44779968261719 13.50113010406494 C 75.2113037109375 17.26462364196777 78.16592407226562 21.64675331115723 80.22957611083984 26.52577781677246 C 82.36578369140625 31.57634162902832 83.44893646240234 36.94223403930664 83.44893646240234 42.47439956665039 C 83.44893646240234 48.00706100463867 82.36578369140625 53.37295150756836 80.22957611083984 58.42351913452148 C 78.16592407226562 63.30253982543945 75.2113037109375 67.68466949462891 71.44779968261719 71.44816589355469 C 67.68428802490234 75.211669921875 63.30215072631836 78.16628265380859 58.42311477661133 80.22994232177734 C 53.37255096435547 82.36614227294922 48.00664520263672 83.44929504394531 42.47446823120117 83.44929504394531 Z" stroke="none"/>
              <path d="M 42.47446823120117 2.999992370605469 C 37.14412307739258 2.999992370605469 31.97481536865234 4.04327392578125 27.11014938354492 6.100860595703125 C 22.40990829467773 8.088890075683594 18.18804168701172 10.93555450439453 14.56179809570312 14.56178283691406 C 10.93557739257812 18.18801116943359 8.088897705078125 22.40987396240234 6.100868225097656 27.11009979248047 C 4.043281555175781 31.97476577758789 3 37.14406204223633 3 42.47488784790039 C 3 47.80522155761719 4.043281555175781 52.97451400756836 6.100868225097656 57.83917999267578 C 8.088897705078125 62.53940582275391 10.93557739257812 66.76127624511719 14.56179809570312 70.38749694824219 C 18.18804168701172 74.01372528076172 22.40990829467773 76.86039733886719 27.11014938354492 78.84841918945312 C 31.97481536865234 80.906005859375 37.14412307739258 81.94928741455078 42.47446823120117 81.94928741455078 C 47.80481338500977 81.94928741455078 52.97412109375 80.906005859375 57.83879089355469 78.84841918945312 C 62.53902816772461 76.86039733886719 66.76089477539062 74.01372528076172 70.38713073730469 70.38749694824219 C 74.01335906982422 66.76127624511719 76.86003875732422 62.53940582275391 78.84806823730469 57.83917999267578 C 80.90565490722656 52.97451400756836 81.94893646240234 47.80522155761719 81.94893646240234 42.47439575195312 C 81.94893646240234 37.14406204223633 80.90565490722656 31.97476577758789 78.84806823730469 27.11009979248047 C 76.86003875732422 22.40987396240234 74.01335906982422 18.18801116943359 70.38713073730469 14.56178283691406 C 66.76089477539062 10.93555450439453 62.53902816772461 8.088890075683594 57.83879089355469 6.100860595703125 C 52.97412109375 4.04327392578125 47.80481338500977 2.999992370605469 42.47446823120117 2.999992370605469 M 42.47446823120117 -7.62939453125e-06 C 65.93246459960938 -7.62939453125e-06 84.94893646240234 19.01643371582031 84.94893646240234 42.47439575195312 L 84.94893646240234 42.47488784790039 C 84.94893646240234 65.93284606933594 65.93246459960938 84.94928741455078 42.47446823120117 84.94928741455078 C 19.01647186279297 84.94928741455078 0 65.93284606933594 0 42.47488784790039 L 0 42.47439575195312 C 0 19.01643371582031 19.01647186279297 -7.62939453125e-06 42.47446823120117 -7.62939453125e-06 Z" stroke="none" fill="#fff"/>
            </g>
          </g>
          <g id="Trazado_874923" data-name="Trazado 874923" transform="translate(0 0)" fill="none">
            <path d="M42.474,0A42.474,42.474,0,0,1,84.949,42.474h0A42.474,42.474,0,0,1,0,42.475H0A42.474,42.474,0,0,1,42.474,0Z" stroke="none"/>
            <path d="M 42.47446823120117 2.999992370605469 C 37.14412307739258 2.999992370605469 31.97481536865234 4.04327392578125 27.11014938354492 6.100860595703125 C 22.40990829467773 8.088890075683594 18.18804168701172 10.93555450439453 14.56179809570312 14.56178283691406 C 10.93557739257812 18.18801116943359 8.088897705078125 22.40987396240234 6.100868225097656 27.11009979248047 C 4.043281555175781 31.97476577758789 3 37.14406204223633 3 42.47488784790039 C 3 47.80522155761719 4.043281555175781 52.97451400756836 6.100868225097656 57.83917999267578 C 8.088897705078125 62.53940582275391 10.93557739257812 66.76127624511719 14.56179809570312 70.38749694824219 C 18.18804168701172 74.01372528076172 22.40990829467773 76.86039733886719 27.11014938354492 78.84841918945312 C 31.97481536865234 80.906005859375 37.14412307739258 81.94928741455078 42.47446823120117 81.94928741455078 C 47.80481338500977 81.94928741455078 52.97412109375 80.906005859375 57.83879089355469 78.84841918945312 C 62.53902816772461 76.86039733886719 66.76089477539062 74.01372528076172 70.38713073730469 70.38749694824219 C 74.01335906982422 66.76127624511719 76.86003875732422 62.53940582275391 78.84806823730469 57.83917999267578 C 80.90565490722656 52.97451400756836 81.94893646240234 47.80522155761719 81.94893646240234 42.47439575195312 C 81.94893646240234 37.14406204223633 80.90565490722656 31.97476577758789 78.84806823730469 27.11009979248047 C 76.86003875732422 22.40987396240234 74.01335906982422 18.18801116943359 70.38713073730469 14.56178283691406 C 66.76089477539062 10.93555450439453 62.53902816772461 8.088890075683594 57.83879089355469 6.100860595703125 C 52.97412109375 4.04327392578125 47.80481338500977 2.999992370605469 42.47446823120117 2.999992370605469 M 42.47446823120117 -7.62939453125e-06 C 65.93246459960938 -7.62939453125e-06 84.94893646240234 19.01643371582031 84.94893646240234 42.47439575195312 L 84.94893646240234 42.47488784790039 C 84.94893646240234 65.93284606933594 65.93246459960938 84.94928741455078 42.47446823120117 84.94928741455078 C 19.01647186279297 84.94928741455078 0 65.93284606933594 0 42.47488784790039 L 0 42.47439575195312 C 0 19.01643371582031 19.01647186279297 -7.62939453125e-06 42.47446823120117 -7.62939453125e-06 Z" stroke="none" fill="#fff"/>
          </g>
        </g>
      </g>
    </g>
    <g id="Grupo_1116316" data-name="Grupo 1116316" transform="translate(927.05 4451)">
      <g id="Grupo_1116314" data-name="Grupo 1116314" transform="translate(0.88 0.879)">
        <g id="Grupo_1116307" data-name="Grupo 1116307" transform="translate(22.469 38.259)">
          <circle id="Elipse_11747" data-name="Elipse 11747" cx="6.678" cy="6.678" r="6.678" transform="translate(0 0.001)" fill="#ffdfcf"/>
          <path id="Trazado_912798" data-name="Trazado 912798" d="M207.8,346.7a6.679,6.679,0,1,1,0-12.7,6.68,6.68,0,0,0,0,12.7Z" transform="translate(-199.055 -333.669)" fill="#ffcebf"/>
          <path id="Trazado_912799" data-name="Trazado 912799" d="M203.152,454.23A1.673,1.673,0,0,1,201.576,452a6.681,6.681,0,0,1,12.594,0,1.673,1.673,0,0,1-1.576,2.231Z" transform="translate(-201.195 -434.194)" fill="#0ed2b3"/>
          <path id="Trazado_912800" data-name="Trazado 912800" d="M205.711,451.994a1.673,1.673,0,0,0,1.576,2.231h-4.136a1.673,1.673,0,0,1-1.576-2.231,6.683,6.683,0,0,1,8.364-4.121A6.693,6.693,0,0,0,205.711,451.994Z" transform="translate(-201.194 -434.189)" fill="#0ab69f"/>
        </g>
        <g id="Grupo_1116308" data-name="Grupo 1116308" transform="translate(22.469)">
          <circle id="Elipse_11748" data-name="Elipse 11748" cx="6.678" cy="6.678" r="6.678" transform="translate(0 0.001)" fill="#ffdfcf"/>
          <path id="Trazado_912801" data-name="Trazado 912801" d="M207.8,20.522a6.679,6.679,0,1,1,0-12.7,6.68,6.68,0,0,0,0,12.7Z" transform="translate(-199.055 -7.492)" fill="#ffcebf"/>
          <path id="Trazado_912802" data-name="Trazado 912802" d="M203.152,128.052a1.673,1.673,0,0,1-1.576-2.231,6.681,6.681,0,0,1,12.594,0,1.673,1.673,0,0,1-1.576,2.231Z" transform="translate(-201.195 -108.016)" fill="#fee45a"/>
          <path id="Trazado_912803" data-name="Trazado 912803" d="M205.711,125.817a1.673,1.673,0,0,0,1.576,2.231h-4.136a1.673,1.673,0,0,1-1.576-2.231,6.684,6.684,0,0,1,8.364-4.121A6.693,6.693,0,0,0,205.711,125.817Z" transform="translate(-201.194 -108.012)" fill="#ffd15b"/>
        </g>
        <g id="Grupo_1116309" data-name="Grupo 1116309" transform="translate(39.07 30.663)">
          <path id="Trazado_912804" data-name="Trazado 912804" d="M357.587,268.907h-3.744l-4.089,2.18-3.2-2.18h-3.744a2.226,2.226,0,0,0-2.226,2.226v10.742a2.226,2.226,0,0,0,2.226,2.226h14.774a2.226,2.226,0,0,0,2.226-2.226V271.132A2.226,2.226,0,0,0,357.587,268.907Z" transform="translate(-340.587 -268.907)" fill="#0ed2b3"/>
          <path id="Trazado_912805" data-name="Trazado 912805" d="M345.919,284.1h-3.111a2.225,2.225,0,0,1-2.225-2.225V271.131a2.226,2.226,0,0,1,2.225-2.226h3.111a2.226,2.226,0,0,0-2.225,2.226v10.742A2.225,2.225,0,0,0,345.919,284.1Z" transform="translate(-340.583 -268.905)" fill="#0ab69f"/>
          <path id="Trazado_912806" data-name="Trazado 912806" d="M397.6,276.508l-2.057-1.421a.742.742,0,0,0-.844,0l-2.057,1.421a.742.742,0,0,1-1.164-.611v-6.992h7.286V275.9A.742.742,0,0,1,397.6,276.508Z" transform="translate(-385.511 -268.906)" fill="#fee45a"/>
        </g>
        <g id="Grupo_1116310" data-name="Grupo 1116310" transform="translate(0 13.917)">
          <path id="Trazado_912807" data-name="Trazado 912807" d="M24.5,126.147H20.754l-4.089,2.18-3.2-2.18H9.724A2.226,2.226,0,0,0,7.5,128.373v10.742a2.226,2.226,0,0,0,2.226,2.226H24.5a2.226,2.226,0,0,0,2.226-2.226V128.373a2.226,2.226,0,0,0-2.226-2.225Z" transform="translate(-7.497 -126.147)" fill="#fee45a"/>
          <path id="Trazado_912808" data-name="Trazado 912808" d="M12.829,141.338H9.718a2.225,2.225,0,0,1-2.225-2.225V128.371a2.226,2.226,0,0,1,2.225-2.226h3.111a2.226,2.226,0,0,0-2.225,2.226v10.742A2.225,2.225,0,0,0,12.829,141.338Z" transform="translate(-7.493 -126.145)" fill="#ffd15b"/>
          <path id="Trazado_912809" data-name="Trazado 912809" d="M64.513,133.749l-2.057-1.421a.742.742,0,0,0-.844,0l-2.057,1.421a.742.742,0,0,1-1.164-.611v-6.992h7.286v6.992A.742.742,0,0,1,64.513,133.749Z" transform="translate(-52.421 -126.147)" fill="#fe5694"/>
        </g>
        <g id="Grupo_1116313" data-name="Grupo 1116313" transform="translate(4.289 13.21)">
          <g id="Grupo_1116311" data-name="Grupo 1116311" transform="translate(34.816)">
            <path id="Trazado_912810" data-name="Trazado 912810" d="M354.685,132.208l1.093-7.447a.866.866,0,0,0-1.176-.93l-1.885.749a13.473,13.473,0,0,0-10.071-4.468,1.759,1.759,0,1,0,0,3.519A9.984,9.984,0,0,1,349.137,126l-1.533.609a.866.866,0,0,0-.217,1.484l5.9,4.669A.866.866,0,0,0,354.685,132.208Z" transform="translate(-340.886 -120.111)" fill="#60b7ff"/>
          </g>
          <g id="Grupo_1116312" data-name="Grupo 1116312" transform="translate(0 19.558)">
            <path id="Trazado_912811" data-name="Trazado 912811" d="M45.164,287.592l-1.093,7.447a.866.866,0,0,0,1.176.93l1.885-.749A13.473,13.473,0,0,0,57.2,299.689a1.759,1.759,0,1,0,0-3.519,9.984,9.984,0,0,1-6.492-2.371l1.533-.609a.866.866,0,0,0,.217-1.484l-5.9-4.669a.866.866,0,0,0-1.394.553Z" transform="translate(-44.061 -286.851)" fill="#60b7ff"/>
          </g>
        </g>
      </g>
      <g id="Grupo_1116315" data-name="Grupo 1116315" transform="translate(0.001 0)">
        <path id="Trazado_912812" data-name="Trazado 912812" d="M206.67,333.735a7.558,7.558,0,1,0-11.091,6.679,7.56,7.56,0,0,0-3.593,4.153,2.552,2.552,0,0,0,2.405,3.4h9.44a2.552,2.552,0,0,0,2.478-3.164.88.88,0,0,0-1.707.425.793.793,0,0,1-.771.979h-9.44a.793.793,0,0,1-.747-1.057,5.81,5.81,0,0,1,5.467-3.862,5.74,5.74,0,0,1,3.453,1.141.88.88,0,0,0,1.051-1.411,7.583,7.583,0,0,0-.966-.611A7.563,7.563,0,0,0,206.67,333.735Zm-7.558,5.8a5.8,5.8,0,1,1,5.8-5.8A5.805,5.805,0,0,1,199.111,339.534Z" transform="translate(-169.085 -287.918)"/>
        <path id="Trazado_912813" data-name="Trazado 912813" d="M199.112,0a7.556,7.556,0,0,0-3.533,14.237,7.56,7.56,0,0,0-3.593,4.153,2.552,2.552,0,0,0,2.405,3.4h9.441a2.552,2.552,0,0,0,2.405-3.4,7.56,7.56,0,0,0-3.593-4.153A7.556,7.556,0,0,0,199.112,0Zm5.467,18.978a.793.793,0,0,1-.747,1.057h-9.441a.793.793,0,0,1-.747-1.057,5.8,5.8,0,0,1,10.935,0Zm-5.467-5.621a5.8,5.8,0,1,1,5.8-5.8A5.805,5.805,0,0,1,199.112,13.357Z" transform="translate(-169.086 0)"/>
        <path id="Trazado_912814" data-name="Trazado 912814" d="M350.966,261.407H336.192a3.109,3.109,0,0,0-3.105,3.105v10.742a3.109,3.109,0,0,0,3.105,3.105h14.774a3.109,3.109,0,0,0,3.105-3.105V264.512A3.109,3.109,0,0,0,350.966,261.407Zm-4.624,1.759v5.85l-1.841-1.272a1.63,1.63,0,0,0-1.844,0l-1.841,1.272v-5.85Zm5.97,12.087a1.347,1.347,0,0,1-1.346,1.346H336.192a1.347,1.347,0,0,1-1.346-1.346V264.512a1.347,1.347,0,0,1,1.346-1.346h2.864v6.112a1.621,1.621,0,0,0,2.544,1.334l1.979-1.367,1.979,1.367h0a1.622,1.622,0,0,0,2.544-1.334v-6.112h2.864a1.347,1.347,0,0,1,1.346,1.346v10.742Z" transform="translate(-294.017 -230.745)"/>
        <path id="Trazado_912815" data-name="Trazado 912815" d="M17.88,118.652H3.106a3.108,3.108,0,0,0-3.1,3.1v1.433a.88.88,0,1,0,1.759,0v-1.433a1.347,1.347,0,0,1,1.345-1.345H5.97v6.111a1.622,1.622,0,0,0,2.544,1.334l1.979-1.367,1.979,1.367a1.622,1.622,0,0,0,2.544-1.334v-6.111H17.88a1.347,1.347,0,0,1,1.345,1.345V132.5a1.347,1.347,0,0,1-1.345,1.345H3.106A1.347,1.347,0,0,1,1.76,132.5v-5.2A.88.88,0,0,0,0,127.3v5.2a3.108,3.108,0,0,0,3.1,3.1H17.88a3.108,3.108,0,0,0,3.1-3.1V121.757A3.108,3.108,0,0,0,17.88,118.652Zm-4.624,7.609-1.841-1.272a1.63,1.63,0,0,0-1.844,0L7.73,126.26v-5.849h5.527Z" transform="translate(-0.001 -104.735)"/>
        <path id="Trazado_912816" data-name="Trazado 912816" d="M336.021,117.89a9.2,9.2,0,0,1,4.667,1.269l-.033.013a1.745,1.745,0,0,0-.438,2.991l5.9,4.668a1.732,1.732,0,0,0,1.078.379,1.757,1.757,0,0,0,.65-.126,1.726,1.726,0,0,0,1.082-1.368l1.093-7.449a1.746,1.746,0,0,0-2.372-1.875l-1.329.529a14.473,14.473,0,0,0-1.839-1.585.88.88,0,1,0-1.032,1.425,12.762,12.762,0,0,1,1.987,1.787.88.88,0,0,0,.979.228l1.862-.74-1.086,7.4-5.866-4.639,1.51-.6a.88.88,0,0,0,.245-1.488,10.92,10.92,0,0,0-7.062-2.579.88.88,0,0,1,0-1.759,12.767,12.767,0,0,1,4.037.648.88.88,0,0,0,.555-1.67,14.528,14.528,0,0,0-4.592-.738,2.639,2.639,0,0,0,0,5.278Z" transform="translate(-294.278 -99.403)"/>
        <path id="Trazado_912817" data-name="Trazado 912817" d="M50.58,288.659a9.2,9.2,0,0,1-4.667-1.269l.032-.013a1.745,1.745,0,0,0,.439-2.991l-5.9-4.669a1.745,1.745,0,0,0-2.81,1.116l-1.093,7.447a1.745,1.745,0,0,0,2.371,1.876l1.329-.528a14.258,14.258,0,0,0,10.3,4.31,2.639,2.639,0,1,0,0-5.278Zm0,3.519A12.529,12.529,0,0,1,41.162,288a.879.879,0,0,0-.978-.228l-1.863.74,1.086-7.4,5.866,4.639-1.51.6a.88.88,0,0,0-.245,1.488,10.92,10.92,0,0,0,7.061,2.58.88.88,0,0,1,0,1.759Z" transform="translate(-32.27 -246.573)"/>
      </g>
    </g>
  </g>
</svg>
