<svg xmlns="http://www.w3.org/2000/svg" xmlns:xlink="http://www.w3.org/1999/xlink" width="118" height="118" viewBox="0 0 118 118">
  <defs>
    <filter id="Trazado_874925" x="0" y="0" width="118" height="118" filterUnits="userSpaceOnUse">
      <feOffset dy="3" input="SourceAlpha"/>
      <feGaussianBlur stdDeviation="3" result="blur"/>
      <feFlood flood-opacity="0.161"/>
      <feComposite operator="in" in2="blur"/>
      <feComposite in="SourceGraphic"/>
    </filter>
  </defs>
  <g id="Grupo_1116058" data-name="Grupo 1116058" transform="translate(6288.999 9806.53)">
    <g id="Grupo_1111553" data-name="Grupo 1111553" transform="translate(-7088.499 -12317.688)">
      <g id="Grupo_1111316" data-name="Grupo 1111316" transform="translate(808.5 2517.157)">
        <g id="Grupo_1109835" data-name="Grupo 1109835" transform="translate(0 0)">
          <g id="Grupo_1107913" data-name="Grupo 1107913" transform="translate(0 0)">
            <g transform="matrix(1, 0, 0, 1, -9, -6)" filter="url(#Trazado_874925)">
              <g id="Trazado_874925-2" data-name="Trazado 874925" transform="translate(9 6)" fill="#9cc8ff" opacity="0.859">
                <path d="M 49.99972534179688 98.4998779296875 C 43.45164108276367 98.4998779296875 37.10022354125977 97.21776580810547 31.12189674377441 94.68914794921875 C 25.34676742553711 92.24647521972656 20.15985298156738 88.74925994873047 15.70523929595947 84.29464721679688 C 11.25062561035156 79.84004974365234 7.753411293029785 74.65313720703125 5.310725212097168 68.87800598144531 C 2.782111167907715 62.89969253540039 1.499996781349182 56.54829406738281 1.499996781349182 50.00022125244141 C 1.499996781349182 43.45157623291016 2.782111167907715 37.10017776489258 5.310725212097168 31.12186431884766 C 7.753411293029785 25.34673500061035 11.25062561035156 20.15983581542969 15.70523929595947 15.70522117614746 C 20.15985298156738 11.25062084197998 25.34676742553711 7.753406524658203 31.12189674377441 5.31073522567749 C 37.10022354125977 2.782120943069458 43.45164108276367 1.500006556510925 49.99972534179688 1.500006556510925 C 56.54780960083008 1.500006556510925 62.89922714233398 2.782120943069458 68.87755584716797 5.31073522567749 C 74.65267944335938 7.753406524658203 79.839599609375 11.25062084197998 84.29421234130859 15.70522117614746 C 88.74882507324219 20.15983581542969 92.24604034423828 25.34673500061035 94.68872833251953 31.12186431884766 C 97.21733856201172 37.10017776489258 98.49945068359375 43.45157623291016 98.49945068359375 49.99964904785156 C 98.49945068359375 56.54829406738281 97.21733856201172 62.89969253540039 94.68872833251953 68.87800598144531 C 92.24604034423828 74.65313720703125 88.74882507324219 79.84004974365234 84.29421234130859 84.29464721679688 C 79.839599609375 88.74925994873047 74.65267944335938 92.24647521972656 68.87755584716797 94.68914794921875 C 62.89922714233398 97.21776580810547 56.54780960083008 98.4998779296875 49.99972534179688 98.4998779296875 Z" stroke="none"/>
                <path d="M 49.99972534179688 3 C 43.65348052978516 3 37.49866485595703 4.242240905761719 31.70623016357422 6.692230224609375 C 26.10989379882812 9.059272766113281 21.08323669433594 12.44853210449219 16.76589202880859 16.76587677001953 C 12.44855499267578 21.08321380615234 9.059295654296875 26.10985565185547 6.692230224609375 31.70618438720703 C 4.24224853515625 37.49859619140625 3 43.65341186523438 3 50.00022888183594 C 3 56.34645843505859 4.24224853515625 62.50127410888672 6.692230224609375 68.29368591308594 C 9.059295654296875 73.8900146484375 12.44855499267578 78.91665649414062 16.76589202880859 83.23399353027344 C 21.08323669433594 87.55132293701172 26.10989379882812 90.94059753417969 31.70623016357422 93.30764007568359 C 37.49866485595703 95.75762939453125 43.65348052978516 96.99987030029297 49.99972534179688 96.99987030029297 C 56.34597015380859 96.99987030029297 62.50078582763672 95.75762939453125 68.293212890625 93.30764007568359 C 73.88955688476562 90.94059753417969 78.91621398925781 87.55132293701172 83.23355865478516 83.23399353027344 C 87.55089569091797 78.91665649414062 90.94015502929688 73.8900146484375 93.30722045898438 68.29368591308594 C 95.7572021484375 62.50127410888672 96.99945068359375 56.34645843505859 96.99945068359375 49.99964141845703 C 96.99945068359375 43.65341186523438 95.7572021484375 37.49859619140625 93.30722045898438 31.70618438720703 C 90.94015502929688 26.10985565185547 87.55089569091797 21.08321380615234 83.23355865478516 16.76587677001953 C 78.91621398925781 12.44853210449219 73.88955688476562 9.059272766113281 68.293212890625 6.692230224609375 C 62.50078582763672 4.242240905761719 56.34597015380859 3 49.99972534179688 3 M 49.99972534179688 0 C 77.61381530761719 0 99.99945068359375 22.38559722900391 99.99945068359375 49.99964141845703 L 99.99945068359375 50.00022888183594 C 99.99945068359375 77.6142578125 77.61381530761719 99.99987030029297 49.99972534179688 99.99987030029297 C 22.38563537597656 99.99987030029297 0 77.6142578125 0 50.00022888183594 L 0 49.99964141845703 C 0 22.38559722900391 22.38563537597656 0 49.99972534179688 0 Z" stroke="none" fill="#fff"/>
              </g>
            </g>
            <g id="Trazado_874923" data-name="Trazado 874923" transform="translate(0 0)" fill="none">
              <path d="M50,0a50,50,0,0,1,50,50h0A50,50,0,0,1,0,50H0A50,50,0,0,1,50,0Z" stroke="none"/>
              <path d="M 49.99972534179688 3 C 43.65348052978516 3 37.49866485595703 4.242240905761719 31.70623016357422 6.692230224609375 C 26.10989379882812 9.059272766113281 21.08323669433594 12.44853210449219 16.76589202880859 16.76587677001953 C 12.44855499267578 21.08321380615234 9.059295654296875 26.10985565185547 6.692230224609375 31.70618438720703 C 4.24224853515625 37.49859619140625 3 43.65341186523438 3 50.00022888183594 C 3 56.34645843505859 4.24224853515625 62.50127410888672 6.692230224609375 68.29368591308594 C 9.059295654296875 73.8900146484375 12.44855499267578 78.91665649414062 16.76589202880859 83.23399353027344 C 21.08323669433594 87.55132293701172 26.10989379882812 90.94059753417969 31.70623016357422 93.30764007568359 C 37.49866485595703 95.75762939453125 43.65348052978516 96.99987030029297 49.99972534179688 96.99987030029297 C 56.34597015380859 96.99987030029297 62.50078582763672 95.75762939453125 68.293212890625 93.30764007568359 C 73.88955688476562 90.94059753417969 78.91621398925781 87.55132293701172 83.23355865478516 83.23399353027344 C 87.55089569091797 78.91665649414062 90.94015502929688 73.8900146484375 93.30722045898438 68.29368591308594 C 95.7572021484375 62.50127410888672 96.99945068359375 56.34645843505859 96.99945068359375 49.99964141845703 C 96.99945068359375 43.65341186523438 95.7572021484375 37.49859619140625 93.30722045898438 31.70618438720703 C 90.94015502929688 26.10985565185547 87.55089569091797 21.08321380615234 83.23355865478516 16.76587677001953 C 78.91621398925781 12.44853210449219 73.88955688476562 9.059272766113281 68.293212890625 6.692230224609375 C 62.50078582763672 4.242240905761719 56.34597015380859 3 49.99972534179688 3 M 49.99972534179688 0 C 77.61381530761719 0 99.99945068359375 22.38559722900391 99.99945068359375 49.99964141845703 L 99.99945068359375 50.00022888183594 C 99.99945068359375 77.6142578125 77.61381530761719 99.99987030029297 49.99972534179688 99.99987030029297 C 22.38563537597656 99.99987030029297 0 77.6142578125 0 50.00022888183594 L 0 49.99964141845703 C 0 22.38559722900391 22.38563537597656 0 49.99972534179688 0 Z" stroke="none" fill="#fff"/>
            </g>
          </g>
        </g>
      </g>
    </g>
    <g id="Grupo_1116057" data-name="Grupo 1116057" transform="translate(-6258.585 -9779.365)">
      <path id="Trazado_912589" data-name="Trazado 912589" d="M7.6,21.2l6.434-13.6H57.126L63.56,21.2l-25.8,7.537" transform="translate(-6.747 -6.748)" fill="#e9bb91"/>
      <rect id="Rectángulo_405102" data-name="Rectángulo 405102" width="55.955" height="42.359" transform="translate(0.857 14.454)" fill="#ca936c"/>
      <g id="Grupo_1116056" data-name="Grupo 1116056" transform="translate(24.431 0.856)">
        <path id="Trazado_912590" data-name="Trazado 912590" d="M225.706,21.2V32.96H216.9V21.2l1.013-13.6h6.782Z" transform="translate(-216.898 -7.604)" fill="#764f43"/>
        <rect id="Rectángulo_405103" data-name="Rectángulo 405103" width="8.808" height="11.759" transform="translate(0 44.197)" fill="#764f43"/>
      </g>
      <path id="Trazado_912591" data-name="Trazado 912591" d="M216.9,21.2l1.013-13.6H224.7l1.013,13.6" transform="translate(-192.47 -6.748)" fill="#8e6459"/>
      <rect id="Rectángulo_405104" data-name="Rectángulo 405104" width="15.244" height="11.819" transform="translate(37.292 20.276)" fill="#f5ffff"/>
      <path id="Trazado_912592" data-name="Trazado 912592" d="M57.669,44.713V14.453a.852.852,0,0,0-.083-.366h0L51.154.49A.856.856,0,0,0,50.379,0H7.291a.856.856,0,0,0-.774.49L.083,14.087h0A.852.852,0,0,0,0,14.453V56.812a.856.856,0,0,0,.856.856H56.813a.856.856,0,0,0,.856-.856V47H55.957v8.958H34.1v-10.9a.856.856,0,0,0-.856-.856H24.431a.856.856,0,0,0-.856.856v10.9H1.714V15.31h6.8V13.6H2.21L7.833,1.713H24.521L23.636,13.6H10.8V15.31H23.574v10.9a.856.856,0,0,0,.856.856h8.808a.856.856,0,0,0,.856-.856V15.31H55.956v29.4h1.713Zm-32.382,1.2h7.095V55.955H25.287V45.91ZM55.46,13.6H34.034L33.149,1.713H49.837ZM26.239,1.713h5.192L32.316,13.6H25.354Zm6.143,23.643H25.287V15.31h7.095Z"/>
      <path id="Trazado_912593" data-name="Trazado 912593" d="M43.247,354.867a.856.856,0,0,0,.856-.856v-6.778l1.419,1.419a.857.857,0,1,0,1.211-1.211l-2.881-2.882a.857.857,0,0,0-1.211,0l-2.882,2.882a.856.856,0,0,0,1.211,1.211l1.419-1.419v6.778A.856.856,0,0,0,43.247,354.867Z" transform="translate(-35.058 -305.527)"/>
      <path id="Trazado_912594" data-name="Trazado 912594" d="M122.769,347.441l-2.881-2.882a.857.857,0,0,0-1.211,0l-2.881,2.882a.856.856,0,0,0,1.211,1.211l1.419-1.419v6.778a.856.856,0,1,0,1.713,0v-6.778l1.419,1.419a.857.857,0,0,0,1.211-1.211Z" transform="translate(-102.528 -305.528)"/>
      <path id="Trazado_912595" data-name="Trazado 912595" d="M40.856,450.919H55.073a.856.856,0,1,0,0-1.713H40.856a.856.856,0,1,0,0,1.713Z" transform="translate(-35.494 -398.61)"/>
      <path id="Trazado_912596" data-name="Trazado 912596" d="M324.341,172.421a.857.857,0,0,0-.856.856V185.1a.857.857,0,0,0,.856.856h15.244a.856.856,0,0,0,.856-.856V173.277a.856.856,0,0,0-.856-.856Zm14.388,11.819H325.2V174.134h13.531V184.24Z" transform="translate(-287.049 -153.001)"/>
      <path id="Trazado_912597" data-name="Trazado 912597" d="M353.742,208.38h8.735a.856.856,0,0,0,0-1.713h-8.735a.856.856,0,1,0,0,1.713Z" transform="translate(-313.138 -183.389)"/>
      <path id="Trazado_912598" data-name="Trazado 912598" d="M353.742,244.817h8.735a.856.856,0,0,0,0-1.713h-8.735a.856.856,0,1,0,0,1.713Z" transform="translate(-313.138 -215.722)"/>
    </g>
  </g>
</svg>
