<svg xmlns="http://www.w3.org/2000/svg" width="295.12" height="198" viewBox="0 0 295.12 198">
  <g id="Grupo_1113302" data-name="Grupo 1113302" transform="translate(-180.051 -1036)">
    <path id="Trazado_916605" data-name="Trazado 916605" d="M7.792,0H287.328a7.9,7.9,0,0,1,7.792,8V190a7.9,7.9,0,0,1-7.792,8H7.792A7.9,7.9,0,0,1,0,190V8A7.9,7.9,0,0,1,7.792,0Z" transform="translate(180.051 1036)" fill="#5ba2f8"/>
    <g id="Grupo_1113301" data-name="Grupo 1113301" transform="translate(198.051 1046)">
      <g id="bg" transform="translate(0 20.129)">
        <path id="Trazado_902292" data-name="Trazado 902292" d="M1239.516,712.946c-.175,2.7-.368,5.393-.64,8.088q-.136,1.348-.3,2.694-.109,1.553-.261,3.105t-.354,3.1c-.362,2.165-.727,4.367-1.16,6.578-.217,1.105-.451,2.213-.711,3.321q-.249,1.159-.548,2.332a37.689,37.689,0,0,1-4.576,13.33,29.47,29.47,0,0,1-2.107,3.095,28.316,28.316,0,0,1-9.957,8.253,46.283,46.283,0,0,1-4.325,1.995A77.961,77.961,0,0,1,1206,771.53q-2.2.559-4.448,1.017c-4.87.906-9.767,1.569-14.687,2.065q-2.46.248-4.927.443c-16.309.512-32.867,1.307-49.167,1.179-1.444-.041-2.9-.089-4.354-.145-10.244-.411-20.372-1.153-29.922-3.368q-1.579-.487-3.086-1.068a33.308,33.308,0,0,1-8.046-4.325,22.341,22.341,0,0,1-6.252-7.162c-3.039-5.594-3.3-11.716-3.084-17.637.264-7.3.867-14.607,1.421-21.9,1.165-15.328,2.82-30.668,6.182-45.9,2.412-10.933,6.582-23.744,23.783-28.8a93.187,93.187,0,0,1,14.276-2.716q8.191-1.054,16.422-1.963c1.577-.175,3.157-.343,4.739-.5,16.135-1.083,32.468-2.354,48.739-1.128q2.629.2,5.25.452,7.864.761,15.639,1.995c1.1.173,2.193.361,3.278.573a38.216,38.216,0,0,1,11.867,4.027c5.529,3.238,7.194,8.043,7.951,12.727.945,5.825,1.431,11.705,1.845,17.562q.635,9.01.658,18.042Q1240.1,703.972,1239.516,712.946Z" transform="translate(-1039.165 -639.119)" fill="#94cee8"/>
        <path id="Trazado_902293" data-name="Trazado 902293" d="M539.128,2616.639a7.527,7.527,0,0,1-3.87,5.883,24.175,24.175,0,0,1-8.8,2.58c-3.888.532-7.911.72-11.864.982q-7.1.472-14.209.858-28.334,1.537-56.8,1.716-14.277.09-28.551-.164c-9.5-.169-18.969-.534-28.457-.788-4.724-.126-9.452-.2-14.18-.123-4.714.073-9.421.258-14.136.311-8.222.092-16.587-.253-24.261-2.22-6.72-1.723-12.525-4.676-15.527-8.828s-3.507-9.376-.732-13.635c2.939-4.511,10.682-5.858,17.807-6.548a185.08,185.08,0,0,1,25.363-.359c11.128.456,22.46,1.361,33.648,1.121q1.218-.14,2.428-.306c8.266-1.131,16.322-2.869,24.9-2.673,4.523.1,8.992.583,13.464.974q7.216.631,14.48,1.006c9.457.489,18.959.653,28.445.493,4.667-.078,9.352-.314,14.015-.105a67.51,67.51,0,0,1,12.8,1.91c4.216,1.013,8.33,2.193,12.47,3.316,4.278,1.161,8.594,2.28,12.835,3.489,3.312.946,6.065,2.2,7.459,4.348A10.092,10.092,0,0,1,539.128,2616.639Z" transform="translate(-315.916 -2474.646)" fill="#707c3d"/>
        <circle id="Elipse_11636" data-name="Elipse 11636" cx="4.403" cy="4.403" r="4.403" transform="translate(173.398 10.968)" fill="#f5dfd1"/>
        <g id="Grupo_1113260" data-name="Grupo 1113260" transform="translate(53.431 13.947)">
          <path id="Trazado_902294" data-name="Trazado 902294" d="M2487.728,875.717a4.543,4.543,0,0,0,1.5,2.844c1.908,1.783,4.666,2.358,7.178,2.625,1.508.161,3.026.193,4.541.208,1.562.017,3.123.027,4.685.04l9.644.078,9.546.072a41.991,41.991,0,0,0,9.287-.553c.907-.2,2.083-.661,2.254-1.705a2.241,2.241,0,0,0-.6-1.7,5.421,5.421,0,0,0-1.2-1.121,8.294,8.294,0,0,0-4.075-1.3,18.405,18.405,0,0,0-1.57-1.745,18.6,18.6,0,0,0-5.965-3.911,6,6,0,0,0-3.869-.523,2.958,2.958,0,0,0-2.022,1.825,23.669,23.669,0,0,0-3.334-2.577c-2.179-1.331-4.969-2.053-7.4-.951a4.774,4.774,0,0,0-2.809,4.839,13.082,13.082,0,0,0-1.206-.717,13.83,13.83,0,0,0-7.593-1.519,8.541,8.541,0,0,0-6.064,2.859A4.133,4.133,0,0,0,2487.728,875.717Z" transform="translate(-2415.977 -866.783)" fill="#f5dfd1"/>
          <path id="Trazado_902295" data-name="Trazado 902295" d="M1316.761,1194.78c.247,2.454,2.432,4.068,4.659,4.676a18.731,18.731,0,0,0,4.312.5q2.374.081,4.749.121,4.735.081,9.473.006t9.469-.307c3.1-.151,6.207-.3,9.28-.725.767-.107,1.532-.233,2.291-.389a3.1,3.1,0,0,0,1.618-.7,2.191,2.191,0,0,0,.275-2.472,2.983,2.983,0,0,0-2.329-1.744,6.233,6.233,0,0,0-2.924.376,13.906,13.906,0,0,0-4.369-2.277,3.966,3.966,0,0,0-2.713-.083,2.079,2.079,0,0,0-1.19,1.255,25.526,25.526,0,0,0-3.265-3.278,14.188,14.188,0,0,0-3.528-2.283,5.823,5.823,0,0,0-3.822-.4c-1.737.511-3.3,2.385-2.921,4.213a9.294,9.294,0,0,0-.887-.666,17.736,17.736,0,0,0-7.294-2.382c-2.6-.376-5.525-.419-7.829,1.027A6.17,6.17,0,0,0,1316.761,1194.78Z" transform="translate(-1316.738 -1167.275)" fill="#f5dfd1"/>
          <path id="Trazado_902296" data-name="Trazado 902296" d="M2960,1383.379A6.164,6.164,0,0,0,2964,1386.7a20.162,20.162,0,0,0,6.259.72c4.609,0,9.219-.132,13.825-.3q3.488-.125,6.974-.282,1.734-.076,3.468-.155l1.734-.08a13.391,13.391,0,0,0,1.462-.1,1.952,1.952,0,0,0,1.083-.478,1.291,1.291,0,0,0,.38-1.062,2.914,2.914,0,0,0-1.535-1.979,9.078,9.078,0,0,0-3.942-1.243,23.978,23.978,0,0,0-2.6-2.775,20.941,20.941,0,0,0-3.136-2.4,6.262,6.262,0,0,0-3.7-1.111,3.3,3.3,0,0,0-2.5,1.51,2.646,2.646,0,0,0-.434,1.817,11.234,11.234,0,0,0-3.047-1.784,16.683,16.683,0,0,0-3.851-.986,13.1,13.1,0,0,0-3.948-.12,3.4,3.4,0,0,0-2.749,1.952,2.535,2.535,0,0,0,.007,2.026q-.311-.139-.624-.27c-1.731-.72-3.691-1.15-5.443-.254a3.519,3.519,0,0,0-1.633,1.639A3.1,3.1,0,0,0,2960,1383.379Z" transform="translate(-2859.128 -1344.284)" fill="#f5dfd1"/>
        </g>
      </g>
      <g id="farm" transform="translate(3.24 92.404)">
        <g id="Grupo_1113263" data-name="Grupo 1113263" transform="translate(0)">
          <path id="Trazado_902297" data-name="Trazado 902297" d="M473.569,1877.106l0,.494,0,.378a.219.219,0,0,1-.215.215,4.068,4.068,0,0,1-1.277-.208q-.359,1.709-.694,3.421-.631,3.239-1.17,6.494c-.015.086-.028.173-.042.259-.024.145-.048.29-.072.434-.147.01-.292.017-.439.025q-6.6.38-13.2.716-3.185.162-6.37.314l-.439.021q-6.647.317-13.3.589l-.6.025q-2.756.112-5.511.217l-.433.017q-3.47.132-6.938.251l-.386.013q-4.223.146-8.447.272-4.834.145-9.669.268l-.432.01q-13.882.35-27.769.509h0q-1.114.012-2.229.024l-.206,0-.221-.04q-.942-.167-1.879-.37h0q-1.214-.261-2.416-.578c-.14-.035-.277-.072-.416-.11l.059-.43v0q.438-3.174.876-6.349l.845-6.134-1.265-.35a.206.206,0,0,1-.118-.086c.714-.047,1.425-.112,2.135-.189l.018,0,.627-.07q.761-.089,1.521-.188l.022,0,1.641-.435.44-.115q.61-.162,1.221-.321l1.512-.393,1.886-.488q4.339-1.12,8.681-2.236,4.316-1.121,8.618-2.3c2.864-.788,5.719-1.608,8.56-2.477l.4-.123.373-.115.236-.072c.086-.146.172-.294.259-.44l.067-.114q1.165-1.979,2.344-3.949,1.749-2.927,3.511-5.843l3.551-5.884,3.538-5.866.467-.777q.756-.4,1.528-.777c1.443-.7,2.914-1.348,4.389-1.981q1.355-.583,2.712-1.163l.477-.205,1.469-.629,4.71-2.019.1-.045.983.718,3.6,2.63,1.408,1.029.39.285q.91.663,1.819,1.329l3.6,2.63,1.114.814.217,1.135q.121.638.244,1.278l1.941,10.166,1.218,6.369v0l.01.056.392.254q1.387.888,2.835,1.677c1.463.8,2.961,1.541,4.472,2.249s3.036,1.387,4.558,2.072,3.056,1.38,4.563,2.113c1.2.585,2.393,1.2,3.56,1.854C473.285,1876.943,473.427,1877.024,473.569,1877.106Z" transform="translate(-368.798 -1837.021)" fill="#bf4134"/>
          <path id="Trazado_902298" data-name="Trazado 902298" d="M946.176,2261.981q-.194,1.545-.39,3.091-.187,1.485-.374,2.97-.676,5.375-1.354,10.75-.639,5.071-1.252,10.145l-.432.01q.327-2.741.669-5.482.666-5.365,1.347-10.727.45-3.576.9-7.154.227-1.8.454-3.6a.221.221,0,0,1,.215-.215A.217.217,0,0,1,946.176,2261.981Z" transform="translate(-907.237 -2234.637)" fill="#f5dfd1"/>
          <path id="Trazado_902299" data-name="Trazado 902299" d="M1698.934,2307q-.147,1.608-.317,3.214-.279,2.65-.613,5.294t-.725,5.311q-.388,2.636-.83,5.265-.28,1.664-.582,3.325l-.439.02q.372-2.043.711-4.09.866-5.23,1.517-10.493.5-4.069.876-8.153c0,.019.007.036.01.055Z" transform="translate(-1614.158 -2276.811)" fill="#f5dfd1"/>
          <g id="Grupo_1113261" data-name="Grupo 1113261" transform="translate(53.685 3.875)">
            <path id="Trazado_902300" data-name="Trazado 902300" d="M1328.34,1884.132q-.216,1.457-.434,2.914-.659,4.409-1.33,8.817-.493,3.228-.991,6.455-.032.216-.067.432l-.433.006-1.687.024-6.366.09-3.2.046-1.047.017c-.146,0-.291,0-.437,0,.027-.143.054-.287.079-.431.205-1.116.383-2.237.543-3.361.237-1.662.435-3.329.625-5s.375-3.359.581-5.037.434-3.353.714-5.02q.146-.864.312-1.723l.478-.205c-.177.887-.334,1.777-.477,2.669-.266,1.655-.483,3.319-.682,4.984s-.382,3.359-.577,5.038-.4,3.362-.651,5.035q-.2,1.31-.429,2.611l1.441-.021,6.345-.091,4.5-.065q.209-1.351.416-2.7.677-4.406,1.342-8.816.525-3.479,1.041-6.959Z" transform="translate(-1308.226 -1882.163)" fill="#f5dfd1"/>
            <path id="Trazado_902301" data-name="Trazado 902301" d="M1260.875,2436.521s0-.007,0-.012l-.014.012-4.739.076-1.234.02-.434.007-4.677.076-1.763.028-.189,0h-.136q-.147,0-.295,0c-.014.092-.027.186-.04.278h0c-.008.051-.015.1-.023.151q-.378,2.636-.756,5.275-.153,1.065-.306,2.13c-.021.144-.041.288-.061.432q-.37,2.574-.738,5.146-.145,1.009-.289,2.015c-.014.093-.027.187-.04.28l.386-.013.055-.05,2.45-2.216c1.258-1.138,2.516-2.277,3.755-3.437q.739-.694,1.468-1.4-.366,2.923-.683,5.851-.055.5-.107,1l.434-.017q.238-2.257.5-4.51.158-1.331.326-2.662c.514.646,1.009,1.306,1.474,1.987.949,1.388,1.774,2.857,2.714,4.252q.243.36.492.717l.6-.025q.353-2.364.705-4.729l.359-2.413.065-.432q.378-2.539.757-5.076.172-1.158.345-2.317c.01-.072.022-.144.033-.215s.021-.144.032-.217Zm-8.931,9.461c-1.232,1.166-2.488,2.307-3.745,3.445l-2.517,2.278.69-4.815q.136-.95.272-1.9c.356-.005.712-.013,1.067-.019l3.2-.052,2.174-.036Q1252.52,2445.436,1251.943,2445.982Zm-3.76-1.451-1.478.024.771-5.374q.118-.822.236-1.644c.541.789,1.123,1.552,1.723,2.3.964,1.2,1.978,2.353,2.969,3.527.3.359.605.722.9,1.087Zm5.359-1.426q-.054.412-.108.825-.171-.208-.343-.415c-.981-1.177-1.992-2.325-2.965-3.508-.756-.92-1.486-1.862-2.152-2.848.443,0,.888-.015,1.331-.022l3.2-.052,1.88-.03Q1253.94,2440.077,1253.543,2443.105Zm.9-3.458q.185-1.3.378-2.6l4.053-.066,1.5-.024a18.716,18.716,0,0,0-1.481,1.567c-.552.656-1.086,1.327-1.647,1.976s-1.126,1.273-1.709,1.891q-.838.89-1.7,1.75Q1254.128,2441.894,1254.446,2439.647Zm4.336,10.914-.142.951-.042-.06q-.7-1.025-1.362-2.08c-.451-.724-.888-1.457-1.355-2.171-.527-.806-1.1-1.581-1.693-2.337l3.094-.05,2.363-.038Q1259.212,2447.67,1258.782,2450.562Zm1.181-7.922q-.127.853-.254,1.707l-5.181.083-.371.006q.637-.634,1.259-1.281c1.179-1.229,2.3-2.508,3.376-3.825a21.453,21.453,0,0,1,1.743-1.924c.08-.075.16-.151.241-.227Q1260.369,2439.91,1259.963,2442.64Z" transform="translate(-1245.144 -2402.55)" fill="#f5dfd1"/>
          </g>
          <path id="Trazado_902302" data-name="Trazado 902302" d="M454.519,1828.915c-.033-.173-.066-.346-.1-.52q-.058-.3-.116-.607h0l-.5-.355-3.117-2.2-6.366-4.482-2.194-1.545-.419-.295c-.159.063-.317.126-.476.191q-.888.354-1.774.715-4.47,1.819-8.887,3.765-4.449,1.961-8.84,4.049-4.372,2.08-8.681,4.285-3.572,1.828-7.1,3.741-.355.191-.71.386l-.4.708h0q-.275.489-.552.975-1.161,2.037-2.35,4.057t-2.4,4.005q-1.218,2-2.465,3.988c-.253.4-.51.806-.765,1.208l-1.956.607q-2.474.768-4.946,1.537-2.439.761-4.871,1.543t-4.871,1.621q-2.208.762-4.4,1.575l-.432.162-.005,0c-.009.159-.024.318-.046.476-.016.122-.036.245-.06.366-.015.084-.034.169-.054.253a.226.226,0,0,0,.032.178c.714-.046,1.425-.112,2.135-.189l.018,0q.314-.034.627-.07.761-.089,1.521-.188l.022,0q1.651-.44,3.3-.87,1.7-.443,3.4-.881,4.339-1.119,8.681-2.236,4.316-1.121,8.618-2.3t8.56-2.477l.4-.123.609-.187q.163-.277.327-.554,1.165-1.979,2.344-3.95,1.749-2.926,3.511-5.843l3.55-5.884,3.538-5.866q.234-.388.467-.777.756-.4,1.528-.777c1.443-.7,2.914-1.348,4.389-1.981q2.328-1,4.659-2l4.71-2.019.1-.045.983.718,3.6,2.63,3.618,2.643,3.6,2.63,1.114.814Q454.578,1829.224,454.519,1828.915Z" transform="translate(-374.304 -1818.916)" fill="#f5dfd1"/>
          <g id="Grupo_1113262" data-name="Grupo 1113262" transform="translate(26.102 13.783)">
            <path id="Trazado_902303" data-name="Trazado 902303" d="M1213.3,2044.169c-.021.142-.042.284-.064.427-.015.1-.029.191-.043.286l-.586,3.894-.064.426-.428-.033-.3-.022q-1.56-.11-3.124-.173c-.144-.006-.288-.012-.432-.016.023-.143.047-.286.073-.428q.361-2.111.834-4.2c.031-.141.064-.282.1-.423l.123.01.311.024q1.589.124,3.179.206Z" transform="translate(-1182.935 -2043.907)" fill="#f5dfd1"/>
            <path id="Trazado_902304" data-name="Trazado 902304" d="M1223.09,2055.8c-.015.1-.031.208-.047.312l-.031.209-.427,2.839-.047.311-.312-.024-.223-.016q-1.138-.08-2.278-.126c-.1,0-.21-.009-.315-.012q.026-.157.053-.312.263-1.54.608-3.062c.023-.1.047-.206.07-.308l.09.007.227.018q1.159.09,2.318.15Z" transform="translate(-1193.403 -2054.891)" fill="#3d111c"/>
            <path id="Trazado_902305" data-name="Trazado 902305" d="M1575.885,2072.642c-.021.143-.042.285-.064.428l-.054.365q-.261,1.761-.523,3.521c0,.017-.005.034-.008.051-.021.142-.042.284-.063.426l-.427-.03-3.039-.214-.428-.03c.021-.143.043-.284.064-.427q.283-1.885.567-3.769l.065-.43.432.007q1.525.026,3.049.084Z" transform="translate(-1523.716 -2070.78)" fill="#f5dfd1"/>
            <path id="Trazado_902306" data-name="Trazado 902306" d="M1585.032,2082.245c-.016.1-.031.206-.046.309l-.039.264q-.189,1.272-.378,2.544l-.006.037-.045.308-.309-.022-2.2-.154-.31-.022.047-.308.41-2.724.047-.311.312.005q1.1.019,2.2.061Z" transform="translate(-1533.501 -2079.823)" fill="#3d111c"/>
            <path id="Trazado_902307" data-name="Trazado 902307" d="M1053.815,2428.881c-.013.144-.027.287-.041.431,0,.033-.006.066-.01.1q-.2,2.036-.426,4.067c-.017.151-.035.3-.052.451a3.927,3.927,0,0,1-.438.055c-.14.012-.28.016-.42.016-.719,0-1.431-.125-2.151-.137-.4-.006-.794.021-1.19.044-.146.009-.29.017-.436.021.022-.144.045-.289.066-.433q.332-2.158.664-4.317l.065-.422c.115.019.231.037.347.049l.077.007c.348.031.7.028,1.047.032l1.134.014,1.331.017Z" transform="translate(-1033.107 -2405.182)" fill="#f5dfd1"/>
            <path id="Trazado_902308" data-name="Trazado 902308" d="M1065.134,2441.816c-.009.1-.019.2-.028.3,0,.023,0,.046-.007.069q-.135,1.413-.3,2.823l-.036.313a2.752,2.752,0,0,1-.3.038c-.1.008-.194.011-.291.011-.5,0-.993-.087-1.492-.095-.276,0-.551.015-.826.03-.1.006-.2.011-.3.014.016-.1.031-.2.046-.3q.231-1.5.461-3l.045-.292c.08.013.16.026.241.034l.053,0c.242.022.485.019.726.022l.787.01.924.011Z" transform="translate(-1045.216 -2417.359)" fill="#3d111c"/>
            <path id="Trazado_902309" data-name="Trazado 902309" d="M800.426,2426.658c-.016.143-.033.286-.05.429l-.054.471-.471,4.073-.05.43c-.143-.007-.285-.012-.428-.017s-.29-.01-.435-.014q-1.812-.055-3.625,0l-.433.013c.019-.144.039-.288.059-.432q.319-2.323.658-4.641c.021-.143.042-.286.064-.428l.429.01.184.005,3.722.1Z" transform="translate(-794.88 -2403.096)" fill="#f5dfd1"/>
            <path id="Trazado_902310" data-name="Trazado 902310" d="M811.874,2439.548c-.012.1-.023.2-.036.305l-.039.335-.336,2.9-.036.306-.3-.012-.31-.01q-1.29-.039-2.58,0l-.308.009q.021-.153.042-.307.227-1.653.469-3.3c.015-.1.03-.2.045-.3l.306.007.131,0,2.649.068Z" transform="translate(-807.127 -2415.23)" fill="#3d111c"/>
            <path id="Trazado_902311" data-name="Trazado 902311" d="M1616,2429.114c-.021.143-.042.286-.063.429l-.008.05q-.269,1.825-.537,3.652c-.022.144-.042.288-.064.431l-.433.01-3.1.068-.435.01q.036-.216.071-.433.316-1.942.578-3.891.03-.214.057-.429l.43.011,3.074.08Z" transform="translate(-1561.338 -2405.42)" fill="#f5dfd1"/>
            <path id="Trazado_902312" data-name="Trazado 902312" d="M1626.244,2441.043c-.014.1-.029.2-.043.3l-.005.034q-.186,1.262-.371,2.526l-.044.3-.3.007-2.145.047-.3.007c.017-.1.033-.2.049-.3q.219-1.343.4-2.691c.013-.1.027-.2.039-.3l.3.008,2.126.055Z" transform="translate(-1572.301 -2416.647)" fill="#3d111c"/>
            <path id="Trazado_902313" data-name="Trazado 902313" d="M1846.037,2424.8q-.035.215-.069.429c-.05.313-.1.626-.144.94q-.2,1.324-.352,2.654c-.017.142-.034.284-.05.426l-.039,0-.388-.033c-.61-.049-1.22-.081-1.833-.077-.195,0-.389.005-.583.012q-.218.008-.437.022c.023-.145.047-.291.069-.436q.278-1.777.515-3.559c.02-.143.039-.287.058-.43l.43.007,1.627.027.765.013.354.006Z" transform="translate(-1777.986 -2401.419)" fill="#f5dfd1"/>
            <path id="Trazado_902314" data-name="Trazado 902314" d="M1855.4,2435.794c-.016.095-.031.19-.046.285q-.05.312-.1.624-.13.879-.234,1.763-.017.142-.033.283l-.026,0-.258-.022c-.405-.033-.811-.054-1.218-.051-.129,0-.258,0-.387.008-.1,0-.193.008-.29.015.015-.1.031-.193.046-.289q.184-1.181.342-2.364c.013-.1.026-.191.038-.286l.286,0,1.081.018.508.009.235,0Z" transform="translate(-1788.004 -2411.753)" fill="#3d111c"/>
          </g>
          <path id="Trazado_902315" data-name="Trazado 902315" d="M447.822,2462c-.025.294-.051.587-.077.881q-.368,4.111-.826,8.214-.354,3.179-.761,6.353l-.206,0-.221-.04q.177-1.373.343-2.747.5-4.1.9-8.205.215-2.171.4-4.343Z" transform="translate(-441.019 -2422.604)" fill="#3d111c"/>
          <path id="Trazado_902316" data-name="Trazado 902316" d="M595.724,1850.052c-2.039-1.142-4.069-2.3-6.021-3.589-1.2-.789-2.383-1.6-3.625-2.322-.62-.358-1.254-.692-1.906-.987a6.921,6.921,0,0,0-2.085-.641,6.209,6.209,0,0,0-3.9,1.313c-1.154.742-2.225,1.6-3.351,2.384a18.188,18.188,0,0,1-1.721,1.078c-.6.324-1.225.576-1.836.869a5.6,5.6,0,0,0-1.693,1.166,17.055,17.055,0,0,0-1.272,1.634,58.048,58.048,0,0,1-5.763,6.674.24.24,0,0,1-.071.048c-1.5,2.026-2.821,4.194-4.119,6.352a13.961,13.961,0,0,0-1.069,2.054,12.417,12.417,0,0,1-.857,2.07,4.261,4.261,0,0,1-1.342,1.344,7.112,7.112,0,0,1-2.088.78c-3.126.783-6.256,1.556-9.4,2.277s-6.3,1.385-9.475,1.933-6.355.975-9.559,1.232a.2.2,0,0,1-.107-.018l1.886-.488q4.339-1.12,8.681-2.236,4.316-1.121,8.618-2.3c2.864-.788,5.719-1.608,8.56-2.477l.4-.123.609-.187q.163-.277.327-.554,1.165-1.979,2.344-3.949,1.749-2.927,3.511-5.843l3.55-5.884,3.538-5.866.467-.777q.756-.4,1.528-.777c1.443-.7,2.914-1.348,4.389-1.981q2.328-1,4.659-2l4.71-2.019.1-.045.983.718,3.6,2.63,3.618,2.643,3.6,2.63,1.114.814.217,1.135Q595.6,1849.412,595.724,1850.052Z" transform="translate(-514.93 -1837.021)" fill="#3d111c"/>
        </g>
        <g id="Grupo_1113264" data-name="Grupo 1113264" transform="translate(12.942 47.79)">
          <path id="Trazado_902317" data-name="Trazado 902317" d="M609.332,2609.805a11.8,11.8,0,0,1-4.118,5.775,9.622,9.622,0,0,1-6.354,1.857l-3.945.332-3.139.265c-.97.082-1.941.168-2.905.21a12.081,12.081,0,0,1-5.26-.687,5.693,5.693,0,0,1-2.845-2.737,8.44,8.44,0,0,1-.686-4.221,17.169,17.169,0,0,1,.663-3.989A11.514,11.514,0,0,1,582.5,2603a9.684,9.684,0,0,1,3.341-2.849,10.5,10.5,0,0,1,4.48-1.116,9.653,9.653,0,0,1,1.43.069l.334-.012c1.542-.046,3.08-.052,4.614-.053,1.565,0,3.126.02,4.672.1a44.01,44.01,0,0,1,5.114.548.17.17,0,0,1,.087.04c.211.046.418.1.62.16a4.714,4.714,0,0,1,2.47,1.644,4.618,4.618,0,0,1,.824,2.447,10.05,10.05,0,0,1-.263,2.775A23.212,23.212,0,0,1,609.332,2609.805Z" transform="translate(-580.059 -2599.028)" fill="#e89b1f"/>
          <path id="Trazado_902318" data-name="Trazado 902318" d="M595,2612.68a9.332,9.332,0,0,1-2.19,3.338,9.693,9.693,0,0,1-3.717,2.1q-.242.077-.487.145c-.588.02-1.176.02-1.752-.012a9.454,9.454,0,0,1-3.243-.685c-.042-.018-.084-.037-.125-.058a5.4,5.4,0,0,1-.724-.4,5.718,5.718,0,0,1-2-2.276,8.441,8.441,0,0,1-.686-4.221,17.164,17.164,0,0,1,.663-3.989A11.52,11.52,0,0,1,582.5,2603a9.68,9.68,0,0,1,3.341-2.848,10.5,10.5,0,0,1,4.48-1.117c.141,0,.282,0,.422,0a9.515,9.515,0,0,1,1.008.071l.334-.012c.363-.011.726-.019,1.089-.026a5.137,5.137,0,0,1,.915.426,4.669,4.669,0,0,1,1.944,2.3,8.067,8.067,0,0,1,.521,3,20.026,20.026,0,0,1-.414,3.9A21.2,21.2,0,0,1,595,2612.68Z" transform="translate(-580.059 -2599.032)" fill="#e8b527"/>
          <path id="Trazado_902319" data-name="Trazado 902319" d="M631.7,2685.178a10.488,10.488,0,0,1-1.963,2.9,7.68,7.68,0,0,1-3.1,1.941,6.843,6.843,0,0,1-1.723.325,5.453,5.453,0,0,1-.724-.4,5.982,5.982,0,0,0,3.075-.565,7.376,7.376,0,0,0,2.613-2.062,11.03,11.03,0,0,0,1.609-2.736,9.727,9.727,0,0,0,.776-2.95,5.785,5.785,0,0,0-.412-2.79,3.8,3.8,0,0,0-.811-1.212,1.772,1.772,0,0,0-1.325-.617,1.965,1.965,0,0,0-1.18.587,4.8,4.8,0,0,0-.883,1.208,7.208,7.208,0,0,0-.946,3.2,2.006,2.006,0,0,0,.3,1.312,1.4,1.4,0,0,0,1.2.531,1.81,1.81,0,0,0,1.244-.7,3.314,3.314,0,0,0,.562-1.554.292.292,0,0,1,.291-.182.173.173,0,0,1,.186.2,6.16,6.16,0,0,1-.2.862,2.606,2.606,0,0,1-1.037,1.384,2.188,2.188,0,0,1-1.735.311c-1.295-.349-1.374-1.579-1.262-2.581a7.944,7.944,0,0,1,1.266-3.413,2.847,2.847,0,0,1,2.732-1.512,2.557,2.557,0,0,1,1.4.921,4.393,4.393,0,0,1,.769,1.342,6.378,6.378,0,0,1,.276,3.094A10.906,10.906,0,0,1,631.7,2685.178Z" transform="translate(-621.483 -2671.867)" fill="#e89b1f"/>
        </g>
        <g id="Grupo_1113265" data-name="Grupo 1113265" transform="translate(29.941 55.013)">
          <path id="Trazado_902320" data-name="Trazado 902320" d="M886.828,2727.707a11.8,11.8,0,0,1-4.118,5.776,9.62,9.62,0,0,1-6.354,1.857l-3.945.333-3.139.264c-.97.082-1.94.168-2.905.211a12.081,12.081,0,0,1-5.26-.687,5.692,5.692,0,0,1-2.845-2.737,8.444,8.444,0,0,1-.686-4.222,17.163,17.163,0,0,1,.663-3.989A11.519,11.519,0,0,1,860,2720.9a9.685,9.685,0,0,1,3.342-2.849,10.494,10.494,0,0,1,4.48-1.116,9.653,9.653,0,0,1,1.43.069l.334-.012c1.542-.046,3.08-.052,4.614-.053,1.565,0,3.126.02,4.672.1a44.014,44.014,0,0,1,5.114.548.169.169,0,0,1,.087.04c.211.046.418.1.62.16a4.715,4.715,0,0,1,2.469,1.643,4.62,4.62,0,0,1,.824,2.447,10.045,10.045,0,0,1-.263,2.775A23.231,23.231,0,0,1,886.828,2727.707Z" transform="translate(-857.555 -2716.929)" fill="#e89b1f"/>
          <path id="Trazado_902321" data-name="Trazado 902321" d="M872.5,2730.58a9.339,9.339,0,0,1-2.19,3.339,9.7,9.7,0,0,1-3.717,2.1c-.162.052-.324.1-.487.145-.588.02-1.176.02-1.752-.012a9.465,9.465,0,0,1-3.243-.685c-.042-.018-.084-.038-.125-.058a5.575,5.575,0,0,1-.724-.4,5.722,5.722,0,0,1-2-2.277,8.441,8.441,0,0,1-.686-4.221,17.161,17.161,0,0,1,.663-3.989A11.524,11.524,0,0,1,860,2720.9a9.688,9.688,0,0,1,3.342-2.849,10.491,10.491,0,0,1,4.48-1.116c.141,0,.282,0,.422,0a9.386,9.386,0,0,1,1.008.071l.334-.012c.363-.011.726-.019,1.089-.026a5.14,5.14,0,0,1,.915.426,4.671,4.671,0,0,1,1.945,2.3,8.069,8.069,0,0,1,.521,3,20.014,20.014,0,0,1-.414,3.9A21.184,21.184,0,0,1,872.5,2730.58Z" transform="translate(-857.555 -2716.932)" fill="#e8b527"/>
          <path id="Trazado_902322" data-name="Trazado 902322" d="M909.193,2803.078a10.481,10.481,0,0,1-1.963,2.9,7.674,7.674,0,0,1-3.1,1.941,6.811,6.811,0,0,1-1.723.325,5.432,5.432,0,0,1-.724-.4,5.981,5.981,0,0,0,3.075-.565,7.373,7.373,0,0,0,2.613-2.062,11.041,11.041,0,0,0,1.609-2.736,9.731,9.731,0,0,0,.776-2.951,5.783,5.783,0,0,0-.412-2.789,3.79,3.79,0,0,0-.811-1.213,1.769,1.769,0,0,0-1.325-.617,1.96,1.96,0,0,0-1.18.587,4.806,4.806,0,0,0-.884,1.207,7.211,7.211,0,0,0-.946,3.2,2.006,2.006,0,0,0,.3,1.312,1.4,1.4,0,0,0,1.2.531,1.811,1.811,0,0,0,1.244-.7,3.315,3.315,0,0,0,.562-1.554.291.291,0,0,1,.291-.182.173.173,0,0,1,.186.2,6.175,6.175,0,0,1-.2.862,2.606,2.606,0,0,1-1.038,1.384,2.187,2.187,0,0,1-1.735.311c-1.295-.349-1.374-1.579-1.262-2.581a7.94,7.94,0,0,1,1.266-3.413,2.846,2.846,0,0,1,2.732-1.512,2.554,2.554,0,0,1,1.4.921,4.389,4.389,0,0,1,.769,1.341,6.381,6.381,0,0,1,.276,3.094A10.907,10.907,0,0,1,909.193,2803.078Z" transform="translate(-898.978 -2789.768)" fill="#e89b1f"/>
        </g>
        <g id="Grupo_1113268" data-name="Grupo 1113268" transform="translate(127.204 32.306)">
          <g id="îÂ_ÏÂ__Ë_Ó_Â_Í_" data-name="îÂÏÂ_Ë_Ó‚Â˜Í‡">
            <g id="Grupo_1113267" data-name="Grupo 1113267">
              <path id="Trazado_902323" data-name="Trazado 902323" d="M2467.626,2346.269h-1.206c-.151,0-.276.075-.286.173l-.1.9-.008.078-.09.844h-.039l-.144,0-.19,0-1.311.02-.146,0-1.521.023h-.129l-.508.008-.142,0-.981.015-.134,0-.953.015-.135,0-1.522.023-.138,0-3.438.053-.161,0-1.256.02-.26,0-3.9.06-.117,0h-.015l.068-.635.011-.107.071-.667.008-.078.061-.572c.011-.107-.12-.2-.286-.2h-1.205c-.151,0-.276.075-.286.173l-.1.9-.008.078-.122,1.141-.011.1-.055.518-.009.084-.09.848a.169.169,0,0,0,.008.07l-.075.707-.009.078-.152,1.427-.008.079-.079.739-.122,1.149-.073.686-.009.083-.181,1.7-.009.079-.178,1.676-.009.087v0l-.008.075v0l-.011.1-.052.491-.009.083-.033.3-.051.485-.023.212-.012.113-.069.644-.008.078-.223,2.094-.01.1-.2,1.83c-.016.146.155.265.38.265h.964c.225,0,.42-.118.437-.265l.087-.82.011-.105.177-1.663.012-.111.148-1.386.01-.1.143-1.337c0-.03.041-.053.087-.054l2.178-.033.125,0,2.085-.032.138,0,4.578-.071.189,0,1.521-.023.207,0,2.5-.039.423-.006.962-.015.269,0,.749-.011.228,0,.76-.012h.042a.1.1,0,0,1,.083.033l0,.008a.037.037,0,0,1,0,.02l-.106,1-.012.119-.187,1.756-.008.078-.121,1.141-.011.1-.055.518-.009.084-.09.848c-.016.147.154.266.38.266h.963c.226,0,.421-.119.437-.266l.012-.116.018-.167.063-.585.01-.1.134-1.259.011-.107.071-.667.009-.078.2-1.9.013-.12.061-.569.007-.071,0-.04.1-.9.013-.129.01-.084.148-1.39.008-.075.032-.3.008-.076.154-1.447.01-.1.089-.837.034-.316.009-.086.073-.681.007-.066v-.013l.05-.462.01-.093.083-.775.01-.094.041-.389.011-.1.126-1.182.008-.082.035-.324.032-.3.023-.214,0-.025.006-.052.008-.07.014-.132.03-.289a.032.032,0,0,0,0-.018l.042-.39.011-.107.071-.667.008-.078.062-.572C2467.923,2346.36,2467.792,2346.269,2467.626,2346.269Zm-18.8,3.4.192,0,.124,0,3.616-.055.185,0,1.38-.021.162,0,1.332-.02.151,0,1.353-.021.12,0,2.125-.033.135,0,2.076-.032.131,0,1.033-.016.14,0,.72-.011h.016c.047,0,.077.032.075.06a.052.052,0,0,1-.034.042l-1.379.7-.127.064-1.444.736-.094.048-1.55.79-.107.055-2.156,1.1a.123.123,0,0,1-.047.012h-.005l-.195,0-2.965.045-.486.007-2.705.042-.131,0-2.009.031h-.043a.113.113,0,0,1-.073-.023.044.044,0,0,1-.018-.039l.026-.241.021-.2.179-1.686.031-.287.105-.987a.046.046,0,0,1,.017-.03.114.114,0,0,1,.07-.024Zm-.879,7.975c-.044,0-.086-.017-.095-.047a.048.048,0,0,1,0-.014l.123-1.152.02-.187.2-1.86a.049.049,0,0,1,.019-.032.11.11,0,0,1,.068-.022h.053l.3-.005.129,0,2.641-.041.15,0,1.2-.019.158,0,1.481-.023h.021c.046.006.074.034.071.062a.055.055,0,0,1-.034.041l-2.562,1.306-2.066,1.053h0l-1.828.932A.113.113,0,0,1,2447.946,2357.648Zm17.284-2.675-.011.109-.11,1.031-.011.1-.066.623-.008.078-.032.3-.011.1-.1.914v.011a.049.049,0,0,1-.019.032.111.111,0,0,1-.068.022h-.053l-.54.008-.13,0-6.31.1-.272,0-1.271.02-.27,0-1.631.025-.129,0-.51.007-.121,0-2.3.035-.158,0-.952.014-.119,0-.679.01h-.019c-.046-.005-.074-.032-.073-.06a.053.053,0,0,1,.034-.042l.6-.306.1-.05,1.131-.577.406-.207,4.272-2.178.121-.062,1.668-.85a.108.108,0,0,1,.05-.012h0l.194,0,1.278-.02.183,0,1.43-.022.136,0,1.617-.025.162,0,2.539-.039h.044a.114.114,0,0,1,.073.022.044.044,0,0,1,.018.039Zm.512-4.8-.008.073-.1.9-.01.087-.157,1.477-.011.1-.006.061a.059.059,0,0,1-.038.043.13.13,0,0,1-.05.011h-.095l-.162,0-1.1.017-.224,0-1.685.026-.154,0-1.744.027h0c-.05,0-.084-.023-.09-.05s.005-.039.033-.053l2.211-1.127.093-.047,2.847-1.452.186-.095.1-.051.017-.009a.118.118,0,0,1,.135.019.042.042,0,0,1,.01.026Z" transform="translate(-2445.249 -2346.269)" fill="#e89b1f"/>
              <g id="Grupo_1113266" data-name="Grupo 1113266" transform="translate(12.394 2.451)">
                <path id="Trazado_902324" data-name="Trazado 902324" d="M2779.243,2386.282l-.008.07-.005.052-.295.2q-.463.318-.934.632-.349.232-.7.462a.119.119,0,0,0-.135-.019l-.017.009.36-.234q.474-.311.941-.628Q2778.849,2386.557,2779.243,2386.282Z" transform="translate(-2769.209 -2386.282)" fill="#3d111c"/>
                <path id="Trazado_902325" data-name="Trazado 902325" d="M2650.124,2455.454l-.263.13-.1.049-.028.014q-.59.292-1.176.587-.4.2-.8.4l-.194,0h0l.4-.2q.6-.3,1.209-.607l.579-.287.122-.061.163-.08c.006.027.04.051.09.05Z" transform="translate(-2647.562 -2451.17)" fill="#3d111c"/>
                <path id="Trazado_902326" data-name="Trazado 902326" d="M2770.9,2454.746c0,.032-.007.064-.01.1l-.075.767-.031.32a.11.11,0,0,0-.073-.022h-.044q.036-.367.072-.733c.014-.138.027-.277.041-.416h.07A.128.128,0,0,0,2770.9,2454.746Z" transform="translate(-2763.125 -2450.552)" fill="#3d111c"/>
              </g>
              <path id="Trazado_902327" data-name="Trazado 902327" d="M2501.884,2383.091c0,.022,0,.044-.006.066q-.047.506-.094,1.011c0,.024,0,.048-.007.071h-.051a.112.112,0,0,0-.07.023q.031-.335.062-.67c.016-.167.031-.334.047-.5h0Z" transform="translate(-2498.201 -2380.836)" fill="#3d111c"/>
              <path id="Trazado_902328" data-name="Trazado 902328" d="M2776.485,2346.821h-1.206c-.151,0-.276.075-.286.173l-.1.9-.008.078-.09.844h-.039l-.144,0-.191,0-1.311.02-.146,0-1.521.023-.13,0-.508.008-.142,0-.982.015-.134,0-.953.015-.135,0-1.522.023-.138,0-3.438.053-.161,0-1.256.02-.26,0-3.9.06-.117,0h-.015l.068-.635.011-.107.071-.667.008-.078.061-.573c.011-.107-.12-.2-.286-.2h-1.205c-.151,0-.276.075-.286.173l-.1.9-.008.078-.121,1.141-.011.1-.055.517-.009.084-.09.848a.166.166,0,0,0,.008.07l-.075.707-.009.078-.152,1.427-.008.079-.079.739-.122,1.149-.073.685-.009.083-.182,1.7-.008.078-.178,1.676-.01.087h0l-.008.075v0l-.011.1-.052.491-.009.083-.032.3-.052.485-.023.213-.012.113-.069.644-.008.078-.223,2.094-.01.1-.2,1.829c-.015.146.155.265.38.265h.964c.225,0,.42-.119.436-.265l.087-.82.011-.106.177-1.663.012-.111.148-1.387.011-.1.142-1.337c0-.03.041-.053.087-.053l2.178-.033.126,0,2.084-.032.138,0,4.578-.07.19,0,1.521-.023.207,0,2.495-.038.424-.007.962-.015.269,0,.749-.011.229,0,.76-.011h.042a.1.1,0,0,1,.083.033l0,.008a.039.039,0,0,1,0,.02l-.106,1-.012.119-.187,1.756-.009.077-.121,1.141-.011.1-.055.518-.009.084-.09.848c-.016.146.154.265.38.265h.963c.225,0,.421-.119.437-.265l.012-.117.018-.166.062-.585.01-.1.134-1.259.011-.107.071-.668.008-.077.2-1.9.012-.12.061-.57.008-.071,0-.04.1-.9.014-.129.009-.085.148-1.39.008-.076.032-.3.008-.077.154-1.446.01-.1.089-.837.034-.316.009-.085.073-.681.007-.066v-.013l.049-.461.01-.093.082-.775.01-.094.041-.389.011-.1.125-1.182.009-.082.035-.325.032-.3.023-.214,0-.025.006-.052.008-.07.014-.132.03-.289a.042.042,0,0,0,0-.018l.041-.389.011-.107.072-.667.008-.078.061-.573C2776.783,2346.912,2776.652,2346.821,2776.485,2346.821Zm-18.8,3.4.192,0,.125,0,3.616-.056.184,0,1.381-.021.162,0,1.332-.02.151,0,1.354-.021.119,0,2.125-.032.135,0,2.076-.032.131,0,1.033-.016.14,0,.721-.011h.016c.047,0,.077.032.075.06a.054.054,0,0,1-.034.042l-1.379.7-.127.065-1.444.736-.093.048-1.55.79-.107.055-2.156,1.1a.119.119,0,0,1-.048.012h-.005l-.194,0-2.965.046-.486.007-2.706.041-.131,0-2.009.031h-.043a.113.113,0,0,1-.073-.023.044.044,0,0,1-.018-.038l.025-.241.021-.2.179-1.685.031-.287.105-.988a.046.046,0,0,1,.017-.03.109.109,0,0,1,.07-.023Zm-.879,7.975c-.044,0-.087-.017-.095-.047a.039.039,0,0,1,0-.015l.123-1.152.02-.187.2-1.86a.048.048,0,0,1,.019-.031.11.11,0,0,1,.068-.022h.053l.3,0,.129,0,2.642-.041.15,0,1.2-.018.158,0,1.481-.023h.021c.046.006.073.033.071.061a.054.054,0,0,1-.034.041l-2.562,1.307-2.066,1.053h0l-1.828.932A.113.113,0,0,1,2756.806,2358.2Zm17.284-2.675-.012.109-.11,1.031-.01.1-.066.623-.009.078-.032.3-.011.1-.1.914v.012a.048.048,0,0,1-.019.032.113.113,0,0,1-.068.022h-.053l-.54.008-.13,0-6.309.1-.272,0-1.271.02-.27,0-1.631.025-.129,0-.51.008-.122,0-2.295.035-.158,0-.952.015-.119,0-.679.01h-.019c-.046-.005-.075-.032-.073-.06a.054.054,0,0,1,.034-.042l.6-.306.1-.051,1.131-.577.406-.207,4.271-2.178.121-.062,1.667-.85a.116.116,0,0,1,.051-.012h0l.194,0,1.278-.02.183,0,1.431-.022.136,0,1.617-.025.162,0,2.538-.039h.044a.114.114,0,0,1,.073.022.043.043,0,0,1,.018.039Zm.511-4.8-.008.073-.1.9-.009.087-.157,1.477-.011.1-.007.061a.057.057,0,0,1-.037.043.127.127,0,0,1-.05.011h-.095l-.162,0-1.1.017-.224,0-1.685.026-.154,0-1.744.027h0c-.05,0-.084-.023-.09-.05s.005-.039.033-.053l2.21-1.127.093-.047,2.847-1.452.186-.094.1-.052.017-.008a.118.118,0,0,1,.135.019.042.042,0,0,1,.009.026A.024.024,0,0,1,2774.6,2350.722Z" transform="translate(-2735.187 -2346.787)" fill="#e89b1f"/>
              <path id="Trazado_902329" data-name="Trazado 902329" d="M3088.1,2386.833l-.007.07-.006.052-.295.2q-.463.319-.934.632-.349.233-.7.462a.117.117,0,0,0-.135-.019l-.017.008.361-.234q.475-.311.941-.628Q3087.708,2387.109,3088.1,2386.833Z" transform="translate(-3046.753 -2384.348)" fill="#3d111c"/>
              <path id="Trazado_902330" data-name="Trazado 902330" d="M2958.983,2456.005l-.263.129-.1.049-.028.014q-.59.292-1.176.587l-.8.4-.195,0h0l.4-.2q.6-.305,1.208-.607l.579-.287.122-.06.163-.081c.006.027.04.051.09.05Z" transform="translate(-2925.107 -2449.236)" fill="#3d111c"/>
              <path id="Trazado_902331" data-name="Trazado 902331" d="M3079.758,2455.3c0,.032-.006.064-.009.1q-.038.384-.075.767l-.032.32a.111.111,0,0,0-.073-.023h-.044q.036-.367.072-.733c.013-.138.027-.277.041-.415h.071A.126.126,0,0,0,3079.758,2455.3Z" transform="translate(-3040.669 -2448.618)" fill="#3d111c"/>
              <path id="Trazado_902332" data-name="Trazado 902332" d="M2810.743,2383.644c0,.021,0,.044-.007.065q-.047.506-.094,1.012c0,.024,0,.047-.007.071h-.052a.11.11,0,0,0-.069.023q.031-.335.062-.67.023-.25.047-.5h0Z" transform="translate(-2788.139 -2381.354)" fill="#3d111c"/>
              <path id="Trazado_902333" data-name="Trazado 902333" d="M3084.632,2346.821h-1.206c-.15,0-.275.075-.285.173l-.1.9-.008.078-.09.844h-.039l-.144,0-.19,0-1.311.02-.147,0-1.521.023-.129,0-.508.008-.141,0-.981.015-.134,0-.953.015-.135,0-1.522.023-.139,0-3.438.053-.161,0-1.256.02-.26,0-3.9.06-.117,0h-.015l.068-.635.011-.107.071-.667.009-.078.061-.573c.011-.107-.12-.2-.286-.2h-1.206c-.15,0-.275.075-.286.173l-.1.9-.008.078-.121,1.141-.011.1-.055.517-.009.084-.09.848a.174.174,0,0,0,.008.07l-.075.707-.008.078-.152,1.427-.008.079-.079.739-.122,1.149-.073.685-.009.083-.181,1.7-.009.078-.178,1.676-.009.087h0l-.008.075v0l-.011.1-.053.491-.009.083-.032.3-.052.485-.022.213-.012.113-.069.644-.008.078-.223,2.094-.01.1-.2,1.829c-.015.146.155.265.38.265h.964c.225,0,.421-.119.436-.265l.087-.82.011-.106.177-1.663.012-.111.148-1.387.011-.1.143-1.337c0-.03.041-.053.087-.053l2.178-.033.125,0,2.085-.032.138,0,4.578-.07.19,0,1.521-.023.207,0,2.5-.038.423-.007.962-.015.268,0,.749-.011.228,0,.76-.011h.042a.1.1,0,0,1,.083.033.063.063,0,0,1,0,.008.036.036,0,0,1,0,.02l-.106,1-.013.119-.187,1.756-.008.077-.121,1.141-.011.1-.055.518-.009.084-.09.848c-.016.146.154.265.38.265h.963c.226,0,.422-.119.437-.265l.012-.117.018-.166.063-.585.01-.1.134-1.259.012-.107.071-.668.008-.077.2-1.9.013-.12.06-.57.008-.071,0-.04.1-.9.014-.129.009-.085.148-1.39.008-.076.033-.3.008-.077.154-1.446.01-.1.089-.837.034-.316.009-.085.073-.681.007-.066v-.013l.05-.461.009-.093.083-.775.01-.094.042-.389.01-.1.126-1.182.008-.082.035-.325.032-.3.023-.214,0-.025.006-.052.007-.07.014-.132.03-.289a.036.036,0,0,0,0-.018l.042-.389.011-.107.071-.667.009-.078.061-.573C3084.93,2346.912,3084.8,2346.821,3084.632,2346.821Zm-18.8,3.4.192,0,.125,0,3.617-.056.184,0,1.38-.021.162,0,1.332-.02.151,0,1.354-.021.12,0,2.125-.032.134,0,2.076-.032.131,0,1.033-.016.141,0,.72-.011h.016c.048,0,.077.032.075.06a.052.052,0,0,1-.034.042l-1.379.7-.127.065-1.444.736-.093.048-1.55.79-.107.055-2.156,1.1a.114.114,0,0,1-.047.012h-.005l-.194,0-2.965.046-.486.007-2.706.041-.13,0-2.009.031h-.043a.113.113,0,0,1-.073-.023.044.044,0,0,1-.018-.038l.025-.241.021-.2.179-1.685.031-.287.105-.988a.046.046,0,0,1,.017-.03.109.109,0,0,1,.07-.023Zm-.879,7.975c-.044,0-.086-.017-.095-.047a.05.05,0,0,1,0-.015l.123-1.152.02-.187.2-1.86a.049.049,0,0,1,.019-.031.109.109,0,0,1,.068-.022h.053l.305,0,.129,0,2.641-.041.15,0,1.2-.018.158,0,1.481-.023h.02c.046.006.074.033.071.061a.055.055,0,0,1-.034.041l-2.562,1.307-2.066,1.053h0l-1.828.932A.113.113,0,0,1,3064.953,2358.2Zm17.284-2.675-.012.109-.11,1.031-.01.1-.066.623-.009.078-.032.3-.011.1-.1.914v.012a.049.049,0,0,1-.019.032.114.114,0,0,1-.068.022h-.053l-.541.008-.13,0-6.309.1-.272,0-1.271.02-.271,0-1.631.025-.129,0-.51.008-.122,0-2.295.035-.158,0-.953.015-.119,0-.679.01h-.019c-.047-.005-.075-.032-.073-.06a.053.053,0,0,1,.034-.042l.6-.306.1-.051,1.131-.577.406-.207,4.271-2.178.121-.062,1.668-.85a.112.112,0,0,1,.05-.012h0l.194,0,1.278-.02.183,0,1.43-.022.136,0,1.617-.025.162,0,2.539-.039h.044a.112.112,0,0,1,.072.022.046.046,0,0,1,.019.039Zm.511-4.8-.008.073-.1.9-.01.087-.157,1.477-.011.1-.007.061a.058.058,0,0,1-.037.043.127.127,0,0,1-.05.011h-.094l-.162,0-1.1.017-.224,0-1.685.026-.154,0-1.744.027h0c-.05,0-.084-.023-.09-.05s.005-.039.033-.053l2.21-1.127.093-.047,2.846-1.452.187-.094.1-.052.017-.008a.117.117,0,0,1,.135.019.038.038,0,0,1,.01.026A.024.024,0,0,1,3082.748,2350.722Z" transform="translate(-3024.457 -2346.787)" fill="#e89b1f"/>
              <path id="Trazado_902334" data-name="Trazado 902334" d="M3396.25,2386.833l-.008.07-.006.052-.294.2q-.463.319-.933.632-.35.233-.7.462a.117.117,0,0,0-.135-.019l-.017.008.361-.234q.475-.311.941-.628Q3395.855,2387.109,3396.25,2386.833Z" transform="translate(-3336.023 -2384.348)" fill="#3d111c"/>
              <path id="Trazado_902335" data-name="Trazado 902335" d="M3267.13,2456.005l-.263.129-.1.049-.028.014q-.59.292-1.176.587l-.8.4-.194,0h0l.4-.2q.6-.305,1.208-.607l.579-.287.122-.06.164-.081c.005.027.04.051.09.05Z" transform="translate(-3214.376 -2449.236)" fill="#3d111c"/>
              <path id="Trazado_902336" data-name="Trazado 902336" d="M3387.906,2455.3c0,.032-.006.064-.01.1l-.075.767-.031.32a.113.113,0,0,0-.073-.023h-.044l.072-.733.041-.415h.07A.126.126,0,0,0,3387.906,2455.3Z" transform="translate(-3329.94 -2448.618)" fill="#3d111c"/>
              <path id="Trazado_902337" data-name="Trazado 902337" d="M3118.891,2383.644c0,.021,0,.044-.006.065q-.047.506-.094,1.012c0,.024,0,.047-.007.071h-.051a.11.11,0,0,0-.07.023q.031-.335.062-.67.023-.25.047-.5h0Z" transform="translate(-3077.409 -2381.354)" fill="#3d111c"/>
            </g>
          </g>
        </g>
        <path id="Trazado_902338" data-name="Trazado 902338" d="M1674.686,1963.738a3.468,3.468,0,0,1,1.5,2.348c.48,1.86,4.021,19.445,3.6,20.046s-.742.108-1.058-1.386c-.72-3.409-3.9-19.44-3.9-19.44Z" transform="translate(-1594.687 -1954.866)" fill="#f5dfd1"/>
        <g id="Grupo_1113269" data-name="Grupo 1113269" transform="translate(167.142 48.846)">
          <path id="Trazado_902339" data-name="Trazado 902339" d="M3126.463,2627.048a11.8,11.8,0,0,1-4.118,5.775,9.619,9.619,0,0,1-6.354,1.857l-3.946.333-3.139.265c-.969.082-1.94.168-2.905.21a12.069,12.069,0,0,1-5.26-.687,5.69,5.69,0,0,1-2.845-2.737,8.439,8.439,0,0,1-.686-4.221,17.138,17.138,0,0,1,.663-3.989,11.53,11.53,0,0,1,1.761-3.616,9.69,9.69,0,0,1,3.342-2.849,10.5,10.5,0,0,1,4.48-1.116,9.55,9.55,0,0,1,1.43.07l.334-.013c1.542-.046,3.08-.051,4.614-.053,1.566,0,3.126.02,4.672.1a44.025,44.025,0,0,1,5.114.548.168.168,0,0,1,.087.04c.21.045.418.1.62.16a4.718,4.718,0,0,1,2.47,1.643,4.62,4.62,0,0,1,.824,2.448,10.056,10.056,0,0,1-.263,2.775A23.31,23.31,0,0,1,3126.463,2627.048Z" transform="translate(-3097.19 -2616.27)" fill="#e89b1f"/>
          <path id="Trazado_902340" data-name="Trazado 902340" d="M3112.132,2629.921a9.332,9.332,0,0,1-2.19,3.338,9.69,9.69,0,0,1-3.717,2.1q-.243.078-.487.146c-.588.02-1.176.02-1.752-.012a9.448,9.448,0,0,1-3.243-.686c-.042-.018-.085-.037-.125-.057a5.47,5.47,0,0,1-.724-.4,5.726,5.726,0,0,1-2-2.277,8.44,8.44,0,0,1-.686-4.221,17.134,17.134,0,0,1,.663-3.989,11.531,11.531,0,0,1,1.761-3.616,9.687,9.687,0,0,1,3.342-2.849,10.5,10.5,0,0,1,4.48-1.116c.141,0,.281,0,.422,0a9.445,9.445,0,0,1,1.008.071l.334-.012c.363-.011.726-.019,1.089-.026a5.129,5.129,0,0,1,.915.426,4.67,4.67,0,0,1,1.945,2.3,8.07,8.07,0,0,1,.521,3,20.016,20.016,0,0,1-.414,3.9A21.193,21.193,0,0,1,3112.132,2629.921Z" transform="translate(-3097.19 -2616.273)" fill="#e8b527"/>
          <path id="Trazado_902341" data-name="Trazado 902341" d="M3148.828,2702.421a10.485,10.485,0,0,1-1.963,2.9,7.68,7.68,0,0,1-3.1,1.941,6.811,6.811,0,0,1-1.723.324,5.406,5.406,0,0,1-.724-.4,5.986,5.986,0,0,0,3.075-.565,7.39,7.39,0,0,0,2.613-2.062,11.05,11.05,0,0,0,1.609-2.736,9.729,9.729,0,0,0,.776-2.951,5.785,5.785,0,0,0-.412-2.789,3.8,3.8,0,0,0-.812-1.213,1.771,1.771,0,0,0-1.325-.617,1.967,1.967,0,0,0-1.18.588,4.8,4.8,0,0,0-.883,1.207,7.212,7.212,0,0,0-.946,3.2,2,2,0,0,0,.3,1.311,1.4,1.4,0,0,0,1.2.532,1.81,1.81,0,0,0,1.244-.7,3.318,3.318,0,0,0,.562-1.555.291.291,0,0,1,.291-.182.173.173,0,0,1,.187.2,6.221,6.221,0,0,1-.2.862,2.607,2.607,0,0,1-1.038,1.384,2.184,2.184,0,0,1-1.735.311c-1.295-.348-1.374-1.579-1.262-2.581a7.951,7.951,0,0,1,1.266-3.413,2.847,2.847,0,0,1,2.731-1.512,2.554,2.554,0,0,1,1.4.922,4.388,4.388,0,0,1,.77,1.341,6.377,6.377,0,0,1,.276,3.094A10.909,10.909,0,0,1,3148.828,2702.421Z" transform="translate(-3138.613 -2689.11)" fill="#e89b1f"/>
        </g>
      </g>
      <g id="woman" transform="translate(85.738 31.12)">
        <path id="Trazado_902342" data-name="Trazado 902342" d="M2624.333,2043.027s-2.905-10.1-3.614-12.09-7.634,2.673-7.634,2.673v5.846l2.375,6.771Z" transform="translate(-2562.33 -1956.2)" fill="#fa9385"/>
        <g id="Grupo_1113270" data-name="Grupo 1113270" transform="translate(49.556 55.75)">
          <path id="Trazado_902343" data-name="Trazado 902343" d="M2641.055,1729.8l-.036.1a.583.583,0,0,0-.581-.36l-38.011-.073a1.207,1.207,0,0,0-1.081.789l-1.771,5.582-5.154,16.244a.609.609,0,0,0,.076.57l-.111.046c-.45-.32-.98-1.143-.869-1.489l5.359-16.889,1.567-4.938a1.206,1.206,0,0,1,1.081-.788l38.011.072C2639.99,1728.663,2641.192,1729.363,2641.055,1729.8Z" transform="translate(-2593.501 -1728.589)" fill="#260b12"/>
          <path id="Trazado_902344" data-name="Trazado 902344" d="M2608.291,2121.486h-.037a.59.59,0,0,1-.316-.131l.111-.046A.556.556,0,0,0,2608.291,2121.486Z" transform="translate(-2607.053 -2097.252)" fill="#260b12"/>
          <path id="Trazado_902345" data-name="Trazado 902345" d="M2654.542,1743.274l-7.831,21.384a1.207,1.207,0,0,1-1.081.789l-37.368.755a.552.552,0,0,1-.242-.176.607.607,0,0,1-.076-.57l5.154-16.244,1.771-5.582a1.208,1.208,0,0,1,1.082-.789l38.012.073A.582.582,0,0,1,2654.542,1743.274Z" transform="translate(-2607.025 -1741.967)" fill="#3d111c"/>
          <path id="Trazado_902346" data-name="Trazado 902346" d="M2659.98,1750.346l-6.924,21.826a1.207,1.207,0,0,1-1.081.789l-38.012-.072a.74.74,0,0,1-.262-.046l37.368-.755a1.207,1.207,0,0,0,1.081-.789l7.831-21.384A.665.665,0,0,1,2659.98,1750.346Z" transform="translate(-2612.463 -1748.609)" fill="#3d111c"/>
        </g>
        <path id="Trazado_902347" data-name="Trazado 902347" d="M2678.954,1938.92c0,1.476-1.438,2.567-2.385,3.664a5.026,5.026,0,0,1-.918.871c-.475.382-1.111.854-1.875,1.392l-.013.009q-.637.447-1.383.954c-.006,0-.011-.011-.018-.015-3.754,2.5-19.411,13.036-32.007,13.588-.806-1.963.2-4.177.092-6.254.045-.585-.072-3.74,0-4.682,2.661-2.9,24.39-4.867,27.942-6.479l.017.019a6.7,6.7,0,0,1,.733-2.3c-.474-2.175-2.855-3.374-3.889-5.274-.73-1.01.086-1.476,1.093-.962,1.3,1.213,2.485,2.55,3.921,3.665a6.918,6.918,0,0,1,1.363,1.668c.125.345.4.5.733.129-1.609-2.45-4.558-3.927-6.2-6.348-.2-.429-.341-1.344.356-1.5,1.947-.08,3.646,2.546,5.262,3.451a9.224,9.224,0,0,1,2.75,2.521c.048-.057.094-.114.143-.172a21.12,21.12,0,0,1-1.413-2.834c-1.2-1.45-2.71-2.653-3.848-4.142-.691-.786.077-1.819,1.1-1.233A19.552,19.552,0,0,1,2673,1930.7a11.208,11.208,0,0,1,4.035,4.242,15.653,15.653,0,0,1,.689-1.7,18.516,18.516,0,0,1-.72-1.958c-.987-.574-4.26-3.854-1.756-4.219a10.559,10.559,0,0,1,4.234,4.566C2681.1,1933.885,2679.755,1936.561,2678.954,1938.92Z" transform="translate(-2587.633 -1859.164)" fill="#fa9385"/>
        <path id="Trazado_902348" data-name="Trazado 902348" d="M3104.458,2179.017a3.567,3.567,0,0,1-.895-.865,3.2,3.2,0,0,1-.3-.507c-.094-.2-.141-.423-.25-.616s-.469-.052-.357.148.159.427.258.633a3.721,3.721,0,0,0,.34.567,3.847,3.847,0,0,0,.966.926C3104.421,2179.437,3104.655,2179.15,3104.458,2179.017Z" transform="translate(-3021.892 -2093.719)" fill="#bf4134"/>
        <path id="Trazado_902349" data-name="Trazado 902349" d="M3246.071,2055.944l.385,2.543c.034.223.418.166.384-.058l-.385-2.544C3246.422,2055.663,3246.037,2055.721,3246.071,2055.944Z" transform="translate(-3156.536 -1979.953)" fill="#bf4134"/>
        <path id="Trazado_902350" data-name="Trazado 902350" d="M3209.907,2090.883c-.1-.2-.458-.057-.357.148a7.335,7.335,0,0,1,.588,1.661c.048.219.433.163.384-.058A7.756,7.756,0,0,0,3209.907,2090.883Z" transform="translate(-3122.238 -2012.847)" fill="#bf4134"/>
        <path id="Trazado_902351" data-name="Trazado 902351" d="M3175.064,2120.99a.2.2,0,0,0-.255-.085.177.177,0,0,0-.1.234,14.035,14.035,0,0,1,.435,1.444.19.19,0,0,0,.218.145.187.187,0,0,0,.166-.2A14.8,14.8,0,0,0,3175.064,2120.99Z" transform="translate(-3089.535 -2041.108)" fill="#bf4134"/>
        <g id="îÂ_ÏÂ__Ò_ÍÛÍÛ_ÛÁÓÈ" data-name="îÂÏÂ_Ò_ÍÛÍÛÛÁÓÈ" transform="translate(0 0)">
          <g id="Grupo_1113271" data-name="Grupo 1113271" transform="translate(100.051 76.79)">
            <path id="Trazado_902352" data-name="Trazado 902352" d="M3417.77,2072.042v0l0,0Z" transform="translate(-3417.767 -2072.042)" fill="#707c3d"/>
          </g>
          <path id="Trazado_902353" data-name="Trazado 902353" d="M1836.4,872.262a4.514,4.514,0,0,1-4.928,2.194c-.059.144-.12.289-.187.43a5.368,5.368,0,0,1-.747,1.231,1.878,1.878,0,0,1-1.12.678.9.9,0,0,1-.933-.567c-.076-.165-.129-.338-.194-.507a1.172,1.172,0,0,0-.1-.208.357.357,0,0,0-.109-.111.24.24,0,0,0-.28.008s-.035.032-.04.037-.026.028-.038.044h0c0,.007-.034.055-.04.066a1.026,1.026,0,0,0-.093.207,10.379,10.379,0,0,0-.206,1.137,4.08,4.08,0,0,1-1.3,2.137,4.792,4.792,0,0,1-2.3,1.127,5.511,5.511,0,0,1-2.844-.281,7.334,7.334,0,0,1-2.508-1.566c-.2-.191-.393-.4-.584-.606a6.17,6.17,0,0,1-1.651-.528,10.474,10.474,0,0,0-1.693-.794,2.673,2.673,0,0,0-1.816.22c-.572.259-1.093.61-1.638.917a10.463,10.463,0,0,1-1.722.776,10.7,10.7,0,0,1-3.731.585,10.467,10.467,0,0,1-1.879-.212c-.664-.136-1.311-.345-1.964-.526a8.174,8.174,0,0,0-2.032-.362,5.456,5.456,0,0,0-1.946.368c-.625.224-1.227.5-1.848.737a11.456,11.456,0,0,1-1.915.534,9.715,9.715,0,0,1-3.943-.04,7.226,7.226,0,0,1-5.025-4.016,5.975,5.975,0,0,1-.406-3.307,8.223,8.223,0,0,1,1.362-3.289,13.015,13.015,0,0,1,2.6-2.762c.49-.4,1-.78,1.52-1.147,6.484-4.309,12.905-9.779,15.109-17.58.253-.744.49-1.5.715-2.261s.44-1.531.648-2.3a9.258,9.258,0,0,1,2.275-3.868,12.979,12.979,0,0,1,1.562-1.458c3.337-2.643,7.854-3.718,12.009-3.737a9.823,9.823,0,0,1,1.98.367,9.27,9.27,0,0,1,5.927,5.086,14.278,14.278,0,0,1,.792,2.018,18.064,18.064,0,0,1,.753,4.266c.084.762.146,1.532.2,2.3.074,1.016.14,2.034.231,3.05q.282,1.672.564,3.345c.224,1.325.451,2.653.787,3.957a23.478,23.478,0,0,0,1.345,3.732c.527,1.177,1.088,2.343,1.517,3.56C1837.3,867.514,1837.663,870.19,1836.4,872.262Z" transform="translate(-1784.557 -832.729)" fill="#993b28"/>
          <g id="Grupo_1113272" data-name="Grupo 1113272" transform="translate(40.297 54.378)">
            <path id="Trazado_902354" data-name="Trazado 902354" d="M2452.5,1731.66c-.465.189-.934.371-1.4.565a8.44,8.44,0,0,0-4.164,3.05,3.938,3.938,0,0,0-.521,1.291,3.34,3.34,0,0,0-.062.827,3.55,3.55,0,0,0,.078.591q-1-3.222-1.775-6.51-.882-3.736-1.471-7.533-.3-1.9-.517-3.819c-.133-1.147-.251-2.3-.3-3.453a13.115,13.115,0,0,1,1.092-6.4,7.531,7.531,0,0,1,4.215-3.822,5.331,5.331,0,0,1,2.8-.146,6.435,6.435,0,0,1,2.546,1.231,13.377,13.377,0,0,1,3.683,5.142q.141.3.28.6l-5.359,16.888C2451.522,1730.517,2452.052,1731.34,2452.5,1731.66Z" transform="translate(-2442.359 -1706.183)" fill="#f5dfd1"/>
          </g>
          <path id="Trazado_902355" data-name="Trazado 902355" d="M1926.6,1452.853a5.828,5.828,0,0,1-1.065,2.467,4.41,4.41,0,0,1-1.942,1.325,16,16,0,0,1-5.219.557q-.833.016-1.667.027l-1.666.019c-8.541.473-17.023-.082-25.615-.15-.758.01-1.516.015-2.271.01a36.327,36.327,0,0,1-11.085-1.476,4.344,4.344,0,0,1-1.2-1.011,7.512,7.512,0,0,1-1.415-4.363,35.328,35.328,0,0,1,.027-3.677q.089-1.956.312-3.9a58.089,58.089,0,0,1,3.88-15.262c1.767-4.35,4.282-8.453,5.491-13.01,0-.112.1-2.87.2-5.882a36.9,36.9,0,0,0-1.054-6.259,51.113,51.113,0,0,0-5.942-13.628,38.39,38.39,0,0,1-3.578-6.99,19.069,19.069,0,0,1-1.21-7.109,9.708,9.708,0,0,1,2.442-6.289,17.563,17.563,0,0,1,5.622-3.622q5.509-2.561,11.18-4.757l1.81-.875q.241-4.211.376-8.428.113-3.6.147-7.208c0-.135,0-.269,0-.405.077.018.153.036.228.053l.167.036c.415.09.83.178,1.246.264l.15.031.575.117q2.156.433,4.323.8,1.169.2,2.342.377l.4.06c0,.133.006.266.01.4q.024,1.049.054,2.1.019.711.041,1.422.045,1.449.1,2.9.036.976.078,1.953.1,2.41.229,4.82c.013.254.028.508.042.763l.04.036.368.339,5.578,2.953,2.907,1.539c.84.445,1.689.879,2.516,1.35a10.541,10.541,0,0,1,3.656,3.032,5.381,5.381,0,0,1,.9,2.357,7.884,7.884,0,0,1,.039,1.58c-.068,1.35-.878,2.566-.743,3.849.81,7.225.81,14.382,1.08,21.606a27.187,27.187,0,0,0,.165,3.25,24.621,24.621,0,0,1,.14,3.306q-.031.919-.067,1.839-.142,3.677-.359,7.349l-.019.312c.238,1.178.515,2.349.822,3.511.775,2.934,1.725,5.819,2.66,8.706.941,2.905,1.871,5.817,2.6,8.784a53.082,53.082,0,0,1,1.284,7.468,29.406,29.406,0,0,1,.44,4.894A26.542,26.542,0,0,1,1926.6,1452.853Z" transform="translate(-1866.242 -1310.826)" fill="#fa9385"/>
          <path id="Trazado_902356" data-name="Trazado 902356" d="M1903.59,1688.894c-3.124,0-6.233-.139-9.15-.281l-.264-.013a80.093,80.093,0,0,1-8.54-.721,28.214,28.214,0,0,1-5.053-1.239l-.079-.028.032-.077c.051-.12.1-.241.148-.362a29.954,29.954,0,0,0,1.179-3.487c0-.222.09-2.685.2-5.87a36.881,36.881,0,0,0-1.051-6.241,50.78,50.78,0,0,0-5.933-13.607,38.438,38.438,0,0,1-3.584-7.005,18.9,18.9,0,0,1-1.214-7.139,9.735,9.735,0,0,1,2.463-6.34,17.7,17.7,0,0,1,5.646-3.64c2.954-1.374,6-2.692,9.054-3.918l.438-.175.037.043a13.36,13.36,0,0,0,3.313,2.628,17.057,17.057,0,0,0,5.032,2.081,12.018,12.018,0,0,0,2.613.3,9.487,9.487,0,0,0,2.466-.313,8.8,8.8,0,0,0,3.822-2.14,7.376,7.376,0,0,0,1.208-1.506l.039-.065.419.222,1.116.591c.853.451,2.921,1.518,2.921,1.518,4.017,1.117,7.6,4.494,7.528,8.815,0,5.672-.743,11.411-.3,17.1q.07,1.221.151,2.442c.056.8.113,1.586.159,2.375s.088,1.575.112,2.364q.06,1.236.08,2.469t-.009,2.469q.013,1.225,0,2.445c-.026,2.441-.129,4.874-.268,7.311q-.049.916-.1,1.828l-.018.3c.225,1.115.5,2.291.819,3.5.091.343.186.692.283,1.038.035.128.07.255.107.382l.022.076-.076.022a45.586,45.586,0,0,1-6.455,1.311,70.555,70.555,0,0,1-9.182.546Z" transform="translate(-1865.022 -1579.117)" fill="#f5dfd1"/>
          <path id="Trazado_902357" data-name="Trazado 902357" d="M1941.756,1716.94a15.83,15.83,0,0,1-.9,3.326,11.545,11.545,0,0,1-1.383,2.89,4.58,4.58,0,0,1-2.141,1.539,10.074,10.074,0,0,1-2.708.508c-1.135.086-2.277.117-3.414.161q-6.784.264-13.575.22l-.448,0-.584,0q-5.762-.057-11.518-.336h-.054l-.445.008c-2.156.025-4.312-.045-6.467-.15-1.069-.052-2.138-.112-3.207-.174a16.878,16.878,0,0,1-3.118-.373,6.46,6.46,0,0,1-1.258-.455.934.934,0,0,0-.1-.039c-.1-.032-.194-.065-.29-.1-.137-.052-.273-.111-.4-.176a4.419,4.419,0,0,1-.579-.338,4.914,4.914,0,0,1-1.62-2.035,14.487,14.487,0,0,1-.92-2.753,21.3,21.3,0,0,1-.485-5.852,40.59,40.59,0,0,1,.766-5.921c.39-2.005.851-4,1.345-5.984.253-1.012.531-2.02.879-3s.754-1.914,1.179-2.85l.026-.059c.859-1.887,1.707-3.769,2.426-5.715q.187-.507.366-1.017a62.182,62.182,0,0,0,2.724-10.84.187.187,0,0,1,.054-.153c.625-.668,1.241-1.344,1.834-2.041a25.176,25.176,0,0,0,3.177-4.594,21.214,21.214,0,0,0,1.871-5.257,35.9,35.9,0,0,0,.347-11.575c-.446-4.14-1.2-8.251-1.866-12.361q-.493-3.073-.988-6.146-.246-1.536-.493-3.073c-.078-.479-.2-1-.235-1.511a.9.9,0,0,0-.015-.1c-.021-.1-.041-.194-.061-.291a1.813,1.813,0,0,1,0-1.227,1.4,1.4,0,0,1,.817-.565,4.464,4.464,0,0,1,.747-.188.882.882,0,0,1,.494.023.548.548,0,0,1,.309.443c.036.215.056.433.081.649.017.153.034.305.051.458a.713.713,0,0,0,.014.085q.088.409.177.818l1.325,6.088c.883,4.061,1.757,8.122,2.65,12.181.207.938.425,1.875.712,2.792.143.457.3.909.487,1.351a5.311,5.311,0,0,0,.594,1.146c.619.829,1.663.611,2.563.537l3.091-.256,5.107-.424.394-.033.729-.06,3.09-.256,1.546-.128c.417-.035.953-.017,1.252-.363a1.73,1.73,0,0,0,.288-1.094c.011-.487,0-.976-.011-1.464q-.033-1.511-.151-3.02c-.156-2.04-.417-4.072-.747-6.092-.654-4.011-1.573-7.973-2.492-11.93a.2.2,0,0,1,.244-.244c.066.017.128.037.191.059a.207.207,0,0,1,.039.008c.316.105.63.215.941.333a2.215,2.215,0,0,1,.794.382,1.443,1.443,0,0,1,.3.69q.108.405.206.815.195.817.346,1.642c.09.383.169.768.249,1.154l.579,2.8,1.149,5.558c.054.267.11.534.165.8a.7.7,0,0,1,.012.078c.07.639.138,1.278.218,1.915.3,2.441.849,4.853,1.343,7.261.5,2.457,1.035,4.9,1.626,7.342q.868,3.569,1.9,7.092c.371,1.27.745,2.545,1.19,3.792a.841.841,0,0,1,.048.289q-.018.974-.036,1.946a.207.207,0,0,1-.022.09.844.844,0,0,0-.082.383,43.64,43.64,0,0,0,.248,5.559,78.5,78.5,0,0,0,2.717,12.474c.414,1.455.841,2.907,1.263,4.36q.175.6.348,1.208c.648,2.261,1.268,4.528,1.786,6.822a59.386,59.386,0,0,1,1.081,6.179q.03.253.057.507c0,.021.005.042.01.063a21.789,21.789,0,0,1,.339,2.388A15.225,15.225,0,0,1,1941.756,1716.94Z" transform="translate(-1879.895 -1578.694)" fill="#4f3f6d"/>
          <path id="Trazado_902358" data-name="Trazado 902358" d="M1992.577,2092.955l-.712-1.034-2.7-3.93-1.266-1.842-.265-.387-.47.015-8.876.276-2.774.087q-.229-5.094-.5-10.185l1.555-.169c.844-.092,1.693-.17,2.526-.335a5.313,5.313,0,0,0,3.681-2.091,5.1,5.1,0,0,0,.55-2.71c0-1.072-.014-2.143-.042-3.214q-.082-3.2-.328-6.394-.2-2.58-.5-5.15c-.016-.131-.031-.261-.047-.392l-.393.035-7.123.64-1.064.1q-.185-2.745-.382-5.488l-.394.032q.2,2.746.383,5.492l-8.021.719-3.532.317-.4.036c0,.132-.007.265-.008.4q-.038,1.953.006,3.905.073,3.186.36,6.364.145,1.6.345,3.192.1.8.216,1.609a9.607,9.607,0,0,0,.254,1.375,2.85,2.85,0,0,0,.629,1.16,2.934,2.934,0,0,0,1,.673,8.029,8.029,0,0,0,2.734.507,39.995,39.995,0,0,0,6.354-.429l1.244-.135c0,.029,0,.058,0,.087q.265,5.032.493,10.069l-7.6.237-4.161.13-.539.017q-.177.2-.359.406h0q-1.109,1.244-2.295,2.422-1.815,1.8-3.788,3.439c-1.366,1.133-2.778,2.208-4.192,3.28l-4.391,3.33-1.386,1.051-.5.378q-.071.3-.139.6-.2.873-.376,1.751-.482,2.4-.795,4.836t-.457,4.873q-.143,2.431-.115,4.869.014,1.3.078,2.606c.133.065.268.124.405.176q-.056-1.071-.078-2.143-.05-2.435.071-4.87t.41-4.854q.289-2.416.749-4.808.271-1.411.6-2.811l1.2-.912,4.394-3.332c1.434-1.088,2.871-2.17,4.268-3.306q2.006-1.629,3.865-3.429,1.566-1.522,3.011-3.163h0l9.27-.29,2.859-.089q.377,8.362.647,16.727.2,6.18.343,12.361c-.221.034-.442.069-.663.1q-.247.039-.493.081c-.66.111-1.319.233-1.973.377a21.712,21.712,0,0,0-2.59.729.2.2,0,0,0-.138.243.2.2,0,0,0,.243.139,25.836,25.836,0,0,1,4.221-1.047l-1.817,3.382-1.365,2.538.448,0,2.512-4.675.716-1.332q.453-.075.907-.145l.4-.061c1.115-.171,2.232-.335,3.34-.547a26.9,26.9,0,0,0,2.622-.626.2.2,0,0,0-.1-.382,35.356,35.356,0,0,1-4.677.976l-1.19.182q-.281-12.12-.781-24.234-.1-2.4-.208-4.806l7.513-.234,4.385-.137,1.047,1.522,2.7,3.93c.583.849,1.171,1.7,1.75,2.548Q1992.753,2093.559,1992.577,2092.955Zm-17.7-17.381-.282.031-2.863.311c-1.035.112-2.072.22-3.114.258a14.6,14.6,0,0,1-3.033-.16,3.438,3.438,0,0,1-2.09-.989,2.715,2.715,0,0,1-.528-1.168c-.105-.456-.16-.923-.224-1.385q-.216-1.552-.38-3.112-.328-3.136-.446-6.29-.1-2.662-.048-5.329l7.747-.7,3.84-.345.393-.035,5.245-.471,2.962-.265q.208,1.756.366,3.519.282,3.143.406,6.3.062,1.577.084,3.154.012.8.012,1.6a9.321,9.321,0,0,1-.067,1.413,3.156,3.156,0,0,1-1.042,1.965,4.956,4.956,0,0,1-1.818.938,12.45,12.45,0,0,1-2.149.431c-.951.117-1.908.21-2.861.313Z" transform="translate(-1934.253 -1975.295)" fill="#f0c8ac"/>
          <path id="Trazado_902359" data-name="Trazado 902359" d="M1900.2,2085.928a3.384,3.384,0,0,1-.133,1.267,4.664,4.664,0,0,1-.217.6,5.706,5.706,0,0,1-1.461,1.931,12.872,12.872,0,0,1-4.889,2.345,25.986,25.986,0,0,0-2.826,1c-.882.391-1.731.853-2.6,1.265a11.333,11.333,0,0,1-2.71.953,3.067,3.067,0,0,1-1.384,0,1.929,1.929,0,0,1-.743-.393,1.949,1.949,0,0,1-.173-.167,2.156,2.156,0,0,1-.455-.807,2.969,2.969,0,0,1-.113-.512,3.555,3.555,0,0,1-.027-.6,3.334,3.334,0,0,1,.134-.818,3.94,3.94,0,0,1,.63-1.241,8.441,8.441,0,0,1,4.41-2.68c.961-.307,1.938-.567,2.878-.938a12.524,12.524,0,0,0,1.369-.645q.516-.4,1.053-.771a16.72,16.72,0,0,1,2.545-1.526,4.207,4.207,0,0,1,2.648-.4,2.909,2.909,0,0,1,1.356.7,2.3,2.3,0,0,1,.477.632,2.09,2.09,0,0,1,.121.285h0A2.376,2.376,0,0,1,1900.2,2085.928Z" transform="translate(-1876.462 -2006.205)" fill="#3d111c"/>
          <path id="Trazado_902360" data-name="Trazado 902360" d="M2133.394,912.881a30.122,30.122,0,0,0,1.187,2.97q.448.963.969,1.881t1.127,1.779c.412.556.851,1.114,1.318,1.658,2.511,2.928,5.808,5.468,9.708,5.176h0l.094-.008c.118-.009.236-.023.355-.038a8.684,8.684,0,0,0,6.005-3.884,15.134,15.134,0,0,0,1.592-2.944,19.959,19.959,0,0,0,.862-2.594,24.375,24.375,0,0,0,.485-2.408q.1-.627.162-1.262a42.568,42.568,0,0,0-.053-8.464c-.005-.254-.015-.508-.03-.764a10.5,10.5,0,0,0-.112-2.577,20.72,20.72,0,0,0-.584-2.509,14.084,14.084,0,0,0-.981-2.329,11.631,11.631,0,0,0-5.331-5.2,12.294,12.294,0,0,0-2.223-.831,14.345,14.345,0,0,0-4.491-.489,13.213,13.213,0,0,0-11.059,6.761C2129.6,902.132,2131.423,907.795,2133.394,912.881Z" transform="translate(-2109.741 -885.65)" fill="#fa9385"/>
          <path id="Trazado_902361" data-name="Trazado 902361" d="M2130.079,1082.857a10.079,10.079,0,0,1-.774,1.247,10.579,10.579,0,0,1-.964,1.142c-.347.358-.71.7-1.037,1.077a4.1,4.1,0,0,0-.755,1.226,5.094,5.094,0,0,0-.293,1.4c-.079,1,.032,2.005.037,3.008,0,.756-.1,1.894-1.028,2.07a1.483,1.483,0,0,1-1.267-.478,4.062,4.062,0,0,1-.819-1.233,19.8,19.8,0,0,1-1.01-3.034c-.319-1.109-.656-2.215-.947-3.33a17.258,17.258,0,0,1-.515-2.984l.395-.012c1.089-.038,2.177-.1,3.261-.2a22.779,22.779,0,0,0,3.935-.715h0l1.419.656Z" transform="translate(-2100.115 -1065.892)" fill="#993b28"/>
          <path id="Trazado_902362" data-name="Trazado 902362" d="M2117.324,1177.915c1.3.611,1.955-.645,2.23-2.161a10.7,10.7,0,0,0,.157-1.544c.448-2.821-3.1-4.23-5.426-3.388-.638.19-.883.987-.866,1.715a7.127,7.127,0,0,0,.473,1.646A7.324,7.324,0,0,0,2117.324,1177.915Z" transform="translate(-2093.272 -1149.014)" fill="#fa9385"/>
          <g id="Grupo_1113273" data-name="Grupo 1113273" transform="translate(22.038 16.858)">
            <path id="Trazado_902363" data-name="Trazado 902363" d="M2412.694,1100.438c-.059-.686-.609-1.189-.9-1.784a6.406,6.406,0,0,1-.364-1.02q-.159-.559-.283-1.127a18.328,18.328,0,0,1-.374-2.589.2.2,0,0,0-.2-.2.2.2,0,0,0-.2.2,19.2,19.2,0,0,0,.3,2.283,14.2,14.2,0,0,0,.571,2.174,4.633,4.633,0,0,0,.474.955,4.875,4.875,0,0,1,.485.8.944.944,0,0,1-.012.806,2.46,2.46,0,0,1-.583.68c-.66.589-1.332,1.165-2,1.747a.2.2,0,0,0,0,.28.2.2,0,0,0,.28,0l1.832-1.6C2412.2,1101.627,2412.753,1101.125,2412.694,1100.438Z" transform="translate(-2393.315 -1093.72)" fill="#bf4134"/>
            <path id="Trazado_902364" data-name="Trazado 902364" d="M2144.6,1204.216a.2.2,0,0,0-.271.071.2.2,0,0,0,.071.271,8.8,8.8,0,0,1,2.777,2.82c.117.227.459.026.342-.2A9.236,9.236,0,0,0,2144.6,1204.216Z" transform="translate(-2144.303 -1197.42)" fill="#bf4134"/>
            <path id="Trazado_902365" data-name="Trazado 902365" d="M2238.467,1389.578c-.163-.189-.321-.38-.477-.571a15.424,15.424,0,0,0,2.363,3.463c.343.369.713.71,1.089,1.045s.769.684,1.167,1.011a10.891,10.891,0,0,0,2.46,1.557,10.332,10.332,0,0,0,1.781.609q-.042-.976-.078-1.953C2243.479,1394.419,2240.67,1392.147,2238.467,1389.578Z" transform="translate(-2232.251 -1370.918)" fill="#bf4134"/>
          </g>
          <ellipse id="Elipse_11637" data-name="Elipse 11637" cx="1.726" cy="2.078" rx="1.726" ry="2.078" transform="matrix(0.968, -0.252, 0.252, 0.968, 30.878, 19.792)" fill="#3d111c"/>
          <ellipse id="Elipse_11638" data-name="Elipse 11638" cx="1.605" cy="1.932" rx="1.605" ry="1.932" transform="matrix(0.976, -0.217, 0.217, 0.976, 42.527, 19.414)" fill="#3d111c"/>
          <path id="Trazado_902366" data-name="Trazado 902366" d="M2454.932,1066.837a1.939,1.939,0,0,0,1.448,1.187,6.755,6.755,0,0,0,2.392-.053c.4-.047.8-.09,1.194-.143a1.428,1.428,0,0,0,.868-.347,1.133,1.133,0,0,0-.146-1.547,2.08,2.08,0,0,0-.623-.408c-.019-.011-.039-.022-.057-.03a4.925,4.925,0,0,0-1.086-.345,8.453,8.453,0,0,0-1.159-.177,7.387,7.387,0,0,0-1.2-.012,2.4,2.4,0,0,0-1.027.277,1.352,1.352,0,0,0-.615.7A1.382,1.382,0,0,0,2454.932,1066.837Z" transform="translate(-2413.791 -1049.847)" fill="#993b28"/>
          <path id="Trazado_902367" data-name="Trazado 902367" d="M2263.625,1064.171a2.091,2.091,0,0,1-1.416,1.437,7.29,7.29,0,0,1-2.569.216c-.431-.005-.863-.006-1.295-.017a1.536,1.536,0,0,1-.969-.273,1.22,1.22,0,0,1-.021-1.673,2.229,2.229,0,0,1,.621-.508c.019-.014.039-.027.058-.039a5.3,5.3,0,0,1,1.124-.494,9.05,9.05,0,0,1,1.221-.322,7.961,7.961,0,0,1,1.28-.149,2.586,2.586,0,0,1,1.132.18,1.459,1.459,0,0,1,.738.678A1.492,1.492,0,0,1,2263.625,1064.171Z" transform="translate(-2228.089 -1047.411)" fill="#993b28"/>
          <path id="Trazado_902368" data-name="Trazado 902368" d="M2137.643,835.537c-.039.042-.078.082-.119.122a3.752,3.752,0,0,1-2,1.019,3.505,3.505,0,0,1-1.4-.039,4.868,4.868,0,0,1-1.5-.724,10.585,10.585,0,0,0-1.486-.9,5.156,5.156,0,0,0-1.558-.407,5.937,5.937,0,0,0-3.152.555c-1.882.909-2.973,2.906-4.892,3.747a5.079,5.079,0,0,1-3.545.063,16.9,16.9,0,0,1-1.814-.69q-.95-.409-1.9-.827-2.1-.924-4.2-1.865l-.362-.162-.821-.367-.516-.23-.091-.041h0a22.54,22.54,0,0,1-3.824.753l-.1.012c-.1.011-.2.022-.3.032-.985.1-1.973.168-2.962.215l-.4.017-.367.016-.208.009a.2.2,0,0,1-.2-.178v0c-.006-.069-.012-.138-.019-.208a28.891,28.891,0,0,1-.095-5.241,14.318,14.318,0,0,1,1.123-4.533,9.692,9.692,0,0,1,2.63-3.559,11.674,11.674,0,0,1,3.9-2.041,22.245,22.245,0,0,1,2.251-.585q.408-.085.818-.161h0c.443-.082.888-.158,1.333-.231a38.445,38.445,0,0,1,4.476-.559q.292-.013.585-.016h.022a10.394,10.394,0,0,1,4.72.972,9.593,9.593,0,0,1,3.259,2.655,11.289,11.289,0,0,1,1.989,4.148c.22.828.384,1.67.541,2.513.034.18.068.361.1.541.02.1.039.206.058.309a.2.2,0,0,0,.106.14l.017.008.4.2q2.647,1.326,5.236,2.763,1.286.715,2.556,1.455c.508.3,1.023.589,1.522.9l.146.094A.2.2,0,0,1,2137.643,835.537Z" transform="translate(-2080.426 -818.537)" fill="#707c3d"/>
          <path id="Trazado_902369" data-name="Trazado 902369" d="M2346.964,1257.091a6.443,6.443,0,0,1-6.186-1.166c-.386-.33-.949.229-.561.56a7.248,7.248,0,0,0,6.958,1.37C2347.656,1257.693,2347.45,1256.927,2346.964,1257.091Z" transform="translate(-2306.055 -1229.036)" fill="#bf4134"/>
          <g id="Grupo_1113274" data-name="Grupo 1113274" transform="translate(23.64 0.001)">
            <path id="Trazado_902370" data-name="Trazado 902370" d="M2260.2,829.838a.2.2,0,0,1-.106-.14c-.019-.1-.038-.206-.058-.309-.288-.077-.576-.154-.864-.228a23.343,23.343,0,0,0-3.093-.611,23.16,23.16,0,0,0-1.863-4.108,23.485,23.485,0,0,0-3.766-4.9q-.506-.505-1.045-.977-.293,0-.585.016a23,23,0,0,1,6.263,8.475q.308.716.565,1.452a12.937,12.937,0,0,0-1.976-.031,13.968,13.968,0,0,0-5.027,1.3,13.41,13.41,0,0,0-2.216,1.312,21.977,21.977,0,0,0-1.979,1.715,7.5,7.5,0,0,1-2.16,1.53c-.453.19-.927.328-1.383.51l-.054.022.515.23q.161-.062.324-.119a8,8,0,0,0,1.344-.57,7.261,7.261,0,0,0,1.051-.748c.678-.568,1.285-1.214,1.966-1.778a12.973,12.973,0,0,1,2.133-1.429,13.469,13.469,0,0,1,4.877-1.523,13.115,13.115,0,0,1,2.575-.032l.145.013c.144.013.289.03.432.049a20.966,20.966,0,0,1,2.278.445c.578.141,1.153.3,1.727.449Z" transform="translate(-2236.541 -818.56)" fill="#3d111c"/>
            <path id="Trazado_902371" data-name="Trazado 902371" d="M2176.918,831.708q-.411.075-.818.161a10.253,10.253,0,0,0-.826.826,13.534,13.534,0,0,0-2.1,3.247,27.115,27.115,0,0,0-1.433,3.836,31.571,31.571,0,0,0-.948,4.133,27.489,27.489,0,0,0-.347,4.047l.3-.032.1-.012a26.575,26.575,0,0,1,.257-3.395,30.989,30.989,0,0,1,.861-4.075,28.868,28.868,0,0,1,1.339-3.83,14.134,14.134,0,0,1,1.961-3.3A9.909,9.909,0,0,1,2176.918,831.708Z" transform="translate(-2170.445 -830.903)" fill="#3d111c"/>
          </g>
          <path id="Trazado_902372" data-name="Trazado 902372" d="M2122.94,1966.264q-1.114-3.789-2.211-7.584-.307-1.062-.613-2.125a.2.2,0,0,0-.255-.116.2.2,0,0,0-.115.255q1.092,3.8,2.2,7.587.311,1.062.623,2.123a.2.2,0,0,0,.255.115A.2.2,0,0,0,2122.94,1966.264Z" transform="translate(-2099.202 -1886.719)" fill="#3d111c"/>
          <path id="Trazado_902373" data-name="Trazado 902373" d="M2202.341,1709.767a9.188,9.188,0,0,1-2.7,1.915,12.179,12.179,0,0,1-3.215.972,16.014,16.014,0,0,1-3.4.177,13.164,13.164,0,0,1-3.324-.554,6.725,6.725,0,0,1-2.82-1.65c-.1-.1-.192-.206-.282-.313a.2.2,0,0,0-.281,0,.2.2,0,0,0,0,.28,6.7,6.7,0,0,0,2.832,1.911,12.418,12.418,0,0,0,3.418.693,16.791,16.791,0,0,0,3.511-.094,13.047,13.047,0,0,0,3.364-.9,9.722,9.722,0,0,0,2.88-1.856q.155-.145.3-.3C2202.8,1709.864,2202.518,1709.583,2202.341,1709.767Z" transform="translate(-2161.649 -1655.114)" fill="#bc8864"/>
          <path id="Trazado_902374" data-name="Trazado 902374" d="M1997.659,2388.844a28.172,28.172,0,0,0-8.349,4.973,17.788,17.788,0,0,1-3.947,3.2,16.419,16.419,0,0,1-2.51.946q-1.4.434-2.811.862l-5.677,1.742a34.384,34.384,0,0,0-5.323,1.833,29.637,29.637,0,0,0-4.138,2.929,11.768,11.768,0,0,1-2.2,1.313,16.971,16.971,0,0,1-2.5.848c-1.856.5-3.718.972-5.583,1.44l.026-.059c.859-1.886,1.707-3.769,2.426-5.715q.187-.507.365-1.017a16.426,16.426,0,0,0,5.028-1c2.019-.635,4.017-1.347,6.017-2.04q3.035-1.052,6.062-2.126,6.009-2.132,12-4.32c1.987-.723,3.974-1.442,5.957-2.173,1.413-.52,2.823-1.062,4.188-1.7C1997.01,2388.807,1997.334,2388.831,1997.659,2388.844Z" transform="translate(-1944.201 -2292.583)" fill="#3d111c"/>
          <path id="Trazado_902375" data-name="Trazado 902375" d="M2005.632,1293.521a.2.2,0,0,0-.28,0,14.294,14.294,0,0,0-2.888,5.754,15.386,15.386,0,0,0-.3,1.662,14.656,14.656,0,0,1-.286,1.75,9.034,9.034,0,0,1-1.271,2.774,14.785,14.785,0,0,1-2.294,2.625c-.187.174.093.453.28.28a12.294,12.294,0,0,0,3.524-5.079,29.466,29.466,0,0,0,.61-3.381,13.844,13.844,0,0,1,2.9-6.1A.2.2,0,0,0,2005.632,1293.521Z" transform="translate(-1985.163 -1264.37)" fill="#3d111c"/>
          <path id="Trazado_902376" data-name="Trazado 902376" d="M2090.461,1288.506a.2.2,0,0,0-.271.071,20.788,20.788,0,0,0-2.647,4.579q-.29.688-.528,1.4c-.082.242.3.346.383.105a20.453,20.453,0,0,1,2.281-4.678q.405-.617.854-1.2A.2.2,0,0,0,2090.461,1288.506Z" transform="translate(-2068.475 -1259.69)" fill="#3d111c"/>
          <path id="Trazado_902377" data-name="Trazado 902377" d="M1849.784,1445.084a27.581,27.581,0,0,1-3.168,2.782,10.161,10.161,0,0,1-3.51,1.867,4.366,4.366,0,0,1-2.115.037c-.248-.061-.354.321-.105.382a5.687,5.687,0,0,0,3.925-.657,13.018,13.018,0,0,0,1.755-1.1q.879-.642,1.706-1.351.932-.8,1.792-1.678C1850.243,1445.182,1849.962,1444.9,1849.784,1445.084Z" transform="translate(-1837.302 -1406.646)" fill="#3d111c"/>
          <path id="Trazado_902378" data-name="Trazado 902378" d="M2558.1,1396.235a7.838,7.838,0,0,1-.848-3.47,8.052,8.052,0,0,1,.058-1.035.2.2,0,0,0-.2-.2.2.2,0,0,0-.2.2,8.2,8.2,0,0,0,.414,3.706,8.44,8.44,0,0,0,.43,1C2557.87,1396.662,2558.212,1396.462,2558.1,1396.235Z" transform="translate(-2509.541 -1356.43)" fill="#3d111c"/>
          <path id="Trazado_902379" data-name="Trazado 902379" d="M2542.772,1427.892a6.505,6.505,0,0,1-.419-1.822.2.2,0,0,0-.2-.2.2.2,0,0,0-.2.2,6.868,6.868,0,0,0,.433,1.928.2.2,0,0,0,.244.139A.2.2,0,0,0,2542.772,1427.892Z" transform="translate(-2495.557 -1388.667)" fill="#3d111c"/>
          <path id="Trazado_902380" data-name="Trazado 902380" d="M2314.59,877.4a3.931,3.931,0,0,1-1.68,1.446,6.14,6.14,0,0,1-2.426.494c-.889.034-1.778.051-2.667.077a9.812,9.812,0,0,1-1.955-.1,3.669,3.669,0,0,1-1.365-.5,2.78,2.78,0,0,1-.587-.315,1.943,1.943,0,0,1-.853-1.577,2.513,2.513,0,0,1,.894-1.845,4.818,4.818,0,0,1,2.046-.955,17.621,17.621,0,0,1,2.56-.393c.846-.077,1.7-.152,2.551-.165a5.009,5.009,0,0,1,2.309.414,2.861,2.861,0,0,1,1.385,1.412A2.2,2.2,0,0,1,2314.59,877.4Z" transform="translate(-2271.292 -870.194)" fill="#e89b1f"/>
        </g>
        <path id="Trazado_902381" data-name="Trazado 902381" d="M2143.076,1852.974a3.557,3.557,0,0,1-.9,1.753,26.1,26.1,0,0,1-2.665,2.883,14.08,14.08,0,0,1-3.26,2.275c-.671.331-1.382.607-2.085.888-.843.283-1.756.51-2.621.787a7.452,7.452,0,0,0-2.314,1.1q-.7.592-1.375,1.2a71.956,71.956,0,0,0-8.84,9.884c-.58.718-1.176,1.434-1.79,2.137-2.722,3.114-5.8,5.953-9.393,7.474-.224.095-.451.185-.678.273-.418.174-.842.326-1.27.459q-.321.1-.645.189c-2.054.791-4.823,1.8-6.644-.019a2.3,2.3,0,0,1-.348-.584,17.129,17.129,0,0,1,.131-6.6q.041-.209.093-.413a9.1,9.1,0,0,1,.942-2.315,12.982,12.982,0,0,1,3.7-3.924,14.932,14.932,0,0,1,1.554-.95c6.955-3.511,13.706-7.224,19.851-12.356,1.08-.945,1.35-2.768,1.983-4.249.426-.938.888-1.873,1.393-2.825.566-1.067,3.394-2.708,5.441-3.664a15.332,15.332,0,0,1,1.837-1.179,7.073,7.073,0,0,1,3.071-1.028,5.571,5.571,0,0,1,1.7.194,1.915,1.915,0,0,1,.736.351,3.2,3.2,0,0,1,.5.548,4.236,4.236,0,0,1,.393.625,1.583,1.583,0,0,1,.208.678.734.734,0,0,1-.755.76,4.851,4.851,0,0,1-1.224-.4,1.155,1.155,0,0,0-.732.059c-.252.088-.5.184-.748.283a14.321,14.321,0,0,0-2.759,1.5,4.908,4.908,0,0,0-.614.464c-.087.081-.187.2-.114.319a.267.267,0,0,0,.228.094,1.534,1.534,0,0,0,.655-.192l.833-.368,1.666-.737.854-.377c.246-.11.491-.222.751-.309a1.909,1.909,0,0,1,1.415.017,1.625,1.625,0,0,1,.826.872,1.519,1.519,0,0,1-.663,1.739,1.316,1.316,0,0,1,.826.46.909.909,0,0,1,.206.645,1.08,1.08,0,0,1-.16.435,1.029,1.029,0,0,1,.607.3A1.061,1.061,0,0,1,2143.076,1852.974Z" transform="translate(-2078.767 -1781.34)" fill="#fa9385"/>
        <g id="Grupo_1113275" data-name="Grupo 1113275" transform="translate(46.451 68.531)">
          <path id="Trazado_902382" data-name="Trazado 902382" d="M2738.7,1937.24a27.316,27.316,0,0,0-3.041,1.573c-.283.17.058.55.341.38a26.208,26.208,0,0,1,2.92-1.516C2739.22,1937.542,2739,1937.1,2738.7,1937.24Z" transform="translate(-2723.742 -1937.214)" fill="#bf4134"/>
          <path id="Trazado_902383" data-name="Trazado 902383" d="M2772.167,1971.818l-1.984,1.331c-.271.182.068.562.34.38l1.984-1.332C2772.779,1972.016,2772.439,1971.636,2772.167,1971.818Z" transform="translate(-2756.162 -1969.653)" fill="#bf4134"/>
          <path id="Trazado_902384" data-name="Trazado 902384" d="M2545.541,2076.127a9.642,9.642,0,0,1-2.246-2.235c-.187-.262-.617.012-.432.272a10.065,10.065,0,0,0,2.347,2.323C2545.487,2076.685,2545.818,2076.325,2545.541,2076.127Z" transform="translate(-2542.818 -2065.419)" fill="#bf4134"/>
        </g>
        <g id="Grupo_1113276" data-name="Grupo 1113276" transform="translate(56.045 86.179)">
          <path id="Trazado_902385" data-name="Trazado 902385" d="M2699.7,2227.7a18.722,18.722,0,0,1,4.174-1.74c.4-.113.8-.213,1.2-.3a.184.184,0,0,0-.1-.355,19.119,19.119,0,0,0-4.343,1.488q-.57.272-1.119.585a.184.184,0,0,0,.186.318Z" transform="translate(-2699.424 -2225.303)" fill="#bf4134"/>
        </g>
        <g id="Grupo_1113277" data-name="Grupo 1113277" transform="translate(53.125 77.471)">
          <path id="Trazado_902386" data-name="Trazado 902386" d="M2651.982,2086.11a27.756,27.756,0,0,0,4.8-1.912q.647-.331,1.276-.7a.184.184,0,0,0-.186-.317,27.2,27.2,0,0,1-4.615,2.128q-.679.24-1.37.442a.184.184,0,0,0,.1.354Z" transform="translate(-2651.755 -2083.159)" fill="#bf4134"/>
        </g>
        <path id="Trazado_902387" data-name="Trazado 902387" d="M1866.144,1752.034a2.117,2.117,0,0,0-.121-.285,2.315,2.315,0,0,0-.477-.632,2.913,2.913,0,0,0-1.356-.7,4.213,4.213,0,0,0-2.648.4,16.767,16.767,0,0,0-2.545,1.526q-.536.373-1.053.772a12.685,12.685,0,0,1-1.369.645c-.941.371-1.917.631-2.878.938-.244.078-.489.159-.733.248a7.626,7.626,0,0,0-3.677,2.432,3.953,3.953,0,0,0-.63,1.242,3.33,3.33,0,0,0-.133.818,3.536,3.536,0,0,0,.027.6q-.717-3.3-1.208-6.639-.557-3.8-.818-7.631-.13-1.922-.186-3.849c-.033-1.155-.053-2.312,0-3.466a13.112,13.112,0,0,1,1.638-6.279,7.533,7.533,0,0,1,4.529-3.444,5.325,5.325,0,0,1,2.8.1,6.438,6.438,0,0,1,2.431,1.446,13.394,13.394,0,0,1,3.227,5.44c.415,1.132.792,2.279,1.264,3.39.481,1.132,1.125,2.185,1.61,3.315a18.978,18.978,0,0,1,1.017,3.562q.4,1.885.8,3.77Z" transform="translate(-1842.523 -1672.836)" fill="#f5dfd1"/>
        <path id="Trazado_902388" data-name="Trazado 902388" d="M1970.718,2095.516l-6.69,13.616s-7.02-12.958-9.407-20.789l.022-.021c.244-.089.49-.17.733-.248.961-.307,1.938-.567,2.878-.938a12.838,12.838,0,0,0,1.369-.645q.517-.4,1.053-.772a16.773,16.773,0,0,1,2.545-1.527,4.212,4.212,0,0,1,2.648-.4,2.919,2.919,0,0,1,1.356.7s3.838,9.958,4.065,10.008C1972.871,2094.844,1970.718,2095.516,1970.718,2095.516Z" transform="translate(-1944.203 -2006.208)" fill="#fa9385"/>
        <ellipse id="Elipse_11639" data-name="Elipse 11639" cx="2.255" cy="1.601" rx="2.255" ry="1.601" transform="translate(71.498 68.12) rotate(-41.97)" fill="#e89b1f"/>
      </g>
      <g id="icon" transform="translate(22.155 0)">
        <g id="Grupo_1113278" data-name="Grupo 1113278" transform="translate(153.523 56.157)">
          <path id="Trazado_902389" data-name="Trazado 902389" d="M3277.979,1254.575a.276.276,0,0,1-.194-.472l27.077-26.785a.276.276,0,0,1,.387.392l-27.076,26.784A.275.275,0,0,1,3277.979,1254.575Z" transform="translate(-3277.704 -1227.24)" fill="#3d111c"/>
        </g>
        <g id="Grupo_1113279" data-name="Grupo 1113279" transform="translate(168.004 37.097)">
          <path id="Trazado_902390" data-name="Trazado 902390" d="M3612.854,956.717l-59.288-.874a.856.856,0,0,1-.894-1.049l7.471-33.675a1.4,1.4,0,0,1,1.352-1.016l59.288.874a.856.856,0,0,1,.894,1.049l-7.471,33.675A1.4,1.4,0,0,1,3612.854,956.717Z" transform="translate(-3552.405 -919.858)" fill="#f5dfd1"/>
          <path id="Trazado_902391" data-name="Trazado 902391" d="M3609.113,953.208h-.021l-59.288-.874a1.2,1.2,0,0,1-.933-.431,1.074,1.074,0,0,1-.2-.917l7.471-33.675a1.654,1.654,0,0,1,1.573-1.208h.021l59.288.874a1.2,1.2,0,0,1,.933.431,1.075,1.075,0,0,1,.2.917L3610.687,952A1.655,1.655,0,0,1,3609.113,953.208Zm-51.395-36.615a1.16,1.16,0,0,0-1.094.824l-7.47,33.675a.594.594,0,0,0,.1.507.7.7,0,0,0,.555.245l59.288.874h0a1.163,1.163,0,0,0,1.109-.824l7.47-33.675a.592.592,0,0,0-.1-.507.7.7,0,0,0-.555-.245l-59.288-.874Z" transform="translate(-3548.646 -916.103)" fill="#3d111c"/>
        </g>
        <g id="Grupo_1113280" data-name="Grupo 1113280" transform="translate(116.251 0)">
          <path id="Trazado_902392" data-name="Trazado 902392" d="M2724.858,349.8l-57.086-.842a.824.824,0,0,1-.86-1.01l7.193-32.424a1.349,1.349,0,0,1,1.3-.979l57.086.842a.824.824,0,0,1,.86,1.01l-7.193,32.424A1.35,1.35,0,0,1,2724.858,349.8Z" transform="translate(-2666.644 -314.297)" fill="#f5dfd1"/>
          <path id="Trazado_902393" data-name="Trazado 902393" d="M2721.116,346.287h-.021l-57.086-.842a1.161,1.161,0,0,1-.905-.418,1.045,1.045,0,0,1-.19-.89l7.193-32.424a1.6,1.6,0,0,1,1.544-1.17l57.085.842a1.159,1.159,0,0,1,.905.418,1.043,1.043,0,0,1,.191.89l-7.193,32.424A1.6,1.6,0,0,1,2721.116,346.287Zm-.013-.49a1.1,1.1,0,0,0,1.059-.787l7.193-32.424a.561.561,0,0,0-.1-.48.664.664,0,0,0-.527-.232l-57.086-.842a1.109,1.109,0,0,0-1.058.786l-7.193,32.424a.563.563,0,0,0,.1.48.666.666,0,0,0,.528.232Z" transform="translate(-2662.886 -310.542)" fill="#3d111c"/>
        </g>
        <g id="Grupo_1113281" data-name="Grupo 1113281" transform="translate(57.776 48.164)">
          <path id="Trazado_902394" data-name="Trazado 902394" d="M1720.5,1141.281h-28.653a.276.276,0,0,1-.229-.123L1662.26,1097.2a.276.276,0,0,1,.458-.306L1692,1140.73H1720.5a.276.276,0,1,1,0,.551Z" transform="translate(-1662.213 -1096.766)" fill="#3d111c"/>
        </g>
        <g id="Grupo_1113282" data-name="Grupo 1113282" transform="translate(0 22.932)">
          <path id="Trazado_902395" data-name="Trazado 902395" d="M741.77,725.5l-59.288-.874a.856.856,0,0,1-.893-1.049l7.471-33.675a1.4,1.4,0,0,1,1.352-1.016l59.288.874a.856.856,0,0,1,.893,1.049l-7.471,33.675A1.4,1.4,0,0,1,741.77,725.5Z" transform="translate(-681.32 -688.642)" fill="#f5dfd1"/>
          <path id="Trazado_902396" data-name="Trazado 902396" d="M738.029,721.991h-.021l-59.288-.874a1.2,1.2,0,0,1-.933-.431,1.074,1.074,0,0,1-.2-.917l7.471-33.675a1.654,1.654,0,0,1,1.595-1.208l59.288.874a1.2,1.2,0,0,1,.933.431,1.074,1.074,0,0,1,.2.917L739.6,720.783A1.655,1.655,0,0,1,738.029,721.991Zm-51.395-36.615a1.159,1.159,0,0,0-1.094.824l-7.471,33.675a.593.593,0,0,0,.1.507.7.7,0,0,0,.555.245l59.288.874h.015a1.159,1.159,0,0,0,1.094-.824L746.594,687a.594.594,0,0,0-.1-.507.7.7,0,0,0-.555-.245l-59.288-.874Z" transform="translate(-677.562 -684.886)" fill="#3d111c"/>
        </g>
        <g id="Grupo_1113283" data-name="Grupo 1113283" transform="translate(130.855 34.974)">
          <path id="Trazado_902397" data-name="Trazado 902397" d="M2949.1,885.442l-44.217,48Z" transform="translate(-2904.642 -885.197)" fill="#f5dfd1"/>
          <path id="Trazado_902398" data-name="Trazado 902398" d="M2901.132,929.931a.245.245,0,0,1-.18-.411l44.217-48a.245.245,0,0,1,.36.332l-44.216,48A.244.244,0,0,1,2901.132,929.931Z" transform="translate(-2900.887 -881.442)" fill="#3d111c"/>
        </g>
        <path id="Trazado_902399" data-name="Trazado 902399" d="M3761,1170.918a2.416,2.416,0,0,1-2.509,1.678,1.619,1.619,0,0,1-1.494-2.073c.28-1.036,2.48-4.448,3.107-4.386S3761.278,1169.883,3761,1170.918Z" transform="translate(-3574.449 -1113.722)" fill="#94cee8"/>
        <g id="Grupo_1113284" data-name="Grupo 1113284" transform="translate(126.074 8.241)">
          <path id="Trazado_902400" data-name="Trazado 902400" d="M2992.591,454.718l8.618-6.918q-.247-.235-.52-.462a8.922,8.922,0,0,0-4.859-1.91,13.9,13.9,0,0,0-1.532-.149Z" transform="translate(-2981.501 -445.265)" fill="#88964a"/>
          <path id="Trazado_902401" data-name="Trazado 902401" d="M2872.445,454.6l1.722-9.524a13,13,0,0,0-9.393,3.336Z" transform="translate(-2861.514 -445.065)" fill="#88964a"/>
          <path id="Trazado_902402" data-name="Trazado 902402" d="M2993.085,603.14l6.849,5.525a18.172,18.172,0,0,0,1.738-1.838,11.312,11.312,0,0,0,1.973-3.525Z" transform="translate(-2981.965 -593.456)" fill="#94cee8"/>
          <path id="Trazado_902403" data-name="Trazado 902403" d="M3037.089,472.585l-8.634,6.932,10.556.162A6.706,6.706,0,0,0,3037.089,472.585Z" transform="translate(-3015.168 -470.899)" fill="#d4483a"/>
          <path id="Trazado_902404" data-name="Trazado 902404" d="M2854.454,604.67l-8.8,7.063a9.082,9.082,0,0,0,7.1,2.346Z" transform="translate(-2843.568 -594.892)" fill="#4f3f6d"/>
          <path id="Trazado_902405" data-name="Trazado 902405" d="M2825.749,507.43l-7.563-6.1a8.946,8.946,0,0,0-1.792,2.574,15.3,15.3,0,0,0-1.138,3.366Z" transform="translate(-2815.03 -497.882)" fill="#f5c338"/>
          <path id="Trazado_902406" data-name="Trazado 902406" d="M2965.593,604.98l-1.7,9.38a14.581,14.581,0,0,0,8.527-3.869Z" transform="translate(-2954.565 -595.184)" fill="#94cee8"/>
          <path id="Trazado_902407" data-name="Trazado 902407" d="M2813.561,607.643l8.809-7.071-10.608-.163A7.85,7.85,0,0,0,2813.561,607.643Z" transform="translate(-2811.561 -590.893)" fill="#f5c338"/>
        </g>
        <g id="Grupo_1113285" data-name="Grupo 1113285" transform="translate(155.342 6.571)">
          <path id="Trazado_902408" data-name="Trazado 902408" d="M3309.4,421.81h0Z" transform="translate(-3309.154 -421.565)" fill="#f5dfd1"/>
          <path id="Trazado_902409" data-name="Trazado 902409" d="M3325.68,418.3h-20.037a.245.245,0,1,1,0-.49h20.037a.245.245,0,1,1,0,.49Z" transform="translate(-3305.398 -417.81)" fill="#3d111c"/>
        </g>
        <g id="Grupo_1113286" data-name="Grupo 1113286" transform="translate(154.965 9.682)">
          <path id="Trazado_902410" data-name="Trazado 902410" d="M3303.016,472.585h0Z" transform="translate(-3302.771 -472.34)" fill="#f5dfd1"/>
          <path id="Trazado_902411" data-name="Trazado 902411" d="M3319.3,469.075h-20.037a.245.245,0,0,1,0-.49H3319.3a.245.245,0,1,1,0,.49Z" transform="translate(-3299.017 -468.585)" fill="#3d111c"/>
        </g>
        <g id="Grupo_1113287" data-name="Grupo 1113287" transform="translate(153.484 17.773)">
          <path id="Trazado_902412" data-name="Trazado 902412" d="M3277.977,604.67h0Z" transform="translate(-3277.732 -604.425)" fill="#f5dfd1"/>
          <path id="Trazado_902413" data-name="Trazado 902413" d="M3294.26,601.16h-20.037a.245.245,0,0,1,0-.49h20.037a.245.245,0,1,1,0,.49Z" transform="translate(-3273.978 -600.67)" fill="#3d111c"/>
        </g>
        <g id="Grupo_1113288" data-name="Grupo 1113288" transform="translate(152.75 20.772)">
          <path id="Trazado_902414" data-name="Trazado 902414" d="M3265.556,653.626h0Z" transform="translate(-3265.311 -653.381)" fill="#f5dfd1"/>
          <path id="Trazado_902415" data-name="Trazado 902415" d="M3281.839,650.116H3261.8a.245.245,0,0,1,0-.49h20.037a.245.245,0,0,1,0,.49Z" transform="translate(-3261.557 -649.626)" fill="#3d111c"/>
        </g>
        <g id="Grupo_1113289" data-name="Grupo 1113289" transform="translate(150.787 27.172)">
          <path id="Trazado_902416" data-name="Trazado 902416" d="M3232.354,758.089h0Z" transform="translate(-3232.109 -757.844)" fill="#f5dfd1"/>
          <path id="Trazado_902417" data-name="Trazado 902417" d="M3248.637,754.579H3228.6a.245.245,0,1,1,0-.49h20.037a.245.245,0,0,1,0,.49Z" transform="translate(-3228.355 -754.089)" fill="#3d111c"/>
        </g>
        <ellipse id="Elipse_11640" data-name="Elipse 11640" cx="2.775" cy="2.45" rx="2.775" ry="2.45" transform="translate(182.999 46.959) rotate(-59.01)" fill="#e89b1f"/>
        <path id="Trazado_902418" data-name="Trazado 902418" d="M3720.285,1335.119l-2.131-.144a.1.1,0,0,1-.052-.173l1.619-1.225a.247.247,0,0,0,.048-.344h0a.246.246,0,0,0-.344-.048l-1.77,1.339a.1.1,0,0,1-.154-.085l.168-1.874a.234.234,0,0,0-.211-.253l-.024,0a.233.233,0,0,0-.253.211l-.175,1.949a.1.1,0,0,1-.16.063l-1.753-1.579a.253.253,0,0,0-.319-.023.246.246,0,0,0-.018.38l1.515,1.364a.1.1,0,0,1-.071.167l-2.077-.14a.254.254,0,0,0-.265.179.246.246,0,0,0,.221.31l2.218.15a.1.1,0,0,1,.052.173l-1.666,1.26a.246.246,0,0,0-.047.343h0a.247.247,0,0,0,.344.047l1.742-1.318a.1.1,0,0,1,.154.085l-.171,1.9a.234.234,0,0,0,.212.253l.024,0a.233.233,0,0,0,.253-.211l.179-2a.1.1,0,0,1,.16-.063l1.821,1.64a.253.253,0,0,0,.319.023.246.246,0,0,0,.018-.379l-1.624-1.463a.1.1,0,0,1,.071-.167l2.125.144a.246.246,0,0,0,.26-.277A.253.253,0,0,0,3720.285,1335.119Z" transform="translate(-3533.985 -1269.716)" fill="#fff"/>
        <path id="Trazado_902419" data-name="Trazado 902419" d="M830.635,1027.187l-2.982-.006a.528.528,0,0,1-.542-.671l1.953-8.352a.917.917,0,0,1,.855-.668l2.982.006a.528.528,0,0,1,.542.671l-1.953,8.352A.917.917,0,0,1,830.635,1027.187Z" transform="translate(-817.933 -974.182)" fill="#4f3f6d"/>
        <path id="Trazado_902420" data-name="Trazado 902420" d="M930.026,967.677l-2.724-.005a.625.625,0,0,1-.642-.795l2.806-12a1.086,1.086,0,0,1,1.013-.791l2.724.005a.625.625,0,0,1,.642.795l-2.806,12A1.086,1.086,0,0,1,930.026,967.677Z" transform="translate(-911.38 -914.661)" fill="#d4483a"/>
        <path id="Trazado_902421" data-name="Trazado 902421" d="M1034.07,894.457l-2.455,0a.726.726,0,0,1-.747-.924l3.866-16.534a1.263,1.263,0,0,1,1.178-.921l2.455,0a.727.727,0,0,1,.747.924l-3.866,16.534A1.263,1.263,0,0,1,1034.07,894.457Z" transform="translate(-1009.203 -841.429)" fill="#88964a"/>
        <path id="Trazado_902422" data-name="Trazado 902422" d="M1140.582,826.143l-2.233,0a.81.81,0,0,1-.833-1.03l4.862-20.793a1.408,1.408,0,0,1,1.313-1.026l2.233,0a.81.81,0,0,1,.833,1.031l-4.862,20.793A1.408,1.408,0,0,1,1140.582,826.143Z" transform="translate(-1109.314 -773.102)" fill="#f5c338"/>
        <g id="Grupo_1113290" data-name="Grupo 1113290" transform="translate(192.055 44.504)">
          <path id="Trazado_902423" data-name="Trazado 902423" d="M3979.093,1042.588l-34.645-.053a.192.192,0,0,1-.195-.262l.6-2a.391.391,0,0,1,.352-.261l34.645.053a.192.192,0,0,1,.194.262l-.6,2A.389.389,0,0,1,3979.093,1042.588Z" transform="translate(-3944.058 -1039.831)" fill="#f5dfd1"/>
          <path id="Trazado_902424" data-name="Trazado 902424" d="M3976.279,1039.956h0l-34.645-.053a.376.376,0,0,1-.37-.5l.6-2a.576.576,0,0,1,.527-.392h0l34.645.053a.376.376,0,0,1,.371.5l-.6,2A.577.577,0,0,1,3976.279,1039.956Zm-34.666-.423a.1.1,0,0,0,.021,0l34.645.053h0a.208.208,0,0,0,.175-.13l.6-2a.048.048,0,0,0,0-.023.184.184,0,0,0-.022,0l-34.645-.053h0a.21.21,0,0,0-.175.13l-.6,2a.053.053,0,0,0,0,.023Z" transform="translate(-3941.245 -1037.015)" fill="#3d111c"/>
        </g>
        <g id="Grupo_1113291" data-name="Grupo 1113291" transform="translate(189.984 54.963)">
          <path id="Trazado_902425" data-name="Trazado 902425" d="M3945.293,1213.311l-34.645-.053a.192.192,0,0,1-.194-.262l.6-2a.389.389,0,0,1,.351-.261l34.645.053a.192.192,0,0,1,.194.262l-.6,2A.389.389,0,0,1,3945.293,1213.311Z" transform="translate(-3910.259 -1210.554)" fill="#f5dfd1"/>
          <path id="Trazado_902426" data-name="Trazado 902426" d="M3942.479,1210.679h0l-34.645-.053a.376.376,0,0,1-.371-.5l.6-2a.576.576,0,0,1,.527-.392h0l34.645.054a.376.376,0,0,1,.371.5l-.6,2A.576.576,0,0,1,3942.479,1210.679Zm-34.666-.423a.123.123,0,0,0,.021,0l34.645.053h0a.209.209,0,0,0,.175-.13l.6-2a.069.069,0,0,0,0-.023.137.137,0,0,0-.021,0l-34.646-.053h0a.208.208,0,0,0-.175.13l-.6,2a.052.052,0,0,0,0,.023Z" transform="translate(-3907.445 -1207.738)" fill="#3d111c"/>
        </g>
        <g id="Grupo_1113292" data-name="Grupo 1113292" transform="translate(187.823 64.752)">
          <path id="Trazado_902427" data-name="Trazado 902427" d="M3910.024,1373.1l-34.645-.053a.192.192,0,0,1-.194-.262l.6-2a.39.39,0,0,1,.352-.261l34.645.053a.193.193,0,0,1,.195.262l-.6,2A.39.39,0,0,1,3910.024,1373.1Z" transform="translate(-3874.99 -1370.347)" fill="#f5dfd1"/>
          <path id="Trazado_902428" data-name="Trazado 902428" d="M3907.209,1370.472h0l-34.645-.053a.375.375,0,0,1-.37-.5l.6-2a.577.577,0,0,1,.527-.392h0l34.645.053a.375.375,0,0,1,.37.5l-.6,2A.577.577,0,0,1,3907.209,1370.472Zm0-.368h0a.21.21,0,0,0,.175-.13l.6-2a.062.062,0,0,0,0-.023s-.008,0-.021,0l-34.645-.053h0a.209.209,0,0,0-.175.13l-.6,2a.052.052,0,0,0,0,.023.1.1,0,0,0,.021,0Z" transform="translate(-3872.175 -1367.531)" fill="#3d111c"/>
        </g>
        <path id="Trazado_902429" data-name="Trazado 902429" d="M3990.316,1052.563l-22.393-.071a.058.058,0,0,1-.058-.078l.263-.892a.114.114,0,0,1,.1-.077l22.394.071a.057.057,0,0,1,.057.078l-.262.892A.113.113,0,0,1,3990.316,1052.563Z" transform="translate(-3774.177 -1006.057)" fill="#d4483a"/>
        <path id="Trazado_902430" data-name="Trazado 902430" d="M3943.242,1223.537l-15.2-.112c-.03,0-.045-.035-.034-.077l.228-.88c.011-.042.044-.076.074-.076l15.2.111c.03,0,.045.035.035.077l-.228.881C3943.3,1223.5,3943.272,1223.537,3943.242,1223.537Z" transform="translate(-3736.764 -1166.532)" fill="#4f3f6d"/>
        <path id="Trazado_902431" data-name="Trazado 902431" d="M3915.7,1383.329l-15.2-.112c-.03,0-.045-.035-.035-.077l.228-.88c.011-.042.045-.076.075-.076l15.2.112c.03,0,.045.035.035.077l-.228.881C3915.765,1383.3,3915.731,1383.33,3915.7,1383.329Z" transform="translate(-3710.911 -1316.535)" fill="#88964a"/>
        <ellipse id="Elipse_11641" data-name="Elipse 11641" cx="1.19" cy="0.948" rx="1.19" ry="0.948" transform="translate(41.671 31.228) rotate(-38.867)" fill="#f5c338"/>
        <g id="Grupo_1113293" data-name="Grupo 1113293" transform="translate(43.937 29.999)">
          <path id="Trazado_902432" data-name="Trazado 902432" d="M1439.378,800.706h0l-18.56-.1a.184.184,0,0,1-.183-.184h0a.184.184,0,0,1,.184-.183h0l18.56.1a.184.184,0,0,1,.183.184h0A.184.184,0,0,1,1439.378,800.706Z" transform="translate(-1420.634 -800.234)" fill="#3d111c"/>
        </g>
        <g id="Grupo_1113294" data-name="Grupo 1113294" transform="translate(43.515 31.325)">
          <path id="Trazado_902433" data-name="Trazado 902433" d="M1427.275,822.333h0l-14.107-.08a.184.184,0,0,1,0-.368h0l14.107.08a.184.184,0,0,1,0,.368Z" transform="translate(-1412.984 -821.886)" fill="#3d111c"/>
        </g>
        <ellipse id="Elipse_11642" data-name="Elipse 11642" cx="1.19" cy="0.948" rx="1.19" ry="0.948" transform="translate(39.761 37.429) rotate(-38.868)" fill="#88964a"/>
        <g id="Grupo_1113295" data-name="Grupo 1113295" transform="translate(42.094 36.2)">
          <path id="Trazado_902434" data-name="Trazado 902434" d="M1408.2,901.929h0l-18.56-.1a.184.184,0,0,1-.183-.184h0a.184.184,0,0,1,.184-.183h0l18.56.1a.184.184,0,0,1,.183.184h0A.184.184,0,0,1,1408.2,901.929Z" transform="translate(-1389.46 -901.457)" fill="#3d111c"/>
        </g>
        <g id="Grupo_1113296" data-name="Grupo 1113296" transform="translate(41.671 37.526)">
          <path id="Trazado_902435" data-name="Trazado 902435" d="M1396.1,923.556h0l-14.107-.079a.184.184,0,0,1,0-.368h0l14.107.08a.184.184,0,0,1,0,.368Z" transform="translate(-1381.81 -923.109)" fill="#3d111c"/>
        </g>
        <ellipse id="Elipse_11643" data-name="Elipse 11643" cx="1.19" cy="0.948" rx="1.19" ry="0.948" transform="translate(38.873 43.463) rotate(-38.868)" fill="#d4483a"/>
        <g id="Grupo_1113297" data-name="Grupo 1113297" transform="translate(41.237 42.234)">
          <path id="Trazado_902436" data-name="Trazado 902436" d="M1393.706,1000.438h0l-18.56-.1a.184.184,0,0,1-.183-.184h0a.183.183,0,0,1,.185-.183l18.56.1a.184.184,0,0,1,.183.184h0A.184.184,0,0,1,1393.706,1000.438Z" transform="translate(-1374.962 -999.966)" fill="#3d111c"/>
        </g>
        <g id="Grupo_1113298" data-name="Grupo 1113298" transform="translate(40.813 43.561)">
          <path id="Trazado_902437" data-name="Trazado 902437" d="M1381.6,1022.066h0l-14.107-.079a.184.184,0,0,1,0-.368h0l14.107.079a.184.184,0,0,1,0,.368Z" transform="translate(-1367.311 -1021.619)" fill="#3d111c"/>
        </g>
        <ellipse id="Elipse_11644" data-name="Elipse 11644" cx="1.19" cy="0.948" rx="1.19" ry="0.948" transform="matrix(0.779, -0.628, 0.628, 0.779, 37.049, 51.858)" fill="#4f3f6d"/>
        <g id="Grupo_1113299" data-name="Grupo 1113299" transform="translate(39.476 50.629)">
          <path id="Trazado_902438" data-name="Trazado 902438" d="M1363.937,1137.467h0l-18.56-.1a.184.184,0,0,1-.183-.184h0a.184.184,0,0,1,.184-.183h0l18.56.1a.184.184,0,0,1,.183.184h0A.184.184,0,0,1,1363.937,1137.467Z" transform="translate(-1345.193 -1136.995)" fill="#3d111c"/>
        </g>
        <g id="Grupo_1113300" data-name="Grupo 1113300" transform="translate(39.051 51.955)">
          <path id="Trazado_902439" data-name="Trazado 902439" d="M1351.833,1159.094h0l-14.107-.08a.184.184,0,0,1,0-.368h0l14.107.08a.184.184,0,0,1,0,.368Z" transform="translate(-1337.542 -1158.647)" fill="#3d111c"/>
        </g>
      </g>
    </g>
  </g>
</svg>
