<svg xmlns="http://www.w3.org/2000/svg" xmlns:xlink="http://www.w3.org/1999/xlink" width="118" height="118" viewBox="0 0 118 118">
  <defs>
    <filter id="Trazado_874925" x="0" y="0" width="117.999" height="118" filterUnits="userSpaceOnUse">
      <feOffset dy="3" input="SourceAlpha"/>
      <feGaussianBlur stdDeviation="3" result="blur"/>
      <feFlood flood-opacity="0.161"/>
      <feComposite operator="in" in2="blur"/>
      <feComposite in="SourceGraphic"/>
    </filter>
  </defs>
  <g id="Grupo_1119211" data-name="Grupo 1119211" transform="translate(1461 9810)">
    <g id="Grupo_1111552" data-name="Grupo 1111552" transform="translate(-2260.5 -12321.157)">
      <g id="Grupo_1111316" data-name="Grupo 1111316" transform="translate(808.5 2517.157)">
        <g id="Grupo_1109835" data-name="Grupo 1109835" transform="translate(0 0)">
          <g id="Grupo_1107913" data-name="Grupo 1107913" transform="translate(0 0)">
            <g transform="matrix(1, 0, 0, 1, -9, -6)" filter="url(#Trazado_874925)">
              <g id="Trazado_874925-2" data-name="Trazado 874925" transform="translate(9 6)" fill="#9cc8ff" opacity="0.859">
                <path d="M 49.99972534179688 98.4998779296875 C 43.45164108276367 98.4998779296875 37.10022354125977 97.21776580810547 31.12189674377441 94.68914794921875 C 25.34676742553711 92.24647521972656 20.15985298156738 88.74925994873047 15.70523929595947 84.29464721679688 C 11.25062561035156 79.84004974365234 7.753411293029785 74.65313720703125 5.310725212097168 68.87800598144531 C 2.782111167907715 62.89969253540039 1.499996781349182 56.54829406738281 1.499996781349182 50.00022125244141 C 1.499996781349182 43.45157623291016 2.782111167907715 37.10017776489258 5.310725212097168 31.12186431884766 C 7.753411293029785 25.34673500061035 11.25062561035156 20.15983581542969 15.70523929595947 15.70522117614746 C 20.15985298156738 11.25062084197998 25.34676742553711 7.753406524658203 31.12189674377441 5.31073522567749 C 37.10022354125977 2.782120943069458 43.45164108276367 1.500006556510925 49.99972534179688 1.500006556510925 C 56.54780960083008 1.500006556510925 62.89922714233398 2.782120943069458 68.87755584716797 5.31073522567749 C 74.65267944335938 7.753406524658203 79.839599609375 11.25062084197998 84.29421234130859 15.70522117614746 C 88.74882507324219 20.15983581542969 92.24604034423828 25.34673500061035 94.68872833251953 31.12186431884766 C 97.21733856201172 37.10017776489258 98.49945068359375 43.45157623291016 98.49945068359375 49.99964904785156 C 98.49945068359375 56.54829406738281 97.21733856201172 62.89969253540039 94.68872833251953 68.87800598144531 C 92.24604034423828 74.65313720703125 88.74882507324219 79.84004974365234 84.29421234130859 84.29464721679688 C 79.839599609375 88.74925994873047 74.65267944335938 92.24647521972656 68.87755584716797 94.68914794921875 C 62.89922714233398 97.21776580810547 56.54780960083008 98.4998779296875 49.99972534179688 98.4998779296875 Z" stroke="none"/>
                <path d="M 49.99972534179688 3 C 43.65348052978516 3 37.49866485595703 4.242240905761719 31.70623016357422 6.692230224609375 C 26.10989379882812 9.059272766113281 21.08323669433594 12.44853210449219 16.76589202880859 16.76587677001953 C 12.44855499267578 21.08321380615234 9.059295654296875 26.10985565185547 6.692230224609375 31.70618438720703 C 4.24224853515625 37.49859619140625 3 43.65341186523438 3 50.00022888183594 C 3 56.34645843505859 4.24224853515625 62.50127410888672 6.692230224609375 68.29368591308594 C 9.059295654296875 73.8900146484375 12.44855499267578 78.91665649414062 16.76589202880859 83.23399353027344 C 21.08323669433594 87.55132293701172 26.10989379882812 90.94059753417969 31.70623016357422 93.30764007568359 C 37.49866485595703 95.75762939453125 43.65348052978516 96.99987030029297 49.99972534179688 96.99987030029297 C 56.34597015380859 96.99987030029297 62.50078582763672 95.75762939453125 68.293212890625 93.30764007568359 C 73.88955688476562 90.94059753417969 78.91621398925781 87.55132293701172 83.23355865478516 83.23399353027344 C 87.55089569091797 78.91665649414062 90.94015502929688 73.8900146484375 93.30722045898438 68.29368591308594 C 95.7572021484375 62.50127410888672 96.99945068359375 56.34645843505859 96.99945068359375 49.99964141845703 C 96.99945068359375 43.65341186523438 95.7572021484375 37.49859619140625 93.30722045898438 31.70618438720703 C 90.94015502929688 26.10985565185547 87.55089569091797 21.08321380615234 83.23355865478516 16.76587677001953 C 78.91621398925781 12.44853210449219 73.88955688476562 9.059272766113281 68.293212890625 6.692230224609375 C 62.50078582763672 4.242240905761719 56.34597015380859 3 49.99972534179688 3 M 49.99972534179688 0 C 77.61381530761719 0 99.99945068359375 22.38559722900391 99.99945068359375 49.99964141845703 L 99.99945068359375 50.00022888183594 C 99.99945068359375 77.6142578125 77.61381530761719 99.99987030029297 49.99972534179688 99.99987030029297 C 22.38563537597656 99.99987030029297 0 77.6142578125 0 50.00022888183594 L 0 49.99964141845703 C 0 22.38559722900391 22.38563537597656 0 49.99972534179688 0 Z" stroke="none" fill="#fff"/>
              </g>
            </g>
            <g id="Trazado_874923" data-name="Trazado 874923" transform="translate(0 0)" fill="none">
              <path d="M50,0a50,50,0,0,1,50,50h0A50,50,0,0,1,0,50H0A50,50,0,0,1,50,0Z" stroke="none"/>
              <path d="M 49.99972534179688 3 C 43.65348052978516 3 37.49866485595703 4.242240905761719 31.70623016357422 6.692230224609375 C 26.10989379882812 9.059272766113281 21.08323669433594 12.44853210449219 16.76589202880859 16.76587677001953 C 12.44855499267578 21.08321380615234 9.059295654296875 26.10985565185547 6.692230224609375 31.70618438720703 C 4.24224853515625 37.49859619140625 3 43.65341186523438 3 50.00022888183594 C 3 56.34645843505859 4.24224853515625 62.50127410888672 6.692230224609375 68.29368591308594 C 9.059295654296875 73.8900146484375 12.44855499267578 78.91665649414062 16.76589202880859 83.23399353027344 C 21.08323669433594 87.55132293701172 26.10989379882812 90.94059753417969 31.70623016357422 93.30764007568359 C 37.49866485595703 95.75762939453125 43.65348052978516 96.99987030029297 49.99972534179688 96.99987030029297 C 56.34597015380859 96.99987030029297 62.50078582763672 95.75762939453125 68.293212890625 93.30764007568359 C 73.88955688476562 90.94059753417969 78.91621398925781 87.55132293701172 83.23355865478516 83.23399353027344 C 87.55089569091797 78.91665649414062 90.94015502929688 73.8900146484375 93.30722045898438 68.29368591308594 C 95.7572021484375 62.50127410888672 96.99945068359375 56.34645843505859 96.99945068359375 49.99964141845703 C 96.99945068359375 43.65341186523438 95.7572021484375 37.49859619140625 93.30722045898438 31.70618438720703 C 90.94015502929688 26.10985565185547 87.55089569091797 21.08321380615234 83.23355865478516 16.76587677001953 C 78.91621398925781 12.44853210449219 73.88955688476562 9.059272766113281 68.293212890625 6.692230224609375 C 62.50078582763672 4.242240905761719 56.34597015380859 3 49.99972534179688 3 M 49.99972534179688 0 C 77.61381530761719 0 99.99945068359375 22.38559722900391 99.99945068359375 49.99964141845703 L 99.99945068359375 50.00022888183594 C 99.99945068359375 77.6142578125 77.61381530761719 99.99987030029297 49.99972534179688 99.99987030029297 C 22.38563537597656 99.99987030029297 0 77.6142578125 0 50.00022888183594 L 0 49.99964141845703 C 0 22.38559722900391 22.38563537597656 0 49.99972534179688 0 Z" stroke="none" fill="#fff"/>
            </g>
          </g>
        </g>
      </g>
    </g>
    <g id="layer2" transform="translate(-1472.42 -9803.26)">
      <g id="ic-stamp" transform="translate(43.42 22.259)">
        <path id="rect1865-7" d="M78.986,75.106l8.769-8.769V24.512a2.018,2.018,0,0,0-2.023-2.023H48.854a2.018,2.018,0,0,0-2.023,2.023v15a6.036,6.036,0,0,1,1.835-.287,5.511,5.511,0,0,1,5.692,5.31c0,4.647-3.009,8.3-3.009,16.93h2.3A2.06,2.06,0,0,1,55.6,63.628v1.083a2.367,2.367,0,0,1-.154.845h4.328a2.714,2.714,0,0,1,2.565,2.851v2.849H60.472v3a.88.88,0,0,1-.908.854Z" transform="translate(-34.268 -21.644)" fill="#e6e6e6"/>
        <path id="path1968" d="M67.614,31.856a8.044,8.044,0,1,1-8.044-8.044,8.044,8.044,0,0,1,8.044,8.044Z" transform="translate(-21.673 -18.095)" fill="#79e552"/>
        <path id="rect1922" d="M46.18,34.184a2.712,2.712,0,0,0-2.564,2.85v2.85H70.961v-2.85a2.712,2.712,0,0,0-2.564-2.85Z" transform="translate(-42.891 9.73)" fill="#ffc36e"/>
        <path id="path1914" d="M51.475,27.033a5.511,5.511,0,0,0-5.691,5.311c0,4.647,3.018,8.3,3.018,16.929h5.357c0-8.631,3.008-12.282,3.008-16.929A5.511,5.511,0,0,0,51.475,27.033Z" transform="translate(-37.077 -9.453)" fill="#ffc36e"/>
        <path id="rect1924" d="M44.123,35.731v2.994a.881.881,0,0,0,.908.855h21.8a.881.881,0,0,0,.908-.855V35.731Z" transform="translate(-41.532 13.881)" fill="#b3b3b3"/>
        <path id="rect1963" d="M47.457,33.072a2.06,2.06,0,0,0-1.949,2.164v1.082a2.369,2.369,0,0,0,.154.845H59a2.369,2.369,0,0,0,.154-.845V35.237A2.06,2.06,0,0,0,57.2,33.072Z" transform="translate(-37.817 6.748)" fill="#fe952f"/>
        <g id="Grupo_1119210" data-name="Grupo 1119210">
          <path id="path3006" d="M57.173,34.168a1.752,1.752,0,0,0-1.752,1.752v8.068h.841L65.046,35.2V34.168Z" transform="translate(-11.222 9.687)" fill="#b3b3b3"/>
          <path id="circle3020" d="M55.684,24.136A8.056,8.056,0,1,0,65.853,36.3,8.056,8.056,0,0,1,55.685,24.135Z" transform="translate(-21.455 -17.228)" fill="#3ace1a"/>
          <path id="path3025" d="M46.253,34.237a2.717,2.717,0,0,0-2.567,2.855v2.853h2.646V37.093A2.717,2.717,0,0,1,48.9,34.237Z" transform="translate(-42.707 9.873)" fill="#fe952f"/>
          <path id="path3039" d="M51.557,27.076a5.519,5.519,0,0,0-5.7,5.318c0,4.655,3.023,8.312,3.023,16.957h2.886c-.129-8.236-3.012-11.847-3.012-16.4a5.488,5.488,0,0,1,5.371-5.3A6,6,0,0,0,51.557,27.076Z" transform="translate(-36.884 -9.338)" fill="#fe952f"/>
          <path id="path3044" d="M48.742,26.4a8.418,8.418,0,0,0-1.837.212v2.554a6.045,6.045,0,0,1,1.837-.288,5.519,5.519,0,0,1,5.7,5.318c0,4.655-3.013,8.312-3.013,16.957h2.306a2.063,2.063,0,0,1,1.952,2.167v1.085a2.37,2.37,0,0,1-.154.846h4.334a2.719,2.719,0,0,1,2.569,2.855v2.853h-1.87v3a.881.881,0,0,1-.909.856h3.257a3.166,3.166,0,0,0,.13-.856v-.6a2.478,2.478,0,0,0,1.868-2.4V58.109a5.226,5.226,0,0,0-5.045-5.333H58.061a4.48,4.48,0,0,0-3.955-4.016,34.11,34.11,0,0,1,1.208-6.883c.729-2.494,1.6-4.816,1.6-7.678a8.025,8.025,0,0,0-8.177-7.8Z" transform="translate(-34.069 -11.143)" fill="#b3b3b3"/>
          <path id="rect1865" d="M58.283,22.259a3.022,3.022,0,0,0-3.006,3V35.926a.977.977,0,0,0,1.954,0V25.263a1.029,1.029,0,0,1,1.052-1.052H95.217a1.029,1.029,0,0,1,1.052,1.052V65.2H89.513a3.014,3.014,0,0,0-3,3v6.757H75.773a.977.977,0,1,0,0,1.954H88.46a.978.978,0,0,0,.692-.282l8.781-8.789a.976.976,0,0,0,.288-.684V25.263a3.021,3.021,0,0,0-3-3Zm23.348,4.885a9.03,9.03,0,1,0,9.035,9.027A9.045,9.045,0,0,0,81.631,27.145Zm0,1.944a7.082,7.082,0,1,1-7.081,7.083A7.068,7.068,0,0,1,81.631,29.089ZM84.909,33.3l-3.582,4.31L79.174,35.4a.975.975,0,0,0-1.4,1.361l2.911,2.983a.976.976,0,0,0,1.449-.057l4.279-5.137A.98.98,0,0,0,84.909,33.3ZM58.095,39.023a6.509,6.509,0,0,0-6.677,6.3c0,2.539.8,4.709,1.548,7.253A32.5,32.5,0,0,1,54.422,61.3h-1.1A3.045,3.045,0,0,0,50.4,64.439V65.4H46.965a3.708,3.708,0,0,0-3.545,3.833v2.851a.976.976,0,0,0,.98.974h.894v2.024a1.875,1.875,0,0,0,1.887,1.83H69.009a1.876,1.876,0,0,0,1.889-1.83V73.057h.892a.976.976,0,0,0,.972-.974V69.231A3.706,3.706,0,0,0,69.218,65.4H66.012v-.959A3.045,3.045,0,0,0,63.088,61.3H61.775a32.591,32.591,0,0,1,1.449-8.726c.744-2.544,1.542-4.715,1.542-7.253A6.5,6.5,0,0,0,58.095,39.023Zm0,1.952a4.538,4.538,0,0,1,4.727,4.346c0,2.117-.707,4.1-1.47,6.706a37.651,37.651,0,0,0-1.4,9.273h-3.7a37.562,37.562,0,0,0-1.4-9.273c-.765-2.609-1.47-4.59-1.47-6.706a4.536,4.536,0,0,1,4.725-4.346Zm15.727,7.611a1,1,0,1,0,1,1A1,1,0,0,0,73.822,48.586Zm3.906.027a.976.976,0,1,0,0,1.952H91.384a.976.976,0,1,0,0-1.952Zm-9.761,4.853a1,1,0,1,0,1,1A1,1,0,0,0,67.966,53.466Zm3.9.023a.977.977,0,0,0,0,1.954H91.384a.977.977,0,1,0,0-1.954Zm1.952,4.857a1,1,0,1,0,1,1A1,1,0,0,0,73.822,58.345Zm3.906.021a.976.976,0,1,0,0,1.952H91.384a.976.976,0,1,0,0-1.952Zm-24.4,4.885h9.763a1.075,1.075,0,0,1,.972,1.187V65.4h-5.85a.976.976,0,1,0,0,1.952H69.218a1.736,1.736,0,0,1,1.592,1.881V71.1H45.373V69.231a1.736,1.736,0,0,1,1.592-1.881h7.34a.976.976,0,0,0,0-1.952H52.353v-.959a1.075,1.075,0,0,1,.972-1.187Zm36.187,3.9h6.355l-7.407,7.4V68.2a1.023,1.023,0,0,1,1.052-1.045Zm-42.267,5.9h21.7v1.9h-21.7Z" transform="translate(-43.42 -22.259)"/>
        </g>
      </g>
    </g>
  </g>
</svg>
