<svg xmlns="http://www.w3.org/2000/svg" xmlns:xlink="http://www.w3.org/1999/xlink" width="215" height="189" viewBox="0 0 215 189">
  <defs>
    <clipPath id="clip-path">
      <rect id="Rect치ngulo_404820" data-name="Rect치ngulo 404820" width="215" height="162" rx="13" transform="translate(0 -0.374)" fill="#fff"/>
    </clipPath>
  </defs>
  <g id="Grupo_1119196" data-name="Grupo 1119196" transform="translate(-205.88 -936)">
    <g id="Grupo_1115605" data-name="Grupo 1115605" transform="translate(205.88 936)">
      <rect id="Rect치ngulo_404642" data-name="Rect치ngulo 404642" width="215" height="189" rx="8" fill="#997b00"/>
    </g>
    <g id="Enmascarar_grupo_1098770" data-name="Enmascarar grupo 1098770" transform="translate(205.88 963.374)" clip-path="url(#clip-path)">
      <g id="Grupo_1112759" data-name="Grupo 1112759" transform="translate(-10.272 11.608)">
        <g id="Grupo_1112759-2" data-name="Grupo 1112759">
          <path id="Trazado_901856" data-name="Trazado 901856" d="M0,213.883c3.7-12.488,16.881-13.168,21.365-9.5,6.267,5.124,8.475,17.678,10.922,25.017,10.194-14.678,15.9,8.974,17.127,16.313,8.153-9.38,16.31.817,22.02,7.744.815-4.892,5.3-11.414,11.417-11.414,5.708.406,8.156,6.522,10.6,10.6,8.154-8.974,16.719,3.263,18.756,10.6,8.156-2.858,13.049,2.852,15.907,10.191.406-17.124,9.375-22.835,24.463-15.084,1.635-5.3.412-12.239,6.528-15.5,7.339-4.079,11.008,2.854,14.678,8.152,2.041-10.6,13.455-2.035,16.719,2.446,0-6.927,7.751-11.008,13.049-5.3,0-4.487-2.04-13.048,2.041-15.9,4.487-3.264,8.968.811,12.231,3.257-.818-11.008,9.785-9.785,15.907-3.669,0-6.522-.411-13.049,6.116-16.31,6.116-3.262,11.414.815,12.232,7.343V352.459H0Z" transform="translate(0 -202.442)" fill="#eff2d1"/>
          <path id="Trazado_901857" data-name="Trazado 901857" d="M241.125,330.5a6.51,6.51,0,0,1-.289,2.037,8.917,8.917,0,0,1,.289-2.037c-.058-2.868-2.092-5.157-5.05-3.564-3.361,1.68-4.2,7-4.482,10.083-5.321-7.562-10.924,1.68-10.643,7.282-7-6.722-8.683,4.482-8.683,9.523-1.031-5.927-8.7-5.922-11.443-1.523a6.946,6.946,0,0,1-.6,1.242,6.184,6.184,0,0,1,.6-1.242c2.088-5.743-6.479-9.294-10.4-3.8.84-3.641,0-12.324-5.042-12.324-3.754,0-6.388,5.813-6.307,9.449a4.78,4.78,0,0,1,.145,1.195,5.457,5.457,0,0,1-.145-1.195c-.869-3.371-5.476-3.656-8.258-1.886-3.361,1.96-3.922,6.442-4.482,10.083-4.428-4.168-10.791-1.308-10.308,4.294a4.906,4.906,0,0,1,.225,1.308,7.842,7.842,0,0,1-.225-1.308c-1.539-4.782-10.46-.841-10.979,3.829-4.2-1.961-5.321-5.6-10.643-5.322-3.921,0-7.842,2.241-7.842,6.443-5.042-6.443-11.764-4.482-14,3.361-6.723-4.762-14.565-5.042-15.405,5.321-3.081-2.521-5.042-6.442-9.523-7A9.922,9.922,0,0,0,78.1,371.19c-.28-5.321-7-20.447-13.164-10.923,0-4.2,0-10.643-3.642-13.445a6.692,6.692,0,0,0-10.083,1.4c-1.961-4.761-3.641-11.2-9.523-12.883-4.761-1.121-7.842,1.4-8.683,6.161-.84-4.2-3.081-8.4-7.843-8.962-5.042-.84-5.882,2.521-7.562,6.162-1.4-2.241-2.521-8.123-5.042-8.963-3.921-1.12-5.882,4.2-6.162,7-1.87-2.806-3.356-6.578-6.4-8.241V412.52H252.082V323.7C247.922,322.957,242.435,325.511,241.125,330.5Z" transform="translate(0 -262.502)" fill="#eff2d1" style="mix-blend-mode: multiply;isolation: isolate"/>
        </g>
      </g>
      <g id="Grupo_1112758" data-name="Grupo 1112758" transform="translate(-22.552 0)">
        <g id="Grupo_1112757" data-name="Grupo 1112757" transform="translate(0)">
          <g id="Grupo_1112660" data-name="Grupo 1112660" transform="translate(132.081 72.173)">
            <g id="Grupo_1112659" data-name="Grupo 1112659" transform="translate(0)">
              <path id="Trazado_901710" data-name="Trazado 901710" d="M260.15,200.242c20.473,11.529,60.929,52.726,60.929,70.787,0,11.5-39.116,22.317-38.733,8.665S244.091,191.2,260.15,200.242Z" transform="translate(-256.241 -199.487)" fill="#e05b2e"/>
              <path id="Trazado_901711" data-name="Trazado 901711" d="M260.15,200.242c-16.059-9.043,22.579,65.8,22.2,79.452-.147,5.227,5.5,6.864,12.521,6.253-2.134-24.536-8.657-60.589-28.17-81.5A77.042,77.042,0,0,0,260.15,200.242Z" transform="translate(-256.241 -199.487)" fill="#b6300d"/>
            </g>
            <path id="Trazado_901712" data-name="Trazado 901712" d="M318.228,251.024c.086-.037.174-.071.262-.108q-.412-.568-.836-1.14c-.111.047-.224.092-.335.139q-.8-.963-1.609-1.914c-2.992-3.487-6.075-6.9-9.177-10.293.309-.13.622-.247.932-.372-.321-.361-.643-.719-.968-1.079-.312.13-.626.251-.936.385-3-3.275-6-6.542-8.946-9.854.153-.115.309-.225.462-.339q-.481-.471-.96-.938c-.127.1-.258.188-.386.284q-1.856-2.1-3.724-4.184c-3.19-2.954-6.37-5.731-9.44-8.242,3.89,4.1,7.673,8.309,11.424,12.541.212.24.429.476.642.716q-1.8,1.374-3.544,2.809c-5.045-7.464-10.425-14.717-15.991-21.794-1.307-.929-2.574-1.79-3.789-2.565,6.541,8.164,12.864,16.563,18.73,25.252-.493.418-.992.827-1.479,1.256-4.082,3.591-7.918,7.443-11.631,11.414.19.476.382.949.572,1.425,3.29-3.527,6.673-6.966,10.227-10.234,1.008-.928,2.034-1.832,3.072-2.725q3.18,4.757,6.165,9.633-1.873,1.122-3.685,2.323a138.185,138.185,0,0,0-12.413,9.394q.273.685.542,1.365a147.625,147.625,0,0,1,12.1-9.255q2.033-1.378,4.159-2.659,4.072,6.749,7.688,13.743a144.445,144.445,0,0,0-18.32,13q.248.706.481,1.388a143.271,143.271,0,0,1,18.465-13.164,185.523,185.523,0,0,1,11.4,27.592.662.662,0,0,0,.226.322c.381-.165.755-.337,1.123-.511a.6.6,0,0,0-.019-.177,187.093,187.093,0,0,0-11.541-27.924,104,104,0,0,1,9.749-4.955,106.159,106.159,0,0,1,11.12,16.28,59.522,59.522,0,0,0-6.74-12.884Q319.8,252.973,318.228,251.024Zm-26.372-20.446q1.8-1.515,3.667-2.96,4.322,4.838,8.7,9.625c-2.073.952-4.1,2.013-6.075,3.156Q295.109,235.424,291.856,230.578Zm14.688,24.732q-3.606-7-7.694-13.745a69.122,69.122,0,0,1,6.324-3.27c2.841,3.126,5.675,6.256,8.465,9.423q1.2,1.363,2.367,2.759A105.742,105.742,0,0,0,306.543,255.311Z" transform="translate(-264.407 -202.515)" fill="#b6300d" opacity="0.3"/>
            <path id="Trazado_901713" data-name="Trazado 901713" d="M319.489,357.285s-9.234-1.391-8.779-13.92,25.455-23.122,33.778-21.77,5.224,6.829,5.224,6.829,9.274,6.016,7.335,15.277S336.523,360.928,319.489,357.285Z" transform="translate(-285.748 -265.591)" fill="#b6300d"/>
          </g>
          <g id="Grupo_1112661" data-name="Grupo 1112661" transform="translate(158.232 140.41)">
            <path id="Trazado_901714" data-name="Trazado 901714" d="M351.762,349.124c6.881,8.137-1.042,34.52-34.352,45.012l-4.086-16.557,4.086-18.639S333.581,345.259,351.762,349.124Z" transform="translate(-313.324 -348.436)" fill="#ffa17b"/>
            <path id="Trazado_901715" data-name="Trazado 901715" d="M317.41,358.94l-4.086,18.639,4.086,16.557a69.576,69.576,0,0,0,14.983-6.664,18.968,18.968,0,0,0,.738-2.712c.35-1.836,1.136-7.779-1.661-8.129a52.393,52.393,0,0,1,9-16.694A35.7,35.7,0,0,1,350.7,351.02c.5-.271,1.089-.612,1.723-.973a7.671,7.671,0,0,0-.662-.924C333.581,345.259,317.41,358.94,317.41,358.94Z" transform="translate(-313.324 -348.436)" fill="#cf6e4b" opacity="0.4"/>
          </g>
          <g id="Grupo_1112662" data-name="Grupo 1112662" transform="translate(36.811 63.546)">
            <path id="Trazado_901716" data-name="Trazado 901716" d="M70.7,199.611C56.349,225.354,40.49,270,52.552,310.338H171.187s15.573-95.325-29.5-124.179C129.028,178.059,83.747,176.2,70.7,199.611Z" transform="translate(-48.281 -180.654)" fill="#e05b2e"/>
            <path id="Trazado_901717" data-name="Trazado 901717" d="M79.718,255.1c3.969-10.271,7.1-29.571,3.881-40.385a20.55,20.55,0,0,0-6.307-9.909A28.42,28.42,0,0,0,70.7,212.7c-14.351,25.743-30.21,70.39-18.148,110.727H79.3C71.549,311.226,67.575,286.527,79.718,255.1Z" transform="translate(-48.281 -193.741)" fill="#b6300d"/>
            <path id="Trazado_901718" data-name="Trazado 901718" d="M165.7,269.451a180.247,180.247,0,0,0-1.906-19.445q4.476-.961,8.915-2.076c-.058-.475-.117-.948-.178-1.423q-4.462,1.117-8.964,2.089a184.907,184.907,0,0,0-5.167-22.763q4.505-1.606,8.921-3.442c-.141-.44-.289-.876-.435-1.313q-4.393,1.833-8.878,3.432-2.434-8.06-5.579-15.916-1.075-2.681-2.211-5.334,3.283-1.346,6.457-2.925-.4-.572-.821-1.132-3.035,1.5-6.175,2.788-1.051-2.439-2.149-4.859c2.38.124,4.755.3,7.128.5q-.6-.75-1.214-1.473-3.27-.255-6.543-.411-2.159-4.713-4.47-9.355c-.119-.077-.231-.161-.35-.237a18.385,18.385,0,0,0-1.8-1q2.636,5.216,5.081,10.525a182.04,182.04,0,0,0-23.674.557q-3.187-7.877-6.774-15.584c-.5,0-1.006.008-1.513.018q3.648,7.746,6.857,15.7c-3.87.386-7.73.906-11.575,1.581-.156.028-.311.061-.467.088-1.088-5.6-2.276-11.172-3.529-16.734q-.688.087-1.375.186,1.882,8.37,3.535,16.807a155.226,155.226,0,0,0-16.088,3.989q-1.154-5.42-2.558-10.78c-.473-1.8-.978-3.587-1.5-5.373q-.646.293-1.278.6Q87.7,194.65,89.417,202.7q-3.8,1.185-7.529,2.521a76.56,76.56,0,0,0-18.052,8.952q-.548,1.231-1.089,2.494c5.992-4.6,12.954-7.762,20.044-10.306q3.425-1.23,6.912-2.312,1.319,6.392,2.263,12.852c-10.357,1.778-20.775,3.229-31.2,4.556q-.287.721-.569,1.449c10.682-1.355,21.348-2.84,31.958-4.659a215.133,215.133,0,0,1,1.956,21.909c.009.23.011.46.019.69a328.9,328.9,0,0,1-39.988,5.223c-.416.027-.833.045-1.25.07q-.165.684-.325,1.373a321.488,321.488,0,0,0,35.658-4.129c1.986-.338,3.966-.7,5.944-1.075q.187,7.066-.11,14.125a267.255,267.255,0,0,1-42.919-2.1q-.126.675-.247,1.352a268.7,268.7,0,0,0,40.334,2.182c.919-.014,1.84-.036,2.76-.057q-.4,7.987-1.416,15.922a349.02,349.02,0,0,1-43.451-4.472c-.038.461-.074.923-.107,1.386a346.4,346.4,0,0,0,43.369,4.514,209.921,209.921,0,0,1-4.009,21.331,201.251,201.251,0,0,1-39.357-7.717c.038.492.079.983.124,1.476a202.722,202.722,0,0,0,38.9,7.557c-.541,2.171-1.108,4.335-1.718,6.489q-.86,3.039-1.824,6.048h1.42c1.285-4.1,2.461-8.237,3.5-12.405,7.039.654,14.112,1,21.193,1.086.673.008,1.346.011,2.02.016q-.473,4.037-1.083,8.068-.247,1.62-.52,3.235h1.332q.922-5.633,1.575-11.292c10.032.058,20.056-.161,30.047-.823q.086,6.058-.146,12.115H145.2q.224-6.1.132-12.2,9.194-.646,18.347-1.849-.654,7.055-1.8,14.053h1.378q1.133-7.085,1.786-14.233,3.825-.528,7.64-1.172c.214-.037.427-.077.641-.114q.056-.713.112-1.451-4.12.726-8.265,1.321a199.335,199.335,0,0,0,.583-23.856q4.2-.619,8.392-1.35c-.009-.463-.02-.929-.03-1.4Q169.919,268.822,165.7,269.451Zm-1.376.2q-10.383,1.5-20.847,2.418c-.212-1.669-.435-3.337-.683-5-.651-4.373-1.459-8.7-2.386-12.992q6.478-.906,12.908-2.029,4.592-.8,9.163-1.761A190.512,190.512,0,0,1,164.325,269.655Zm-48.931-12.891q11.884-.9,23.695-2.5,1.871,8.9,3.025,17.927c-8.839.763-17.7,1.259-26.527,1.553Q115.736,265.258,115.395,256.765ZM95.554,242.044c5.771-1.114,11.513-2.359,17.24-3.679q.827,8.505,1.227,17.036-5.27.383-10.533.658-4.021.212-8.055.326c.022-.5.052-1.009.07-1.514Q95.734,248.458,95.554,242.044Zm18.426-5.382q-1.1-11.074-2.85-22.087,7.422-1.614,14.783-3.549,1.373,3.721,2.706,7.452c1.6,4.479,3.134,8.971,4.563,13.492-4.242,1.1-8.494,2.146-12.74,3.17Q117.214,235.92,113.98,236.662Zm6.829-.19c4.271-1.028,8.537-2.081,12.788-3.187,1.62,5.209,3.093,10.464,4.347,15.8q.446,1.895.856,3.795c-7.8,1.045-15.636,1.836-23.47,2.429q-.381-8.63-1.216-17.249Q117.463,237.277,120.809,236.472Zm41.452,12.4c-7.326,1.539-14.723,2.795-22.155,3.818-1.482-6.656-3.261-13.226-5.256-19.738,5.358-1.409,10.692-2.912,15.977-4.582q3.209-1.016,6.386-2.131A174.945,174.945,0,0,1,162.261,248.877ZM153.448,215c1.231,3.269,2.342,6.581,3.359,9.923-7.339,2.571-14.829,4.742-22.363,6.716-2.192-7.043-4.627-14.02-7.2-20.968q6.086-1.634,12.1-3.508c3.236-1.014,6.446-2.133,9.6-3.385Q151.313,209.344,153.448,215Zm-7.466-17.953q1.234,2.717,2.416,5.458a187.024,187.024,0,0,1-21.631,6.859q-.667-1.788-1.344-3.577-1.569-4.142-3.215-8.258A177.992,177.992,0,0,1,145.982,197.05Zm-36.933,2.232c3.888-.7,7.8-1.231,11.726-1.619q2.41,5.994,4.65,12.054-2.1.546-4.183,1.072-5.147,1.3-10.332,2.428-1.112-6.932-2.433-13.824C108.668,199.356,108.858,199.316,109.049,199.283Zm-18,4.356a161.846,161.846,0,0,1,16.06-3.983q1.323,6.912,2.45,13.859-8.074,1.74-16.214,3.146Q92.38,210.118,91.044,203.639ZM93.534,218q7.6-1.324,15.146-2.9c.365-.077.729-.159,1.094-.237q1.743,11.018,2.882,22.1-8.551,1.951-17.15,3.617A214.884,214.884,0,0,0,93.534,218Zm1.834,39.772q9.354-.242,18.72-.915.346,8.458.208,16.925c-.476.015-.952.032-1.428.046q-9.478.274-18.923-.054Q94.962,265.814,95.368,257.776Zm17.411,39.93q-5.005-.074-9.994-.255-6.536-.24-13.048-.836A211.223,211.223,0,0,0,93.763,275.2q3.7.122,7.4.159c4.359.036,8.725-.017,13.094-.124C114.091,282.732,113.613,290.224,112.779,297.706Zm1.309.021c.821-7.484,1.292-14.994,1.464-22.516q13.382-.37,26.742-1.6.471,3.854.821,7.719.7,7.78.85,15.59C134.018,297.611,124.033,297.843,114.089,297.726Zm49.718-2.845q-9.209,1.271-18.5,1.944-.244-11.7-1.651-23.344,9.884-.935,19.694-2.292c.342-.048.684-.1,1.027-.152.085,2.273.139,4.546.146,6.817Q164.542,286.383,163.806,294.881Z" transform="translate(-48.679 -180.655)" fill="#b6300d" opacity="0.3"/>
          </g>
          <g id="Grupo_1112695" data-name="Grupo 1112695" transform="translate(34.2 65.956)">
            <path id="Trazado_901719" data-name="Trazado 901719" d="M42.58,329.422s20.034-5.3,28.649-14.477c9.281-9.882,17.022-43.054,17.022-43.054l68.838-3.5s12.62,36.629,15.792,55.018v50.911H42.58Z" transform="translate(-42.58 -230.609)" fill="#0e84c4"/>
            <path id="Trazado_901720" data-name="Trazado 901720" d="M119.578,191.323s12.072,15.128,12.161,44.015c.018,5.767,12.78,6.444,12.759-1.61-.033-12.789-11.2-40.038-19.019-45.33Z" transform="translate(-84.304 -187.26)" fill="#085dad"/>
            <path id="Trazado_901721" data-name="Trazado 901721" d="M240.08,188.841s12.072,15.128,12.161,44.014c.017,5.767,12.779,6.445,12.759-1.61-.035-12.788-11.2-40.038-19.02-45.33Z" transform="translate(-149.602 -185.915)" fill="#085dad"/>
            <g id="Grupo_1112663" data-name="Grupo 1112663" transform="translate(59.467 57.109)">
              <path id="Trazado_901722" data-name="Trazado 901722" d="M222.756,318.555c-.028-2.4-.218-4.789-.485-7.169-.1-.874-1.478-.884-1.379,0,.81,7.234.86,14.774-1.65,21.7-2.849,7.867-9.752,12.8-17.806,14.413a21.312,21.312,0,0,1-22.552-9.661c-4.4-6.865-5.339-15.478-5.076-23.47a72.026,72.026,0,0,1,9.676-1.354,299.077,299.077,0,0,1,35.381-.939.691.691,0,0,0,0-1.381,303.944,303.944,0,0,0-35.381.939,69.632,69.632,0,0,0-10.533,1.519.7.7,0,0,0-.507.665c-.325,8.165.65,16.633,4.727,23.853a22.444,22.444,0,0,0,19.81,11.64,25.8,25.8,0,0,0,20.452-9.887C221.824,333.531,222.836,325.7,222.756,318.555Z" transform="translate(-172.387 -310.575)" fill="#085dad"/>
              <path id="Trazado_901723" data-name="Trazado 901723" d="M182.554,325.664a3.994,3.994,0,0,1-1.755.162c-.868-.186-1.237,1.145-.367,1.332a5.526,5.526,0,0,0,2.488-.164C183.785,326.782,183.419,325.451,182.554,325.664Z" transform="translate(-176.477 -318.739)" fill="#085dad"/>
              <path id="Trazado_901724" data-name="Trazado 901724" d="M195.2,324.6a9.812,9.812,0,0,1-2.1.3.691.691,0,0,0,0,1.381,11.424,11.424,0,0,0,2.467-.352C196.431,325.718,196.064,324.386,195.2,324.6Z" transform="translate(-183.248 -318.16)" fill="#085dad"/>
              <path id="Trazado_901725" data-name="Trazado 901725" d="M208.927,322.811a8.741,8.741,0,0,1-1.938.3.691.691,0,0,0,0,1.38,10.468,10.468,0,0,0,2.3-.351A.691.691,0,0,0,208.927,322.811Z" transform="translate(-190.776 -317.193)" fill="#085dad"/>
              <path id="Trazado_901726" data-name="Trazado 901726" d="M220.525,322.784a.691.691,0,0,0,0,1.381h2.285a.691.691,0,0,0,0-1.381Z" transform="translate(-198.11 -317.191)" fill="#085dad"/>
              <path id="Trazado_901727" data-name="Trazado 901727" d="M234.926,322.459a3.736,3.736,0,0,1-1.756.161.691.691,0,0,0-.366,1.332,5.076,5.076,0,0,0,2.488-.163C236.158,323.581,235.79,322.249,234.926,322.459Z" transform="translate(-204.861 -317.003)" fill="#085dad"/>
              <path id="Trazado_901728" data-name="Trazado 901728" d="M247.6,322.43a.691.691,0,0,0,0,1.381h2.611a.691.691,0,0,0,0-1.381Z" transform="translate(-212.78 -316.999)" fill="#085dad"/>
              <path id="Trazado_901729" data-name="Trazado 901729" d="M264.336,322.074a.691.691,0,0,0,0,1.38h1.8a.691.691,0,0,0,0-1.38Z" transform="translate(-221.851 -316.806)" fill="#085dad"/>
            </g>
            <g id="Grupo_1112664" data-name="Grupo 1112664" transform="translate(46.048 10.14)">
              <path id="Trazado_901730" data-name="Trazado 901730" d="M143.15,208.559c.682,1.1,1.28,2.258,1.962,3.363.234.379.831.033.6-.347-.682-1.1-1.28-2.258-1.962-3.363-.233-.378-.83-.031-.6.348Z" transform="translate(-143.096 -208.048)" fill="#0e84c4"/>
            </g>
            <g id="Grupo_1112676" data-name="Grupo 1112676" transform="translate(41.846 14.202)">
              <g id="Grupo_1112665" data-name="Grupo 1112665" transform="translate(7.556 2.402)">
                <path id="Trazado_901731" data-name="Trazado 901731" d="M150.446,222.569a16.136,16.136,0,0,0,1.436,3.025c.25.364.849.019.6-.348a15.333,15.333,0,0,1-1.366-2.86c-.17-.4-.838-.226-.666.183Z" transform="translate(-150.417 -222.158)" fill="#0e84c4"/>
              </g>
              <g id="Grupo_1112666" data-name="Grupo 1112666" transform="translate(9.96 8.124)">
                <path id="Trazado_901732" data-name="Trazado 901732" d="M155.672,235.083a16.038,16.038,0,0,1,.408,2.431.345.345,0,0,0,.69,0,17.234,17.234,0,0,0-.432-2.614c-.078-.438-.743-.252-.665.184Z" transform="translate(-155.665 -234.65)" fill="#0e84c4"/>
              </g>
              <g id="Grupo_1112667" data-name="Grupo 1112667" transform="translate(11.904 12.765)">
                <path id="Trazado_901733" data-name="Trazado 901733" d="M159.932,245.2c.408,1.079.853,2.144,1.261,3.223.156.412.823.235.665-.183-.408-1.08-.853-2.144-1.261-3.223-.156-.413-.824-.234-.665.183Z" transform="translate(-159.908 -244.779)" fill="#0e84c4"/>
              </g>
              <g id="Grupo_1112668" data-name="Grupo 1112668" transform="translate(13.741 18.495)">
                <path id="Trazado_901734" data-name="Trazado 901734" d="M163.926,257.72c.152.711.409,1.393.561,2.1.093.435.758.251.666-.183-.152-.711-.409-1.392-.561-2.1-.093-.436-.759-.25-.666.183Z" transform="translate(-163.918 -257.289)" fill="#0e84c4"/>
              </g>
              <g id="Grupo_1112669" data-name="Grupo 1112669">
                <path id="Trazado_901735" data-name="Trazado 901735" d="M133.976,217.428a17.469,17.469,0,0,1,1.506,3.561c.14.421.807.24.666-.183a18.3,18.3,0,0,0-1.576-3.725.345.345,0,0,0-.6.347Z" transform="translate(-133.924 -216.916)" fill="#0e84c4"/>
              </g>
              <g id="Grupo_1112670" data-name="Grupo 1112670" transform="translate(2.666 6.582)">
                <path id="Trazado_901736" data-name="Trazado 901736" d="M139.791,231.8a6.494,6.494,0,0,1,.666,2.019c.087.437.753.251.666-.183a7.068,7.068,0,0,0-.735-2.184.345.345,0,0,0-.6.348Z" transform="translate(-139.743 -231.284)" fill="#0e84c4"/>
              </g>
              <g id="Grupo_1112671" data-name="Grupo 1112671" transform="translate(4.354 11.908)">
                <path id="Trazado_901737" data-name="Trazado 901737" d="M143.436,243.342c.122.65.157,1.312.28,1.962.083.437.748.251.666-.183-.123-.651-.158-1.312-.28-1.962-.082-.437-.748-.252-.665.184Z" transform="translate(-143.429 -242.909)" fill="#0e84c4"/>
              </g>
              <g id="Grupo_1112672" data-name="Grupo 1112672" transform="translate(5.463 16.822)">
                <path id="Trazado_901738" data-name="Trazado 901738" d="M145.869,254.06a16.672,16.672,0,0,1,.56,2.382c.074.438.739.252.665-.183a16.46,16.46,0,0,0-.56-2.382c-.137-.422-.8-.242-.665.183Z" transform="translate(-145.85 -253.637)" fill="#0e84c4"/>
              </g>
              <g id="Grupo_1112673" data-name="Grupo 1112673" transform="translate(6.871 22.846)">
                <path id="Trazado_901739" data-name="Trazado 901739" d="M148.922,267.117v1.4a.345.345,0,0,0,.69,0v-1.4a.345.345,0,0,0-.69,0Z" transform="translate(-148.922 -266.784)" fill="#0e84c4"/>
              </g>
              <g id="Grupo_1112674" data-name="Grupo 1112674" transform="translate(6.871 27.61)">
                <path id="Trazado_901740" data-name="Trazado 901740" d="M148.922,277.519a8.316,8.316,0,0,0,.153,1.913c.1.433.767.249.665-.184a7.561,7.561,0,0,1-.128-1.729.345.345,0,0,0-.69,0Z" transform="translate(-148.922 -277.185)" fill="#0e84c4"/>
              </g>
              <g id="Grupo_1112675" data-name="Grupo 1112675" transform="translate(15.544 23.138)">
                <path id="Trazado_901741" data-name="Trazado 901741" d="M167.882,267.836a12.254,12.254,0,0,1,.7,2.943c.063.439.728.251.665-.184a12.217,12.217,0,0,0-.7-2.943c-.166-.406-.834-.228-.665.183Z" transform="translate(-167.855 -267.423)" fill="#0e84c4"/>
              </g>
            </g>
            <g id="Grupo_1112686" data-name="Grupo 1112686" transform="translate(99.289 18.563)">
              <g id="Grupo_1112677" data-name="Grupo 1112677" transform="translate(7.161 1.799)">
                <path id="Trazado_901742" data-name="Trazado 901742" d="M274.992,230.88a13.212,13.212,0,0,1,1.226,3.141.346.346,0,0,0,.667-.183,13.934,13.934,0,0,0-1.3-3.305c-.217-.389-.813-.041-.6.348Z" transform="translate(-274.945 -230.363)" fill="#0e84c4"/>
              </g>
              <g id="Grupo_1112678" data-name="Grupo 1112678" transform="translate(9.127 6.987)">
                <path id="Trazado_901743" data-name="Trazado 901743" d="M279.245,242.119q.21,1.051.42,2.1c.088.436.752.252.665-.183q-.21-1.051-.42-2.1c-.087-.436-.753-.251-.665.184Z" transform="translate(-279.237 -241.687)" fill="#0e84c4"/>
              </g>
              <g id="Grupo_1112679" data-name="Grupo 1112679" transform="translate(10.393 11.601)">
                <path id="Trazado_901744" data-name="Trazado 901744" d="M282.037,252.283a8.22,8.22,0,0,1,.525,1.6.346.346,0,0,0,.666-.183,8.995,8.995,0,0,0-.6-1.764c-.192-.4-.788-.05-.6.348Z" transform="translate(-281.999 -251.758)" fill="#0e84c4"/>
              </g>
              <g id="Grupo_1112680" data-name="Grupo 1112680" transform="translate(11.926 15.818)">
                <path id="Trazado_901745" data-name="Trazado 901745" d="M285.357,261.393a5.954,5.954,0,0,0,.595,1.764c.235.377.833.031.6-.349a5.447,5.447,0,0,1-.527-1.6c-.105-.432-.771-.249-.665.183Z" transform="translate(-285.346 -260.963)" fill="#0e84c4"/>
              </g>
              <g id="Grupo_1112681" data-name="Grupo 1112681" transform="translate(0)">
                <path id="Trazado_901746" data-name="Trazado 901746" d="M259.341,226.848a22.51,22.51,0,0,1,.84,3.223c.1.433.771.249.666-.183a22.312,22.312,0,0,0-.842-3.223c-.164-.408-.831-.229-.664.183Z" transform="translate(-259.314 -226.435)" fill="#0e84c4"/>
              </g>
              <g id="Grupo_1112682" data-name="Grupo 1112682" transform="translate(1.424 5.585)">
                <path id="Trazado_901747" data-name="Trazado 901747" d="M262.426,239.06a16.271,16.271,0,0,0,.559,2.662c.137.422.8.241.666-.184a16.119,16.119,0,0,1-.56-2.662c-.063-.44-.729-.252-.665.183Z" transform="translate(-262.422 -238.626)" fill="#0e84c4"/>
              </g>
              <g id="Grupo_1112683" data-name="Grupo 1112683" transform="translate(2.816 11.338)">
                <path id="Trazado_901748" data-name="Trazado 901748" d="M265.462,251.518a7.935,7.935,0,0,0,.293,1.774.346.346,0,0,0,.666-.184,6.978,6.978,0,0,1-.268-1.59.346.346,0,0,0-.691,0Z" transform="translate(-265.462 -251.184)" fill="#0e84c4"/>
              </g>
              <g id="Grupo_1112684" data-name="Grupo 1112684" transform="translate(4.086 15.954)">
                <path id="Trazado_901749" data-name="Trazado 901749" d="M268.236,261.694c.129.89.272,1.776.421,2.662.072.439.738.252.665-.183-.148-.887-.291-1.773-.421-2.662-.062-.44-.727-.252-.665.183Z" transform="translate(-268.232 -261.26)" fill="#0e84c4"/>
              </g>
              <g id="Grupo_1112685" data-name="Grupo 1112685" transform="translate(4.217 22.409)">
                <path id="Trazado_901750" data-name="Trazado 901750" d="M268.52,275.684v1.961a.345.345,0,0,0,.69,0v-1.961a.345.345,0,0,0-.69,0Z" transform="translate(-268.52 -275.351)" fill="#0e84c4"/>
              </g>
            </g>
            <g id="Grupo_1112690" data-name="Grupo 1112690" transform="translate(104.614 37.61)">
              <g id="Grupo_1112688" data-name="Grupo 1112688">
                <g id="Grupo_1112687" data-name="Grupo 1112687">
                  <path id="Trazado_901751" data-name="Trazado 901751" d="M280.654,272.318c-.415-2.853-4-5.3-6.734-3.9-2.311,1.188-3.392,4.51-2.841,6.937a4.53,4.53,0,0,0,6.9,2.91c1.174-.7,1.982-1.03,2.422-2.489A8.191,8.191,0,0,0,280.654,272.318Zm-6.016.552c-.81,1.016-2.343.806-1.94-.74a1.988,1.988,0,0,1,.489-.9C274.255,270.157,275.472,271.823,274.638,272.87Zm4.2,2.5c-1.316,1.306-2.6-.654-1.487-1.856C278.544,272.219,279.992,274.227,278.836,275.373Z" transform="translate(-270.937 -268.013)" fill="#ffa53e"/>
                </g>
              </g>
              <g id="Grupo_1112689" data-name="Grupo 1112689" transform="translate(0.743 1.193)">
                <path id="Trazado_901752" data-name="Trazado 901752" d="M274.341,270.7c-3.09,2.623-2.054,8.488,2.3,8.765.443.028.441-.661,0-.69-3.794-.241-4.389-5.4-1.811-7.586.339-.288-.151-.775-.489-.488Z" transform="translate(-272.56 -270.618)" fill="#ffb448"/>
              </g>
            </g>
            <g id="Grupo_1112694" data-name="Grupo 1112694" transform="translate(49.411 38.747)">
              <g id="Grupo_1112692" data-name="Grupo 1112692" transform="translate(0)">
                <g id="Grupo_1112691" data-name="Grupo 1112691">
                  <path id="Trazado_901753" data-name="Trazado 901753" d="M160.153,274.8c-.415-2.853-4-5.3-6.735-3.9-2.311,1.188-3.392,4.511-2.84,6.939a4.529,4.529,0,0,0,6.9,2.909c1.174-.7,1.982-1.03,2.423-2.488A8.213,8.213,0,0,0,160.153,274.8Zm-6.016.551c-.81,1.017-2.343.807-1.94-.739a1.988,1.988,0,0,1,.49-.9C153.754,272.639,154.971,274.306,154.137,275.351Zm4.2,2.5c-1.316,1.306-2.6-.654-1.488-1.857C158.043,274.7,159.492,276.709,158.335,277.856Z" transform="translate(-150.437 -270.495)" fill="#ffa53e"/>
                </g>
              </g>
              <g id="Grupo_1112693" data-name="Grupo 1112693" transform="translate(0.742 2.375)">
                <path id="Trazado_901754" data-name="Trazado 901754" d="M152.7,275.859c-.8,1.809-1.021,4.411.36,6.025a5.034,5.034,0,0,0,6.361.739c.362-.252.017-.851-.348-.6a4.28,4.28,0,0,1-5.645-.805,5.373,5.373,0,0,1-.132-5.015c.179-.4-.416-.754-.6-.347Z" transform="translate(-152.057 -275.678)" fill="#ffb448"/>
              </g>
            </g>
          </g>
          <g id="Grupo_1112724" data-name="Grupo 1112724" transform="translate(55.143 93.902)">
            <g id="Grupo_1112721" data-name="Grupo 1112721" transform="translate(2.765)">
              <g id="Grupo_1112699" data-name="Grupo 1112699" transform="translate(34.407 11.463)">
                <path id="Trazado_901755" data-name="Trazado 901755" d="M268.226,363.191c1.527,3.225,2.887,7.669,2.092,11.243l6.475-.9a14.354,14.354,0,0,0-6.456-11.979Z" transform="translate(-222.968 -320.499)" fill="#7f3101"/>
                <path id="Trazado_901756" data-name="Trazado 901756" d="M279.168,386.783c.722-.956-4.8-1.4-6.475.9C271.809,388.9,278.148,388.133,279.168,386.783Z" transform="translate(-225.343 -333.749)" fill="#aa681a"/>
                <path id="Trazado_901757" data-name="Trazado 901757" d="M219.356,315.262c3.878,2.3,8.5-2.185,1.427-18.741a49.672,49.672,0,0,0-8.377-13.2c-8.951-10.588-31.65-17.71-40.423-3.177-3.608,6.181-3.275,12.109.316,18.307,3.834,6.653,11.446,8.026,18.582,9.226,5.352.9,10.617,1.511,14.976,5.043a9.806,9.806,0,0,1,2.9,4.3c.452,1.13,1.083,2.688,2.062,3.281,2.161,1.311,3.634-1.12,3.825-2.961a2.575,2.575,0,0,0,3.444,1.283A2.745,2.745,0,0,0,219.356,315.262Z" transform="translate(-169.435 -271.938)" fill="#57517a"/>
                <path id="Trazado_901758" data-name="Trazado 901758" d="M172.3,298.455a14.253,14.253,0,0,0,4.06,4.491c3.127-4.448,11.423-6.174,15.507-2.9,1.05-3.771,4.38-4.789,7.984-3.977a16.481,16.481,0,0,1,9.3,5.97c2.971-4.071,8.318-2.259,10.986,1.141a21.959,21.959,0,0,1,4.088,9.592c.68-2.941.019-8.15-3.44-16.246a49.672,49.672,0,0,0-8.377-13.2c-8.951-10.588-31.65-17.71-40.423-3.177C168.375,286.328,168.707,292.256,172.3,298.455Z" transform="translate(-169.435 -271.938)" fill="#4b4077"/>
                <g id="Grupo_1112698" data-name="Grupo 1112698" transform="translate(12.173 10.092)">
                  <g id="Grupo_1112696" data-name="Grupo 1112696" transform="translate(1.81)">
                    <path id="Trazado_901759" data-name="Trazado 901759" d="M235.615,324.837a27.787,27.787,0,0,0-5.3-11.795,53.672,53.672,0,0,0-8.471-9.52,41.314,41.314,0,0,0-21.437-9.55c-.465-.062-.636.651-.168.715a40.944,40.944,0,0,1,20.677,9.011,51.619,51.619,0,0,1,8.2,8.949c2.708,3.61,5.079,7.689,5.764,12.211.071.463.8.446.734-.02Z" transform="translate(-199.96 -293.968)" fill="#382b60"/>
                  </g>
                  <g id="Grupo_1112697" data-name="Grupo 1112697" transform="translate(0 13.769)">
                    <path id="Trazado_901760" data-name="Trazado 901760" d="M229.22,344.718c-.778-2.966-2.868-5.4-5.028-7.487a45.261,45.261,0,0,0-7.765-5.961c-6.1-3.733-13.18-5.294-19.982-7.232-.456-.129-.622.586-.169.714,6.571,1.872,13.3,3.406,19.276,6.85a44.558,44.558,0,0,1,7.511,5.578c2.325,2.1,4.643,4.647,5.456,7.752.12.458.822.241.7-.215Z" transform="translate(-196.008 -324.023)" fill="#382b60"/>
                  </g>
                </g>
              </g>
              <g id="Grupo_1112703" data-name="Grupo 1112703" transform="translate(10.266 9.031)">
                <path id="Trazado_901761" data-name="Trazado 901761" d="M134.964,279.87c-.516-3.529-.516-8.178,1.291-11.362l-6.456-1.033a14.346,14.346,0,0,0,2.669,13.342Z" transform="translate(-123.458 -267.087)" fill="#7f3101"/>
                <path id="Trazado_901762" data-name="Trazado 901762" d="M130.439,267.016c-.969.7,4.178,2.745,6.456,1.033C138.1,267.147,131.809,266.023,130.439,267.016Z" transform="translate(-124.098 -266.628)" fill="#aa681a"/>
                <path id="Trazado_901763" data-name="Trazado 901763" d="M123.972,286.564c-3.035-3.339-8.769-.4-6.847,17.5a49.668,49.668,0,0,0,4.146,15.07c5.461,12.743,25.082,26.2,37.724,14.868,5.26-4.855,6.676-10.62,5.058-17.6-1.72-7.485-8.6-11.025-15.069-14.261-4.855-2.428-9.709-4.552-12.845-9.2a9.806,9.806,0,0,1-1.517-4.956c-.1-1.214-.25-2.888-1.012-3.742-1.682-1.886-3.8.009-4.524,1.713a2.576,2.576,0,0,0-2.917-2.235A2.745,2.745,0,0,0,123.972,286.564Z" transform="translate(-116.739 -275.75)" fill="#ffb047"/>
                <path id="Trazado_901764" data-name="Trazado 901764" d="M164.053,321.214a14.28,14.28,0,0,0-2.568-5.483c-4.293,3.338-12.731,2.56-15.68-1.761-2.107,3.3-5.59,3.3-8.8,1.466a16.47,16.47,0,0,1-7.148-8.431c-4.032,3.025-8.614-.274-10.172-4.306a21.976,21.976,0,0,1-1.1-10.367c-1.51,2.615-2.4,7.789-1.462,16.543a49.669,49.669,0,0,0,4.146,15.07c5.461,12.743,25.082,26.2,37.724,14.868C164.255,333.957,165.671,328.192,164.053,321.214Z" transform="translate(-116.739 -280.557)" fill="#eb9532"/>
                <g id="Grupo_1112702" data-name="Grupo 1112702" transform="translate(6.597 10.609)">
                  <g id="Grupo_1112700" data-name="Grupo 1112700" transform="translate(0 2.282)">
                    <path id="Trazado_901765" data-name="Trazado 901765" d="M131.354,295.032a27.785,27.785,0,0,0,1.617,12.829,53.668,53.668,0,0,0,5.315,11.583,41.309,41.309,0,0,0,17.7,15.406c.427.2.8-.436.37-.633a40.957,40.957,0,0,1-17.134-14.668A51.6,51.6,0,0,1,134,308.592c-1.533-4.245-2.607-8.839-1.939-13.364.068-.463-.638-.661-.706-.2Z" transform="translate(-131.14 -294.767)" fill="#e47b05"/>
                  </g>
                  <g id="Grupo_1112701" data-name="Grupo 1112701" transform="translate(5.325)">
                    <path id="Trazado_901766" data-name="Trazado 901766" d="M142.771,290.14c-.125,3.065,1.162,6,2.618,8.63a45.271,45.271,0,0,0,5.68,7.972c4.744,5.358,11.055,8.92,16.991,12.764.4.257.765-.377.371-.633-5.735-3.714-11.723-7.149-16.428-12.191a44.546,44.546,0,0,1-5.55-7.532c-1.609-2.692-3.079-5.8-2.95-9.009.02-.474-.713-.471-.733,0Z" transform="translate(-142.763 -289.786)" fill="#e47b05"/>
                  </g>
                </g>
              </g>
              <g id="Grupo_1112704" data-name="Grupo 1112704" transform="translate(0 37.642)">
                <path id="Trazado_901767" data-name="Trazado 901767" d="M118.675,330.022c-3.724-1.362-7.746-.515-10.059,2.882a23.384,23.384,0,0,0-1.73,3.21c-3.391-1.345-8.428-.237-10.519,2.159-3.864,4.579-1.583,11.245,1.495,15.434,4.652,6.259,15.792,11.073,20.625,2.253,8.432,2.794,10.545-11.89,9.029-15.869C125.9,335.833,123.032,331.6,118.675,330.022Z" transform="translate(-94.33 -329.255)" fill="#17a55e"/>
                <path id="Trazado_901768" data-name="Trazado 901768" d="M119.107,338.235c1.318-.758,1.2,1.318.937,1.9a7.644,7.644,0,0,1-2.794,3.278,4.611,4.611,0,0,1-4.378.531c-.691-.238-2.67-.918-1.487-2.118,1.006-1.022,4.433.255,5.05-.087S118.086,338.82,119.107,338.235Z" transform="translate(-103.372 -333.953)" fill="#058f44"/>
                <path id="Trazado_901769" data-name="Trazado 901769" d="M117.455,357.125c-2.33-.967-5.43-3.194-5.6-5.931-1.047,1.053-1.605,2.244-3.1,2.874a8.278,8.278,0,0,1-6.254.494c-2.931-1.16-4.827-4.125-5.425-7.243a5.8,5.8,0,0,0-.7.663c-3.864,4.579-1.583,11.245,1.495,15.434,4.652,6.259,15.792,11.073,20.625,2.253,5.575,1.847,8.388-3.946,9.215-9.234-.4.191-.817.369-1.253.527A12.4,12.4,0,0,1,117.455,357.125Z" transform="translate(-94.33 -338.964)" fill="#058f44"/>
                <path id="Trazado_901770" data-name="Trazado 901770" d="M116.647,338.3c-.222-2.382-2.756-4.785-4.4-6.275a4.06,4.06,0,0,1,2.6-2.94,10.416,10.416,0,0,1,3.091,8.739Z" transform="translate(-104.039 -329.082)" fill="#7f3101"/>
              </g>
              <g id="Grupo_1112705" data-name="Grupo 1112705" transform="translate(66.73 22.676)">
                <path id="Trazado_901771" data-name="Trazado 901771" d="M268.312,305.149c-3.068-2.51-7.145-3.032-10.447-.585a23.507,23.507,0,0,0-2.688,2.462c-2.761-2.385-7.882-3-10.644-1.42-5.154,3.054-5.193,10.1-3.664,15.068,2.337,7.439,11.274,15.649,18.739,8.909,7.044,5.411,13.869-7.761,13.744-12.019C273.23,313.016,271.906,308.077,268.312,305.149Z" transform="translate(-239.992 -299.969)" fill="#e05b2e"/>
                <path id="Trazado_901772" data-name="Trazado 901772" d="M270.782,308.756c1.495-.283.7,1.64.26,2.1a7.635,7.635,0,0,1-3.716,2.176,4.613,4.613,0,0,1-4.308-.937c-.575-.452-2.22-1.745-.708-2.49,1.285-.635,4.1,1.7,4.8,1.577S269.626,308.974,270.782,308.756Z" transform="translate(-251.749 -303.086)" fill="#b6300d"/>
                <path id="Trazado_901773" data-name="Trazado 901773" d="M261.441,323.82c-1.882-1.678-4.078-4.8-3.342-7.443-1.335.65-2.253,1.59-3.874,1.694a8.276,8.276,0,0,1-6.069-1.589c-2.385-2.058-3.2-5.482-2.74-8.625a5.546,5.546,0,0,0-.883.4c-5.154,3.054-5.193,10.1-3.664,15.068,2.337,7.439,11.274,15.649,18.739,8.909,4.657,3.577,9.218-.969,11.738-5.691q-.661.074-1.356.087A12.4,12.4,0,0,1,261.441,323.82Z" transform="translate(-239.991 -302.615)" fill="#b6300d"/>
                <path id="Trazado_901774" data-name="Trazado 901774" d="M269.08,305.713c.573-2.322-1.029-5.425-2.093-7.371a4.062,4.062,0,0,1,3.427-1.922,10.427,10.427,0,0,1,.045,9.269Z" transform="translate(-254.62 -296.414)" fill="#7f3101"/>
              </g>
              <g id="Grupo_1112712" data-name="Grupo 1112712" transform="translate(34.288 27.942)">
                <path id="Trazado_901775" data-name="Trazado 901775" d="M179.616,314.562c-.7-.6-3.3-2.108-3.116-3.208.184-1.558,3.116,0,3.849.459-.092-.459-.825-2.2-.459-2.658.917-1.008,2.566,1.466,3.024,2.108.274-1.558,3.391-5.132,4.032-2.291.367,1.65-1.505,3.53-.458,5.13,1.558,2.383,17.96,4.39,19.793,14.383s-8.294,24.747-27.079,17.509-6.276-21.9-1.6-25.751S180.536,315.348,179.616,314.562Z" transform="translate(-169.177 -307.908)" fill="#caddd3"/>
                <path id="Trazado_901776" data-name="Trazado 901776" d="M214.933,328.485c-1.833-9.993-18.235-12-19.793-14.383-1.047-1.6.825-3.481.458-5.13-.642-2.841-3.758.733-4.032,2.291-.459-.641-2.108-3.116-3.024-2.108-.366.459.367,2.2.459,2.658-.733-.459-3.665-2.017-3.849-.459-.183,1.1,2.419,2.611,3.116,3.208.9.767,2.571,1.784-1.693,5.41-.257,2.446-1.187,4.878-.837,7.258.366,2.566,2.932,4.032,5.406,4.032,2.382,0,4.032-1.557,6.049-2.566-.459,3.758,6.78,6.689,9.53,7.239a12.141,12.141,0,0,0,7.918-1.165A14.79,14.79,0,0,0,214.933,328.485Z" transform="translate(-177.828 -307.908)" fill="#dff3e8"/>
                <g id="Grupo_1112711" data-name="Grupo 1112711" transform="translate(3.33 3.363)">
                  <g id="Grupo_1112706" data-name="Grupo 1112706" transform="translate(12.559)">
                    <path id="Trazado_901777" data-name="Trazado 901777" d="M203.907,315.424c-.6,4.921,4.45,7.36,8.166,9.139a20.047,20.047,0,0,1,6.662,4.578c2.371,2.644,3.824,6.3,2.589,9.784-.079.223.275.319.354.1,2.048-5.785-2.744-11.442-7.621-13.905-3.93-1.985-10.456-4.171-9.784-9.694.029-.235-.339-.232-.366,0Z" transform="translate(-203.859 -315.249)" fill="#b2c6bd"/>
                  </g>
                  <g id="Grupo_1112707" data-name="Grupo 1112707" transform="translate(11.14 2.015)">
                    <path id="Trazado_901778" data-name="Trazado 901778" d="M200.763,319.824c.52,5.168,4.764,7.959,8.424,11.025a18.668,18.668,0,0,1,5.165,6.611,13.884,13.884,0,0,1,.255,10.54c-.079.223.276.319.353.1a14.47,14.47,0,0,0,.272-9.386,17.045,17.045,0,0,0-4.614-7.088c-3.734-3.507-8.92-6.141-9.489-11.8-.023-.233-.39-.235-.366,0Z" transform="translate(-200.762 -319.648)" fill="#b2c6bd"/>
                  </g>
                  <g id="Grupo_1112708" data-name="Grupo 1112708" transform="translate(9.858 3.664)">
                    <path id="Trazado_901779" data-name="Trazado 901779" d="M197.963,323.425c.355,5.323,2.914,10.041,5.269,14.711,1.16,2.3,2.324,4.645,3.262,7.048,1,2.551,1.57,5.44.108,7.93a.183.183,0,0,0,.317.185c2.528-4.3-.536-9.448-2.408-13.394-2.52-5.31-5.779-10.467-6.18-16.481-.016-.234-.383-.236-.366,0Z" transform="translate(-197.963 -323.248)" fill="#b2c6bd"/>
                  </g>
                  <g id="Grupo_1112709" data-name="Grupo 1112709" transform="translate(5.864 6.412)">
                    <path id="Trazado_901780" data-name="Trazado 901780" d="M192.507,329.424a12.543,12.543,0,0,1-.971,4.052,42.289,42.289,0,0,0-1.22,4.064,31.75,31.75,0,0,0-1.068,8.2c.042,4.362,1.23,8.835,4.909,11.514.191.14.373-.178.185-.316-3.82-2.783-4.761-7.5-4.727-11.97a33.144,33.144,0,0,1,1.323-8.349c.638-2.376,1.879-4.708,1.937-7.2a.183.183,0,0,0-.366,0Z" transform="translate(-189.246 -329.247)" fill="#b2c6bd"/>
                  </g>
                  <g id="Grupo_1112710" data-name="Grupo 1112710" transform="translate(0 8.519)">
                    <path id="Trazado_901781" data-name="Trazado 901781" d="M183.946,333.931c-2.448,3.878-6.417,6.685-7.34,11.414-.77,3.948,1.3,7.482,4.656,9.454a.184.184,0,0,0,.186-.317,8.638,8.638,0,0,1-4.248-10.063c1.141-4.139,4.847-6.794,7.062-10.306.127-.2-.19-.384-.316-.184Z" transform="translate(-176.445 -333.845)" fill="#b2c6bd"/>
                  </g>
                </g>
              </g>
              <g id="Grupo_1112719" data-name="Grupo 1112719" transform="translate(83.186)">
                <path id="Trazado_901782" data-name="Trazado 901782" d="M293.854,318.313c-6.659-.739-6.873,8.614-6.141,13.562-5.131,1.925-5.864,7.423-4.4,11.913-6.049.974-9.989,26.058-5.408,27.476,3.848,1.191,14.684-11.835,17.411-18.129a8.152,8.152,0,0,0,.55-5.034,10.095,10.095,0,0,0,6.322-11.278,12.4,12.4,0,0,0,5.957-10.9C308.149,323.766,303.751,319.413,293.854,318.313Z" transform="translate(-275.912 -285.582)" fill="#ef8c3a"/>
                <path id="Trazado_901783" data-name="Trazado 901783" d="M310.919,321.931c-1.494.084,8.512,6.043,12.543,5.586S320.734,321.386,310.919,321.931Z" transform="translate(-294.8 -287.545)" fill="#c15729"/>
                <path id="Trazado_901784" data-name="Trazado 901784" d="M298.344,346.292c-.091,5.04-2.658,12.646-8.981,10.447a20.929,20.929,0,0,1-4.673,11.913c-1.889,2.339-5.1,3.791-7.821,1.85-1.423,6.961-1.4,14.423,1.039,15.178,3.848,1.191,14.685-11.835,17.411-18.129a8.152,8.152,0,0,0,.55-5.034,10.095,10.095,0,0,0,6.323-11.278,12.173,12.173,0,0,0,5.2-6.364A14.742,14.742,0,0,1,298.344,346.292Z" transform="translate(-275.913 -299.999)" fill="#c15729"/>
                <g id="Grupo_1112713" data-name="Grupo 1112713" transform="translate(5.67 36.485)">
                  <path id="Trazado_901785" data-name="Trazado 901785" d="M300.235,376.852c-2.211-.2-4.839-.64-6.269-2.522-.211-.278-.689,0-.474.279,1.568,2.063,4.3,2.578,6.743,2.792C300.587,377.434,300.585,376.882,300.235,376.852Z" transform="translate(-291.079 -352.382)" fill="#c15729"/>
                  <path id="Trazado_901786" data-name="Trazado 901786" d="M314.858,352.336c-3.675-.8-7.858-1.838-10.51-4.695-.241-.261-.629.13-.388.389,2.717,2.926,6.989,4.016,10.751,4.837C315.056,352.941,315.2,352.411,314.858,352.336Z" transform="translate(-296.74 -337.936)" fill="#c15729"/>
                  <path id="Trazado_901787" data-name="Trazado 901787" d="M314.384,330.677c.23.044.328-.31.1-.353-2.942-.548-5.783-1.485-7.892-3.71-.163-.172-.422.088-.26.259C308.479,329.143,311.378,330.119,314.384,330.677Z" transform="translate(-298.037 -326.558)" fill="#c15729"/>
                  <path id="Trazado_901788" data-name="Trazado 901788" d="M310.375,334.833c-.185-.143-.446.115-.26.259a9.242,9.242,0,0,0,4.712,1.886c.235.028.231-.339,0-.366A8.8,8.8,0,0,1,310.375,334.833Z" transform="translate(-300.082 -331.02)" fill="#c15729"/>
                  <path id="Trazado_901789" data-name="Trazado 901789" d="M305.807,360.061a7.973,7.973,0,0,1-3.6-2.59c-.131-.2-.448-.013-.316.183a8.248,8.248,0,0,0,3.731,2.724C305.836,360.473,306.021,360.156,305.807,360.061Z" transform="translate(-295.642 -343.263)" fill="#c15729"/>
                  <path id="Trazado_901790" data-name="Trazado 901790" d="M292.68,387.379a5.656,5.656,0,0,1-4.086-1.962c-.151-.183-.41.077-.258.258a6.017,6.017,0,0,0,4.344,2.071C292.916,387.763,292.914,387.4,292.68,387.379Z" transform="translate(-288.29 -358.419)" fill="#c15729"/>
                </g>
                <g id="Grupo_1112718" data-name="Grupo 1112718" transform="translate(7.222)">
                  <path id="Trazado_901791" data-name="Trazado 901791" d="M336.28,293.649c0-2.271.361-4.959,1.838-6.906.434-.577,1.118-1.586,1.984-1.262.577.179.83.9,1.154,1.333.432-.684.649-1.514,1.154-2.235a11.621,11.621,0,0,1,3.424-3.209c.686-.4,2.634-1.55,3.391-.829.469.433.109,1.009.036,1.478,1.479-1.623,4.58-2.236,6.672-2.344,1.154-.036,5.445.577,4.867,2.6-.36,1.334-2.379,2.235-3.5,2.812-1.623.865-3.534,1.37-5.12,2.272.758.144,2.236.289,2.6,1.118.36.865-1.19,1.369-1.8,1.55a14.727,14.727,0,0,1-6.382.65,1.117,1.117,0,0,1,.9.685c.289.649-.091,1-.614,1.3C343.023,294.821,337,293.721,336.28,293.649Z" transform="translate(-315.846 -264.667)" fill="#0b9b77"/>
                  <path id="Trazado_901792" data-name="Trazado 901792" d="M329.315,272.287c-.83-2.235-2.029-4.882-2.171-7.334-.037-.793.071-2.2,1.153-2.163a2.985,2.985,0,0,1,1.408.757c0-2.345-.952-5.807.252-7.934,1.55-2.74,3.245-.145,3.245-.145,1.009-2.92,2.668-6.093,5.445-7.572.868-.463,2.381-1.226,3.39-.9,2.561.83-2.308,7.9-3.317,8.943.648-.4,2.236-1.081,2.992-.578.793.506-.179,1.695-.541,2.2a17.524,17.524,0,0,1-5.409,5.014c.938,0,2.417-.577,2.633.757.18,1.334-1.443,2.885-2.308,3.679C334.391,268.523,331.082,270.952,329.315,272.287Z" transform="translate(-310.892 -246.916)" fill="#5acfa5"/>
                  <path id="Trazado_901793" data-name="Trazado 901793" d="M306.406,284a42.515,42.515,0,0,0,.906-9.632c.008-3.571-.789-6.058-3.1-2.561-.361-1.947-1.439-5.879-2.525-6.312-1.645-.656-1.477,1.229-1.477,2.2-1.3-2.163-5.411-2.74-7.537-1.694a1.5,1.5,0,0,0-.18,2.74c2.452,1.587,7.177,3.679,7.645,4.255-.9.577-5.338,1.479-4.653,3.21.4.937,5.735.685,6.6,1.082-1.335.721-4.868,2.685-2.236,3.91C301.8,282.105,304.609,281.874,306.406,284Z" transform="translate(-291.676 -256.912)" fill="#0b9b77"/>
                  <g id="Grupo_1112717" data-name="Grupo 1112717" transform="translate(7.042 6.975)">
                    <g id="Grupo_1112714" data-name="Grupo 1112714" transform="translate(7.704 12.925)">
                      <path id="Trazado_901794" data-name="Trazado 901794" d="M324.589,307.867a24.885,24.885,0,0,1,7.659-10.993,22.957,22.957,0,0,1,12.606-5.782c.466-.044.47-.777,0-.734a23.812,23.812,0,0,0-12.685,5.628,25.48,25.48,0,0,0-8.287,11.686c-.144.451.564.643.707.2Z" transform="translate(-323.863 -290.356)" fill="#058f44"/>
                    </g>
                    <g id="Grupo_1112715" data-name="Grupo 1112715" transform="translate(0 5.243)">
                      <path id="Trazado_901795" data-name="Trazado 901795" d="M314.1,297.4a22.578,22.578,0,0,0-6.416-23.724c-.356-.308-.875.208-.519.518a21.857,21.857,0,0,1,6.229,23.011c-.156.447.553.638.706.195Z" transform="translate(-307.047 -273.585)" fill="#058f44"/>
                    </g>
                    <g id="Grupo_1112716" data-name="Grupo 1112716" transform="translate(7.607)">
                      <path id="Trazado_901796" data-name="Trazado 901796" d="M324.382,290.1c1.627-4.5,3.218-9.01,4.863-13.5a147.064,147.064,0,0,1,5.455-13.9c.206-.424-.427-.8-.632-.371a147.329,147.329,0,0,0-5.45,13.864c-1.674,4.561-3.291,9.144-4.943,13.714-.161.445.548.635.707.195Z" transform="translate(-323.652 -262.142)" fill="#058f44"/>
                    </g>
                  </g>
                </g>
              </g>
              <g id="Grupo_1112720" data-name="Grupo 1112720" transform="translate(63.813 44.141)">
                <path id="Trazado_901797" data-name="Trazado 901797" d="M264.539,354.65c-2.137-3.341-5.849-5.1-9.748-3.806a23.354,23.354,0,0,0-3.321,1.5c-1.881-3.126-6.559-5.3-9.674-4.66-5.848,1.3-8.076,7.983-8.168,13.181-.093,7.8,5.848,18.379,15.038,14.294,5.012,7.335,15.6-3.062,16.8-7.146C266.766,363.655,267.044,358.55,264.539,354.65Z" transform="translate(-233.626 -345.604)" fill="#17a55e"/>
                <path id="Trazado_901798" data-name="Trazado 901798" d="M270.634,355.554c1.508.2.152,1.774-.406,2.08a7.662,7.662,0,0,1-4.208.913,4.613,4.613,0,0,1-3.8-2.232c-.406-.608-1.568-2.349.1-2.586,1.42-.2,3.37,2.889,4.068,2.991S269.468,355.4,270.634,355.554Z" transform="translate(-248.7 -348.932)" fill="#058f44"/>
                <path id="Trazado_901799" data-name="Trazado 901799" d="M253.024,367.755c-1.268-2.181-2.383-5.831-.861-8.113-1.472.2-2.638.812-4.21.406a8.286,8.286,0,0,1-5.273-3.4c-1.627-2.7-1.338-6.207.078-9.049a5.616,5.616,0,0,0-.963.1c-5.848,1.3-8.076,7.983-8.168,13.181-.093,7.8,5.848,18.379,15.038,14.294,3.314,4.849,9.063,1.947,12.927-1.757-.435-.09-.873-.2-1.317-.339A12.4,12.4,0,0,1,253.024,367.755Z" transform="translate(-233.626 -345.617)" fill="#058f44"/>
                <path id="Trazado_901800" data-name="Trazado 901800" d="M269.548,351.92c1.268-2.03.711-5.478.306-7.658a4.059,4.059,0,0,1,3.853-.76,10.416,10.416,0,0,1-2.839,8.823Z" transform="translate(-253.091 -343.269)" fill="#7f3101"/>
              </g>
            </g>
            <g id="Grupo_1112723" data-name="Grupo 1112723" transform="translate(0 51.748)">
              <path id="Trazado_901801" data-name="Trazado 901801" d="M208.358,368.755s6.1,57.784-54.008,60.151-55.769-53.534-55.769-53.534S150.692,385.441,208.358,368.755Z" transform="translate(-93.831 -364.686)" fill="#7f3101"/>
              <path id="Trazado_901802" data-name="Trazado 901802" d="M234.608,404.731a80.842,80.842,0,0,0,4.448-28.807,239.929,239.929,0,0,0,34.093-7.17s6.1,57.784-54.008,60.151c-.361.015-.706.016-1.062.028A53.109,53.109,0,0,0,234.608,404.731Z" transform="translate(-158.623 -364.686)" fill="#e47b05" opacity="0.4"/>
              <path id="Trazado_901803" data-name="Trazado 901803" d="M103.481,379.107c-.766-.116-1.412-.22-1.911-.3a176.024,176.024,0,0,0,9.9,16.846c-2.341,2.476-4.812,4.826-7.378,7.066.191.5.393,1,.6,1.507q4-3.455,7.658-7.272a122.753,122.753,0,0,0,14.363,17.473q1.207,1.211,2.455,2.375a72.04,72.04,0,0,1-8.357,7.225q.688.451,1.4.881a74.5,74.5,0,0,0,8.086-7.067,130.427,130.427,0,0,0,18.982,14.274c1.14.042,2.3.063,3.49.059A241.112,241.112,0,0,0,166,411.786c.115-.2.23-.4.347-.6q10.917,6.011,22.39,10.911c-.076.175-.159.346-.235.52.849-.574,1.663-1.171,2.448-1.782a160.16,160.16,0,0,0,7.323-21.661c2.342.87,4.7,1.679,7.073,2.457q.3-.716.574-1.432c-2.436-.8-4.862-1.626-7.268-2.525a170.809,170.809,0,0,0,3.657-19.258q3.839,1.39,7.718,2.648c.038-.554.066-1.081.091-1.6q-3.823-1.252-7.6-2.625c.054-.445.121-.888.173-1.335a.776.776,0,0,0-1.539-.2c-.038.329-.088.658-.128.988-1.053-.39-2.1-.793-3.147-1.193q-1.368.316-2.724.613c1.882.733,3.771,1.456,5.667,2.154a169.9,169.9,0,0,1-3.621,19.25,187.046,187.046,0,0,1-19.349-8.685,90.284,90.284,0,0,0,3.367-10.094c-.561.088-1.116.173-1.674.257a89.21,89.21,0,0,1-3.053,9.117c-4.248-2.249-8.395-4.678-12.442-7.244-.845.077-1.688.149-2.523.216q6.989,4.544,14.384,8.467a166.105,166.105,0,0,1-10.146,19.99q-5.116-2.866-10.072-6.007c-3.235-2.057-6.509-4.207-9.742-6.468a150.683,150.683,0,0,0,7.5-15.449c-.576.029-1.151.057-1.72.083a148.157,148.157,0,0,1-7.051,14.474,114.182,114.182,0,0,1-16.948-14.444c-.74-.032-1.465-.066-2.181-.1a112.95,112.95,0,0,0,18.35,15.916A96.915,96.915,0,0,1,130.236,415.7c-.863-.818-1.717-1.647-2.554-2.5a126.526,126.526,0,0,1-14.214-17.43,111.1,111.1,0,0,0,11.343-14.581c-.61-.033-1.211-.066-1.8-.1a109.087,109.087,0,0,1-10.424,13.378A173.916,173.916,0,0,1,103.481,379.107ZM167.1,409.886a172,172,0,0,0,10.167-20.013,189.1,189.1,0,0,0,19.547,8.745,158.424,158.424,0,0,1-7.475,22.078A246.338,246.338,0,0,1,167.1,409.886Zm-35.734,6.863a98.6,98.6,0,0,0,13.8-18.714c3.168,2.215,6.379,4.317,9.563,6.321q5.062,3.177,10.275,6.087-.216.371-.431.737a242.516,242.516,0,0,1-13.275,20.393A126.567,126.567,0,0,1,131.365,416.749Z" transform="translate(-95.489 -367.883)" fill="#661301"/>
              <g id="Grupo_1112722" data-name="Grupo 1112722">
                <path id="Trazado_901804" data-name="Trazado 901804" d="M91.436,366.3c-1.832-.458-5.294,7.155-1.286,9.71s22.063,6.806,58.119,3.625,54.636-9.356,57.391-10.918,1.916-10.311-4.9-8.63-22.1,7.684-52.54,9.426S97.375,367.784,91.436,366.3Z" transform="translate(-88.295 -359.873)" fill="#661301"/>
                <path id="Trazado_901805" data-name="Trazado 901805" d="M237.965,360.087c-6.813,1.681-22.1,7.684-52.54,9.426a276.634,276.634,0,0,1-28.482.2c1.734.5,3.473.961,5.217,1.35a138.154,138.154,0,0,0,29.421,2.238c12.306.3,24.509-1.288,37-1.093,1.148.017,2.274.044,3.383.081,6.2-1.6,9.8-2.95,10.9-3.571C245.616,367.153,244.777,358.406,237.965,360.087Z" transform="translate(-125.494 -359.873)" fill="#7f3101"/>
              </g>
            </g>
          </g>
          <g id="Grupo_1112736" data-name="Grupo 1112736" transform="translate(0 76.966)">
            <g id="Grupo_1112725" data-name="Grupo 1112725" transform="translate(0)">
              <path id="Trazado_901806" data-name="Trazado 901806" d="M36.593,209.949C23.215,209.681-19.572,265.017-18.572,292c.2,5.339,32.084,11.071,38.286,2.965S66.251,210.542,36.593,209.949Z" transform="translate(24.766 -209.948)" fill="#e05b2e"/>
              <path id="Trazado_901807" data-name="Trazado 901807" d="M47.8,223.428q.33-.742.656-1.488a23,23,0,0,0-.3-2.7q-.54,1.241-1.086,2.479c-.135.305-.268.613-.4.918q-1.256-.86-2.554-1.671,1.419-2.835,2.812-5.686a10.193,10.193,0,0,0-.846-1.4q-1.561,3.188-3.147,6.364-2.854-1.726-5.814-3.26,2.315-3.184,4.767-6.281a10.608,10.608,0,0,0-1.383-.409q-2.352,3-4.587,6.079-1.461-.741-2.937-1.451c.672-.8,1.344-1.6,2.027-2.384.743-.857,1.5-1.7,2.259-2.544a8.359,8.359,0,0,0-2.32.548q-1.644,1.864-3.251,3.763c-.622-.292-1.247-.577-1.871-.864-.419.3-.843.611-1.276.945.739.34,1.478.678,2.214,1.024-3.967,4.763-7.749,9.688-11.4,14.707q-2.642-.7-5.314-1.3-.5.585-.991,1.182,2.738.6,5.447,1.306c-3.529,4.894-6.941,9.87-10.281,14.872q-1.165,1.745-2.306,3.506c-2.49.084-4.975.266-7.455.52q-.47.75-.931,1.5c2.478-.271,4.962-.467,7.451-.574-3.565,5.554-6.955,11.224-10.079,17.03-2.142.126-4.282.315-6.419.542q-.324.73-.634,1.457c2.1-.234,4.194-.429,6.293-.567A177.76,177.76,0,0,0-16.485,293.62a7.767,7.767,0,0,0,1.223.872,178.146,178.146,0,0,1,11.005-25q5.552-.3,11.106-.132c-3.617,8.534-6.937,17.2-10.059,25.891-.328.913-.644,1.829-.968,2.743q.682.124,1.379.235c3.439-9.691,7.083-19.344,11.1-28.822q4.071.161,8.129.57C11.122,279.555,5.767,289.1.445,298.668c.5.054,1,.1,1.5.147,5.32-9.559,10.671-19.1,15.976-28.67q3.437.388,6.857.955c-4.679,9.453-9.656,18.755-15,27.843.568-.035,1.127-.082,1.673-.142q7.874-13.451,14.75-27.461,3.435.611,6.843,1.408.3-.636.608-1.28-3.4-.8-6.817-1.422,2.31-4.712,4.531-9.466,1.442-3.088,2.824-6.2c2.056.536,4.1,1.114,6.147,1.7q.276-.7.548-1.4c-1.3-.388-2.609-.771-3.92-1.134q-1.07-.3-2.147-.571c2-4.5,3.938-9.025,5.9-13.543q2.319,1.131,4.585,2.378c.134-.456.266-.91.393-1.362q-2.191-1.2-4.427-2.286,1.431-3.292,2.886-6.572c1.023-2.3,2.056-4.588,3.082-6.885.41.295.808.6,1.21.906.032-.563.053-1.118.058-1.659C48.263,223.779,48.034,223.6,47.8,223.428Zm-11.52-5.3c1.965,1.017,3.907,2.079,5.812,3.211.073.043.144.089.217.132q-3.516,7-7.151,13.935c-2.7-1.117-5.447-2.123-8.225-3.04Q31.325,225.079,36.276,218.129Zm-1.767,18.507q-3.841,7.318-7.78,14.586-3.691-.66-7.422-1.069-1.023-.11-2.047-.195,4.188-8.349,8.939-16.384C29.006,234.5,31.78,235.51,34.508,236.636Zm-2.465-20.609q1.525.733,3.032,1.494-5.009,7.022-9.438,14.425c-1.593-.508-3.194-.993-4.807-1.439C24.428,225.572,28.141,220.725,32.043,216.026ZM15.777,237.577q2.073-2.955,4.189-5.88,2.489.68,4.946,1.456-4.847,8.169-9.089,16.7-4.123-.282-8.25-.206C10.236,245.576,12.984,241.559,15.777,237.577ZM7.429,268q-5.461-.18-10.928.081,1.594-2.948,3.277-5.85c2.195-3.774,4.5-7.486,6.869-11.153q4.243-.112,8.5.128Q11.057,259.484,7.429,268Zm9.73.67q-4.127-.436-8.273-.619,3.635-8.487,7.708-16.755c.689.05,1.378.106,2.067.172,2.488.235,4.936.6,7.361,1.06Q21.632,260.621,17.159,268.671Zm8.251,1.134q-3.371-.573-6.762-.972,4.43-8,8.795-16.029c1.81.368,3.608.787,5.4,1.237Q29.248,261.979,25.41,269.805ZM34.4,250.6c-.3.684-.619,1.363-.926,2.046-1.763-.429-3.535-.821-5.317-1.163q3.858-7.132,7.628-14.306,1.9.811,3.772,1.7Q36.993,244.745,34.4,250.6Zm5.71-12.989q-1.827-.864-3.682-1.658,3.584-6.851,7.059-13.758,1.329.83,2.614,1.717Q43.089,230.753,40.108,237.609Z" transform="translate(23.626 -209.973)" fill="#b6300d" opacity="0.3"/>
              <path id="Trazado_901808" data-name="Trazado 901808" d="M8.921,389.461s8.609-3.615,5.1-15.648S-16.334,357.642-24.072,361s-3.389,7.9-3.389,7.9-7.513,8.105-3.361,16.608S-6.7,397.173,8.921,389.461Z" transform="translate(32.073 -291.19)" fill="#b6300d"/>
            </g>
            <g id="Grupo_1112735" data-name="Grupo 1112735" transform="translate(2.749 81.111)">
              <path id="Trazado_901809" data-name="Trazado 901809" d="M29.763,412.345a13.482,13.482,0,0,1,5.594-14.775c1.722-1.147,13.2-5.387,11.906-.287-.734,2.9-6.025,3.874-7.889,6.023-2.008,2.439-3.155,6.312-2.295,9.181,4.733-5.45,17.549-8.174,23.3-2.8.966.9,2.439,3.3,1.434,4.446-.861,1-5.519.358-6.667.358-4.3,0-8.893-.143-11.905,3.3,8.246-1.062,20.225-.336,18.36,4.359-1.445,3.639-12.765,1.522-17.643,3.96,2.748,2.152,9.61,1.435,12.479,1.721,6.6.719,2.767,5.367-3.73,5.881-8.918.708-17.744.407-23.338-7.052-38.359,8.7-63.668-16.77-52.99-30.808s32.822-8.108,33.948-4.295C16.03,410.855,29.763,412.345,29.763,412.345Z" transform="translate(26.073 -387.001)" fill="#ffa17b"/>
              <g id="Grupo_1112726" data-name="Grupo 1112726" transform="translate(32.762 1.951)" opacity="0.4">
                <path id="Trazado_901810" data-name="Trazado 901810" d="M53.581,411.1c4.213,3.574,11.488,7.659,17.232,7.531a21.43,21.43,0,0,1-2.3-3.975c-2.566-.381-14.274-3.321-19.431-20.783-.25-.846-1.539-1.8-3.506-2.61C44.645,398.434,48.615,407.05,53.581,411.1Z" transform="translate(-45.442 -391.259)" fill="#cf6e4b"/>
              </g>
              <g id="Grupo_1112727" data-name="Grupo 1112727" transform="translate(75.702 32.274)">
                <path id="Trazado_901811" data-name="Trazado 901811" d="M139.209,457.78a3.224,3.224,0,0,0,.549,2.486c.278.349.762-.143.488-.488a2.644,2.644,0,0,1-.347-2c.046-.443-.645-.438-.69,0Z" transform="translate(-139.173 -457.45)" fill="#cf6e4b"/>
              </g>
              <g id="Grupo_1112728" data-name="Grupo 1112728" transform="translate(76.906 32.625)">
                <path id="Trazado_901812" data-name="Trazado 901812" d="M141.812,458.645c.1.417.169.84.269,1.256.1.433.77.249.666-.183-.1-.416-.169-.839-.269-1.256-.1-.432-.77-.249-.665.183Z" transform="translate(-141.801 -458.215)" fill="#cf6e4b"/>
              </g>
              <g id="Grupo_1112729" data-name="Grupo 1112729" transform="translate(76.994 42.767)">
                <path id="Trazado_901813" data-name="Trazado 901813" d="M141.994,480.687a13.426,13.426,0,0,0,.09,1.794c.058.434.749.44.69,0a13.583,13.583,0,0,1-.09-1.794.345.345,0,0,0-.69,0Z" transform="translate(-141.994 -480.354)" fill="#cf6e4b"/>
              </g>
              <g id="Grupo_1112730" data-name="Grupo 1112730" transform="translate(77.98 43.484)">
                <path id="Trazado_901814" data-name="Trazado 901814" d="M144.236,482.254c-.011.242-.075.476-.09.718-.027.445.664.442.69,0,.014-.241.079-.476.09-.718.019-.445-.671-.443-.69,0Z" transform="translate(-144.145 -481.92)" fill="#cf6e4b"/>
              </g>
              <g id="Grupo_1112731" data-name="Grupo 1112731" transform="translate(74.77 21.33)">
                <path id="Trazado_901815" data-name="Trazado 901815" d="M137.21,433.891a4.823,4.823,0,0,0,.226,2.6c.183.4.778.054.6-.348a4.3,4.3,0,0,1-.132-2.248c.049-.442-.642-.438-.69,0Z" transform="translate(-137.139 -433.561)" fill="#cf6e4b"/>
              </g>
              <g id="Grupo_1112732" data-name="Grupo 1112732" transform="translate(75.957 21.498)">
                <path id="Trazado_901816" data-name="Trazado 901816" d="M139.793,434.177a3.142,3.142,0,0,0,.09,1.618c.152.415.82.235.665-.182a2.431,2.431,0,0,1-.09-1.252c.067-.436-.6-.623-.665-.184Z" transform="translate(-139.73 -433.926)" fill="#cf6e4b"/>
              </g>
              <g id="Grupo_1112733" data-name="Grupo 1112733" transform="translate(60.944 11.719)">
                <path id="Trazado_901817" data-name="Trazado 901817" d="M106.963,413.015A1.881,1.881,0,0,0,108.1,414.6c.416.158.6-.51.183-.666a1.285,1.285,0,0,1-.656-1.105c-.07-.439-.735-.252-.665.184Z" transform="translate(-106.958 -412.581)" fill="#cf6e4b"/>
              </g>
              <g id="Grupo_1112734" data-name="Grupo 1112734" transform="translate(61.815 11.378)">
                <path id="Trazado_901818" data-name="Trazado 901818" d="M108.925,412.335a3.955,3.955,0,0,1,.27.719c.178.407.773.055.6-.348a3.626,3.626,0,0,0-.27-.718c-.259-.356-.858-.012-.6.347Z" transform="translate(-108.861 -411.837)" fill="#cf6e4b"/>
              </g>
            </g>
          </g>
          <g id="Grupo_1112744" data-name="Grupo 1112744" transform="translate(150.176 159.868)">
            <path id="Trazado_901819" data-name="Trazado 901819" d="M312.8,443.642c-2.116,1.663-11.895,4.992-11.018.245.871-4.619,11.334-4.112,14.073-7.217C315.859,436.669,318.142,439.451,312.8,443.642Z" transform="translate(-298.986 -415.707)" fill="#ffa17b"/>
            <path id="Trazado_901820" data-name="Trazado 901820" d="M316.887,395.776c-.526-5.412-6.588-5.628-11.332-3.916-2.634.908-11.808,5.9-9.425,10.16,1.432,2.528,9.04-.826,11.084-1.665,5.683-2.33,7.827,2.151,7.932,2.674A11.9,11.9,0,0,0,316.887,395.776Z" transform="translate(-295.74 -390.911)" fill="#ffa17b"/>
            <path id="Trazado_901821" data-name="Trazado 901821" d="M315.437,425.961c-6.145,4.206-18.549,2.706-15.017-1.786,1.9-2.422,5.374-1.939,8.8-2.761,4.2-1.01,6.309-2.056,8.127-4.049C317.346,417.365,319.962,422.865,315.437,425.961Z" transform="translate(-297.939 -405.246)" fill="#ffa17b"/>
            <g id="Grupo_1112743" data-name="Grupo 1112743" transform="translate(12.902 1.146)">
              <g id="Grupo_1112737" data-name="Grupo 1112737" transform="translate(2.334 0.085)">
                <path id="Trazado_901822" data-name="Trazado 901822" d="M329.011,394.027a3.253,3.253,0,0,1,.09,1.7.345.345,0,0,0,.666.183,3.982,3.982,0,0,0-.089-2.067.346.346,0,0,0-.666.183Z" transform="translate(-328.997 -393.599)" fill="#cf6e4b"/>
              </g>
              <g id="Grupo_1112738" data-name="Grupo 1112738" transform="translate(3.136)">
                <path id="Trazado_901823" data-name="Trazado 901823" d="M330.768,393.837c.1.3.173.6.269.9.136.423.8.241.666-.183-.1-.3-.173-.6-.269-.9-.137-.422-.8-.241-.665.183Z" transform="translate(-330.749 -393.414)" fill="#cf6e4b"/>
              </g>
              <g id="Grupo_1112739" data-name="Grupo 1112739" transform="translate(2.257 16.688)">
                <path id="Trazado_901824" data-name="Trazado 901824" d="M328.921,430.262a1.255,1.255,0,0,1-.055.99c-.187.4.408.752.6.349a1.964,1.964,0,0,0,.126-1.522c-.146-.417-.812-.239-.666.183Z" transform="translate(-328.83 -429.842)" fill="#cf6e4b"/>
              </g>
              <g id="Grupo_1112740" data-name="Grupo 1112740" transform="translate(3.156 16.593)">
                <path id="Trazado_901825" data-name="Trazado 901825" d="M330.882,430.059a1.38,1.38,0,0,1-.056.9c-.18.4.416.753.6.349a2.118,2.118,0,0,0,.124-1.432.345.345,0,0,0-.664.182Z" transform="translate(-330.792 -429.633)" fill="#cf6e4b"/>
              </g>
              <g id="Grupo_1112741" data-name="Grupo 1112741" transform="translate(0 23.95)">
                <path id="Trazado_901826" data-name="Trazado 901826" d="M324,446.027a2.522,2.522,0,0,1-.077.716.346.346,0,0,0,.666.184,3.233,3.233,0,0,0,.1-.9.346.346,0,0,0-.691,0Z" transform="translate(-323.903 -445.694)" fill="#cf6e4b"/>
              </g>
              <g id="Grupo_1112742" data-name="Grupo 1112742" transform="translate(0.988 23.774)">
                <path id="Trazado_901827" data-name="Trazado 901827" d="M326.151,445.639c-.014.151-.074.3-.09.448-.041.443.649.439.69,0,.015-.151.075-.295.09-.448.042-.443-.648-.439-.69,0Z" transform="translate(-326.059 -445.309)" fill="#cf6e4b"/>
              </g>
            </g>
          </g>
          <g id="Grupo_1112756" data-name="Grupo 1112756" transform="translate(34.2)">
            <g id="Grupo_1112746" data-name="Grupo 1112746">
              <path id="Trazado_901828" data-name="Trazado 901828" d="M126.706,61.706s.621-16.555,16.821-19.479,30.245,17.692,30.245,17.692Z" transform="translate(-88.166 -41.943)" fill="#ffa53e"/>
              <path id="Trazado_901829" data-name="Trazado 901829" d="M192.21,57.711c-4.156-5.214-15.586-17.679-28.4-15.5a25.046,25.046,0,0,0,3.354,7.025C172.79,57.3,182.972,59.524,192.21,57.711Z" transform="translate(-108.272 -41.951)" fill="#ffb448"/>
              <path id="Trazado_901830" data-name="Trazado 901830" d="M127.476,71.146a21.96,21.96,0,0,0-.77,4.425l47.066-1.786a53.761,53.761,0,0,0-4.433-5.444C155.439,66.909,140.89,67.1,127.476,71.146Z" transform="translate(-88.166 -55.808)" fill="#c33507"/>
              <path id="Trazado_901831" data-name="Trazado 901831" d="M47.11,109.464c-6.1-8.655,12.222-17.768,19.772-20.733C80.08,83.671,94.132,82.4,108,81.658c9.75-.475,57.156,1.343,57.864,7.039,1.065,8.553-8.071,13.783-21.531,18.6C122.651,115.053,61.356,129.677,47.11,109.464Z" transform="translate(-44.372 -63.425)" fill="#e47b05"/>
              <path id="Trazado_901832" data-name="Trazado 901832" d="M65.09,85.608c13.2-5.061,27.25-6.331,41.117-7.074,9.75-.475,57.156,1.343,57.864,7.039a10.209,10.209,0,0,1-.015,2.672,9.608,9.608,0,0,0,.864-5.442c-.709-5.7-49.027-7.4-58.967-6.9-14.137.777-28.466,2.081-41.931,7.175-7.7,2.985-26.4,12.144-20.205,20.786.2.275.406.54.62.8C41.53,96.539,58.025,88.382,65.09,85.608Z" transform="translate(-42.58 -60.301)" fill="#ffb448"/>
              <g id="Grupo_1112745" data-name="Grupo 1112745" transform="translate(43.555 2.84)">
                <path id="Trazado_901833" data-name="Trazado 901833" d="M188.851,51.052c-.384-.192-.766-.387-1.146-.588-.01-.145-.022-.291-.046-.437-.054-.329-.552-.189-.5.137v0q-.474-.267-.931-.564a7.755,7.755,0,0,0,.129-1.211.259.259,0,0,0-.518,0,7.171,7.171,0,0,1-.089.919.267.267,0,0,0-.176.485c.024.017.049.031.074.048a8.054,8.054,0,0,1-.348,1.12,9.609,9.609,0,0,1-.853-.656c-.251-.216-.619.148-.366.366a10.393,10.393,0,0,0,1.017.768,10.065,10.065,0,0,1-.8,1.409c-.187.278.262.537.448.262a10.314,10.314,0,0,0,.792-1.4,10.4,10.4,0,0,0,1.377.7,7.377,7.377,0,0,1-.65,1.355.259.259,0,0,0,.447.262,7.741,7.741,0,0,0,.687-1.439c.24.086.476.176.725.247a.259.259,0,0,0,.137-.5c-.244-.069-.478-.157-.713-.241a5.3,5.3,0,0,0,.161-1.043c.291.151.584.3.877.446S189.15,51.2,188.851,51.052Zm-1.785.86a9.748,9.748,0,0,1-1.318-.677,8.532,8.532,0,0,0,.36-1.092q.539.339,1.1.642A4.542,4.542,0,0,1,187.066,51.911Z" transform="translate(-162.765 -48.141)" fill="#e47b05"/>
                <path id="Trazado_901834" data-name="Trazado 901834" d="M143.553,57.812a7.945,7.945,0,0,1-1.2-.655c.161-.279.33-.555.508-.826s-.265-.539-.448-.261c-.171.262-.333.529-.49.8q-.585-.416-1.134-.884a.268.268,0,0,0-.339-.293c-.128-.11-.256-.219-.383-.33-.25-.219-.618.146-.366.366.128.112.259.224.388.336a10.847,10.847,0,0,0-1.183,1.57c-.3-.087-.61-.17-.919-.241-.325-.076-.463.423-.137.5.263.061.524.131.784.2a12.222,12.222,0,0,0-.965,2.231c-.1.319.4.454.5.137a11.6,11.6,0,0,1,.967-2.22c.608.185,1.211.388,1.815.593-.147.359-.281.724-.4,1.1-.1.32.4.456.5.138.126-.4.277-.8.439-1.182a.276.276,0,0,0,.079-.176c.163-.373.342-.738.534-1.1a8.279,8.279,0,0,0,1.189.644C143.595,58.388,143.859,57.942,143.553,57.812Zm-2.395.55c-.579-.2-1.157-.391-1.739-.572a10.263,10.263,0,0,1,1.06-1.387q.576.488,1.192.921Q141.395,57.833,141.158,58.362Z" transform="translate(-137.653 -52.018)" fill="#e47b05"/>
              </g>
            </g>
            <g id="Grupo_1112748" data-name="Grupo 1112748" transform="translate(25.675 23.461)">
              <path id="Trazado_901835" data-name="Trazado 901835" d="M156.985,94.157s21.165,24.516,26.332,35.833c5.063,11.083-.928,27.982-10.807,35.063-7.964,5.642-19.356,9.023-28.875,8.279-7.236-.435-23.108-4.116-23.037-22.525-18.009,2.72-22.768-10.893-21.87-16.838.857-6.242,6.669-11.163,9.571-16.616,2.536-4.808,4.975-12.745,4.564-18.378C112.863,98.975,135.7,90.26,156.985,94.157Z" transform="translate(-98.625 -93.154)" fill="#7f3101"/>
              <g id="Grupo_1112747" data-name="Grupo 1112747" transform="translate(9.118 6.478)" opacity="0.4">
                <path id="Trazado_901836" data-name="Trazado 901836" d="M128.88,107.606c-.1-.47-.84-.38-.743.093,2.1,10.2-1.8,19.294-6.186,28.28-2.147,4.4-6.442,13.282-.087,16.229.439.2.732-.486.293-.688-6.486-3.011-.563-13.2,1.564-17.448C127.862,125.793,130.794,116.915,128.88,107.606Z" transform="translate(-118.529 -107.295)" fill="#c33507"/>
                <path id="Trazado_901837" data-name="Trazado 901837" d="M146.8,130.367c-.083-.475-.826-.383-.743.094,1.151,6.532.133,13.147-.1,19.716-.16,4.413.26,9.565,4.136,12.366.391.283.85-.308.459-.592-4.217-3.046-4.036-8.967-3.76-13.623C147.144,142.356,147.851,136.306,146.8,130.367Z" transform="translate(-133.377 -119.627)" fill="#c33507"/>
                <path id="Trazado_901838" data-name="Trazado 901838" d="M171.077,156.2c-.15-.458-.84-.17-.691.287,1.788,5.477.022,11.283-1.578,16.579-1.31,4.335-2.652,8.612-2.828,13.171-.235,6.08,1.024,14.805,8.4,15.792a.375.375,0,0,0,.107-.741c-8-1.069-8.28-11.8-7.532-17.971C168.043,174.347,174.079,165.4,171.077,156.2Z" transform="translate(-144.227 -133.67)" fill="#c33507"/>
                <path id="Trazado_901839" data-name="Trazado 901839" d="M202.319,178.647c.041-.48-.7-.589-.741-.109-.575,6.779,1.072,13.271,2.758,19.778,1.321,5.1,2.977,11.95-.6,16.51a.375.375,0,0,0,.591.46c3.019-3.848,2.433-9.345,1.548-13.835C204.36,193.764,201.643,186.63,202.319,178.647Z" transform="translate(-163.468 -145.733)" fill="#c33507"/>
                <path id="Trazado_901840" data-name="Trazado 901840" d="M218.464,174.879a.375.375,0,0,0-.744.095c.706,6.192,5.045,10.551,8.433,15.455,3.673,5.316,6.015,13.5,1.837,19.207-.286.388.306.848.591.459,3.535-4.823,2.618-11.547.209-16.66C225.725,186.93,219.322,182.4,218.464,174.879Z" transform="translate(-172.278 -143.746)" fill="#c33507"/>
                <path id="Trazado_901841" data-name="Trazado 901841" d="M236.746,156.661c-.113-.462-.857-.373-.743.095,1.542,6.345,7.239,10.252,11.2,15.053,4.835,5.863,6.8,15.692,2.029,22.128-.288.388.3.846.592.458,4.254-5.743,3.365-14.023.054-20.032C246.317,167.9,238.563,164.141,236.746,156.661Z" transform="translate(-182.18 -133.88)" fill="#c33507"/>
                <path id="Trazado_901842" data-name="Trazado 901842" d="M258.548,157.075c-3.01-3.654-6.058-6.623-10.606-8.209-.454-.158-.751.529-.294.688,4.053,1.413,6.752,3.884,9.525,7.061,2.963,3.393,5.6,7.188,5.393,11.888-.022.478.72.589.742.106C263.509,164.1,261.327,160.449,258.548,157.075Z" transform="translate(-188.372 -129.809)" fill="#c33507"/>
              </g>
            </g>
            <path id="Trazado_901843" data-name="Trazado 901843" d="M158.285,115.968c9.088,9.95,36.9,4.891,41.282-5.781C192.93,101.607,186.5,94.158,186.5,94.158c-11.409-2.089-23.26-.553-31.8,1.321C152.892,99.873,151.127,108.13,158.285,115.968Z" transform="translate(-102.465 -69.694)" fill="#ffa17b"/>
            <g id="Grupo_1112754" data-name="Grupo 1112754" transform="translate(52.933 25.575)">
              <path id="Trazado_901844" data-name="Trazado 901844" d="M208.289,115.649c-1.71.585-1.877,12.781-.038,14.744s10.349,3.929,13.547-.016c4.156-5.127-7.664-4.083-10.011-6.845C209.149,120.425,209.471,115.244,208.289,115.649Z" transform="translate(-184.575 -107.446)" fill="#ed5639"/>
              <g id="Grupo_1112749" data-name="Grupo 1112749" transform="translate(10.021 9.495)">
                <path id="Trazado_901845" data-name="Trazado 901845" d="M180.08,119.8c1.059,1.368,2.626,3.676,4.717,3.015,1.72-.544,1.5-2.729,1.033-4.086-.158-.458-.848-.167-.692.287.406,1.184.611,3.236-1.19,3.113-1.5-.1-2.451-1.723-3.274-2.787a.375.375,0,0,0-.594.457Z" transform="translate(-179.999 -118.495)" fill="#120807"/>
              </g>
              <g id="Grupo_1112750" data-name="Grupo 1112750" transform="translate(27.428 6.452)">
                <path id="Trazado_901846" data-name="Trazado 901846" d="M218.045,114.128c.661,1.163,1.967,2.628,3.453,2.088,1.61-.585,1.014-2.864.737-4.056-.109-.465-.853-.375-.743.093.209.9.645,2.122.087,2.965-.83,1.254-2.436-.662-2.842-1.378-.235-.415-.931-.133-.692.287Z" transform="translate(-217.996 -111.853)" fill="#120807"/>
              </g>
              <g id="Grupo_1112751" data-name="Grupo 1112751" transform="translate(7.938 2.175)">
                <path id="Trazado_901847" data-name="Trazado 901847" d="M180.247,102.624c-2.491-.717-4.407,2.314-4.782,4.43-.168.952,1.316,1.16,1.484.213.171-.97,1.38-3.649,2.711-3.265.918.263,1.514-1.112.588-1.378Z" transform="translate(-175.451 -102.516)" fill="#7f3101"/>
              </g>
              <g id="Grupo_1112752" data-name="Grupo 1112752" transform="translate(26.499 0)">
                <path id="Trazado_901848" data-name="Trazado 901848" d="M216.984,99.351c1.019-.44,1.708,1.36,2.009,2.058a.75.75,0,0,0,1.383-.575c-.668-1.552-1.948-3.739-3.969-2.865a.749.749,0,0,0,.576,1.383Z" transform="translate(-215.966 -97.769)" fill="#7f3101"/>
              </g>
              <path id="Trazado_901849" data-name="Trazado 901849" d="M165.316,136.114a4.453,4.453,0,0,0-5-3.826,4.506,4.506,0,0,0-2.192.906,21.41,21.41,0,0,0,2.887,3.96,13.109,13.109,0,0,0,3.165,2.49A4.381,4.381,0,0,0,165.316,136.114Z" transform="translate(-158.124 -116.455)" fill="#ed5639" opacity="0.5" style="mix-blend-mode: multiply;isolation: isolate"/>
              <path id="Trazado_901850" data-name="Trazado 901850" d="M247.511,123.729c-1.5-1.943-3-3.828-4.4-5.583a4.4,4.4,0,0,0-1.5,3.883,4.446,4.446,0,0,0,4.645,3.853A9.59,9.59,0,0,0,247.511,123.729Z" transform="translate(-203.343 -108.811)" fill="#ed5639" opacity="0.5" style="mix-blend-mode: multiply;isolation: isolate"/>
              <g id="Grupo_1112753" data-name="Grupo 1112753" transform="translate(18.31 28.354)">
                <path id="Trazado_901851" data-name="Trazado 901851" d="M198.1,160.286c-.307,5.1,5.992,5.084,9.469,3.884.913-.316.335-1.7-.574-1.383-2.254.777-7.633,1.384-7.411-2.287.058-.959-1.426-1.178-1.483-.214Z" transform="translate(-198.091 -159.662)" fill="#ffa17b"/>
              </g>
              <path id="Trazado_901852" data-name="Trazado 901852" d="M226.73,136.775c-.1,3.573,4.187,5.577,6.66,3.218C233.451,138.053,229.875,137.513,226.73,136.775Z" transform="translate(-195.3 -118.906)" fill="#ed5639" opacity="0.5" style="mix-blend-mode: multiply;isolation: isolate"/>
            </g>
            <g id="Grupo_1112755" data-name="Grupo 1112755" transform="translate(34.673 32.413)">
              <path id="Trazado_901853" data-name="Trazado 901853" d="M131.917,115.082s-11.454-6.728-13.408,2.409,8.329,9.555,14.253,7.683A34.816,34.816,0,0,1,131.917,115.082Z" transform="translate(-118.265 -112.696)" fill="#ffa17b"/>
              <path id="Trazado_901854" data-name="Trazado 901854" d="M133.706,125a3.048,3.048,0,0,1-3.718,1.991,3.8,3.8,0,0,1-3.013-4.73c.635-1.829,3.33-2.249,5.015-1.236A3.518,3.518,0,0,1,133.706,125Z" transform="translate(-122.891 -116.917)" fill="#cf6e4b"/>
            </g>
          </g>
        </g>
      </g>
    </g>
  </g>
</svg>
