<svg xmlns="http://www.w3.org/2000/svg" xmlns:xlink="http://www.w3.org/1999/xlink" width="57.173" height="84.515" viewBox="0 0 57.173 84.515">
  <defs>
    <clipPath id="clip-path">
      <rect id="Rect치ngulo_401577" data-name="Rect치ngulo 401577" width="57.174" height="84.515" fill="none"/>
    </clipPath>
    <clipPath id="clip-path-2">
      <path id="Trazado_875889" data-name="Trazado 875889" d="M12.309,17.189a11.1,11.1,0,0,0-1.3.16A1.676,1.676,0,0,0,9.65,18.877a8.476,8.476,0,0,0-.061,1.474q.013,1.365.065,2.726a.754.754,0,0,1-.29.677,16.194,16.194,0,0,0-3.308,3.61A11.084,11.084,0,0,0,4.2,32.324c-.036.308-.09.616-.135.922v1.193c.034.272.067.544.1.814a13.579,13.579,0,0,0,1.274,4.1,28.829,28.829,0,0,0,5.608,7.7,60.048,60.048,0,0,0,9.215,7.6c.515.355,1.038.7,1.564,1.038.256.164.528.3.791.454h.11c.153-.1.148-.247.13-.4-.018-.191-.038-.382-.052-.573a28.221,28.221,0,0,1,.119-4.873c.187-1.731.436-3.455.683-5.174.324-2.257.659-4.509.791-6.783a26.837,26.837,0,0,0-.155-5.554A13.368,13.368,0,0,0,23.068,28.8,10.256,10.256,0,0,0,17.927,24a11.6,11.6,0,0,0-3.481-1.151,6.05,6.05,0,0,0-.7-.065c-.279.007-.4.011-.76.011-.47,0-.407.02-.432.319,0,.047,0,.1,0,.144,0,1.009.016,1.227.151,3.178a51.143,51.143,0,0,0,1.367,6.9c.964,3.753,1.917,6.826,2.98,10.964.022.058.034.166.013.162-.054.025-.088-.061-.115-.121-.348-.829-.665-1.679-1-2.511a76.2,76.2,0,0,1-4.012-12.683,36.513,36.513,0,0,1-.829-6.878c-.016-.663-.02-1.326-.038-1.987-.009-.312-.063-.625-.049-.935a1.019,1.019,0,0,1,.924-1.1c.029-.007.061-.009.09-.016.153-.022.312-.036.463-.072a.4.4,0,0,0,.333-.272c.106-.4-.079-.692-.474-.692Z" transform="translate(-4.069 -17.189)" fill="#c82626"/>
    </clipPath>
    <clipPath id="clip-path-3">
      <rect id="Rect치ngulo_401579" data-name="Rect치ngulo 401579" width="20.457" height="38.955" fill="none"/>
    </clipPath>
  </defs>
  <g id="Grupo_1112423" data-name="Grupo 1112423" transform="translate(-172.863 -2045.248)">
    <g id="Grupo_1102323" data-name="Grupo 1102323" transform="translate(172.863 2045.248)" clip-path="url(#clip-path)">
      <path id="Trazado_875888" data-name="Trazado 875888" d="M30.938,5.01c-.022.085-.031.112-.038.139-.2.712-.362,1.436-.6,2.135a30.936,30.936,0,0,1-2.987,6.062c-1.91,3.129-3.989,6.145-6.143,9.112-2.412,3.326-4.852,6.633-7.237,9.979a102.587,102.587,0,0,0-7.86,12.557,37.407,37.407,0,0,0-2.639,6.34,17.38,17.38,0,0,0-.766,3.933,22.361,22.361,0,0,0,.1,3.659A25.464,25.464,0,0,0,4.1,64.894a27.024,27.024,0,0,0,6.934,10.683,26.449,26.449,0,0,0,6.311,4.457,27.4,27.4,0,0,0,8.988,2.708A27.327,27.327,0,0,0,49.718,74.2a26.416,26.416,0,0,0,6.983-16,18.189,18.189,0,0,0,0-3.374,32.325,32.325,0,0,0-.9-4.783,60.58,60.58,0,0,0-2.888-8.2,133.623,133.623,0,0,0-6.484-12.982c-3-5.354-6.136-10.622-9.5-15.751-1.533-2.335-3.131-4.625-4.886-6.8-.344-.427-.712-.838-1.1-1.29M30.081,0c.184.04.369.072.548.126a5.271,5.271,0,0,1,2.133,1.308A27.527,27.527,0,0,1,36.2,5.507a108.8,108.8,0,0,1,6.871,11.231A158.445,158.445,0,0,1,50.9,33.615c1.234,3.1,2.4,6.221,3.461,9.381a67.621,67.621,0,0,1,2.149,7.642,26.647,26.647,0,0,1,.632,4.5.28.28,0,0,0,.029.079V56.5a.743.743,0,0,0-.029.133,27.3,27.3,0,0,1-.528,4.623,29.187,29.187,0,0,1-2.78,7.862,28.581,28.581,0,0,1-5.657,7.529,28.987,28.987,0,0,1-7.415,5.127,27.433,27.433,0,0,1-10.71,2.715.891.891,0,0,0-.151.029H27.625a.964.964,0,0,0-.135-.029c-1.083-.112-2.176-.175-3.25-.342a28.261,28.261,0,0,1-8.473-2.769A28.733,28.733,0,0,1,7.8,75.424,28.823,28.823,0,0,1,.031,56.843c0-.092-.02-.182-.031-.274V55.038c.018-.189.04-.375.056-.562a23.44,23.44,0,0,1,1.059-5,43.022,43.022,0,0,1,2.8-6.576,133.038,133.038,0,0,1,8.325-13.672c2.546-3.771,5.129-7.52,7.671-11.3,1.571-2.335,3.1-4.7,4.477-7.158a32.975,32.975,0,0,0,2.254-4.724,10.2,10.2,0,0,0,.6-3.2A3.072,3.072,0,0,1,27.98.877,2.45,2.45,0,0,1,29.537.029.269.269,0,0,0,29.618,0Z" transform="translate(0 0)" fill="#3ba836"/>
    </g>
    <path id="Trazado_875890" data-name="Trazado 875890" d="M55,53V63H9V53A12,12,0,0,1,21,41h8a3,3,0,0,0,6,0h8A12,12,0,0,1,55,53Z" transform="translate(172.73 2065.506)" fill="#fcab68"/>
    <path id="Trazado_875891" data-name="Trazado 875891" d="M22,60A10,10,0,0,1,12,50a11.937,11.937,0,0,1,2.152-6.848A11.976,11.976,0,0,0,9,53V63H55V60Z" transform="translate(172.73 2065.506)" fill="#ea8e49"/>
    <path id="Trazado_875892" data-name="Trazado 875892" d="M23,39a2,2,0,0,1,2,2V52H21V41A2,2,0,0,1,23,39Z" transform="translate(172.73 2065.506)" fill="#7a838b"/>
    <path id="Trazado_875893" data-name="Trazado 875893" d="M41,39a2,2,0,0,1,2,2V52H39V41A2,2,0,0,1,41,39Z" transform="translate(172.73 2065.506)" fill="#7a838b"/>
    <path id="Trazado_875894" data-name="Trazado 875894" d="M47,63H17l4-11H43Z" transform="translate(172.73 2065.506)" fill="#7a838b"/>
    <path id="Trazado_875895" data-name="Trazado 875895" d="M29,35v6a3,3,0,0,0,6,0V35Z" transform="translate(172.73 2065.506)" fill="#ffd3b6"/>
    <path id="Trazado_875896" data-name="Trazado 875896" d="M35.983,1H28.017a4,4,0,0,0-3.846,2.9L21,15H43L39.829,3.9A4,4,0,0,0,35.983,1Z" transform="translate(172.73 2065.506)" fill="#fcab68"/>
    <path id="Trazado_875897" data-name="Trazado 875897" d="M41.437,9.529A81.421,81.421,0,0,0,32,9q-.477,0-.95,0a3.993,3.993,0,0,1-3.882-5.094V3.9A4,4,0,0,1,31.017,1h-3a4,4,0,0,0-3.846,2.9L21,15H43Z" transform="translate(172.73 2065.506)" fill="#ea8e49"/>
    <ellipse id="Elipse_11619" data-name="Elipse 11619" cx="23" cy="6" rx="23" ry="6" transform="translate(181.73 2076.506)" fill="#fcab68"/>
    <path id="Trazado_875898" data-name="Trazado 875898" d="M35,19c-11.507,0-21.04-2.2-22.733-5.083C10.194,14.818,9,15.873,9,17c0,3.314,10.3,6,23,6s23-2.686,23-6a1.8,1.8,0,0,0-.267-.917C50.712,17.83,43.381,19,35,19Z" transform="translate(172.73 2065.506)" fill="#ea8e49"/>
    <path id="Trazado_875899" data-name="Trazado 875899" d="M32,37A11,11,0,0,1,21,26V15a61.015,61.015,0,0,1,22,0V26A11,11,0,0,1,32,37Z" transform="translate(172.73 2065.506)" fill="#ffd3b6"/>
    <path id="Trazado_875900" data-name="Trazado 875900" d="M21,15v2a61.015,61.015,0,0,1,22,0V15a61.015,61.015,0,0,0-22,0Z" transform="translate(172.73 2065.506)" fill="#f9b995"/>
    <path id="Trazado_875901" data-name="Trazado 875901" d="M35,34A11,11,0,0,1,24,23V14.534c-1,.132-2,.284-3,.466V26a11,11,0,0,0,20.132,6.132A10.945,10.945,0,0,1,35,34Z" transform="translate(172.73 2065.506)" fill="#f9b995"/>
    <path id="Trazado_875902" data-name="Trazado 875902" d="M20,17h1v6H20a3,3,0,0,1,0-6Z" transform="translate(172.73 2065.506)" fill="#f9b995"/>
    <path id="Trazado_875903" data-name="Trazado 875903" d="M46,17h1v6H46a3,3,0,0,1,0-6Z" transform="translate(262.73 2105.506) rotate(180)" fill="#f9b995"/>
    <path id="Trazado_875904" data-name="Trazado 875904" d="M9,59h6a2,2,0,0,1,2,2v2H9Z" transform="translate(172.73 2065.506)" fill="#f9b995"/>
    <path id="Trazado_875905" data-name="Trazado 875905" d="M49,59h6v4H47V61A2,2,0,0,1,49,59Z" transform="translate(172.73 2065.506)" fill="#ffd3b6"/>
    <path id="Trazado_875906" data-name="Trazado 875906" d="M47,63H17l1.34-3.7A9.892,9.892,0,0,0,22,60H45.91Z" transform="translate(172.73 2065.506)" fill="#5d6972"/>
    <path id="Trazado_875907" data-name="Trazado 875907" d="M55,60v3H47V61a2,2,0,0,1,.27-1Z" transform="translate(172.73 2065.506)" fill="#f9b995"/>
    <path id="Trazado_875908" data-name="Trazado 875908" d="M25,14.41v1.76a2.006,2.006,0,0,1-.59,1.42L21,21V15C22.33,14.76,23.67,14.56,25,14.41Z" transform="translate(172.73 2065.506)" fill="#e6e6e6"/>
    <path id="Trazado_875909" data-name="Trazado 875909" d="M24.384,14.49l-1.013.133c-.79.113-1.581.233-2.371.377v6l3-3V16.549c.325-.042.65-.088.975-.126A1.935,1.935,0,0,0,25,16.17V14.42C24.8,14.444,24.589,14.465,24.384,14.49Z" transform="translate(172.73 2065.506)" fill="#cecece"/>
    <path id="Trazado_875910" data-name="Trazado 875910" d="M39,14.41v1.76a2.006,2.006,0,0,0,.59,1.42L43,21V15C41.67,14.76,40.33,14.56,39,14.41Z" transform="translate(172.73 2065.506)" fill="#e6e6e6"/>
    <path id="Trazado_875911" data-name="Trazado 875911" d="M40.629,14.623c-.338-.048-.675-.091-1.013-.133-.2-.025-.411-.046-.616-.07v1.75a1.935,1.935,0,0,0,.025.253c1.325.154,2.65.336,3.975.577V15C42.21,14.856,41.419,14.736,40.629,14.623Z" transform="translate(172.73 2065.506)" fill="#cecece"/>
    <path id="Trazado_875912" data-name="Trazado 875912" d="M29,38.575a10.8,10.8,0,0,0,6,0V36H29Z" transform="translate(172.73 2065.506)" fill="#f9b995"/>
    <path id="Trazado_875913" data-name="Trazado 875913" d="M12.65,21.319a1,1,0,1,0,.712-1.869C10.883,18.505,10,17.565,10,17c0-2.039,8.57-5,22-5s22,2.961,22,5c0,.559-.868,1.489-3.3,2.427a1,1,0,1,0,.719,1.866C54.458,20.122,56,18.677,56,17c0-3.165-5.728-5.291-13.191-6.307L40.791,3.626A5.023,5.023,0,0,0,35.983,0H28.017a5.023,5.023,0,0,0-4.808,3.626l-2.018,7.066C13.728,11.709,8,13.835,8,17c0,1.69,1.564,3.143,4.65,4.319ZM25.132,4.176A3.015,3.015,0,0,1,28.017,2h7.966a3.015,3.015,0,0,1,2.885,2.176l1.788,6.259a86.34,86.34,0,0,0-17.312,0Z" transform="translate(172.73 2065.506)"/>
    <path id="Trazado_875914" data-name="Trazado 875914" d="M27,21a1,1,0,0,0-1,1v1a1,1,0,0,0,2,0V22A1,1,0,0,0,27,21Z" transform="translate(172.73 2065.506)"/>
    <path id="Trazado_875915" data-name="Trazado 875915" d="M37,24a1,1,0,0,0,1-1V22a1,1,0,0,0-2,0v1A1,1,0,0,0,37,24Z" transform="translate(172.73 2065.506)"/>
    <path id="Trazado_875916" data-name="Trazado 875916" d="M47.4,40.764a1,1,0,1,0-.677,1.882A11.026,11.026,0,0,1,54,53v5H49a2.983,2.983,0,0,0-2.338,1.143L44,51.823V41a2.993,2.993,0,0,0-5.816-1H36V37.3A12.01,12.01,0,0,0,44,26V24a4,4,0,0,0,0-8V15a1,1,0,0,0-.821-.984,62.265,62.265,0,0,0-22.358,0A1,1,0,0,0,20,15v1a4,4,0,0,0,0,8v2a12.01,12.01,0,0,0,8,11.3V40H25.816A2.993,2.993,0,0,0,20,41V51.823l-2.662,7.32A2.983,2.983,0,0,0,15,58H10V53a11.029,11.029,0,0,1,7.263-10.35,1,1,0,1,0-.679-1.881A13.036,13.036,0,0,0,8,53V63a1,1,0,0,0,1,1H55a1,1,0,0,0,1-1V53a13.031,13.031,0,0,0-8.6-12.236ZM41,40a1,1,0,0,1,1,1V51H40V41A1,1,0,0,1,41,40ZM26,51V42h2.126a4,4,0,0,0,7.748,0H38v9ZM46,20a2,2,0,0,1-2,2V18A2,2,0,0,1,46,20Zm-4-1.414-1.7-1.7a1,1,0,0,1-.3-.713V15.55c.667.089,1.334.182,2,.293ZM22,15.84c.666-.111,1.333-.2,2-.293v.623a1,1,0,0,1-.3.713l-1.7,1.7ZM18,20a2,2,0,0,1,2-2v4A2,2,0,0,1,18,20Zm4,6V21.414L25.117,18.3A2.987,2.987,0,0,0,26,16.17v-.853a60.15,60.15,0,0,1,12,0v.853a2.987,2.987,0,0,0,.883,2.127L42,21.414V26a10,10,0,1,1-20,0ZM32,38a11.986,11.986,0,0,0,2-.181V41a2,2,0,0,1-4,0V37.819A11.986,11.986,0,0,0,32,38ZM22,41a1,1,0,0,1,2,0V51H22ZM10,62V60h5a1,1,0,0,1,1,1v1Zm8.428,0L21.7,53H42.3l3.272,9ZM54,62H48V61a1,1,0,0,1,1-1h5Z" transform="translate(172.73 2065.506)"/>
    <path id="Trazado_875917" data-name="Trazado 875917" d="M39.6,6.725l-.572-2a1,1,0,0,0-1.922.55l.571,2A1,1,0,0,0,38.634,8a.979.979,0,0,0,.276-.039,1,1,0,0,0,.69-1.236Z" transform="translate(172.73 2065.506)" fill="#fff"/>
  </g>
</svg>
