<svg xmlns="http://www.w3.org/2000/svg" xmlns:xlink="http://www.w3.org/1999/xlink" width="78.578" height="78.578" viewBox="0 0 78.578 78.578">
  <defs>
    <filter id="Trazado_874925" x="0" y="0" width="78.578" height="78.578" filterUnits="userSpaceOnUse">
      <feOffset dy="3" input="SourceAlpha"/>
      <feGaussianBlur stdDeviation="3" result="blur"/>
      <feFlood flood-opacity="0.161"/>
      <feComposite operator="in" in2="blur"/>
      <feComposite in="SourceGraphic"/>
    </filter>
  </defs>
  <g id="Grupo_1119260" data-name="Grupo 1119260" transform="translate(-348.051 -2421)">
    <g id="Grupo_1111553" data-name="Grupo 1111553" transform="translate(357.051 2427)">
      <g id="Grupo_1111316" data-name="Grupo 1111316" transform="translate(0 0)">
        <g id="Grupo_1109835" data-name="Grupo 1109835" transform="translate(0 0)">
          <g id="Grupo_1107913" data-name="Grupo 1107913" transform="translate(0 0)">
            <g transform="matrix(1, 0, 0, 1, -9, -6)" filter="url(#Trazado_874925)">
              <g id="Trazado_874925-2" data-name="Trazado 874925" transform="translate(9 6)" fill="#9cc8ff">
                <path d="M 30.28893852233887 59.0781364440918 C 26.40179824829102 59.0781364440918 22.63171768188477 58.31716918945312 19.08344841003418 56.81637954711914 C 15.65545845031738 55.3664665222168 12.57649898529053 53.29047012329102 9.93207836151123 50.64605712890625 C 7.287668704986572 48.00165939331055 5.211678504943848 44.92269897460938 3.76175856590271 41.49470901489258 C 2.260968446731567 37.94643783569336 1.499998569488525 34.17637634277344 1.499998569488525 30.28923797607422 C 1.499998569488525 26.40174865722656 2.260968446731567 22.63168907165527 3.76175856590271 19.08341789245605 C 5.211678504943848 15.65543842315674 7.287668704986572 12.57647800445557 9.93207836151123 9.93206787109375 C 12.57648849487305 7.287668228149414 15.65545845031738 5.211668014526367 19.08343887329102 3.761758327484131 C 22.63171768188477 2.260968208312988 26.40179824829102 1.499998211860657 30.28893852233887 1.499998211860657 C 34.17607879638672 1.499998211860657 37.94615936279297 2.260968208312988 41.49443817138672 3.761758327484131 C 44.92241668701172 5.211668014526367 48.00138854980469 7.287668228149414 50.64579772949219 9.93206787109375 C 53.29020690917969 12.57647800445557 55.3661994934082 15.65543842315674 56.81612014770508 19.08341789245605 C 58.31690979003906 22.63168907165527 59.07787704467773 26.40174865722656 59.07787704467773 30.28888893127441 C 59.07787704467773 34.17637634277344 58.31690979003906 37.94643783569336 56.81612014770508 41.49470901489258 C 55.3661994934082 44.92269897460938 53.29020690917969 48.00165939331055 50.64579772949219 50.64605712890625 C 48.00137710571289 53.29047012329102 44.92241668701172 55.3664665222168 41.49442672729492 56.81637954711914 C 37.94615936279297 58.31716918945312 34.17607879638672 59.0781364440918 30.28893852233887 59.0781364440918 Z" stroke="none"/>
                <path d="M 30.28893852233887 3 C 26.6036262512207 3 23.0301513671875 3.721099853515625 19.66777038574219 5.143268585205078 C 16.41858291625977 6.517555236816406 13.49987030029297 8.485603332519531 10.99273681640625 10.99273300170898 C 8.485603332519531 13.4998664855957 6.517551422119141 16.41855621337891 5.143260955810547 19.66774749755859 C 3.721092224121094 23.03012466430664 2.999992370605469 26.60359191894531 2.999992370605469 30.28924560546875 C 2.999992370605469 33.97454833984375 3.721092224121094 37.54801177978516 5.143260955810547 40.91039276123047 C 6.517551422119141 44.15956878662109 8.485603332519531 47.07826995849609 10.99273681640625 49.58540344238281 C 13.49987030029297 52.09253692626953 16.41858291625977 54.06057739257812 19.66777038574219 55.43486785888672 C 23.0301513671875 56.85703659057617 26.6036262512207 57.5781364440918 30.28893852233887 57.5781364440918 C 33.97425079345703 57.5781364440918 37.54771423339844 56.85703659057617 40.91010284423828 55.43486785888672 C 44.15929412841797 54.06057739257812 47.07799530029297 52.09253692626953 49.58512878417969 49.58540344238281 C 52.09226989746094 47.07826995849609 54.06031799316406 44.15958023071289 55.43460464477539 40.91039276123047 C 56.85677337646484 37.54801177978516 57.57787322998047 33.97454833984375 57.57787322998047 30.28889083862305 C 57.57787322998047 26.60359191894531 56.85677337646484 23.03012466430664 55.43460464477539 19.66774749755859 C 54.06031799316406 16.41855621337891 52.09226989746094 13.49985885620117 49.58512878417969 10.99273300170898 C 47.07799530029297 8.485603332519531 44.15929412841797 6.517555236816406 40.91010284423828 5.143268585205078 C 37.5477294921875 3.721099853515625 33.97425079345703 3 30.28893852233887 3 M 30.28893852233887 0 C 47.01705932617188 0 60.57787322998047 13.560791015625 60.57787322998047 30.28889083862305 L 60.57787322998047 30.28924560546875 C 60.57787322998047 47.017333984375 47.01705932617188 60.5781364440918 30.28893852233887 60.5781364440918 C 13.56081771850586 60.5781364440918 -7.62939453125e-06 47.017333984375 -7.62939453125e-06 30.28924560546875 L -7.62939453125e-06 30.28889083862305 C -7.62939453125e-06 13.560791015625 13.56081771850586 0 30.28893852233887 0 Z" stroke="none" fill="#fff"/>
              </g>
            </g>
            <g id="Trazado_874923" data-name="Trazado 874923" transform="translate(0 0)" fill="none">
              <path d="M30.289,0A30.289,30.289,0,0,1,60.578,30.289h0A30.289,30.289,0,0,1,0,30.289H0A30.289,30.289,0,0,1,30.289,0Z" stroke="none"/>
              <path d="M 30.28893852233887 3 C 26.6036262512207 3 23.0301513671875 3.721099853515625 19.66777038574219 5.143268585205078 C 16.41858291625977 6.517555236816406 13.49987030029297 8.485603332519531 10.99273681640625 10.99273300170898 C 8.485603332519531 13.4998664855957 6.517551422119141 16.41855621337891 5.143260955810547 19.66774749755859 C 3.721092224121094 23.03012466430664 2.999992370605469 26.60359191894531 2.999992370605469 30.28924560546875 C 2.999992370605469 33.97454833984375 3.721092224121094 37.54801177978516 5.143260955810547 40.91039276123047 C 6.517551422119141 44.15956878662109 8.485603332519531 47.07826995849609 10.99273681640625 49.58540344238281 C 13.49987030029297 52.09253692626953 16.41858291625977 54.06057739257812 19.66777038574219 55.43486785888672 C 23.0301513671875 56.85703659057617 26.6036262512207 57.5781364440918 30.28893852233887 57.5781364440918 C 33.97425079345703 57.5781364440918 37.54771423339844 56.85703659057617 40.91010284423828 55.43486785888672 C 44.15929412841797 54.06057739257812 47.07799530029297 52.09253692626953 49.58512878417969 49.58540344238281 C 52.09226989746094 47.07826995849609 54.06031799316406 44.15958023071289 55.43460464477539 40.91039276123047 C 56.85677337646484 37.54801177978516 57.57787322998047 33.97454833984375 57.57787322998047 30.28889083862305 C 57.57787322998047 26.60359191894531 56.85677337646484 23.03012466430664 55.43460464477539 19.66774749755859 C 54.06031799316406 16.41855621337891 52.09226989746094 13.49985885620117 49.58512878417969 10.99273300170898 C 47.07799530029297 8.485603332519531 44.15929412841797 6.517555236816406 40.91010284423828 5.143268585205078 C 37.5477294921875 3.721099853515625 33.97425079345703 3 30.28893852233887 3 M 30.28893852233887 0 C 47.01705932617188 0 60.57787322998047 13.560791015625 60.57787322998047 30.28889083862305 L 60.57787322998047 30.28924560546875 C 60.57787322998047 47.017333984375 47.01705932617188 60.5781364440918 30.28893852233887 60.5781364440918 C 13.56081771850586 60.5781364440918 -7.62939453125e-06 47.017333984375 -7.62939453125e-06 30.28924560546875 L -7.62939453125e-06 30.28889083862305 C -7.62939453125e-06 13.560791015625 13.56081771850586 0 30.28893852233887 0 Z" stroke="none" fill="#fff"/>
            </g>
          </g>
        </g>
      </g>
    </g>
    <g id="Grupo_1119259" data-name="Grupo 1119259" transform="translate(367.051 2438)">
      <g id="Grupo_1119257" data-name="Grupo 1119257" transform="translate(1.608 1.608)">
        <g id="Grupo_1119237" data-name="Grupo 1119237" transform="translate(18.244)">
          <path id="Trazado_916772" data-name="Trazado 916772" d="M36.865,2,39.3,9.3H32V2Z" transform="translate(-32 -2)" fill="#ff826e"/>
        </g>
        <g id="Grupo_1119238" data-name="Grupo 1119238" transform="translate(3.649)">
          <path id="Trazado_916773" data-name="Trazado 916773" d="M17.73,2,15.3,9.3H8L11.649,2Z" transform="translate(-8 -2)" fill="#ff826e"/>
        </g>
        <g id="Grupo_1119239" data-name="Grupo 1119239" transform="translate(23.109)">
          <path id="Trazado_916774" data-name="Trazado 916774" d="M46.081,2,49.73,9.3h-7.3L40,2Z" transform="translate(-40 -2)" fill="#ffeaa7"/>
        </g>
        <g id="Grupo_1119240" data-name="Grupo 1119240" transform="translate(10.946)">
          <path id="Trazado_916775" data-name="Trazado 916775" d="M27.3,2V9.3H20L22.433,2Z" transform="translate(-20 -2)" fill="#ffeaa7"/>
        </g>
        <g id="Grupo_1119241" data-name="Grupo 1119241" transform="translate(25.542 7.298)">
          <path id="Trazado_916776" data-name="Trazado 916776" d="M51.17,14.255a3.936,3.936,0,0,1-7.042,0L44,14h7.3Z" transform="translate(-44 -14)" fill="#fcd770"/>
        </g>
        <g id="Grupo_1119242" data-name="Grupo 1119242" transform="translate(10.946 7.298)">
          <path id="Trazado_916777" data-name="Trazado 916777" d="M27.3,14l-.128.255a3.936,3.936,0,0,1-7.042,0L20,14Z" transform="translate(-20 -14)" fill="#fcd770"/>
        </g>
        <g id="Grupo_1119243" data-name="Grupo 1119243" transform="translate(18.244 7.298)">
          <path id="Trazado_916778" data-name="Trazado 916778" d="M39.3,14l-.128.255a3.939,3.939,0,0,1-7.042,0L32,14Z" transform="translate(-32 -14)" fill="#fc6e51"/>
        </g>
        <g id="Grupo_1119244" data-name="Grupo 1119244" transform="translate(3.649 7.298)">
          <path id="Trazado_916779" data-name="Trazado 916779" d="M8,14h7.3l-.128.255a3.936,3.936,0,0,1-7.042,0Z" transform="translate(-8 -14)" fill="#fc6e51"/>
        </g>
        <g id="Grupo_1119245" data-name="Grupo 1119245" transform="translate(6.69 7.298)">
          <path id="Trazado_916780" data-name="Trazado 916780" d="M33.677,21.3v.772a1.077,1.077,0,0,1-.316.76l-.584.584a1.07,1.07,0,0,0,.42,1.776l1.089.365v1.216A1.216,1.216,0,0,0,35.5,27.987h.608V30.42H13V27.987h.608a1.216,1.216,0,0,0,1.216-1.216V25.555l1.089-.365a1.07,1.07,0,0,0,.42-1.776l-.584-.584a1.077,1.077,0,0,1-.316-.76V21.3a1.22,1.22,0,0,0-1.216-1.216h.608a1.824,1.824,0,1,0,0-3.649H13.608a3.951,3.951,0,0,0,3.521-2.177L17.257,14l.128.255a3.939,3.939,0,0,0,7.042,0L24.555,14l.128.255a3.936,3.936,0,0,0,7.042,0L31.852,14l.128.255A3.945,3.945,0,0,0,35.5,16.433H34.285a1.824,1.824,0,0,0,0,3.649h.608A1.22,1.22,0,0,0,33.677,21.3Z" transform="translate(-13 -14)" fill="#e6e9ed"/>
        </g>
        <g id="Grupo_1119246" data-name="Grupo 1119246" transform="translate(26.15 9.73)">
          <path id="Trazado_916781" data-name="Trazado 916781" d="M55.338,23.942a5.935,5.935,0,0,1-2.645,4.944l-1,.669V27.122l.687-.687a1.761,1.761,0,0,0,.529-1.265v-.024a1.738,1.738,0,0,0-1-1.569l-.219-.1a1.822,1.822,0,0,0-1.824-1.824H46.824a1.824,1.824,0,0,1,0-3.649H49.4a5.938,5.938,0,0,1,5.942,5.942Z" transform="translate(-45 -18)" fill="#656d78"/>
        </g>
        <g id="Grupo_1119247" data-name="Grupo 1119247" transform="translate(0 9.73)">
          <path id="Trazado_916782" data-name="Trazado 916782" d="M10.514,18a1.824,1.824,0,0,1,0,3.649H7.473a1.822,1.822,0,0,0-1.824,1.824l-.219.1a1.738,1.738,0,0,0-1,1.569v.024a1.761,1.761,0,0,0,.529,1.265l.687.687v2.433l-1-.669A5.941,5.941,0,0,1,7.942,18h2.572Z" transform="translate(-2 -18)" fill="#b27946"/>
        </g>
        <g id="Grupo_1119248" data-name="Grupo 1119248" transform="translate(24.326 23.109)">
          <path id="Trazado_916783" data-name="Trazado 916783" d="M44.433,50.338V48.982A9.619,9.619,0,0,1,46.1,43.564a9.968,9.968,0,0,1,1.374-1.624L50.514,40a5.338,5.338,0,0,1,3.649,5.06,8.316,8.316,0,0,1-8.319,8.319H42v-2.8Z" transform="translate(-42 -40)" fill="#4fc1e9"/>
        </g>
        <g id="Grupo_1119249" data-name="Grupo 1119249" transform="translate(0 23.109)">
          <path id="Trazado_916784" data-name="Trazado 916784" d="M6.786,47.79a4.227,4.227,0,0,1-3.351,1.934l-.006.006A8.311,8.311,0,0,1,2,45.06,5.338,5.338,0,0,1,5.649,40,9.7,9.7,0,0,1,8.69,41.94l1.374,1.624a9.619,9.619,0,0,1,1.666,5.419v1.356l-.632-.061A6.049,6.049,0,0,1,6.786,47.79Z" transform="translate(-2 -40)" fill="#b4dd7f"/>
        </g>
        <g id="Grupo_1119250" data-name="Grupo 1119250" transform="translate(15.812 27.974)">
          <path id="Trazado_916785" data-name="Trazado 916785" d="M32.865,49.216v1.216H28V49.216A1.22,1.22,0,0,1,29.216,48h2.433A1.22,1.22,0,0,1,32.865,49.216Z" transform="translate(-28 -48)" fill="#fcd770"/>
        </g>
        <g id="Grupo_1119251" data-name="Grupo 1119251" transform="translate(14.589 30.407)">
          <path id="Trazado_916786" data-name="Trazado 916786" d="M33.294,55.831l.006.006a2.657,2.657,0,0,0-1.222,2.244H27.212a2.657,2.657,0,0,0-1.222-2.244L26,55.831V53.216A1.22,1.22,0,0,1,27.212,52h4.865a1.22,1.22,0,0,1,1.216,1.216Z" transform="translate(-25.99 -52)" fill="#ffeaa7"/>
        </g>
        <g id="Grupo_1119252" data-name="Grupo 1119252" transform="translate(1.429 30.9)">
          <path id="Trazado_916787" data-name="Trazado 916787" d="M18.732,58.4H11.24A8.327,8.327,0,0,1,4.35,54.75l.006-.006A4.227,4.227,0,0,0,7.707,52.81,6.049,6.049,0,0,0,12.019,55.3l.632.061,3.661.365a2.609,2.609,0,0,1,1.2.432A2.657,2.657,0,0,1,18.732,58.4Z" transform="translate(-4.35 -52.81)" fill="#f0d0b4"/>
        </g>
        <g id="Grupo_1119253" data-name="Grupo 1119253" transform="translate(20.677 33.691)">
          <path id="Trazado_916788" data-name="Trazado 916788" d="M39.649,57.4v2.8H36a2.657,2.657,0,0,1,1.222-2.244,2.609,2.609,0,0,1,1.2-.432Z" transform="translate(-36 -57.4)" fill="#f0d0b4"/>
        </g>
        <g id="Grupo_1119254" data-name="Grupo 1119254" transform="translate(26.15 13.379)">
          <path id="Trazado_916789" data-name="Trazado 916789" d="M48.649,34.338V31.906h-.608a1.216,1.216,0,0,1-1.216-1.216V29.473l-1.089-.365a1.07,1.07,0,0,1-.42-1.776l.584-.584a1.077,1.077,0,0,0,.316-.76v-.772A1.22,1.22,0,0,1,47.433,24h2.433a1.822,1.822,0,0,1,1.824,1.824l.219.1a1.738,1.738,0,0,1,1,1.569v.024a1.761,1.761,0,0,1-.529,1.265l-.687.687V33.73l-3.041,1.94Z" transform="translate(-45 -24)" fill="#f0d0b4"/>
        </g>
        <g id="Grupo_1119255" data-name="Grupo 1119255" transform="translate(2.433 13.379)">
          <path id="Trazado_916790" data-name="Trazado 916790" d="M10.257,31.906V35.67a9.7,9.7,0,0,0-3.041-1.94V29.473l-.687-.687A1.761,1.761,0,0,1,6,27.521V27.5a1.738,1.738,0,0,1,1-1.569l.219-.1A1.822,1.822,0,0,1,9.041,24h2.433a1.22,1.22,0,0,1,1.216,1.216v.772a1.077,1.077,0,0,0,.316.76l.584.584a1.07,1.07,0,0,1-.42,1.776l-1.089.365V30.69a1.216,1.216,0,0,1-1.216,1.216Z" transform="translate(-6 -24)" fill="#f0d0b4"/>
        </g>
        <g id="Grupo_1119256" data-name="Grupo 1119256" transform="translate(13.379 11.555)">
          <circle id="Elipse_11770" data-name="Elipse 11770" cx="5" cy="5" r="5" transform="translate(0.013 -0.163)" fill="#69d6f4"/>
        </g>
      </g>
      <g id="Grupo_1119258" data-name="Grupo 1119258" transform="translate(1 1)">
        <path id="Trazado_916791" data-name="Trazado 916791" d="M35.056,24.3V23.219l.732-.488a6.545,6.545,0,0,0-2.1-11.813,4.559,4.559,0,0,0,1.18-1.483l.265-.528L31.175,1H8.53L4.577,8.906l.265.528a4.553,4.553,0,0,0,1.18,1.483,6.545,6.545,0,0,0-2.1,11.813l.732.488V24.3A5.935,5.935,0,0,0,1,29.78,8.935,8.935,0,0,0,9.925,38.7H29.78A8.935,8.935,0,0,0,38.7,29.78,5.935,5.935,0,0,0,35.056,24.3ZM24.645,34.816a3.366,3.366,0,0,0-.536.1V33.231a1.822,1.822,0,0,0-1.216-1.713V30.8a1.827,1.827,0,0,0-1.824-1.824H18.636A1.827,1.827,0,0,0,16.812,30.8v.72A1.822,1.822,0,0,0,15.6,33.231v1.69a3.3,3.3,0,0,0-.536-.1l-3.113-.311V33.7a10.232,10.232,0,0,0-3.041-7.3v-.464H30.8V26.4a10.233,10.233,0,0,0-3.041,7.3V34.5Zm-2.968-3.409H18.028V30.8a.608.608,0,0,1,.608-.608h2.433a.608.608,0,0,1,.608.608ZM5.687,20.03s-.362-.362-.692-.688a1.18,1.18,0,0,1-.346-.858,1.131,1.131,0,0,1,.645-1.018l.571-.269v-.386A1.218,1.218,0,0,1,7.081,15.6H9.514a.608.608,0,0,1,.608.608v.772a1.666,1.666,0,0,0,.493,1.188l.588.588a.46.46,0,0,1,.136.328.465.465,0,0,1-.317.44l-1.508.5v1.655a.608.608,0,0,1-.608.608H7.081V23.5H7.69v1.867a10.354,10.354,0,0,0-1.824-1.046V20.208Zm5.789-8.887A4.5,4.5,0,0,0,12.555,10.1a4.528,4.528,0,0,0,7.3,0,4.528,4.528,0,0,0,7.3,0,4.515,4.515,0,0,0,1.079,1.044,2.426,2.426,0,0,0,.348,4.228,1.8,1.8,0,0,0-.21.832v.772a.459.459,0,0,1-.136.328l-.588.588a1.679,1.679,0,0,0,.657,2.781l.676.226v.778A1.827,1.827,0,0,0,30.8,23.5v1.216H8.906V23.5a1.827,1.827,0,0,0,1.824-1.824V20.9l.676-.226a1.679,1.679,0,0,0,.656-2.782l-.588-.588a.462.462,0,0,1-.136-.328V16.2a1.8,1.8,0,0,0-.21-.832,2.426,2.426,0,0,0,.348-4.228ZM28.235,9.514h5.128a3.311,3.311,0,0,1-5.128,0ZM20.46,8.3V2.216H24.28L26.306,8.3Zm5.6,1.216a3.311,3.311,0,0,1-5.128,0ZM19.244,8.3H13.4l2.026-6.081h3.819Zm-.477,1.216a3.31,3.31,0,0,1-5.128,0ZM8.906,10.73A3.3,3.3,0,0,1,6.342,9.514H11.47A3.3,3.3,0,0,1,8.906,10.73ZM32.015,23.5h.608V22.285H30.8a.608.608,0,0,1-.608-.608V20.023l-1.508-.5a.464.464,0,0,1-.181-.769l.588-.588a1.667,1.667,0,0,0,.492-1.188V16.2a.608.608,0,0,1,.608-.608h2.433a1.217,1.217,0,0,1,1.216,1.216V17.2l.57.268a1.14,1.14,0,0,1,.646,1.041,1.166,1.166,0,0,1-.345.835c-.331.327-.693.688-.693.688l-.178.178v4.114a10.392,10.392,0,0,0-1.824,1.046Zm.139-11.555a5.334,5.334,0,0,1,2.959,9.772l-.057.038V20.713c.135-.134.327-.325.509-.505a2.388,2.388,0,0,0,.707-1.723,2.351,2.351,0,0,0-1.249-2.071,2.436,2.436,0,0,0-2.4-2.034H29.583a1.216,1.216,0,1,1,0-2.433ZM33.464,8.3H27.588L25.561,2.216h4.862ZM9.282,2.216h4.862L12.116,8.3H6.241Zm-4.69,19.5A5.334,5.334,0,0,1,7.55,11.946h2.572a1.216,1.216,0,1,1,0,2.433H7.081a2.436,2.436,0,0,0-2.4,2.034,2.387,2.387,0,0,0-.541,3.795l.508.5v1.044Zm.649,3.65A9.022,9.022,0,0,1,10.73,33.7v.684a5.423,5.423,0,0,1-4.865-5.409H4.649a6.651,6.651,0,0,0,1,3.522,3.659,3.659,0,0,1-2.292,1.3A7.654,7.654,0,0,1,2.216,29.78a4.723,4.723,0,0,1,3.025-4.411ZM16.2,37.488H9.925a7.686,7.686,0,0,1-5.775-2.62A4.879,4.879,0,0,0,6.4,33.479,6.641,6.641,0,0,0,10.642,35.6l4.3.429a2.074,2.074,0,0,1,1.784,1.461Zm1.768,0a3.275,3.275,0,0,0-1.16-1.944V33.231a.608.608,0,0,1,.608-.608h4.865a.608.608,0,0,1,.608.608v2.313a3.279,3.279,0,0,0-1.16,1.944Zm5.011,0a2.072,2.072,0,0,1,1.784-1.461l.559-.056v1.517H22.982Zm6.8,0H26.542V35.849l2.521-.252a6.636,6.636,0,0,0,5.993-6.623H33.839a5.423,5.423,0,0,1-4.865,5.409V33.7a9.021,9.021,0,0,1,5.489-8.331,4.722,4.722,0,0,1,3.025,4.41,7.718,7.718,0,0,1-7.709,7.709Z" transform="translate(-1 -1)"/>
        <path id="Trazado_916792" data-name="Trazado 916792" d="M28.473,30.946A5.473,5.473,0,1,0,23,25.473,5.479,5.479,0,0,0,28.473,30.946Zm.966-7.3a6.82,6.82,0,0,1,.22,1.216H27.287a6.819,6.819,0,0,1,.22-1.216Zm-1.464-1.216a6.814,6.814,0,0,1,.5-.848,6.906,6.906,0,0,1,.5.848Zm1.684,3.649a6.82,6.82,0,0,1-.22,1.216H27.508a6.82,6.82,0,0,1-.22-1.216Zm-.689,2.433a6.872,6.872,0,0,1-.5.848,6.867,6.867,0,0,1-.5-.848Zm1.34,0h1.136a4.258,4.258,0,0,1-1.624.993A8.054,8.054,0,0,0,30.31,28.514Zm.384-1.216a7.95,7.95,0,0,0,.188-1.216h1.8a4.219,4.219,0,0,1-.368,1.216Zm.188-2.433a7.95,7.95,0,0,0-.188-1.216h1.619a4.219,4.219,0,0,1,.368,1.216Zm-.572-2.433a8.055,8.055,0,0,0-.487-.993,4.267,4.267,0,0,1,1.624.993Zm-3.674,0H25.5a4.258,4.258,0,0,1,1.624-.993A8.054,8.054,0,0,0,26.636,22.433Zm-.384,1.216a7.95,7.95,0,0,0-.188,1.216h-1.8a4.219,4.219,0,0,1,.368-1.216Zm-.188,2.433a7.95,7.95,0,0,0,.188,1.216H24.633a4.219,4.219,0,0,1-.368-1.216Zm.572,2.433a8.056,8.056,0,0,0,.487.993,4.267,4.267,0,0,1-1.624-.993Z" transform="translate(-9.621 -8.445)"/>
      </g>
    </g>
  </g>
</svg>
