<svg xmlns="http://www.w3.org/2000/svg" xmlns:xlink="http://www.w3.org/1999/xlink" width="78.578" height="78.578" viewBox="0 0 78.578 78.578">
  <defs>
    <filter id="Trazado_874925" x="0" y="0" width="78.578" height="78.578" filterUnits="userSpaceOnUse">
      <feOffset dy="3" input="SourceAlpha"/>
      <feGaussianBlur stdDeviation="3" result="blur"/>
      <feFlood flood-opacity="0.161"/>
      <feComposite operator="in" in2="blur"/>
      <feComposite in="SourceGraphic"/>
    </filter>
  </defs>
  <g id="Grupo_1119265" data-name="Grupo 1119265" transform="translate(-758.051 -2421)">
    <g id="Grupo_1111553" data-name="Grupo 1111553" transform="translate(767.051 2427)">
      <g id="Grupo_1111316" data-name="Grupo 1111316" transform="translate(0 0)">
        <g id="Grupo_1109835" data-name="Grupo 1109835" transform="translate(0 0)">
          <g id="Grupo_1107913" data-name="Grupo 1107913" transform="translate(0 0)">
            <g transform="matrix(1, 0, 0, 1, -9, -6)" filter="url(#Trazado_874925)">
              <g id="Trazado_874925-2" data-name="Trazado 874925" transform="translate(9 6)" fill="#9cc8ff">
                <path d="M 30.28893852233887 59.0781364440918 C 26.40179824829102 59.0781364440918 22.63171768188477 58.31716918945312 19.08344841003418 56.81637954711914 C 15.65545845031738 55.3664665222168 12.57649898529053 53.29047012329102 9.93207836151123 50.64605712890625 C 7.287668704986572 48.00165939331055 5.211678504943848 44.92269897460938 3.76175856590271 41.49470901489258 C 2.260968446731567 37.94643783569336 1.499998569488525 34.17637634277344 1.499998569488525 30.28923797607422 C 1.499998569488525 26.40174865722656 2.260968446731567 22.63168907165527 3.76175856590271 19.08341789245605 C 5.211678504943848 15.65543842315674 7.287668704986572 12.57647800445557 9.93207836151123 9.93206787109375 C 12.57648849487305 7.287668228149414 15.65545845031738 5.211668014526367 19.08343887329102 3.761758327484131 C 22.63171768188477 2.260968208312988 26.40179824829102 1.499998211860657 30.28893852233887 1.499998211860657 C 34.17607879638672 1.499998211860657 37.94615936279297 2.260968208312988 41.49443817138672 3.761758327484131 C 44.92241668701172 5.211668014526367 48.00138854980469 7.287668228149414 50.64579772949219 9.93206787109375 C 53.29020690917969 12.57647800445557 55.3661994934082 15.65543842315674 56.81612014770508 19.08341789245605 C 58.31690979003906 22.63168907165527 59.07787704467773 26.40174865722656 59.07787704467773 30.28888893127441 C 59.07787704467773 34.17637634277344 58.31690979003906 37.94643783569336 56.81612014770508 41.49470901489258 C 55.3661994934082 44.92269897460938 53.29020690917969 48.00165939331055 50.64579772949219 50.64605712890625 C 48.00137710571289 53.29047012329102 44.92241668701172 55.3664665222168 41.49442672729492 56.81637954711914 C 37.94615936279297 58.31716918945312 34.17607879638672 59.0781364440918 30.28893852233887 59.0781364440918 Z" stroke="none"/>
                <path d="M 30.28893852233887 3 C 26.6036262512207 3 23.0301513671875 3.721099853515625 19.66777038574219 5.143268585205078 C 16.41858291625977 6.517555236816406 13.49987030029297 8.485603332519531 10.99273681640625 10.99273300170898 C 8.485603332519531 13.4998664855957 6.517551422119141 16.41855621337891 5.143260955810547 19.66774749755859 C 3.721092224121094 23.03012466430664 2.999992370605469 26.60359191894531 2.999992370605469 30.28924560546875 C 2.999992370605469 33.97454833984375 3.721092224121094 37.54801177978516 5.143260955810547 40.91039276123047 C 6.517551422119141 44.15956878662109 8.485603332519531 47.07826995849609 10.99273681640625 49.58540344238281 C 13.49987030029297 52.09253692626953 16.41858291625977 54.06057739257812 19.66777038574219 55.43486785888672 C 23.0301513671875 56.85703659057617 26.6036262512207 57.5781364440918 30.28893852233887 57.5781364440918 C 33.97425079345703 57.5781364440918 37.54771423339844 56.85703659057617 40.91010284423828 55.43486785888672 C 44.15929412841797 54.06057739257812 47.07799530029297 52.09253692626953 49.58512878417969 49.58540344238281 C 52.09226989746094 47.07826995849609 54.06031799316406 44.15958023071289 55.43460464477539 40.91039276123047 C 56.85677337646484 37.54801177978516 57.57787322998047 33.97454833984375 57.57787322998047 30.28889083862305 C 57.57787322998047 26.60359191894531 56.85677337646484 23.03012466430664 55.43460464477539 19.66774749755859 C 54.06031799316406 16.41855621337891 52.09226989746094 13.49985885620117 49.58512878417969 10.99273300170898 C 47.07799530029297 8.485603332519531 44.15929412841797 6.517555236816406 40.91010284423828 5.143268585205078 C 37.5477294921875 3.721099853515625 33.97425079345703 3 30.28893852233887 3 M 30.28893852233887 0 C 47.01705932617188 0 60.57787322998047 13.560791015625 60.57787322998047 30.28889083862305 L 60.57787322998047 30.28924560546875 C 60.57787322998047 47.017333984375 47.01705932617188 60.5781364440918 30.28893852233887 60.5781364440918 C 13.56081771850586 60.5781364440918 -7.62939453125e-06 47.017333984375 -7.62939453125e-06 30.28924560546875 L -7.62939453125e-06 30.28889083862305 C -7.62939453125e-06 13.560791015625 13.56081771850586 0 30.28893852233887 0 Z" stroke="none" fill="#fff"/>
              </g>
            </g>
            <g id="Trazado_874923" data-name="Trazado 874923" transform="translate(0 0)" fill="none">
              <path d="M30.289,0A30.289,30.289,0,0,1,60.578,30.289h0A30.289,30.289,0,0,1,0,30.289H0A30.289,30.289,0,0,1,30.289,0Z" stroke="none"/>
              <path d="M 30.28893852233887 3 C 26.6036262512207 3 23.0301513671875 3.721099853515625 19.66777038574219 5.143268585205078 C 16.41858291625977 6.517555236816406 13.49987030029297 8.485603332519531 10.99273681640625 10.99273300170898 C 8.485603332519531 13.4998664855957 6.517551422119141 16.41855621337891 5.143260955810547 19.66774749755859 C 3.721092224121094 23.03012466430664 2.999992370605469 26.60359191894531 2.999992370605469 30.28924560546875 C 2.999992370605469 33.97454833984375 3.721092224121094 37.54801177978516 5.143260955810547 40.91039276123047 C 6.517551422119141 44.15956878662109 8.485603332519531 47.07826995849609 10.99273681640625 49.58540344238281 C 13.49987030029297 52.09253692626953 16.41858291625977 54.06057739257812 19.66777038574219 55.43486785888672 C 23.0301513671875 56.85703659057617 26.6036262512207 57.5781364440918 30.28893852233887 57.5781364440918 C 33.97425079345703 57.5781364440918 37.54771423339844 56.85703659057617 40.91010284423828 55.43486785888672 C 44.15929412841797 54.06057739257812 47.07799530029297 52.09253692626953 49.58512878417969 49.58540344238281 C 52.09226989746094 47.07826995849609 54.06031799316406 44.15958023071289 55.43460464477539 40.91039276123047 C 56.85677337646484 37.54801177978516 57.57787322998047 33.97454833984375 57.57787322998047 30.28889083862305 C 57.57787322998047 26.60359191894531 56.85677337646484 23.03012466430664 55.43460464477539 19.66774749755859 C 54.06031799316406 16.41855621337891 52.09226989746094 13.49985885620117 49.58512878417969 10.99273300170898 C 47.07799530029297 8.485603332519531 44.15929412841797 6.517555236816406 40.91010284423828 5.143268585205078 C 37.5477294921875 3.721099853515625 33.97425079345703 3 30.28893852233887 3 M 30.28893852233887 0 C 47.01705932617188 0 60.57787322998047 13.560791015625 60.57787322998047 30.28889083862305 L 60.57787322998047 30.28924560546875 C 60.57787322998047 47.017333984375 47.01705932617188 60.5781364440918 30.28893852233887 60.5781364440918 C 13.56081771850586 60.5781364440918 -7.62939453125e-06 47.017333984375 -7.62939453125e-06 30.28924560546875 L -7.62939453125e-06 30.28889083862305 C -7.62939453125e-06 13.560791015625 13.56081771850586 0 30.28893852233887 0 Z" stroke="none" fill="#fff"/>
            </g>
          </g>
        </g>
      </g>
    </g>
    <g id="Grupo_1119264" data-name="Grupo 1119264" transform="translate(781.051 2414.943)">
      <g id="Grupo_1119262" data-name="Grupo 1119262" transform="translate(0.467 28.524)">
        <path id="Trazado_916793" data-name="Trazado 916793" d="M289.063,251.992a1,1,0,0,1,1,1v1.5h-2v-1.5A1,1,0,0,1,289.063,251.992Z" transform="translate(-276.584 -238.514)" fill="#fbbd80"/>
        <path id="Trazado_916794" data-name="Trazado 916794" d="M353.192,251.992a1,1,0,0,1,1,1v1.5h-2v-1.5A1,1,0,0,1,353.192,251.992Z" transform="translate(-344.706 -238.514)" fill="#fbbd80"/>
        <path id="Trazado_916795" data-name="Trazado 916795" d="M289.063,187.863a1,1,0,0,1,1,1v1h-2v-1A1,1,0,0,1,289.063,187.863Z" transform="translate(-276.584 -178.379)" fill="#ff5f7a"/>
        <path id="Trazado_916796" data-name="Trazado 916796" d="M353.192,187.863a1,1,0,0,1,1,1v1h-2v-1A1,1,0,0,1,353.192,187.863Z" transform="translate(-344.706 -178.379)" fill="#ff5f7a"/>
        <path id="Trazado_916797" data-name="Trazado 916797" d="M52.484,308.105H23.532v10.483H52.484Z" transform="translate(-22.534 -291.133)" fill="#f4aa73"/>
        <path id="Trazado_916798" data-name="Trazado 916798" d="M25.03,308.105v7.488a1.5,1.5,0,0,0,1.5,1.5H52.484v1.5H23.532V308.105Z" transform="translate(-22.534 -291.133)" fill="#e29a6c"/>
        <path id="Trazado_916799" data-name="Trazado 916799" d="M450.384,91.669h-2v12.978h2Z" transform="translate(-446.889 -88.175)" fill="#fbbd80"/>
        <path id="Trazado_916800" data-name="Trazado 916800" d="M33.545,91.669h-2v12.978h2Z" transform="translate(-4.093 -88.175)" fill="#fbbd80"/>
        <path id="Trazado_916801" data-name="Trazado 916801" d="M44.468,35.557a1,1,0,0,1,1,1v3a1.508,1.508,0,0,1-2.626,1,.5.5,0,0,0-.749,0,1.494,1.494,0,0,1-1.117.5,1.476,1.476,0,0,1-1.121-.482.5.5,0,0,0-.755,0,1.516,1.516,0,0,1-2.244-.026.494.494,0,0,0-.745,0,1.5,1.5,0,0,1-2.249,0,.5.5,0,0,0-.758.012,1.5,1.5,0,0,1-1.386.472,1.423,1.423,0,0,1-.849-.5.49.49,0,0,0-.753,0,1.422,1.422,0,0,1-.849.5,1.5,1.5,0,0,1-1.386-.472.5.5,0,0,0-.758-.012,1.5,1.5,0,0,1-2.245,0,.5.5,0,0,0-.747,0,1.525,1.525,0,0,1-2.256.006.5.5,0,0,0-.749,0,1.494,1.494,0,0,1-1.117.5,1.476,1.476,0,0,1-1.122-.482.5.5,0,0,0-.753,0,1.478,1.478,0,0,1-1.114.486,1.553,1.553,0,0,1-1.5-1.558V36.555a1,1,0,0,1,1-1Z" transform="translate(-15.017 -35.557)" fill="#ff5f7a"/>
        <path id="Trazado_916802" data-name="Trazado 916802" d="M129.239,159.293a1.5,1.5,0,0,0,1.5-1.5v-1a1,1,0,0,0-1-1h-1a1,1,0,0,0-1,1v1A1.5,1.5,0,0,0,129.239,159.293Z" transform="translate(-107.276 -148.311)" fill="#ffd18d"/>
        <path id="Trazado_916803" data-name="Trazado 916803" d="M96.381,240.162l1.792-.554,1,.771,1-.771,1.792.554a1,1,0,0,1,.7.954v1.26H95.677v-1.26A1,1,0,0,1,96.381,240.162Z" transform="translate(-77.208 -226.902)" fill="#ff5f7a"/>
        <path id="Trazado_916804" data-name="Trazado 916804" d="M8,286.054H37.95a.5.5,0,0,0,.5-.5v-1a.5.5,0,0,0-.5-.5H8a.5.5,0,0,0-.5.5v1A.5.5,0,0,0,8,286.054Z" transform="translate(-7.5 -268.583)" fill="#ffd18d"/>
        <path id="Trazado_916805" data-name="Trazado 916805" d="M130.647,156.8v.606s-2.1-.014-2.9-1.017a1,1,0,0,1,.908-.588h1A1,1,0,0,1,130.647,156.8Z" transform="translate(-107.185 -148.31)" fill="#e29a6c"/>
        <path id="Trazado_916806" data-name="Trazado 916806" d="M480.951,286.053h1v-2h-1a.5.5,0,0,0-.5.5v1A.5.5,0,0,0,480.951,286.053Z" transform="translate(-480.452 -268.582)" fill="#fbbd80"/>
        <path id="Trazado_916807" data-name="Trazado 916807" d="M33.545,260.008h-2v1.5h2Z" transform="translate(-4.093 -246.031)" fill="#f4aa73"/>
        <path id="Trazado_916808" data-name="Trazado 916808" d="M450.384,260.008h-2v1.5h2Z" transform="translate(-446.889 -246.031)" fill="#f4aa73"/>
        <g id="Grupo_1119261" data-name="Grupo 1119261" transform="translate(0.499 0)">
          <path id="Trazado_916809" data-name="Trazado 916809" d="M473.434,35.557h.5v5.49a1.553,1.553,0,0,1-1.5-1.557V36.555A1,1,0,0,1,473.434,35.557Z" transform="translate(-472.436 -35.557)" fill="#fb4455"/>
          <path id="Trazado_916810" data-name="Trazado 916810" d="M184.559,244.806l.794-.245v2.459h-1.5v-1.26A1,1,0,0,1,184.559,244.806Z" transform="translate(-165.885 -231.546)" fill="#fb4455"/>
        </g>
      </g>
      <g id="Grupo_1119263" data-name="Grupo 1119263" transform="translate(0 28.057)">
        <path id="Trazado_916811" data-name="Trazado 916811" d="M.966,46.462A.967.967,0,0,1,0,45.5v-1a.967.967,0,0,1,.966-.966H1.5V34.213a2.021,2.021,0,0,1-.389-.3A2.066,2.066,0,0,1,.5,32.457V29.522a1.467,1.467,0,0,1,1.465-1.465H29.918a1.467,1.467,0,0,1,1.465,1.465v3a1.944,1.944,0,0,1-1,1.718v9.3h.531a.967.967,0,0,1,.966.966v1a.967.967,0,0,1-.966.966h-.032v9.049h.531a.467.467,0,0,1,0,.934H.467a.467.467,0,0,1,0-.934H1V46.462Zm1.466-2.931H3.494V34.2a1.977,1.977,0,0,1-1.022.284H2.432ZM30.45,29.522a.532.532,0,0,0-.531-.531H1.965a.532.532,0,0,0-.531.531v2.935a1.126,1.126,0,0,0,.334.79.989.989,0,0,0,.7.3h0a1,1,0,0,0,1.025-1.03.467.467,0,1,1,.934,0,1,1,0,0,0,1.03,1.03,1.032,1.032,0,0,0,1.03-1.03.467.467,0,1,1,.934,0,1.008,1.008,0,0,0,1.031,1.03,1.02,1.02,0,0,0,1.03-1.03.467.467,0,1,1,.934,0,1.03,1.03,0,0,0,2.061,0,.467.467,0,0,1,.934,0,1.032,1.032,0,0,0,1.222,1.013,1.087,1.087,0,0,0,.839-1.094.467.467,0,0,1,.934,0,1.087,1.087,0,0,0,.839,1.094,1.032,1.032,0,0,0,1.222-1.014.467.467,0,1,1,.934,0,1.03,1.03,0,0,0,2.061,0,.467.467,0,1,1,.934,0,1.032,1.032,0,0,0,1.03,1.03,1,1,0,0,0,1.031-1.03.467.467,0,1,1,.934,0,1,1,0,0,0,1.03,1.03,1.032,1.032,0,0,0,1.03-1.03.467.467,0,1,1,.934,0,1.008,1.008,0,0,0,1.03,1.03,1.02,1.02,0,0,0,1.03-1.03v-3Zm-1,4.959h-.032a1.953,1.953,0,0,1-1.5-.687,1.99,1.99,0,0,1-3,.015,1.976,1.976,0,0,1-2.989-.022,1.962,1.962,0,0,1-2.994,0,1.968,1.968,0,0,1-1.852.662,1.9,1.9,0,0,1-1.144-.69,1.9,1.9,0,0,1-1.144.69,1.968,1.968,0,0,1-1.852-.662,1.962,1.962,0,0,1-2.988.007,1.989,1.989,0,0,1-3.008,0,1.961,1.961,0,0,1-1.491.687,2.012,2.012,0,0,1-1.03-.274v9.323H5.491v-7.52a.467.467,0,0,1,.467-.467h9.983a.467.467,0,0,1,.467.467v7.52h2.061v-.793a1.458,1.458,0,0,1,1.033-1.4l1.792-.554a.467.467,0,0,1,.423.077l.713.551.713-.551a.467.467,0,0,1,.423-.077l1.792.554a1.458,1.458,0,0,1,1.033,1.4v.793h1.063V35.773a.467.467,0,0,1,.934,0v7.758h1.063ZM7.488,43.531V43a1.465,1.465,0,0,1,2.931,0v.531h1.063V43a1.465,1.465,0,1,1,2.931,0v.531h1.063V40.472H6.425v3.059Zm2,0V43a.531.531,0,0,0-1.063,0v.531Zm3.993,0V43a.531.531,0,1,0-1.063,0v.531ZM6.425,39.538H7.488v-.531a1.465,1.465,0,0,1,2.931,0v.531h1.063v-.531a1.465,1.465,0,0,1,2.931,0v.531h1.063V36.479H6.425Zm3.059,0v-.531a.531.531,0,0,0-1.063,0v.531Zm3.993,0v-.531a.531.531,0,0,0-1.063,0v.531Zm11.98,3.993v-.793a.529.529,0,0,0-.374-.508l-1.561-.482-.807.623a.467.467,0,0,1-.571,0l-.807-.623-1.561.482a.529.529,0,0,0-.374.508v.793ZM1.932,55.511H29.95V46.462H4.96a.467.467,0,0,1,0-.934H30.917a.032.032,0,0,0,.032-.032v-1a.032.032,0,0,0-.032-.032H.966a.032.032,0,0,0-.032.032v1a.032.032,0,0,0,.032.032h2a.467.467,0,1,1,0,.934H1.932Z" transform="translate(0 -28.057)"/>
        <path id="Trazado_916812" data-name="Trazado 916812" d="M122.207,152.727a1.967,1.967,0,0,1-1.965-1.965v-1a1.467,1.467,0,0,1,1.465-1.465h1a1.467,1.467,0,0,1,1.465,1.465v1A1.967,1.967,0,0,1,122.207,152.727Zm1.031-2.963a.532.532,0,0,0-.531-.531h-1a.532.532,0,0,0-.531.531v1a1.03,1.03,0,0,0,2.061,0Z" transform="translate(-99.776 -140.811)"/>
      </g>
    </g>
  </g>
</svg>
