<svg xmlns="http://www.w3.org/2000/svg" xmlns:xlink="http://www.w3.org/1999/xlink" width="78.578" height="78.578" viewBox="0 0 78.578 78.578">
  <defs>
    <filter id="Trazado_874925" x="0" y="0" width="78.578" height="78.578" filterUnits="userSpaceOnUse">
      <feOffset dy="3" input="SourceAlpha"/>
      <feGaussianBlur stdDeviation="3" result="blur"/>
      <feFlood flood-opacity="0.161"/>
      <feComposite operator="in" in2="blur"/>
      <feComposite in="SourceGraphic"/>
    </filter>
  </defs>
  <g id="Grupo_1119267" data-name="Grupo 1119267" transform="translate(-1175.051 -2421)">
    <g id="Grupo_1111553" data-name="Grupo 1111553" transform="translate(1184.051 2427)">
      <g id="Grupo_1111316" data-name="Grupo 1111316" transform="translate(0 0)">
        <g id="Grupo_1109835" data-name="Grupo 1109835" transform="translate(0 0)">
          <g id="Grupo_1107913" data-name="Grupo 1107913" transform="translate(0 0)">
            <g transform="matrix(1, 0, 0, 1, -9, -6)" filter="url(#Trazado_874925)">
              <g id="Trazado_874925-2" data-name="Trazado 874925" transform="translate(9 6)" fill="#9cc8ff">
                <path d="M 30.28893852233887 59.0781364440918 C 26.40179824829102 59.0781364440918 22.63171768188477 58.31716918945312 19.08344841003418 56.81637954711914 C 15.65545845031738 55.3664665222168 12.57649898529053 53.29047012329102 9.93207836151123 50.64605712890625 C 7.287668704986572 48.00165939331055 5.211678504943848 44.92269897460938 3.76175856590271 41.49470901489258 C 2.260968446731567 37.94643783569336 1.499998569488525 34.17637634277344 1.499998569488525 30.28923797607422 C 1.499998569488525 26.40174865722656 2.260968446731567 22.63168907165527 3.76175856590271 19.08341789245605 C 5.211678504943848 15.65543842315674 7.287668704986572 12.57647800445557 9.93207836151123 9.93206787109375 C 12.57648849487305 7.287668228149414 15.65545845031738 5.211668014526367 19.08343887329102 3.761758327484131 C 22.63171768188477 2.260968208312988 26.40179824829102 1.499998211860657 30.28893852233887 1.499998211860657 C 34.17607879638672 1.499998211860657 37.94615936279297 2.260968208312988 41.49443817138672 3.761758327484131 C 44.92241668701172 5.211668014526367 48.00138854980469 7.287668228149414 50.64579772949219 9.93206787109375 C 53.29020690917969 12.57647800445557 55.3661994934082 15.65543842315674 56.81612014770508 19.08341789245605 C 58.31690979003906 22.63168907165527 59.07787704467773 26.40174865722656 59.07787704467773 30.28888893127441 C 59.07787704467773 34.17637634277344 58.31690979003906 37.94643783569336 56.81612014770508 41.49470901489258 C 55.3661994934082 44.92269897460938 53.29020690917969 48.00165939331055 50.64579772949219 50.64605712890625 C 48.00137710571289 53.29047012329102 44.92241668701172 55.3664665222168 41.49442672729492 56.81637954711914 C 37.94615936279297 58.31716918945312 34.17607879638672 59.0781364440918 30.28893852233887 59.0781364440918 Z" stroke="none"/>
                <path d="M 30.28893852233887 3 C 26.6036262512207 3 23.0301513671875 3.721099853515625 19.66777038574219 5.143268585205078 C 16.41858291625977 6.517555236816406 13.49987030029297 8.485603332519531 10.99273681640625 10.99273300170898 C 8.485603332519531 13.4998664855957 6.517551422119141 16.41855621337891 5.143260955810547 19.66774749755859 C 3.721092224121094 23.03012466430664 2.999992370605469 26.60359191894531 2.999992370605469 30.28924560546875 C 2.999992370605469 33.97454833984375 3.721092224121094 37.54801177978516 5.143260955810547 40.91039276123047 C 6.517551422119141 44.15956878662109 8.485603332519531 47.07826995849609 10.99273681640625 49.58540344238281 C 13.49987030029297 52.09253692626953 16.41858291625977 54.06057739257812 19.66777038574219 55.43486785888672 C 23.0301513671875 56.85703659057617 26.6036262512207 57.5781364440918 30.28893852233887 57.5781364440918 C 33.97425079345703 57.5781364440918 37.54771423339844 56.85703659057617 40.91010284423828 55.43486785888672 C 44.15929412841797 54.06057739257812 47.07799530029297 52.09253692626953 49.58512878417969 49.58540344238281 C 52.09226989746094 47.07826995849609 54.06031799316406 44.15958023071289 55.43460464477539 40.91039276123047 C 56.85677337646484 37.54801177978516 57.57787322998047 33.97454833984375 57.57787322998047 30.28889083862305 C 57.57787322998047 26.60359191894531 56.85677337646484 23.03012466430664 55.43460464477539 19.66774749755859 C 54.06031799316406 16.41855621337891 52.09226989746094 13.49985885620117 49.58512878417969 10.99273300170898 C 47.07799530029297 8.485603332519531 44.15929412841797 6.517555236816406 40.91010284423828 5.143268585205078 C 37.5477294921875 3.721099853515625 33.97425079345703 3 30.28893852233887 3 M 30.28893852233887 0 C 47.01705932617188 0 60.57787322998047 13.560791015625 60.57787322998047 30.28889083862305 L 60.57787322998047 30.28924560546875 C 60.57787322998047 47.017333984375 47.01705932617188 60.5781364440918 30.28893852233887 60.5781364440918 C 13.56081771850586 60.5781364440918 -7.62939453125e-06 47.017333984375 -7.62939453125e-06 30.28924560546875 L -7.62939453125e-06 30.28889083862305 C -7.62939453125e-06 13.560791015625 13.56081771850586 0 30.28893852233887 0 Z" stroke="none" fill="#fff"/>
              </g>
            </g>
            <g id="Trazado_874923" data-name="Trazado 874923" transform="translate(0 0)" fill="none">
              <path d="M30.289,0A30.289,30.289,0,0,1,60.578,30.289h0A30.289,30.289,0,0,1,0,30.289H0A30.289,30.289,0,0,1,30.289,0Z" stroke="none"/>
              <path d="M 30.28893852233887 3 C 26.6036262512207 3 23.0301513671875 3.721099853515625 19.66777038574219 5.143268585205078 C 16.41858291625977 6.517555236816406 13.49987030029297 8.485603332519531 10.99273681640625 10.99273300170898 C 8.485603332519531 13.4998664855957 6.517551422119141 16.41855621337891 5.143260955810547 19.66774749755859 C 3.721092224121094 23.03012466430664 2.999992370605469 26.60359191894531 2.999992370605469 30.28924560546875 C 2.999992370605469 33.97454833984375 3.721092224121094 37.54801177978516 5.143260955810547 40.91039276123047 C 6.517551422119141 44.15956878662109 8.485603332519531 47.07826995849609 10.99273681640625 49.58540344238281 C 13.49987030029297 52.09253692626953 16.41858291625977 54.06057739257812 19.66777038574219 55.43486785888672 C 23.0301513671875 56.85703659057617 26.6036262512207 57.5781364440918 30.28893852233887 57.5781364440918 C 33.97425079345703 57.5781364440918 37.54771423339844 56.85703659057617 40.91010284423828 55.43486785888672 C 44.15929412841797 54.06057739257812 47.07799530029297 52.09253692626953 49.58512878417969 49.58540344238281 C 52.09226989746094 47.07826995849609 54.06031799316406 44.15958023071289 55.43460464477539 40.91039276123047 C 56.85677337646484 37.54801177978516 57.57787322998047 33.97454833984375 57.57787322998047 30.28889083862305 C 57.57787322998047 26.60359191894531 56.85677337646484 23.03012466430664 55.43460464477539 19.66774749755859 C 54.06031799316406 16.41855621337891 52.09226989746094 13.49985885620117 49.58512878417969 10.99273300170898 C 47.07799530029297 8.485603332519531 44.15929412841797 6.517555236816406 40.91010284423828 5.143268585205078 C 37.5477294921875 3.721099853515625 33.97425079345703 3 30.28893852233887 3 M 30.28893852233887 0 C 47.01705932617188 0 60.57787322998047 13.560791015625 60.57787322998047 30.28889083862305 L 60.57787322998047 30.28924560546875 C 60.57787322998047 47.017333984375 47.01705932617188 60.5781364440918 30.28893852233887 60.5781364440918 C 13.56081771850586 60.5781364440918 -7.62939453125e-06 47.017333984375 -7.62939453125e-06 30.28924560546875 L -7.62939453125e-06 30.28889083862305 C -7.62939453125e-06 13.560791015625 13.56081771850586 0 30.28893852233887 0 Z" stroke="none" fill="#fff"/>
            </g>
          </g>
        </g>
      </g>
    </g>
    <g id="layer1" transform="translate(1197.522 2438.471)">
      <path id="rect7450" d="M21.987.794a3.124,3.124,0,0,0-3.131,3.131v.626H1.323V23.962H25.117V3.925A3.124,3.124,0,0,0,21.987.794Z" transform="translate(1.085 0.362)" fill="#e4eff8"/>
      <path id="path7455" d="M23.026.874c0,11.082-15.441,17.969-21.7,17.969v5.009H25.117V3.815A3.113,3.113,0,0,0,23.026.874Z" transform="translate(1.085 0.471)" fill="#c4dcf0"/>
      <path id="rect7195" d="M2.015,9.26H6.461a1.218,1.218,0,0,1,1.221,1.221V21.815a1.218,1.218,0,0,1-1.221,1.221H2.015A1.218,1.218,0,0,1,.794,21.815V10.481A1.218,1.218,0,0,1,2.015,9.26Z" transform="translate(0.362 11.932)" fill="#549ad4"/>
      <path id="path7197" d="M22.543,14.517H13.036c-1.253,0-1.459.626-1.88,1.252-.721,1.075-2.01,3.274-2.01,3.274a1.967,1.967,0,0,1-2.467.965,1.874,1.874,0,0,1-.967-2.471l1.848-4.232c3.006-6.6,7.39-6.664,9.894-8.807l8.14,8.14L23.825,15.1c-.409-.2.132-.55-1.282-.581Z" transform="translate(6.869 5.424)" fill="#ffbd8d"/>
      <path id="path7386" d="M17.455,4.5c-2.5,2.143-6.888,2.211-9.894,8.807L5.713,17.537a1.874,1.874,0,0,0,.967,2.47,1.709,1.709,0,0,0,1.331.026c-.026-.01-.052-.014-.078-.026a1.874,1.874,0,0,1-.967-2.47L8.813,13.3c2.736-6,6.608-6.6,9.171-8.277Zm5.088,10.019c1.413.03.873.384,1.282.581l.4-.556c-.119-.012-.258-.021-.429-.024Z" transform="translate(6.869 5.424)" fill="#f5f9fb"/>
      <path id="path7199" d="M9.561,8.731s-3.978,2.5-5.857,2.5V22.522l3.131,1.238H21.863a1.879,1.879,0,0,0,0-3.757h1.252a1.879,1.879,0,1,0,0-3.757h.626a1.879,1.879,0,1,0,0-3.757h1.252a1.879,1.879,0,0,0,0-3.757Z" transform="translate(4.339 11.209)" fill="#ffd1b5"/>
      <path id="path7201" d="M24.423,8.731c0,6.262-3.52,13.15-12.578,13.15H3.7s.256.629.312.764l2.819,1.114H21.863a1.879,1.879,0,0,0,0-3.757h1.252a1.879,1.879,0,0,0,0-3.757h.626a1.879,1.879,0,1,0,0-3.757h1.252a1.879,1.879,0,0,0,0-3.757Z" transform="translate(4.339 11.209)" fill="#ffb98d"/>
      <path id="rect7203" d="M1.879,3.757H5.009A1.879,1.879,0,0,0,5.009,0H1.879a1.879,1.879,0,1,0,0,3.757Z" transform="translate(10.548 36.221) rotate(-90)" fill="#ffbd8d"/>
      <path id="path7205" d="M4.762,14.579v3.131a1.864,1.864,0,0,0,2.5,1.765,1.869,1.869,0,0,1-1.252-1.765V14.579a1.869,1.869,0,0,1,1.252-1.765,1.864,1.864,0,0,0-2.5,1.765Z" transform="translate(5.785 16.633)" fill="#f5f9fb"/>
      <path id="path7207" d="M5.292,12.814a1.869,1.869,0,0,1,1.252,1.765v3.131a1.869,1.869,0,0,1-1.252,1.765,1.864,1.864,0,0,0,2.5-1.765V14.579a1.864,1.864,0,0,0-2.5-1.765Z" transform="translate(6.509 16.633)" fill="#ffa465"/>
      <path id="path7209" d="M3.7,9.97V21.256l1.167.461a1.216,1.216,0,0,0,.086-.444V9.939a1.212,1.212,0,0,0-.035-.281A2.84,2.84,0,0,1,3.7,9.97Z" transform="translate(4.339 12.475)" fill="#ffb98d"/>
      <path id="rect7213" d="M1.879,3.757H5.009A1.879,1.879,0,0,0,5.009,0H1.879a1.879,1.879,0,0,0,0,3.757Z" transform="translate(14.305 37.473) rotate(-90)" fill="#ffbd8d"/>
      <path id="path7215" d="M5.8,9.26v2.5c0,5.009,0,10.019-3.775,10.019H.794v.032a1.218,1.218,0,0,0,1.221,1.221H6.461a1.218,1.218,0,0,0,1.221-1.221V10.481A1.218,1.218,0,0,0,6.461,9.26Z" transform="translate(0.362 11.932)" fill="#3588cb"/>
      <path id="path7217" d="M2.014,9.26A1.218,1.218,0,0,0,.794,10.481V21.816a1.218,1.218,0,0,0,1.221,1.221H3.267a1.218,1.218,0,0,1-1.221-1.221V10.481A1.218,1.218,0,0,1,3.267,9.26Z" transform="translate(0.362 11.932)" fill="#f5f9fb"/>
      <path id="rect7219" d="M1.879,3.757h2.5A1.879,1.879,0,0,0,4.383,0h-2.5a1.879,1.879,0,0,0,0,3.757Z" transform="translate(18.062 37.473) rotate(-90)" fill="#ffbd8d"/>
      <path id="rect7221" d="M1.879,3.757H3.131A1.879,1.879,0,1,0,3.131,0H1.879a1.879,1.879,0,1,0,0,3.757Z" transform="translate(21.819 36.221) rotate(-90)" fill="#ffbd8d"/>
      <path id="path7223" d="M10.054,13.607a1.869,1.869,0,0,1,1.252,1.765v1.252a1.869,1.869,0,0,1-1.252,1.765,1.863,1.863,0,0,0,2.5-1.765V15.372a1.864,1.864,0,0,0-2.5-1.765Z" transform="translate(13.017 17.718)" fill="#ffa465"/>
      <path id="path7225" d="M8.229,13.229A1.874,1.874,0,0,0,6.35,15.108v3.131A1.864,1.864,0,0,0,8.855,20,1.869,1.869,0,0,1,7.6,18.239V15.108a1.869,1.869,0,0,1,1.252-1.765A1.87,1.87,0,0,0,8.229,13.229Z" transform="translate(7.955 17.356)" fill="#f5f9fb"/>
      <path id="path7227" d="M6.879,13.343a1.869,1.869,0,0,1,1.252,1.765v3.131A1.869,1.869,0,0,1,6.879,20a1.864,1.864,0,0,0,2.5-1.765V15.108a1.864,1.864,0,0,0-2.5-1.765Z" transform="translate(8.678 17.356)" fill="#ffa465"/>
      <path id="path7229" d="M7.937,15.372v2.5a1.864,1.864,0,0,0,2.5,1.765A1.869,1.869,0,0,1,9.19,17.877v-2.5a1.869,1.869,0,0,1,1.252-1.765,1.864,1.864,0,0,0-2.5,1.765Z" transform="translate(10.124 17.718)" fill="#f5f9fb"/>
      <path id="path7231" d="M10.971,15.372v2.5a1.864,1.864,0,0,1-2.5,1.765,1.869,1.869,0,0,0,1.252-1.765v-2.5a1.869,1.869,0,0,0-1.252-1.765,1.863,1.863,0,0,1,2.5,1.765Z" transform="translate(10.848 17.718)" fill="#ffa465"/>
      <path id="path7233" d="M11.4,13.494a1.87,1.87,0,0,1,.626.114,1.869,1.869,0,0,0-1.252,1.765v1.252a1.869,1.869,0,0,0,1.252,1.765,1.864,1.864,0,0,1-2.5-1.765V15.372A1.874,1.874,0,0,1,11.4,13.494Z" transform="translate(12.294 17.718)" fill="#f5f9fb"/>
      <path id="path7235" d="M7.032,8.731,5.713,11.752a1.874,1.874,0,0,0,.967,2.47,1.967,1.967,0,0,0,2.467-.965s1.288-2.2,2.009-3.274c.42-.626.627-1.252,1.88-1.252Z" transform="translate(6.869 11.209)" fill="#ffbd8d"/>
      <path id="path7399" d="M17.455,4.5c-2.5,2.143-6.888,2.211-9.894,8.807L5.713,17.537a1.874,1.874,0,0,0,.967,2.47,1.709,1.709,0,0,0,1.331.026c-.026-.01-.052-.014-.078-.026a1.874,1.874,0,0,1-.967-2.47L8.813,13.3c2.736-6,6.608-6.6,9.171-8.277Z" transform="translate(6.869 5.424)" fill="#f5f9fb"/>
      <g id="Grupo_1119266" data-name="Grupo 1119266" transform="translate(13.399 16.486)">
        <path id="path7237" d="M10.762,8.731c-1.253,0-1.459.626-1.88,1.252-.721,1.075-2.009,3.274-2.009,3.274a2.427,2.427,0,0,1-.906.881c.05.028.1.061.15.084a1.967,1.967,0,0,0,2.467-.965s1.288-2.2,2.009-3.274c.42-.626.627-1.252,1.88-1.252Z" transform="translate(-5.967 -5.276)" fill="#ffa465"/>
        <path id="path7239" d="M11.423,8.042a1.541,1.541,0,0,1-.582,1.04,4.338,4.338,0,0,1-1.5.864.626.626,0,1,0,.4,1.188A5.445,5.445,0,0,0,11.691,10a2.939,2.939,0,0,0,1.181-1.964c0-.184,0-.624,0-.624s-.626-.009-.835-.01a.626.626,0,0,0-.61.638Z" transform="translate(-1.943 -7.09)" fill="#ffa465"/>
        <path id="path7241" d="M9.043,10.1l8.733.626c1.413.03.873.384,1.282.581l1.771-2.459L19.253,7.271c0,2.2-3.433,2.829-10.21,2.829Z" transform="translate(-1.764 -7.271)" fill="#ffa465"/>
      </g>
      <path id="rect7275" d="M1.221,0H5.667A1.218,1.218,0,0,1,6.888,1.221V12.555a1.218,1.218,0,0,1-1.221,1.221H1.221A1.218,1.218,0,0,1,0,12.555V1.221A1.218,1.218,0,0,1,1.221,0Z" transform="translate(23.368 8.807) rotate(-45)" fill="#549ad4"/>
      <path id="path7278" d="M12.962,2.183a1.217,1.217,0,0,0-.863.358l-.389.389L17.38,8.6c1.735,1.566,2.308,3.329,1.056,4.58L16.58,15.036l.389.389a1.218,1.218,0,0,0,1.727,0l3.144-3.143a1.218,1.218,0,0,0,0-1.727L13.826,2.541a1.217,1.217,0,0,0-.863-.358Z" transform="translate(15.28 2.26)" fill="#3588cb"/>
      <path id="path7280" d="M13.9,2.541,10.753,5.685a1.218,1.218,0,0,0,0,1.727l8.013,8.013a1.217,1.217,0,0,0,1.49.182,1.226,1.226,0,0,1-.237-.182L12.006,7.412a1.218,1.218,0,0,1,0-1.727l3.143-3.144a1.221,1.221,0,0,1,.237-.181,1.209,1.209,0,0,0-1.49.181Z" transform="translate(13.482 2.26)" fill="#f5f9fb"/>
      <path id="path7435" d="M3.925.794A3.124,3.124,0,0,0,.794,3.925V5.8H19.579V3.925A3.124,3.124,0,0,1,22.71.794Z" transform="translate(0.362 0.362)" fill="#549ad4"/>
      <path id="path7445" d="M19.151.794C16.448,4.875,3.925,4.551,1.42,4.551H.794V5.8H19.579V3.925A3.124,3.124,0,0,1,22.71.794Z" transform="translate(0.362 0.362)" fill="#3588cb"/>
      <path id="path7441" d="M3.925.794A3.124,3.124,0,0,0,.794,3.925V5.8H2.046V3.925A3.124,3.124,0,0,1,5.177.794Z" transform="translate(0.362 0.362)" fill="#f5f9fb"/>
      <path id="Ic_14" d="M4.287.529A3.765,3.765,0,0,0,.529,4.287V6.163a.627.627,0,0,0,.624.63h.63V20.668A1.833,1.833,0,0,0,.529,22.412V33.746a1.86,1.86,0,0,0,1.849,1.849H6.82a1.861,1.861,0,0,0,1.653-1.029l1.59.6a2.517,2.517,0,0,0,2.364,1.678,2.485,2.485,0,0,0,1.393-.427,2.5,2.5,0,0,0,4.241.826A2.5,2.5,0,0,0,22.3,36.42a2.485,2.485,0,0,0,1.393.427,2.512,2.512,0,0,0,2.167-1.252H26.2a2.514,2.514,0,0,0,2.5-2.506A2.484,2.484,0,0,0,28.28,31.7a2.518,2.518,0,0,0,1.68-2.365,2.484,2.484,0,0,0-.594-1.611,2.489,2.489,0,0,0,.79-3.536,2.516,2.516,0,0,0,1.68-2.364,2.484,2.484,0,0,0-.4-1.35l1.053-1.916a1.856,1.856,0,0,0,1.93-.424l3.144-3.144a1.854,1.854,0,0,0,0-2.611L29.545,4.36a1.838,1.838,0,0,0-2.607,0l-.108.108v-.18A3.765,3.765,0,0,0,23.072.529Zm0,1.254H20.271a3.641,3.641,0,0,0-.956,2.5V5.54H1.783V4.287a2.486,2.486,0,0,1,2.5-2.5Zm21.291,2.5V5.72L23.794,7.5a1.86,1.86,0,0,0-.281,2.254c-2.363,1.656-6.729,2.3-9.656,8.713l-.446,1.021c-.266.193-.918.659-1.665,1.131a15.619,15.619,0,0,1-1.46.832,3.549,3.549,0,0,1-.961.333H8.557a1.82,1.82,0,0,0-1.763-1.219H3.035V6.793h16.9a.628.628,0,0,0,.63-.63V4.288a2.505,2.505,0,0,1,5.011,0Zm3.086.954,8.014,8.014a.583.583,0,0,1,0,.844l-3.144,3.144a.583.583,0,0,1-.844,0L24.676,9.23a.578.578,0,0,1,0-.84l3.144-3.144a.6.6,0,0,1,.419-.176.625.625,0,0,1,.42.172Zm-23.72,2.8a.624.624,0,1,0,0,1.247H18.062a.624.624,0,1,0,0-1.247Zm0,2.5a.627.627,0,1,0,0,1.254H18.062a.627.627,0,0,0,0-1.254ZM31.477,17.8l-1,1.805a2.467,2.467,0,0,0-1.041-.29q-2.612,0-5.23,0a2.677,2.677,0,0,0,.947-1.929.627.627,0,1,0-1.254.01,1.539,1.539,0,0,1-.582,1.04,4.419,4.419,0,0,1-1.5.878c-.636.007-1.287,0-1.915,0a2.456,2.456,0,0,0-1.673.55,4.289,4.289,0,0,0-.726.98c-.748,1.115-2.025,3.294-2.031,3.3a1.31,1.31,0,0,1-1.675.709,1.235,1.235,0,0,1-.642-1.646L15,18.982c2.788-6.107,6.613-6.214,9.367-8.291ZM4.948,13.051a.626.626,0,1,0,0,1.252h9.985a.626.626,0,0,0,0-1.252Zm.713,2.963a2.985,2.985,0,0,0-1.373,2.278.625.625,0,0,0,1.247.083,1.675,1.675,0,0,1,.818-1.317,1.221,1.221,0,0,1,1.3-.116A1.08,1.08,0,0,1,8.2,18.025a.626.626,0,0,0,1.1.448,1.232,1.232,0,0,1,.647-.4c.1-.014.319-.026.564.338a.626.626,0,0,0,.522.278H11.8a.626.626,0,1,0,0-1.252h-.466a1.728,1.728,0,0,0-1.554-.605,1.318,1.318,0,0,0-.5.146,2.329,2.329,0,0,0-2.141-1.422A2.669,2.669,0,0,0,5.661,16.015Zm6.811,5.632-.465,1.065A2.508,2.508,0,0,0,13.3,26a2.626,2.626,0,0,0,3.257-1.216s1.3-2.212,1.995-3.245a4.972,4.972,0,0,1,.527-.745c.148-.133.309-.23.832-.23h9.425a1.252,1.252,0,1,1,0,2.5H25.579a.626.626,0,1,0,0,1.252h2.5a1.253,1.253,0,0,1,0,2.506h-3.13a.624.624,0,1,0,0,1.247h2.506a1.253,1.253,0,0,1,0,2.506H23.7a2.5,2.5,0,0,0-1.879.854,2.491,2.491,0,0,0-3.49-.26,2.492,2.492,0,0,0-3.536-.79,2.5,2.5,0,0,0-4.87.826v2.562L8.67,33.3V23.041h.657a3.464,3.464,0,0,0,1.507-.459,16.618,16.618,0,0,0,1.585-.9m-5.6.139a.58.58,0,0,1,.6.592V33.746a.583.583,0,0,1-.6.6H2.378a.582.582,0,0,1-.6-.6V22.412a.579.579,0,0,1,.6-.592Zm5.607,8.14a1.236,1.236,0,0,1,1.252,1.252v3.128a1.252,1.252,0,1,1-2.5,0V31.213A1.236,1.236,0,0,1,12.428,29.96Zm3.758,1.252a1.236,1.236,0,0,1,1.252,1.252c0,1.043,0,2.084,0,3.13a1.253,1.253,0,0,1-2.506,0c0-1.046,0-2.083,0-3.13a1.237,1.237,0,0,1,1.254-1.252Zm3.752.624a1.237,1.237,0,0,1,1.254,1.252c0,.839,0,1.669,0,2.506a1.253,1.253,0,0,1-2.506,0V33.089A1.236,1.236,0,0,1,19.938,31.837Zm3.758,0a1.236,1.236,0,0,1,1.252,1.252v1.252a1.252,1.252,0,1,1-2.5,0V33.089A1.236,1.236,0,0,1,23.7,31.837Zm2.167,0H26.2a1.252,1.252,0,1,1,0,2.5V33.089A2.482,2.482,0,0,0,25.864,31.837Z" transform="translate(0 0)" fill="#333"/>
    </g>
  </g>
</svg>
