<svg xmlns="http://www.w3.org/2000/svg" xmlns:xlink="http://www.w3.org/1999/xlink" width="189" height="111" viewBox="0 0 189 111">
  <defs>
    <clipPath id="clip-path">
      <rect id="Rect치ngulo_405164" data-name="Rect치ngulo 405164" width="189" height="111" rx="8" transform="translate(1126.051 3874.411)" fill="#9cc8ff"/>
    </clipPath>
  </defs>
  <g id="Grupo_1119603" data-name="Grupo 1119603" transform="translate(-1126.051 -3885)">
    <rect id="Rect치ngulo_405013" data-name="Rect치ngulo 405013" width="189" height="111" rx="8" transform="translate(1126.051 3885)" fill="#9cc8ff"/>
    <g id="Enmascarar_grupo_1098790" data-name="Enmascarar grupo 1098790" transform="translate(0 10.589)" clip-path="url(#clip-path)">
      <g id="Grupo_1119602" data-name="Grupo 1119602" transform="translate(1126.054 3882.411)">
        <g id="Grupo_1119600" data-name="Grupo 1119600" transform="translate(1.543 1.54)">
          <path id="Trazado_917562" data-name="Trazado 917562" d="M347.747,4.373Q315.636,2.531,289.753,9.5A124.876,124.876,0,0,0,251.985,26.51l0,0c-.2,6.685,4.31,10.02,13.129,10.294l12.754.355c3.994,4.4,6.969,5.135,8.306,0h19.983c5.183,5.807,10.328,5.895,15.434,0l26.161-.328.282,0C347.882,17.869,347.747,4.373,347.747,4.373Z" transform="translate(-156.223 -3.988)" fill="#89a25b"/>
          <path id="Trazado_917563" data-name="Trazado 917563" d="M112.887,36.809A117.443,117.443,0,0,0,99.759,26.514,124.725,124.725,0,0,0,61.995,9.5Q36.116,2.535,4,4.373V36.836l26.161.328c3.606,4.475,9.375,2.66,15.434,0H65.578c2.666,3.68,5.441,3.425,8.306,0H86.63l1.109,5.279c8.334,21.838,16.814,21.587,25.156-.228V37.164C113.18,37.033,113.063,36.922,112.887,36.809Z" transform="translate(-4.001 -3.988)" fill="#a8b875"/>
          <path id="Trazado_917564" data-name="Trazado 917564" d="M434.3,103.946c-.1-22.192-9.984-26.8-26.585-19.322H392.281c7.088,53.425,18.987,79.739,42.154,42.564C434.4,119.314,434.35,111.456,434.3,103.946Z" transform="translate(-242.352 -51.448)" fill="#7f5d46"/>
          <path id="Trazado_917565" data-name="Trazado 917565" d="M307.967,89.9h-8.306c-28.4,38.826-2.632,86.615,31.316,119.8h38.567C354.468,156.126,337.36,107.63,307.967,89.9Z" transform="translate(-178.021 -56.729)" fill="#7f5d46"/>
          <path id="Trazado_917566" data-name="Trazado 917566" d="M222.744,89.9a12.506,12.506,0,0,0-12.507,12.507A12.506,12.506,0,0,0,197.73,89.9H197.1c-22.7,39.133-12.791,79.329,5.622,119.8h15.021c23.812-32.432,30.829-70.608,5.622-119.8Z" transform="translate(-114.475 -56.729)" fill="#7f5d46"/>
          <path id="Trazado_917567" data-name="Trazado 917567" d="M65.578,89.9C37.609,118.065,19.166,161.294,4,209.708H42.568C77.8,170.176,97.867,130.4,73.884,89.9Z" transform="translate(-4.001 -56.729)" fill="#7f5d46"/>
          <path id="Trazado_917568" data-name="Trazado 917568" d="M30.162,89.9C18.9,89.8,10.517,97.115,4,109.229v23.242C26.3,132.459,38.513,115.49,45.6,89.9Z" transform="translate(-4.001 -56.728)" fill="#7f5d46"/>
          <path id="Trazado_917569" data-name="Trazado 917569" d="M63.644,68.338c2.216,1.552,2.884,4.653,1.935,7.75a11.057,11.057,0,0,1-1.51,3.07,11.211,11.211,0,0,1-1.182,1.417c1.467,4.236.641,9.684-2.61,14.326a18.512,18.512,0,0,1-4.892,4.807c1.444,5.877,0,13.16-4.425,19.477a28.25,28.25,0,0,1-5.383,5.788,23.148,23.148,0,0,1-7.352,17.882,23.851,23.851,0,0,1-6.757,4.506,13.633,13.633,0,0,1-9.518,14.974,13.635,13.635,0,0,1-8.271,17.256,13.567,13.567,0,0,1-1.305,9.6A13.152,13.152,0,0,1,4,195.89V118.655a23.982,23.982,0,0,1,15.843-12.584,28.491,28.491,0,0,1,3.352-6.34,25.63,25.63,0,0,1,14.075-10.3,18.011,18.011,0,0,1,3.224-8.395,18.421,18.421,0,0,1,5.1-4.946,14.663,14.663,0,0,1,6.58-2.352,11.049,11.049,0,0,1,1.155-2.1c2.73-3.9,7.348-5.371,10.314-3.294Z" transform="translate(-4.001 -42.912)" fill="#53b79a"/>
          <path id="Trazado_917570" data-name="Trazado 917570" d="M288.438,76.486a9.437,9.437,0,0,1-1.332,4.587,10.215,10.215,0,0,1,4.9,8.854,10.565,10.565,0,0,1-1.182,4.885,14.737,14.737,0,0,1,4.147,10.468,15.446,15.446,0,0,1-1.591,6.9c4.958,3.05,8.341,9.144,8.341,16.171a20.692,20.692,0,0,1-1.9,8.75,23.746,23.746,0,0,1,7.943,18.2,25.911,25.911,0,0,1-1.093,7.491c6.495,3.159,10.792,8.622,10.792,14.835a14,14,0,0,1-2.247,7.522c3.386,2.166,5.406,4.881,5.406,7.835a6.918,6.918,0,0,1-.869,3.305H270.07a6.962,6.962,0,0,1-.869-3.305c0-2.464,1.409-4.765,3.842-6.715a14.313,14.313,0,0,1-3.02-8.642,14.509,14.509,0,0,1,3.545-9.306,25.071,25.071,0,0,1-3.545-13.021,24.722,24.722,0,0,1,4.657-14.677,20.6,20.6,0,0,1,.606-25.28,15.4,15.4,0,0,1-.425-19.639,10.544,10.544,0,0,1-1.7-5.777,10.279,10.279,0,0,1,4.174-8.379,9.277,9.277,0,0,1-1.645-5.062c0-.12-.008-.236-.008-.355,0-4.468,2.857-8.086,6.379-8.086s6.383,3.618,6.383,8.086c0,.12,0,.239-.008.355Z" transform="translate(-166.798 -43.31)" fill="#53b79a"/>
          <path id="Trazado_917571" data-name="Trazado 917571" d="M455.844,90.518l-.425,0c-4.908,2.954-12.546.386-17.546-6.078a19.737,19.737,0,0,1-4.062-9.348,10.4,10.4,0,0,1-4.553-3.9c-.07-.1-.139-.209-.2-.317-2.525-4.081-2.158-8.885.822-10.731,2.927-1.811,7.275-.093,9.823,3.834,4.834-1.487,11.3,1.178,15.72,6.885l.282,0C455.747,76.942,455.8,83.579,455.844,90.518Z" transform="translate(-263.896 -38.021)" fill="#53b79a"/>
          <path id="Trazado_917572" data-name="Trazado 917572" d="M402,118.652c.2,38.459.2,77.239-.56,77.239-3.664,0-6.483-3.228-8.371-6.7a13.567,13.567,0,0,1-1.305-9.6,13.635,13.635,0,0,1-8.271-17.256,13.633,13.633,0,0,1-9.518-14.974,23.85,23.85,0,0,1-6.757-4.506,23.148,23.148,0,0,1-7.352-17.882,28.251,28.251,0,0,1-5.383-5.788c-4.429-6.317-5.869-13.6-4.425-19.477a18.513,18.513,0,0,1-4.892-4.807c-3.251-4.641-4.078-10.09-2.61-14.326a11.213,11.213,0,0,1-1.182-1.417,11.059,11.059,0,0,1-1.51-3.07c-.95-3.1-.282-6.2,1.935-7.75,2.966-2.077,7.584-.6,10.314,3.294a11.049,11.049,0,0,1,1.155,2.1,14.664,14.664,0,0,1,6.58,2.352,18.422,18.422,0,0,1,5.1,4.946,18.011,18.011,0,0,1,3.224,8.395,25.63,25.63,0,0,1,14.075,10.3,28.489,28.489,0,0,1,3.352,6.34,23.982,23.982,0,0,1,15.843,12.584Z" transform="translate(-209.917 -42.912)" fill="#6fceae"/>
          <path id="Trazado_917573" data-name="Trazado 917573" d="M133.815,76.486c0-.116-.008-.236-.008-.355,0-4.468,2.857-8.086,6.383-8.086s6.379,3.618,6.379,8.086c0,.12,0,.236-.008.355a9.277,9.277,0,0,1-1.645,5.062,10.279,10.279,0,0,1,4.174,8.379,10.544,10.544,0,0,1-1.7,5.777,15.4,15.4,0,0,1-.425,19.639,20.6,20.6,0,0,1,.606,25.28A24.722,24.722,0,0,1,152.23,155.3a25.071,25.071,0,0,1-3.545,13.021,14.509,14.509,0,0,1,3.545,9.306,14.313,14.313,0,0,1-3.02,8.642c2.433,1.95,3.842,4.251,3.842,6.715a6.962,6.962,0,0,1-.869,3.305H102.5a6.918,6.918,0,0,1-.869-3.305c0-2.954,2.019-5.668,5.406-7.835a14,14,0,0,1-2.247-7.522c0-6.213,4.3-11.677,10.793-14.835a25.91,25.91,0,0,1-1.093-7.491,23.746,23.746,0,0,1,7.943-18.2,20.692,20.692,0,0,1-1.9-8.75c0-7.028,3.383-13.121,8.341-16.171a15.446,15.446,0,0,1-1.591-6.9,14.737,14.737,0,0,1,4.147-10.468,10.565,10.565,0,0,1-1.182-4.885,10.215,10.215,0,0,1,4.9-8.854,9.436,9.436,0,0,1-1.332-4.587Z" transform="translate(-63.933 -43.31)" fill="#6fceae"/>
          <path id="Trazado_917574" data-name="Trazado 917574" d="M29.544,60.149c2.981,1.846,3.348,6.649.822,10.731-.066.108-.135.212-.2.317a10.4,10.4,0,0,1-4.553,3.9,19.737,19.737,0,0,1-4.062,9.348c-5,6.464-12.638,9.032-17.546,6.078V70.868c4.417-5.707,10.885-8.371,15.72-6.885C22.269,60.056,26.617,58.338,29.544,60.149Z" transform="translate(-4.001 -38.021)" fill="#6fceae"/>
          <g id="Grupo_1119599" data-name="Grupo 1119599" transform="translate(3.776 35.84)">
            <path id="Trazado_917575" data-name="Trazado 917575" d="M17.712,96.805a3.933,3.933,0,1,1-3.931,3.935A3.933,3.933,0,0,1,17.712,96.805Z" transform="translate(-13.781 -96.805)" fill="#ffc05a"/>
            <path id="Trazado_917576" data-name="Trazado 917576" d="M476.74,312.165a5.087,5.087,0,1,1-5.089,5.085A5.087,5.087,0,0,1,476.74,312.165Z" transform="translate(-294.851 -229.007)" fill="#ffc05a"/>
            <circle id="Elipse_11786" data-name="Elipse 11786" cx="3.931" cy="3.931" r="3.931" transform="translate(168.1 67.655)" fill="#ffc05a"/>
            <circle id="Elipse_11787" data-name="Elipse 11787" cx="3.931" cy="3.931" r="3.931" transform="translate(135.329 3.935)" fill="#ffc05a"/>
            <path id="Trazado_917577" data-name="Trazado 917577" d="M410.942,147.065A3.931,3.931,0,1,1,407.011,151,3.93,3.93,0,0,1,410.942,147.065Z" transform="translate(-255.171 -127.658)" fill="#ffc05a"/>
            <path id="Trazado_917578" data-name="Trazado 917578" d="M457.27,194.385a5.087,5.087,0,1,1-5.089,5.089,5.088,5.088,0,0,1,5.089-5.089Z" transform="translate(-282.899 -156.706)" fill="#ffc05a"/>
            <circle id="Elipse_11788" data-name="Elipse 11788" cx="3.931" cy="3.931" r="3.931" transform="translate(153.956 45.027)" fill="#ffc05a"/>
            <circle id="Elipse_11789" data-name="Elipse 11789" cx="3.931" cy="3.931" r="3.931" transform="translate(67.802 21.67)" fill="#ffc05a"/>
            <path id="Trazado_917579" data-name="Trazado 917579" d="M140.759,355.745a6.06,6.06,0,1,1-6.058,6.062A6.063,6.063,0,0,1,140.759,355.745Z" transform="translate(-88.009 -255.759)" fill="#ffc05a"/>
            <circle id="Elipse_11790" data-name="Elipse 11790" cx="6.062" cy="6.062" r="6.062" transform="translate(63.84 75.517)" fill="#ffc05a"/>
            <path id="Trazado_917580" data-name="Trazado 917580" d="M191.782,216.3a4.643,4.643,0,1,1-4.641,4.641A4.641,4.641,0,0,1,191.782,216.3Z" transform="translate(-120.2 -170.162)" fill="#ffc05a"/>
          </g>
          <path id="Trazado_917581" data-name="Trazado 917581" d="M473.792,96.805a3.933,3.933,0,1,1-3.931,3.935A3.933,3.933,0,0,1,473.792,96.805Z" transform="translate(-289.976 -60.965)" fill="#e15c63"/>
          <path id="Trazado_917582" data-name="Trazado 917582" d="M343.973,355.745a6.06,6.06,0,1,1-6.062,6.062A6.059,6.059,0,0,1,343.973,355.745Z" transform="translate(-208.976 -219.919)" fill="#e15c63"/>
          <circle id="Elipse_11791" data-name="Elipse 11791" cx="6.062" cy="6.062" r="6.062" transform="translate(111.782 111.356)" fill="#e15c63"/>
          <path id="Trazado_917583" data-name="Trazado 917583" d="M297.456,216.3a4.643,4.643,0,1,1-4.645,4.641A4.641,4.641,0,0,1,297.456,216.3Z" transform="translate(-181.291 -134.322)" fill="#e15c63"/>
          <circle id="Elipse_11792" data-name="Elipse 11792" cx="3.931" cy="3.931" r="3.931" transform="translate(112.084 57.51)" fill="#e15c63"/>
          <circle id="Elipse_11793" data-name="Elipse 11793" cx="3.931" cy="3.931" r="3.931" transform="translate(44.556 39.775)" fill="#e15c63"/>
          <path id="Trazado_917584" data-name="Trazado 917584" d="M80.556,147.065A3.931,3.931,0,1,1,76.621,151,3.93,3.93,0,0,1,80.556,147.065Z" transform="translate(-48.58 -91.818)" fill="#e15c63"/>
          <circle id="Elipse_11794" data-name="Elipse 11794" cx="3.931" cy="3.931" r="3.931" transform="translate(25.929 80.867)" fill="#e15c63"/>
          <circle id="Elipse_11795" data-name="Elipse 11795" cx="3.931" cy="3.931" r="3.931" transform="translate(11.785 103.495)" fill="#e15c63"/>
          <path id="Trazado_917585" data-name="Trazado 917585" d="M30.556,194.385a5.087,5.087,0,1,1-5.085,5.089,5.089,5.089,0,0,1,5.085-5.089Z" transform="translate(-17.181 -120.866)" fill="#e15c63"/>
          <path id="Trazado_917586" data-name="Trazado 917586" d="M11.086,312.165A5.087,5.087,0,1,1,6,317.25a5.088,5.088,0,0,1,5.085-5.085Z" transform="translate(-5.229 -193.167)" fill="#e15c63"/>
          <path id="Trazado_917587" data-name="Trazado 917587" d="M434.435,132.469l-.56,0a23.982,23.982,0,0,0-15.843-12.584,28.491,28.491,0,0,0-3.352-6.34,25.63,25.63,0,0,0-14.075-10.3,18.01,18.01,0,0,0-3.224-8.395,18.422,18.422,0,0,0-5.1-4.946h9.028a19.139,19.139,0,0,1,1.479,1.857,18.011,18.011,0,0,1,3.224,8.395,25.63,25.63,0,0,1,14.075,10.3,28.49,28.49,0,0,1,3.352,6.34,23.594,23.594,0,0,1,10.866,5.885c.027.027.054.05.081.077C434.4,125.978,434.42,129.225,434.435,132.469Z" transform="translate(-242.352 -56.729)" fill="#684d3c"/>
          <path id="Trazado_917588" data-name="Trazado 917588" d="M356.038,206.4a6.918,6.918,0,0,1-.869,3.305h-6.95a6.918,6.918,0,0,0,.869-3.305c0-2.954-2.02-5.668-5.406-7.835a14,14,0,0,0,2.247-7.522c0-6.213-4.3-11.677-10.792-14.835a25.911,25.911,0,0,0,1.093-7.491,23.746,23.746,0,0,0-7.943-18.2,20.692,20.692,0,0,0,1.9-8.75c0-7.028-3.383-13.121-8.341-16.171a15.447,15.447,0,0,0,1.591-6.9,14.737,14.737,0,0,0-4.147-10.468,10.565,10.565,0,0,0,1.182-4.885,10.215,10.215,0,0,0-4.9-8.854A9.437,9.437,0,0,0,316.9,89.9h6.95a9.436,9.436,0,0,1-1.332,4.587,10.081,10.081,0,0,1,4.7,6.765,10.889,10.889,0,0,1,.2,2.089,10.565,10.565,0,0,1-1.182,4.885,14.737,14.737,0,0,1,4.147,10.468,15.446,15.446,0,0,1-1.591,6.9c4.958,3.05,8.341,9.144,8.341,16.171a20.692,20.692,0,0,1-1.9,8.75,23.746,23.746,0,0,1,7.943,18.2,25.91,25.91,0,0,1-1.093,7.491c6.495,3.159,10.793,8.622,10.793,14.835a14,14,0,0,1-2.247,7.522c3.386,2.166,5.406,4.881,5.406,7.835Z" transform="translate(-195.263 -56.729)" fill="#684d3c"/>
          <path id="Trazado_917589" data-name="Trazado 917589" d="M228.431,206.4a6.962,6.962,0,0,1-.869,3.305H221a6.962,6.962,0,0,0,.869-3.305c0-2.464-1.409-4.765-3.842-6.715a14.313,14.313,0,0,0,3.02-8.642,14.509,14.509,0,0,0-3.545-9.306,25.071,25.071,0,0,0,3.545-13.021,24.722,24.722,0,0,0-4.657-14.677,20.6,20.6,0,0,0-.606-25.28,15.4,15.4,0,0,0,.425-19.639,10.544,10.544,0,0,0,1.7-5.777,10.279,10.279,0,0,0-4.174-8.379,9.277,9.277,0,0,0,1.645-5.062H216a12.422,12.422,0,0,1,5.788,1.417,8.934,8.934,0,0,1-1.494,3.645,10.279,10.279,0,0,1,4.174,8.379,10.544,10.544,0,0,1-1.7,5.777,15.4,15.4,0,0,1-.425,19.639,20.6,20.6,0,0,1,.606,25.28,24.722,24.722,0,0,1,4.657,14.677,25.071,25.071,0,0,1-3.545,13.021,14.509,14.509,0,0,1,3.545,9.306,14.313,14.313,0,0,1-3.02,8.642c2.433,1.95,3.842,4.251,3.842,6.715Z" transform="translate(-132.747 -56.729)" fill="#684d3c"/>
          <path id="Trazado_917590" data-name="Trazado 917590" d="M78.469,89.9H86.69c-.035.127-.073.259-.112.386a11.057,11.057,0,0,1-1.51,3.07,11.213,11.213,0,0,1-1.182,1.417,12.861,12.861,0,0,1,.664,3.371,10.577,10.577,0,0,0-1.344,5.2,10.734,10.734,0,0,0,.166,1.877,19,19,0,0,1-2.1,3.881,18.513,18.513,0,0,1-4.892,4.807c1.444,5.877,0,13.16-4.425,19.477a28.25,28.25,0,0,1-5.383,5.788,23.148,23.148,0,0,1-7.352,17.882,23.852,23.852,0,0,1-6.757,4.506,13.633,13.633,0,0,1-9.518,14.974,13.635,13.635,0,0,1-8.271,17.256,13.567,13.567,0,0,1-1.305,9.6,13.263,13.263,0,0,1-7.124,6.313H25v-6.244c.093-.151.178-.3.263-.456a13.567,13.567,0,0,0,1.305-9.6,13.635,13.635,0,0,0,8.271-17.256,13.633,13.633,0,0,0,9.518-14.974,23.851,23.851,0,0,0,6.757-4.506,23.148,23.148,0,0,0,7.352-17.882A28.25,28.25,0,0,0,63.85,133c4.429-6.317,5.869-13.6,4.425-19.477a18.513,18.513,0,0,0,4.892-4.807c3.251-4.641,4.078-10.09,2.61-14.326a11.214,11.214,0,0,0,1.182-1.417,11.057,11.057,0,0,0,1.51-3.07Z" transform="translate(-16.892 -56.729)" fill="#684d3c"/>
          <path id="Trazado_917591" data-name="Trazado 917591" d="M36.4,89.9H30.162a10.4,10.4,0,0,1-4.553,3.9,19.737,19.737,0,0,1-4.062,9.348,19.083,19.083,0,0,1-9.437,6.769A10.056,10.056,0,0,1,4,109.231v6.676c1.908,1.147,4.885,1.4,8.109.9,4.688-.722,9.9-3.035,13.071-6.506.259-.282.5-.571.734-.869a19.737,19.737,0,0,0,4.062-9.348,10.4,10.4,0,0,0,4.553-3.9c.07-.1.139-.209.2-.317A10.54,10.54,0,0,0,36.4,89.9Z" transform="translate(-4.001 -56.729)" fill="#684d3c"/>
        </g>
        <g id="Grupo_1119601" data-name="Grupo 1119601" transform="translate(-0.003 0)">
          <path id="Trazado_917592" data-name="Trazado 917592" d="M341.516,351.742a7.606,7.606,0,1,0,7.606,7.606A7.615,7.615,0,0,0,341.516,351.742Zm0,12.124a4.517,4.517,0,1,1,4.517-4.517A4.522,4.522,0,0,1,341.516,363.866Z" transform="translate(-204.974 -215.922)" fill="#3a322b"/>
          <path id="Trazado_917593" data-name="Trazado 917593" d="M297.1,288.375a7.606,7.606,0,1,0,7.606,7.606A7.615,7.615,0,0,0,297.1,288.375Zm0,12.124a4.517,4.517,0,1,1,4.517-4.517A4.522,4.522,0,0,1,297.1,300.5Z" transform="translate(-177.71 -177.023)" fill="#3a322b"/>
          <path id="Trazado_917594" data-name="Trazado 917594" d="M295,224.681a6.188,6.188,0,1,0-6.187-6.188A6.195,6.195,0,0,0,295,224.681Zm0-9.287a3.1,3.1,0,1,1-3.1,3.1A3.1,3.1,0,0,1,295,215.394Z" transform="translate(-177.291 -130.327)" fill="#3a322b"/>
          <path id="Trazado_917595" data-name="Trazado 917595" d="M295.746,159.877a5.476,5.476,0,1,0-5.477-5.476A5.483,5.483,0,0,0,295.746,159.877Zm0-7.864a2.387,2.387,0,1,1-2.387,2.387A2.39,2.39,0,0,1,295.746,152.013Z" transform="translate(-178.184 -91.419)" fill="#3a322b"/>
          <path id="Trazado_917596" data-name="Trazado 917596" d="M360.246,108.466a5.476,5.476,0,1,0,5.477-5.476A5.483,5.483,0,0,0,360.246,108.466Zm7.864,0a2.387,2.387,0,1,1-2.387-2.387A2.39,2.39,0,0,1,368.11,108.466Z" transform="translate(-221.141 -63.222)" fill="#3a322b"/>
          <path id="Trazado_917597" data-name="Trazado 917597" d="M413.966,148.537a5.476,5.476,0,1,0-5.476,5.476A5.483,5.483,0,0,0,413.966,148.537Zm-7.863,0a2.387,2.387,0,1,1,2.388,2.387A2.39,2.39,0,0,1,406.1,148.537Z" transform="translate(-247.394 -87.819)" fill="#3a322b"/>
          <path id="Trazado_917598" data-name="Trazado 917598" d="M471.335,92.808a5.476,5.476,0,1,0,5.476,5.477A5.483,5.483,0,0,0,471.335,92.808Zm0,7.863a2.387,2.387,0,1,1,2.387-2.387A2.39,2.39,0,0,1,471.335,100.671Z" transform="translate(-285.972 -56.972)" fill="#3a322b"/>
          <path id="Trazado_917599" data-name="Trazado 917599" d="M413.963,220.367a5.476,5.476,0,1,0-5.477-5.477A5.483,5.483,0,0,0,413.963,220.367Zm0-7.863a2.387,2.387,0,1,1-2.387,2.387A2.39,2.39,0,0,1,413.963,212.5Z" transform="translate(-250.754 -128.552)" fill="#3a322b"/>
          <path id="Trazado_917600" data-name="Trazado 917600" d="M450.6,278.963a5.476,5.476,0,1,0-5.477-5.476A5.483,5.483,0,0,0,450.6,278.963Zm0-7.864a2.387,2.387,0,1,1-2.387,2.387A2.39,2.39,0,0,1,450.6,271.1Z" transform="translate(-273.241 -164.522)" fill="#3a322b"/>
          <path id="Trazado_917601" data-name="Trazado 917601" d="M454.815,203.649a6.631,6.631,0,1,0-6.631-6.631A6.639,6.639,0,0,0,454.815,203.649Zm0-10.173a3.542,3.542,0,1,1-3.542,3.542A3.546,3.546,0,0,1,454.815,193.476Z" transform="translate(-275.123 -116.872)" fill="#3a322b"/>
          <path id="Trazado_917602" data-name="Trazado 917602" d="M474.284,321.428a6.631,6.631,0,1,0-6.631-6.631A6.639,6.639,0,0,0,474.284,321.428Zm0-10.173a3.542,3.542,0,1,1-3.542,3.542A3.546,3.546,0,0,1,474.284,311.255Z" transform="translate(-287.074 -189.172)" fill="#3a322b"/>
          <path id="Trazado_917603" data-name="Trazado 917603" d="M193.447,153.021a11.589,11.589,0,0,1-7.4-5.94,12.073,12.073,0,0,1-1.155-8.513,1.545,1.545,0,0,0-.981-1.8,12.087,12.087,0,0,1-7.335-15.3,1.545,1.545,0,0,0-1.01-1.979,12.09,12.09,0,0,1-8.439-13.275,1.544,1.544,0,0,0-.9-1.633,22.3,22.3,0,0,1-6.323-4.217,21.587,21.587,0,0,1-6.871-16.683,1.544,1.544,0,0,0-.572-1.277,26.794,26.794,0,0,1-5.088-5.473c-4.018-5.734-5.584-12.546-4.19-18.223a1.545,1.545,0,0,0-.646-1.655,16.876,16.876,0,0,1-4.482-4.409c-2.846-4.062-3.772-9.018-2.416-12.934a1.544,1.544,0,0,0-.356-1.585,9.807,9.807,0,0,1-1.018-1.222c-2.2-3.14-2.18-7.11.045-8.668a4.345,4.345,0,0,1,3.888-.387,8.536,8.536,0,0,1,4.275,3.3,9.608,9.608,0,0,1,1,1.812,1.544,1.544,0,0,0,1.287.943c3.939.353,7.884,2.838,10.553,6.647a16.469,16.469,0,0,1,2.953,7.668,1.544,1.544,0,0,0,1.144,1.332,24.235,24.235,0,0,1,13.2,9.694,26.983,26.983,0,0,1,3.171,6,1.544,1.544,0,0,0,1.1.962,22.42,22.42,0,0,1,14.811,11.768,1.544,1.544,0,0,0,2.766-1.376,25.528,25.528,0,0,0-16.077-13.2,30.141,30.141,0,0,0-3.236-5.924,27.712,27.712,0,0,0-13.944-10.62,19.765,19.765,0,0,0-3.354-8.074,20.627,20.627,0,0,0-2.084-2.516h10.363a12.021,12.021,0,0,0,3.942,3.405A21.431,21.431,0,0,0,174.3,48.91c3.905,5.047,9.292,7.908,14.116,7.908a10.459,10.459,0,0,0,5.45-1.453,1.545,1.545,0,0,0-1.594-2.647c-4.253,2.561-11.075.058-15.528-5.7a18.318,18.318,0,0,1-3.751-8.6,1.545,1.545,0,0,0-.939-1.224,8.941,8.941,0,0,1-4.035-3.607,8.909,8.909,0,0,1-1.427-5.272,4.109,4.109,0,0,1,1.748-3.33c2.175-1.347,5.637.16,7.715,3.361a1.544,1.544,0,0,0,1.749.635c4.341-1.335,10.114,1.279,14.043,6.357a1.544,1.544,0,1,0,2.443-1.89c-4.392-5.677-10.928-8.712-16.288-7.692-3.093-4-7.879-5.505-11.288-3.4a7.1,7.1,0,0,0-3.2,5.721,11.4,11.4,0,0,0,.855,5.1H151.9a16.374,16.374,0,0,0-5.966-2.235A12.583,12.583,0,0,0,145,29.374a11.634,11.634,0,0,0-5.864-4.473,7.354,7.354,0,0,0-6.6.8,7.807,7.807,0,0,0-2.929,7.471h-4.935c-.483-4.751-3.824-8.442-7.862-8.442-3.49,0-6.458,2.757-7.512,6.572q-4.443-3.83-9.239-7.2A124.542,124.542,0,0,1,135.474,8.542c17.014-4.578,36.359-6.286,57.5-5.076a1.545,1.545,0,0,0,.176-3.084C171.681-.847,152,.894,134.671,5.559A127.239,127.239,0,0,0,97.3,22.216,127.205,127.205,0,0,0,59.936,5.559C42.6.894,22.929-.847,1.456.382a1.545,1.545,0,0,0,.176,3.084c21.143-1.211,40.489.5,57.5,5.076a121.2,121.2,0,0,1,47.922,24.907A14.1,14.1,0,0,0,97.3,40.822a14.072,14.072,0,0,0-11.64-7.62c-.472-4.766-3.818-8.473-7.865-8.473s-7.378,3.691-7.862,8.442H65A7.808,7.808,0,0,0,62.073,25.7a7.355,7.355,0,0,0-6.6-.8,11.635,11.635,0,0,0-5.864,4.473,12.615,12.615,0,0,0-.934,1.562,16.374,16.374,0,0,0-5.966,2.235H30.246a11.4,11.4,0,0,0,.855-5.1,7.1,7.1,0,0,0-3.2-5.721c-3.408-2.109-8.2-.608-11.288,3.4-5.358-1.02-11.9,2.016-16.288,7.692a1.544,1.544,0,1,0,2.443,1.89c3.929-5.077,9.7-7.691,14.043-6.357a1.544,1.544,0,0,0,1.749-.635c2.078-3.2,5.54-4.709,7.715-3.361a4.108,4.108,0,0,1,1.748,3.33,8.912,8.912,0,0,1-1.427,5.272,8.943,8.943,0,0,1-4.036,3.607,1.546,1.546,0,0,0-.939,1.224,18.315,18.315,0,0,1-3.751,8.6c-4.454,5.757-11.276,8.259-15.528,5.7A1.545,1.545,0,0,0,.746,55.364,10.46,10.46,0,0,0,6.2,56.817c4.824,0,10.211-2.861,14.116-7.908a21.434,21.434,0,0,0,4.239-9.244,12.025,12.025,0,0,0,3.942-3.405H38.855a20.592,20.592,0,0,0-2.084,2.516,19.768,19.768,0,0,0-3.354,8.074,27.715,27.715,0,0,0-13.944,10.62A30.153,30.153,0,0,0,16.237,63.4,25.528,25.528,0,0,0,.16,76.6a1.544,1.544,0,0,0,2.766,1.376A22.42,22.42,0,0,1,17.736,66.2a1.545,1.545,0,0,0,1.1-.962,26.971,26.971,0,0,1,3.171-6,24.238,24.238,0,0,1,13.2-9.694,1.544,1.544,0,0,0,1.144-1.332A16.473,16.473,0,0,1,39.3,40.549c2.669-3.809,6.615-6.294,10.553-6.647a1.544,1.544,0,0,0,1.287-.943,9.622,9.622,0,0,1,1-1.813,8.539,8.539,0,0,1,4.275-3.3,4.347,4.347,0,0,1,3.888.387c2.225,1.559,2.245,5.528.045,8.668a9.744,9.744,0,0,1-1.018,1.222,1.544,1.544,0,0,0-.356,1.585c1.356,3.916.43,8.872-2.416,12.934a16.882,16.882,0,0,1-4.482,4.409,1.545,1.545,0,0,0-.646,1.655c1.394,5.677-.172,12.489-4.19,18.223A26.784,26.784,0,0,1,42.147,82.4a1.544,1.544,0,0,0-.572,1.277A21.588,21.588,0,0,1,34.7,100.36a22.3,22.3,0,0,1-6.323,4.217,1.544,1.544,0,0,0-.9,1.633,12.09,12.09,0,0,1-8.439,13.275,1.545,1.545,0,0,0-1.01,1.979,12.087,12.087,0,0,1-7.335,15.3,1.545,1.545,0,0,0-.981,1.8,12.072,12.072,0,0,1-1.155,8.513,11.59,11.59,0,0,1-7.4,5.94,1.544,1.544,0,1,0,.761,2.993,14.606,14.606,0,0,0,9.348-7.457,15.158,15.158,0,0,0,1.694-9.388,15.159,15.159,0,0,0,6.963-6.521,15.228,15.228,0,0,0,1.443-10.725,15.186,15.186,0,0,0,9.286-15,25.42,25.42,0,0,0,6.171-4.317,24.72,24.72,0,0,0,7.857-18.3A29.988,29.988,0,0,0,49.765,78.7c4.284-6.113,6.073-13.39,4.886-19.691a20.121,20.121,0,0,0,4.432-4.6c3.2-4.564,4.341-10.154,3.081-14.824.252-.3.49-.6.709-.918a12.539,12.539,0,0,0,1.317-2.411h5.841a10.92,10.92,0,0,0,.733,2.538,11.888,11.888,0,0,0-4.45,9.358,12.283,12.283,0,0,0,.889,4.59,16.509,16.509,0,0,0-3.856,10.765,17.265,17.265,0,0,0,1.2,6.342C59.611,73.466,56.6,79.746,56.6,86.58a22.563,22.563,0,0,0,1.585,8.34,25.667,25.667,0,0,0-7.628,18.609,27.645,27.645,0,0,0,.816,6.694c-6.61,3.609-10.515,9.378-10.515,15.634a15.213,15.213,0,0,0,1.746,7.057c-3.216,2.4-4.906,5.244-4.906,8.3a8.463,8.463,0,0,0,1.053,4.036,1.544,1.544,0,1,0,2.721-1.462,5.414,5.414,0,0,1-.684-2.574c0-2.919,2.552-5.163,4.693-6.531a1.544,1.544,0,0,0,.475-2.125,12.427,12.427,0,0,1-2.009-6.7c0-5.4,3.709-10.426,9.923-13.446a1.544,1.544,0,0,0,.8-1.835,24.413,24.413,0,0,1-1.027-7.047c0-6.756,2.764-13.118,7.394-17.017a1.544,1.544,0,0,0,.4-1.834,19.276,19.276,0,0,1-1.757-8.1c0-6.277,2.914-11.969,7.605-14.855a1.544,1.544,0,0,0,.573-2,13.992,13.992,0,0,1-1.429-6.211,13.212,13.212,0,0,1,3.69-9.373,1.545,1.545,0,0,0,.283-1.806A9.113,9.113,0,0,1,69.4,48.156a8.674,8.674,0,0,1,4.138-7.52,1.545,1.545,0,0,0,.536-2.138,7.914,7.914,0,0,1-1.113-4.139c0-3.607,2.169-6.541,4.835-6.541s4.835,2.934,4.835,6.541a7.818,7.818,0,0,1-1.366,4.52,1.545,1.545,0,0,0,.355,2.151,8.744,8.744,0,0,1,3.532,7.127,8.982,8.982,0,0,1-1.447,4.931,1.545,1.545,0,0,0,.106,1.834,13.857,13.857,0,0,1-.373,17.607,1.545,1.545,0,0,0-.032,2.057,18.256,18.256,0,0,1,4.268,12,18.535,18.535,0,0,1-3.715,11.326,1.545,1.545,0,0,0-.022,1.863,24.021,24.021,0,0,1,1.034,25.979,1.544,1.544,0,0,0,.132,1.789,13,13,0,0,1,3.189,8.32,12.835,12.835,0,0,1-2.71,7.711,1.544,1.544,0,0,0,.268,2.132c1.488,1.194,3.261,3.119,3.261,5.511a5.419,5.419,0,0,1-.684,2.574,1.544,1.544,0,1,0,2.721,1.462,8.463,8.463,0,0,0,1.053-4.036,9.687,9.687,0,0,0-3.333-6.969,15.625,15.625,0,0,0,2.512-8.385,15.823,15.823,0,0,0-3.23-9.437A27.222,27.222,0,0,0,87.08,98.869a21.827,21.827,0,0,0,3.685-12.288,21.55,21.55,0,0,0-4.189-12.987,16.487,16.487,0,0,0,3.3-10.082,16.654,16.654,0,0,0-3.016-9.7,12.116,12.116,0,0,0,1.384-5.658,11.944,11.944,0,0,0-3.71-8.724,10.928,10.928,0,0,0,1.026-3.143,10.976,10.976,0,0,1,10.2,10.933v107.3a1.545,1.545,0,0,0,3.089,0V47.223a10.975,10.975,0,0,1,10.2-10.933,10.928,10.928,0,0,0,1.026,3.143,11.945,11.945,0,0,0-3.71,8.724,12.115,12.115,0,0,0,1.384,5.658,16.653,16.653,0,0,0-3.016,9.7,16.487,16.487,0,0,0,3.3,10.082,21.55,21.55,0,0,0-4.189,12.987,21.827,21.827,0,0,0,3.685,12.288,27.222,27.222,0,0,0-1.073,27.552,15.823,15.823,0,0,0-3.23,9.437,15.623,15.623,0,0,0,2.512,8.385,9.687,9.687,0,0,0-3.333,6.969,8.463,8.463,0,0,0,1.053,4.036,1.544,1.544,0,1,0,2.721-1.462,5.414,5.414,0,0,1-.684-2.574c0-2.392,1.774-4.317,3.261-5.511a1.544,1.544,0,0,0,.268-2.132,12.83,12.83,0,0,1-2.71-7.711,13,13,0,0,1,3.189-8.32,1.544,1.544,0,0,0,.132-1.789,24.021,24.021,0,0,1,1.034-25.979,1.544,1.544,0,0,0-.022-1.863,18.534,18.534,0,0,1-3.715-11.326,18.256,18.256,0,0,1,4.268-12,1.545,1.545,0,0,0-.032-2.057,13.857,13.857,0,0,1-.373-17.607,1.545,1.545,0,0,0,.106-1.834,8.982,8.982,0,0,1-1.447-4.931,8.745,8.745,0,0,1,3.532-7.127,1.545,1.545,0,0,0,.355-2.151,7.819,7.819,0,0,1-1.366-4.52c0-3.607,2.169-6.541,4.835-6.541s4.835,2.934,4.835,6.541a7.913,7.913,0,0,1-1.113,4.139,1.545,1.545,0,0,0,.536,2.138,8.675,8.675,0,0,1,4.138,7.52,9.113,9.113,0,0,1-1.005,4.176,1.545,1.545,0,0,0,.283,1.806,13.214,13.214,0,0,1,3.69,9.373,13.992,13.992,0,0,1-1.429,6.211,1.544,1.544,0,0,0,.573,2c4.691,2.886,7.605,8.578,7.605,14.855a19.276,19.276,0,0,1-1.757,8.1,1.544,1.544,0,0,0,.4,1.834c4.63,3.9,7.394,10.26,7.394,17.017a24.426,24.426,0,0,1-1.027,7.047,1.544,1.544,0,0,0,.8,1.835c6.214,3.02,9.923,8.047,9.923,13.446a12.427,12.427,0,0,1-2.009,6.7,1.545,1.545,0,0,0,.475,2.125c2.141,1.368,4.693,3.612,4.693,6.531a5.419,5.419,0,0,1-.684,2.574,1.544,1.544,0,1,0,2.721,1.462,8.464,8.464,0,0,0,1.053-4.036c0-3.054-1.69-5.9-4.906-8.3a15.208,15.208,0,0,0,1.747-7.057c0-6.256-3.905-12.025-10.515-15.634a27.648,27.648,0,0,0,.816-6.694,25.667,25.667,0,0,0-7.628-18.609,22.561,22.561,0,0,0,1.585-8.34c0-6.835-3.015-13.114-7.947-16.727a17.273,17.273,0,0,0,1.2-6.342A16.508,16.508,0,0,0,127.4,52.746a12.28,12.28,0,0,0,.889-4.59,11.887,11.887,0,0,0-4.45-9.358,10.921,10.921,0,0,0,.733-2.538h5.841a12.549,12.549,0,0,0,1.317,2.411c.22.314.457.621.709.918-1.261,4.669-.118,10.259,3.081,14.824a20.113,20.113,0,0,0,4.432,4.6c-1.187,6.3.6,13.578,4.886,19.691a29.963,29.963,0,0,0,5.079,5.607,24.718,24.718,0,0,0,7.857,18.3,25.43,25.43,0,0,0,6.171,4.317,15.186,15.186,0,0,0,9.286,15,15.174,15.174,0,0,0,8.406,17.246,15.157,15.157,0,0,0,1.694,9.388,14.606,14.606,0,0,0,9.348,7.457,1.545,1.545,0,0,0,.765-2.993Z" transform="translate(0.003 0)" fill="#3a322b"/>
          <path id="Trazado_917604" data-name="Trazado 917604" d="M138.3,351.742a7.606,7.606,0,1,0,7.606,7.606A7.615,7.615,0,0,0,138.3,351.742Zm0,12.124a4.517,4.517,0,1,1,4.517-4.517A4.522,4.522,0,0,1,138.3,363.866Z" transform="translate(-80.229 -215.922)" fill="#3a322b"/>
          <path id="Trazado_917605" data-name="Trazado 917605" d="M182.717,288.375a7.606,7.606,0,1,0,7.606,7.606A7.615,7.615,0,0,0,182.717,288.375Zm0,12.124a4.517,4.517,0,1,1,4.517-4.517A4.522,4.522,0,0,1,182.717,300.5Z" transform="translate(-107.493 -177.023)" fill="#3a322b"/>
          <path id="Trazado_917606" data-name="Trazado 917606" d="M189.328,212.3a6.188,6.188,0,1,0,6.187,6.188A6.195,6.195,0,0,0,189.328,212.3Zm0,9.287a3.1,3.1,0,1,1,3.1-3.1A3.1,3.1,0,0,1,189.328,221.591Z" transform="translate(-112.422 -130.326)" fill="#3a322b"/>
          <path id="Trazado_917607" data-name="Trazado 917607" d="M190.844,159.877a5.476,5.476,0,1,0-5.477-5.476A5.483,5.483,0,0,0,190.844,159.877Zm0-7.864a2.387,2.387,0,1,1-2.387,2.387A2.39,2.39,0,0,1,190.844,152.013Z" transform="translate(-113.789 -91.419)" fill="#3a322b"/>
          <path id="Trazado_917608" data-name="Trazado 917608" d="M126.344,108.466a5.476,5.476,0,1,0-5.477,5.477A5.482,5.482,0,0,0,126.344,108.466Zm-7.863,0a2.387,2.387,0,1,1,2.387,2.387A2.39,2.39,0,0,1,118.48,108.466Z" transform="translate(-70.833 -63.222)" fill="#3a322b"/>
          <path id="Trazado_917609" data-name="Trazado 917609" d="M83.576,148.537a5.476,5.476,0,1,0-5.477,5.476A5.483,5.483,0,0,0,83.576,148.537Zm-7.863,0a2.387,2.387,0,1,1,2.387,2.387A2.39,2.39,0,0,1,75.712,148.537Z" transform="translate(-44.579 -87.819)" fill="#3a322b"/>
          <path id="Trazado_917610" data-name="Trazado 917610" d="M20.732,98.284a5.476,5.476,0,1,0-5.477,5.476A5.483,5.483,0,0,0,20.732,98.284Zm-7.864,0a2.387,2.387,0,1,1,2.387,2.387A2.39,2.39,0,0,1,12.868,98.284Z" transform="translate(-6.002 -56.971)" fill="#3a322b"/>
          <path id="Trazado_917611" data-name="Trazado 917611" d="M67.151,214.891a5.477,5.477,0,1,0,5.477-5.476A5.483,5.483,0,0,0,67.151,214.891Zm5.476-2.387a2.387,2.387,0,1,1-2.387,2.387A2.39,2.39,0,0,1,72.627,212.5Z" transform="translate(-41.22 -128.552)" fill="#3a322b"/>
          <path id="Trazado_917612" data-name="Trazado 917612" d="M30.519,273.487A5.476,5.476,0,1,0,36,268.01,5.482,5.482,0,0,0,30.519,273.487Zm7.863,0a2.387,2.387,0,1,1-2.387-2.387A2.39,2.39,0,0,1,38.382,273.487Z" transform="translate(-18.733 -164.522)" fill="#3a322b"/>
          <path id="Trazado_917613" data-name="Trazado 917613" d="M28.1,190.387a6.631,6.631,0,1,0,6.631,6.631A6.639,6.639,0,0,0,28.1,190.387Zm0,10.173a3.542,3.542,0,1,1,3.542-3.542A3.546,3.546,0,0,1,28.1,200.56Z" transform="translate(-13.18 -116.872)" fill="#3a322b"/>
          <path id="Trazado_917614" data-name="Trazado 917614" d="M2,314.8a6.631,6.631,0,1,0,6.631-6.631A6.639,6.639,0,0,0,2,314.8Zm10.174,0a3.542,3.542,0,1,1-3.542-3.542A3.546,3.546,0,0,1,12.176,314.8Z" transform="translate(-1.228 -189.172)" fill="#3a322b"/>
        </g>
      </g>
    </g>
  </g>
</svg>
