<svg xmlns="http://www.w3.org/2000/svg" xmlns:xlink="http://www.w3.org/1999/xlink" width="231.236" height="184.849" viewBox="0 0 231.236 184.849">
  <defs>
    <filter id="Rectángulo_404882" x="0" y="0" width="231.236" height="184.849" filterUnits="userSpaceOnUse">
      <feOffset dx="6" dy="7" input="SourceAlpha"/>
      <feGaussianBlur stdDeviation="3" result="blur"/>
      <feFlood flood-opacity="0.161"/>
      <feComposite operator="in" in2="blur"/>
      <feComposite in="SourceGraphic"/>
    </filter>
    <clipPath id="clip-path">
      <rect id="Rectángulo_404877" data-name="Rectángulo 404877" width="213.236" height="166.849" rx="8" fill="#ffea99"/>
    </clipPath>
    <clipPath id="clip-path-2">
      <rect id="Rectángulo_404982" data-name="Rectángulo 404982" width="213" height="167" rx="8" transform="translate(-16 10.688)" fill="#6b9339"/>
    </clipPath>
  </defs>
  <g id="Grupo_1119270" data-name="Grupo 1119270" transform="translate(-212.051 -4589)">
    <g id="Grupo_1119269" data-name="Grupo 1119269">
      <g id="Grupo_1115684" data-name="Grupo 1115684" transform="translate(-420 -243.398)">
        <g id="Grupo_1114063" data-name="Grupo 1114063" transform="translate(635.051 4834.398)">
          <g transform="matrix(1, 0, 0, 1, -3, -2)" filter="url(#Rectángulo_404882)">
            <rect id="Rectángulo_404882-2" data-name="Rectángulo 404882" width="213.236" height="166.849" rx="8" transform="translate(3 2)" fill="#ffea99"/>
          </g>
        </g>
      </g>
      <g id="Enmascarar_grupo_1098787" data-name="Enmascarar grupo 1098787" transform="translate(231.051 4580.313)" clip-path="url(#clip-path-2)">
        <g id="Grupo_1117840" data-name="Grupo 1117840" transform="translate(5.043 1.823)">
          <ellipse id="Elipse_11765" data-name="Elipse 11765" cx="55.85" cy="8.089" rx="55.85" ry="8.089" transform="translate(51.231 385.2)" fill="#b25f14"/>
          <g id="Grupo_1117839" data-name="Grupo 1117839" transform="translate(0)">
            <path id="Trazado_909181" data-name="Trazado 909181" d="M587.1,153.637a4.035,4.035,0,0,1-.428.221A3.02,3.02,0,0,0,587.1,153.637Z" transform="translate(-498.637 -94.908)" fill="#adadad"/>
            <path id="Trazado_909182" data-name="Trazado 909182" d="M585.535,152.422c-.162.162-.326.311-.5.458C585.209,152.733,585.373,152.584,585.535,152.422Z" transform="translate(-494.805 -95.364)" fill="#adadad"/>
            <path id="Trazado_909183" data-name="Trazado 909183" d="M584.46,151.261a4.809,4.809,0,0,1-.385.532A5.866,5.866,0,0,0,584.46,151.261Z" transform="translate(-492.414 -95.8)" fill="#adadad"/>
            <path id="Trazado_909184" data-name="Trazado 909184" d="M584.125,150.788c-.1.193-.221.385-.34.563C583.9,151.173,584.021,150.981,584.125,150.788Z" transform="translate(-491.679 -95.978)" fill="#adadad"/>
            <g id="Grupo_1117825" data-name="Grupo 1117825" transform="translate(53.708 194.859)">
              <g id="Grupo_1117821" data-name="Grupo 1117821" transform="translate(0)">
                <g id="Grupo_1117819" data-name="Grupo 1117819" transform="translate(0 55.661)">
                  <path id="Trazado_909185" data-name="Trazado 909185" d="M590.17,301.034l.688,6,4.167,36.736.206,1.815.234,2.1c8.857,2.448,15.4,1.582,19.241.206,2.737-.949,4.016-1.265,4.016-1.265.22-1.059.4-3.562.564-5.309.069-.743.124-1.54.193-2.379.715-10.576.688-28.346.605-38.386-.041-4.319-.1-7.207-.1-7.468A80.651,80.651,0,0,1,590.17,301.034Z" transform="translate(-590.17 -293.085)" fill="#96a19b"/>
                  <path id="Trazado_909186" data-name="Trazado 909186" d="M590.2,301.034l.688,6c5.226,1.183,12.1-.027,15.982-.894,3.549-.784,9.38-2.723,13.245-5.584-.041-4.319-.1-7.207-.1-7.468A80.65,80.65,0,0,1,590.2,301.034Z" transform="translate(-590.2 -293.085)" fill="#79827d"/>
                  <path id="Trazado_909187" data-name="Trazado 909187" d="M590.64,333.068l.234,2.1c8.857,2.448,15.4,1.582,19.241.206,2.737-.949,4.016-1.265,4.016-1.265.22-1.059.4-3.562.564-5.309.069-.743.124-1.54.192-2.379a29.392,29.392,0,0,1-7.014,4.525,32.473,32.473,0,0,1-12.144,2.476,24.93,24.93,0,0,1-3.2.014C591.947,333.384,591.286,333.164,590.64,333.068Z" transform="translate(-585.579 -280.571)" fill="#79827d"/>
                </g>
                <g id="Grupo_1117820" data-name="Grupo 1117820" transform="translate(65.99)">
                  <path id="Trazado_909188" data-name="Trazado 909188" d="M554.518,319.113l.357-4.951,2.146-29.3,2.366-32.252c.867.344,30.285,12.021,7.234,69.772-.4,1.032-.839,2.077-1.279,3.136l-11.209-1.142Zm-8.651-30.588a6.751,6.751,0,0,0-4.25-6.272l-8.156-3.232a57.32,57.32,0,0,1,17.852-16.944l-.77,15.5-.55,11.154-1.719,35.044-9.325-.977,6.781-32.9A7.778,7.778,0,0,0,545.867,288.526Z" transform="translate(-533.461 -252.615)" fill="#96a19b"/>
                  <path id="Trazado_909189" data-name="Trazado 909189" d="M563.818,285.224l-6.781,32.9,9.325.977,1.719-35.044.55-11.154a93.347,93.347,0,0,0-9.256-7.826,55.764,55.764,0,0,0-7.826,9.27l8.156,3.232a6.751,6.751,0,0,1,4.25,6.272A7.783,7.783,0,0,1,563.818,285.224Z" transform="translate(-551.55 -247.938)" fill="#79827d"/>
                  <path id="Trazado_909190" data-name="Trazado 909190" d="M539.86,306.233l11.209,1.142c.44-1.059.88-2.1,1.279-3.136a45.363,45.363,0,0,0-4.731-1.65c-2.324-.523-4.676-1-7-1.527a2.427,2.427,0,0,1-.371-.1Z" transform="translate(-519.188 -234.467)" fill="#79827d"/>
                </g>
              </g>
              <g id="Grupo_1117824" data-name="Grupo 1117824" transform="translate(1.65 70.184)">
                <g id="Grupo_1117822" data-name="Grupo 1117822" transform="translate(65.337)">
                  <path id="Trazado_909191" data-name="Trazado 909191" d="M546.405,352.051c13.734,6.933,22.486,6.742,26.168,6.135a3.292,3.292,0,0,0,2.6-2.144s2.366,5.2-4.169,6.107a49.581,49.581,0,0,1-10.6-1.213,43.321,43.321,0,0,1-12.226-4.552,33.81,33.81,0,0,1-2.957-1.908l.208-2.854C545.754,351.755,546.094,351.889,546.405,352.051Zm-14.532-4.317a2.5,2.5,0,0,0,1.891,1.4c2.234.341,5.027.9,7.318,1.419l-.191,3.918s-2.455.206-5.441.206c-.858,0-1.774-.014-2.677-.059a2.553,2.553,0,0,1-2.425-2.6A7.1,7.1,0,0,1,531.873,347.734Z" transform="translate(-530.349 -287.096)" fill="#bf7a00"/>
                  <path id="Trazado_909192" data-name="Trazado 909192" d="M530.594,362.538l2.984-10.81a27.714,27.714,0,0,0,.55-3.686,29.075,29.075,0,0,0,.137-3.287l-.55-41.109,9.325.977L540.661,352.8l-.7,14.3c-2.3-.509-5.089-1.073-7.317-1.417a2.506,2.506,0,0,1-2.049-3.15Zm14.565-6.079,3.741-51.232,11.209,1.142-4.58,45.552a11.737,11.737,0,0,0,6.684,11.8l10.136,4.745a3.314,3.314,0,0,1-.894,6.272c-3.136.509-9.958.729-20.4-3.507-1.815-.729-3.741-1.6-5.777-2.627a8.742,8.742,0,0,0-.977-.426Z" transform="translate(-529.226 -303.645)" fill="#f6c600"/>
                  <path id="Trazado_909193" data-name="Trazado 909193" d="M544.154,342.045l-.853,11.718a8.726,8.726,0,0,1,.976.426c2.036,1.031,3.961,1.9,5.777,2.627l.578.165c2.778.811,5.818,1.472,4.827-2.269-.825-3.136-3.067-5.116-5.529-7.4Q547.063,344.651,544.154,342.045Z" transform="translate(-528.221 -289.231)" fill="#ed9e00"/>
                  <path id="Trazado_909194" data-name="Trazado 909194" d="M555.171,352.168a2.531,2.531,0,0,0,1.9,1.4c2.228.344,5.02.908,7.317,1.417l.7-14.3c-1.458-.99-2.971-1.912-4.346-2.957-.289-.234-1.293-1.087-2.187-1.8a27.714,27.714,0,0,1-.55,3.686l-2.984,10.81A2.528,2.528,0,0,0,555.171,352.168Z" transform="translate(-553.652 -291.528)" fill="#ed9e00"/>
                </g>
                <g id="Grupo_1117823" data-name="Grupo 1117823" transform="translate(0 37.974)">
                  <path id="Trazado_909195" data-name="Trazado 909195" d="M600.052,401.453c.014.22.014.426.014.633a38.582,38.582,0,0,0-4.36,7.895,5.171,5.171,0,0,0-.234,3.273,5.008,5.008,0,0,0,2.792,3.438c5.543,2.544,15.376.8,15.376.8a5.32,5.32,0,0,0,3.714-2.778l.041-.124.578-1.307.014-.028a12.926,12.926,0,0,0,.633-3.672,8.19,8.19,0,0,1,.44-2.3c2.091-5.983-1.142-20.617-1.142-20.617V331.255L609.5,333.3c-3.837,1.375-10.26,2.5-19.117.055l-3.645-.605s3.4,13.327,6.78,28.731C596.723,376.188,599.914,392.8,600.052,401.453Z" transform="translate(-586.738 -331.255)" fill="#f6c600"/>
                  <path id="Trazado_909196" data-name="Trazado 909196" d="M588.76,390.871a3.91,3.91,0,0,0,.725,5.632c8.1,5.174,19.958,1.168,19.958,1.168,3.178-1.507,1.848-6.8,1.848-6.8l-.015.029a6.924,6.924,0,0,1-.576,1.316l-.044.118a5.311,5.311,0,0,1-3.711,2.78s-9.833,1.744-15.375-.8a4.994,4.994,0,0,1-2.795-3.444Z" transform="translate(-580.044 -308.878)" fill="#bf7a00"/>
                  <path id="Trazado_909197" data-name="Trazado 909197" d="M598.331,348.239c3.2,14.7,7.935,38.188,8.072,46.839.1-.069.193-.138.289-.193a10.2,10.2,0,0,0,2.613-2.806c1.6-2.366.55-4.594.275-7.262C609.153,380.719,599.252,350.054,598.331,348.239Z" transform="translate(-593.089 -324.88)" fill="#ed9e00"/>
                  <path id="Trazado_909198" data-name="Trazado 909198" d="M598.5,384.922a.74.74,0,0,0,.6-.31,35,35,0,0,1,3.719-4.4.739.739,0,0,0-1.045-1.045,36.366,36.366,0,0,0-3.877,4.588.738.738,0,0,0,.6,1.168Z" transform="translate(-585.17 -313.353)" fill="#bf7a00"/>
                </g>
              </g>
            </g>
            <g id="Grupo_1117826" data-name="Grupo 1117826" transform="translate(26.793 64.076)">
              <path id="Trazado_909199" data-name="Trazado 909199" d="M584.77,158.089c1.362-.385,2.173-.564,2.173-.564l-.11.935s-.866,13.437,14.593,15.4a7.531,7.531,0,0,0,.963.055c2.324-.027,10.549-.88,11.484-12.144,1.568.165,3.095.358,4.552.605,2.228,9.916,4.236,15.9,5.914,19.489-.688.151-21.469,4.827-38.386-.867C586.517,177.014,586.517,170.1,584.77,158.089Zm-4.9,1.527a163.618,163.618,0,0,0,.646,19.64s-1.444,2.806-2.764,6.23a33.175,33.175,0,0,0-2.022,7.317,7.105,7.105,0,0,0-.5-.88,23.6,23.6,0,0,0-2.269-2.93,32.178,32.178,0,0,0-5.3-4.731c-2.9-2.036-5.158-3.452-8.692-3.947-1.279-.179-2.558-.289-3.837-.358v-.11C557.621,168.968,571.278,162.6,579.874,159.616Zm81.93,34.962a25.821,25.821,0,0,0-3.961,1c-3.562,1.128-8.8,3.411-12.488,7.771a17.89,17.89,0,0,0-2.765,4.3,15.944,15.944,0,0,1-1.6,2.929,6.962,6.962,0,0,1-3.15,2.751l-.536.028a102.227,102.227,0,0,0-5.405-27.218C630.748,182.873,629.9,181,629.9,181l-.124.028c-1.582-7-6.327-17.632-6.327-17.632C652.905,170.563,661.8,194.577,661.8,194.577ZM557.9,188.924a2.344,2.344,0,0,0,2.3-.66c.784-.729,1.279-1.54,2.462-1.8,1.444-.33,2.627.867,3.768,1.65a19.863,19.863,0,0,1,3.287,3.081c.454.5.894,1.018,1.32,1.513a10.626,10.626,0,0,1,2.008,3.452,11.645,11.645,0,0,0,.591,1.98l.027.041c-.138.083-.289.165-.44.275a6.64,6.64,0,0,0-2.146,3.878l-.193.069a8.19,8.19,0,0,0-1.1-2.379,2.97,2.97,0,0,0-2.324-1.348v-.028c-1.32-1.623-2.338-3.48-3.81-5.089-.234-.261-.481-.523-.743-.77a23.237,23.237,0,0,0-5.048-3.8Zm-7.042,4.47c.756-1.994,4-1.609,5.515-1.045a16.761,16.761,0,0,1,3.136,1.582,16.57,16.57,0,0,1,5.405,5.721l.055.041a4.8,4.8,0,0,0-.977,2.2,13.94,13.94,0,0,0-.248,2.723c-.041.014-.083.014-.137.028-1.114-1.939-2.737-4.154-4.5-4.552l.041-.22c-.77-2.008-3.837-5.474-7.4-6.134a5.144,5.144,0,0,0-.908-.124Z" transform="translate(-550.84 -157.525)" fill="#fff"/>
              <path id="Trazado_909200" data-name="Trazado 909200" d="M562.8,178.335a102.23,102.23,0,0,1,5.405,27.218l.536-.028a6.962,6.962,0,0,0,3.15-2.751,15.947,15.947,0,0,0,1.6-2.929,17.891,17.891,0,0,1,2.764-4.3,5.189,5.189,0,0,0-.7-.935,12.261,12.261,0,0,1-3.837-9.119c-.041-1.128.344-2.943-.4-3.892-.976-1.252-1.623-.316-2.943-.124C565.221,181.911,564.065,180.164,562.8,178.335Z" transform="translate(-481.736 -149.714)" fill="#eaeaea"/>
              <path id="Trazado_909201" data-name="Trazado 909201" d="M635.675,179.533c.564-.4,1.417-1.087,2.283-1.678a33.172,33.172,0,0,0-2.022,7.317,7.12,7.12,0,0,0-.5-.88,23.59,23.59,0,0,0-2.269-2.93C634.011,180.743,634.85,180.124,635.675,179.533Zm-23.725,6.574c.138-.014.275-.014.426-.014,2.407.083,4.883.275,7.331.206a16.571,16.571,0,0,1,5.405,5.721l.055.041a4.8,4.8,0,0,0-.977,2.2,13.936,13.936,0,0,0-.248,2.723c-.041.014-.083.014-.137.027-1.114-1.939-2.737-4.154-4.5-4.552l.041-.22C618.579,190.233,615.512,186.767,611.95,186.107Zm16.958-1.953c.33-.193.674-.385,1-.591.454.5.894,1.018,1.32,1.513a10.624,10.624,0,0,1,2.008,3.452,11.65,11.65,0,0,0,.591,1.98l.028.041c-.138.083-.289.165-.44.275a6.64,6.64,0,0,0-2.146,3.878l-.193.069a8.19,8.19,0,0,0-1.1-2.379,2.97,2.97,0,0,0-2.324-1.348v-.028c-1.32-1.623-2.338-3.48-3.81-5.089A16,16,0,0,0,628.908,184.154Z" transform="translate(-611.042 -149.894)" fill="#eaeaea"/>
              <path id="Trazado_909202" data-name="Trazado 909202" d="M601.14,170.572c-2.65,5.186-12.257,8.982-17.671,6.785,3.433.664,8.782-1.485,11.432-3.5a48.179,48.179,0,0,0,6.675-6.548A6.427,6.427,0,0,1,601.14,170.572Z" transform="translate(-535.538 -153.854)" fill="#eaeaea"/>
            </g>
            <g id="Grupo_1117827" data-name="Grupo 1117827" transform="translate(41.368 64.643)">
              <path id="Trazado_909203" data-name="Trazado 909203" d="M611.879,180.852c.563-3.993.563-10.911-1.183-22.915-1.227.34-2.927.842-4.893,1.523a164.456,164.456,0,0,0,.651,19.647c.488,3.993,1.3,7.053,2.661,7.2C609.114,186.306,611.066,186.41,611.879,180.852Z" transform="translate(-591.345 -157.937)" fill="#dbba8f"/>
              <path id="Trazado_909204" data-name="Trazado 909204" d="M579.224,182.005a72.772,72.772,0,0,0,10.852,2.44c15.834,2.261,22.812-3.075,22.812-3.075s5.559,18.908-12.626,19.706l-.191-.118,2.438-4.125a3.586,3.586,0,0,0-6.208-3.592l-3.638,6.166c-.088-.03-.191-.074-.281-.1l.03-7.613a3.6,3.6,0,0,0-2.883-3.5,3.913,3.913,0,0,0-.725-.074,3.609,3.609,0,0,0-3.577,3.608l-.015,5.338q-1.13-.312-2.262-.578C578.086,191.083,579.224,182.005,579.224,182.005Z" transform="translate(-556.177 -149.141)" fill="#ffe7c7"/>
              <path id="Trazado_909205" data-name="Trazado 909205" d="M578.771,162.073q-2.418-.6-5.012-1.019c2.217,9.919,4.228,15.907,5.914,19.485h.014c3.119,6.624,5.116,5.042,5.116,5.042,1.078-.563.975-2.883.3-5.87C583.516,172.7,578.771,162.073,578.771,162.073Z" transform="translate(-520.745 -156.767)" fill="#dbba8f"/>
              <path id="Trazado_909206" data-name="Trazado 909206" d="M550.595,274.3c1.375,32.981,12.186,71.684,12.186,71.684a80.649,80.649,0,0,0,29.818-7.95,106.268,106.268,0,0,0,35.03-27.48c.371-.605.756-1.2,1.142-1.774a57.886,57.886,0,0,1,17.852-16.944l.756-15.376a56.313,56.313,0,0,1-18.787-23.395,79.994,79.994,0,0,1-6.285-23.2c-.234-1.953-.358-3.562-.413-4.7a22.234,22.234,0,0,1,.11-3.452,83.455,83.455,0,0,0,.33-14.276,98.268,98.268,0,0,0-7.413-32.362l-.124.028c.674,3,.784,5.309-.3,5.873,0,0-1.994,1.582-5.116-5.034h-.014c-.688.151-21.469,4.827-38.386-.866-.784,5.364-2.641,5.46-2.764,5.46-1.362-.151-2.173-3.2-2.668-7.207,0,0-4.14,8-4.786,13.547.77,1.719.646,3.383,1.32,5.13l-.083.138c1.032.66.908,2.393.908,3.493q0,.887-.041,1.774l-.069.963a9.289,9.289,0,0,1,1.389-.88,7.415,7.415,0,0,1,8.06,1c1.664.275,3.315.619,4.965,1-4.855-5.391-3.727-14.469-3.727-14.469a72.6,72.6,0,0,0,10.852,2.434c15.844,2.269,22.817-3.081,22.817-3.081s5.556,18.911-12.626,19.709l-.193-.11-.77,1.307c9.641,4.8,16.2,11.319,14.593,18.223a9.488,9.488,0,0,1-2.888,4.814,13.194,13.194,0,0,1-2.806,1.967l-12.282,14.015-.66.248a2.246,2.246,0,0,1-.908,2.338s2.764,6.739-15.143,9.256l.014.041s0,8.293-22.583.963l-.027.11A128.63,128.63,0,0,0,550.595,274.3Z" transform="translate(-550.44 -152.161)" fill="#ecd5b3"/>
              <path id="Trazado_909207" data-name="Trazado 909207" d="M614.448,242.777c-1.683-.41-3.386.413-4.792,1.3a21.841,21.841,0,0,0-3.869,3.32,53.444,53.444,0,0,0-5.928,8.251c-3.5,5.794-5.915,12.2-8.937,18.091a65.159,65.159,0,0,1-11.532,16.191,47.5,47.5,0,0,1-7.651,6.391,34.407,34.407,0,0,1-8.947,4.471c6.606-1.511,12.474-5.424,17.393-10.05a62.881,62.881,0,0,0,12.048-16.323c1.509-3.037,2.861-6.163,4.2-9.211,1.333-3.07,2.854-6.047,4.412-9a53.731,53.731,0,0,1,5.486-8.339,21.344,21.344,0,0,1,3.548-3.473,9.421,9.421,0,0,1,2.141-1.243A4.346,4.346,0,0,1,614.448,242.777Z" transform="translate(-534.497 -126.133)" fill="#dbba8f"/>
              <path id="Trazado_909208" data-name="Trazado 909208" d="M624.872,245.521a61.356,61.356,0,0,1-5.258,4.965,64.465,64.465,0,0,1-5.7,4.4,57.866,57.866,0,0,1-12.622,6.687,44.385,44.385,0,0,1-13.916,2.875,37.97,37.97,0,0,1-7.152-.333,50.214,50.214,0,0,1-7.083-1.412,38.077,38.077,0,0,0,14.253,2.883,39.9,39.9,0,0,0,14.415-2.627,49.727,49.727,0,0,0,12.769-7.156A51.833,51.833,0,0,0,624.872,245.521Z" transform="translate(-559.16 -125.062)" fill="#dbba8f"/>
              <path id="Trazado_909209" data-name="Trazado 909209" d="M579.341,259.293a28.964,28.964,0,0,0,15.885-.179,92.314,92.314,0,0,0,15.721-6.505c4.044-2.159,6.492-4.607,9.834-7.619.811-.729,5.735-4.112,3.562-5.529-.908-.605-3.136,1.293-4.264,1.307,1.554-1.9,2.517-4.1,4.264-5.859,3.617-3.686,8.376-7.4,10.907-12.021,1.073-1.981,2.091-6.6.564-8.6a2.561,2.561,0,0,0-1.8-.976,13.194,13.194,0,0,1-2.806,1.967L618.924,229.3l-.66.248a2.246,2.246,0,0,1-.908,2.338s2.764,6.739-15.143,9.256l.014.041s0,8.293-22.583.963l-.027.11A128.628,128.628,0,0,0,579.341,259.293Z" transform="translate(-579.186 -137.151)" fill="#dbba8f"/>
              <path id="Trazado_909210" data-name="Trazado 909210" d="M564.1,264.388c9.3-2.352,15.789-7.606,21.923-14.7,3.824-4.442,8.541-11.044,14.84-12.048a80,80,0,0,1-6.285-23.2c-3.851,4.044-6.849,12.227-7.84,16.834-1.527,7.193-2.242,14.854-7.289,20.727C575.571,256.521,569.4,261.816,564.1,264.388Z" transform="translate(-522.712 -136.73)" fill="#dbba8f"/>
            </g>
            <g id="Grupo_1117828" data-name="Grupo 1117828" transform="translate(0 81.454)">
              <path id="Trazado_909211" data-name="Trazado 909211" d="M627.365,184.762a1.733,1.733,0,0,0-.311.193c-2.217,1.567-1.4,4.14-3.045,5.9-2.1,2.261-3.873,3.075-3.623,6.534.089,1.3.563,2.513.282,3.814-.326,1.523-1.257,2.913-1.228,4.524.045,2.839,1.169,6.225,3.592,7.776a39.705,39.705,0,0,0,2.263-3.385c1.109-2.144.547-5.086,1.021-7.467.605-3.163,2.04-6.489,4.922-8.175,2.514-1.463,5.279-1.952,7.5-3.947,2.307-2.084,3.711-4.938,7.156-4.938a2.552,2.552,0,0,1,.34.015l.015-.221c.754-2,4.006-1.612,5.514-1.051a16.616,16.616,0,0,1,8.545,7.3l.059.045a2.891,2.891,0,0,1,1.507-.932,2.8,2.8,0,0,1,.976-.088v-.03c-1.523-1.877-2.661-4.079-4.554-5.854a23.65,23.65,0,0,0-5.041-3.8,18.14,18.14,0,0,0-3.445-1.4c-3.045-.887-6.195-1.316-8.663,1.095-1.849,1.788-2.335,3.888-5.367,3.917C633.043,184.6,629.893,183.268,627.365,184.762Z" transform="translate(-619.44 -166.891)" fill="#3b8944"/>
              <path id="Trazado_909212" data-name="Trazado 909212" d="M628.17,221.8c-.562,2.483-2.972,4.493-2.661,7.273.221,2,2.528,4.273,4.672,3.415a3.291,3.291,0,0,0,1.611-1.523c1.2-2.144,1.213-5.455,4.42-5.367,1.331.044,2.247,1.154,3.638,1.005,1.433-.162,2.484-1.434,3.192-2.631a10.659,10.659,0,0,0,1.2-7.038,23.726,23.726,0,0,0-.769-3.667c-.813-2.927-1.567-5.352,1.095-7.509,1.818-1.479,1.759-2.692,1.094-4.894-1.36-4.405-2-8.9,1.715-13.025a3.564,3.564,0,0,1,3.814-1.375c2.2.622,4.155,3.209,5.588,4.2a2.452,2.452,0,0,1,2-.414l.044-.221c-.843-2.173-4.376-6.061-8.308-6.254a2.554,2.554,0,0,0-.34-.015c-3.445,0-4.849,2.854-7.156,4.938-2.217,2-4.982,2.484-7.5,3.947-2.883,1.686-4.317,5.012-4.922,8.175-.473,2.381.088,5.323-1.021,7.467a39.7,39.7,0,0,1-2.263,3.385,5.822,5.822,0,0,0-1.078,3.756C626.38,217.759,628.761,219.222,628.17,221.8Z" transform="translate(-623.718 -165.057)" fill="#5ab16a"/>
              <path id="Trazado_909213" data-name="Trazado 909213" d="M616.136,177.534c-1.965.843-3.8,4.066-3.665,6.21.1,1.729,1.33,3.148,2.454,4.287,2.528-1.494,5.677-.162,8.412-.177,3.031-.029,3.518-2.129,5.367-3.917,2.469-2.411,5.618-1.982,8.663-1.095a18.142,18.142,0,0,1,3.445,1.4l.029-.059a2.385,2.385,0,0,0,2.306-.664c.784-.725,1.271-1.538,2.454-1.8,1.45-.325,2.632.872,3.77,1.656a27.032,27.032,0,0,1,4.613,4.583,10.825,10.825,0,0,1,2.011,3.46,11.153,11.153,0,0,0,.591,1.981l.029.044a3.772,3.772,0,0,1,2.987-.281,1.354,1.354,0,0,1,.325.162l.074-.132c-.666-1.745-.547-3.416-1.316-5.13a6.592,6.592,0,0,0-.487-.887,30.055,30.055,0,0,0-7.57-7.658c-2.9-2.026-5.159-3.445-8.692-3.947-1.287-.179-2.558-.282-3.844-.356l-1.2-.088a7.643,7.643,0,0,0-6.3-4.79c-1.671-.237-3.829-.384-5.292.607-1.478.99-1.36,2.528-2.114,3.932C621.636,177.683,618.576,176.485,616.136,177.534Z" transform="translate(-606.999 -170.161)" fill="#5ab16a"/>
              <path id="Trazado_909214" data-name="Trazado 909214" d="M632.272,205.053c-2.661,2.158-1.907,4.583-1.095,7.509a23.748,23.748,0,0,1,.769,3.667l.148-.015a4.827,4.827,0,0,1,2.557-2.055c.015-.015.015-.015.03-.015,1.078-.369,2.824-.044,3.8-.8,1.3-.99,1.036-2.513.488-3.9-.3-.783-.695-1.538-.931-2.143-.858-2.1-.015-2.751.975-4.42a5.328,5.328,0,0,0,.547-1.287,5.889,5.889,0,0,0-.488-4.035,12.661,12.661,0,0,1-1.242-6.86,14.955,14.955,0,0,1,.607-3.415,5.54,5.54,0,0,0,.4-1.271l.059-.252a3.564,3.564,0,0,0-3.814,1.375c-3.711,4.125-3.075,8.619-1.715,13.025C634.031,202.362,634.09,203.575,632.272,205.053Z" transform="translate(-611.425 -164.356)" fill="#3b8944"/>
              <path id="Trazado_909215" data-name="Trazado 909215" d="M627,207.748l.059.133s.74,1.641,2.1,4.066c1.256-1.271,3.7.221,3.7.221a3.393,3.393,0,0,0,3.932-.206v-.015l-1.153-7.126v-.015a13.72,13.72,0,0,1-1.272-2.1,2.23,2.23,0,0,1-3.03.325h-.015c.547,1.39.813,2.913-.488,3.9-.975.754-2.721.429-3.8.8C627.012,207.733,627.012,207.733,627,207.748Z" transform="translate(-603.771 -157.944)" fill="#175118"/>
              <path id="Trazado_909216" data-name="Trazado 909216" d="M626.712,190.661a12.66,12.66,0,0,0,1.242,6.86,5.889,5.889,0,0,1,.488,4.035l1.849.164a9.839,9.839,0,0,1,3.5-4.746c-1.08-1.965-2.749-5.485-.429-7.051-1.433-.99-3.385-3.577-5.588-4.2l-.059.252a5.533,5.533,0,0,1-.4,1.271A14.948,14.948,0,0,0,626.712,190.661Z" transform="translate(-600.307 -164.319)" fill="#2b6b2f"/>
              <path id="Trazado_909217" data-name="Trazado 909217" d="M629.177,209.786s-2.44-1.492-3.7-.221a56.564,56.564,0,0,0,9.7,12.847l.015-.015-2.085-12.817A3.393,3.393,0,0,1,629.177,209.786Z" transform="translate(-600.095 -155.562)" fill="#5ab16a"/>
              <path id="Trazado_909218" data-name="Trazado 909218" d="M630.09,198.522c-.99,1.67-1.833,2.32-.975,4.42.237.605.635,1.36.931,2.143h.015a2.23,2.23,0,0,0,3.03-.325,9.589,9.589,0,0,1-.842-6.565,6.157,6.157,0,0,1,.237-.8l-1.848-.164A5.337,5.337,0,0,1,630.09,198.522Z" transform="translate(-602.503 -159.998)" fill="#2b6b2f"/>
              <path id="Trazado_909219" data-name="Trazado 909219" d="M579.031,199.447a9.589,9.589,0,0,0,.842,6.565,13.724,13.724,0,0,0,1.272,2.1v.015c4.863,6.771,16.573,12.433,28.829,15.316.857.208,1.715.4,2.572.561a.015.015,0,0,0,.015.015,78.876,78.876,0,0,0,8.988,1.316h.015c2,.177,3.947.265,5.81.265,6.431,0,11.635-1.049,15.272-3.015l.015-.015h.015c3.06-1.656,5.012-3.932,5.691-6.786,1.612-6.9-4.953-13.423-14.591-18.214l-2.232,3.8c.487.237.975.473,1.433.723a3.9,3.9,0,0,1,.843-.074,5.558,5.558,0,0,1,5.352,4.052c3.652,2.927,5.515,5.987,4.878,8.692l-.088.311v.015c-.813,2.572-3.888,4.39-8.412,5.336-.429.089-.887.162-1.346.237a43.3,43.3,0,0,1-8.219.473h-.015a.414.414,0,0,1-.193,0,74.206,74.206,0,0,1-14.784-2.011c-.487-.118-.99-.237-1.478-.355-.206-.059-.414-.118-.62-.162a67.127,67.127,0,0,1-15.656-6.12c-.444-.252-.887-.5-1.3-.754-6.017-3.652-9.418-7.763-8.59-11.266a5.289,5.289,0,0,1,1.8-2.795c-.8-1.168-1.568-2.335-2.262-3.562a1.445,1.445,0,0,0-.118-.208,9.84,9.84,0,0,0-3.5,4.746A6.156,6.156,0,0,0,579.031,199.447Z" transform="translate(-549.284 -161.249)" fill="#b56b14"/>
              <path id="Trazado_909220" data-name="Trazado 909220" d="M583.1,204.245l1.155,7.124v.014l2.091,12.818-.014.014c3.713,3.521,8.142,6.3,13.135,6.726l1.65-.688,10.7-4.415a2.41,2.41,0,0,1,2.393,4.14l-6.492,4.993a13.173,13.173,0,0,0,6.34.674,26.332,26.332,0,0,0,6.849-1.65l7.936-2.627a2.246,2.246,0,0,1,2.668,1.1c.069.165.124.33.179.481l.66-.248,12.282-14.015h-.014l-.014.014c-3.631,1.967-8.844,3.012-15.266,3.012-1.871,0-3.823-.083-5.818-.261h-.014a75.308,75.308,0,0,1-8.981-1.32.014.014,0,0,1-.014-.014c-.866-.151-1.719-.344-2.572-.564a77.3,77.3,0,0,1-15.665-5.433C590.513,211.342,585.768,207.958,583.1,204.245Z" transform="translate(-551.246 -157.367)" fill="#ca8741"/>
              <path id="Trazado_909221" data-name="Trazado 909221" d="M618.819,195.961a.977.977,0,0,1,.11.206c.7,1.224,1.472,2.393,2.269,3.562a36.787,36.787,0,0,1,4.057,7c.165.426.344.839.55,1.265a24.486,24.486,0,0,1,2.2,5.735l-.028.055c.413.248.866.509,1.307.756a8.471,8.471,0,0,1,2.5-4.264c-.083-.4-.11-.88-.206-1.238a27.683,27.683,0,0,0-1.458-4.5c-.261-.633-.523-1.265-.77-1.9-.77-1.87-1.527-3.741-2.407-5.584-.22-.509-.468-1.018-.729-1.513a27.072,27.072,0,0,0-1.334-2.5c-1.114-1.939-2.737-4.154-4.5-4.552a2.44,2.44,0,0,0-1.994.413C616.069,190.473,617.733,193.994,618.819,195.961Z" transform="translate(-585.329 -163.304)" fill="#ff6e41"/>
              <path id="Trazado_909222" data-name="Trazado 909222" d="M620.09,199.439c-.828,3.5,2.573,7.614,8.591,11.266l.029-.059c-.384-2.366-1.862-4.716-2.749-6.994a36.257,36.257,0,0,0-4.065-7.007A5.289,5.289,0,0,0,620.09,199.439Z" transform="translate(-586.027 -160.22)" fill="#7c4208"/>
              <path id="Trazado_909223" data-name="Trazado 909223" d="M614.7,193.417a27.081,27.081,0,0,1,1.334,2.5c.261.5.509,1,.729,1.513.88,1.843,1.637,3.713,2.407,5.584.248.633.509,1.265.77,1.9a27.659,27.659,0,0,1,1.458,4.5c.1.358.124.839.206,1.238a8.282,8.282,0,0,1,3.466-1.884,41.39,41.39,0,0,0-1.155-10.632c-.138-.481-.248-.949-.385-1.43l-.041-.165c-.371-1.444-.757-2.916-1.183-4.346,0-.014,0-.014-.014-.027-.1-.33-.193-.66-.316-.99a8.193,8.193,0,0,0-1.1-2.379,2.97,2.97,0,0,0-2.324-1.348,3,3,0,0,0-.977.082,2.962,2.962,0,0,0-1.513.935,4.8,4.8,0,0,0-.977,2.2,13.94,13.94,0,0,0-.248,2.723C614.8,193.4,614.755,193.4,614.7,193.417Z" transform="translate(-575.144 -163.676)" fill="#ce4520"/>
              <path id="Trazado_909224" data-name="Trazado 909224" d="M606.9,209.183c.756.426,1.554.853,2.379,1.238a69.328,69.328,0,0,0,13.272,4.883,6.648,6.648,0,0,0,.509-1.1,1.339,1.339,0,0,1-.014-.248,8.6,8.6,0,0,1,.55-3.053,8.418,8.418,0,0,0-2.311-5.543,8.262,8.262,0,0,0-2.214-1.678,8.427,8.427,0,0,0-3.947-.976c-.179,0-.371,0-.55.014a7.785,7.785,0,0,0-1.705.316,8.281,8.281,0,0,0-3.466,1.884A8.47,8.47,0,0,0,606.9,209.183Z" transform="translate(-562.943 -157.945)" fill="#ce4520"/>
              <path id="Trazado_909225" data-name="Trazado 909225" d="M611.857,191.435c.124.33.22.66.316.99.014.014.014.014.014.027.426,1.43.811,2.9,1.183,4.346l.041.165c.138.481.248.949.385,1.43a41.384,41.384,0,0,1,1.155,10.632,7.784,7.784,0,0,1,1.706-.316l-.014-.3a23.738,23.738,0,0,1,.811-3.562c.069-.358.138-.7.206-1.059.289-1.747.426-3.48.605-5.24s.371-3.48.481-5.213c.027-.316.055-.633.069-.963.014-.22.014-.44.014-.66.028-.371.028-.743.028-1.114,0-1.1.124-2.833-.908-3.493a1,1,0,0,0-.316-.165,3.81,3.81,0,0,0-3,.275c-.138.082-.289.165-.44.275a6.641,6.641,0,0,0-2.146,3.879Z" transform="translate(-565.025 -163.936)" fill="#ff6e41"/>
              <path id="Trazado_909226" data-name="Trazado 909226" d="M608.261,203.751l.014.311c.177-.015.37-.015.563-.015a8.437,8.437,0,0,1,6.149,2.646,6.656,6.656,0,0,1-.25-1.8,6.951,6.951,0,0,1,.695-3.03,1.862,1.862,0,0,1-.4.029,7.34,7.34,0,0,1-5.752-2.749c-.059.355-.132.695-.206,1.049A26.091,26.091,0,0,0,608.261,203.751Z" transform="translate(-556.649 -159.284)" fill="#c6a209"/>
              <path id="Trazado_909227" data-name="Trazado 909227" d="M603.16,202.434a7.315,7.315,0,0,0,5.749,2.751,1.951,1.951,0,0,0,.4-.027,6.937,6.937,0,0,1,6.079-3.906h.069a.5.5,0,0,0,.055-.124.013.013,0,0,1,.014-.014,7.053,7.053,0,0,0,.591-1.582,7.433,7.433,0,0,0,.206-1.76,4.8,4.8,0,0,0-.041-.646,7.221,7.221,0,0,0-2.586-5.02,7.415,7.415,0,0,0-8.059-1,7.789,7.789,0,0,0-1.334.839c-.014.014-.041.027-.055.041-.11,1.733-.3,3.466-.481,5.213S603.449,200.688,603.16,202.434Z" transform="translate(-550.524 -162.584)" fill="#ff9f45"/>
              <path id="Trazado_909228" data-name="Trazado 909228" d="M598.69,205.207a6.581,6.581,0,0,0,.261,1.815,8.419,8.419,0,0,1,2.311,5.543,8.744,8.744,0,0,1,8.2-5.694,5.73,5.73,0,0,1,.977.069,2.41,2.41,0,0,1,.44.055,6.085,6.085,0,0,1,.688.138,3.686,3.686,0,0,1,.371.1h.014c.1.028.179.055.275.083a2.135,2.135,0,0,0,.082-.316,6.4,6.4,0,0,0,.206-1.045,6.76,6.76,0,0,0,.041-.743,6.51,6.51,0,0,0-.234-1.733,6.867,6.867,0,0,0-6.684-5.2h-.165a6.937,6.937,0,0,0-6.079,3.906A7.033,7.033,0,0,0,598.69,205.207Z" transform="translate(-540.608 -159.608)" fill="#f6c600"/>
              <path id="Trazado_909229" data-name="Trazado 909229" d="M594.58,213.272a1.339,1.339,0,0,0,.014.248,7.474,7.474,0,0,0,.11,1.265c.5.11.99.234,1.485.358a74.7,74.7,0,0,0,14.785,2.008.452.452,0,0,0,.193,0h.014a8.865,8.865,0,0,0,.853-3c.027-.289.041-.591.041-.88a9.023,9.023,0,0,0-.564-3.108,7.67,7.67,0,0,0-.413-.908,8.593,8.593,0,0,0-.7-1.128,8.813,8.813,0,0,0-4.3-3.163c-.1-.027-.179-.055-.275-.083H605.8a3.678,3.678,0,0,0-.371-.1,5.526,5.526,0,0,0-.688-.138,3.457,3.457,0,0,0-.371-.055.061.061,0,0,0-.069,0,2.1,2.1,0,0,0-.413-.041,3.777,3.777,0,0,0-.564-.028,8.745,8.745,0,0,0-8.2,5.694A8.6,8.6,0,0,0,594.58,213.272Z" transform="translate(-534.476 -157.262)" fill="#ff9f45"/>
              <path id="Trazado_909230" data-name="Trazado 909230" d="M599.834,199.4h.088a6.871,6.871,0,0,1,5.338,2.513l.014-5.5c-1.064-.311-2.143-.591-3.253-.843-.458-.1-.9-.208-1.359-.3a4.539,4.539,0,0,1,.044.635A7.316,7.316,0,0,1,599.834,199.4Z" transform="translate(-534.901 -160.732)" fill="#7c4208"/>
              <path id="Trazado_909231" data-name="Trazado 909231" d="M604.78,192.629c-1.656-.384-3.312-.723-4.968-1.005a7.257,7.257,0,0,1,2.588,5.027c.458.088.9.193,1.359.3,1.11.252,2.188.532,3.253.843l.03-4.583Q605.912,192.9,604.78,192.629Z" transform="translate(-536.64 -162.104)" fill="#b56b14"/>
              <path id="Trazado_909232" data-name="Trazado 909232" d="M594.58,203.109V205.3a6.863,6.863,0,0,1,1.348,2.682l.715-1.224,2.709-4.594.426-.729h.014l1.994-3.383v-.591l.027-7.606a3.6,3.6,0,0,0-2.875-3.507,4.357,4.357,0,0,0-.729-.069,3.592,3.592,0,0,0-3.576,3.6l-.014,5.336v.894l-.027,3.686Z" transform="translate(-524.216 -164.112)" fill="#3b8944"/>
              <path id="Trazado_909233" data-name="Trazado 909233" d="M586.886,210.9a8.813,8.813,0,0,1,4.3,3.163l.633-1.059.963-1.637v-.014l.647-1.1.825-1.4.014-.014a5.513,5.513,0,0,1,2.242-3.8l1.018-1.719,2.228-3.81.77-1.307,2.434-4.126a3.584,3.584,0,0,0-1.307-4.91,3.513,3.513,0,0,0-1.788-.468,3.549,3.549,0,0,0-3.108,1.788l-3.631,6.162-.289.468v.014l-1.994,3.383h-.014l-.426.729-2.709,4.594-.715,1.224a6.515,6.515,0,0,1,.234,1.733A7.1,7.1,0,0,1,586.886,210.9Z" transform="translate(-515.271 -163.2)" fill="#5ab16a"/>
              <path id="Trazado_909234" data-name="Trazado 909234" d="M593.906,205.88l-1.6,2.69a7.915,7.915,0,0,1,.71,1.124,5.5,5.5,0,0,1,3.873-1.567,1.213,1.213,0,0,1,.223.014,5.551,5.551,0,0,1-1.774-4.079,5.669,5.669,0,0,1,.044-.71l-1.479,2.513Z" transform="translate(-516.393 -157.702)" fill="#7c4208"/>
              <path id="Trazado_909235" data-name="Trazado 909235" d="M589.805,213.289a8.864,8.864,0,0,1-.853,3,43.754,43.754,0,0,0,8.211-.481,4.256,4.256,0,0,0,.536-.825,5.287,5.287,0,0,1-1.554-2.228,5.144,5.144,0,0,1-.371-1.953,5.291,5.291,0,0,1,.591-2.462.145.145,0,0,1,.069-.124,5.418,5.418,0,0,0-3.452-1.375h-.014a1.182,1.182,0,0,0-.22-.014,5.5,5.5,0,0,0-3.879,1.568,7.7,7.7,0,0,1,.413.908,9.024,9.024,0,0,1,.564,3.108C589.846,212.7,589.833,213,589.805,213.289Z" transform="translate(-512.248 -156.398)" fill="#c6a209"/>
              <path id="Trazado_909236" data-name="Trazado 909236" d="M585.48,205.389a5.817,5.817,0,0,0,.22,1.554s0-.014.014,0a5.469,5.469,0,0,0,1.541,2.531h.014a5.418,5.418,0,0,1,3.452,1.375,5.514,5.514,0,0,1,4.937-3c.124,0,.275,0,.413.014a4.424,4.424,0,0,0,.33-.839,5.294,5.294,0,0,0,.248-1.637,5.788,5.788,0,0,0-.22-1.54,5.586,5.586,0,0,0-5.364-4.044,4.147,4.147,0,0,0-.839.069,5.558,5.558,0,0,0-4.69,4.8l-.014.014A5.835,5.835,0,0,0,585.48,205.389Z" transform="translate(-506.534 -159.033)" fill="#ce4520"/>
              <path id="Trazado_909237" data-name="Trazado 909237" d="M582.16,211.239a5.482,5.482,0,0,0,1.925,4.181,4.226,4.226,0,0,0,.811.591,18.467,18.467,0,0,0,5.089-1.774,6.477,6.477,0,0,0,3.328-3.562v-.014a5.606,5.606,0,0,0-4.718-4.951l-.426-.041c-.137-.014-.289-.014-.413-.014a5.514,5.514,0,0,0-4.937,3,.144.144,0,0,0-.069.124A5.29,5.29,0,0,0,582.16,211.239Z" transform="translate(-498.634 -156.837)" fill="#f6c600"/>
              <path id="Trazado_909238" data-name="Trazado 909238" d="M582.363,202.75a5.265,5.265,0,0,1,.221,1.538,5.511,5.511,0,0,1-.576,2.469,5.579,5.579,0,0,1,5.145,5l.088-.311C587.878,208.737,586.015,205.677,582.363,202.75Z" transform="translate(-492.476 -157.928)" fill="#7c4208"/>
              <path id="Trazado_909239" data-name="Trazado 909239" d="M592.6,200.055a12.357,12.357,0,0,0-1.433-.723l-1.021,1.729A5.321,5.321,0,0,1,592.6,200.055Z" transform="translate(-508.91 -159.211)" fill="#7c4208"/>
              <path id="Trazado_909240" data-name="Trazado 909240" d="M614.74,204.245l1.155,7.124v.014l2.091,12.818-.014.014c3.713,3.521,8.142,6.3,13.135,6.726l1.65-.688a51.833,51.833,0,0,1-4.841-16.133C622.153,211.342,617.408,207.958,614.74,204.245Z" transform="translate(-582.886 -157.367)" fill="#bc7433"/>
              <path id="Trazado_909241" data-name="Trazado 909241" d="M614.081,213.007l-.028.055c.413.248.867.509,1.307.756a8.47,8.47,0,0,1,2.5-4.264,8.281,8.281,0,0,1,3.466-1.884,7.785,7.785,0,0,1,1.705-.316l-.014-.3a23.737,23.737,0,0,1,.811-3.562c.069-.358.138-.7.206-1.059.289-1.747.426-3.48.605-5.24s.371-3.48.481-5.213c.028-.316.055-.633.069-.963.014-.22.014-.44.014-.66-.908,2.544-2.462,4.69-5.419,5.254a.259.259,0,0,1-.11.028c-.179,3.053-1.224,5.254-4.25,6.285-.041.014-.069.027-.11.041a5.524,5.524,0,0,1-2.737,4.855q-.392.248-.7.454A24.491,24.491,0,0,1,614.081,213.007Z" transform="translate(-571.403 -162.58)" opacity="0.34" style="mix-blend-mode: overlay;isolation: isolate"/>
              <path id="Trazado_909242" data-name="Trazado 909242" d="M584.58,205.077a5.469,5.469,0,0,0,1.54,2.531h.014a5.418,5.418,0,0,1,3.452,1.375.144.144,0,0,0-.069.124,5.292,5.292,0,0,0-.591,2.462,5.482,5.482,0,0,0,1.926,4.181,4.223,4.223,0,0,0,.811.591,18.468,18.468,0,0,0,5.089-1.774,4.03,4.03,0,0,0-.674-1.719c-.729-1-1.925-1.307-2.379-2.6-.756-2.132.976-2.861,1.664-4.209a2.226,2.226,0,0,0,.248-.756,2.1,2.1,0,0,0-.344-.124c-2.214-.8-3.741-.165-6.01.248A8.947,8.947,0,0,1,584.58,205.077Z" transform="translate(-505.4 -157.167)" opacity="0.34" style="mix-blend-mode: overlay;isolation: isolate"/>
              <path id="Trazado_909243" data-name="Trazado 909243" d="M594.17,200.439a1.39,1.39,0,0,1,0,.77v1.4a6.863,6.863,0,0,1,1.348,2.682,6.513,6.513,0,0,1,.234,1.733,7.1,7.1,0,0,1-.33,2.1,8.813,8.813,0,0,1,4.3,3.163l.633-1.059.963-1.637v-.014l.647-1.1a.3.3,0,0,1-.041-.069c-.4-.756-.22-2.077-.481-2.929-.371-1.21-.922-2.352-1.375-3.548a16.231,16.231,0,0,0-1.128-2.462,11.262,11.262,0,0,0-2.146-2.558,12.2,12.2,0,0,1-2.586-3.493l-.028,3.686-.014,3.315Z" transform="translate(-523.806 -161.428)" opacity="0.34" style="mix-blend-mode: overlay;isolation: isolate"/>
              <path id="Trazado_909244" data-name="Trazado 909244" d="M588.87,214.625a69.328,69.328,0,0,0,13.272,4.883,6.656,6.656,0,0,0,.509-1.1,7.468,7.468,0,0,0,.11,1.265c.5.11.99.234,1.485.358a74.7,74.7,0,0,0,14.785,2.008.452.452,0,0,0,.193,0h.014a43.756,43.756,0,0,0,8.211-.481,4.259,4.259,0,0,0,.536-.825,5.287,5.287,0,0,1-1.554-2.228,7.6,7.6,0,0,0-5.721.193c-.193.1-.4.22-.619.344-1.155.633-2.641,1.375-3.741.605-1.252-.88-1.141-2.3-2.861-2.723-1.678-.413-3.3-.1-4.484-1.664a2.572,2.572,0,0,1,.426-3.686c1.307-1.224,2.93-1.073,4.374-1.76a.189.189,0,0,0,.055-.041h.014a1.46,1.46,0,0,0,.358-.234.807.807,0,0,0,.206-1.045,2.412,2.412,0,0,0-1.623-1.073c-2.132-.509-4.126.921-6.107-.193-1.815-1-1.939-3.191-.811-4.827a21.119,21.119,0,0,1,1.5-1.582l.124-.124a.013.013,0,0,1,.014-.014c.605-.646,1.032-1.252.591-1.582a2.019,2.019,0,0,0-1.073-.261c-2.5-.11-5.336-.179-7.537-1.609-1.843-1.2-2.737-3.521-3.2-5.721-.014.014-.041.028-.055.041-.11,1.733-.3,3.466-.481,5.213s-.316,3.493-.605,5.24a7.315,7.315,0,0,0,5.749,2.751,1.947,1.947,0,0,0,.4-.027,7.033,7.033,0,0,0-.7,3.026,6.581,6.581,0,0,0,.261,1.815,8.261,8.261,0,0,0-2.214-1.678,4.809,4.809,0,0,1-.413,4.1c-1.609,2.283-3.934.674-6.148.99A5.285,5.285,0,0,0,588.87,214.625Z" transform="translate(-542.533 -162.149)" opacity="0.34" style="mix-blend-mode: overlay;isolation: isolate"/>
            </g>
            <g id="Grupo_1117833" data-name="Grupo 1117833" transform="translate(35.347)">
              <g id="Grupo_1117829" data-name="Grupo 1117829">
                <path id="Trazado_909245" data-name="Trazado 909245" d="M583.789,126.5c2.04.191,4.05.414,6.017.679a155.245,155.245,0,0,1,30.987,7.437,139.462,139.462,0,0,1,15.066,6.3,65.136,65.136,0,0,1-16.44,1.568H619.4l-1.568,8.944c30.338,6.7,32.585-4.613,32.585-4.613s3.665-11.25-30.116-20.919c-1.4-.4-2.868-.8-4.405-1.2a200.327,200.327,0,0,0-26.152-5.706c-12.773-1.8-26.345-1.921-30.853,4.42a4.658,4.658,0,0,0-.814,3.09c.355,3.68,3.5,12.107,24.246,17.237a4.249,4.249,0,0,1,2.366-3.045l-.414-6.475h-.044A92.1,92.1,0,0,1,570.07,125.9C574.8,125.883,579.384,126.1,583.789,126.5Z" transform="translate(-558.063 -108.313)" fill="#946724"/>
                <path id="Trazado_909246" data-name="Trazado 909246" d="M574.651,124.363a45.591,45.591,0,0,1-5.424-.657c-.795-.08-4.5-.777-5.155-.144-1.206,1.161,1.223,4.767,2.011,5.657a14.619,14.619,0,0,0,3.282,2.309c2.679,1.711,5.038,3.419,8.091,4.5a170.855,170.855,0,0,0,32.494,8.313c6.156.877,12.2,2.692,18.4,3.271,4.675.437,10.246.758,14.44-1.714,2.516-1.484,3.115-3.454.429-4.984a24.172,24.172,0,0,0-5.557-2.143,34.954,34.954,0,0,0-5.757-.822c-3.195-.323-6.456-1.529-9.561-2.315-4.334-1.1-8.542-2.668-12.882-3.715-4.947-1.194-9.8-2.28-14.7-3.694a60.378,60.378,0,0,0-9.907-1.637,36.3,36.3,0,0,1-7.032-1.267A14.242,14.242,0,0,0,574.651,124.363Z" transform="translate(-560.309 -106.296)" fill="#765216"/>
                <path id="Trazado_909247" data-name="Trazado 909247" d="M619.959,124.329c-4.405-.4-8.988-.622-13.719-.607a92.092,92.092,0,0,0,14.164,8.324h.044Z" transform="translate(-594.233 -106.137)" fill="#3f2805"/>
                <path id="Trazado_909248" data-name="Trazado 909248" d="M579.908,121.621a198.439,198.439,0,0,1,26.146,5.708c1.54.4,3,.8,4.415,1.2,0,0,.055-.289.11-.784.275-2.723.316-11.828-10.907-15.913a12.728,12.728,0,0,0-2.751-.66,19.509,19.509,0,0,0-9.27.77C584.254,113.231,581.091,116,579.908,121.621Z" transform="translate(-548.22 -110.936)" fill="#765216"/>
                <path id="Trazado_909249" data-name="Trazado 909249" d="M569.356,134.44l-.62,3.489h.015a65.136,65.136,0,0,0,16.44-1.568,139.457,139.457,0,0,0-15.066-6.3Z" transform="translate(-507.395 -103.757)" fill="#3f2805"/>
                <path id="Trazado_909250" data-name="Trazado 909250" d="M579.96,121.348a198.443,198.443,0,0,1,26.146,5.708c1.54.4,3,.8,4.415,1.2,0,0,.055-.289.11-.784a6.761,6.761,0,0,0-.949-.646c-2.82-1.623-5.557-2.173-8.5-3.342-3.823-1.5-9.146-2.242-11.9-5.556a7.809,7.809,0,0,1-1.664-5.57c.014-.151.041-.4.083-.688C584.306,112.958,581.143,115.722,579.96,121.348Z" transform="translate(-548.272 -110.663)" opacity="0.34" style="mix-blend-mode: overlay;isolation: isolate"/>
              </g>
              <g id="Grupo_1117832" data-name="Grupo 1117832" transform="translate(24.194 18.194)">
                <path id="Trazado_909251" data-name="Trazado 909251" d="M602.22,124.165l.3,4.662.193,3.053.413,6.478a3.786,3.786,0,0,1,1.155-.371,3.9,3.9,0,0,1,1.444.041l1.925-9.889.536-2.806.055-.5C606.277,124.578,604.269,124.358,602.22,124.165Z" transform="translate(-600.695 -124.165)" fill="#7c4208"/>
                <g id="Grupo_1117830" data-name="Grupo 1117830" transform="translate(0 0.674)">
                  <path id="Trazado_909252" data-name="Trazado 909252" d="M585.643,162.421s-.872,13.439,14.591,15.405a7.06,7.06,0,0,0,.961.059c2.322-.03,10.556-.887,11.487-12.153.03-.443.059-.887.074-1.36-13.469,2.159-18.643-10.541-19.307-12.33l-.71-.664c-1.671-1.627-3.874-2.661-5.471-4.407l-1.523,14.518Z" transform="translate(-582.396 -116.278)" fill="#fcbe95"/>
                  <path id="Trazado_909253" data-name="Trazado 909253" d="M585.623,150.52a.688.688,0,0,0,.059.191c.664,1.789,5.838,14.489,19.307,12.33.015-.5.015-1.02,0-1.551l.015-7.629a8.824,8.824,0,0,1-1.45.946,3.018,3.018,0,0,1-.428.221c-.164.074-.326.149-.5.221a10.971,10.971,0,0,1-1.065.355C593.8,157.7,586.037,150.889,585.623,150.52Z" transform="translate(-574.629 -114.946)" fill="#d69270"/>
                  <path id="Trazado_909254" data-name="Trazado 909254" d="M579.757,141.214a4.235,4.235,0,0,1,2.365-3.04,3.788,3.788,0,0,1,1.155-.371,3.9,3.9,0,0,1,1.444.041l1.925-9.889.536-2.806.055-.5a154.419,154.419,0,0,1,20.08,4.044c3.961,1.073,7.606,2.228,10.906,3.4l-.77,4.374-.619,3.493-1.568,8.94-.743,4.181a25.07,25.07,0,0,0-3.383-4.594,11.372,11.372,0,0,0-5.57-3.081,12.055,12.055,0,0,0-3.755-.358,13.723,13.723,0,0,0-7.743,3.218,5.535,5.535,0,0,1-5.859,1.375c-.811-.248-1.9-1.224-2.874-1.623l.234-2.132a4.407,4.407,0,0,1-1.651.316A4.231,4.231,0,0,1,579.757,141.214Zm29.57-1a1.826,1.826,0,0,0,1.829-1.815,1.8,1.8,0,0,0-1.829-1.829,1.822,1.822,0,1,0,0,3.645ZM595.656,139.1a1.822,1.822,0,1,0-1.843-1.815A1.825,1.825,0,0,0,595.656,139.1Z" transform="translate(-579.69 -124.655)" fill="#fcbe95"/>
                </g>
                <g id="Grupo_1117831" data-name="Grupo 1117831" transform="translate(2.02 7.96)">
                  <path id="Trazado_909255" data-name="Trazado 909255" d="M588.5,154.671c.414.369,8.175,7.185,15.936,5.085a10.966,10.966,0,0,0,1.064-.355,3.722,3.722,0,0,0,.5-.221,4.028,4.028,0,0,0,.428-.221,8.823,8.823,0,0,0,1.45-.946c.1-.089.206-.162.309-.267.177-.147.341-.3.5-.458a7.922,7.922,0,0,0,.931-1.065,4.813,4.813,0,0,0,.385-.532c.014-.029.044-.059.059-.088.118-.177.237-.37.34-.563a9.942,9.942,0,0,0,1.019-2.528,8.443,8.443,0,0,0,.193-.842l.725-4.14a25.087,25.087,0,0,0-3.386-4.6,11.334,11.334,0,0,0-5.573-3.075,12.079,12.079,0,0,0-3.755-.37,13.852,13.852,0,0,0-7.747,3.224,5.511,5.511,0,0,1-5.855,1.374c-.813-.25-1.891-1.227-2.868-1.626l-.784,7.332c1.6,1.745,3.8,2.78,5.471,4.407l.71.664A.683.683,0,0,1,588.5,154.671Z" transform="translate(-579.525 -126.384)" fill="#ed804a"/>
                  <path id="Trazado_909256" data-name="Trazado 909256" d="M596.6,132.5a1.826,1.826,0,1,0,1.833,1.833A1.833,1.833,0,0,0,596.6,132.5Z" transform="translate(-582.664 -128.995)"/>
                  <path id="Trazado_909257" data-name="Trazado 909257" d="M586.661,133.31a1.826,1.826,0,1,0,1.833,1.833,1.892,1.892,0,0,0-.311-1.034A1.855,1.855,0,0,0,586.661,133.31Z" transform="translate(-559.046 -128.692)"/>
                  <path id="Trazado_909258" data-name="Trazado 909258" d="M598.695,145.427a7.884,7.884,0,0,1-5.9,1.694,11.566,11.566,0,0,1-2.974-.934l-1.47-.745c-.484-.279-.971-.567-1.513-.813a15.531,15.531,0,0,0,1.069,1.388,15.951,15.951,0,0,0,1.33,1.165,7.972,7.972,0,0,0,3.349,1.4,6.085,6.085,0,0,0,3.647-.612A5.373,5.373,0,0,0,598.695,145.427Z" transform="translate(-572.01 -124.444)" fill="#c1581e"/>
                  <path id="Trazado_909259" data-name="Trazado 909259" d="M591.558,134.181a37.151,37.151,0,0,0-.132,6.014,54.871,54.871,0,0,0,.634,5.943l.607-.666a31.08,31.08,0,0,0-4.508.609,31.074,31.074,0,0,0,4.508.609.566.566,0,0,0,.608-.521v-.146a58.26,58.26,0,0,0-.479-5.957A34.077,34.077,0,0,0,591.558,134.181Z" transform="translate(-568.406 -128.365)" fill="#c1581e"/>
                  <path id="Trazado_909260" data-name="Trazado 909260" d="M590.961,134.1a4.744,4.744,0,0,0-1.494-1.831,5.935,5.935,0,0,0-2.173-1.051,4.983,4.983,0,0,0-2.452.011,4.048,4.048,0,0,0-2.054,1.216,21.539,21.539,0,0,1,2.191-.07,9.02,9.02,0,0,1,1.97.281A27.736,27.736,0,0,1,590.961,134.1Z" transform="translate(-558.708 -129.532)" fill="#7c4208"/>
                  <path id="Trazado_909261" data-name="Trazado 909261" d="M603.235,132.456a7.369,7.369,0,0,0-2.349-1.645A9.65,9.65,0,0,0,598.1,130a7.918,7.918,0,0,0-2.935.206,5.388,5.388,0,0,0-2.5,1.477,20.15,20.15,0,0,1,2.69-.34,17.872,17.872,0,0,1,2.573.124C599.651,131.675,601.349,132.093,603.235,132.456Z" transform="translate(-584.563 -129.953)" fill="#7c4208"/>
                  <path id="Trazado_909262" data-name="Trazado 909262" d="M607.057,139.632a3.205,3.205,0,0,0-.741-2.594,3.477,3.477,0,0,0-2.388-1.26,11.44,11.44,0,0,1,1.858,1.7A8.258,8.258,0,0,1,607.057,139.632Z" transform="translate(-603.928 -127.766)" fill="#b26b4d"/>
                </g>
                <path id="Trazado_909263" data-name="Trazado 909263" d="M587.62,124.165l.3,4.662c1.568-.234,3.026-.509,3.714-.578.481-.041.949-.083,1.417-.11a75.422,75.422,0,0,1,12.447.33c2.723.261,5.5.193,8.225.413a154.414,154.414,0,0,0-20.08-4.044C591.677,124.578,589.669,124.358,587.62,124.165Z" transform="translate(-586.095 -124.165)" opacity="0.44"/>
              </g>
            </g>
            <g id="Grupo_1117836" data-name="Grupo 1117836" transform="translate(112.532 145.538)">
              <g id="Grupo_1117834" data-name="Grupo 1117834" transform="translate(0 186.883)">
                <path id="Trazado_909264" data-name="Trazado 909264" d="M555.32,409.423l4.03-19.241,1.4-6.67a10.4,10.4,0,0,1,10.191-8.28h3.438l-5.8-22.432c-.853,0-1.774-.014-2.668-.055l-9.806.743-.55,39.143Z" transform="translate(-555.32 -352.594)" fill="#3a3a3a"/>
                <path id="Trazado_909265" data-name="Trazado 909265" d="M546.311,377.371l-5.426,25.917,5.573,2.35a33.982,33.982,0,0,0,28.682-1.065l4.657-2.4-5.752-25a10.408,10.408,0,0,0-10.156-8.087h-7.378A10.416,10.416,0,0,0,546.311,377.371Z" transform="translate(-540.881 -346.457)" fill="#686868"/>
                <path id="Trazado_909266" data-name="Trazado 909266" d="M550.28,352.841l5.8,22.432,5.749-20.6,1.183-.124a32.742,32.742,0,0,1-2.957-1.912h-4.332S553.278,352.841,550.28,352.841Z" transform="translate(-537.021 -352.635)" fill="#262626"/>
                <path id="Trazado_909267" data-name="Trazado 909267" d="M540.89,374.752h3.947a10.444,10.444,0,0,1,10.15,8.087l5.749,24.99-.619-44.507-.069-4.745a43.239,43.239,0,0,1-12.227-4.552l-1.183.124Z" transform="translate(-521.827 -352.113)" fill="#3a3a3a"/>
                <path id="Trazado_909268" data-name="Trazado 909268" d="M579.8,402.38c-1.342-7.193-2.843-14.35-4.365-21.5a40.106,40.106,0,0,0-1.334-5.422,11.093,11.093,0,0,0-8.844-6.775,22.691,22.691,0,0,0-2.824-.11l-2.741-.016-2.742.015a11.845,11.845,0,0,0-2.876.3,11.092,11.092,0,0,0-8.138,7.611c-.483,1.88-.748,3.609-1.11,5.427l-2.045,10.776c-.629,3.6-1.308,7.2-1.893,10.809.913-3.544,1.733-7.108,2.6-10.66l2.448-10.692c.425-1.752.788-3.63,1.22-5.288a9.82,9.82,0,0,1,2.73-4.28,9.67,9.67,0,0,1,4.495-2.323,10.306,10.306,0,0,1,2.566-.228l2.742.015,2.741-.016a21.361,21.361,0,0,1,2.652.065,9.632,9.632,0,0,1,4.7,1.872,9.809,9.809,0,0,1,3.136,3.994,16.363,16.363,0,0,1,.745,2.524l.663,2.661C576.082,388.23,577.86,395.325,579.8,402.38Z" transform="translate(-540.881 -346.659)" fill="#262626"/>
                <path id="Trazado_909269" data-name="Trazado 909269" d="M541.34,392.672c1.279-.8,2.531-1.637,3.8-2.448,1.568-1.018,3.136-2.022,4.745-2.984a125.509,125.509,0,0,0,16.408-11.732c3.989-3.273,7.826-6.739,11.47-10.233.413-.4,1-.894,1.637-1.43l-.069-4.745a43.241,43.241,0,0,1-12.227-4.552,32.716,32.716,0,0,1-2.957-1.912h-4.332s-2.448.206-5.446.206c-.853,0-1.774-.014-2.668-.055l-9.806.743Z" transform="translate(-541.106 -352.635)" opacity="0.3" style="mix-blend-mode: overlay;isolation: isolate"/>
              </g>
              <g id="Grupo_1117835" data-name="Grupo 1117835" transform="translate(17.182)">
                <path id="Trazado_909270" data-name="Trazado 909270" d="M555.862,216.949c-1.005,0-1.82,1.671-1.82,3.726s.814,3.711,1.82,3.711l.206-.015c.9-.206,1.612-1.788,1.612-3.7C557.68,218.62,556.866,216.949,555.862,216.949Z" transform="translate(-554.042 -216.682)" fill="#4f3209"/>
                <path id="Trazado_909271" data-name="Trazado 909271" d="M543.4,400.568h4.332l.206-2.847,4.594-62.95L557.786,263l2.035-27.934.33-4.552a2.175,2.175,0,0,1-2.1,1.6,1.758,1.758,0,0,1-.275-.014,2.142,2.142,0,0,1-1.884-2.283c.027-.385.055-.784.082-1.21l-.234-.014c-2.022-.289-3.108-1.843-3.686-3.658l-.041.963-.7,14.262-.839,16.931-.756,15.376-1.32,26.654-1.719,35.044-3.081,62.482Z" transform="translate(-541.878 -213.685)" fill="#765216"/>
                <path id="Trazado_909272" data-name="Trazado 909272" d="M549.886,224.443l1.21-.124,2.957-.289,3.356-.33h.014a21,21,0,0,1,.069-2.283,17.33,17.33,0,0,0-1.031-4.662h-.014l-4.085.165-1.087.041-1.6.055c1,0,1.815,1.678,1.815,3.727C551.5,222.655,550.78,224.237,549.886,224.443Z" transform="translate(-547.855 -216.755)" fill="#765216"/>
                <path id="Trazado_909273" data-name="Trazado 909273" d="M544.1,225.9l-.7,14.262c.688-.468,1.375-.963,2.091-1.444a68.764,68.764,0,0,1,6.423-3.645l.33-4.552a2.175,2.175,0,0,1-2.1,1.6,1.756,1.756,0,0,1-.275-.014,2.142,2.142,0,0,1-1.884-2.283c.028-.385.055-.784.082-1.21l-.234-.014c-2.022-.289-3.108-1.843-3.686-3.658Z" transform="translate(-533.969 -213.685)" opacity="0.3" style="mix-blend-mode: overlay;isolation: isolate"/>
                <path id="Trazado_909274" data-name="Trazado 909274" d="M550.739,219a11.292,11.292,0,0,1,.633,5.034l3.356-.33h.014a21.011,21.011,0,0,1,.069-2.283,17.332,17.332,0,0,0-1.032-4.662h-.014l-4.085.165A16.433,16.433,0,0,1,550.739,219Z" transform="translate(-545.173 -216.755)" opacity="0.3" style="mix-blend-mode: overlay;isolation: isolate"/>
              </g>
            </g>
            <g id="Grupo_1117837" data-name="Grupo 1117837" transform="translate(116.947 102.132)">
              <path id="Trazado_909275" data-name="Trazado 909275" d="M536.711,200.2a30.62,30.62,0,0,1,5.818,3.053,38.09,38.09,0,0,1,12.3,14.1,31.808,31.808,0,0,1,1.98,4.511v.014l.165.193a12.038,12.038,0,0,0-4.071,6.739l5.171-.206h.014a17.337,17.337,0,0,1,1.031,4.662,21.017,21.017,0,0,0-.069,2.283,15.315,15.315,0,0,0,.605,4.3c.578,1.815,1.664,3.37,3.686,3.658l.234.014c-.028.426-.055.825-.083,1.21a2.142,2.142,0,0,0,1.884,2.283,1.756,1.756,0,0,0,.275.014,2.175,2.175,0,0,0,2.1-1.6,45.114,45.114,0,0,0,1.087-4.951c2.132-.44,3.383-2.118,4.085-4.181,6.134-1.857,3.438-11.622,3.438-11.622,0-1.994-3.246-4.277-3.246-4.277l-.633-10.645a16.147,16.147,0,0,0-2.242-7.427c-4.154-6.877-11.814-13.341-15.115-15.94-.921-.729-1.5-1.155-1.568-1.2-4.594,1.444-11.952,4.827-15.253,12.076A15.942,15.942,0,0,1,536.711,200.2Z" transform="translate(-536.711 -185.195)" fill="#fcbe95"/>
              <path id="Trazado_909276" data-name="Trazado 909276" d="M555.6,221.808l-6.313.62c.7,4.731,6.891,4.643,6.891,4.643l.044-.961a15.252,15.252,0,0,1-.607-4.3Z" transform="translate(-533.286 -171.452)" fill="#d69270"/>
              <path id="Trazado_909277" data-name="Trazado 909277" d="M542.373,229.511a.741.741,0,0,0,.727-.616,31.956,31.956,0,0,0,.1-11.9.74.74,0,0,0-1.447.309,30.466,30.466,0,0,1-.109,11.341.74.74,0,0,0,.605.853A.768.768,0,0,0,542.373,229.511Z" transform="translate(-510.236 -173.478)" fill="#b26b4d"/>
              <path id="Trazado_909278" data-name="Trazado 909278" d="M546.245,232.274a.739.739,0,0,0,.738-.7c.322-5.536.546-13.616.549-13.7a.739.739,0,0,0-.719-.759h-.021a.737.737,0,0,0-.738.718c0,.081-.226,8.139-.546,13.653a.737.737,0,0,0,.694.78Z" transform="translate(-519.389 -173.211)" fill="#b26b4d"/>
              <path id="Trazado_909279" data-name="Trazado 909279" d="M539.186,225.811a.74.74,0,0,0,.7-.5c1.4-4.057.828-9.311.8-9.534a.727.727,0,0,0-.817-.651.738.738,0,0,0-.652.816c.005.051.556,5.148-.732,8.888a.737.737,0,0,0,.7.979Z" transform="translate(-502.971 -173.962)" fill="#b26b4d"/>
              <path id="Trazado_909280" data-name="Trazado 909280" d="M552.58,200.2a30.613,30.613,0,0,1,5.818,3.053c.261-.8.454-1.527.633-1.925a37.388,37.388,0,0,1,3.645-7.262c2.2-3.095,5.378-5.405,8.321-7.674-.921-.729-1.5-1.155-1.568-1.2-4.594,1.444-11.952,4.827-15.253,12.076A15.944,15.944,0,0,1,552.58,200.2Z" transform="translate(-552.58 -185.195)" fill="#d69270"/>
              <path id="Trazado_909281" data-name="Trazado 909281" d="M543.21,208.954a31.807,31.807,0,0,1,1.98,4.511,35.1,35.1,0,0,1,11.209-3.48c-2.063-1.293-5.213-2.627-8.1-2.393A10.934,10.934,0,0,0,543.21,208.954Z" transform="translate(-525.097 -176.798)" fill="#d69270"/>
              <path id="Trazado_909282" data-name="Trazado 909282" d="M546.482,213.821a.734.734,0,0,0,.476-.173,14.74,14.74,0,0,1,6.453-3.044.739.739,0,0,0-.226-1.461,16.034,16.034,0,0,0-7.178,3.372.739.739,0,0,0,.474,1.305Z" transform="translate(-526.219 -176.209)" fill="#b26b4d"/>
              <path id="Trazado_909283" data-name="Trazado 909283" d="M551.62,229.222a.716.716,0,0,0,.226-.036.739.739,0,0,0,.48-.928,14.582,14.582,0,0,1-.571-4.086,19.074,19.074,0,0,1,.069-2.2.634.634,0,0,0,0-.161,18.361,18.361,0,0,0-1.085-4.855,4.24,4.24,0,0,0-.708-1.232.74.74,0,0,0-1.086,1,3.4,3.4,0,0,1,.429.794,16.82,16.82,0,0,1,.972,4.378,21.428,21.428,0,0,0-.069,2.3,16.112,16.112,0,0,0,.64,4.51A.742.742,0,0,0,551.62,229.222Z" transform="translate(-528.682 -173.824)" fill="#b26b4d"/>
            </g>
            <g id="Grupo_1117838" data-name="Grupo 1117838" transform="translate(8.074 131.262)">
              <path id="Trazado_909284" data-name="Trazado 909284" d="M592.47,222.467a25.435,25.435,0,0,0,5.116,5.8c7.895,6.932,20.63,13.258,23.2,14.51a5.868,5.868,0,0,0,.908.4c1.6.591,3.108,1.114,4.525,1.568,22.583,7.331,22.583-.963,22.583-.963l-.014-.041c17.907-2.517,15.143-9.256,15.143-9.256a2.246,2.246,0,0,0,.908-2.338c-.055-.151-.11-.316-.179-.481a2.246,2.246,0,0,0-2.668-1.1l-7.936,2.627a26.333,26.333,0,0,1-6.849,1.65,13.173,13.173,0,0,1-6.34-.674l6.492-4.993a2.411,2.411,0,0,0-2.393-4.14l-12.351,5.1c-4.992-.426-9.421-3.2-13.135-6.726a48.214,48.214,0,0,1-5.529-6.368,62.545,62.545,0,0,1-4.167-6.478c-1.362-2.421-2.1-4.071-2.1-4.071l-.055-.124a4.789,4.789,0,0,0-2.558,2.049l-.151.014a10.612,10.612,0,0,1-1.2,7.042c-.715,1.2-1.76,2.462-3.191,2.627-1.389.151-2.311-.963-3.645-1C593.68,217.02,593.666,220.321,592.47,222.467Z" transform="translate(-592.47 -206.375)" fill="#fcbe95"/>
              <path id="Trazado_909285" data-name="Trazado 909285" d="M629.51,222.467a25.44,25.44,0,0,0,5.116,5.8c.179-.248.358-.5.536-.729a20.8,20.8,0,0,1,4.718-4.332,37.871,37.871,0,0,1,4.594-3.37c1.142-.591,2.448-.935,3.617-1.513.935-.454,1.939-.894,2.9-1.279a62.532,62.532,0,0,1-4.167-6.478c-1.362-2.421-2.1-4.071-2.1-4.071l-.055-.124a4.788,4.788,0,0,0-2.558,2.049l-.151.014a10.613,10.613,0,0,1-1.2,7.042c-.715,1.2-1.76,2.462-3.191,2.627-1.389.151-2.311-.963-3.645-1C630.72,217.02,630.707,220.321,629.51,222.467Z" transform="translate(-629.51 -206.375)" fill="#d69270"/>
              <path id="Trazado_909286" data-name="Trazado 909286" d="M596.441,232.6c5.917,0,11.162-2.987,14-4.98a.739.739,0,1,0-.85-1.209c-2.538,1.78-9.185,5.774-16.081,4.431a.739.739,0,1,0-.283,1.451A16.736,16.736,0,0,0,596.441,232.6Z" transform="translate(-538.554 -198.904)" fill="#b26b4d"/>
              <path id="Trazado_909287" data-name="Trazado 909287" d="M595.627,234.35c1.129-.117,2.188-.235,3.181-.366.479-.067.941-.138,1.389-.21,4.524-.736,7.974-1.824,10.256-3.233a.74.74,0,1,1,.777,1.258c-2.448,1.512-6.08,2.667-10.8,3.434-.458.074-.931.146-1.426.216-1.011.133-2.084.252-3.228.371a.739.739,0,1,1-.153-1.47Z" transform="translate(-542.585 -197.346)" fill="#b26b4d"/>
            </g>
          </g>
        </g>
      </g>
    </g>
  </g>
</svg>
