<svg xmlns="http://www.w3.org/2000/svg" xmlns:xlink="http://www.w3.org/1999/xlink" width="117.999" height="118" viewBox="0 0 117.999 118">
  <defs>
    <filter id="Trazado_874925" x="-0.001" y="0" width="117.999" height="118" filterUnits="userSpaceOnUse">
      <feOffset dy="3" input="SourceAlpha"/>
      <feGaussianBlur stdDeviation="3" result="blur"/>
      <feFlood flood-opacity="0.161"/>
      <feComposite operator="in" in2="blur"/>
      <feComposite in="SourceGraphic"/>
    </filter>
  </defs>
  <g id="Grupo_1119541" data-name="Grupo 1119541" transform="translate(-11209.001 7325)">
    <g id="Grupo_1111553" data-name="Grupo 1111553" transform="translate(10409.5 -9836.157)">
      <g id="Grupo_1111316" data-name="Grupo 1111316" transform="translate(808.5 2517.157)">
        <g id="Grupo_1109835" data-name="Grupo 1109835" transform="translate(0 0)">
          <g id="Grupo_1107913" data-name="Grupo 1107913" transform="translate(0 0)">
            <g transform="matrix(1, 0, 0, 1, -9, -6)" filter="url(#Trazado_874925)">
              <g id="Trazado_874925-2" data-name="Trazado 874925" transform="translate(9 6)" fill="#9cc8ff" opacity="0.859">
                <path d="M 49.99972534179688 98.4998779296875 C 43.45164108276367 98.4998779296875 37.10022354125977 97.21776580810547 31.12189674377441 94.68914794921875 C 25.34676742553711 92.24647521972656 20.15985298156738 88.74925994873047 15.70523929595947 84.29464721679688 C 11.25062561035156 79.84004974365234 7.753411293029785 74.65313720703125 5.310725212097168 68.87800598144531 C 2.782111167907715 62.89969253540039 1.499996781349182 56.54829406738281 1.499996781349182 50.00022125244141 C 1.499996781349182 43.45157623291016 2.782111167907715 37.10017776489258 5.310725212097168 31.12186431884766 C 7.753411293029785 25.34673500061035 11.25062561035156 20.15983581542969 15.70523929595947 15.70522117614746 C 20.15985298156738 11.25062084197998 25.34676742553711 7.753406524658203 31.12189674377441 5.31073522567749 C 37.10022354125977 2.782120943069458 43.45164108276367 1.500006556510925 49.99972534179688 1.500006556510925 C 56.54780960083008 1.500006556510925 62.89922714233398 2.782120943069458 68.87755584716797 5.31073522567749 C 74.65267944335938 7.753406524658203 79.839599609375 11.25062084197998 84.29421234130859 15.70522117614746 C 88.74882507324219 20.15983581542969 92.24604034423828 25.34673500061035 94.68872833251953 31.12186431884766 C 97.21733856201172 37.10017776489258 98.49945068359375 43.45157623291016 98.49945068359375 49.99964904785156 C 98.49945068359375 56.54829406738281 97.21733856201172 62.89969253540039 94.68872833251953 68.87800598144531 C 92.24604034423828 74.65313720703125 88.74882507324219 79.84004974365234 84.29421234130859 84.29464721679688 C 79.839599609375 88.74925994873047 74.65267944335938 92.24647521972656 68.87755584716797 94.68914794921875 C 62.89922714233398 97.21776580810547 56.54780960083008 98.4998779296875 49.99972534179688 98.4998779296875 Z" stroke="none"/>
                <path d="M 49.99972534179688 3 C 43.65348052978516 3 37.49866485595703 4.242240905761719 31.70623016357422 6.692230224609375 C 26.10989379882812 9.059272766113281 21.08323669433594 12.44853210449219 16.76589202880859 16.76587677001953 C 12.44855499267578 21.08321380615234 9.059295654296875 26.10985565185547 6.692230224609375 31.70618438720703 C 4.24224853515625 37.49859619140625 3 43.65341186523438 3 50.00022888183594 C 3 56.34645843505859 4.24224853515625 62.50127410888672 6.692230224609375 68.29368591308594 C 9.059295654296875 73.8900146484375 12.44855499267578 78.91665649414062 16.76589202880859 83.23399353027344 C 21.08323669433594 87.55132293701172 26.10989379882812 90.94059753417969 31.70623016357422 93.30764007568359 C 37.49866485595703 95.75762939453125 43.65348052978516 96.99987030029297 49.99972534179688 96.99987030029297 C 56.34597015380859 96.99987030029297 62.50078582763672 95.75762939453125 68.293212890625 93.30764007568359 C 73.88955688476562 90.94059753417969 78.91621398925781 87.55132293701172 83.23355865478516 83.23399353027344 C 87.55089569091797 78.91665649414062 90.94015502929688 73.8900146484375 93.30722045898438 68.29368591308594 C 95.7572021484375 62.50127410888672 96.99945068359375 56.34645843505859 96.99945068359375 49.99964141845703 C 96.99945068359375 43.65341186523438 95.7572021484375 37.49859619140625 93.30722045898438 31.70618438720703 C 90.94015502929688 26.10985565185547 87.55089569091797 21.08321380615234 83.23355865478516 16.76587677001953 C 78.91621398925781 12.44853210449219 73.88955688476562 9.059272766113281 68.293212890625 6.692230224609375 C 62.50078582763672 4.242240905761719 56.34597015380859 3 49.99972534179688 3 M 49.99972534179688 0 C 77.61381530761719 0 99.99945068359375 22.38559722900391 99.99945068359375 49.99964141845703 L 99.99945068359375 50.00022888183594 C 99.99945068359375 77.6142578125 77.61381530761719 99.99987030029297 49.99972534179688 99.99987030029297 C 22.38563537597656 99.99987030029297 0 77.6142578125 0 50.00022888183594 L 0 49.99964141845703 C 0 22.38559722900391 22.38563537597656 0 49.99972534179688 0 Z" stroke="none" fill="#fff"/>
              </g>
            </g>
            <g id="Trazado_874923" data-name="Trazado 874923" transform="translate(0 0)" fill="none">
              <path d="M50,0a50,50,0,0,1,50,50h0A50,50,0,0,1,0,50H0A50,50,0,0,1,50,0Z" stroke="none"/>
              <path d="M 49.99972534179688 3 C 43.65348052978516 3 37.49866485595703 4.242240905761719 31.70623016357422 6.692230224609375 C 26.10989379882812 9.059272766113281 21.08323669433594 12.44853210449219 16.76589202880859 16.76587677001953 C 12.44855499267578 21.08321380615234 9.059295654296875 26.10985565185547 6.692230224609375 31.70618438720703 C 4.24224853515625 37.49859619140625 3 43.65341186523438 3 50.00022888183594 C 3 56.34645843505859 4.24224853515625 62.50127410888672 6.692230224609375 68.29368591308594 C 9.059295654296875 73.8900146484375 12.44855499267578 78.91665649414062 16.76589202880859 83.23399353027344 C 21.08323669433594 87.55132293701172 26.10989379882812 90.94059753417969 31.70623016357422 93.30764007568359 C 37.49866485595703 95.75762939453125 43.65348052978516 96.99987030029297 49.99972534179688 96.99987030029297 C 56.34597015380859 96.99987030029297 62.50078582763672 95.75762939453125 68.293212890625 93.30764007568359 C 73.88955688476562 90.94059753417969 78.91621398925781 87.55132293701172 83.23355865478516 83.23399353027344 C 87.55089569091797 78.91665649414062 90.94015502929688 73.8900146484375 93.30722045898438 68.29368591308594 C 95.7572021484375 62.50127410888672 96.99945068359375 56.34645843505859 96.99945068359375 49.99964141845703 C 96.99945068359375 43.65341186523438 95.7572021484375 37.49859619140625 93.30722045898438 31.70618438720703 C 90.94015502929688 26.10985565185547 87.55089569091797 21.08321380615234 83.23355865478516 16.76587677001953 C 78.91621398925781 12.44853210449219 73.88955688476562 9.059272766113281 68.293212890625 6.692230224609375 C 62.50078582763672 4.242240905761719 56.34597015380859 3 49.99972534179688 3 M 49.99972534179688 0 C 77.61381530761719 0 99.99945068359375 22.38559722900391 99.99945068359375 49.99964141845703 L 99.99945068359375 50.00022888183594 C 99.99945068359375 77.6142578125 77.61381530761719 99.99987030029297 49.99972534179688 99.99987030029297 C 22.38563537597656 99.99987030029297 0 77.6142578125 0 50.00022888183594 L 0 49.99964141845703 C 0 22.38559722900391 22.38563537597656 0 49.99972534179688 0 Z" stroke="none" fill="#fff"/>
            </g>
          </g>
        </g>
      </g>
    </g>
    <g id="Grupo_1119540" data-name="Grupo 1119540" transform="translate(11201.634 -7306)">
      <g id="Grupo_1119514" data-name="Grupo 1119514" transform="translate(50.235 1.025)">
        <path id="Trazado_917419" data-name="Trazado 917419" d="M137.811,7.5h32.316V25.729H137.811Z" transform="translate(-137.811 -7.5)" fill="#fce25c"/>
      </g>
      <g id="Grupo_1119515" data-name="Grupo 1119515" transform="translate(40.153 22.569)">
        <path id="Trazado_917420" data-name="Trazado 917420" d="M64.069,165.085h52.478v4.143H64.069Z" transform="translate(-64.069 -165.085)" fill="#554e57"/>
      </g>
      <g id="Grupo_1119516" data-name="Grupo 1119516" transform="translate(89.731 22.569)">
        <path id="Trazado_917421" data-name="Trazado 917421" d="M426.717,165.085h2.9v4.143h-2.9Z" transform="translate(-426.717 -165.085)" fill="#453e43"/>
      </g>
      <g id="Grupo_1119517" data-name="Grupo 1119517" transform="translate(40.153 26.712)">
        <path id="Trazado_917422" data-name="Trazado 917422" d="M64.069,195.39h52.478v38.116H64.069Z" transform="translate(-64.069 -195.39)" fill="#eff3f5"/>
      </g>
      <g id="Grupo_1119518" data-name="Grupo 1119518" transform="translate(89.731 26.712)">
        <path id="Trazado_917423" data-name="Trazado 917423" d="M426.717,195.39h2.9v38.116h-2.9Z" transform="translate(-426.717 -195.39)" fill="#c9e2e7"/>
      </g>
      <g id="Grupo_1119519" data-name="Grupo 1119519" transform="translate(37.391 64.828)">
        <path id="Trazado_917424" data-name="Trazado 917424" d="M43.866,474.2h58v4.143h-58Z" transform="translate(-43.866 -474.195)" fill="#554e57"/>
      </g>
      <g id="Grupo_1119520" data-name="Grupo 1119520" transform="translate(90.698 64.828)">
        <path id="Trazado_917425" data-name="Trazado 917425" d="M433.789,474.2h4.7v4.143h-4.7Z" transform="translate(-433.789 -474.195)" fill="#453e43"/>
      </g>
      <g id="Grupo_1119521" data-name="Grupo 1119521" transform="translate(44.296 30.855)">
        <path id="Trazado_917426" data-name="Trazado 917426" d="M94.374,225.7h4.143v6.629H94.374Z" transform="translate(-94.374 -225.695)" fill="#62b4fd"/>
      </g>
      <g id="Grupo_1119522" data-name="Grupo 1119522" transform="translate(52.306 30.855)">
        <path id="Trazado_917427" data-name="Trazado 917427" d="M152.963,225.7h4.143v6.629h-4.143Z" transform="translate(-152.963 -225.695)" fill="#62b4fd"/>
      </g>
      <g id="Grupo_1119523" data-name="Grupo 1119523" transform="translate(60.316 30.855)">
        <path id="Trazado_917428" data-name="Trazado 917428" d="M211.553,225.7H215.7v6.629h-4.143Z" transform="translate(-211.553 -225.695)" fill="#62b4fd"/>
      </g>
      <g id="Grupo_1119524" data-name="Grupo 1119524" transform="translate(68.326 30.855)">
        <path id="Trazado_917429" data-name="Trazado 917429" d="M270.142,225.7h4.143v6.629h-4.143Z" transform="translate(-270.142 -225.695)" fill="#62b4fd"/>
      </g>
      <g id="Grupo_1119525" data-name="Grupo 1119525" transform="translate(76.336 30.855)">
        <path id="Trazado_917430" data-name="Trazado 917430" d="M328.732,225.7h4.143v6.629h-4.143Z" transform="translate(-328.732 -225.695)" fill="#62b4fd"/>
      </g>
      <g id="Grupo_1119526" data-name="Grupo 1119526" transform="translate(84.345 30.855)">
        <path id="Trazado_917431" data-name="Trazado 917431" d="M387.321,225.7h4.143v6.629h-4.143Z" transform="translate(-387.321 -225.695)" fill="#62b4fd"/>
      </g>
      <g id="Grupo_1119527" data-name="Grupo 1119527" transform="translate(44.296 41.627)">
        <path id="Trazado_917432" data-name="Trazado 917432" d="M94.374,304.488h4.143v6.629H94.374Z" transform="translate(-94.374 -304.488)" fill="#62b4fd"/>
      </g>
      <g id="Grupo_1119528" data-name="Grupo 1119528" transform="translate(52.306 41.627)">
        <path id="Trazado_917433" data-name="Trazado 917433" d="M152.963,304.488h4.143v6.629h-4.143Z" transform="translate(-152.963 -304.488)" fill="#62b4fd"/>
      </g>
      <g id="Grupo_1119529" data-name="Grupo 1119529" transform="translate(60.316 41.627)">
        <path id="Trazado_917434" data-name="Trazado 917434" d="M211.553,304.488H215.7v6.629h-4.143Z" transform="translate(-211.553 -304.488)" fill="#62b4fd"/>
      </g>
      <g id="Grupo_1119530" data-name="Grupo 1119530" transform="translate(68.326 41.627)">
        <path id="Trazado_917435" data-name="Trazado 917435" d="M270.142,304.488h4.143v6.629h-4.143Z" transform="translate(-270.142 -304.488)" fill="#62b4fd"/>
      </g>
      <g id="Grupo_1119531" data-name="Grupo 1119531" transform="translate(76.336 41.627)">
        <path id="Trazado_917436" data-name="Trazado 917436" d="M328.732,304.488h4.143v6.629h-4.143Z" transform="translate(-328.732 -304.488)" fill="#62b4fd"/>
      </g>
      <g id="Grupo_1119532" data-name="Grupo 1119532" transform="translate(84.345 41.627)">
        <path id="Trazado_917437" data-name="Trazado 917437" d="M387.321,304.488h4.143v6.629h-4.143Z" transform="translate(-387.321 -304.488)" fill="#62b4fd"/>
      </g>
      <g id="Grupo_1119533" data-name="Grupo 1119533" transform="translate(44.296 52.399)">
        <path id="Trazado_917438" data-name="Trazado 917438" d="M94.374,383.28h4.143v6.629H94.374Z" transform="translate(-94.374 -383.28)" fill="#62b4fd"/>
      </g>
      <g id="Grupo_1119534" data-name="Grupo 1119534" transform="translate(52.306 52.399)">
        <path id="Trazado_917439" data-name="Trazado 917439" d="M152.963,383.28h4.143v6.629h-4.143Z" transform="translate(-152.963 -383.28)" fill="#62b4fd"/>
      </g>
      <g id="Grupo_1119535" data-name="Grupo 1119535" transform="translate(60.316 52.399)">
        <path id="Trazado_917440" data-name="Trazado 917440" d="M211.553,383.28h6.076v12.429h-6.076Z" transform="translate(-211.553 -383.28)" fill="#d57e4b"/>
      </g>
      <g id="Grupo_1119536" data-name="Grupo 1119536" transform="translate(76.336 52.399)">
        <path id="Trazado_917441" data-name="Trazado 917441" d="M328.732,383.28h4.143v6.629h-4.143Z" transform="translate(-328.732 -383.28)" fill="#62b4fd"/>
      </g>
      <g id="Grupo_1119537" data-name="Grupo 1119537" transform="translate(84.345 52.399)">
        <path id="Trazado_917442" data-name="Trazado 917442" d="M387.321,383.28h4.143v6.629h-4.143Z" transform="translate(-387.321 -383.28)" fill="#62b4fd"/>
      </g>
      <g id="Grupo_1119538" data-name="Grupo 1119538" transform="translate(66.392 52.399)">
        <path id="Trazado_917443" data-name="Trazado 917443" d="M0,0H6.076V12.429H0Z" transform="translate(6.076 12.429) rotate(180)" fill="#d57e4b"/>
      </g>
      <g id="Grupo_1119539" data-name="Grupo 1119539" transform="translate(36.366 0)">
        <path id="Trazado_917444" data-name="Trazado 917444" d="M57.5,51.789h0a1.025,1.025,0,0,0,1.025-1.025l.012-23.027h50.428V31.51a1.025,1.025,0,0,0,2.051,0V22.569a1.025,1.025,0,0,0-1.025-1.025H98.038V20.28h1.875a1.025,1.025,0,0,0,1.025-1.025V13.041a1.025,1.025,0,0,0-2.051,0v5.188H68.622V2.051H98.887v6.2a1.025,1.025,0,0,0,2.051,0V1.025A1.025,1.025,0,0,0,99.913,0H67.6a1.025,1.025,0,0,0-1.025,1.025V19.255A1.025,1.025,0,0,0,67.6,20.28h1.875v1.264H57.516a1.025,1.025,0,0,0-1.025,1.025l-.012,28.194A1.025,1.025,0,0,0,57.5,51.789ZM95.987,21.544h-1.54V20.28h1.54Zm-20.874,0V20.28H92.4v1.264ZM71.523,20.28h1.54v1.264h-1.54ZM58.541,23.594h50.427v2.093H58.541Z" transform="translate(-53.728 0)"/>
        <path id="Trazado_917445" data-name="Trazado 917445" d="M95.394,286.654H93.657V259.168a1.025,1.025,0,0,0-2.051,0v27.486H73.494v-11.4a1.025,1.025,0,0,0-1.025-1.025H60.316a1.025,1.025,0,0,0-1.025,1.025v11.4H41.179V278.43a1.025,1.025,0,0,0-2.051,0v8.224H37.391a1.025,1.025,0,0,0-1.025,1.025v4.143a1.025,1.025,0,0,0,1.025,1.025h58a1.025,1.025,0,0,0,1.025-1.025V287.68A1.026,1.026,0,0,0,95.394,286.654Zm-23.95,0H67.418V276.276h4.026Zm-10.1-10.378h4.026v10.378H61.341ZM94.368,290.8H38.417v-2.092H94.368V290.8Z" transform="translate(-36.366 -222.852)"/>
        <path id="Trazado_917446" data-name="Trazado 917446" d="M163.124,39.364a1.025,1.025,0,0,0,1.025-1.025V27.29a1.025,1.025,0,1,0-2.051,0V33.1l-3.473-3.473V27.29a1.025,1.025,0,0,0-2.051,0V38.338a1.025,1.025,0,1,0,2.051,0V32.528L162.1,36v2.337A1.025,1.025,0,0,0,163.124,39.364Z" transform="translate(-131.244 -22.674)"/>
        <path id="Trazado_917447" data-name="Trazado 917447" d="M234.846,30.525a1.025,1.025,0,0,0,1.025-1.025V27.29a1.025,1.025,0,0,0-1.025-1.025h-5.524A1.025,1.025,0,0,0,228.3,27.29V38.338a1.025,1.025,0,0,0,1.025,1.025h5.524a1.025,1.025,0,0,0,1.025-1.025V33.5a1.025,1.025,0,0,0-1.025-1.025h-1.933a1.025,1.025,0,0,0,0,2.051h.908v2.783h-3.473v-9h3.473V29.5A1.025,1.025,0,0,0,234.846,30.525Z" transform="translate(-193.14 -22.674)"/>
        <path id="Trazado_917448" data-name="Trazado 917448" d="M301.043,26.265a1.025,1.025,0,0,0-1.025,1.025V38.338a1.025,1.025,0,0,0,1.025,1.025h5.524a1.025,1.025,0,0,0,1.025-1.025V27.29a1.025,1.025,0,0,0-1.025-1.025Zm4.5,11.048h-3.473v-9h3.473Z" transform="translate(-283.761 -22.674)"/>
        <path id="Trazado_917449" data-name="Trazado 917449" d="M93.068,219.22a1.025,1.025,0,0,0-1.025-1.025H87.9a1.025,1.025,0,0,0-1.025,1.025v6.629a1.025,1.025,0,0,0,1.025,1.025h4.143a1.025,1.025,0,0,0,1.025-1.025Zm-2.051,5.6H88.925v-4.578h2.092Z" transform="translate(-79.969 -188.365)"/>
        <path id="Trazado_917450" data-name="Trazado 917450" d="M151.657,219.22a1.025,1.025,0,0,0-1.025-1.025h-4.143a1.025,1.025,0,0,0-1.025,1.025v6.629a1.025,1.025,0,0,0,1.025,1.025h4.143a1.025,1.025,0,0,0,1.025-1.025Zm-2.051,5.6h-2.092v-4.578h2.092Z" transform="translate(-130.548 -188.365)"/>
        <path id="Trazado_917451" data-name="Trazado 917451" d="M210.247,219.22a1.025,1.025,0,0,0-1.025-1.025h-4.143a1.025,1.025,0,0,0-1.025,1.025v6.629a1.025,1.025,0,0,0,1.025,1.025h4.143a1.025,1.025,0,0,0,1.025-1.025Zm-2.051,5.6H206.1v-4.578H208.2Z" transform="translate(-181.128 -188.365)"/>
        <path id="Trazado_917452" data-name="Trazado 917452" d="M268.836,219.22a1.025,1.025,0,0,0-1.025-1.025h-4.143a1.025,1.025,0,0,0-1.025,1.025v6.629a1.025,1.025,0,0,0,1.025,1.025h4.143a1.025,1.025,0,0,0,1.025-1.025Zm-2.051,5.6h-2.092v-4.578h2.092Z" transform="translate(-231.708 -188.365)"/>
        <path id="Trazado_917453" data-name="Trazado 917453" d="M327.426,219.22A1.025,1.025,0,0,0,326.4,218.2h-4.143a1.025,1.025,0,0,0-1.025,1.025v6.629a1.025,1.025,0,0,0,1.025,1.025H326.4a1.025,1.025,0,0,0,1.025-1.025Zm-2.051,5.6h-2.092v-4.578h2.092Z" transform="translate(-282.288 -188.365)"/>
        <path id="Trazado_917454" data-name="Trazado 917454" d="M386.015,219.22a1.025,1.025,0,0,0-1.025-1.025h-4.143a1.025,1.025,0,0,0-1.025,1.025v6.629a1.025,1.025,0,0,0,1.025,1.025h4.143a1.025,1.025,0,0,0,1.025-1.025Zm-2.051,5.6h-2.092v-4.578h2.092Z" transform="translate(-332.867 -188.365)"/>
        <path id="Trazado_917455" data-name="Trazado 917455" d="M93.068,298.013a1.025,1.025,0,0,0-1.025-1.025H87.9a1.025,1.025,0,0,0-1.025,1.025v6.629a1.025,1.025,0,0,0,1.025,1.025h4.143a1.025,1.025,0,0,0,1.025-1.025Zm-2.051,5.6H88.925v-4.578h2.092Z" transform="translate(-79.969 -256.386)"/>
        <path id="Trazado_917456" data-name="Trazado 917456" d="M151.657,298.013a1.025,1.025,0,0,0-1.025-1.025h-4.143a1.025,1.025,0,0,0-1.025,1.025v6.629a1.025,1.025,0,0,0,1.025,1.025h4.143a1.025,1.025,0,0,0,1.025-1.025Zm-2.051,5.6h-2.092v-4.578h2.092Z" transform="translate(-130.548 -256.386)"/>
        <path id="Trazado_917457" data-name="Trazado 917457" d="M209.221,296.988h-4.143a1.025,1.025,0,0,0-1.025,1.025v6.629a1.025,1.025,0,0,0,1.025,1.025h4.143a1.025,1.025,0,0,0,1.025-1.025v-6.629A1.025,1.025,0,0,0,209.221,296.988Zm-1.025,6.629H206.1v-4.578H208.2Z" transform="translate(-181.128 -256.386)"/>
        <path id="Trazado_917458" data-name="Trazado 917458" d="M267.81,296.988h-4.143a1.025,1.025,0,0,0-1.025,1.025v6.629a1.025,1.025,0,0,0,1.025,1.025h4.143a1.025,1.025,0,0,0,1.025-1.025v-6.629A1.025,1.025,0,0,0,267.81,296.988Zm-1.025,6.629h-2.092v-4.578h2.092Z" transform="translate(-231.708 -256.386)"/>
        <path id="Trazado_917459" data-name="Trazado 917459" d="M327.426,298.013a1.025,1.025,0,0,0-1.025-1.025h-4.143a1.025,1.025,0,0,0-1.025,1.025v6.629a1.025,1.025,0,0,0,1.025,1.025H326.4a1.025,1.025,0,0,0,1.025-1.025Zm-2.051,5.6h-2.092v-4.578h2.092Z" transform="translate(-282.288 -256.386)"/>
        <path id="Trazado_917460" data-name="Trazado 917460" d="M386.015,298.013a1.025,1.025,0,0,0-1.025-1.025h-4.143a1.025,1.025,0,0,0-1.025,1.025v6.629a1.025,1.025,0,0,0,1.025,1.025h4.143a1.025,1.025,0,0,0,1.025-1.025Zm-2.051,5.6h-2.092v-4.578h2.092Z" transform="translate(-332.867 -256.386)"/>
        <path id="Trazado_917461" data-name="Trazado 917461" d="M92.042,375.78H87.9a1.025,1.025,0,0,0-1.025,1.025v6.629A1.025,1.025,0,0,0,87.9,384.46h4.143a1.025,1.025,0,0,0,1.025-1.025v-6.629A1.025,1.025,0,0,0,92.042,375.78Zm-1.025,6.629H88.925v-4.578h2.092Z" transform="translate(-79.969 -324.407)"/>
        <path id="Trazado_917462" data-name="Trazado 917462" d="M150.631,375.78h-4.143a1.025,1.025,0,0,0-1.025,1.025v6.629a1.025,1.025,0,0,0,1.025,1.025h4.143a1.025,1.025,0,0,0,1.025-1.025v-6.629A1.025,1.025,0,0,0,150.631,375.78Zm-1.025,6.629h-2.092v-4.578h2.092Z" transform="translate(-130.548 -324.407)"/>
        <path id="Trazado_917463" data-name="Trazado 917463" d="M326.4,375.78h-4.143a1.025,1.025,0,0,0-1.025,1.025v6.629a1.025,1.025,0,0,0,1.025,1.025H326.4a1.025,1.025,0,0,0,1.025-1.025v-6.629A1.025,1.025,0,0,0,326.4,375.78Zm-1.025,6.629h-2.092v-4.578h2.092Z" transform="translate(-282.288 -324.407)"/>
        <path id="Trazado_917464" data-name="Trazado 917464" d="M384.989,375.78h-4.143a1.025,1.025,0,0,0-1.025,1.025v6.629a1.025,1.025,0,0,0,1.025,1.025h4.143a1.025,1.025,0,0,0,1.025-1.025v-6.629A1.025,1.025,0,0,0,384.989,375.78Zm-1.025,6.629h-2.092v-4.578h2.092Z" transform="translate(-332.867 -324.407)"/>
      </g>
    </g>
  </g>
</svg>
