<svg xmlns="http://www.w3.org/2000/svg" xmlns:xlink="http://www.w3.org/1999/xlink" width="288" height="286.874" viewBox="0 0 288 286.874">
  <defs>
    <filter id="Rectángulo_404882" x="0" y="0" width="288" height="286.874" filterUnits="userSpaceOnUse">
      <feOffset dx="6" dy="7" input="SourceAlpha"/>
      <feGaussianBlur stdDeviation="3" result="blur"/>
      <feFlood flood-opacity="0.161"/>
      <feComposite operator="in" in2="blur"/>
      <feComposite in="SourceGraphic"/>
    </filter>
    <clipPath id="clip-path">
      <rect id="Rectángulo_404877" data-name="Rectángulo 404877" width="270" height="268.874" rx="8" fill="#fff"/>
    </clipPath>
    <clipPath id="clip-path-2">
      <rect id="Rectángulo_404953" data-name="Rectángulo 404953" width="251.167" height="240.377" rx="8" transform="translate(180.051 6718.792)" fill="#d6edba"/>
    </clipPath>
    <clipPath id="clip-path-3">
      <path id="Trazado_908714" data-name="Trazado 908714" d="M4996.853,761.411c.987-2.006,3.164-2.407,4.745.89C4999.942,763.749,4997.479,763.394,4996.853,761.411Z" transform="translate(-4996.853 -759.863)" fill="#fff"/>
    </clipPath>
    <clipPath id="clip-path-4">
      <path id="Trazado_908718" data-name="Trazado 908718" d="M5044.191,756.306c-1.14-1.728-2.868-1.689-3.426,1.776A2.1,2.1,0,0,0,5044.191,756.306Z" transform="translate(-5040.765 -755.186)" fill="none"/>
    </clipPath>
  </defs>
  <g id="Grupo_1119268" data-name="Grupo 1119268" transform="translate(-622.051 -4637)">
    <g id="Grupo_1115652" data-name="Grupo 1115652" transform="translate(-10 -195.398)">
      <g id="Grupo_1114063" data-name="Grupo 1114063" transform="translate(635.051 4834.398)">
        <g transform="matrix(1, 0, 0, 1, -3, -2)" filter="url(#Rectángulo_404882)">
          <rect id="Rectángulo_404882-2" data-name="Rectángulo 404882" width="270" height="268.874" rx="8" transform="translate(3 2)" fill="#fff"/>
        </g>
      </g>
    </g>
    <g id="Enmascarar_grupo_1098786" data-name="Enmascarar grupo 1098786" transform="translate(454 -2065.792)" clip-path="url(#clip-path-2)">
      <g id="Grupo_1116170" data-name="Grupo 1116170" transform="translate(139.748 6718.792)">
        <g id="Grupo_1115788" data-name="Grupo 1115788" transform="translate(19.339 0)">
          <g id="Grupo_1115787" data-name="Grupo 1115787" transform="translate(0 0)">
            <path id="Trazado_908629" data-name="Trazado 908629" d="M4706.9,535.5c-146.235-1.179-219.4,173.356-98.867,186.9s134.079,13.543,157.1,41.307,104.283-26.41,93.449-82.615-86-22.347-94.8-46.048S4790.867,536.177,4706.9,535.5Z" transform="translate(-4547.482 -535.494)" fill="#ffead9"/>
          </g>
        </g>
        <g id="Grupo_1115798" data-name="Grupo 1115798" transform="translate(142.482 6.282)">
          <g id="Grupo_1115791" data-name="Grupo 1115791" transform="translate(0 0.139)">
            <g id="Grupo_1115790" data-name="Grupo 1115790">
              <g id="Grupo_1115789" data-name="Grupo 1115789">
                <path id="Trazado_908630" data-name="Trazado 908630" d="M5338.763,574.43a44.6,44.6,0,1,0,44.6,44.6A44.6,44.6,0,0,0,5338.763,574.43Zm0,58.141a13.54,13.54,0,1,1,13.54-13.54A13.54,13.54,0,0,1,5338.763,632.571Z" transform="translate(-5294.162 -574.43)" fill="#e2e9fb"/>
              </g>
            </g>
          </g>
          <g id="Grupo_1115793" data-name="Grupo 1115793" transform="translate(47.443 1.291)">
            <g id="Grupo_1115792" data-name="Grupo 1115792">
              <path id="Trazado_908631" data-name="Trazado 908631" d="M5589.1,581.414l-7.271,30.209a13.557,13.557,0,0,1,8.708,6.174l26.8-15.714A44.666,44.666,0,0,0,5589.1,581.414Z" transform="translate(-5581.834 -581.414)" fill="#e9595c"/>
            </g>
          </g>
          <g id="Grupo_1115795" data-name="Grupo 1115795" transform="translate(2.689 21.96)">
            <g id="Grupo_1115794" data-name="Grupo 1115794">
              <path id="Trazado_908632" data-name="Trazado 908632" d="M5352.377,774.124a44.607,44.607,0,0,0,38.349-67.381l-26.8,15.714a13.542,13.542,0,1,1-24.324,11.568l-29.14,10.783A44.619,44.619,0,0,0,5352.377,774.124Z" transform="translate(-5310.464 -706.743)" fill="#ffcc63"/>
            </g>
          </g>
          <g id="Grupo_1115797" data-name="Grupo 1115797" transform="translate(0.307 0)">
            <g id="Grupo_1115796" data-name="Grupo 1115796">
              <path id="Trazado_908633" data-name="Trazado 908633" d="M5340.317,632.006A13.679,13.679,0,1,1,5354,618.327,13.694,13.694,0,0,1,5340.317,632.006Zm0-27.079a13.4,13.4,0,1,0,13.4,13.4A13.416,13.416,0,0,0,5340.317,604.926Zm-44.154,7.207h-.021a.139.139,0,0,1-.117-.157,44.75,44.75,0,0,1,84.249-13.8.139.139,0,0,1-.248.125,44.474,44.474,0,0,0-83.726,13.713A.139.139,0,0,1,5296.163,612.134Z" transform="translate(-5296.024 -573.587)" fill="#451d26"/>
            </g>
          </g>
        </g>
        <g id="Grupo_1115807" data-name="Grupo 1115807" transform="translate(6.257 86.308)">
          <g id="Grupo_1115800" data-name="Grupo 1115800" transform="translate(13.86 17.506)">
            <g id="Grupo_1115799" data-name="Grupo 1115799">
              <path id="Trazado_908634" data-name="Trazado 908634" d="M4552.2,1172.966l1.809-1.808,11.832,11.832v-18.025h2.557v35.405h-2.557v-13.763Z" transform="translate(-4552.203 -1164.965)" fill="#824648"/>
            </g>
          </g>
          <g id="Grupo_1115802" data-name="Grupo 1115802" transform="translate(16.47)">
            <g id="Grupo_1115801" data-name="Grupo 1115801">
              <circle id="Elipse_11739" data-name="Elipse 11739" cx="13.743" cy="13.743" r="13.743" fill="#628056"/>
            </g>
          </g>
          <g id="Grupo_1115804" data-name="Grupo 1115804" transform="translate(0 6.145)">
            <g id="Grupo_1115803" data-name="Grupo 1115803" transform="translate(0 0)">
              <circle id="Elipse_11740" data-name="Elipse 11740" cx="9.909" cy="9.909" r="9.909" transform="translate(0 14.013) rotate(-45)" fill="#83a973"/>
            </g>
          </g>
          <g id="Grupo_1115806" data-name="Grupo 1115806" transform="translate(38.753 27.384)">
            <g id="Grupo_1115805" data-name="Grupo 1115805" transform="translate(0 0)">
              <circle id="Elipse_11741" data-name="Elipse 11741" cx="9.909" cy="9.909" r="9.909" transform="translate(0 4.553) rotate(-13.283)" fill="#628056"/>
            </g>
          </g>
        </g>
        <g id="Grupo_1115816" data-name="Grupo 1115816" transform="translate(113.191 91.529)">
          <g id="Grupo_1115809" data-name="Grupo 1115809" transform="translate(37.021 17.506)">
            <g id="Grupo_1115808" data-name="Grupo 1115808">
              <path id="Trazado_908635" data-name="Trazado 908635" d="M5357.23,1204.627l-1.809-1.808-11.831,11.832v-18.025h-2.558v35.405h2.558v-13.763Z" transform="translate(-5341.033 -1196.626)" fill="#824648"/>
            </g>
          </g>
          <g id="Grupo_1115811" data-name="Grupo 1115811" transform="translate(22.143 0)">
            <g id="Grupo_1115810" data-name="Grupo 1115810">
              <circle id="Elipse_11742" data-name="Elipse 11742" cx="13.743" cy="13.743" r="13.743" fill="#628056"/>
            </g>
          </g>
          <g id="Grupo_1115813" data-name="Grupo 1115813" transform="translate(39.053 6.145)">
            <g id="Grupo_1115812" data-name="Grupo 1115812" transform="translate(0 0)">
              <circle id="Elipse_11743" data-name="Elipse 11743" cx="9.909" cy="9.909" r="9.909" transform="translate(0 14.013) rotate(-45)" fill="#83a973"/>
            </g>
          </g>
          <g id="Grupo_1115815" data-name="Grupo 1115815" transform="translate(0 20.65)">
            <g id="Grupo_1115814" data-name="Grupo 1115814" transform="translate(0 0)">
              <circle id="Elipse_11744" data-name="Elipse 11744" cx="9.909" cy="9.909" r="9.909" transform="translate(0 14.013) rotate(-45)" fill="#628056"/>
            </g>
          </g>
        </g>
        <g id="Grupo_1115818" data-name="Grupo 1115818" transform="translate(19.347 129.277)">
          <g id="Grupo_1115817" data-name="Grupo 1115817" transform="translate(0)">
            <path id="Trazado_908636" data-name="Trazado 908636" d="M4608.08,1376.99c120.536,13.543,134.08,13.543,157.1,41.308s104.285-26.41,93.449-82.615a45.183,45.183,0,0,0-6.271-16.321H4547.54C4547.988,1348.51,4566.519,1372.32,4608.08,1376.99Z" transform="translate(-4547.54 -1319.362)" fill="#628056"/>
          </g>
        </g>
        <g id="Grupo_1115825" data-name="Grupo 1115825" transform="translate(20.629 141.243)">
          <g id="Grupo_1115820" data-name="Grupo 1115820" transform="translate(0 0)">
            <g id="Grupo_1115819" data-name="Grupo 1115819">
              <path id="Trazado_908637" data-name="Trazado 908637" d="M4561.113,1407.583H4866.1a54.915,54.915,0,0,0-.979-11.31c-.292-1.517-.634-2.966-1.017-4.354H4555.307A53.725,53.725,0,0,0,4561.113,1407.583Z" transform="translate(-4555.307 -1391.918)" fill="#83a973"/>
            </g>
          </g>
          <g id="Grupo_1115822" data-name="Grupo 1115822" transform="translate(144.793 55.697)">
            <g id="Grupo_1115821" data-name="Grupo 1115821">
              <path id="Trazado_908638" data-name="Trazado 908638" d="M5584.862,1729.635H5433.254c29.091,4.09,44,8.066,55.251,15.665h82.527A102.839,102.839,0,0,0,5584.862,1729.635Z" transform="translate(-5433.254 -1729.635)" fill="#83a973"/>
            </g>
          </g>
          <g id="Grupo_1115824" data-name="Grupo 1115824" transform="translate(14.086 26.543)">
            <g id="Grupo_1115823" data-name="Grupo 1115823">
              <path id="Trazado_908639" data-name="Trazado 908639" d="M4936.216,1552.862h-295.5c6.8,6.811,15.953,12.21,27.652,15.665h262.592A69.979,69.979,0,0,0,4936.216,1552.862Z" transform="translate(-4640.714 -1552.862)" fill="#83a973"/>
            </g>
          </g>
        </g>
        <g id="Grupo_1115827" data-name="Grupo 1115827" transform="translate(200.745 52.366)">
          <g id="Grupo_1115826" data-name="Grupo 1115826" transform="translate(0 0)">
            <path id="Trazado_908640" data-name="Trazado 908640" d="M5926.282,748.733c-40.835-20.417-52.5,42.4-10.6,45.936S5950.512,760.847,5926.282,748.733Z" transform="translate(-5889.403 -744.66)" fill="#ffead9"/>
          </g>
        </g>
        <g id="Grupo_1115834" data-name="Grupo 1115834" transform="translate(25.64 21.651)">
          <g id="Grupo_1115829" data-name="Grupo 1115829" transform="translate(3.206)">
            <g id="Grupo_1115828" data-name="Grupo 1115828">
              <path id="Trazado_908641" data-name="Trazado 908641" d="M4605.129,685.63h108.184c-9.758-5.042-26.767-4.412-26.767-4.412-16.729-26.471-46.843-9.874-51.024-2.521C4626.32,676.386,4609.032,682.059,4605.129,685.63Z" transform="translate(-4605.129 -666.773)" fill="#fff"/>
            </g>
          </g>
          <g id="Grupo_1115831" data-name="Grupo 1115831" transform="translate(50.816 2.227)">
            <g id="Grupo_1115830" data-name="Grupo 1115830">
              <path id="Trazado_908642" data-name="Trazado 908642" d="M4940.813,699.619h-11.8a.139.139,0,1,1,0-.278h11.269c-8.743-4.739-23.479-4.189-23.63-4.183a.138.138,0,0,1-.127-.071c-6.919-12.259-16.093-14.665-22.571-14.529a.132.132,0,0,1-.142-.136.14.14,0,0,1,.136-.142c6.537-.139,15.8,2.28,22.777,14.6,1.249-.039,15.752-.381,24.159,4.482a.139.139,0,0,1-.07.259Z" transform="translate(-4893.811 -680.276)" fill="#451d26"/>
            </g>
          </g>
          <g id="Grupo_1115833" data-name="Grupo 1115833" transform="translate(0 5.279)">
            <g id="Grupo_1115832" data-name="Grupo 1115832">
              <path id="Trazado_908643" data-name="Trazado 908643" d="M4659.368,715.074h-73.541a.138.138,0,0,1-.127-.085.139.139,0,0,1,.028-.151c3.526-3.612,19.054-9.355,27.47-7.076,1.28-2.41,5.27-6.2,11.124-8.965a.139.139,0,1,1,.118.251c-5.877,2.772-9.847,6.578-11.047,8.941a.139.139,0,0,1-.162.071c-8.128-2.286-23.131,3.138-27.06,6.737h73.2a.139.139,0,0,1,0,.278Z" transform="translate(-4585.688 -698.784)" fill="#451d26"/>
            </g>
          </g>
        </g>
        <g id="Grupo_1115841" data-name="Grupo 1115841" transform="translate(258.653 92.795)">
          <g id="Grupo_1115836" data-name="Grupo 1115836" transform="translate(3.206 0)">
            <g id="Grupo_1115835" data-name="Grupo 1115835">
              <path id="Trazado_908644" data-name="Trazado 908644" d="M6018,1117.011h108.185c-9.759-5.042-26.768-4.412-26.768-4.412-16.729-26.471-46.842-9.874-51.025-2.521C6039.193,1107.767,6021.905,1113.44,6018,1117.011Z" transform="translate(-6018.002 -1098.154)" fill="#fff"/>
            </g>
          </g>
          <g id="Grupo_1115838" data-name="Grupo 1115838" transform="translate(50.816 2.227)">
            <g id="Grupo_1115837" data-name="Grupo 1115837">
              <path id="Trazado_908645" data-name="Trazado 908645" d="M6353.687,1131h-11.8a.139.139,0,0,1,0-.278h11.27c-8.744-4.739-23.479-4.189-23.63-4.182a.136.136,0,0,1-.127-.071c-6.919-12.259-16.094-14.667-22.571-14.528a.136.136,0,0,1-.143-.136.14.14,0,0,1,.137-.142c6.535-.136,15.795,2.28,22.777,14.6,1.249-.039,15.752-.381,24.158,4.482a.139.139,0,0,1-.069.259Z" transform="translate(-6306.684 -1111.658)" fill="#451d26"/>
            </g>
          </g>
          <g id="Grupo_1115840" data-name="Grupo 1115840" transform="translate(0 5.279)">
            <g id="Grupo_1115839" data-name="Grupo 1115839">
              <path id="Trazado_908646" data-name="Trazado 908646" d="M6072.241,1146.455H5998.7a.138.138,0,0,1-.1-.236c3.525-3.612,19.054-9.355,27.469-7.076,1.28-2.41,5.27-6.2,11.124-8.965a.139.139,0,0,1,.119.251c-5.878,2.772-9.848,6.578-11.048,8.941a.14.14,0,0,1-.162.071c-8.128-2.286-23.131,3.138-27.059,6.737h73.2a.139.139,0,1,1,0,.278Z" transform="translate(-5998.562 -1130.164)" fill="#451d26"/>
            </g>
          </g>
        </g>
        <g id="Grupo_1115884" data-name="Grupo 1115884" transform="translate(133.974 162.416)">
          <g id="Grupo_1115848" data-name="Grupo 1115848" transform="translate(31.046 52.691)">
            <g id="Grupo_1115843" data-name="Grupo 1115843" transform="translate(6.3 9.512)">
              <g id="Grupo_1115842" data-name="Grupo 1115842">
                <path id="Trazado_908647" data-name="Trazado 908647" d="M5469.161,1904.025a.139.139,0,0,1-.139-.139v-6.278a.139.139,0,1,1,.278,0v6.278A.139.139,0,0,1,5469.161,1904.025Z" transform="translate(-5469.021 -1897.469)" fill="#451d26"/>
              </g>
            </g>
            <g id="Grupo_1115845" data-name="Grupo 1115845" transform="translate(0 0)">
              <g id="Grupo_1115844" data-name="Grupo 1115844" transform="translate(0)">
                <circle id="Elipse_11745" data-name="Elipse 11745" cx="5.11" cy="5.11" r="5.11" transform="translate(0 9.947) rotate(-76.717)" fill="#f0954f"/>
              </g>
            </g>
            <g id="Grupo_1115847" data-name="Grupo 1115847" transform="translate(4.001 15.9)">
              <g id="Grupo_1115846" data-name="Grupo 1115846">
                <path id="Trazado_908648" data-name="Trazado 908648" d="M5462.7,1936.478h-7.482a.139.139,0,1,1,0-.278h7.482a.139.139,0,1,1,0,.278Z" transform="translate(-5455.079 -1936.2)" fill="#451d26"/>
              </g>
            </g>
          </g>
          <g id="Grupo_1115850" data-name="Grupo 1115850" transform="translate(0.14 9.709)">
            <g id="Grupo_1115849" data-name="Grupo 1115849">
              <path id="Trazado_908649" data-name="Trazado 908649" d="M5277.453,1579.171l-.584,14.284h-33.289c-.973,6.813,2.726,13.043,8.566,13.627.195,14.016,8.565,24.333,24.917,22.581s25.7-21.219,18.3-32.9-9.928-14.6-9.928-14.6Z" transform="translate(-5243.426 -1579.171)" fill="#ffa763"/>
            </g>
          </g>
          <g id="Grupo_1115852" data-name="Grupo 1115852" transform="translate(0 9.57)">
            <g id="Grupo_1115851" data-name="Grupo 1115851">
              <path id="Trazado_908650" data-name="Trazado 908650" d="M5272.879,1629.29c-5.81,0-10.746-1.678-14.416-4.93-4.492-3.979-7.033-10.318-7.165-17.856a8.961,8.961,0,0,1-6.119-3.525,13.531,13.531,0,0,1-2.447-10.247.139.139,0,0,1,.138-.119h33.155l.579-14.15a.139.139,0,0,1,.188-.125l7.981,2.993a.133.133,0,0,1,.056.039c.025.029,2.623,3.062,9.941,14.617,3.406,5.378,3.473,12.663.179,19.486-3.708,7.682-10.654,12.776-18.58,13.625A32.791,32.791,0,0,1,5272.879,1629.29Zm-29.887-36.4a13.225,13.225,0,0,0,2.407,9.917,8.679,8.679,0,0,0,6.051,3.432.139.139,0,0,1,.125.136c.1,7.513,2.616,13.826,7.073,17.775,4.324,3.832,10.443,5.447,17.691,4.67,7.83-.839,14.693-5.874,18.359-13.469,3.252-6.737,3.191-13.921-.163-19.217-6.945-10.965-9.626-14.238-9.894-14.557l-7.768-2.913-.576,14.092a.139.139,0,0,1-.139.134Z" transform="translate(-5242.575 -1578.329)" fill="#451d26"/>
            </g>
          </g>
          <g id="Grupo_1115854" data-name="Grupo 1115854" transform="translate(33.697)">
            <g id="Grupo_1115853" data-name="Grupo 1115853">
              <path id="Trazado_908651" data-name="Trazado 908651" d="M5454.755,1522.071a1.667,1.667,0,0,0-1.144.463,2.52,2.52,0,0,0-2.485-2.232,2.549,2.549,0,0,0-2.549,2.55,2.323,2.323,0,0,0,.083.406c-.028,0-.055-.017-.083-.017a1.68,1.68,0,1,0,0,3.359,1.657,1.657,0,0,0,1.62-1.388,2.43,2.43,0,0,0,2.984-.935,1.671,1.671,0,1,0,1.573-2.207Z" transform="translate(-5446.897 -1520.301)" fill="#e9595c"/>
            </g>
          </g>
          <g id="Grupo_1115856" data-name="Grupo 1115856" transform="translate(32.517 2.144)">
            <g id="Grupo_1115855" data-name="Grupo 1115855" transform="translate(0 0)">
              <circle id="Elipse_11746" data-name="Elipse 11746" cx="5.179" cy="5.179" r="5.179" transform="translate(0 3.964) rotate(-22.5)" fill="#ffa763"/>
            </g>
          </g>
          <g id="Grupo_1115858" data-name="Grupo 1115858" transform="translate(33.966 3.593)">
            <g id="Grupo_1115857" data-name="Grupo 1115857">
              <path id="Trazado_908652" data-name="Trazado 908652" d="M5453.845,1552.721a5.318,5.318,0,1,1,0-10.635.139.139,0,1,1,0,.278,5.04,5.04,0,0,0,0,10.079.139.139,0,1,1,0,.278Z" transform="translate(-5448.527 -1542.086)" fill="#451d26"/>
            </g>
          </g>
          <g id="Grupo_1115860" data-name="Grupo 1115860" transform="translate(41.938 7.611)">
            <g id="Grupo_1115859" data-name="Grupo 1115859">
              <path id="Trazado_908653" data-name="Trazado 908653" d="M5498.194,1566.474l4.661,1.952s-4.223,2.43-4.5,2.43C5495.765,1568.983,5497.12,1566.155,5498.194,1566.474Z" transform="translate(-5496.866 -1566.449)" fill="#ffcc63"/>
            </g>
          </g>
          <g id="Grupo_1115862" data-name="Grupo 1115862" transform="translate(38.925 6.839)">
            <g id="Grupo_1115861" data-name="Grupo 1115861">
              <path id="Trazado_908654" data-name="Trazado 908654" d="M5480.749,1562.844a1.076,1.076,0,1,1-1.077-1.075A1.076,1.076,0,0,1,5480.749,1562.844Z" transform="translate(-5478.597 -1561.769)" fill="#4f2b2c"/>
            </g>
          </g>
          <g id="Grupo_1115864" data-name="Grupo 1115864" transform="translate(14.993 28.081)">
            <g id="Grupo_1115863" data-name="Grupo 1115863">
              <path id="Trazado_908655" data-name="Trazado 908655" d="M5366.284,1702.638a12.069,12.069,0,0,1-12.069,12.069c-6.666,0-20.733-5.4-20.733-12.069,0-2.936,2.729-5.626,6.352-7.719,4.6-2.659,10.651-4.351,14.381-4.351A12.069,12.069,0,0,1,5366.284,1702.638Z" transform="translate(-5333.482 -1690.568)" fill="#4f2b2c"/>
            </g>
          </g>
          <g id="Grupo_1115866" data-name="Grupo 1115866" transform="translate(18.175 28.081)">
            <g id="Grupo_1115865" data-name="Grupo 1115865">
              <path id="Trazado_908656" data-name="Trazado 908656" d="M5382.213,1700.828a12.036,12.036,0,0,0-11.885-10.258c-3.731,0-9.778,1.692-14.382,4.351a21.043,21.043,0,0,0-3.169,2.223c3.454,5.078,14.062,8.805,19.595,8.805A12.033,12.033,0,0,0,5382.213,1700.828Z" transform="translate(-5352.776 -1690.57)" fill="#824648"/>
            </g>
          </g>
          <g id="Grupo_1115875" data-name="Grupo 1115875" transform="translate(15.042 51.612)">
            <g id="Grupo_1115868" data-name="Grupo 1115868" transform="translate(7.38 10.592)">
              <g id="Grupo_1115867" data-name="Grupo 1115867">
                <path id="Trazado_908657" data-name="Trazado 908657" d="M5378.667,1904.025a.139.139,0,0,1-.139-.139v-6.278a.139.139,0,1,1,.278,0v6.278A.139.139,0,0,1,5378.667,1904.025Z" transform="translate(-5378.528 -1897.469)" fill="#451d26"/>
              </g>
            </g>
            <g id="Grupo_1115870" data-name="Grupo 1115870" transform="translate(5.08 16.979)">
              <g id="Grupo_1115869" data-name="Grupo 1115869">
                <path id="Trazado_908658" data-name="Trazado 908658" d="M5372.206,1936.478h-7.482a.139.139,0,1,1,0-.278h7.482a.139.139,0,1,1,0,.278Z" transform="translate(-5364.584 -1936.2)" fill="#451d26"/>
              </g>
            </g>
            <g id="Grupo_1115872" data-name="Grupo 1115872" transform="translate(0 0)">
              <g id="Grupo_1115871" data-name="Grupo 1115871" transform="translate(0)">
                <circle id="Elipse_11747" data-name="Elipse 11747" cx="5.11" cy="5.11" r="5.11" transform="translate(0 7.227) rotate(-45)" fill="#ffa763"/>
              </g>
            </g>
            <g id="Grupo_1115874" data-name="Grupo 1115874" transform="translate(7.088 1.978)">
              <g id="Grupo_1115873" data-name="Grupo 1115873">
                <path id="Trazado_908659" data-name="Trazado 908659" d="M5376.9,1855.736a.139.139,0,1,1,0-.278,4.971,4.971,0,0,0,0-9.942.139.139,0,1,1,0-.278,5.249,5.249,0,0,1,0,10.5Z" transform="translate(-5376.757 -1845.238)" fill="#451d26"/>
              </g>
            </g>
          </g>
          <g id="Grupo_1115877" data-name="Grupo 1115877" transform="translate(18.115 39.5)">
            <g id="Grupo_1115876" data-name="Grupo 1115876">
              <path id="Trazado_908660" data-name="Trazado 908660" d="M5352.551,1764.321a.137.137,0,0,1-.1-.04.139.139,0,0,1,0-.2l4.161-4.234a.139.139,0,1,1,.2.2l-4.161,4.234A.136.136,0,0,1,5352.551,1764.321Z" transform="translate(-5352.413 -1759.809)" fill="#451d26"/>
            </g>
          </g>
          <g id="Grupo_1115879" data-name="Grupo 1115879" transform="translate(25.634 42.639)">
            <g id="Grupo_1115878" data-name="Grupo 1115878">
              <path id="Trazado_908661" data-name="Trazado 908661" d="M5398.143,1784.742a.136.136,0,0,1-.047-.008.138.138,0,0,1-.083-.178l2.044-5.621a.139.139,0,0,1,.261.1l-2.044,5.621A.138.138,0,0,1,5398.143,1784.742Z" transform="translate(-5398.004 -1778.843)" fill="#451d26"/>
            </g>
          </g>
          <g id="Grupo_1115881" data-name="Grupo 1115881" transform="translate(36.145 44.61)">
            <g id="Grupo_1115880" data-name="Grupo 1115880">
              <path id="Trazado_908662" data-name="Trazado 908662" d="M5462.027,1796.839a.139.139,0,0,1-.139-.135l-.147-5.767a.14.14,0,0,1,.137-.142.136.136,0,0,1,.143.135l.145,5.767a.139.139,0,0,1-.135.143Z" transform="translate(-5461.741 -1790.794)" fill="#451d26"/>
            </g>
          </g>
          <g id="Grupo_1115883" data-name="Grupo 1115883" transform="translate(42.57 43.296)">
            <g id="Grupo_1115882" data-name="Grupo 1115882">
              <path id="Trazado_908663" data-name="Trazado 908663" d="M5501.637,1786.243a.14.14,0,0,1-.135-.1l-.8-3.139a.139.139,0,0,1,.27-.069l.8,3.139a.139.139,0,0,1-.1.169A.129.129,0,0,1,5501.637,1786.243Z" transform="translate(-5500.695 -1782.826)" fill="#451d26"/>
            </g>
          </g>
        </g>
        <g id="Grupo_1116059" data-name="Grupo 1116059" transform="translate(40.16 21.497)">
          <g id="Grupo_1115886" data-name="Grupo 1115886" transform="translate(55.475 52.562)">
            <g id="Grupo_1115885" data-name="Grupo 1115885">
              <path id="Trazado_908664" data-name="Trazado 908664" d="M5022.573,984.552s7.194,23.179,10.71,24.938-4.476,5.115-4.476,5.115c-14.068-6.554-18.7-23.179-18.7-23.179Z" transform="translate(-5010.104 -984.552)" fill="#ff7c6d"/>
            </g>
          </g>
          <g id="Grupo_1115888" data-name="Grupo 1115888" transform="translate(0.141 34.179)">
            <g id="Grupo_1115887" data-name="Grupo 1115887">
              <path id="Trazado_908665" data-name="Trazado 908665" d="M4695.87,873.084c-3.159,2.649-11.641,7.7-17.378,11.016a7.8,7.8,0,0,0-3.6,4.593,7.668,7.668,0,0,0,.626,5.82c6.27,11.5,20.746,23.358,20.351,23.49-3.517,3.357-2.078,8.632-2.078,8.632-1.758-1.279-4.316.48-4.316.48l7.673,1.758,6.395-11.67s-9.751-11.19-13.109-22.7l14.387-9.591Z" transform="translate(-4674.585 -873.084)" fill="#ff7c6d"/>
            </g>
          </g>
          <g id="Grupo_1115890" data-name="Grupo 1115890" transform="translate(0.141 46.153)">
            <g id="Grupo_1115889" data-name="Grupo 1115889">
              <path id="Trazado_908666" data-name="Trazado 908666" d="M4677.177,945.688a7.812,7.812,0,0,0-2.285,3.635,7.668,7.668,0,0,0,.626,5.82c.074.135.154.271.23.406a5.35,5.35,0,0,0,1.428-9.861Z" transform="translate(-4674.585 -945.688)" fill="#ff6a59"/>
            </g>
          </g>
          <g id="Grupo_1115892" data-name="Grupo 1115892" transform="translate(0 34.04)">
            <g id="Grupo_1115891" data-name="Grupo 1115891">
              <path id="Trazado_908667" data-name="Trazado 908667" d="M4696.436,928.309a.126.126,0,0,1-.031,0l-7.673-1.758a.138.138,0,0,1-.048-.25c.1-.07,2.4-1.623,4.187-.66-.241-1.213-.826-5.482,2.119-8.369-.184-.22-.876-.868-1.729-1.665-4.11-3.844-13.736-12.845-18.577-21.726a7.784,7.784,0,0,1-.638-5.926,7.924,7.924,0,0,1,3.663-4.675c6.221-3.595,14.282-8.422,17.359-11a.139.139,0,0,1,.2.023l8.952,11.829a.14.14,0,0,1-.034.2l-14.3,9.535c3.336,11.314,12.953,22.438,13.051,22.549a.139.139,0,0,1,.017.158l-6.394,11.669A.141.141,0,0,1,4696.436,928.309Zm-7.309-1.957,7.238,1.659,6.3-11.493c-.848-.993-9.888-11.756-13.073-22.678a.14.14,0,0,1,.057-.155l14.264-9.51-8.775-11.6c-3.171,2.615-11.129,7.379-17.287,10.936a7.648,7.648,0,0,0-3.534,4.511,7.5,7.5,0,0,0,.615,5.715c4.819,8.842,14.422,17.822,18.523,21.656,1.823,1.7,1.88,1.778,1.849,1.922a.153.153,0,0,1-.047.079h0c-3.415,3.259-2.054,8.443-2.04,8.5a.139.139,0,0,1-.215.149C4691.673,925.082,4689.828,925.954,4689.127,926.352Z" transform="translate(-4673.732 -872.241)" fill="#451d26"/>
            </g>
          </g>
          <g id="Grupo_1115894" data-name="Grupo 1115894" transform="translate(79.294 186.309)">
            <g id="Grupo_1115893" data-name="Grupo 1115893">
              <path id="Trazado_908668" data-name="Trazado 908668" d="M5161.667,1795.524l-7.14,5.968,5.5,9.686.146.438,1.172,1.492,6.927-1.812,1.278-10.87Z" transform="translate(-5154.527 -1795.524)" fill="#ff7c6d"/>
            </g>
          </g>
          <g id="Grupo_1115896" data-name="Grupo 1115896" transform="translate(39.489 190.959)">
            <g id="Grupo_1115895" data-name="Grupo 1115895">
              <path id="Trazado_908669" data-name="Trazado 908669" d="M4913.674,1833.241l-.259-6.611,10.271-2.917,3.637,8.353s-9.512,5.075-9.751,5.075-4.4-1.039-4.4-1.4S4913.674,1833.241,4913.674,1833.241Z" transform="translate(-4913.175 -1823.713)" fill="#ff7c6d"/>
            </g>
          </g>
          <g id="Grupo_1115898" data-name="Grupo 1115898" transform="translate(46.683 67.269)">
            <g id="Grupo_1115897" data-name="Grupo 1115897">
              <path id="Trazado_908670" data-name="Trazado 908670" d="M4971.021,1075.884s7.833,12.869,9.751,25.337,10.551,40.923,10.551,40.923c1.6,23.019,13.854,49.769,13.854,49.769l-21.421,14.387c-14.067-15.985-18.65-58.72-18.65-58.72l-8.313-26.536,1.6-47.318Z" transform="translate(-4956.793 -1073.726)" fill="#6693a3"/>
            </g>
          </g>
          <g id="Grupo_1115900" data-name="Grupo 1115900" transform="translate(46.544 67.13)">
            <g id="Grupo_1115899" data-name="Grupo 1115899">
              <path id="Trazado_908671" data-name="Trazado 908671" d="M4983.052,1205.736a.138.138,0,0,1-.1-.047c-13.936-15.836-18.638-58.37-18.684-58.8l-8.307-26.509a.115.115,0,0,1-.006-.046l1.6-47.318a.141.141,0,0,1,.051-.1.138.138,0,0,1,.111-.029l12.628,2.158a.138.138,0,0,1,.1.065c.079.129,7.87,13.035,9.77,25.388,1.895,12.317,10.46,40.62,10.546,40.9a.129.129,0,0,1,0,.031c1.579,22.731,13.72,49.453,13.842,49.72a.139.139,0,0,1-.048.173l-21.421,14.387A.136.136,0,0,1,4983.052,1205.736Zm-26.823-85.415,8.306,26.514c.051.453,4.727,42.736,18.542,58.579l21.222-14.254c-.849-1.884-12.281-27.652-13.816-49.694-.24-.794-8.67-28.706-10.551-40.928-1.829-11.891-9.147-24.307-9.7-25.232l-12.409-2.121Z" transform="translate(-4955.951 -1072.884)" fill="#451d26"/>
            </g>
          </g>
          <g id="Grupo_1115902" data-name="Grupo 1115902" transform="translate(20.559 66.097)">
            <g id="Grupo_1115901" data-name="Grupo 1115901">
              <path id="Trazado_908672" data-name="Trazado 908672" d="M4818.6,1069.948c-13.375,6.9-19.77,13.508-20.195,20.755s9.165,107.85,9.165,107.85l26.856-4.05-7.46-104.653c3.41-1.705,4.476-2.558,4.476-5.542s1.705-17.691,1.705-17.691Z" transform="translate(-4798.394 -1066.618)" fill="#6693a3"/>
            </g>
          </g>
          <g id="Grupo_1115904" data-name="Grupo 1115904" transform="translate(20.42 69.288)">
            <g id="Grupo_1115903" data-name="Grupo 1115903">
              <path id="Trazado_908673" data-name="Trazado 908673" d="M4806.868,1214.851a.139.139,0,0,1-.139-.126c-.1-1.006-9.587-100.7-9.165-107.871.431-7.326,6.872-13.958,20.27-20.87a.139.139,0,1,1,.129.247c-13.3,6.863-19.7,13.421-20.121,20.639-.413,7.027,8.735,103.311,9.151,107.683l26.583-4.009-7.451-104.525a.14.14,0,0,1,.077-.134c3.324-1.662,4.4-2.449,4.4-5.417,0-.737.1-2.252.31-4.5a.139.139,0,1,1,.276.025c-.2,2.242-.307,3.749-.307,4.478,0,3.086-1.162,3.965-4.47,5.624l7.453,104.56a.139.139,0,0,1-.118.147l-26.856,4.05Z" transform="translate(-4797.551 -1085.968)" fill="#451d26"/>
            </g>
          </g>
          <g id="Grupo_1115906" data-name="Grupo 1115906" transform="translate(19.108 26.812)">
            <g id="Grupo_1115905" data-name="Grupo 1115905">
              <path id="Trazado_908674" data-name="Trazado 908674" d="M4831.392,871.029H4811.25c1.358-.959,2.318-4.236,0-7.114a34.3,34.3,0,0,1-7.593-16.146l-5.915,3.757L4789.59,836.5s17.5-8.473,20.3-8.073,4.636,3.2,7.274,5.275l10.071,2.957a27.42,27.42,0,0,0,3.756,1.519c3.277,1.2,6,5.515,7.114,9.272a58,58,0,0,0,3.2,7.913l-3.756,2C4836.747,860.4,4831.072,864.555,4831.392,871.029Z" transform="translate(-4789.59 -828.414)" fill="#e2e9fb"/>
            </g>
          </g>
          <g id="Grupo_1115908" data-name="Grupo 1115908" transform="translate(46.652 21.377)">
            <g id="Grupo_1115907" data-name="Grupo 1115907">
              <path id="Trazado_908675" data-name="Trazado 908675" d="M4960.938,795.46c-.879,5.115-1.505,10.564-4.3,10.724-.752,7.611,12.363,10.723,10.071,2.957.879-6.075.958-8.153.958-8.153S4961.337,795.46,4960.938,795.46Z" transform="translate(-4956.604 -795.46)" fill="#ff7c6d"/>
            </g>
          </g>
          <g id="Grupo_1115910" data-name="Grupo 1115910" transform="translate(52.749 23.772)">
            <g id="Grupo_1115909" data-name="Grupo 1115909">
              <path id="Trazado_908676" data-name="Trazado 908676" d="M4997.9,819.008c.583-4.34.644-5.895.644-5.895s-3.018-1.959-4.964-3.134A11.352,11.352,0,0,0,4997.9,819.008Z" transform="translate(-4993.576 -809.979)" fill="#ff6a59"/>
            </g>
          </g>
          <g id="Grupo_1115912" data-name="Grupo 1115912" transform="translate(86.849 46.408)">
            <g id="Grupo_1115911" data-name="Grupo 1115911">
              <path id="Trazado_908677" data-name="Trazado 908677" d="M5206.129,947.234c-3.436,0-5.036,4-5.754,6.474s8.952,1.519,9.191,1.439a31.621,31.621,0,0,0,3.518-4.876c0-.4-2.958-3.037-2.958-3.037Z" transform="translate(-5200.337 -947.234)" fill="#e6c8aa"/>
            </g>
          </g>
          <g id="Grupo_1115914" data-name="Grupo 1115914" transform="translate(86.71 46.269)">
            <g id="Grupo_1115913" data-name="Grupo 1115913">
              <path id="Trazado_908678" data-name="Trazado 908678" d="M5204.709,954.828c-2.024,0-4.169-.192-4.91-.9a.911.911,0,0,1-.258-.958c1.249-4.3,3.285-6.574,5.889-6.574a.139.139,0,0,1,0,.278c-2.467,0-4.411,2.2-5.622,6.374a.626.626,0,0,0,.159.656c1.349,1.4,8.555.689,8.86.611a.143.143,0,0,1,.17.1.137.137,0,0,1-.086.17A31.674,31.674,0,0,1,5204.709,954.828Z" transform="translate(-5199.499 -946.392)" fill="#451d26"/>
            </g>
          </g>
          <g id="Grupo_1115916" data-name="Grupo 1115916" transform="translate(67.145 51.763)">
            <g id="Grupo_1115915" data-name="Grupo 1115915">
              <path id="Trazado_908679" data-name="Trazado 908679" d="M5104.521,1018.711h-23.659l18.863-39.005h23.659Z" transform="translate(-5080.861 -979.706)" fill="#e9595c"/>
            </g>
          </g>
          <g id="Grupo_1115925" data-name="Grupo 1115925" transform="translate(90.357 62.904)">
            <g id="Grupo_1115918" data-name="Grupo 1115918" transform="translate(0.139 0.139)">
              <g id="Grupo_1115917" data-name="Grupo 1115917">
                <path id="Trazado_908680" data-name="Trazado 908680" d="M5236.864,1052.467c-.679-2.791-8.248-4.073-10.208-4.359a.593.593,0,0,0-.635.365.593.593,0,0,0,.185.69l4.863,3.8-8,2.4a.874.874,0,0,0-.591.6.856.856,0,0,0-.015.409.874.874,0,0,0,.8.7l.623.04-.638.327a.487.487,0,0,0,.2.919l4.141.161-3.3.452a.545.545,0,0,0-.394.262.572.572,0,0,0-.061.154.543.543,0,0,0,.465.66c2.574.31,3.766,1.052,3.158,6.146h0a9.11,9.11,0,0,0,9.851-9.6A26.551,26.551,0,0,0,5236.864,1052.467Z" transform="translate(-5222.448 -1048.101)" fill="#ff7c6d"/>
              </g>
            </g>
            <g id="Grupo_1115920" data-name="Grupo 1115920">
              <g id="Grupo_1115919" data-name="Grupo 1115919">
                <path id="Trazado_908681" data-name="Trazado 908681" d="M5227.528,1065.667c-.258,0-.515-.011-.774-.033a.138.138,0,0,1-.1-.051.141.141,0,0,1-.03-.1c.6-5-.523-5.688-3.037-5.991a.682.682,0,0,1-.583-.828.693.693,0,0,1,.077-.194.68.68,0,0,1,.5-.329l1.729-.237-2.559-.1a.625.625,0,0,1-.261-1.181l.189-.1-.119-.008a1.014,1.014,0,0,1-.228-1.983l7.741-2.327-4.653-3.636a.736.736,0,0,1-.279-.52.744.744,0,0,1,.052-.332.731.731,0,0,1,.784-.45c2.247.329,9.632,1.622,10.323,4.464h0a26.187,26.187,0,0,1,.458,4.159,9.252,9.252,0,0,1-9.227,9.778Zm-.608-.3a8.971,8.971,0,0,0,9.557-9.464,25.933,25.933,0,0,0-.45-4.109h0c-.667-2.742-8.524-4.025-10.093-4.255a.454.454,0,0,0-.486.279.45.45,0,0,0-.031.206.455.455,0,0,0,.173.323l4.864,3.8a.139.139,0,0,1-.045.243l-8,2.4a.731.731,0,0,0-.5.507.72.72,0,0,0-.013.344.734.734,0,0,0,.675.589l.622.04a.139.139,0,0,1,.055.262l-.638.327a.347.347,0,0,0-.045.59.341.341,0,0,0,.19.066l4.141.161a.139.139,0,0,1,.013.276l-3.3.452a.4.4,0,0,0-.293.2.4.4,0,0,0-.028.35.4.4,0,0,0,.328.255C5226.4,1059.546,5227.48,1060.481,5226.92,1065.368Z" transform="translate(-5221.607 -1047.258)" fill="#451d26"/>
              </g>
            </g>
            <g id="Grupo_1115922" data-name="Grupo 1115922" transform="translate(1.849 7.849)">
              <g id="Grupo_1115921" data-name="Grupo 1115921">
                <path id="Trazado_908682" data-name="Trazado 908682" d="M5232.96,1096.138a.139.139,0,0,1-.039-.272,21.4,21.4,0,0,1,6.048-1.012.138.138,0,0,1,.134.143.135.135,0,0,1-.143.135,21.209,21.209,0,0,0-5.962,1A.138.138,0,0,1,5232.96,1096.138Z" transform="translate(-5232.822 -1094.853)" fill="#451d26"/>
              </g>
            </g>
            <g id="Grupo_1115924" data-name="Grupo 1115924" transform="translate(5.421 10.428)">
              <g id="Grupo_1115923" data-name="Grupo 1115923">
                <path id="Trazado_908683" data-name="Trazado 908683" d="M5254.618,1110.778a.139.139,0,0,1-.005-.278c.589-.021.818-.007.827-.007a.139.139,0,0,1-.018.278s-.228-.013-.8.007Z" transform="translate(-5254.479 -1110.489)" fill="#451d26"/>
              </g>
            </g>
          </g>
          <g id="Grupo_1115927" data-name="Grupo 1115927" transform="translate(92.642 46.408)">
            <g id="Grupo_1115926" data-name="Grupo 1115926">
              <path id="Trazado_908684" data-name="Trazado 908684" d="M5256.3,947.235h-20.834c5.6,0,.879,11.35.879,11.35h20.835S5261.892,947.235,5256.3,947.235Z" transform="translate(-5235.462 -947.235)" fill="#fff"/>
            </g>
          </g>
          <g id="Grupo_1115929" data-name="Grupo 1115929" transform="translate(92.503 46.269)">
            <g id="Grupo_1115928" data-name="Grupo 1115928">
              <path id="Trazado_908685" data-name="Trazado 908685" d="M5256.473,958.02h-20.835a.138.138,0,0,1-.128-.192c.032-.075,3.08-7.494,1.278-10.193a2.273,2.273,0,0,0-2.029-.964.139.139,0,1,1,0-.278,2.535,2.535,0,0,1,2.26,1.088c1.738,2.6-.689,9.039-1.175,10.262h20.629a.139.139,0,0,1,0,.278Z" transform="translate(-5234.62 -946.392)" fill="#451d26"/>
            </g>
          </g>
          <g id="Grupo_1115931" data-name="Grupo 1115931" transform="translate(33.036 43.551)">
            <g id="Grupo_1115930" data-name="Grupo 1115930">
              <path id="Trazado_908686" data-name="Trazado 908686" d="M4874.185,932.67a.139.139,0,0,1-.08-.253l3.517-2.478a.139.139,0,0,1,.16.227l-3.517,2.478A.141.141,0,0,1,4874.185,932.67Z" transform="translate(-4874.045 -929.914)" fill="#451d26"/>
            </g>
          </g>
          <g id="Grupo_1115961" data-name="Grupo 1115961" transform="translate(37.024 196.084)">
            <g id="Grupo_1115960" data-name="Grupo 1115960">
              <g id="Grupo_1115955" data-name="Grupo 1115955">
                <g id="Grupo_1115934" data-name="Grupo 1115934" transform="translate(0.139 0.139)">
                  <g id="Grupo_1115933" data-name="Grupo 1115933">
                    <g id="Grupo_1115932" data-name="Grupo 1115932">
                      <path id="Trazado_908687" data-name="Trazado 908687" d="M4901.361,1860.226a.624.624,0,0,1,.533-.328.618.618,0,0,1,.518.25c.92,1.232,3,3.286,5.985,1.932a.612.612,0,0,0,.167-.113.627.627,0,0,0,.1-.122c.586-.926,3.836-5.757,8.222-6.207a.656.656,0,0,1,.41.091.605.605,0,0,1,.258.314c.341.954,1.339,3.192,3.384,3.919,0,0,14.888,4.606,17.561,12.016a.61.61,0,0,1-.082.567.632.632,0,0,1-.516.261l-38.062-.211a.624.624,0,0,1-.481-.23.6.6,0,0,1-.133-.307A20.08,20.08,0,0,1,4901.361,1860.226Z" transform="translate(-4899.068 -1855.634)" fill="#e9595c"/>
                    </g>
                  </g>
                </g>
                <g id="Grupo_1115937" data-name="Grupo 1115937" transform="translate(9.635 0.139)">
                  <g id="Grupo_1115936" data-name="Grupo 1115936">
                    <g id="Grupo_1115935" data-name="Grupo 1115935">
                      <path id="Trazado_908688" data-name="Trazado 908688" d="M4986.161,1871.037l-15.771-.093-13.743-8.977a.612.612,0,0,0,.1-.122c.585-.926,3.835-5.757,8.222-6.207a.657.657,0,0,1,.41.091.6.6,0,0,1,.257.314c.342.954,1.34,3.192,3.384,3.919C4969.02,1859.963,4982.643,1864.182,4986.161,1871.037Z" transform="translate(-4956.646 -1855.634)" fill="#fff"/>
                    </g>
                  </g>
                </g>
                <g id="Grupo_1115942" data-name="Grupo 1115942" transform="translate(6 7.095)">
                  <g id="Grupo_1115939" data-name="Grupo 1115939" transform="translate(0 0)">
                    <g id="Grupo_1115938" data-name="Grupo 1115938" transform="translate(0)">
                      <circle id="Elipse_11748" data-name="Elipse 11748" cx="2.111" cy="2.111" r="2.111" transform="translate(0 3.568) rotate(-57.659)" fill="#fff"/>
                    </g>
                  </g>
                  <g id="Grupo_1115941" data-name="Grupo 1115941" transform="translate(2.771 0.663)">
                    <g id="Grupo_1115940" data-name="Grupo 1115940">
                      <path id="Trazado_908689" data-name="Trazado 908689" d="M4951.55,1906.333a.142.142,0,0,1-.143-.139.137.137,0,0,1,.14-.139,1.972,1.972,0,0,0,.006-3.945.138.138,0,0,1-.139-.139.131.131,0,0,1,.139-.139,2.25,2.25,0,0,1,0,4.5Z" transform="translate(-4951.407 -1901.833)" fill="#451d26"/>
                    </g>
                  </g>
                </g>
                <g id="Grupo_1115945" data-name="Grupo 1115945" transform="translate(0.14 11.297)">
                  <g id="Grupo_1115944" data-name="Grupo 1115944">
                    <g id="Grupo_1115943" data-name="Grupo 1115943">
                      <path id="Trazado_908690" data-name="Trazado 908690" d="M4899.118,1927.393a20.811,20.811,0,0,1,.146-4.1,44.935,44.935,0,0,1,13.249,3.584Z" transform="translate(-4899.076 -1923.291)" fill="#fff"/>
                    </g>
                  </g>
                </g>
                <g id="Grupo_1115948" data-name="Grupo 1115948" transform="translate(0.139 11.591)">
                  <g id="Grupo_1115947" data-name="Grupo 1115947">
                    <g id="Grupo_1115946" data-name="Grupo 1115946">
                      <path id="Trazado_908691" data-name="Trazado 908691" d="M4929.649,1927.761v-.953a1.733,1.733,0,0,1,1.736-1.732l3.374,0a15.1,15.1,0,0,1,2.562,2.722h.009c.018.026.034.052.052.078l.008.013a8.925,8.925,0,0,1,1.106,2.075.608.608,0,0,1-.082.567.631.631,0,0,1-.516.262l-38.062-.211a.626.626,0,0,1-.482-.23.617.617,0,0,1-.133-.307,18.891,18.891,0,0,1-.156-2.458Z" transform="translate(-4899.069 -1925.077)" fill="#fff"/>
                    </g>
                  </g>
                </g>
                <g id="Grupo_1115951" data-name="Grupo 1115951" transform="translate(0 11.452)">
                  <g id="Grupo_1115950" data-name="Grupo 1115950">
                    <g id="Grupo_1115949" data-name="Grupo 1115949">
                      <path id="Trazado_908692" data-name="Trazado 908692" d="M4937.2,1930.234h0l-38.062-.211a.763.763,0,0,1-.589-.281.75.75,0,0,1-.163-.376,18.951,18.951,0,0,1-.158-2.477.139.139,0,0,1,.041-.1.157.157,0,0,1,.1-.04l30.44.169v-.813a1.873,1.873,0,0,1,1.874-1.87h0l3.375,0a.139.139,0,0,1,.09.033,15.3,15.3,0,0,1,2.564,2.719.111.111,0,0,1,.028.028l.053.079a9.141,9.141,0,0,1,1.132,2.121.748.748,0,0,1-.1.7A.773.773,0,0,1,4937.2,1930.234Zm-38.7-3.206a18.6,18.6,0,0,0,.154,2.3.475.475,0,0,0,.1.237.485.485,0,0,0,.375.179l38.062.211h0a.489.489,0,0,0,.4-.2.467.467,0,0,0,.064-.438,8.808,8.808,0,0,0-1.09-2.042l-.042-.063a.128.128,0,0,1-.027-.027,14.943,14.943,0,0,0-2.5-2.664l-3.323,0h0a1.6,1.6,0,0,0-1.6,1.593v.952a.138.138,0,0,1-.041.1.185.185,0,0,1-.1.04Z" transform="translate(-4898.226 -1924.235)" fill="#451d26"/>
                    </g>
                  </g>
                </g>
                <g id="Grupo_1115954" data-name="Grupo 1115954" transform="translate(0.004)">
                  <g id="Grupo_1115953" data-name="Grupo 1115953">
                    <g id="Grupo_1115952" data-name="Grupo 1115952">
                      <path id="Trazado_908693" data-name="Trazado 908693" d="M4937.221,1872.245h0l-38.062-.211a.763.763,0,0,1-.589-.281.754.754,0,0,1-.162-.376,20.358,20.358,0,0,1,2.152-11.918.765.765,0,0,1,1.284-.1c.943,1.263,2.954,3.188,5.816,1.889a.487.487,0,0,0,.13-.088.48.48,0,0,0,.078-.1c.612-.967,3.887-5.816,8.326-6.271a.813.813,0,0,1,.5.111.742.742,0,0,1,.315.386,8.467,8.467,0,0,0,1.035,2.011.139.139,0,1,1-.226.161,8.725,8.725,0,0,1-1.071-2.078.467.467,0,0,0-.2-.243.526.526,0,0,0-.324-.071c-4.311.443-7.519,5.2-8.118,6.143a.76.76,0,0,1-.123.149.749.749,0,0,1-.205.138c-3.04,1.379-5.16-.646-6.154-1.976a.477.477,0,0,0-.4-.194.484.484,0,0,0-.414.255,20.085,20.085,0,0,0-2.123,11.749.486.486,0,0,0,.479.417l38.061.211h0a.487.487,0,0,0,.4-.2.465.465,0,0,0,.065-.438c-1.378-3.821-6.121-6.885-9.857-8.783a.139.139,0,1,1,.125-.248c3.781,1.92,8.583,5.03,9.993,8.937a.748.748,0,0,1-.1.7A.774.774,0,0,1,4937.221,1872.245Z" transform="translate(-4898.25 -1854.793)" fill="#451d26"/>
                    </g>
                  </g>
                </g>
              </g>
              <g id="Grupo_1115957" data-name="Grupo 1115957" transform="translate(17.107 3.851)">
                <g id="Grupo_1115956" data-name="Grupo 1115956">
                  <path id="Trazado_908694" data-name="Trazado 908694" d="M5002.093,1881.639l-.021,0a.139.139,0,0,1-.116-.159,3.912,3.912,0,0,1,1.646-2.523,4.115,4.115,0,0,1,3.084-.754.139.139,0,1,1-.05.273,3.838,3.838,0,0,0-2.873.708,3.631,3.631,0,0,0-1.533,2.34A.139.139,0,0,1,5002.093,1881.639Z" transform="translate(-5001.955 -1878.144)" fill="#451d26"/>
                </g>
              </g>
              <g id="Grupo_1115959" data-name="Grupo 1115959" transform="translate(21.744 5.437)">
                <g id="Grupo_1115958" data-name="Grupo 1115958">
                  <path id="Trazado_908695" data-name="Trazado 908695" d="M5030.209,1890.974a.125.125,0,0,1-.036-.005.139.139,0,0,1-.1-.17,4.069,4.069,0,0,1,2.13-2.69,2.72,2.72,0,0,1,2.139-.213.139.139,0,1,1-.108.256,2.482,2.482,0,0,0-1.909.208,3.8,3.8,0,0,0-1.983,2.512A.138.138,0,0,1,5030.209,1890.974Z" transform="translate(-5030.069 -1887.761)" fill="#451d26"/>
                </g>
              </g>
            </g>
          </g>
          <g id="Grupo_1115991" data-name="Grupo 1115991" transform="translate(84.445 186.273)">
            <g id="Grupo_1115990" data-name="Grupo 1115990">
              <g id="Grupo_1115985" data-name="Grupo 1115985">
                <g id="Grupo_1115964" data-name="Grupo 1115964" transform="translate(0.139 0.135)">
                  <g id="Grupo_1115963" data-name="Grupo 1115963">
                    <g id="Grupo_1115962" data-name="Grupo 1115962">
                      <path id="Trazado_908696" data-name="Trazado 908696" d="M5186.62,1812.27a.624.624,0,0,1,.2-.593.617.617,0,0,1,.557-.141c1.5.356,4.412.6,5.831-2.354a.6.6,0,0,0,.057-.195.634.634,0,0,0,0-.158c-.144-1.086-.748-6.877,2.331-10.035a.659.659,0,0,1,.373-.193.6.6,0,0,1,.4.076c.874.513,3.075,1.591,5.11.839,0,0,14.379-6.011,21.181-2.038a.609.609,0,0,1,.3.488.63.63,0,0,1-.228.531l-29.344,24.24a.624.624,0,0,1-.518.132.611.611,0,0,1-.3-.15A20.075,20.075,0,0,1,5186.62,1812.27Z" transform="translate(-5186.607 -1796.122)" fill="#e9595c"/>
                    </g>
                  </g>
                </g>
                <g id="Grupo_1115967" data-name="Grupo 1115967" transform="translate(6.65 0.141)">
                  <g id="Grupo_1115966" data-name="Grupo 1115966">
                    <g id="Grupo_1115965" data-name="Grupo 1115965">
                      <path id="Trazado_908697" data-name="Trazado 908697" d="M5254.7,1797.055l-12.163,10.04-16.3,1.922a.66.66,0,0,0,0-.158c-.144-1.085-.747-6.877,2.331-10.035a.658.658,0,0,1,.373-.193.6.6,0,0,1,.4.076c.873.513,3.075,1.591,5.11.839C5234.442,1799.546,5247.6,1794.05,5254.7,1797.055Z" transform="translate(-5226.086 -1796.156)" fill="#fff"/>
                    </g>
                  </g>
                </g>
                <g id="Grupo_1115972" data-name="Grupo 1115972" transform="translate(6.215 13.885)">
                  <g id="Grupo_1115969" data-name="Grupo 1115969" transform="translate(0 0)">
                    <g id="Grupo_1115968" data-name="Grupo 1115968" transform="translate(0)">
                      <circle id="Elipse_11749" data-name="Elipse 11749" cx="2.111" cy="2.111" r="2.111" transform="matrix(0.996, -0.091, 0.091, 0.996, 0, 0.383)" fill="#fff"/>
                    </g>
                  </g>
                  <g id="Grupo_1115971" data-name="Grupo 1115971" transform="translate(0.804 0.045)">
                    <g id="Grupo_1115970" data-name="Grupo 1115970">
                      <path id="Trazado_908698" data-name="Trazado 908698" d="M5231.165,1883.774a.139.139,0,0,1-.089-.246,1.972,1.972,0,1,0-2.524-3.031.139.139,0,0,1-.178-.214,2.25,2.25,0,0,1,2.88,3.458A.137.137,0,0,1,5231.165,1883.774Z" transform="translate(-5228.323 -1879.764)" fill="#451d26"/>
                    </g>
                  </g>
                </g>
                <g id="Grupo_1115975" data-name="Grupo 1115975" transform="translate(2.747 16.928)">
                  <g id="Grupo_1115974" data-name="Grupo 1115974">
                    <g id="Grupo_1115973" data-name="Grupo 1115973">
                      <path id="Trazado_908699" data-name="Trazado 908699" d="M5204.937,1906.93a20.946,20.946,0,0,1-2.518-3.241,44.927,44.927,0,0,1,12.466-5.744Z" transform="translate(-5202.419 -1897.945)" fill="#fff"/>
                    </g>
                  </g>
                </g>
                <g id="Grupo_1115978" data-name="Grupo 1115978" transform="translate(4.403 0.139)">
                  <g id="Grupo_1115977" data-name="Grupo 1115977">
                    <g id="Grupo_1115976" data-name="Grupo 1115976">
                      <path id="Trazado_908700" data-name="Trazado 908700" d="M5236.037,1801.478l-.61-.732a1.734,1.734,0,0,1,.223-2.442l2.593-2.16a15.113,15.113,0,0,1,3.71.446l.007-.005c.03.008.059.018.09.026l.015,0a8.909,8.909,0,0,1,2.179.883.607.607,0,0,1,.3.488.63.63,0,0,1-.228.531l-29.344,24.241a.627.627,0,0,1-.518.132.618.618,0,0,1-.3-.15,18.88,18.88,0,0,1-1.7-1.786Z" transform="translate(-5212.46 -1796.144)" fill="#fff"/>
                    </g>
                  </g>
                </g>
                <g id="Grupo_1115981" data-name="Grupo 1115981" transform="translate(4.264)">
                  <g id="Grupo_1115980" data-name="Grupo 1115980">
                    <g id="Grupo_1115979" data-name="Grupo 1115979">
                      <path id="Trazado_908701" data-name="Trazado 908701" d="M5213.87,1822.337a.778.778,0,0,1-.146-.014.758.758,0,0,1-.366-.184,18.977,18.977,0,0,1-1.709-1.8.139.139,0,0,1,.019-.2l23.469-19.387-.521-.625a1.877,1.877,0,0,1,.241-2.638l2.593-2.16a.14.14,0,0,1,.089-.032,15.3,15.3,0,0,1,3.712.442.111.111,0,0,1,.04,0l.091.026a9.147,9.147,0,0,1,2.228.9.752.752,0,0,1,.369.6.773.773,0,0,1-.278.647l-29.345,24.241A.762.762,0,0,1,5213.87,1822.337Zm-1.917-2.069a18.57,18.57,0,0,0,1.593,1.666.477.477,0,0,0,.231.116.484.484,0,0,0,.4-.1l29.346-24.241a.485.485,0,0,0,.176-.414.463.463,0,0,0-.231-.378,8.823,8.823,0,0,0-2.145-.869l-.073-.021a.138.138,0,0,1-.038,0,14.931,14.931,0,0,0-3.625-.442l-2.554,2.127a1.6,1.6,0,0,0-.205,2.247l.61.732a.139.139,0,0,1-.019.2Z" transform="translate(-5211.617 -1795.301)" fill="#451d26"/>
                    </g>
                  </g>
                </g>
                <g id="Grupo_1115984" data-name="Grupo 1115984" transform="translate(0 0.004)">
                  <g id="Grupo_1115983" data-name="Grupo 1115983">
                    <g id="Grupo_1115982" data-name="Grupo 1115982">
                      <path id="Trazado_908702" data-name="Trazado 908702" d="M5192.282,1822.357a.759.759,0,0,1-.513-.2,20.361,20.361,0,0,1-5.989-10.527.764.764,0,0,1,.924-.9c1.534.364,4.312.553,5.674-2.279a.459.459,0,0,0,.043-.151.474.474,0,0,0,0-.123c-.15-1.135-.745-6.955,2.369-10.15a.8.8,0,0,1,.452-.234.742.742,0,0,1,.49.094,8.424,8.424,0,0,0,2.084.879.139.139,0,1,1-.071.269,8.713,8.713,0,0,1-2.154-.908.466.466,0,0,0-.309-.059.523.523,0,0,0-.294.153c-3.024,3.1-2.44,8.807-2.292,9.919a.771.771,0,0,1,0,.193.732.732,0,0,1-.068.239c-1.447,3.007-4.374,2.813-5.989,2.428a.479.479,0,0,0-.433.109.485.485,0,0,0-.155.462,20.074,20.074,0,0,0,5.9,10.376.474.474,0,0,0,.231.116.484.484,0,0,0,.4-.1l29.346-24.24a.492.492,0,0,0,.177-.414.466.466,0,0,0-.232-.378c-3.507-2.049-9.112-1.359-13.2-.42a.139.139,0,0,1-.062-.271c4.132-.95,9.812-1.644,13.4.451a.747.747,0,0,1,.369.6.773.773,0,0,1-.277.647l-29.345,24.241A.765.765,0,0,1,5192.282,1822.357Z" transform="translate(-5185.765 -1795.326)" fill="#451d26"/>
                    </g>
                  </g>
                </g>
              </g>
              <g id="Grupo_1115987" data-name="Grupo 1115987" transform="translate(12.49 3.192)">
                <g id="Grupo_1115986" data-name="Grupo 1115986">
                  <path id="Trazado_908703" data-name="Trazado 908703" d="M5262.119,1820.288a.14.14,0,0,1-.12-.068,3.911,3.911,0,0,1-.354-2.992,4.119,4.119,0,0,1,1.884-2.557.139.139,0,0,1,.137.242,3.838,3.838,0,0,0-1.751,2.385,3.634,3.634,0,0,0,.324,2.778.139.139,0,0,1-.048.191A.138.138,0,0,1,5262.119,1820.288Z" transform="translate(-5261.5 -1814.654)" fill="#451d26"/>
                </g>
              </g>
              <g id="Grupo_1115989" data-name="Grupo 1115989" transform="translate(16.952 1.801)">
                <g id="Grupo_1115988" data-name="Grupo 1115988">
                  <path id="Trazado_908704" data-name="Trazado 908704" d="M5289.106,1811.275a.138.138,0,0,1-.126-.08,4.066,4.066,0,0,1-.09-3.43,2.722,2.722,0,0,1,1.5-1.536.139.139,0,1,1,.082.266,2.48,2.48,0,0,0-1.332,1.383,3.791,3.791,0,0,0,.088,3.2.139.139,0,0,1-.126.2Z" transform="translate(-5288.556 -1806.223)" fill="#451d26"/>
                </g>
              </g>
            </g>
          </g>
          <g id="Grupo_1115993" data-name="Grupo 1115993" transform="translate(55.816 136.348)">
            <g id="Grupo_1115992" data-name="Grupo 1115992">
              <path id="Trazado_908705" data-name="Trazado 908705" d="M5012.308,1497.5l-.024,0a.137.137,0,0,1-.112-.161,11.306,11.306,0,0,1,2.107-4.7.139.139,0,0,1,.214.178,11.266,11.266,0,0,0-2.049,4.571A.139.139,0,0,1,5012.308,1497.5Z" transform="translate(-5012.169 -1492.585)" fill="#451d26"/>
            </g>
          </g>
          <g id="Grupo_1115995" data-name="Grupo 1115995" transform="translate(56.455 139.386)">
            <g id="Grupo_1115994" data-name="Grupo 1115994">
              <path id="Trazado_908706" data-name="Trazado 908706" d="M5016.185,1513.838a.142.142,0,0,1-.068-.018.139.139,0,0,1-.053-.189c1.462-2.6,2.63-2.629,2.679-2.629a.139.139,0,1,1,0,.278c-.009,0-1.07.058-2.437,2.487A.138.138,0,0,1,5016.185,1513.838Z" transform="translate(-5016.045 -1511.002)" fill="#451d26"/>
            </g>
          </g>
          <g id="Grupo_1115997" data-name="Grupo 1115997" transform="translate(11.375 48.907)">
            <g id="Grupo_1115996" data-name="Grupo 1115996">
              <path id="Trazado_908707" data-name="Trazado 908707" d="M4747.321,969.217a.14.14,0,0,1-.129-.087c-2.114-5.247-4.388-6.471-4.411-6.483a.139.139,0,0,1,.128-.247c.1.05,2.388,1.284,4.542,6.626a.139.139,0,0,1-.077.181A.144.144,0,0,1,4747.321,969.217Z" transform="translate(-4742.706 -962.385)" fill="#451d26"/>
            </g>
          </g>
          <g id="Grupo_1115999" data-name="Grupo 1115999" transform="translate(39.197 0)">
            <g id="Grupo_1115998" data-name="Grupo 1115998" transform="translate(0)">
              <circle id="Elipse_11750" data-name="Elipse 11750" cx="5.432" cy="5.432" r="5.432" transform="matrix(0.079, -0.997, 0.997, 0.079, 0, 10.829)" fill="#451d26"/>
            </g>
          </g>
          <g id="Grupo_1116001" data-name="Grupo 1116001" transform="translate(43.407 3.042)">
            <g id="Grupo_1116000" data-name="Grupo 1116000">
              <path id="Trazado_908708" data-name="Trazado 908708" d="M4941.679,705.226a42.442,42.442,0,0,0-3.463-6.07c-2.031-2.894-2.021-8.4,2.737-9.937,1.071-1.823,4.312-2.818,6.779-2.995s4.664-2.167,6.428-1.919,6.451,5.943,4.218,10.689S4946.217,705.635,4941.679,705.226Z" transform="translate(-4936.931 -684.284)" fill="#451d26"/>
            </g>
          </g>
          <g id="Grupo_1116003" data-name="Grupo 1116003" transform="translate(48.855 7.475)">
            <g id="Grupo_1116002" data-name="Grupo 1116002">
              <path id="Trazado_908709" data-name="Trazado 908709" d="M4983.1,732.343c-4.192,2.077-9.6-1.32-12.354-5.174,0,0-.961-1.051-.752-3.656,1.309-.3,3.606-4.25,2.719-7,1.145-.365,2.021-3.124,1.383-5.055,3.169-.869,10.286-.125,11.128,5.983S4987.756,729.45,4983.1,732.343Z" transform="translate(-4969.965 -711.163)" fill="#ff7c6d"/>
            </g>
          </g>
          <g id="Grupo_1116005" data-name="Grupo 1116005" transform="translate(52.754 7.33)">
            <g id="Grupo_1116004" data-name="Grupo 1116004">
              <path id="Trazado_908710" data-name="Trazado 908710" d="M5000.055,732.382a10.826,10.826,0,0,1-6.4-2.5.139.139,0,0,1,.168-.221c3.166,2.408,6.429,3.072,8.953,1.822,3.959-2.461,3.2-7.28,2.4-12.382-.121-.774-.246-1.575-.356-2.371a6.368,6.368,0,0,0-2.887-4.64,10.834,10.834,0,0,0-8.066-1.228.139.139,0,1,1-.074-.268,11.089,11.089,0,0,1,8.293,1.264,6.637,6.637,0,0,1,3.01,4.834c.109.794.234,1.593.356,2.366.813,5.2,1.583,10.1-2.544,12.668A6.386,6.386,0,0,1,5000.055,732.382Z" transform="translate(-4993.605 -710.288)" fill="#451d26"/>
            </g>
          </g>
          <g id="Grupo_1116007" data-name="Grupo 1116007" transform="translate(51.623 18.207)">
            <g id="Grupo_1116006" data-name="Grupo 1116006">
              <path id="Trazado_908711" data-name="Trazado 908711" d="M4991.492,778.123a2.395,2.395,0,1,1-2.606-1.868A2.274,2.274,0,0,1,4991.492,778.123Z" transform="translate(-4986.745 -776.239)" fill="#ff6a59"/>
            </g>
          </g>
          <g id="Grupo_1116012" data-name="Grupo 1116012" transform="translate(53.29 15.506)">
            <g id="Grupo_1116011" data-name="Grupo 1116011">
              <path id="Trazado_908712" data-name="Trazado 908712" d="M4996.853,761.411c.987-2.006,3.164-2.407,4.745.89C4999.942,763.749,4997.479,763.394,4996.853,761.411Z" transform="translate(-4996.853 -759.863)" fill="#fff"/>
              <g id="Grupo_1116010" data-name="Grupo 1116010" clip-path="url(#clip-path-3)">
                <g id="Grupo_1116009" data-name="Grupo 1116009" transform="translate(1.656 0.571)">
                  <g id="Grupo_1116008" data-name="Grupo 1116008">
                    <path id="Trazado_908713" data-name="Trazado 908713" d="M5009.967,764.829a1.547,1.547,0,1,1-1.718-1.5A1.614,1.614,0,0,1,5009.967,764.829Z" transform="translate(-5006.893 -763.323)" fill="#451d26"/>
                  </g>
                </g>
              </g>
            </g>
          </g>
          <g id="Grupo_1116021" data-name="Grupo 1116021" transform="translate(60.393 14.597)">
            <g id="Grupo_1116014" data-name="Grupo 1116014" transform="translate(0.139 0.138)">
              <g id="Grupo_1116013" data-name="Grupo 1116013">
                <path id="Trazado_908715" data-name="Trazado 908715" d="M5044.191,756.306a2.263,2.263,0,0,0-1.411-1.107c-.844-.127-1.663.695-2.016,2.884A2.1,2.1,0,0,0,5044.191,756.306Z" transform="translate(-5040.765 -755.186)" fill="#fff"/>
              </g>
            </g>
            <g id="Grupo_1116016" data-name="Grupo 1116016">
              <g id="Grupo_1116015" data-name="Grupo 1116015">
                <path id="Trazado_908716" data-name="Trazado 908716" d="M5040.062,757.521l-.022,0a.139.139,0,0,1-.115-.159c.472-2.931,1.676-3.074,2.173-3a2.4,2.4,0,0,1,1.506,1.169.139.139,0,1,1-.232.153,2.136,2.136,0,0,0-1.316-1.047c-.863-.129-1.558.9-1.857,2.768A.139.139,0,0,1,5040.062,757.521Z" transform="translate(-5039.923 -754.348)" fill="#451d26"/>
              </g>
            </g>
            <g id="Grupo_1116020" data-name="Grupo 1116020" transform="translate(0.139 0.138)">
              <g id="Grupo_1116019" data-name="Grupo 1116019" clip-path="url(#clip-path-4)">
                <g id="Grupo_1116018" data-name="Grupo 1116018" transform="translate(1.273 0.38)">
                  <g id="Grupo_1116017" data-name="Grupo 1116017">
                    <path id="Trazado_908717" data-name="Trazado 908717" d="M5051.559,759a1.547,1.547,0,1,1-1.718-1.5A1.614,1.614,0,0,1,5051.559,759Z" transform="translate(-5048.484 -757.492)" fill="#451d26"/>
                  </g>
                </g>
              </g>
            </g>
          </g>
          <g id="Grupo_1116028" data-name="Grupo 1116028" transform="translate(59.419 15.569)">
            <g id="Grupo_1116023" data-name="Grupo 1116023" transform="translate(0 0.139)">
              <g id="Grupo_1116022" data-name="Grupo 1116022">
                <path id="Trazado_908719" data-name="Trazado 908719" d="M5035.3,761.085a3.325,3.325,0,0,0,.354,2.653c.5.742.9.952.383,1.482-1.352.616-1.9.3-2-.264S5034.534,761.349,5035.3,761.085Z" transform="translate(-5034.019 -761.085)" fill="#ff7c6d"/>
              </g>
            </g>
            <g id="Grupo_1116025" data-name="Grupo 1116025" transform="translate(0.036 2.694)">
              <g id="Grupo_1116024" data-name="Grupo 1116024">
                <path id="Trazado_908720" data-name="Trazado 908720" d="M5035.782,776.577a1.088,1.088,0,0,0-.542.849c-.07.2-.8.034-1,.545.144.513.694.771,1.979.185.517-.529.119-.74-.383-1.482C5035.816,776.645,5035.8,776.609,5035.782,776.577Z" transform="translate(-5034.24 -776.577)" fill="#ff6a59"/>
              </g>
            </g>
            <g id="Grupo_1116027" data-name="Grupo 1116027" transform="translate(1.002)">
              <g id="Grupo_1116026" data-name="Grupo 1116026">
                <path id="Trazado_908721" data-name="Trazado 908721" d="M5041.11,764.655a.139.139,0,0,1-.1-.236c.327-.335.235-.455-.1-.9-.088-.117-.189-.249-.294-.4a3.468,3.468,0,0,1-.366-2.786.139.139,0,1,1,.254.112,3.193,3.193,0,0,0,.342,2.519c.1.151.2.279.285.392.334.44.576.759.082,1.265A.138.138,0,0,1,5041.11,764.655Z" transform="translate(-5040.097 -760.242)" fill="#451d26"/>
              </g>
            </g>
          </g>
          <g id="Grupo_1116030" data-name="Grupo 1116030" transform="translate(44.578 18.358)">
            <g id="Grupo_1116029" data-name="Grupo 1116029">
              <path id="Trazado_908722" data-name="Trazado 908722" d="M4950.084,779.363c-2.675-3.059-5.913-2.7-6.049-.389s1.545,5.675,6.535,4.009C4950.683,780.125,4950.084,779.363,4950.084,779.363Z" transform="translate(-4944.027 -777.156)" fill="#ff7c6d"/>
            </g>
          </g>
          <g id="Grupo_1116032" data-name="Grupo 1116032" transform="translate(44.439 18.221)">
            <g id="Grupo_1116031" data-name="Grupo 1116031">
              <path id="Trazado_908723" data-name="Trazado 908723" d="M4947.416,782.87a4.177,4.177,0,0,1-2.611-.81,4.483,4.483,0,0,1-1.612-3.79,1.942,1.942,0,0,1,1.339-1.812c1.1-.377,3.06-.048,4.954,2.118a.139.139,0,1,1-.208.183c-1.688-1.931-3.554-2.414-4.655-2.038a1.656,1.656,0,0,0-1.151,1.566,4.264,4.264,0,0,0,1.5,3.552c1.15.881,2.827.991,4.847.316a.139.139,0,1,1,.088.264A7.894,7.894,0,0,1,4947.416,782.87Z" transform="translate(-4943.185 -776.323)" fill="#451d26"/>
            </g>
          </g>
          <g id="Grupo_1116034" data-name="Grupo 1116034" transform="translate(45.994 19.754)">
            <g id="Grupo_1116033" data-name="Grupo 1116033">
              <path id="Trazado_908724" data-name="Trazado 908724" d="M4956.7,788.85c-.543-2.85-2.939-3.9-4.082-2.809A5.094,5.094,0,0,1,4956.7,788.85Z" transform="translate(-4952.618 -785.619)" fill="#ff6a59"/>
            </g>
          </g>
          <g id="Grupo_1116036" data-name="Grupo 1116036" transform="translate(45.855 19.614)">
            <g id="Grupo_1116035" data-name="Grupo 1116035">
              <path id="Trazado_908725" data-name="Trazado 908725" d="M4956,788.281a.138.138,0,0,1-.136-.113,3.71,3.71,0,0,0-2.262-3.021,1.547,1.547,0,0,0-1.588.287.139.139,0,0,1-.192-.2,1.816,1.816,0,0,1,1.865-.35,3.985,3.985,0,0,1,2.45,3.234.139.139,0,0,1-.111.163Z" transform="translate(-4951.775 -784.771)" fill="#451d26"/>
            </g>
          </g>
          <g id="Grupo_1116038" data-name="Grupo 1116038" transform="translate(47.545 20.968)">
            <g id="Grupo_1116037" data-name="Grupo 1116037">
              <path id="Trazado_908726" data-name="Trazado 908726" d="M4962.6,795.237a.136.136,0,0,1-.081-.027,1.177,1.177,0,0,1-.312-1.6,1.278,1.278,0,0,1,1.71-.475.139.139,0,1,1-.121.25,1,1,0,0,0-1.351.369.9.9,0,0,0,.239,1.234.139.139,0,0,1-.083.251Z" transform="translate(-4962.022 -792.981)" fill="#451d26"/>
            </g>
          </g>
          <g id="Grupo_1116040" data-name="Grupo 1116040" transform="translate(59.274 25.27)">
            <g id="Grupo_1116039" data-name="Grupo 1116039">
              <path id="Trazado_908727" data-name="Trazado 908727" d="M5034.78,820.218a2.724,2.724,0,0,1-1.639-.531l.174-.217a2.365,2.365,0,0,0,2.155.348.878.878,0,0,0,.585-.752l.277.03a1.155,1.155,0,0,1-.755.979A2.1,2.1,0,0,1,5034.78,820.218Z" transform="translate(-5033.141 -819.066)" fill="#ff6a59"/>
            </g>
          </g>
          <g id="Grupo_1116042" data-name="Grupo 1116042" transform="translate(52.713 17.27)">
            <g id="Grupo_1116041" data-name="Grupo 1116041">
              <path id="Trazado_908728" data-name="Trazado 908728" d="M4993.5,771.018a.139.139,0,0,1-.045-.27l.53-.183a.139.139,0,1,1,.091.263l-.531.183A.136.136,0,0,1,4993.5,771.018Z" transform="translate(-4993.358 -770.557)" fill="#451d26"/>
            </g>
          </g>
          <g id="Grupo_1116044" data-name="Grupo 1116044" transform="translate(53.065 17.751)">
            <g id="Grupo_1116043" data-name="Grupo 1116043">
              <path id="Trazado_908729" data-name="Trazado 908729" d="M4995.63,774.025a.139.139,0,0,1-.084-.25l.362-.275a.139.139,0,1,1,.168.221l-.362.275A.139.139,0,0,1,4995.63,774.025Z" transform="translate(-4995.491 -773.473)" fill="#451d26"/>
            </g>
          </g>
          <g id="Grupo_1116046" data-name="Grupo 1116046" transform="translate(52.89 12.936)">
            <g id="Grupo_1116045" data-name="Grupo 1116045">
              <path id="Trazado_908730" data-name="Trazado 908730" d="M5000.1,745.645c.009.34-1.458-.176-3.025-.133s-2.641.627-2.65.287a2.88,2.88,0,0,1,2.617-1.517C4998.612,744.239,5000.1,745.3,5000.1,745.645Z" transform="translate(-4994.429 -744.281)" fill="#451d26"/>
            </g>
          </g>
          <g id="Grupo_1116048" data-name="Grupo 1116048" transform="translate(60.711 12.156)">
            <g id="Grupo_1116047" data-name="Grupo 1116047">
              <path id="Trazado_908731" data-name="Trazado 908731" d="M5045.12,740.849c.025.3-.47-.27-1.372-.194s-1.868.771-1.894.466a2.518,2.518,0,0,1,1.8-1.57C5044.559,739.476,5045.095,740.544,5045.12,740.849Z" transform="translate(-5041.854 -739.547)" fill="#451d26"/>
            </g>
          </g>
          <g id="Grupo_1116050" data-name="Grupo 1116050" transform="translate(57.202 21.484)">
            <g id="Grupo_1116049" data-name="Grupo 1116049">
              <path id="Trazado_908732" data-name="Trazado 908732" d="M5020.573,796.6c3.51.033,6.222-1.347,5.151.374C5026.412,799.489,5024.312,801.966,5020.573,796.6Z" transform="translate(-5020.573 -796.11)" fill="#ff6a59"/>
            </g>
          </g>
          <g id="Grupo_1116052" data-name="Grupo 1116052" transform="translate(56.868 21.708)">
            <g id="Grupo_1116051" data-name="Grupo 1116051">
              <path id="Trazado_908733" data-name="Trazado 908733" d="M5022.614,799.019a8.466,8.466,0,0,1-4-1.294.139.139,0,1,1,.136-.242c2.764,1.551,4.536,1.419,5.053.951a.245.245,0,0,0,.1-.27.139.139,0,0,1,.255-.111.507.507,0,0,1-.167.587A2.1,2.1,0,0,1,5022.614,799.019Z" transform="translate(-5018.547 -797.465)" fill="#451d26"/>
            </g>
          </g>
          <g id="Grupo_1116054" data-name="Grupo 1116054" transform="translate(52.675 15.358)">
            <g id="Grupo_1116053" data-name="Grupo 1116053">
              <path id="Trazado_908734" data-name="Trazado 908734" d="M4998.482,761.691a.139.139,0,0,1-.124-.076c-.787-1.551-1.676-2.37-2.573-2.37h-.006a2.392,2.392,0,0,0-1.917,1.48.139.139,0,0,1-.226.033l-.476-.506a.139.139,0,1,1,.2-.191l.344.365a2.572,2.572,0,0,1,2.073-1.46h.006c.705,0,1.764.439,2.821,2.523a.139.139,0,0,1-.061.187A.142.142,0,0,1,4998.482,761.691Z" transform="translate(-4993.123 -758.966)" fill="#451d26"/>
            </g>
          </g>
          <g id="Grupo_1116056" data-name="Grupo 1116056" transform="translate(63.819 15.174)">
            <g id="Grupo_1116055" data-name="Grupo 1116055">
              <path id="Trazado_908735" data-name="Trazado 908735" d="M5060.836,758.67a.138.138,0,0,1-.094-.036.14.14,0,0,1-.01-.2l.493-.542a.139.139,0,1,1,.205.187l-.492.542A.139.139,0,0,1,5060.836,758.67Z" transform="translate(-5060.697 -757.85)" fill="#451d26"/>
            </g>
          </g>
          <g id="Grupo_1116058" data-name="Grupo 1116058" transform="translate(34.781 26.826)">
            <g id="Grupo_1116057" data-name="Grupo 1116057">
              <path id="Trazado_908736" data-name="Trazado 908736" d="M4913.45,845.629c-.117-.176-1.368-4.06-2.167-6.945a6.5,6.5,0,0,0-.926-.436c-.887-.324-1.562-.582-2.086-.789a62.088,62.088,0,0,1,3.578,11.972s-7.469,2.267-16.872-2.934c0,0-.823-9.995-.813-14.859-1.56-1.5-3.015-2.87-4.907-3.141,0,0,2.968,20.745-4.628,25.265a35.746,35.746,0,0,0,5.987,10.223c2.317,2.878,1.359,6.155,0,7.114h20.142c-.319-6.474,5.355-10.63,6.155-13.668C4916.973,855.629,4917.451,850.031,4913.45,845.629Z" transform="translate(-4884.628 -828.497)" fill="#6693a3"/>
            </g>
          </g>
        </g>
        <g id="Grupo_1116084" data-name="Grupo 1116084" transform="translate(30.254 159.519)">
          <g id="Grupo_1116061" data-name="Grupo 1116061" transform="translate(3.462)">
            <g id="Grupo_1116060" data-name="Grupo 1116060">
              <path id="Trazado_908737" data-name="Trazado 908737" d="M4636.672,1516.277a5.849,5.849,0,1,0,10.3-5.542c-1.53-2.845-7.977-9.3-10.822-7.771S4635.142,1513.432,4636.672,1516.277Z" transform="translate(-4634.663 -1502.732)" fill="#ffcc63"/>
            </g>
          </g>
          <g id="Grupo_1116063" data-name="Grupo 1116063" transform="translate(9.875 7.964)">
            <g id="Grupo_1116062" data-name="Grupo 1116062">
              <path id="Trazado_908738" data-name="Trazado 908738" d="M4687.822,1618.388h-.008a.14.14,0,0,1-.132-.146c.016-.3,1.381-29.923-8.9-56.005a86.974,86.974,0,0,0-5.221-11.008.139.139,0,1,1,.242-.137,87.331,87.331,0,0,1,5.238,11.044c10.3,26.139,8.932,55.824,8.917,56.121A.139.139,0,0,1,4687.822,1618.388Z" transform="translate(-4673.545 -1551.021)" fill="#451d26"/>
            </g>
          </g>
          <g id="Grupo_1116068" data-name="Grupo 1116068" transform="translate(0 20.461)">
            <g id="Grupo_1116065" data-name="Grupo 1116065">
              <g id="Grupo_1116064" data-name="Grupo 1116064">
                <path id="Trazado_908739" data-name="Trazado 908739" d="M4622.937,1638.685a5.849,5.849,0,1,0,4.116-10.951c-3.024-1.136-12.127-1.76-13.264,1.264S4619.913,1637.549,4622.937,1638.685Z" transform="translate(-4613.669 -1626.797)" fill="#ffcc63"/>
              </g>
            </g>
            <g id="Grupo_1116067" data-name="Grupo 1116067" transform="translate(8.971 4.663)">
              <g id="Grupo_1116066" data-name="Grupo 1116066">
                <path id="Trazado_908740" data-name="Trazado 908740" d="M4676.059,1658.567a.136.136,0,0,1-.059-.013,83.841,83.841,0,0,0-7.842-3.215.139.139,0,0,1,.091-.262,84.03,84.03,0,0,1,7.869,3.226.139.139,0,0,1-.059.265Z" transform="translate(-4668.064 -1655.068)" fill="#451d26"/>
              </g>
            </g>
          </g>
          <g id="Grupo_1116073" data-name="Grupo 1116073" transform="translate(17.537 13.891)">
            <g id="Grupo_1116070" data-name="Grupo 1116070">
              <g id="Grupo_1116069" data-name="Grupo 1116069">
                <path id="Trazado_908741" data-name="Trazado 908741" d="M4730.107,1600.273a5.849,5.849,0,1,1-8.509-8.028c2.216-2.35,10.12-6.91,12.469-4.693S4732.324,1597.924,4730.107,1600.273Z" transform="translate(-4720.003 -1586.961)" fill="#ffa763"/>
              </g>
            </g>
            <g id="Grupo_1116072" data-name="Grupo 1116072" transform="translate(1.571 6.739)">
              <g id="Grupo_1116071" data-name="Grupo 1116071">
                <path id="Trazado_908742" data-name="Trazado 908742" d="M4729.668,1634.172a.139.139,0,0,1-.108-.227c1.754-2.163,3.581-4.209,5.431-6.083a.139.139,0,0,1,.2.2c-1.844,1.867-3.665,3.906-5.413,6.063A.137.137,0,0,1,4729.668,1634.172Z" transform="translate(-4729.529 -1627.821)" fill="#451d26"/>
              </g>
            </g>
          </g>
          <g id="Grupo_1116078" data-name="Grupo 1116078" transform="translate(4.102 35.568)">
            <g id="Grupo_1116075" data-name="Grupo 1116075">
              <g id="Grupo_1116074" data-name="Grupo 1116074">
                <path id="Trazado_908743" data-name="Trazado 908743" d="M4647.274,1730.451a5.849,5.849,0,1,0,4.745-10.693c-2.953-1.31-12-2.462-13.314.491S4644.322,1729.14,4647.274,1730.451Z" transform="translate(-4638.542 -1718.395)" fill="#ffcc63"/>
              </g>
            </g>
            <g id="Grupo_1116077" data-name="Grupo 1116077" transform="translate(8.848 4.833)">
              <g id="Grupo_1116076" data-name="Grupo 1116076">
                <path id="Trazado_908744" data-name="Trazado 908744" d="M4699.986,1751.647a.135.135,0,0,1-.066-.017,83.909,83.909,0,0,0-7.643-3.665.139.139,0,0,1,.107-.257,84.078,84.078,0,0,1,7.668,3.677.139.139,0,0,1-.066.261Z" transform="translate(-4692.191 -1747.698)" fill="#451d26"/>
              </g>
            </g>
          </g>
          <g id="Grupo_1116083" data-name="Grupo 1116083" transform="translate(21.612 30.379)">
            <g id="Grupo_1116080" data-name="Grupo 1116080">
              <g id="Grupo_1116079" data-name="Grupo 1116079">
                <path id="Trazado_908745" data-name="Trazado 908745" d="M4754.579,1700.109a5.849,5.849,0,1,1-8.028-8.509c2.35-2.217,10.5-6.311,12.721-3.961S4756.929,1697.892,4754.579,1700.109Z" transform="translate(-4744.715 -1686.934)" fill="#ffcc63"/>
              </g>
            </g>
            <g id="Grupo_1116082" data-name="Grupo 1116082" transform="translate(1.366 6.439)">
              <g id="Grupo_1116081" data-name="Grupo 1116081">
                <path id="Trazado_908746" data-name="Trazado 908746" d="M4753.136,1732a.139.139,0,0,1-.1-.233c1.877-2.058,3.82-4,5.775-5.757a.139.139,0,1,1,.186.207c-1.948,1.756-3.884,3.686-5.755,5.738A.137.137,0,0,1,4753.136,1732Z" transform="translate(-4752.996 -1725.976)" fill="#451d26"/>
              </g>
            </g>
          </g>
        </g>
        <g id="Grupo_1116086" data-name="Grupo 1116086" transform="translate(55.365 204.769)">
          <g id="Grupo_1116085" data-name="Grupo 1116085" transform="translate(0)">
            <path id="Trazado_908747" data-name="Trazado 908747" d="M4765.927,1806.9c8.57-23.534,31.559-29.791,32.92-29.791C4787.692,1794.517,4765.927,1806.9,4765.927,1806.9Z" transform="translate(-4765.927 -1777.105)" fill="#628056"/>
          </g>
        </g>
        <g id="Grupo_1116088" data-name="Grupo 1116088" transform="translate(0 181.78)">
          <g id="Grupo_1116087" data-name="Grupo 1116087" transform="translate(0 0)">
            <path id="Trazado_908748" data-name="Trazado 908748" d="M4482.868,1690.082c-11.018-39.585-43.258-52.372-52.644-52.372C4459.2,1660.427,4482.868,1690.082,4482.868,1690.082Z" transform="translate(-4430.224 -1637.71)" fill="#628056"/>
          </g>
        </g>
        <g id="Grupo_1116147" data-name="Grupo 1116147" transform="translate(202.717 104.474)">
          <g id="Grupo_1116095" data-name="Grupo 1116095" transform="translate(37.912 81.447)">
            <g id="Grupo_1116090" data-name="Grupo 1116090" transform="translate(8.059 15.564)">
              <g id="Grupo_1116089" data-name="Grupo 1116089">
                <path id="Trazado_908749" data-name="Trazado 908749" d="M5938.212,1757.2c-.158,1.265,0,34.326,0,34.326h3.8l5.379-6.486.316-26.417Z" transform="translate(-5938.142 -1757.199)" fill="#824648"/>
              </g>
            </g>
            <g id="Grupo_1116092" data-name="Grupo 1116092" transform="translate(0 0)">
              <g id="Grupo_1116091" data-name="Grupo 1116091">
                <circle id="Elipse_11751" data-name="Elipse 11751" cx="9.491" cy="9.491" r="9.491" transform="translate(0 7.264) rotate(-22.5)" fill="#cca281"/>
              </g>
            </g>
            <g id="Grupo_1116094" data-name="Grupo 1116094" transform="translate(8.092 40.399)">
              <g id="Grupo_1116093" data-name="Grupo 1116093">
                <path id="Trazado_908750" data-name="Trazado 908750" d="M5938.338,1907.786c.018,5.376.038,9.491.038,9.491h3.8l5.378-6.486.037-3.005Z" transform="translate(-5938.338 -1907.786)" fill="#451d26"/>
              </g>
            </g>
          </g>
          <g id="Grupo_1116102" data-name="Grupo 1116102" transform="translate(87.635 81.447)">
            <g id="Grupo_1116097" data-name="Grupo 1116097" transform="translate(8.059 15.564)">
              <g id="Grupo_1116096" data-name="Grupo 1116096">
                <path id="Trazado_908751" data-name="Trazado 908751" d="M6239.705,1757.2c-.159,1.265,0,34.326,0,34.326h3.8l5.378-6.486.316-26.417Z" transform="translate(-6239.635 -1757.199)" fill="#824648"/>
              </g>
            </g>
            <g id="Grupo_1116099" data-name="Grupo 1116099" transform="translate(0 0)">
              <g id="Grupo_1116098" data-name="Grupo 1116098" transform="translate(0)">
                <circle id="Elipse_11752" data-name="Elipse 11752" cx="9.491" cy="9.491" r="9.491" transform="translate(0 7.264) rotate(-22.5)" fill="#cca281"/>
              </g>
            </g>
            <g id="Grupo_1116101" data-name="Grupo 1116101" transform="translate(8.092 40.399)">
              <g id="Grupo_1116100" data-name="Grupo 1116100">
                <path id="Trazado_908752" data-name="Trazado 908752" d="M6239.83,1907.786c.018,5.376.038,9.491.038,9.491h3.8l5.378-6.486.037-3.005Z" transform="translate(-6239.83 -1907.786)" fill="#451d26"/>
              </g>
            </g>
          </g>
          <g id="Grupo_1116104" data-name="Grupo 1116104" transform="translate(17.558 9.852)">
            <g id="Grupo_1116103" data-name="Grupo 1116103">
              <path id="Trazado_908753" data-name="Trazado 908753" d="M5765.858,1244.3l9.977,16.364.752,25.057a28.448,28.448,0,0,0,28.46,27.619h43.71a28.463,28.463,0,0,0,28.474-28.473v-15.027a28.474,28.474,0,0,0-28.474-28.473h-43.184l-18.192-12.655Z" transform="translate(-5765.858 -1228.708)" fill="#e6be9f"/>
            </g>
          </g>
          <g id="Grupo_1116106" data-name="Grupo 1116106" transform="translate(17.419 9.713)">
            <g id="Grupo_1116105" data-name="Grupo 1116105">
              <path id="Trazado_908754" data-name="Trazado 908754" d="M5848.054,1312.772h-43.71a28.589,28.589,0,0,1-28.6-27.754l-.751-25.02-9.957-16.332a.138.138,0,0,1,.038-.185l21.522-15.589a.14.14,0,0,1,.162,0l18.156,12.63h43.14a28.614,28.614,0,0,1,28.613,28.612v15.028a28.6,28.6,0,0,1-28.613,28.612Zm-82.713-69.141,9.909,16.254a.137.137,0,0,1,.021.068l.752,25.057a28.309,28.309,0,0,0,28.321,27.484h43.71a28.322,28.322,0,0,0,28.334-28.334v-15.028a28.334,28.334,0,0,0-28.334-28.334H5804.87a.137.137,0,0,1-.079-.025l-18.11-12.6Z" transform="translate(-5765.016 -1227.865)" fill="#451d26"/>
            </g>
          </g>
          <g id="Grupo_1116111" data-name="Grupo 1116111" transform="translate(11.44 1.863)">
            <g id="Grupo_1116108" data-name="Grupo 1116108">
              <g id="Grupo_1116107" data-name="Grupo 1116107">
                <path id="Trazado_908755" data-name="Trazado 908755" d="M5744.733,1183.451c-4.983-.769-6.553-4.57-15.975-2.648C5729.988,1186.056,5737.088,1188.49,5744.733,1183.451Z" transform="translate(-5728.759 -1180.266)" fill="#824648"/>
              </g>
            </g>
            <g id="Grupo_1116110" data-name="Grupo 1116110" transform="translate(0 0.536)">
              <g id="Grupo_1116109" data-name="Grupo 1116109">
                <path id="Trazado_908756" data-name="Trazado 908756" d="M5744.733,1186.167c-5.871.854-8.26-1.367-15.975-2.648C5729.988,1188.772,5737.088,1191.206,5744.733,1186.167Z" transform="translate(-5728.759 -1183.519)" fill="#451d26"/>
              </g>
            </g>
          </g>
          <g id="Grupo_1116113" data-name="Grupo 1116113" transform="translate(0.139 2.338)">
            <g id="Grupo_1116112" data-name="Grupo 1116112">
              <path id="Trazado_908757" data-name="Trazado 908757" d="M5687.471,1183.15c-2.981,0-7.988,2.451-7.988,2.451l-19.219,12.18c-.475,5.774,4.667,9.333,9.886,8.621a38.169,38.169,0,0,1,7.5-.15,13.639,13.639,0,1,0,9.818-23.1Z" transform="translate(-5660.233 -1183.15)" fill="#824648"/>
            </g>
          </g>
          <g id="Grupo_1116115" data-name="Grupo 1116115" transform="translate(0 2.199)">
            <g id="Grupo_1116114" data-name="Grupo 1116114">
              <path id="Trazado_908758" data-name="Trazado 908758" d="M5686.77,1209.872a13.662,13.662,0,0,1-9.881-4.188,38.317,38.317,0,0,0-7.422.153,9.348,9.348,0,0,1-7.66-2.325,7.811,7.811,0,0,1-2.383-6.445.141.141,0,0,1,.064-.106l19.219-12.18c.218-.108,5.083-2.473,8.063-2.473a.139.139,0,0,1,0,.278c-2.915,0-7.877,2.413-7.927,2.438l-19.147,12.135a7.528,7.528,0,0,0,2.3,6.152,9.065,9.065,0,0,0,7.432,2.252,38.724,38.724,0,0,1,7.531-.151.14.14,0,0,1,.091.042,13.388,13.388,0,0,0,9.718,4.141,13.564,13.564,0,0,0,11.671-6.7.138.138,0,0,1,.189-.05.14.14,0,0,1,.051.19A13.844,13.844,0,0,1,5686.77,1209.872Z" transform="translate(-5659.393 -1182.307)" fill="#451d26"/>
            </g>
          </g>
          <g id="Grupo_1116117" data-name="Grupo 1116117" transform="translate(0.03 16.831)">
            <g id="Grupo_1116116" data-name="Grupo 1116116">
              <path id="Trazado_908759" data-name="Trazado 908759" d="M5662.446,1272.517a5.444,5.444,0,0,1-1.237-.134c-.9-.212-1.5-.644-1.63-1.185a.139.139,0,0,1,.27-.066c.106.43.638.8,1.423.981a6.579,6.579,0,0,0,3.537-.288.139.139,0,1,1,.091.262A7.54,7.54,0,0,1,5662.446,1272.517Z" transform="translate(-5659.575 -1271.025)" fill="#451d26"/>
            </g>
          </g>
          <g id="Grupo_1116119" data-name="Grupo 1116119" transform="translate(1.36 17.859)">
            <g id="Grupo_1116118" data-name="Grupo 1116118">
              <path id="Trazado_908760" data-name="Trazado 908760" d="M5669.138,1282.879a.138.138,0,0,1-.122-.071,10.1,10.1,0,0,1-1.361-5.419.139.139,0,0,1,.276.026,10.024,10.024,0,0,0,1.328,5.258.139.139,0,0,1-.122.206Z" transform="translate(-5667.641 -1277.262)" fill="#451d26"/>
            </g>
          </g>
          <g id="Grupo_1116121" data-name="Grupo 1116121" transform="translate(17.055 11.552)">
            <g id="Grupo_1116120" data-name="Grupo 1116120" transform="translate(0 0)">
              <circle id="Elipse_11753" data-name="Elipse 11753" cx="1.345" cy="1.345" r="1.345" transform="translate(0 2.654) rotate(-80.782)" fill="#451d26"/>
            </g>
          </g>
          <g id="Grupo_1116126" data-name="Grupo 1116126" transform="translate(30.224 0)">
            <g id="Grupo_1116123" data-name="Grupo 1116123">
              <g id="Grupo_1116122" data-name="Grupo 1116122">
                <path id="Trazado_908761" data-name="Trazado 908761" d="M5842.653,1174.869c5.774-1.424,7.593-8.463,18.508-4.9C5859.737,1179.694,5851.512,1184.2,5842.653,1174.869Z" transform="translate(-5842.653 -1168.972)" fill="#824648"/>
              </g>
            </g>
            <g id="Grupo_1116125" data-name="Grupo 1116125" transform="translate(0 0.994)">
              <g id="Grupo_1116124" data-name="Grupo 1116124">
                <path id="Trazado_908762" data-name="Trazado 908762" d="M5842.653,1179.9c6.8,1.582,9.571-2.531,18.508-4.9C5859.737,1184.724,5851.512,1189.233,5842.653,1179.9Z" transform="translate(-5842.653 -1174.996)" fill="#451d26"/>
              </g>
            </g>
          </g>
          <g id="Grupo_1116128" data-name="Grupo 1116128" transform="translate(115.504 25.847)">
            <g id="Grupo_1116127" data-name="Grupo 1116127" transform="translate(0 0)">
              <circle id="Elipse_11754" data-name="Elipse 11754" cx="7.593" cy="7.593" r="7.593" transform="translate(0 10.738) rotate(-45)" fill="#e6be9f"/>
            </g>
          </g>
          <g id="Grupo_1116137" data-name="Grupo 1116137" transform="translate(56.104 81.447)">
            <g id="Grupo_1116130" data-name="Grupo 1116130" transform="translate(8.059 15.564)">
              <g id="Grupo_1116129" data-name="Grupo 1116129">
                <path id="Trazado_908763" data-name="Trazado 908763" d="M6048.516,1757.2c-.159,1.265,0,34.326,0,34.326h3.8l5.379-6.486.316-26.417Z" transform="translate(-6048.445 -1757.199)" fill="#824648"/>
              </g>
            </g>
            <g id="Grupo_1116132" data-name="Grupo 1116132" transform="translate(0 0)">
              <g id="Grupo_1116131" data-name="Grupo 1116131">
                <circle id="Elipse_11755" data-name="Elipse 11755" cx="9.491" cy="9.491" r="9.491" transform="translate(0 7.264) rotate(-22.5)" fill="#e6be9f"/>
              </g>
            </g>
            <g id="Grupo_1116134" data-name="Grupo 1116134" transform="translate(2.771 2.771)">
              <g id="Grupo_1116133" data-name="Grupo 1116133">
                <path id="Trazado_908764" data-name="Trazado 908764" d="M6026.006,1698.885a9.63,9.63,0,1,1,0-19.26.139.139,0,1,1,0,.278,9.352,9.352,0,1,0,0,18.7.139.139,0,1,1,0,.278Z" transform="translate(-6016.376 -1679.625)" fill="#451d26"/>
              </g>
            </g>
            <g id="Grupo_1116136" data-name="Grupo 1116136" transform="translate(8.092 40.399)">
              <g id="Grupo_1116135" data-name="Grupo 1116135">
                <path id="Trazado_908765" data-name="Trazado 908765" d="M6048.641,1907.786c.019,5.376.038,9.491.038,9.491h3.8l5.379-6.486.036-3.005Z" transform="translate(-6048.641 -1907.786)" fill="#451d26"/>
              </g>
            </g>
          </g>
          <g id="Grupo_1116146" data-name="Grupo 1116146" transform="translate(93.582 65.406)">
            <g id="Grupo_1116139" data-name="Grupo 1116139" transform="translate(20.304 31.605)">
              <g id="Grupo_1116138" data-name="Grupo 1116138">
                <path id="Trazado_908766" data-name="Trazado 908766" d="M6350.007,1757.2c-.158,1.265,0,34.326,0,34.326h3.8l5.378-6.486.316-26.417Z" transform="translate(-6349.937 -1757.199)" fill="#824648"/>
              </g>
            </g>
            <g id="Grupo_1116141" data-name="Grupo 1116141" transform="translate(0 0)">
              <g id="Grupo_1116140" data-name="Grupo 1116140">
                <circle id="Elipse_11756" data-name="Elipse 11756" cx="15.581" cy="15.581" r="15.581" transform="translate(0 22.035) rotate(-45)" fill="#e6be9f"/>
              </g>
            </g>
            <g id="Grupo_1116143" data-name="Grupo 1116143" transform="translate(6.315 6.315)">
              <g id="Grupo_1116142" data-name="Grupo 1116142">
                <path id="Trazado_908767" data-name="Trazado 908767" d="M6280.836,1635.292a15.72,15.72,0,1,1,0-31.44.139.139,0,0,1,0,.278,15.442,15.442,0,0,0,0,30.884.139.139,0,0,1,0,.278Z" transform="translate(-6265.116 -1603.852)" fill="#451d26"/>
              </g>
            </g>
            <g id="Grupo_1116145" data-name="Grupo 1116145" transform="translate(20.336 56.44)">
              <g id="Grupo_1116144" data-name="Grupo 1116144">
                <path id="Trazado_908768" data-name="Trazado 908768" d="M6350.134,1907.786c.018,5.376.037,9.491.037,9.491h3.8l5.378-6.486.036-3.005Z" transform="translate(-6350.134 -1907.786)" fill="#451d26"/>
              </g>
            </g>
          </g>
        </g>
        <g id="Grupo_1116152" data-name="Grupo 1116152" transform="translate(205.944 201.504)">
          <g id="Grupo_1116149" data-name="Grupo 1116149" transform="translate(0 1.718)">
            <g id="Grupo_1116148" data-name="Grupo 1116148">
              <path id="Trazado_908769" data-name="Trazado 908769" d="M5690.623,1796.084c-12.034-12.048-11.661-28.359-11.661-28.359C5688.234,1777.229,5690.623,1796.084,5690.623,1796.084Z" transform="translate(-5678.961 -1767.725)" fill="#83a973"/>
            </g>
          </g>
          <g id="Grupo_1116151" data-name="Grupo 1116151" transform="translate(11.298 0)">
            <g id="Grupo_1116150" data-name="Grupo 1116150">
              <path id="Trazado_908770" data-name="Trazado 908770" d="M5747.469,1787.559a44.929,44.929,0,0,0,8.3-30.252C5747.683,1768.457,5747.469,1787.559,5747.469,1787.559Z" transform="translate(-5747.469 -1757.307)" fill="#83a973"/>
            </g>
          </g>
        </g>
        <g id="Grupo_1116157" data-name="Grupo 1116157" transform="translate(329.74 213.91)">
          <g id="Grupo_1116154" data-name="Grupo 1116154" transform="translate(0 1.075)">
            <g id="Grupo_1116153" data-name="Grupo 1116153">
              <path id="Trazado_908771" data-name="Trazado 908771" d="M6436.89,1856.8c-7.533-7.54-7.3-17.749-7.3-17.749C6435.395,1845,6436.89,1856.8,6436.89,1856.8Z" transform="translate(-6429.591 -1839.054)" fill="#83a973"/>
            </g>
          </g>
          <g id="Grupo_1116156" data-name="Grupo 1116156" transform="translate(7.071 0)">
            <g id="Grupo_1116155" data-name="Grupo 1116155">
              <path id="Trazado_908772" data-name="Trazado 908772" d="M6472.467,1851.468a28.122,28.122,0,0,0,5.2-18.934C6472.6,1839.512,6472.467,1851.468,6472.467,1851.468Z" transform="translate(-6472.467 -1832.534)" fill="#83a973"/>
            </g>
          </g>
        </g>
        <g id="Grupo_1116171" data-name="Grupo 1116171" transform="translate(210.12 59.352)">
          <g id="Grupo_1116160" data-name="Grupo 1116160" transform="translate(0.098 0.098)">
            <g id="Grupo_1116159" data-name="Grupo 1116159" transform="translate(0 0)">
              <g id="Grupo_1116158" data-name="Grupo 1116158">
                <path id="Trazado_908773" data-name="Trazado 908773" d="M5911.268,825.5a6.148,6.148,0,0,1-1.666-4.585v-3.041a6.148,6.148,0,0,1,1.666-4.585,7.586,7.586,0,0,1,9.427,0,6.239,6.239,0,0,1,1.654,4.634v2.992a6.138,6.138,0,0,1-1.667,4.6,7.59,7.59,0,0,1-9.414-.012Zm19.984-13.513h6.057l-18.487,35.369h-6.057Zm-14.461,9.755a1.691,1.691,0,0,0,.279-1.046v-2.676a1.548,1.548,0,0,0-.279-.985,1.118,1.118,0,0,0-1.63,0,1.64,1.64,0,0,0-.28,1.034v2.627a1.685,1.685,0,0,0,.28,1.058.979.979,0,0,0,.815.353A.966.966,0,0,0,5916.79,821.739Zm12.065,24.338a6.144,6.144,0,0,1-1.666-4.585v-3.041a6.144,6.144,0,0,1,1.666-4.585,7.584,7.584,0,0,1,9.426,0,6.238,6.238,0,0,1,1.654,4.634v2.992a6.139,6.139,0,0,1-1.666,4.6,7.59,7.59,0,0,1-9.414-.012Zm5.522-3.758a1.69,1.69,0,0,0,.28-1.046V838.6a1.549,1.549,0,0,0-.28-.985,1.117,1.117,0,0,0-1.629,0,1.631,1.631,0,0,0-.28,1.034v2.627a1.675,1.675,0,0,0,.28,1.058.975.975,0,0,0,.814.353A.964.964,0,0,0,5934.377,842.319Z" transform="translate(-5909.602 -811.644)" fill="#e2e9fb"/>
              </g>
            </g>
          </g>
          <g id="Grupo_1116163" data-name="Grupo 1116163">
            <g id="Grupo_1116162" data-name="Grupo 1116162" transform="translate(0 0)">
              <g id="Grupo_1116161" data-name="Grupo 1116161">
                <path id="Trazado_908774" data-name="Trazado 908774" d="M5932.818,847.073a6.541,6.541,0,0,1-4.776-1.67,6.266,6.266,0,0,1-1.7-4.655v-3.041a6.266,6.266,0,0,1,1.7-4.655,6.541,6.541,0,0,1,4.776-1.671.1.1,0,0,1,0,.2,6.355,6.355,0,0,0-4.638,1.614,6.077,6.077,0,0,0-1.637,4.515v3.041a6.077,6.077,0,0,0,1.637,4.515,7.493,7.493,0,0,0,9.276.012,6.071,6.071,0,0,0,1.637-4.527v-2.992a.1.1,0,0,1,.2,0v2.992a6.256,6.256,0,0,1-1.7,4.668A6.572,6.572,0,0,1,5932.818,847.073Zm-14.742-.365h-6.057a.1.1,0,0,1-.087-.144l18.487-35.37a.1.1,0,1,1,.174.091l-18.412,35.226h5.894a.1.1,0,1,1,0,.2Zm14.742-4.67a.1.1,0,1,1,0-.2.863.863,0,0,0,.736-.326,1.609,1.609,0,0,0,.26-.986v-2.676a1.464,1.464,0,0,0-.258-.924,1.021,1.021,0,0,0-1.476,0,1.553,1.553,0,0,0-.259.973v2.627a.1.1,0,1,1-.2,0V837.9a1.737,1.737,0,0,1,.3-1.095,1.215,1.215,0,0,1,1.784,0,1.649,1.649,0,0,1,.3,1.046v2.676a1.792,1.792,0,0,1-.3,1.106A1.062,1.062,0,0,1,5932.818,842.038Zm-17.588-15.544a6.543,6.543,0,0,1-4.776-1.67,6.267,6.267,0,0,1-1.7-4.655v-3.041a6.267,6.267,0,0,1,1.7-4.656,7.682,7.682,0,0,1,9.565,0,6.364,6.364,0,0,1,1.683,4.7.1.1,0,1,1-.2,0,6.174,6.174,0,0,0-1.625-4.564,7.49,7.49,0,0,0-9.288,0,6.078,6.078,0,0,0-1.637,4.516v3.041a6.078,6.078,0,0,0,1.637,4.515,7.494,7.494,0,0,0,9.276.012.1.1,0,1,1,.137.141A6.571,6.571,0,0,1,5915.23,826.493Zm0-5.035a1.075,1.075,0,0,1-.892-.39,1.78,1.78,0,0,1-.3-1.119v-2.627a.1.1,0,0,1,.2,0v2.627a1.594,1.594,0,0,0,.259,1,.876.876,0,0,0,.737.316.864.864,0,0,0,.737-.326,1.606,1.606,0,0,0,.26-.986v-2.676a1.461,1.461,0,0,0-.26-.924.876.876,0,0,0-.737-.315.1.1,0,1,1,0-.2,1.077,1.077,0,0,1,.892.39,1.652,1.652,0,0,1,.3,1.046v2.676a1.792,1.792,0,0,1-.3,1.106A1.064,1.064,0,0,1,5915.23,821.458Z" transform="translate(-5908.759 -810.801)" fill="#451d26"/>
              </g>
            </g>
          </g>
        </g>
        <g id="Grupo_1116165" data-name="Grupo 1116165" transform="translate(230.675 19.974)">
          <g id="Grupo_1116164" data-name="Grupo 1116164" transform="translate(0 0)">
            <path id="Trazado_908775" data-name="Trazado 908775" d="M5829.058,670.427a.139.139,0,0,1-.1-.237l13.543-13.543a.14.14,0,0,1,.1-.041h46.831a.139.139,0,0,1,0,.278h-46.773l-13.5,13.5A.137.137,0,0,1,5829.058,670.427Z" transform="translate(-5828.919 -656.606)" fill="#451d26"/>
          </g>
        </g>
        <g id="Grupo_1116167" data-name="Grupo 1116167" transform="translate(244.91 7.067)">
          <g id="Grupo_1116166" data-name="Grupo 1116166" transform="translate(0 0)">
            <circle id="Elipse_11757" data-name="Elipse 11757" cx="3.264" cy="3.264" r="3.264" transform="translate(0 4.615) rotate(-45)" fill="#e9595c"/>
          </g>
        </g>
        <g id="Grupo_1116169" data-name="Grupo 1116169" transform="translate(257.14 8.854)">
          <g id="Grupo_1116168" data-name="Grupo 1116168" transform="translate(0 0)">
            <path id="Trazado_908776" data-name="Trazado 908776" d="M6010.435,594.728h-18.276a2.771,2.771,0,0,1-2.773-2.774h0a2.773,2.773,0,0,1,2.773-2.774h18.276a2.773,2.773,0,0,1,2.773,2.774h0a2.772,2.772,0,0,1-2.773,2.774Z" transform="translate(-5989.386 -589.18)" fill="#e2e9fb"/>
          </g>
        </g>
      </g>
    </g>
  </g>
</svg>
