<svg xmlns="http://www.w3.org/2000/svg" xmlns:xlink="http://www.w3.org/1999/xlink" width="117.999" height="118" viewBox="0 0 117.999 118">
  <defs>
    <filter id="Trazado_874925" x="-0.001" y="0" width="117.999" height="118" filterUnits="userSpaceOnUse">
      <feOffset dy="3" input="SourceAlpha"/>
      <feGaussianBlur stdDeviation="3" result="blur"/>
      <feFlood flood-opacity="0.161"/>
      <feComposite operator="in" in2="blur"/>
      <feComposite in="SourceGraphic"/>
    </filter>
  </defs>
  <g id="Grupo_1119547" data-name="Grupo 1119547" transform="translate(-11523.191 7325)">
    <g id="Grupo_1111552" data-name="Grupo 1111552" transform="translate(10723.69 -9836.157)">
      <g id="Grupo_1111316" data-name="Grupo 1111316" transform="translate(808.5 2517.157)">
        <g id="Grupo_1109835" data-name="Grupo 1109835" transform="translate(0 0)">
          <g id="Grupo_1107913" data-name="Grupo 1107913" transform="translate(0 0)">
            <g transform="matrix(1, 0, 0, 1, -9, -6)" filter="url(#Trazado_874925)">
              <g id="Trazado_874925-2" data-name="Trazado 874925" transform="translate(9 6)" fill="#9cc8ff" opacity="0.859">
                <path d="M 49.99972534179688 98.4998779296875 C 43.45164108276367 98.4998779296875 37.10022354125977 97.21776580810547 31.12189674377441 94.68914794921875 C 25.34676742553711 92.24647521972656 20.15985298156738 88.74925994873047 15.70523929595947 84.29464721679688 C 11.25062561035156 79.84004974365234 7.753411293029785 74.65313720703125 5.310725212097168 68.87800598144531 C 2.782111167907715 62.89969253540039 1.499996781349182 56.54829406738281 1.499996781349182 50.00022125244141 C 1.499996781349182 43.45157623291016 2.782111167907715 37.10017776489258 5.310725212097168 31.12186431884766 C 7.753411293029785 25.34673500061035 11.25062561035156 20.15983581542969 15.70523929595947 15.70522117614746 C 20.15985298156738 11.25062084197998 25.34676742553711 7.753406524658203 31.12189674377441 5.31073522567749 C 37.10022354125977 2.782120943069458 43.45164108276367 1.500006556510925 49.99972534179688 1.500006556510925 C 56.54780960083008 1.500006556510925 62.89922714233398 2.782120943069458 68.87755584716797 5.31073522567749 C 74.65267944335938 7.753406524658203 79.839599609375 11.25062084197998 84.29421234130859 15.70522117614746 C 88.74882507324219 20.15983581542969 92.24604034423828 25.34673500061035 94.68872833251953 31.12186431884766 C 97.21733856201172 37.10017776489258 98.49945068359375 43.45157623291016 98.49945068359375 49.99964904785156 C 98.49945068359375 56.54829406738281 97.21733856201172 62.89969253540039 94.68872833251953 68.87800598144531 C 92.24604034423828 74.65313720703125 88.74882507324219 79.84004974365234 84.29421234130859 84.29464721679688 C 79.839599609375 88.74925994873047 74.65267944335938 92.24647521972656 68.87755584716797 94.68914794921875 C 62.89922714233398 97.21776580810547 56.54780960083008 98.4998779296875 49.99972534179688 98.4998779296875 Z" stroke="none"/>
                <path d="M 49.99972534179688 3 C 43.65348052978516 3 37.49866485595703 4.242240905761719 31.70623016357422 6.692230224609375 C 26.10989379882812 9.059272766113281 21.08323669433594 12.44853210449219 16.76589202880859 16.76587677001953 C 12.44855499267578 21.08321380615234 9.059295654296875 26.10985565185547 6.692230224609375 31.70618438720703 C 4.24224853515625 37.49859619140625 3 43.65341186523438 3 50.00022888183594 C 3 56.34645843505859 4.24224853515625 62.50127410888672 6.692230224609375 68.29368591308594 C 9.059295654296875 73.8900146484375 12.44855499267578 78.91665649414062 16.76589202880859 83.23399353027344 C 21.08323669433594 87.55132293701172 26.10989379882812 90.94059753417969 31.70623016357422 93.30764007568359 C 37.49866485595703 95.75762939453125 43.65348052978516 96.99987030029297 49.99972534179688 96.99987030029297 C 56.34597015380859 96.99987030029297 62.50078582763672 95.75762939453125 68.293212890625 93.30764007568359 C 73.88955688476562 90.94059753417969 78.91621398925781 87.55132293701172 83.23355865478516 83.23399353027344 C 87.55089569091797 78.91665649414062 90.94015502929688 73.8900146484375 93.30722045898438 68.29368591308594 C 95.7572021484375 62.50127410888672 96.99945068359375 56.34645843505859 96.99945068359375 49.99964141845703 C 96.99945068359375 43.65341186523438 95.7572021484375 37.49859619140625 93.30722045898438 31.70618438720703 C 90.94015502929688 26.10985565185547 87.55089569091797 21.08321380615234 83.23355865478516 16.76587677001953 C 78.91621398925781 12.44853210449219 73.88955688476562 9.059272766113281 68.293212890625 6.692230224609375 C 62.50078582763672 4.242240905761719 56.34597015380859 3 49.99972534179688 3 M 49.99972534179688 0 C 77.61381530761719 0 99.99945068359375 22.38559722900391 99.99945068359375 49.99964141845703 L 99.99945068359375 50.00022888183594 C 99.99945068359375 77.6142578125 77.61381530761719 99.99987030029297 49.99972534179688 99.99987030029297 C 22.38563537597656 99.99987030029297 0 77.6142578125 0 50.00022888183594 L 0 49.99964141845703 C 0 22.38559722900391 22.38563537597656 0 49.99972534179688 0 Z" stroke="none" fill="#fff"/>
              </g>
            </g>
            <g id="Trazado_874923" data-name="Trazado 874923" transform="translate(0 0)" fill="none">
              <path d="M50,0a50,50,0,0,1,50,50h0A50,50,0,0,1,0,50H0A50,50,0,0,1,50,0Z" stroke="none"/>
              <path d="M 49.99972534179688 3 C 43.65348052978516 3 37.49866485595703 4.242240905761719 31.70623016357422 6.692230224609375 C 26.10989379882812 9.059272766113281 21.08323669433594 12.44853210449219 16.76589202880859 16.76587677001953 C 12.44855499267578 21.08321380615234 9.059295654296875 26.10985565185547 6.692230224609375 31.70618438720703 C 4.24224853515625 37.49859619140625 3 43.65341186523438 3 50.00022888183594 C 3 56.34645843505859 4.24224853515625 62.50127410888672 6.692230224609375 68.29368591308594 C 9.059295654296875 73.8900146484375 12.44855499267578 78.91665649414062 16.76589202880859 83.23399353027344 C 21.08323669433594 87.55132293701172 26.10989379882812 90.94059753417969 31.70623016357422 93.30764007568359 C 37.49866485595703 95.75762939453125 43.65348052978516 96.99987030029297 49.99972534179688 96.99987030029297 C 56.34597015380859 96.99987030029297 62.50078582763672 95.75762939453125 68.293212890625 93.30764007568359 C 73.88955688476562 90.94059753417969 78.91621398925781 87.55132293701172 83.23355865478516 83.23399353027344 C 87.55089569091797 78.91665649414062 90.94015502929688 73.8900146484375 93.30722045898438 68.29368591308594 C 95.7572021484375 62.50127410888672 96.99945068359375 56.34645843505859 96.99945068359375 49.99964141845703 C 96.99945068359375 43.65341186523438 95.7572021484375 37.49859619140625 93.30722045898438 31.70618438720703 C 90.94015502929688 26.10985565185547 87.55089569091797 21.08321380615234 83.23355865478516 16.76587677001953 C 78.91621398925781 12.44853210449219 73.88955688476562 9.059272766113281 68.293212890625 6.692230224609375 C 62.50078582763672 4.242240905761719 56.34597015380859 3 49.99972534179688 3 M 49.99972534179688 0 C 77.61381530761719 0 99.99945068359375 22.38559722900391 99.99945068359375 49.99964141845703 L 99.99945068359375 50.00022888183594 C 99.99945068359375 77.6142578125 77.61381530761719 99.99987030029297 49.99972534179688 99.99987030029297 C 22.38563537597656 99.99987030029297 0 77.6142578125 0 50.00022888183594 L 0 49.99964141845703 C 0 22.38559722900391 22.38563537597656 0 49.99972534179688 0 Z" stroke="none" fill="#fff"/>
            </g>
          </g>
        </g>
      </g>
    </g>
    <g id="Grupo_1119546" data-name="Grupo 1119546" transform="translate(11542.541 -7314.559)">
      <g id="Grupo_1119545" data-name="Grupo 1119545" transform="translate(9.054 15.457)">
        <g id="Grupo_1119542" data-name="Grupo 1119542" transform="translate(0 0)">
          <path id="Trazado_917465" data-name="Trazado 917465" d="M65.553,35.89V68.937H20.816V35.89H16.738a.74.74,0,0,1-.3-1.412L43.185,22.4,69.936,34.478a.74.74,0,0,1-.3,1.412Z" transform="translate(-16 -22.403)" fill="#8ac9fe" fill-rule="evenodd"/>
          <path id="Trazado_917466" data-name="Trazado 917466" d="M233.268,35.891V68.938h-2.037V35.891Zm-24.1-12.706L235.614,35.12a.716.716,0,0,1,.426.77h1.307a.74.74,0,0,0,.3-1.412L210.9,22.4Z" transform="translate(-183.715 -22.404)" fill="#60b7ff" fill-rule="evenodd"/>
          <path id="Trazado_917467" data-name="Trazado 917467" d="M121.8,107.557h3.345a1.056,1.056,0,0,1,1.054,1.054v3.345a1.056,1.056,0,0,1-1.054,1.054H121.8a1.056,1.056,0,0,1-1.054-1.054v-3.345A1.056,1.056,0,0,1,121.8,107.557Zm21.309,15.437h3.345a1.056,1.056,0,0,0,1.054-1.054V118.6a1.056,1.056,0,0,0-1.054-1.054h-3.345a1.056,1.056,0,0,0-1.054,1.054v3.345A1.056,1.056,0,0,0,143.111,122.994Zm-10.654,0H135.8a1.056,1.056,0,0,0,1.054-1.054V118.6a1.056,1.056,0,0,0-1.054-1.054h-3.345A1.056,1.056,0,0,0,131.4,118.6v3.345A1.056,1.056,0,0,0,132.457,122.994Zm-10.655,0h3.345a1.056,1.056,0,0,0,1.054-1.054V118.6a1.056,1.056,0,0,0-1.054-1.054H121.8a1.056,1.056,0,0,0-1.054,1.054v3.345A1.056,1.056,0,0,0,121.8,122.994Zm21.309-15.437h3.345a1.056,1.056,0,0,1,1.054,1.054v3.345a1.056,1.056,0,0,1-1.054,1.054h-3.345a1.056,1.056,0,0,1-1.054-1.054v-3.345A1.056,1.056,0,0,1,143.111,107.557Zm-10.654,0H135.8a1.056,1.056,0,0,1,1.054,1.054v3.345a1.056,1.056,0,0,1-1.054,1.054h-3.345a1.056,1.056,0,0,1-1.054-1.054v-3.345A1.056,1.056,0,0,1,132.457,107.557Z" transform="translate(-106.945 -96.336)" fill="#d8ecfe" fill-rule="evenodd"/>
          <path id="Trazado_917468" data-name="Trazado 917468" d="M144.13,107.557h1.318a1.056,1.056,0,0,1,1.054,1.054v3.345a1.056,1.056,0,0,1-1.054,1.054H144.13a1.056,1.056,0,0,0,1.054-1.054v-3.345A1.056,1.056,0,0,0,144.13,107.557Zm21.309,15.437h1.318a1.056,1.056,0,0,0,1.054-1.054V118.6a1.056,1.056,0,0,0-1.054-1.054h-1.318a1.056,1.056,0,0,1,1.054,1.054v3.345A1.056,1.056,0,0,1,165.439,122.994Zm-10.655,0H156.1a1.056,1.056,0,0,0,1.054-1.054V118.6a1.056,1.056,0,0,0-1.054-1.054h-1.318a1.056,1.056,0,0,1,1.054,1.054v3.345A1.056,1.056,0,0,1,154.784,122.994Zm-10.654,0h1.318a1.056,1.056,0,0,0,1.054-1.054V118.6a1.056,1.056,0,0,0-1.054-1.054H144.13a1.056,1.056,0,0,1,1.054,1.054v3.345A1.056,1.056,0,0,1,144.13,122.994Zm21.309-15.437h1.318a1.056,1.056,0,0,1,1.054,1.054v3.345a1.056,1.056,0,0,1-1.054,1.054h-1.318a1.056,1.056,0,0,0,1.054-1.054v-3.345A1.056,1.056,0,0,0,165.439,107.557Zm-10.655,0H156.1a1.056,1.056,0,0,1,1.054,1.054v3.345a1.056,1.056,0,0,1-1.054,1.054h-1.318a1.056,1.056,0,0,0,1.054-1.054v-3.345A1.056,1.056,0,0,0,154.784,107.557Z" transform="translate(-127.246 -96.336)" fill="#c4e2ff" fill-rule="evenodd"/>
          <path id="Trazado_917469" data-name="Trazado 917469" d="M157.094,270.495h17.183V255.607a1.056,1.056,0,0,0-1.054-1.054H158.148a1.056,1.056,0,0,0-1.054,1.054Z" transform="translate(-138.501 -223.961)" fill="#d8ecfe" fill-rule="evenodd"/>
          <path id="Trazado_917470" data-name="Trazado 917470" d="M157.094,269.025h8.591V254.553h-7.537a1.057,1.057,0,0,0-1.054,1.054Z" transform="translate(-138.501 -223.961)" fill="#c4e2ff" fill-rule="evenodd"/>
          <path id="Trazado_917471" data-name="Trazado 917471" d="M21.515,355.528H73.057a.793.793,0,0,1,.791.791v1.849a.793.793,0,0,1-.791.791H21.515a.793.793,0,0,1-.791-.791v-1.849A.793.793,0,0,1,21.515,355.528Z" transform="translate(-20.102 -311.63)" fill="#837683" fill-rule="evenodd"/>
          <path id="Trazado_917472" data-name="Trazado 917472" d="M21.515,355.528H73.057a.793.793,0,0,1,.791.791v.925H20.724v-.925A.793.793,0,0,1,21.515,355.528Z" transform="translate(-20.102 -311.63)" fill="#685e68" fill-rule="evenodd"/>
        </g>
        <g id="Grupo_1119543" data-name="Grupo 1119543" transform="translate(19.123 17.445)">
          <circle id="Elipse_11780" data-name="Elipse 11780" cx="18.277" cy="18.277" r="18.277" transform="translate(0 25.843) rotate(-45)" fill="#6cf5c2"/>
          <path id="Trazado_917473" data-name="Trazado 917473" d="M350.095,212.209a18.277,18.277,0,0,1,0,36.553c-.368,0-.732-.012-1.095-.033a18.276,18.276,0,0,0,0-36.486C349.362,212.221,349.727,212.209,350.095,212.209Z" transform="translate(-324.241 -204.642)" fill="#00e499" fill-rule="evenodd"/>
        </g>
        <g id="Grupo_1119544" data-name="Grupo 1119544" transform="translate(32.042 35.559)">
          <path id="Trazado_917474" data-name="Trazado 917474" d="M267.9,338.982v10.11a1.9,1.9,0,0,0,1.893,1.893h19.777a1.9,1.9,0,0,0,1.893-1.893v-10.11Z" transform="translate(-266.748 -332.824)" fill="#ecba78" fill-rule="evenodd"/>
          <path id="Trazado_917475" data-name="Trazado 917475" d="M267.9,338.982v10.11a1.9,1.9,0,0,0,1.893,1.893h1.5a1.9,1.9,0,0,1-1.893-1.893v-10.11Z" transform="translate(-266.748 -332.824)" fill="#e3a76f" fill-rule="evenodd"/>
          <path id="Trazado_917476" data-name="Trazado 917476" d="M283.279,300.429a5.879,5.879,0,0,0,.589-.422,2.768,2.768,0,0,0,1.153-2.174v-4.615a.972.972,0,0,0-.97-.97H260.122a.972.972,0,0,0-.97.97v4.615a2.768,2.768,0,0,0,1.153,2.173,5.906,5.906,0,0,0,.589.422C264.833,302.921,279.369,302.9,283.279,300.429Z" transform="translate(-259.152 -292.248)" fill="#e3a76f" fill-rule="evenodd"/>
          <path id="Trazado_917477" data-name="Trazado 917477" d="M261.807,292.248h-1.686a.972.972,0,0,0-.97.97v4.615a2.768,2.768,0,0,0,1.153,2.173,5.911,5.911,0,0,0,.589.422,5.971,5.971,0,0,0,.913.46v-8.641Z" transform="translate(-259.151 -292.248)" fill="#c48958" fill-rule="evenodd"/>
          <path id="Trazado_917478" data-name="Trazado 917478" d="M306.05,292.248h13.509V295.4a1.22,1.22,0,0,1-1.216,1.216H307.266a1.22,1.22,0,0,1-1.216-1.216v-3.154Z" transform="translate(-299.87 -292.248)" fill="#c48958" fill-rule="evenodd"/>
          <path id="Trazado_917479" data-name="Trazado 917479" d="M339.215,355.075a2.384,2.384,0,1,0,2.384-2.384A2.384,2.384,0,0,0,339.215,355.075Z" transform="translate(-328.664 -344.726)" fill="#837683" fill-rule="evenodd"/>
          <path id="Trazado_917480" data-name="Trazado 917480" d="M339.215,355.075a2.386,2.386,0,0,0,2.76,2.354,2.384,2.384,0,0,1,0-4.709,2.386,2.386,0,0,0-2.76,2.355Z" transform="translate(-328.664 -344.726)" fill="#685e68" fill-rule="evenodd"/>
        </g>
      </g>
      <path id="Trazado_917481" data-name="Trazado 917481" d="M63.919,68.124H44.143a.839.839,0,0,1-.839-.839V60.614A25.38,25.38,0,0,0,50.652,62a3.438,3.438,0,0,0,6.757,0,25.444,25.444,0,0,0,7.348-1.389v6.672A.838.838,0,0,1,63.919,68.124ZM55.36,61.367A1.329,1.329,0,1,0,54.031,62.7,1.332,1.332,0,0,0,55.36,61.367Zm-13.21-9.3h4.072v2.1a2.273,2.273,0,0,0,2.271,2.271H59.57a2.272,2.272,0,0,0,2.269-2.271v-2.1h4.072V56.6c0,.426-.142,1-1.252,1.705-1.246.788-4.022,1.374-7.515,1.6a3.438,3.438,0,0,0-6.226,0c-3.489-.223-6.264-.81-7.515-1.6-1.11-.7-1.252-1.28-1.252-1.705v-4.53Zm7.885-3.079a.972.972,0,0,1,.971-.973h6.048a.973.973,0,0,1,.971.973v.971H50.035ZM48.33,52.071v2.1a.167.167,0,0,0,.162.162H59.569a.166.166,0,0,0,.161-.162v-2.1Zm17.665-2.109H60.134v-.971a3.083,3.083,0,0,0-3.079-3.081H51.007a3.084,3.084,0,0,0-3.08,3.081v.971H42.066a2.027,2.027,0,0,0-2.024,2.024V56.6a3.638,3.638,0,0,0,1.153,2.634v8.049a2.951,2.951,0,0,0,2.948,2.948H63.919a2.95,2.95,0,0,0,2.947-2.948V59.236A3.634,3.634,0,0,0,68.019,56.6V51.987A2.026,2.026,0,0,0,65.995,49.963ZM54.031,75.969A17.223,17.223,0,1,0,36.808,58.746,17.243,17.243,0,0,0,54.031,75.969Zm-43.3-14.237V60.41h24.04q.058.668.159,1.322ZM37.293,47.1h1.316a19.7,19.7,0,0,0-1.316,1.981ZM28.7,58.3V47.1h6.482v7.334a19.332,19.332,0,0,0-.478,3.865ZM46.228,41.063H45.221V37.717h3.344V40.2A19.117,19.117,0,0,0,46.228,41.063ZM13.871,27.89a1.054,1.054,0,0,1,1.054,1.054V58.3H26.593V46.05A1.054,1.054,0,0,1,27.648,45H40.46a19.267,19.267,0,0,1,2.823-2.309,1.04,1.04,0,0,1-.169-.571V36.663a1.054,1.054,0,0,1,1.054-1.054H49.62a1.054,1.054,0,0,1,1.054,1.054v3.045a19.374,19.374,0,0,1,6.879.03V28.944a1.054,1.054,0,0,1,1.054-1.054h2.614L36.238,16.614,11.257,27.89ZM59.662,40.254V30h3.024a1.794,1.794,0,0,0,.738-3.428L36.673,14.5a1.06,1.06,0,0,0-.869,0L9.055,26.571A1.794,1.794,0,0,0,9.791,30h3.025V58.3H9.677a1.054,1.054,0,0,0-1.054,1.055v3.43A1.053,1.053,0,0,0,9.677,63.84h25.7a19.331,19.331,0,1,0,24.28-23.586Zm-25.1-2.537h3.344v3.346H34.566Zm-1.055,5.454a1.055,1.055,0,0,1-1.054-1.055V36.663a1.054,1.054,0,0,1,1.054-1.054h5.453a1.055,1.055,0,0,1,1.054,1.054v5.454a1.055,1.055,0,0,1-1.054,1.055Zm-9.6-5.454h3.345v3.346H23.912Zm-1.054,5.454A1.055,1.055,0,0,1,21.8,42.117V36.663a1.055,1.055,0,0,1,1.055-1.054h5.453a1.055,1.055,0,0,1,1.055,1.054v5.454a1.055,1.055,0,0,1-1.055,1.055ZM45.221,27.733h3.344v3.345H45.221Zm-1.054,5.453a1.053,1.053,0,0,1-1.054-1.054V26.679a1.054,1.054,0,0,1,1.054-1.055H49.62a1.054,1.054,0,0,1,1.054,1.055v5.453a1.053,1.053,0,0,1-1.054,1.054Zm-9.6-5.453h3.344v3.345H34.566Zm-1.055,5.453a1.053,1.053,0,0,1-1.054-1.054V26.679a1.054,1.054,0,0,1,1.054-1.055h5.453a1.054,1.054,0,0,1,1.054,1.055v5.453a1.054,1.054,0,0,1-1.054,1.054Zm-9.6-5.453h3.345v3.345H23.912Zm-1.054,5.453A1.054,1.054,0,0,1,21.8,32.132V26.679a1.055,1.055,0,0,1,1.055-1.055h5.453a1.054,1.054,0,0,1,1.055,1.055v5.453a1.054,1.054,0,0,1-1.055,1.054Z" transform="translate(0)" fill-rule="evenodd"/>
    </g>
  </g>
</svg>
