<svg xmlns="http://www.w3.org/2000/svg" xmlns:xlink="http://www.w3.org/1999/xlink" width="102.949" height="102.949" viewBox="0 0 102.949 102.949">
  <defs>
    <filter id="Trazado_874925" x="0" y="0" width="102.949" height="102.949" filterUnits="userSpaceOnUse">
      <feOffset dy="3" input="SourceAlpha"/>
      <feGaussianBlur stdDeviation="3" result="blur"/>
      <feFlood flood-opacity="0.161"/>
      <feComposite operator="in" in2="blur"/>
      <feComposite in="SourceGraphic"/>
    </filter>
  </defs>
  <g id="Grupo_1116302" data-name="Grupo 1116302" transform="translate(-191.051 -4154)">
    <g id="Grupo_1115602" data-name="Grupo 1115602" transform="translate(-608.5 1643.234)">
      <g id="Grupo_1111316" data-name="Grupo 1111316" transform="translate(808.551 2516.766)">
        <g id="Grupo_1109835" data-name="Grupo 1109835" transform="translate(0 0)">
          <g id="Grupo_1107913" data-name="Grupo 1107913" transform="translate(0 0)">
            <g transform="matrix(1, 0, 0, 1, -9, -6)" filter="url(#Trazado_874925)">
              <g id="Trazado_874925-2" data-name="Trazado 874925" transform="translate(9 6)" fill="#fbfbf9" opacity="0.859">
                <path d="M 42.47446823120117 83.44929504394531 C 36.94229125976562 83.44929504394531 31.57638549804688 82.36614227294922 26.52582168579102 80.22994232177734 C 21.64678573608398 78.16628265380859 17.26464462280273 75.211669921875 13.50113868713379 71.44816589355469 C 9.737632751464844 67.68466949462891 6.78300952911377 63.30253982543945 4.719362258911133 58.42351913452148 C 2.583150625228882 53.37295150756836 1.499997615814209 48.00706100463867 1.499997615814209 42.47489547729492 C 1.499997615814209 36.94223403930664 2.583150625228882 31.57634162902832 4.719362258911133 26.52577781677246 C 6.78300952911377 21.64675331115723 9.737632751464844 17.26462364196777 13.50113868713379 13.50113010406494 C 17.26464462280273 9.737624168395996 21.64678573608398 6.783012390136719 26.52582168579102 4.719353199005127 C 31.57638549804688 2.583153486251831 36.94229125976562 1.500000476837158 42.47446823120117 1.500000476837158 C 48.00664520263672 1.500000476837158 53.37255096435547 2.583153486251831 58.42311477661133 4.719353199005127 C 63.30215072631836 6.783012390136719 67.68428802490234 9.737624168395996 71.44779968261719 13.50113010406494 C 75.2113037109375 17.26462364196777 78.16592407226562 21.64675331115723 80.22957611083984 26.52577781677246 C 82.36578369140625 31.57634162902832 83.44893646240234 36.94223403930664 83.44893646240234 42.47439956665039 C 83.44893646240234 48.00706100463867 82.36578369140625 53.37295150756836 80.22957611083984 58.42351913452148 C 78.16592407226562 63.30253982543945 75.2113037109375 67.68466949462891 71.44779968261719 71.44816589355469 C 67.68428802490234 75.211669921875 63.30215072631836 78.16628265380859 58.42311477661133 80.22994232177734 C 53.37255096435547 82.36614227294922 48.00664520263672 83.44929504394531 42.47446823120117 83.44929504394531 Z" stroke="none"/>
                <path d="M 42.47446823120117 2.999992370605469 C 37.14412307739258 2.999992370605469 31.97481536865234 4.04327392578125 27.11014938354492 6.100860595703125 C 22.40990829467773 8.088890075683594 18.18804168701172 10.93555450439453 14.56179809570312 14.56178283691406 C 10.93557739257812 18.18801116943359 8.088897705078125 22.40987396240234 6.100868225097656 27.11009979248047 C 4.043281555175781 31.97476577758789 3 37.14406204223633 3 42.47488784790039 C 3 47.80522155761719 4.043281555175781 52.97451400756836 6.100868225097656 57.83917999267578 C 8.088897705078125 62.53940582275391 10.93557739257812 66.76127624511719 14.56179809570312 70.38749694824219 C 18.18804168701172 74.01372528076172 22.40990829467773 76.86039733886719 27.11014938354492 78.84841918945312 C 31.97481536865234 80.906005859375 37.14412307739258 81.94928741455078 42.47446823120117 81.94928741455078 C 47.80481338500977 81.94928741455078 52.97412109375 80.906005859375 57.83879089355469 78.84841918945312 C 62.53902816772461 76.86039733886719 66.76089477539062 74.01372528076172 70.38713073730469 70.38749694824219 C 74.01335906982422 66.76127624511719 76.86003875732422 62.53940582275391 78.84806823730469 57.83917999267578 C 80.90565490722656 52.97451400756836 81.94893646240234 47.80522155761719 81.94893646240234 42.47439575195312 C 81.94893646240234 37.14406204223633 80.90565490722656 31.97476577758789 78.84806823730469 27.11009979248047 C 76.86003875732422 22.40987396240234 74.01335906982422 18.18801116943359 70.38713073730469 14.56178283691406 C 66.76089477539062 10.93555450439453 62.53902816772461 8.088890075683594 57.83879089355469 6.100860595703125 C 52.97412109375 4.04327392578125 47.80481338500977 2.999992370605469 42.47446823120117 2.999992370605469 M 42.47446823120117 -7.62939453125e-06 C 65.93246459960938 -7.62939453125e-06 84.94893646240234 19.01643371582031 84.94893646240234 42.47439575195312 L 84.94893646240234 42.47488784790039 C 84.94893646240234 65.93284606933594 65.93246459960938 84.94928741455078 42.47446823120117 84.94928741455078 C 19.01647186279297 84.94928741455078 0 65.93284606933594 0 42.47488784790039 L 0 42.47439575195312 C 0 19.01643371582031 19.01647186279297 -7.62939453125e-06 42.47446823120117 -7.62939453125e-06 Z" stroke="none" fill="#fff"/>
              </g>
            </g>
            <g id="Trazado_874923" data-name="Trazado 874923" transform="translate(0 0)" fill="none">
              <path d="M42.474,0A42.474,42.474,0,0,1,84.949,42.474h0A42.474,42.474,0,0,1,0,42.475H0A42.474,42.474,0,0,1,42.474,0Z" stroke="none"/>
              <path d="M 42.47446823120117 2.999992370605469 C 37.14412307739258 2.999992370605469 31.97481536865234 4.04327392578125 27.11014938354492 6.100860595703125 C 22.40990829467773 8.088890075683594 18.18804168701172 10.93555450439453 14.56179809570312 14.56178283691406 C 10.93557739257812 18.18801116943359 8.088897705078125 22.40987396240234 6.100868225097656 27.11009979248047 C 4.043281555175781 31.97476577758789 3 37.14406204223633 3 42.47488784790039 C 3 47.80522155761719 4.043281555175781 52.97451400756836 6.100868225097656 57.83917999267578 C 8.088897705078125 62.53940582275391 10.93557739257812 66.76127624511719 14.56179809570312 70.38749694824219 C 18.18804168701172 74.01372528076172 22.40990829467773 76.86039733886719 27.11014938354492 78.84841918945312 C 31.97481536865234 80.906005859375 37.14412307739258 81.94928741455078 42.47446823120117 81.94928741455078 C 47.80481338500977 81.94928741455078 52.97412109375 80.906005859375 57.83879089355469 78.84841918945312 C 62.53902816772461 76.86039733886719 66.76089477539062 74.01372528076172 70.38713073730469 70.38749694824219 C 74.01335906982422 66.76127624511719 76.86003875732422 62.53940582275391 78.84806823730469 57.83917999267578 C 80.90565490722656 52.97451400756836 81.94893646240234 47.80522155761719 81.94893646240234 42.47439575195312 C 81.94893646240234 37.14406204223633 80.90565490722656 31.97476577758789 78.84806823730469 27.11009979248047 C 76.86003875732422 22.40987396240234 74.01335906982422 18.18801116943359 70.38713073730469 14.56178283691406 C 66.76089477539062 10.93555450439453 62.53902816772461 8.088890075683594 57.83879089355469 6.100860595703125 C 52.97412109375 4.04327392578125 47.80481338500977 2.999992370605469 42.47446823120117 2.999992370605469 M 42.47446823120117 -7.62939453125e-06 C 65.93246459960938 -7.62939453125e-06 84.94893646240234 19.01643371582031 84.94893646240234 42.47439575195312 L 84.94893646240234 42.47488784790039 C 84.94893646240234 65.93284606933594 65.93246459960938 84.94928741455078 42.47446823120117 84.94928741455078 C 19.01647186279297 84.94928741455078 0 65.93284606933594 0 42.47488784790039 L 0 42.47439575195312 C 0 19.01643371582031 19.01647186279297 -7.62939453125e-06 42.47446823120117 -7.62939453125e-06 Z" stroke="none" fill="#fff"/>
            </g>
          </g>
        </g>
      </g>
    </g>
    <g id="Grupo_1116301" data-name="Grupo 1116301" transform="translate(213.051 4172.905)">
      <g id="Grupo_1116298" data-name="Grupo 1116298" transform="translate(0.852 0.949)">
        <g id="Grupo_1116291" data-name="Grupo 1116291" transform="translate(9.427)">
          <g id="Grupo_1116288" data-name="Grupo 1116288" transform="translate(0 27.918)">
            <path id="Trazado_912724" data-name="Trazado 912724" d="M116.531,252.968A18.8,18.8,0,0,1,127.89,270.22v12.06H90.343V270.22A18.8,18.8,0,0,1,101.7,252.968Z" transform="translate(-90.343 -252.968)" fill="#fff"/>
          </g>
          <path id="Trazado_912725" data-name="Trazado 912725" d="M104.546,252.968A18.778,18.778,0,0,0,93.187,270.22v12.06H90.343V270.22A18.8,18.8,0,0,1,101.7,252.968Z" transform="translate(-90.343 -225.05)" fill="#e3e9ee"/>
          <g id="Grupo_1116289" data-name="Grupo 1116289" transform="translate(10.866 27.193)">
            <path id="Trazado_912726" data-name="Trazado 912726" d="M185.843,246.6v16.953a1.707,1.707,0,0,0,3.413,0V246.6Z" transform="translate(-185.843 -246.598)" fill="#ff6a47"/>
            <path id="Trazado_912727" data-name="Trazado 912727" d="M294.843,246.6v16.953a1.707,1.707,0,0,0,3.413,0V246.6Z" transform="translate(-282.441 -246.598)" fill="#ff6a47"/>
          </g>
          <g id="Grupo_1116290" data-name="Grupo 1116290" transform="translate(0.479)">
            <path id="Trazado_912728" data-name="Trazado 912728" d="M121.439,10.221a3.413,3.413,0,0,0-3.32-2.623H107.581a3.413,3.413,0,0,0-3.32,2.623l-1.651,6.935-8.054,2.327a2.907,2.907,0,0,0,2.907,2.907h30.773a2.907,2.907,0,0,0,2.907-2.907l-8.054-2.327Z" transform="translate(-94.556 -7.598)" fill="#e6cc9f"/>
          </g>
          <path id="Trazado_912729" data-name="Trazado 912729" d="M175.343,137.6l.028,8.533a9.1,9.1,0,0,0,18.148,0l.028-8.533" transform="translate(-165.672 -122.807)" fill="#ffceb7"/>
          <path id="Trazado_912730" data-name="Trazado 912730" d="M184.875,56.6H166.291l-.948,3.982h20.48Z" transform="translate(-156.81 -51.023)" fill="#ff6a47"/>
          <path id="Trazado_912731" data-name="Trazado 912731" d="M104.258,10.221l-1.651,6.935-8.054,2.327a2.907,2.907,0,0,0,2.908,2.907l5.33-2.1a4.428,4.428,0,0,0,2.7-3.173L107.579,7.6a3.414,3.414,0,0,0-3.321,2.622Z" transform="translate(-94.074 -7.599)" fill="#dfba7f"/>
          <path id="Trazado_912732" data-name="Trazado 912732" d="M169.094,56.6l-.872,3.982h-2.88l.948-3.982Z" transform="translate(-156.81 -51.023)" fill="#fd3501"/>
          <path id="Trazado_912733" data-name="Trazado 912733" d="M178.216,146.131l-.028-8.533h-2.844l.028,8.533a9.1,9.1,0,0,0,10.5,8.307A9.1,9.1,0,0,1,178.216,146.131Z" transform="translate(-165.672 -122.807)" fill="#ffaa81"/>
        </g>
        <g id="Grupo_1116293" data-name="Grupo 1116293" transform="translate(9.035 34.717)">
          <g id="Grupo_1116292" data-name="Grupo 1116292" transform="translate(0 0.952)">
            <path id="Trazado_912734" data-name="Trazado 912734" d="M89.835,330.077c-4.5-3.184-2.492-8.98-2.492-8.98s3.747,1.312,5.02,3.856c0,0,4.778,6.4,2.952,7.865C93.987,333.881,89.835,330.077,89.835,330.077Z" transform="translate(-86.897 -321.097)" fill="#8ae897"/>
          </g>
          <path id="Trazado_912735" data-name="Trazado 912735" d="M92.679,330.077c-3.174-2.247-3.109-5.8-2.8-7.689a12.994,12.994,0,0,0-2.541-1.291s-2,5.8,2.492,8.98c0,0,4.152,3.8,5.48,2.741a1.042,1.042,0,0,0,.34-.507A20.675,20.675,0,0,1,92.679,330.077Z" transform="translate(-86.897 -320.145)" fill="#54e072"/>
          <path id="Trazado_912736" data-name="Trazado 912736" d="M134.051,321.668c1.424,4.159,6.684,6.124,6.684,6.124s2.951-4.777,1.526-8.936-6.684-6.124-6.684-6.124S132.627,317.509,134.051,321.668Z" transform="translate(-128.342 -312.732)" fill="#8ae897"/>
          <path id="Trazado_912737" data-name="Trazado 912737" d="M136.9,321.668c-1-2.913.151-6.13.929-7.8a14.415,14.415,0,0,0-2.247-1.141s-2.951,4.777-1.526,8.936,6.684,6.124,6.684,6.124a12.3,12.3,0,0,0,.6-1.141A10.124,10.124,0,0,1,136.9,321.668Z" transform="translate(-128.342 -312.732)" fill="#54e072"/>
        </g>
        <g id="Grupo_1116294" data-name="Grupo 1116294" transform="translate(31.44 33.996)">
          <path id="Trazado_912738" data-name="Trazado 912738" d="M389.958,319.59l-4.546-5.093,4.064-6.5a3.413,3.413,0,0,1,5.44-.463l3.034,3.4a3.413,3.413,0,0,1-1.076,5.353Z" transform="translate(-373.853 -306.395)" fill="#8ae897"/>
          <path id="Trazado_912739" data-name="Trazado 912739" d="M388.256,314.5l4.064-6.5a3.384,3.384,0,0,1,1.473-1.3,3.416,3.416,0,0,0-4.317,1.3l-4.064,6.5,4.546,5.093,1.994-.952Z" transform="translate(-373.853 -306.397)" fill="#54e072"/>
          <path id="Trazado_912740" data-name="Trazado 912740" d="M395.1,328.046l-3.031-3.4,8.042-7.179a2.276,2.276,0,0,1,3.031,3.4Z" transform="translate(-379.754 -315.7)" fill="#8ae897"/>
          <path id="Trazado_912741" data-name="Trazado 912741" d="M298.1,363.663c2.677-1.949,4.833-4.128,5.032-5.9.286-2.544-4.259-7.636-6.819-7.639-3.833-.005-10.546,8.746-12.273,12.836a4.614,4.614,0,0,0-.226.7Z" transform="translate(-283.818 -345.148)" fill="#ffceb7"/>
          <path id="Trazado_912742" data-name="Trazado 912742" d="M292.692,387.024a9.089,9.089,0,0,0-2.056-5.763,35.582,35.582,0,0,0-6.592,9.293,4.614,4.614,0,0,0-.226.7h7.825A9.045,9.045,0,0,0,292.692,387.024Z" transform="translate(-283.818 -372.743)" fill="#ffaa81"/>
        </g>
        <g id="Grupo_1116296" data-name="Grupo 1116296" transform="translate(20.006 42.019)">
          <path id="Trazado_912743" data-name="Trazado 912743" d="M193.165,380.478l2.82,2.731,2.82-2.731,2.821,2.731,2.587-2.5a6.259,6.259,0,0,0-5.753-3.793h-4.948a6.259,6.259,0,0,0-5.753,3.793l2.586,2.5Z" transform="translate(-187.254 -376.911)" fill="#8ae897"/>
          <path id="Trazado_912744" data-name="Trazado 912744" d="M200.282,408.488l-2.587,2.5-2.821-2.731-2.82,2.731-2.82-2.731-2.82,2.731-2.586-2.5a6.26,6.26,0,0,0,5.753,8.722h4.948a6.26,6.26,0,0,0,5.753-8.722Z" transform="translate(-183.323 -404.695)" fill="#ff6a47"/>
          <g id="Grupo_1116295" data-name="Grupo 1116295" transform="translate(0)">
            <path id="Trazado_912745" data-name="Trazado 912745" d="M190.6,380.7a5.93,5.93,0,0,1,5.753-3.793h-2.844a6.259,6.259,0,0,0-5.753,3.793l2.587,2.5A17.089,17.089,0,0,1,190.6,380.7Z" transform="translate(-187.254 -376.91)" fill="#54e072"/>
            <path id="Trazado_912746" data-name="Trazado 912746" d="M188.018,411.2l-1.6,1.553-2.587-2.5a6.432,6.432,0,0,0-.5,2.5h0a6.257,6.257,0,0,0,6.257,6.218h2.844C189.259,418.972,186.807,414.746,188.018,411.2Z" transform="translate(-183.323 -406.457)" fill="#fd3501"/>
          </g>
        </g>
        <g id="Grupo_1116297" data-name="Grupo 1116297" transform="translate(0 37.98)">
          <path id="Trazado_912747" data-name="Trazado 912747" d="M11.233,346.006l2.168,1.125.915-2.1a15.108,15.108,0,0,1-1.453-2.155,2.868,2.868,0,0,0-5.313,1.97c.137.677.323,1.456.575,2.294l2.136,1.108Z" transform="translate(-7.491 -341.406)" fill="#8ae897"/>
          <path id="Trazado_912748" data-name="Trazado 912748" d="M34.678,379.4a4.858,4.858,0,0,0-5.258-3.177c-3.89.5-7.57.416-10.185-2.98l-.915,2.1-2.168-1.125-.974,2.239-2.136-1.108c1.085,3.615,3.39,8.3,8.232,10.42,3.328,1.454,7.274.815,10.274-.121A4.849,4.849,0,0,0,34.678,379.4Z" transform="translate(-12.412 -369.619)" fill="#fde31d"/>
          <path id="Trazado_912749" data-name="Trazado 912749" d="M9.824,344.85a2.866,2.866,0,0,1,1.673-3.2,2.865,2.865,0,0,0-3.948,3.2c.137.677.323,1.456.575,2.294l2.136,1.108.294-.676C10.291,346.68,9.937,345.41,9.824,344.85Z" transform="translate(-7.491 -341.413)" fill="#54e072"/>
          <path id="Trazado_912750" data-name="Trazado 912750" d="M23.552,402.2c-4.64-2.027-6.949-6.418-8.089-9.962l-.283.65-2.136-1.108c1.085,3.615,3.39,8.3,8.232,10.42a11.777,11.777,0,0,0,5.622.812A10.481,10.481,0,0,1,23.552,402.2Z" transform="translate(-12.413 -386.046)" fill="#e9ca1c"/>
        </g>
        <path id="Trazado_912751" data-name="Trazado 912751" d="M80.508,473.848H29v-1.874a2.844,2.844,0,0,1,2.844-2.844H77.663a2.844,2.844,0,0,1,2.844,2.844v1.874Z" transform="translate(-26.555 -416.618)" fill="#e6cc9f"/>
        <path id="Trazado_912752" data-name="Trazado 912752" d="M31.847,473.848H29v-1.874a2.844,2.844,0,0,1,2.844-2.844Z" transform="translate(-26.555 -416.618)" fill="#dfba7f"/>
      </g>
      <g id="Grupo_1116299" data-name="Grupo 1116299" transform="translate(14.378 48.981)">
        <path id="Trazado_912753" data-name="Trazado 912753" d="M126.368,429.763h1.707v1.707h-1.707Z" transform="translate(-126.368 -429.763)" fill="#fff"/>
        <path id="Trazado_912754" data-name="Trazado 912754" d="M156.368,429.763h1.707v1.707h-1.707Z" transform="translate(-152.955 -429.763)" fill="#fff"/>
      </g>
      <g id="Grupo_1116300" data-name="Grupo 1116300" transform="translate(0 0.095)">
        <path id="Trazado_912755" data-name="Trazado 912755" d="M207.343,176h1.707v4.88h-1.707Z" transform="translate(-183.752 -155.988)"/>
        <path id="Trazado_912756" data-name="Trazado 912756" d="M288.343,176h1.707v4.88h-1.707Z" transform="translate(-255.536 -155.988)"/>
        <path id="Trazado_912757" data-name="Trazado 912757" d="M57.209,39.134a3.136,3.136,0,0,0-3.414-3.824,4.284,4.284,0,0,0-6.6.786l-.668,1.069a19.6,19.6,0,0,0-2.682-3.951l-1.285,1.123a17.869,17.869,0,0,1,2.894,4.544l-.145.233c-2.617-.355-5.355,2.238-7.492,4.474v-13.1a17.939,17.939,0,0,1,3.606,2.668L42.6,31.916a19.608,19.608,0,0,0-4.784-3.364v-.233a9.914,9.914,0,0,0,1.164-3.983c.009-.031.023-7.71.028-7.743h5.433a3.845,3.845,0,0,0,3.761-4.4L40.007,9.824,38.471,3.373A4.254,4.254,0,0,0,34.32.1H27.247V1.8H34.32a2.552,2.552,0,0,1,2.491,1.967l.453,1.9H20.841l.453-1.9A2.552,2.552,0,0,1,23.784,1.8H25.54V.1H23.784a4.253,4.253,0,0,0-4.151,3.278L18.1,9.824,9.9,12.191v.642a3.779,3.779,0,0,0,3.761,3.76H19.1l.025,7.683,0,.06a9.913,9.913,0,0,0,1.164,3.983v.233a19.709,19.709,0,0,0-8.3,7.863,14.126,14.126,0,0,0-2.184-.886,10.177,10.177,0,0,0,.135,8.044A10.29,10.29,0,0,1,6.968,39.98a3.751,3.751,0,0,0-3.752-1.87,2.619,2.619,0,0,1,2.042-2.368l-.571-1.608c-2.712,1.015-3.294,2.839-3.157,4.658A3.744,3.744,0,0,0,.073,42.535a21.355,21.355,0,0,0,4.94,10.25A3.7,3.7,0,0,0,2.446,56.3v1.874H4.153V56.3a1.993,1.993,0,0,1,1.991-1.991H51.96A1.993,1.993,0,0,1,53.951,56.3v1.874h1.707V56.3a3.7,3.7,0,0,0-3.7-3.7H49.027c1.855-1.669,3.5-3.437,3.444-5.467l3.21-1.533a4.283,4.283,0,0,0,1.528-6.473Zm-1.982-1.666a1.517,1.517,0,0,1,.113,1.806L50.8,43.327A13.475,13.475,0,0,0,48.9,41.205l4.545-4.057A1.514,1.514,0,0,1,55.227,37.468ZM48.638,37a2.576,2.576,0,0,1,3.407-.886L47.557,40.12c-.2-.139-.411-.27-.625-.391ZM37.468,49.226a5.384,5.384,0,0,1-1.19,3.382h-12.5a5.507,5.507,0,0,0,.475-2.453l2.511-2.432,2.82,2.731,2.821-2.731,2.821,2.731,2.167-2.1a5.446,5.446,0,0,1,.07.871ZM16.6,44.817c-1.323-2.789.147-6.645.9-8.056,1.676.737,5.465,3.164,5.776,6.48A7.142,7.142,0,0,0,21.2,45.275a6.984,6.984,0,0,0-4.607-.458ZM22,30.611A9.816,9.816,0,0,0,23.7,31.987v7.69A10.551,10.551,0,0,0,22,37.7ZM36.106,43.378a7.141,7.141,0,0,0-1.707-.867V31.987a9.816,9.816,0,0,0,1.707-1.376Zm-3.413-1.236c-.429-.048-1.668-.022-2.117-.028V39.156H28.869v2.958a14.9,14.9,0,0,0-3.458.205V32.858a10.02,10.02,0,0,0,7.282,0Zm-9.4,3.261a5.369,5.369,0,0,1,3.821-1.583h4.948a5.422,5.422,0,0,1,4.713,2.759l-1.546,1.5-2.82-2.731-2.821,2.731-2.821-2.731-2.819,2.731-.321-.31A5.9,5.9,0,0,0,22.574,46.3a5.409,5.409,0,0,1,.72-.891ZM37.67,7.377l.542,2.276H19.893l.542-2.276ZM12.214,14.285a2.047,2.047,0,0,1-.509-.838l7.228-2.088H39.171L46.4,13.447a2.058,2.058,0,0,1-1.961,1.439H13.666a2.04,2.04,0,0,1-1.453-.6ZM37.3,16.593l-.025,7.646a8.246,8.246,0,0,1-16.442,0l-.025-7.646ZM16.381,33.447a17.906,17.906,0,0,1,3.91-2.965v5.9a14.389,14.389,0,0,0-3.527-1.758A14.528,14.528,0,0,0,14.95,38.5a9.809,9.809,0,0,0-1.487-1.223,17.907,17.907,0,0,1,2.918-3.831Zm-5.47,4.337a8.49,8.49,0,0,1,3.552,2.845,9.113,9.113,0,0,0,.335,4.276,11.941,11.941,0,0,1-1.62-.108C10.358,42.688,10.6,39.366,10.912,37.784Zm-.236,8.106c1.893.766,4.145.915,7.3.486a4,4,0,0,1,3.857,6.231H7.319a15.58,15.58,0,0,1-4.312-6.2l1.031.535.974-2.239L7.18,45.831l.75-1.725a8.645,8.645,0,0,0,2.745,1.784Zm-5.2-5.083a16.136,16.136,0,0,0,1.208,1.886l-.34.782L4.176,42.35,3.2,44.59l-1-.518c-.2-.694-.347-1.331-.457-1.874a2.017,2.017,0,0,1,3.73-1.389Zm45.287,6.656c-.14,1.244-1.686,3.05-4.262,4.992l-4.033-3.814-1.173,1.24,2.882,2.725H38.319a7.136,7.136,0,0,0-.089-6.923,28.139,28.139,0,0,1,2.7-2.767l3.431,3.1L45.5,44.749l-3.22-2.907a4.865,4.865,0,0,1,2.508-1.068c2-.023,6.222,4.706,5.973,6.69Zm5.59-5.2a2.537,2.537,0,0,1-1.407,1.8l-2.9,1.386c-.1-.226-.2-.448-.318-.665l4.487-4.005a2.542,2.542,0,0,1,.141,1.479Z" transform="translate(0 -0.095)"/>
      </g>
    </g>
  </g>
</svg>
