<svg xmlns="http://www.w3.org/2000/svg" xmlns:xlink="http://www.w3.org/1999/xlink" width="102.949" height="102.949" viewBox="0 0 102.949 102.949">
  <defs>
    <filter id="Trazado_874925" x="0" y="0" width="102.949" height="102.949" filterUnits="userSpaceOnUse">
      <feOffset dy="3" input="SourceAlpha"/>
      <feGaussianBlur stdDeviation="3" result="blur"/>
      <feFlood flood-opacity="0.161"/>
      <feComposite operator="in" in2="blur"/>
      <feComposite in="SourceGraphic"/>
    </filter>
  </defs>
  <g id="Grupo_1116304" data-name="Grupo 1116304" transform="translate(-276.051 -4431)">
    <g id="Grupo_1111316" data-name="Grupo 1111316" transform="translate(285.051 4437)">
      <g id="Grupo_1109835" data-name="Grupo 1109835" transform="translate(0 0)">
        <g id="Grupo_1107913" data-name="Grupo 1107913" transform="translate(0 0)">
          <g transform="matrix(1, 0, 0, 1, -9, -6)" filter="url(#Trazado_874925)">
            <g id="Trazado_874925-2" data-name="Trazado 874925" transform="translate(9 6)" fill="#fc0" opacity="0.859">
              <path d="M 42.47446823120117 83.44929504394531 C 36.94229125976562 83.44929504394531 31.57638549804688 82.36614227294922 26.52582168579102 80.22994232177734 C 21.64678573608398 78.16628265380859 17.26464462280273 75.211669921875 13.50113868713379 71.44816589355469 C 9.737632751464844 67.68466949462891 6.78300952911377 63.30253982543945 4.719362258911133 58.42351913452148 C 2.583150625228882 53.37295150756836 1.499997615814209 48.00706100463867 1.499997615814209 42.47489547729492 C 1.499997615814209 36.94223403930664 2.583150625228882 31.57634162902832 4.719362258911133 26.52577781677246 C 6.78300952911377 21.64675331115723 9.737632751464844 17.26462364196777 13.50113868713379 13.50113010406494 C 17.26464462280273 9.737624168395996 21.64678573608398 6.783012390136719 26.52582168579102 4.719353199005127 C 31.57638549804688 2.583153486251831 36.94229125976562 1.500000476837158 42.47446823120117 1.500000476837158 C 48.00664520263672 1.500000476837158 53.37255096435547 2.583153486251831 58.42311477661133 4.719353199005127 C 63.30215072631836 6.783012390136719 67.68428802490234 9.737624168395996 71.44779968261719 13.50113010406494 C 75.2113037109375 17.26462364196777 78.16592407226562 21.64675331115723 80.22957611083984 26.52577781677246 C 82.36578369140625 31.57634162902832 83.44893646240234 36.94223403930664 83.44893646240234 42.47439956665039 C 83.44893646240234 48.00706100463867 82.36578369140625 53.37295150756836 80.22957611083984 58.42351913452148 C 78.16592407226562 63.30253982543945 75.2113037109375 67.68466949462891 71.44779968261719 71.44816589355469 C 67.68428802490234 75.211669921875 63.30215072631836 78.16628265380859 58.42311477661133 80.22994232177734 C 53.37255096435547 82.36614227294922 48.00664520263672 83.44929504394531 42.47446823120117 83.44929504394531 Z" stroke="none"/>
              <path d="M 42.47446823120117 2.999992370605469 C 37.14412307739258 2.999992370605469 31.97481536865234 4.04327392578125 27.11014938354492 6.100860595703125 C 22.40990829467773 8.088890075683594 18.18804168701172 10.93555450439453 14.56179809570312 14.56178283691406 C 10.93557739257812 18.18801116943359 8.088897705078125 22.40987396240234 6.100868225097656 27.11009979248047 C 4.043281555175781 31.97476577758789 3 37.14406204223633 3 42.47488784790039 C 3 47.80522155761719 4.043281555175781 52.97451400756836 6.100868225097656 57.83917999267578 C 8.088897705078125 62.53940582275391 10.93557739257812 66.76127624511719 14.56179809570312 70.38749694824219 C 18.18804168701172 74.01372528076172 22.40990829467773 76.86039733886719 27.11014938354492 78.84841918945312 C 31.97481536865234 80.906005859375 37.14412307739258 81.94928741455078 42.47446823120117 81.94928741455078 C 47.80481338500977 81.94928741455078 52.97412109375 80.906005859375 57.83879089355469 78.84841918945312 C 62.53902816772461 76.86039733886719 66.76089477539062 74.01372528076172 70.38713073730469 70.38749694824219 C 74.01335906982422 66.76127624511719 76.86003875732422 62.53940582275391 78.84806823730469 57.83917999267578 C 80.90565490722656 52.97451400756836 81.94893646240234 47.80522155761719 81.94893646240234 42.47439575195312 C 81.94893646240234 37.14406204223633 80.90565490722656 31.97476577758789 78.84806823730469 27.11009979248047 C 76.86003875732422 22.40987396240234 74.01335906982422 18.18801116943359 70.38713073730469 14.56178283691406 C 66.76089477539062 10.93555450439453 62.53902816772461 8.088890075683594 57.83879089355469 6.100860595703125 C 52.97412109375 4.04327392578125 47.80481338500977 2.999992370605469 42.47446823120117 2.999992370605469 M 42.47446823120117 -7.62939453125e-06 C 65.93246459960938 -7.62939453125e-06 84.94893646240234 19.01643371582031 84.94893646240234 42.47439575195312 L 84.94893646240234 42.47488784790039 C 84.94893646240234 65.93284606933594 65.93246459960938 84.94928741455078 42.47446823120117 84.94928741455078 C 19.01647186279297 84.94928741455078 0 65.93284606933594 0 42.47488784790039 L 0 42.47439575195312 C 0 19.01643371582031 19.01647186279297 -7.62939453125e-06 42.47446823120117 -7.62939453125e-06 Z" stroke="none" fill="#fff"/>
            </g>
          </g>
          <g id="Trazado_874923" data-name="Trazado 874923" transform="translate(0 0)" fill="none">
            <path d="M42.474,0A42.474,42.474,0,0,1,84.949,42.474h0A42.474,42.474,0,0,1,0,42.475H0A42.474,42.474,0,0,1,42.474,0Z" stroke="none"/>
            <path d="M 42.47446823120117 2.999992370605469 C 37.14412307739258 2.999992370605469 31.97481536865234 4.04327392578125 27.11014938354492 6.100860595703125 C 22.40990829467773 8.088890075683594 18.18804168701172 10.93555450439453 14.56179809570312 14.56178283691406 C 10.93557739257812 18.18801116943359 8.088897705078125 22.40987396240234 6.100868225097656 27.11009979248047 C 4.043281555175781 31.97476577758789 3 37.14406204223633 3 42.47488784790039 C 3 47.80522155761719 4.043281555175781 52.97451400756836 6.100868225097656 57.83917999267578 C 8.088897705078125 62.53940582275391 10.93557739257812 66.76127624511719 14.56179809570312 70.38749694824219 C 18.18804168701172 74.01372528076172 22.40990829467773 76.86039733886719 27.11014938354492 78.84841918945312 C 31.97481536865234 80.906005859375 37.14412307739258 81.94928741455078 42.47446823120117 81.94928741455078 C 47.80481338500977 81.94928741455078 52.97412109375 80.906005859375 57.83879089355469 78.84841918945312 C 62.53902816772461 76.86039733886719 66.76089477539062 74.01372528076172 70.38713073730469 70.38749694824219 C 74.01335906982422 66.76127624511719 76.86003875732422 62.53940582275391 78.84806823730469 57.83917999267578 C 80.90565490722656 52.97451400756836 81.94893646240234 47.80522155761719 81.94893646240234 42.47439575195312 C 81.94893646240234 37.14406204223633 80.90565490722656 31.97476577758789 78.84806823730469 27.11009979248047 C 76.86003875732422 22.40987396240234 74.01335906982422 18.18801116943359 70.38713073730469 14.56178283691406 C 66.76089477539062 10.93555450439453 62.53902816772461 8.088890075683594 57.83879089355469 6.100860595703125 C 52.97412109375 4.04327392578125 47.80481338500977 2.999992370605469 42.47446823120117 2.999992370605469 M 42.47446823120117 -7.62939453125e-06 C 65.93246459960938 -7.62939453125e-06 84.94893646240234 19.01643371582031 84.94893646240234 42.47439575195312 L 84.94893646240234 42.47488784790039 C 84.94893646240234 65.93284606933594 65.93246459960938 84.94928741455078 42.47446823120117 84.94928741455078 C 19.01647186279297 84.94928741455078 0 65.93284606933594 0 42.47488784790039 L 0 42.47439575195312 C 0 19.01643371582031 19.01647186279297 -7.62939453125e-06 42.47446823120117 -7.62939453125e-06 Z" stroke="none" fill="#fff"/>
          </g>
        </g>
      </g>
    </g>
    <g id="Grupo_1116303" data-name="Grupo 1116303" transform="translate(301.051 4453)">
      <path id="Trazado_912758" data-name="Trazado 912758" d="M269.82,36.137c-7.1,0-12.859,3.754-12.859,11a12.861,12.861,0,1,0,25.716,0C282.677,39.891,276.921,36.137,269.82,36.137Zm0,0" transform="translate(-229.775 -32.314)" fill="#fbc4ac"/>
      <path id="Trazado_912759" data-name="Trazado 912759" d="M259.5,29.249A13.019,13.019,0,0,1,271.092,16.2q-.626-.063-1.269-.064a13.115,13.115,0,0,0,0,26.225q.642,0,1.269-.064A13.018,13.018,0,0,1,259.5,29.249Zm0,0" transform="translate(-229.778 -14.43)" fill="#e3b098"/>
      <path id="Trazado_912760" data-name="Trazado 912760" d="M429.808,171.161h-1.815a.793.793,0,0,1,0-1.587h1.815a.793.793,0,1,1,0,1.587Zm0,0" transform="translate(-382.002 -151.634)" fill="#f98084"/>
      <path id="Trazado_912761" data-name="Trazado 912761" d="M300.241,171.161h-1.816a.793.793,0,0,1,0-1.587h1.816a.793.793,0,0,1,0,1.587Zm0,0" transform="translate(-266.144 -151.634)" fill="#f98084"/>
      <path id="Trazado_912762" data-name="Trazado 912762" d="M282.062,17.513c-.883-10.75-5.218-9.095-12.242-9.095-5.311,0-7.861-.531-8.947-.87a.931.931,0,0,0-1.109.465,30.123,30.123,0,0,0-2.8,13.517s3.075-5.538,12.858-5.538C274.37,15.992,273.99,17.513,282.062,17.513Zm0,0" transform="translate(-229.775 -6.711)" fill="#c86d5c"/>
      <path id="Trazado_912763" data-name="Trazado 912763" d="M262.3,8.013a.94.94,0,0,1,.068-.111,12.842,12.842,0,0,1-1.5-.354.931.931,0,0,0-1.109.465,30.123,30.123,0,0,0-2.8,13.517,9.318,9.318,0,0,1,2.631-2.677A28.52,28.52,0,0,1,262.3,8.013Zm0,0" transform="translate(-229.775 -6.711)" fill="#ad4f3d"/>
      <path id="Trazado_912764" data-name="Trazado 912764" d="M7.59,375.762v8.453a4.133,4.133,0,0,0,3.677,4.108l6.076.676Zm0,0" transform="translate(-6.787 -336.007)" fill="#3a484a"/>
      <path id="Trazado_912765" data-name="Trazado 912765" d="M168.049,375.762v8.453a4.133,4.133,0,0,1-3.677,4.108L158.3,389Zm0,0" transform="translate(-141.549 -336.007)" fill="#3a484a"/>
      <path id="Trazado_912766" data-name="Trazado 912766" d="M33.207,291.857h0L20.072,281.93,7.511,291.858h0c-.006.169-.01.338-.01.508a12.987,12.987,0,0,0,12.858,13.113,12.987,12.987,0,0,0,12.858-13.113C33.216,292.195,33.213,292.026,33.207,291.857Zm0,0" transform="translate(-6.707 -252.102)" fill="#fbc4ac"/>
      <path id="Trazado_912767" data-name="Trazado 912767" d="M9.637,371.813a13.359,13.359,0,0,1-2.126.419h0c-.006.169-.01.337-.01.507a12.987,12.987,0,0,0,12.858,13.113c.367,0,.73-.017,1.089-.048C15.062,385.22,9.99,379.244,9.637,371.813Zm0,0" transform="translate(-6.707 -332.475)" fill="#e3b098"/>
      <path id="Trazado_912768" data-name="Trazado 912768" d="M50.78,411.646H48.965a.793.793,0,1,1,0-1.587H50.78a.793.793,0,1,1,0,1.587Zm0,0" transform="translate(-43.075 -366.675)" fill="#f98084"/>
      <path id="Trazado_912769" data-name="Trazado 912769" d="M180.347,411.646h-1.815a.793.793,0,0,1,0-1.587h1.815a.793.793,0,0,1,0,1.587Zm0,0" transform="translate(-158.934 -366.675)" fill="#f98084"/>
      <path id="Trazado_912770" data-name="Trazado 912770" d="M7.59,269.23h0c6.9-.763,12.847-7.429,12.847-7.429s5.947,6.665,12.848,7.429h0a12.975,12.975,0,0,0-12.849-12.6A12.975,12.975,0,0,0,7.59,269.23Zm0,0" transform="translate(-6.787 -229.475)" fill="#3a484a"/>
      <path id="Trazado_912771" data-name="Trazado 912771" d="M21.549,256.674c-.366-.032-.736-.049-1.111-.049A12.975,12.975,0,0,0,7.59,269.23h0a12,12,0,0,0,2.126-.419A13.138,13.138,0,0,1,21.549,256.674Zm0,0" transform="translate(-6.787 -229.475)" fill="#323e40"/>
      <path id="Trazado_912772" data-name="Trazado 912772" d="M28.321,66.123V58.2a5.127,5.127,0,0,0-5.127-5.127H12.627A5.127,5.127,0,0,0,7.5,58.2V65.44a5.127,5.127,0,0,0,5.127,5.127H30.777Zm0,0" transform="translate(-6.707 -47.456)" fill="#58b78c"/>
      <path id="Trazado_912773" data-name="Trazado 912773" d="M282.475,310.928V303a5.126,5.126,0,0,1,5.127-5.127h10.567A5.127,5.127,0,0,1,303.3,303v7.243a5.127,5.127,0,0,1-5.127,5.127H280.02Zm0,0" transform="translate(-250.394 -266.36)" fill="#f2c42c"/>
      <path id="Trazado_912774" data-name="Trazado 912774" d="M436.571,141.388a.793.793,0,0,0,.794-.793v-1.332a.793.793,0,1,0-1.587,0v1.332A.793.793,0,0,0,436.571,141.388Zm0,0" transform="translate(-389.673 -123.819)"/>
      <path id="Trazado_912775" data-name="Trazado 912775" d="M307,141.388a.793.793,0,0,0,.793-.793v-1.332a.793.793,0,0,0-1.587,0v1.332A.793.793,0,0,0,307,141.388Zm0,0" transform="translate(-273.811 -123.819)"/>
      <path id="Trazado_912776" data-name="Trazado 912776" d="M363.174,163.937a.794.794,0,0,0-1.12.075.864.864,0,0,1-1.257,0,.794.794,0,0,0-1.2,1.045,2.451,2.451,0,0,0,3.647,0A.794.794,0,0,0,363.174,163.937Zm0,0" transform="translate(-321.382 -146.417)"/>
      <path id="Trazado_912777" data-name="Trazado 912777" d="M57.543,381.869a.794.794,0,0,0,.793-.793v-1.333a.793.793,0,0,0-1.587,0v1.333A.793.793,0,0,0,57.543,381.869Zm0,0" transform="translate(-50.746 -338.857)"/>
      <path id="Trazado_912778" data-name="Trazado 912778" d="M187.11,381.869a.794.794,0,0,0,.793-.793v-1.333a.793.793,0,1,0-1.587,0v1.333A.794.794,0,0,0,187.11,381.869Zm0,0" transform="translate(-166.604 -338.857)"/>
      <path id="Trazado_912779" data-name="Trazado 912779" d="M111.337,404.5a.794.794,0,0,0-1.2,1.044,2.45,2.45,0,0,0,3.647,0,.793.793,0,0,0-1.195-1.044.864.864,0,0,1-1.257,0Zm0,0" transform="translate(-98.313 -361.458)"/>
      <path id="Trazado_912780" data-name="Trazado 912780" d="M5.92,64.658H24.07a.8.8,0,0,0,.695-1.177l-2.357-4.264V51.494a5.927,5.927,0,0,0-5.92-5.92H5.92A5.927,5.927,0,0,0,0,51.494v7.243A5.927,5.927,0,0,0,5.92,64.658ZM1.587,51.494A4.338,4.338,0,0,1,5.92,47.161H16.488a4.338,4.338,0,0,1,4.333,4.333V59.42a.79.79,0,0,0,.1.384l1.8,3.267H5.92a4.338,4.338,0,0,1-4.333-4.334Zm0,0" transform="translate(0 -40.753)"/>
      <path id="Trazado_912781" data-name="Trazado 912781" d="M46.883,95.618H57.952a.793.793,0,0,0,0-1.587H46.883a.793.793,0,0,0,0,1.587Zm0,0" transform="translate(-41.214 -84.083)"/>
      <path id="Trazado_912782" data-name="Trazado 912782" d="M46.883,129.849H57.952a.793.793,0,1,0,0-1.587H46.883a.793.793,0,1,0,0,1.587Zm0,0" transform="translate(-41.214 -114.692)"/>
      <path id="Trazado_912783" data-name="Trazado 912783" d="M46.883,164.079h6.9a.793.793,0,1,0,0-1.587h-6.9a.793.793,0,1,0,0,1.587Zm0,0" transform="translate(-41.214 -145.301)"/>
      <path id="Trazado_912784" data-name="Trazado 912784" d="M273.337,309.458h18.149a5.927,5.927,0,0,0,5.92-5.92V296.3a5.927,5.927,0,0,0-5.92-5.92H280.919A5.927,5.927,0,0,0,275,296.3v7.722l-2.356,4.265A.8.8,0,0,0,273.337,309.458Zm3.15-4.853a.8.8,0,0,0,.1-.384V296.3a4.338,4.338,0,0,1,4.333-4.333h10.567a4.338,4.338,0,0,1,4.333,4.333v7.243a4.338,4.338,0,0,1-4.333,4.333h-16.8Zm0,0" transform="translate(-243.712 -259.654)"/>
      <path id="Trazado_912785" data-name="Trazado 912785" d="M342.61,340.423h11.068a.794.794,0,0,0,0-1.587H342.61a.794.794,0,0,0,0,1.587Zm0,0" transform="translate(-305.653 -302.988)"/>
      <path id="Trazado_912786" data-name="Trazado 912786" d="M354.472,373.856a.793.793,0,0,0-.793-.793H342.61a.793.793,0,0,0,0,1.587h11.068A.793.793,0,0,0,354.472,373.856Zm0,0" transform="translate(-305.653 -333.593)"/>
      <path id="Trazado_912787" data-name="Trazado 912787" d="M389.681,408.086a.793.793,0,0,0-.793-.793h-6.9a.793.793,0,1,0,0,1.587h6.9A.793.793,0,0,0,389.681,408.086Zm0,0" transform="translate(-340.862 -364.202)"/>
      <path id="Trazado_912788" data-name="Trazado 912788" d="M263.113,28.726A13.8,13.8,0,0,0,276.764,14.82a14.141,14.141,0,0,0-.625-4.163c-.391-4.646-1.447-7.325-3.419-8.678C270.858.7,268.409.778,265.572.865c-.788.024-1.6.049-2.459.049-5.252,0-7.712-.523-8.711-.835a1.721,1.721,0,0,0-2.052.863,24.087,24.087,0,0,0-1.738,4.67.793.793,0,0,0,1.533.411,22.5,22.5,0,0,1,1.619-4.36.136.136,0,0,1,.165-.068c1.325.413,3.995.906,9.183.906.881,0,1.708-.025,2.508-.05,2.664-.082,4.768-.146,6.2.837S274.1,6.407,274.482,10a32.851,32.851,0,0,1-3.578-.208,25.316,25.316,0,0,1-3.4-.679,14.773,14.773,0,0,0-4.395-.626,22.525,22.525,0,0,0-5.439.633,16.035,16.035,0,0,0-4.344,1.771,12.916,12.916,0,0,0-2.188,1.642l-.027.025a34.836,34.836,0,0,1,.387-3.528.793.793,0,0,0-1.566-.255,37.776,37.776,0,0,0-.474,6.043A13.8,13.8,0,0,0,263.113,28.726Zm0-1.587A12.2,12.2,0,0,1,251.05,15.045c0-.007.017-.026.021-.032a9.667,9.667,0,0,1,2.893-2.636,17.3,17.3,0,0,1,10.765-2.221c1.778.2,3.476.851,5.247,1.112a34.539,34.539,0,0,0,4.647.322l.135,0a12.58,12.58,0,0,1,.419,3.228A12.208,12.208,0,0,1,263.113,27.139Zm0,0" transform="translate(-223.068 0)"/>
      <path id="Trazado_912789" data-name="Trazado 912789" d="M.014,270.976a4.922,4.922,0,0,0,4.382,4.9l6.035.671a13.429,13.429,0,0,0,6.45,0l6.035-.671a4.922,4.922,0,0,0,4.382-4.9v-7.457c0-.342.012-.683,0-1.026a13.947,13.947,0,0,0-4.158-9.466,13.488,13.488,0,0,0-20.316,1.54.793.793,0,0,0,1.267.956,11.9,11.9,0,0,1,17.936-1.365,12.347,12.347,0,0,1,3.613,7.431q-.292-.056-.581-.127a19.266,19.266,0,0,1-6.41-3.087l-.006,0a30.269,30.269,0,0,1-3.476-2.874c-.256-.246-.508-.5-.753-.755a1.272,1.272,0,0,0-.509-.4.775.775,0,0,0-.494,0,1.585,1.585,0,0,0-.58.477c-.486.507-1,.991-1.52,1.457a30.166,30.166,0,0,1-2.663,2.116,18.458,18.458,0,0,1-6.973,3.2,12.4,12.4,0,0,1,.927-3.5.794.794,0,1,0-1.458-.626,14.022,14.022,0,0,0-1.127,5.025c-.013.342-.012.684,0,1.025Zm5.841,3.462L4.572,274.3A3.337,3.337,0,0,1,1.6,270.976v-1.409a14.04,14.04,0,0,0,1.5,2.277A13.782,13.782,0,0,0,5.665,274.3Zm19.855-3.462A3.337,3.337,0,0,1,22.74,274.3l-1.283.143.192-.142a13.775,13.775,0,0,0,2.566-2.453,14.034,14.034,0,0,0,1.5-2.277ZM13.823,256.414a26.006,26.006,0,0,0,8.839,5.96,15.693,15.693,0,0,0,3.058.844c0,.085,0,.17-.007.255a.056.056,0,0,1,0,.008,12.446,12.446,0,0,1-4.381,9.049l-.012.01a11.847,11.847,0,0,1-15.337-.01A12.447,12.447,0,0,1,1.6,263.48a.046.046,0,0,1,0-.008c0-.085-.005-.17-.007-.255.073-.012.145-.027.218-.04a16.686,16.686,0,0,0,2.224-.581,21.356,21.356,0,0,0,5.453-2.843l0,0a29.9,29.9,0,0,0,4.164-3.5Zm0,0" transform="translate(-0.005 -222.768)"/>
    </g>
  </g>
</svg>
