<svg xmlns="http://www.w3.org/2000/svg" xmlns:xlink="http://www.w3.org/1999/xlink" width="102.949" height="102.949" viewBox="0 0 102.949 102.949">
  <defs>
    <filter id="Trazado_874925" x="0" y="0" width="102.949" height="102.949" filterUnits="userSpaceOnUse">
      <feOffset dy="3" input="SourceAlpha"/>
      <feGaussianBlur stdDeviation="3" result="blur"/>
      <feFlood flood-opacity="0.161"/>
      <feComposite operator="in" in2="blur"/>
      <feComposite in="SourceGraphic"/>
    </filter>
  </defs>
  <g id="Grupo_1116348" data-name="Grupo 1116348" transform="translate(-1221.051 -4433)">
    <g id="Grupo_1111316" data-name="Grupo 1111316" transform="translate(1230.051 4439)">
      <g id="Grupo_1109835" data-name="Grupo 1109835" transform="translate(0 0)">
        <g id="Grupo_1107913" data-name="Grupo 1107913" transform="translate(0 0)">
          <g transform="matrix(1, 0, 0, 1, -9, -6)" filter="url(#Trazado_874925)">
            <g id="Trazado_874925-2" data-name="Trazado 874925" transform="translate(9 6)" fill="#fc0" opacity="0.859">
              <path d="M 42.47446823120117 83.44929504394531 C 36.94229125976562 83.44929504394531 31.57638549804688 82.36614227294922 26.52582168579102 80.22994232177734 C 21.64678573608398 78.16628265380859 17.26464462280273 75.211669921875 13.50113868713379 71.44816589355469 C 9.737632751464844 67.68466949462891 6.78300952911377 63.30253982543945 4.719362258911133 58.42351913452148 C 2.583150625228882 53.37295150756836 1.499997615814209 48.00706100463867 1.499997615814209 42.47489547729492 C 1.499997615814209 36.94223403930664 2.583150625228882 31.57634162902832 4.719362258911133 26.52577781677246 C 6.78300952911377 21.64675331115723 9.737632751464844 17.26462364196777 13.50113868713379 13.50113010406494 C 17.26464462280273 9.737624168395996 21.64678573608398 6.783012390136719 26.52582168579102 4.719353199005127 C 31.57638549804688 2.583153486251831 36.94229125976562 1.500000476837158 42.47446823120117 1.500000476837158 C 48.00664520263672 1.500000476837158 53.37255096435547 2.583153486251831 58.42311477661133 4.719353199005127 C 63.30215072631836 6.783012390136719 67.68428802490234 9.737624168395996 71.44779968261719 13.50113010406494 C 75.2113037109375 17.26462364196777 78.16592407226562 21.64675331115723 80.22957611083984 26.52577781677246 C 82.36578369140625 31.57634162902832 83.44893646240234 36.94223403930664 83.44893646240234 42.47439956665039 C 83.44893646240234 48.00706100463867 82.36578369140625 53.37295150756836 80.22957611083984 58.42351913452148 C 78.16592407226562 63.30253982543945 75.2113037109375 67.68466949462891 71.44779968261719 71.44816589355469 C 67.68428802490234 75.211669921875 63.30215072631836 78.16628265380859 58.42311477661133 80.22994232177734 C 53.37255096435547 82.36614227294922 48.00664520263672 83.44929504394531 42.47446823120117 83.44929504394531 Z" stroke="none"/>
              <path d="M 42.47446823120117 2.999992370605469 C 37.14412307739258 2.999992370605469 31.97481536865234 4.04327392578125 27.11014938354492 6.100860595703125 C 22.40990829467773 8.088890075683594 18.18804168701172 10.93555450439453 14.56179809570312 14.56178283691406 C 10.93557739257812 18.18801116943359 8.088897705078125 22.40987396240234 6.100868225097656 27.11009979248047 C 4.043281555175781 31.97476577758789 3 37.14406204223633 3 42.47488784790039 C 3 47.80522155761719 4.043281555175781 52.97451400756836 6.100868225097656 57.83917999267578 C 8.088897705078125 62.53940582275391 10.93557739257812 66.76127624511719 14.56179809570312 70.38749694824219 C 18.18804168701172 74.01372528076172 22.40990829467773 76.86039733886719 27.11014938354492 78.84841918945312 C 31.97481536865234 80.906005859375 37.14412307739258 81.94928741455078 42.47446823120117 81.94928741455078 C 47.80481338500977 81.94928741455078 52.97412109375 80.906005859375 57.83879089355469 78.84841918945312 C 62.53902816772461 76.86039733886719 66.76089477539062 74.01372528076172 70.38713073730469 70.38749694824219 C 74.01335906982422 66.76127624511719 76.86003875732422 62.53940582275391 78.84806823730469 57.83917999267578 C 80.90565490722656 52.97451400756836 81.94893646240234 47.80522155761719 81.94893646240234 42.47439575195312 C 81.94893646240234 37.14406204223633 80.90565490722656 31.97476577758789 78.84806823730469 27.11009979248047 C 76.86003875732422 22.40987396240234 74.01335906982422 18.18801116943359 70.38713073730469 14.56178283691406 C 66.76089477539062 10.93555450439453 62.53902816772461 8.088890075683594 57.83879089355469 6.100860595703125 C 52.97412109375 4.04327392578125 47.80481338500977 2.999992370605469 42.47446823120117 2.999992370605469 M 42.47446823120117 -7.62939453125e-06 C 65.93246459960938 -7.62939453125e-06 84.94893646240234 19.01643371582031 84.94893646240234 42.47439575195312 L 84.94893646240234 42.47488784790039 C 84.94893646240234 65.93284606933594 65.93246459960938 84.94928741455078 42.47446823120117 84.94928741455078 C 19.01647186279297 84.94928741455078 0 65.93284606933594 0 42.47488784790039 L 0 42.47439575195312 C 0 19.01643371582031 19.01647186279297 -7.62939453125e-06 42.47446823120117 -7.62939453125e-06 Z" stroke="none" fill="#fff"/>
            </g>
          </g>
          <g id="Trazado_874923" data-name="Trazado 874923" transform="translate(0 0)" fill="none">
            <path d="M42.474,0A42.474,42.474,0,0,1,84.949,42.474h0A42.474,42.474,0,0,1,0,42.475H0A42.474,42.474,0,0,1,42.474,0Z" stroke="none"/>
            <path d="M 42.47446823120117 2.999992370605469 C 37.14412307739258 2.999992370605469 31.97481536865234 4.04327392578125 27.11014938354492 6.100860595703125 C 22.40990829467773 8.088890075683594 18.18804168701172 10.93555450439453 14.56179809570312 14.56178283691406 C 10.93557739257812 18.18801116943359 8.088897705078125 22.40987396240234 6.100868225097656 27.11009979248047 C 4.043281555175781 31.97476577758789 3 37.14406204223633 3 42.47488784790039 C 3 47.80522155761719 4.043281555175781 52.97451400756836 6.100868225097656 57.83917999267578 C 8.088897705078125 62.53940582275391 10.93557739257812 66.76127624511719 14.56179809570312 70.38749694824219 C 18.18804168701172 74.01372528076172 22.40990829467773 76.86039733886719 27.11014938354492 78.84841918945312 C 31.97481536865234 80.906005859375 37.14412307739258 81.94928741455078 42.47446823120117 81.94928741455078 C 47.80481338500977 81.94928741455078 52.97412109375 80.906005859375 57.83879089355469 78.84841918945312 C 62.53902816772461 76.86039733886719 66.76089477539062 74.01372528076172 70.38713073730469 70.38749694824219 C 74.01335906982422 66.76127624511719 76.86003875732422 62.53940582275391 78.84806823730469 57.83917999267578 C 80.90565490722656 52.97451400756836 81.94893646240234 47.80522155761719 81.94893646240234 42.47439575195312 C 81.94893646240234 37.14406204223633 80.90565490722656 31.97476577758789 78.84806823730469 27.11009979248047 C 76.86003875732422 22.40987396240234 74.01335906982422 18.18801116943359 70.38713073730469 14.56178283691406 C 66.76089477539062 10.93555450439453 62.53902816772461 8.088890075683594 57.83879089355469 6.100860595703125 C 52.97412109375 4.04327392578125 47.80481338500977 2.999992370605469 42.47446823120117 2.999992370605469 M 42.47446823120117 -7.62939453125e-06 C 65.93246459960938 -7.62939453125e-06 84.94893646240234 19.01643371582031 84.94893646240234 42.47439575195312 L 84.94893646240234 42.47488784790039 C 84.94893646240234 65.93284606933594 65.93246459960938 84.94928741455078 42.47446823120117 84.94928741455078 C 19.01647186279297 84.94928741455078 0 65.93284606933594 0 42.47488784790039 L 0 42.47439575195312 C 0 19.01643371582031 19.01647186279297 -7.62939453125e-06 42.47446823120117 -7.62939453125e-06 Z" stroke="none" fill="#fff"/>
          </g>
        </g>
      </g>
    </g>
    <g id="Grupo_1116347" data-name="Grupo 1116347" transform="translate(1243.051 4452)">
      <g id="Grupo_1116346" data-name="Grupo 1116346" transform="translate(1.912 1.912)">
        <g id="Grupo_1116318" data-name="Grupo 1116318" transform="translate(20.075)">
          <path id="Trazado_912818" data-name="Trazado 912818" d="M38.527,6.59a5.606,5.606,0,0,1,.073.885v.684a7.007,7.007,0,0,1-.356,2.217,6.473,6.473,0,0,1-.538,1.2,10.82,10.82,0,0,1-1.287,1.661l-.648.62a4.3,4.3,0,0,0,.091-.912V11.234A3.658,3.658,0,0,0,33.1,7.694l-.6-.146-.009-.009a3.117,3.117,0,0,1-2.071,1.232l-2.108.3a1.834,1.834,0,0,0-1.569,1.807V12.95a4.3,4.3,0,0,0,.091.912l-.648-.62A6.969,6.969,0,0,1,24,8.159,6.169,6.169,0,0,1,30.159,2h2.966a5.476,5.476,0,0,1,5.4,4.59Z" transform="translate(-24 -2)" fill="#b27946"/>
        </g>
        <g id="Grupo_1116319" data-name="Grupo 1116319" transform="translate(33.78 0)">
          <path id="Trazado_912819" data-name="Trazado 912819" d="M54.97,17.485l-.456,3.677-.009.009a5.489,5.489,0,0,0-2.409-1.3l-.547-.137a2.743,2.743,0,0,1-2-2l-.192-.766a4.551,4.551,0,0,0,2.418-4.024V11.234a3.658,3.658,0,0,0-2.765-3.54l-.6-.146L48.4,7.539a3.117,3.117,0,0,1-2.071,1.232l-2.108.3a1.834,1.834,0,0,0-1.569,1.807V12.95a4.582,4.582,0,0,0,1.332,3.23,4.432,4.432,0,0,0,1.086.794l-.192.766a2.743,2.743,0,0,1-2,2l-.547.137a5.554,5.554,0,0,0-2.418,1.287l-.456-3.677a58.194,58.194,0,0,1-.438-5.9,6.473,6.473,0,0,0,.538-1.2,7.007,7.007,0,0,0,.356-2.217V7.475a5.605,5.605,0,0,0-.073-.885,8.277,8.277,0,0,1,2.975-3.312,8.217,8.217,0,0,1,12.611,6.935,58.726,58.726,0,0,1-.456,7.272Z" transform="translate(-39.02 -2)" fill="#656d78"/>
        </g>
        <g id="Grupo_1116320" data-name="Grupo 1116320" transform="translate(5.475)">
          <path id="Trazado_912820" data-name="Trazado 912820" d="M10.181,13.242A6.969,6.969,0,0,1,8,8.159V4.737A2.734,2.734,0,0,1,10.737,2h6.387A5.479,5.479,0,0,1,22.6,7.475v.684a6.969,6.969,0,0,1-2.181,5.083l-.648.62a4.3,4.3,0,0,0,.091-.912V11.234A3.658,3.658,0,0,0,17.1,7.694l-.6-.146-.009-.009a3.117,3.117,0,0,1-2.071,1.232l-2.108.3a1.834,1.834,0,0,0-1.569,1.807V12.95a4.3,4.3,0,0,0,.091.912Z" transform="translate(-8 -2)" fill="#656d78"/>
        </g>
        <g id="Grupo_1116321" data-name="Grupo 1116321" transform="translate(3.851 17.337)">
          <path id="Trazado_912821" data-name="Trazado 912821" d="M11.613,23.737A9.1,9.1,0,0,0,6.229,25.48l-.009-.009a5.606,5.606,0,0,1,4.042-3.933L12.407,21l2.737,2.737Z" transform="translate(-6.22 -21)" fill="#b4dd7f"/>
        </g>
        <g id="Grupo_1116322" data-name="Grupo 1116322" transform="translate(12.775 17.337)">
          <path id="Trazado_912822" data-name="Trazado 912822" d="M23.3,22.834c-.064.055-.128.119-.182.173a5.6,5.6,0,0,0-1.642,3.96v.42a3.649,3.649,0,0,0-3.65-3.65H16L18.737,21l2.144.538A5.478,5.478,0,0,1,23.3,22.834Z" transform="translate(-16 -21)" fill="#b4dd7f"/>
        </g>
        <g id="Grupo_1116323" data-name="Grupo 1116323" transform="translate(18.25 18.168)">
          <path id="Trazado_912823" data-name="Trazado 912823" d="M27.986,25.259l3.139,4.033H22V27.047a5.6,5.6,0,0,1,1.642-3.96c.055-.055.119-.119.182-.173a5.5,5.5,0,0,1,1.56-1Z" transform="translate(-22 -21.91)" fill="#ff826e"/>
        </g>
        <g id="Grupo_1116324" data-name="Grupo 1116324" transform="translate(27.374 18.168)">
          <path id="Trazado_912824" data-name="Trazado 912824" d="M40.6,24.675c-.082.073-.155.137-.228.21a3.645,3.645,0,0,0-.575,4.407H32l3.139-4.033,2.6-3.349a5.458,5.458,0,0,1,1.551,1c.064.055.128.109.192.173A5.613,5.613,0,0,1,40.6,24.675Z" transform="translate(-32 -21.91)" fill="#ff826e"/>
        </g>
        <g id="Grupo_1116325" data-name="Grupo 1116325" transform="translate(24.236 19.162)">
          <path id="Trazado_912825" data-name="Trazado 912825" d="M34.838,25.354,31.7,29.387,28.56,25.354,31.7,23Z" transform="translate(-28.56 -23)" fill="#b4dd7f"/>
        </g>
        <g id="Grupo_1116326" data-name="Grupo 1116326" transform="translate(27.374 17.337)">
          <path id="Trazado_912826" data-name="Trazado 912826" d="M37.74,21.83l-2.6,3.349L32,22.825,34.737,21l2.144.538A5.586,5.586,0,0,1,37.74,21.83Z" transform="translate(-32 -21)" fill="#a0d468"/>
        </g>
        <g id="Grupo_1116327" data-name="Grupo 1116327" transform="translate(21.635 17.337)">
          <path id="Trazado_912827" data-name="Trazado 912827" d="M31.45,22.825l-3.139,2.354-2.6-3.349a5.586,5.586,0,0,1,.858-.292L28.712,21Z" transform="translate(-25.71 -21)" fill="#a0d468"/>
        </g>
        <g id="Grupo_1116328" data-name="Grupo 1116328" transform="translate(34.665 14.974)">
          <path id="Trazado_912828" data-name="Trazado 912828" d="M42.965,21.175a2.743,2.743,0,0,0,2-2l.192-.766a4.54,4.54,0,0,0,4.289,0l.192.766a2.743,2.743,0,0,0,2,2l.547.137a5.489,5.489,0,0,1,2.409,1.3c.064.055.128.109.192.173a5.6,5.6,0,0,1,1.642,3.96v.5a9.236,9.236,0,0,0-7.418-3.732H43.649a3.65,3.65,0,0,0-2.354.858,5.613,5.613,0,0,0-1.113-1.588c-.064-.064-.128-.119-.192-.173L40,22.6a5.554,5.554,0,0,1,2.418-1.287Z" transform="translate(-39.99 -18.41)" fill="#fcd770"/>
        </g>
        <g id="Grupo_1116329" data-name="Grupo 1116329" transform="translate(8.212 5.539)">
          <path id="Trazado_912829" data-name="Trazado 912829" d="M17.36,8.225a3.658,3.658,0,0,1,2.765,3.54v1.715a4.3,4.3,0,0,1-.091.912,4.547,4.547,0,0,1-2.327,3.112,4.476,4.476,0,0,1-2.144.538l-2.144-.538a4.432,4.432,0,0,1-1.086-.794,4.567,4.567,0,0,1-1.241-2.318A4.3,4.3,0,0,1,11,13.481V11.41A1.834,1.834,0,0,1,12.569,9.6l2.108-.3A3.117,3.117,0,0,0,16.749,8.07l.009.009Z" transform="translate(-11 -8.07)" fill="#f0d0b4"/>
        </g>
        <g id="Grupo_1116330" data-name="Grupo 1116330" transform="translate(10.037 14.974)">
          <path id="Trazado_912830" data-name="Trazado 912830" d="M13.593,18.41l2.144.538a4.476,4.476,0,0,0,2.144-.538l.593,2.363-2.737,2.737L13,20.773Z" transform="translate(-13 -18.41)" fill="#f0d0b4"/>
        </g>
        <g id="Grupo_1116331" data-name="Grupo 1116331" transform="translate(24.637 14.974)">
          <path id="Trazado_912831" data-name="Trazado 912831" d="M31.737,18.948a4.476,4.476,0,0,0,2.144-.538l.593,2.363L31.737,22.6,29,20.773l.593-2.363Z" transform="translate(-29 -18.41)" fill="#f0d0b4"/>
        </g>
        <g id="Grupo_1116332" data-name="Grupo 1116332" transform="translate(22.812 5.539)">
          <path id="Trazado_912832" data-name="Trazado 912832" d="M33.36,8.225a3.658,3.658,0,0,1,2.765,3.54v1.715a4.3,4.3,0,0,1-.091.912,4.547,4.547,0,0,1-2.327,3.112,4.476,4.476,0,0,1-2.144.538l-2.144-.538a4.432,4.432,0,0,1-1.086-.794,4.567,4.567,0,0,1-1.241-2.318A4.3,4.3,0,0,1,27,13.481V11.41A1.834,1.834,0,0,1,28.569,9.6l2.108-.3A3.117,3.117,0,0,0,32.749,8.07l.009.009Z" transform="translate(-27 -8.07)" fill="#f0d0b4"/>
        </g>
        <g id="Grupo_1116333" data-name="Grupo 1116333" transform="translate(37.412 5.539)">
          <path id="Trazado_912833" data-name="Trazado 912833" d="M49.36,8.225a3.658,3.658,0,0,1,2.765,3.54v1.715a4.551,4.551,0,0,1-2.418,4.024,4.6,4.6,0,0,1-5.375-.794A4.582,4.582,0,0,1,43,13.481V11.41A1.834,1.834,0,0,1,44.569,9.6l2.108-.3A3.117,3.117,0,0,0,48.749,8.07l.009.009Z" transform="translate(-43 -8.07)" fill="#f0d0b4"/>
        </g>
        <g id="Grupo_1116334" data-name="Grupo 1116334" transform="translate(34.674 20.075)">
          <path id="Trazado_912834" data-name="Trazado 912834" d="M43.65,31.3a3.693,3.693,0,0,1-1.113-.173,3.653,3.653,0,0,1-1.469-6.059c.073-.073.146-.137.228-.21A3.65,3.65,0,0,1,43.65,24h5.356a9.248,9.248,0,0,1,9.243,9.243V42.4a6.237,6.237,0,0,0,1.825,4.407l-.018.091a5.548,5.548,0,0,1-4.626,4.407,8.152,8.152,0,0,0,.082-1.159,8.042,8.042,0,0,0-2.363-5.7l-.374-.374L50.95,38.6l.675-1.36a2.179,2.179,0,0,0,.237-.985,2.212,2.212,0,0,0-2.217-2.217h-.52l-.219-.885A3.664,3.664,0,0,0,46.1,30.46a1.547,1.547,0,0,1-.246.3,1.784,1.784,0,0,1-1.287.538Z" transform="translate(-40 -24)" fill="#b27946"/>
        </g>
        <g id="Grupo_1116335" data-name="Grupo 1116335" transform="translate(34.674 40.149)">
          <path id="Trazado_912835" data-name="Trazado 912835" d="M43.65,55.125V54.65a7.65,7.65,0,0,1,2.245-5.42,8.429,8.429,0,0,1,2.318-1.642,7.521,7.521,0,0,1,.976-.392L52.775,46l.374.374a8.061,8.061,0,0,1,1.3,9.7l-1.013,1.77A5.477,5.477,0,0,1,48.687,60.6H40V55.125h3.65Z" transform="translate(-40 -46)" fill="#ff826e"/>
        </g>
        <g id="Grupo_1116336" data-name="Grupo 1116336" transform="translate(28.287 38.324)">
          <path id="Trazado_912836" data-name="Trazado 912836" d="M37.864,51.3l.611,3.65H36.65a2.722,2.722,0,0,0-1.725.611L33,44h3.65l.611,3.65Z" transform="translate(-33 -44)" fill="#fcd770"/>
        </g>
        <g id="Grupo_1116337" data-name="Grupo 1116337" transform="translate(31.937 38.324)">
          <path id="Trazado_912837" data-name="Trazado 912837" d="M40.65,44H37l1.825,10.95h3.65Z" transform="translate(-37 -44)" fill="#ffeaa7"/>
        </g>
        <g id="Grupo_1116338" data-name="Grupo 1116338" transform="translate(19.162 38.324)">
          <path id="Trazado_912838" data-name="Trazado 912838" d="M28.475,44,26.55,55.561a2.722,2.722,0,0,0-1.725-.611H23l.611-3.65.6-3.65L24.825,44Z" transform="translate(-23 -44)" fill="#ccd1d9"/>
        </g>
        <g id="Grupo_1116339" data-name="Grupo 1116339" transform="translate(15.512 38.324)">
          <path id="Trazado_912839" data-name="Trazado 912839" d="M20.825,44,19,54.95h3.65L24.475,44Z" transform="translate(-19 -44)" fill="#e6e9ed"/>
        </g>
        <g id="Grupo_1116340" data-name="Grupo 1116340" transform="translate(1.825 40.149)">
          <path id="Trazado_912840" data-name="Trazado 912840" d="M17.687,55.125h2.737V60.6H11.382a5.474,5.474,0,0,1-4.453-2.29L5.387,56.156a7.452,7.452,0,0,1,.794-9.6L6.737,46l4.48,1.277a7.627,7.627,0,0,1,.995.365A7.491,7.491,0,0,1,14.53,49.23a7.65,7.65,0,0,1,2.245,5.42v.474Z" transform="translate(-4 -46)" fill="#b4dd7f"/>
        </g>
        <g id="Grupo_1116341" data-name="Grupo 1116341" transform="translate(0 20.075)">
          <path id="Trazado_912841" data-name="Trazado 912841" d="M14.109,30.387h-.137a3.658,3.658,0,0,0-3.54,2.765l-.219.885h-.52a2.212,2.212,0,0,0-2.217,2.217,2.179,2.179,0,0,0,.237.985l.675,1.36L7.4,41.547,5.613,40.27A8.648,8.648,0,0,1,2,33.243,9.229,9.229,0,0,1,4.71,26.71a8.276,8.276,0,0,1,1.15-.967A9.1,9.1,0,0,1,11.243,24H16.6a3.645,3.645,0,0,1,3.157,5.475,3.855,3.855,0,0,1-.575.757A3.619,3.619,0,0,1,16.6,31.3h-.912A1.821,1.821,0,0,1,14.109,30.387Z" transform="translate(-2 -24)" fill="#656d78"/>
        </g>
        <g id="Grupo_1116342" data-name="Grupo 1116342" transform="translate(4.562 26.462)">
          <path id="Trazado_912842" data-name="Trazado 912842" d="M12.475,43.319V46.33a7.627,7.627,0,0,0-.995-.365L7,44.687l.839-2.528.985-2.947-.675-1.36a2.179,2.179,0,0,1-.237-.985A2.212,2.212,0,0,1,10.13,34.65h.52l.219-.885A3.658,3.658,0,0,1,14.409,31h.137a1.821,1.821,0,0,0,1.579.912h.912a3.8,3.8,0,0,0,1.122-.173l1.615,4.736-1.825.912v3.139A3.244,3.244,0,0,1,14.7,43.775a3.38,3.38,0,0,1-.794-.1Z" transform="translate(-7 -31)" fill="#f0d0b4"/>
        </g>
        <g id="Grupo_1116343" data-name="Grupo 1116343" transform="translate(18.25 49.274)">
          <path id="Trazado_912843" data-name="Trazado 912843" d="M22.912,56h1.825a2.737,2.737,0,0,1,0,5.475H22V56Z" transform="translate(-22 -56)" fill="#f0d0b4"/>
        </g>
        <g id="Grupo_1116344" data-name="Grupo 1116344" transform="translate(29.199 49.274)">
          <path id="Trazado_912844" data-name="Trazado 912844" d="M39.475,56v5.475H36.737a2.737,2.737,0,1,1,0-5.475h2.737Z" transform="translate(-34 -56)" fill="#f0d0b4"/>
        </g>
        <g id="Grupo_1116345" data-name="Grupo 1116345" transform="translate(35.587 26.535)">
          <path id="Trazado_912845" data-name="Trazado 912845" d="M48.3,43.326l-1.433.356a3.38,3.38,0,0,1-.794.1,3.244,3.244,0,0,1-3.248-3.248V37.394L41,36.482l1.588-4.635.036-.1a3.693,3.693,0,0,0,1.113.173h.912a1.784,1.784,0,0,0,1.287-.538,1.547,1.547,0,0,0,.246-.3,3.664,3.664,0,0,1,2.81,2.692l.219.885h.52a2.212,2.212,0,0,1,2.217,2.217,2.179,2.179,0,0,1-.237.985l-.675,1.36,1.825,5.475-3.586,1.2a7.52,7.52,0,0,0-.976.392Z" transform="translate(-41 -31.08)" fill="#f0d0b4"/>
        </g>
      </g>
      <path id="Trazado_912846" data-name="Trazado 912846" d="M57.307,44.154a5.283,5.283,0,0,1-1.558-3.761V31.231a10.092,10.092,0,0,0-1.825-5.792V25.22a6.462,6.462,0,0,0-1.778-4.463l.406-3.247a59.631,59.631,0,0,0,.46-7.386A9.11,9.11,0,0,0,36.772,4.438,6.39,6.39,0,0,0,31.112,1H28.148a7.068,7.068,0,0,0-6.011,3.364A6.392,6.392,0,0,0,16.512,1H10.125a3.654,3.654,0,0,0-3.65,3.65V8.074a7.931,7.931,0,0,0,2.461,5.741l.464.442A5.487,5.487,0,0,0,11.5,17.3l-.3,1.2-1.613.4a6.456,6.456,0,0,0-4.592,4.277A10.136,10.136,0,0,0,1,31.231,9.564,9.564,0,0,0,5,39l1.241.887-.561,1.683-.4.4a8.363,8.363,0,0,0-.891,10.776L5.92,54.9a6.4,6.4,0,0,0,5.2,2.674H22.9a3.634,3.634,0,0,0,2.7-6.084l2.028-12.165h-9.15L17.015,48.1a8.433,8.433,0,0,0-4.153-4.946V41.861l.3.076A4.16,4.16,0,0,0,18.337,37.9V35.326l2.034-1.017-1.615-4.724a4.571,4.571,0,0,0,1.382-1.21H36.611a4.572,4.572,0,0,0,1.382,1.211l-1.615,4.724,2.034,1.017V37.9a4.163,4.163,0,0,0,5.172,4.039l.3-.076v1.253a9.381,9.381,0,0,0-2.05,1.531,8.531,8.531,0,0,0-2.1,3.449l-1.462-8.771h-9.15L31.149,51.49a3.634,3.634,0,0,0,2.7,6.084H45.272a6.4,6.4,0,0,0,5.546-3.218l1.012-1.772a8.972,8.972,0,0,0,.956-2.528,6.525,6.525,0,0,0,4.77-5.076l.1-.479Zm-37.331-29.9.464-.442a7.932,7.932,0,0,0,1.548-2.077,7.956,7.956,0,0,0,1.548,2.077l.464.442A5.487,5.487,0,0,0,26.1,17.3l-.3,1.2-1.613.4a6.51,6.51,0,0,0-2.189,1.019,6.528,6.528,0,0,0-2.2-1.019l-1.614-.4-.3-1.2a5.481,5.481,0,0,0,2.1-3.046Zm14.6,0,.322-.307c.077,1.191.178,2.382.325,3.56l.221,1.765a6.424,6.424,0,0,0-1.051-.373l-1.614-.4-.3-1.2a5.487,5.487,0,0,0,2.1-3.046Zm-9.5,6.3,1.3-.327,1.329.886L26.319,22.16Zm4.213-.581-1.7-1.131.182-.727a5.377,5.377,0,0,0,3.029,0l.182.728Zm3.65-7.116a3.65,3.65,0,1,1-7.3,0V10.795a.918.918,0,0,1,.784-.9l2.111-.3a4.054,4.054,0,0,0,2.257-1.115l.076.019a2.735,2.735,0,0,1,2.073,2.656ZM17.7,20.261l1.644.412a4.7,4.7,0,0,1,1.284.544,6.48,6.48,0,0,0-.8,1.314c-.035-.037-.06-.081-.1-.118a4.514,4.514,0,0,0-2.883-1.3Zm3.37,4.958a4.612,4.612,0,0,1,2.22-3.975l4.126,5.305H21.075ZM27.44,23.6l1.847-1.385L31.134,23.6l-1.847,2.375Zm4.814-1.44-1.389-1.042,1.329-.885,1.306.327Zm5.945-.585c-.083-.122-.18-.235-.271-.351a4.7,4.7,0,0,1,1.3-.552l.551-.138a3.635,3.635,0,0,0,2.579-2.418,5.4,5.4,0,0,0,3.061,0A3.635,3.635,0,0,0,48,20.534l.552.138A4.521,4.521,0,0,1,51.516,23a10.083,10.083,0,0,0-5.924-1.924H40.237A4.516,4.516,0,0,0,38.2,21.576Zm5.688-5.063a3.654,3.654,0,0,1-3.65-3.65V10.795a.918.918,0,0,1,.784-.9l2.111-.3a4.054,4.054,0,0,0,2.257-1.115l.076.019a2.735,2.735,0,0,1,2.073,2.656v1.713A3.654,3.654,0,0,1,43.887,16.512Zm0-13.687a7.308,7.308,0,0,1,7.3,7.3,58.09,58.09,0,0,1-.445,7.158l-.275,2.195A6.514,6.514,0,0,0,48.99,18.9l-.551-.138a1.82,1.82,0,0,1-1.328-1.328l-.033-.133a5.466,5.466,0,0,0,2.283-4.439V11.15A4.554,4.554,0,0,0,46.4,6.878a4.007,4.007,0,0,0,.222-1.316V4.65H44.8v.912a2.256,2.256,0,0,1-1.926,2.222l-2.111.3a2.749,2.749,0,0,0-2.351,2.708v2.068A5.467,5.467,0,0,0,40.7,17.3l-.033.133a1.82,1.82,0,0,1-1.328,1.328l-.551.138a6.5,6.5,0,0,0-1.477.569l-.274-2.187c-.231-1.849-.369-3.729-.42-5.593A7.626,7.626,0,0,0,37.5,8.074V7.387a6.55,6.55,0,0,0-.04-.7,7.249,7.249,0,0,1,6.428-3.863Zm-15.739,0h2.964a4.568,4.568,0,0,1,4.562,4.562v.686a6.024,6.024,0,0,1-.912,3.2V11.15A4.554,4.554,0,0,0,31.8,6.878a4.007,4.007,0,0,0,.222-1.316V4.65H30.2v.912a2.256,2.256,0,0,1-1.926,2.222l-2.111.3a2.749,2.749,0,0,0-2.351,2.708v.48a6.024,6.024,0,0,1-.912-3.2A5.255,5.255,0,0,1,28.148,2.825ZM8.613,10A6.081,6.081,0,0,1,8.3,8.074V4.65a1.827,1.827,0,0,1,1.825-1.825h6.387a4.568,4.568,0,0,1,4.562,4.562v.686a6.024,6.024,0,0,1-.912,3.2V11.15A4.554,4.554,0,0,0,17.2,6.878a4.007,4.007,0,0,0,.222-1.316V4.65H15.6v.912a2.256,2.256,0,0,1-1.926,2.222l-2.111.3a2.749,2.749,0,0,0-2.351,2.708v.48A6.107,6.107,0,0,1,8.613,10Zm2.424.791a.918.918,0,0,1,.784-.9l2.111-.3a4.054,4.054,0,0,0,2.257-1.115l.076.019a2.735,2.735,0,0,1,2.073,2.656v1.713a3.65,3.65,0,1,1-7.3,0Zm3.65,7.543a5.42,5.42,0,0,0,1.514-.218l.213.85L14.687,20.7,12.961,18.97l.213-.85A5.454,5.454,0,0,0,14.687,18.337Zm-4.661,2.334,1.643-.412.815.815H11.157a10.127,10.127,0,0,0-2.823.407A4.7,4.7,0,0,1,10.026,20.671ZM6.058,37.514a7.735,7.735,0,0,1-3.233-6.282A8.341,8.341,0,0,1,11.157,22.9h5.355a2.737,2.737,0,0,1,0,5.475H15.6a.912.912,0,1,1,0-1.825V24.725a2.74,2.74,0,0,0-2.737,2.737c0,.044.011.084.013.127a4.546,4.546,0,0,0-3.415,3.329l-.05.2a3.127,3.127,0,0,0-2.605,4.52l.51,1.019-.473,1.417ZM22.9,55.749H21.075V52.1H22.9a1.825,1.825,0,1,1,0,3.65ZM20.91,46.624h-1.8l.3-1.825h1.8Zm-.3,1.825-.3,1.825H18.5l.3-1.825Zm3.319,1.989a3.6,3.6,0,0,0-1.025-.164h-.748l1.521-9.125h1.8Zm-2.1-9.289-.3,1.825h-1.8l.3-1.825Zm-6.237,9.125H12.514L10.028,45.3,8.4,46.12l2.486,4.97A1.816,1.816,0,0,0,12.514,52.1H19.25v3.65H11.118A4.573,4.573,0,0,1,7.4,53.838L5.868,51.688a6.54,6.54,0,0,1,.7-8.426l.175-.175L10.7,44.218a6.775,6.775,0,0,1,2.92,1.718A6.7,6.7,0,0,1,15.586,50.274ZM18.128,33.39l-1.616.808v3.7a2.336,2.336,0,0,1-2.9,2.267l-3.262-.816L9.9,41.121l1.134.285v1.011l-3.4-.97,1.643-4.929-.848-1.694a1.317,1.317,0,0,1-.138-.584,1.3,1.3,0,0,1,1.3-1.3h1.236l.394-1.577A2.726,2.726,0,0,1,13.6,29.312a2.72,2.72,0,0,0,2,.888h.912a4.443,4.443,0,0,0,.507-.051ZM31.153,26.55l4.126-5.305a4.275,4.275,0,0,1,1.48,1.472,4.513,4.513,0,0,0-1.085,2.922,4.607,4.607,0,0,0,.092.911H31.153ZM46.846,41.122l-.443-1.77-3.262.816a2.373,2.373,0,0,1-.567.069A2.34,2.34,0,0,1,40.237,37.9V34.2l-1.616-.808,1.109-3.242a4.246,4.246,0,0,0,.507.052h.912a2.716,2.716,0,0,0,1.821-.709A2.748,2.748,0,0,1,44.6,31.36L45,32.937h1.236A1.3,1.3,0,0,1,47.4,34.821l-.848,1.7,1.656,4.968-2.5.832v-.911Zm-9.207,5.5h-1.8l-.3-1.825h1.8Zm-1.192,3.65-.3-1.825h1.8l.3,1.825Zm.583-7.3h-1.8l-.3-1.825h1.8Zm-3.954-1.825L34.6,50.274h-.748a3.6,3.6,0,0,0-1.025.164l-1.548-9.289ZM32.024,53.924A1.827,1.827,0,0,1,33.849,52.1h1.825v3.65H33.849A1.827,1.827,0,0,1,32.024,53.924Zm18.221-2.246L49.234,53.45a4.574,4.574,0,0,1-3.962,2.3H37.5V52.1h6.736a1.816,1.816,0,0,0,1.632-1.008l2.486-4.97L46.721,45.3l-2.486,4.97H41.163a6.7,6.7,0,0,1,1.964-4.337,7.539,7.539,0,0,1,2.933-1.812l3.055-1.018a7.14,7.14,0,0,1,1.131,8.572Zm2.762-3.611A8.9,8.9,0,0,0,50.385,41.8l-.226-.226-1.638-4.913.51-1.019a3.127,3.127,0,0,0-2.606-4.52l-.05-.2a4.58,4.58,0,0,0-2.532-3.03,2.624,2.624,0,0,0,.044-.425,2.741,2.741,0,0,0-2.737-2.737V26.55a.912.912,0,1,1,0,1.825h-.912a2.737,2.737,0,1,1,0-5.475h5.355a8.341,8.341,0,0,1,8.332,8.332v9.162a7.09,7.09,0,0,0,1.739,4.672,4.663,4.663,0,0,1-2.655,3Z"/>
    </g>
  </g>
</svg>
