<svg xmlns="http://www.w3.org/2000/svg" width="190" height="145.891" viewBox="0 0 190 145.891">
  <g id="Grupo_1116365" data-name="Grupo 1116365" transform="translate(-495.051 -4902)">
    <rect id="Rectángulo_404898" data-name="Rectángulo 404898" width="190" height="145.891" rx="8" transform="translate(495.051 4902)" fill="#9ad354"/>
    <g id="Grupo_1116353" data-name="Grupo 1116353" transform="translate(443.58 4915)">
      <g id="Grupo_1116351" data-name="Grupo 1116351" transform="translate(115.229 1.759)">
        <g id="Grupo_1116349" data-name="Grupo 1116349" transform="translate(55.669 66.114)">
          <path id="Trazado_912847" data-name="Trazado 912847" d="M358.454,289.546h7.622v3.688a7.369,7.369,0,0,1-7.622,7.086Z" transform="translate(-358.454 -289.546)" fill="#ffceb7"/>
        </g>
        <g id="Grupo_1116350" data-name="Grupo 1116350" transform="translate(8.987 29.321)">
          <path id="Trazado_912848" data-name="Trazado 912848" d="M201.6,132.587a19.949,19.949,0,0,1,6.2,3.908,17.762,17.762,0,0,1,5.815,13.048v21.4H181.531v-6.329H159.308V155.07h14.6v-5.527c0-7.6,4.947-14.133,12.013-16.958Z" transform="translate(-159.308 -132.585)" fill="#fff"/>
        </g>
        <path id="Trazado_912849" data-name="Trazado 912849" d="M129.8,421.673c-4.874,0-8.826-8.127-8.826-12.658V400.14a3.657,3.657,0,0,1,3.783-3.516h10.086a3.657,3.657,0,0,1,3.783,3.516v8.874c0,4.531-3.952,12.658-8.826,12.658Z" transform="translate(-120.972 -305.409)" fill="#cdd9dd"/>
        <path id="Trazado_912850" data-name="Trazado 912850" d="M147.78,240.707h-3.666a1.95,1.95,0,0,1-2.017-1.875V235.38a1.95,1.95,0,0,1,2.017-1.875h3.666a3.61,3.61,0,1,1,0,7.2Z" transform="translate(-137.145 -180.527)" fill="#ffceb7"/>
        <path id="Trazado_912851" data-name="Trazado 912851" d="M278.57,196.15a3.657,3.657,0,0,0-3.783-3.516H257.893a3.657,3.657,0,0,0-3.782,3.516V243.7h24.46V196.15Z" transform="translate(-222.901 -149.237)" fill="#ff6a47"/>
        <path id="Trazado_912852" data-name="Trazado 912852" d="M261.908,410.469h-24.46v15l-5.1,5.167V432.5H267v-1.865l-5.1-5.167Z" transform="translate(-206.238 -316.008)" fill="#fde31d"/>
        <path id="Trazado_912853" data-name="Trazado 912853" d="M127.276,409.015V400.14a3.657,3.657,0,0,1,3.783-3.516h-6.3a3.657,3.657,0,0,0-3.783,3.516v8.874c0,4.531,3.951,12.658,8.826,12.658a5.406,5.406,0,0,0,3.152-1.131C129.632,418.152,127.276,412.513,127.276,409.015Z" transform="translate(-120.972 -305.409)" fill="#acbfc7"/>
        <path id="Trazado_912854" data-name="Trazado 912854" d="M146.268,382.8c-3.579,0-3.783-15.18-3.783-15.18h7.565S149.847,382.8,146.268,382.8Z" transform="translate(-137.443 -283.207)" fill="#cdd9dd"/>
        <path id="Trazado_912855" data-name="Trazado 912855" d="M243.752,425.465v-15h-6.3v15l-5.1,5.167V432.5h6.3v-1.865Z" transform="translate(-206.238 -316.008)" fill="#e9ca1c"/>
        <path id="Trazado_912856" data-name="Trazado 912856" d="M264.2,192.634h-6.3a3.657,3.657,0,0,0-3.783,3.516V243.7h6.3V196.15A3.657,3.657,0,0,1,264.2,192.634Z" transform="translate(-222.901 -149.237)" fill="#fd3501"/>
        <path id="Trazado_912857" data-name="Trazado 912857" d="M232.412,23.921h30.251a2.858,2.858,0,0,0,2.858-2.858L257.6,16.9l-1.594-6.693a3.516,3.516,0,0,0-3.421-2.7h-10.1a3.516,3.516,0,0,0-3.421,2.7L237.471,16.9l-7.917,4.162A2.859,2.859,0,0,0,232.412,23.921Z" transform="translate(-204.101 -7.505)" fill="#e6cc9f"/>
        <path id="Trazado_912858" data-name="Trazado 912858" d="M268.1,77.533l.028,8.389a8.945,8.945,0,0,0,17.84,0L286,77.533Z" transform="translate(-233.613 -61.117)" fill="#ffceb7"/>
        <path id="Trazado_912859" data-name="Trazado 912859" d="M273.989,85.922l-.028-8.389H268.1l.028,8.389a8.951,8.951,0,0,0,11.85,7.785A8.954,8.954,0,0,1,273.989,85.922Z" transform="translate(-233.612 -61.117)" fill="#ffaa81"/>
        <path id="Trazado_912860" data-name="Trazado 912860" d="M243.221,18.06l1.118-10.555h-1.852a3.516,3.516,0,0,0-3.421,2.7L237.473,16.9l-7.917,4.162a2.858,2.858,0,0,0,2.858,2.858h3.775Z" transform="translate(-204.102 -7.505)" fill="#dfba7f"/>
      </g>
      <g id="Grupo_1116352" data-name="Grupo 1116352" transform="translate(152.937 52.4)">
        <path id="Trazado_912861" data-name="Trazado 912861" d="M281.832,223.536h3.516v3.516h-3.516Z" transform="translate(-281.832 -223.536)" fill="#fff"/>
        <path id="Trazado_912862" data-name="Trazado 912862" d="M311.832,223.536h3.516v3.516h-3.516Z" transform="translate(-304.8 -223.536)" fill="#fff"/>
      </g>
      <path id="Trazado_912863" data-name="Trazado 912863" d="M173.9,33.7a21.5,21.5,0,0,0-5.379-3.65,10.571,10.571,0,0,0,.816-3.359l.026-6.761h4.427a4.621,4.621,0,0,0,4.615-4.616V14.254l-8.151-4.285L168.85,4.053A5.259,5.259,0,0,0,163.718,0h-5.434V3.516h5.434a1.754,1.754,0,0,1,1.712,1.351L166.507,9.4H150.826L151.9,4.868a1.753,1.753,0,0,1,1.71-1.352h1.153V0h-1.153a5.257,5.257,0,0,0-5.13,4.053l-1.409,5.915-8.152,4.286v1.062a4.639,4.639,0,0,0,4.618,4.616h4.425l.022,6.637,0,.124a10.57,10.57,0,0,0,.815,3.356,20.078,20.078,0,0,0-11.75,17.988v3.769H125.813V24.262H122.3V51.891a4,4,0,0,0-3.873,4.2v4.493a4,4,0,0,0,3.873,4.2V84.418h-3.806c.053,2.42-.037,2.459.291,6.8a5.405,5.405,0,0,0-5.311,5.269v8.875c0,5.064,4.365,14.416,10.584,14.416s10.584-9.353,10.584-14.416V96.489a5.4,5.4,0,0,0-5.31-5.269c.328-4.346.238-4.38.291-6.8h-3.806V64.869h18.868v45.625l-5.1,5.167v4.346h38.175V115.66l-5.1-5.167V90.308H169.14v4.154h-8.713v-13.1h-3.516v13.1H148.2V48.671a1.908,1.908,0,0,1,2.026-1.758h16.894a1.907,1.907,0,0,1,2.023,1.758v38.12h3.516V80.247a9.014,9.014,0,0,0,7.623-8.686V48.037A19.436,19.436,0,0,0,173.9,33.7ZM128.93,94.732a1.95,1.95,0,0,1,2.192,1.758v8.875c0,3.907-3.562,10.9-7.068,10.9s-7.067-6.993-7.067-10.9V96.49a1.951,1.951,0,0,1,2.193-1.758c.586,4.053,1.717,8.382,4.875,8.382S128.343,98.784,128.93,94.732Zm-3.278-2.064c-.5,4.384-1.224,6.073-1.6,6.68-.372-.606-1.094-2.29-1.594-6.655-.2-1.789-.314-3.525-.371-4.759h3.929C125.963,89.161,125.855,90.885,125.652,92.668Zm26.328-58.437a10.7,10.7,0,0,0,13.378,0V43.4H151.979Zm-9.137-18.064,6.19-3.254H168.3l6.189,3.254a1.1,1.1,0,0,1-.7.249H143.541a1.1,1.1,0,0,1-.7-.249Zm23.008,3.765-.022,6.56a7.187,7.187,0,0,1-14.325,0l-.022-6.56ZM121.939,60.584V56.091a.869.869,0,0,1,.259-.684h3.666c1.147,0,2.115,1.342,2.115,2.93s-.969,2.93-2.115,2.93l-3.646,0A.81.81,0,0,1,121.939,60.584Zm47.2,37.394v13.959l4.493,4.553H160.427V97.978Zm-12.229,0V116.49H143.7l4.495-4.553V97.978Zm-12.23-49.306V61.353H130.84a7.322,7.322,0,0,0,0-6.03h9.734V48.037a16.372,16.372,0,0,1,7.89-13.788v9.422a5.313,5.313,0,0,0-3.782,5Zm24.193-5V34.25a16.416,16.416,0,0,1,7.888,13.788V67.682h-4.107V48.671A5.312,5.312,0,0,0,168.874,43.671Zm3.782,32.973V71.2h4.107A5.42,5.42,0,0,1,172.656,76.644Z" transform="translate(0)"/>
    </g>
  </g>
</svg>
