<svg xmlns="http://www.w3.org/2000/svg" width="190" height="145.891" viewBox="0 0 190 145.891">
  <g id="Grupo_1116364" data-name="Grupo 1116364" transform="translate(-495.051 -5066)">
    <rect id="Rectángulo_404900" data-name="Rectángulo 404900" width="190" height="145.891" rx="8" transform="translate(495.051 5066)" fill="#9ad354"/>
    <g id="Grupo_1116363" data-name="Grupo 1116363" transform="translate(539.051 5087.764)">
      <g id="Grupo_1116360" data-name="Grupo 1116360" transform="translate(4.455 1.721)">
        <path id="Trazado_912899" data-name="Trazado 912899" d="M181.026,186v-8.962a15.618,15.618,0,0,1,10.146-14.32H203.6a15.619,15.619,0,0,1,10.146,14.32V186Z" transform="translate(-149.64 -132.033)" fill="#fff"/>
        <path id="Trazado_912900" data-name="Trazado 912900" d="M196.12,162.717h-4.95a15.619,15.619,0,0,0-10.146,14.32V186h4.95v-8.962A15.619,15.619,0,0,1,196.12,162.717Z" transform="translate(-149.64 -132.033)" fill="#e3e9ee"/>
        <g id="Grupo_1116359" data-name="Grupo 1116359">
          <path id="Trazado_912901" data-name="Trazado 912901" d="M52.5,280.311h80.579V324.65H52.5Z" transform="translate(-46.561 -226.346)" fill="#e6cc9f"/>
          <path id="Trazado_912902" data-name="Trazado 912902" d="M22.5,7.736h5.939v98.3H22.5Z" transform="translate(-22.5 -7.736)" fill="#e6cc9f"/>
          <path id="Trazado_912903" data-name="Trazado 912903" d="M459.5,7.736h5.939v98.3H459.5Z" transform="translate(-372.981 -7.736)" fill="#e6cc9f"/>
        </g>
        <path id="Trazado_912904" data-name="Trazado 912904" d="M310.184,338.32a5.94,5.94,0,0,0-4.049-7.949,5.939,5.939,0,1,0-11.059,0,5.94,5.94,0,0,0-4.067,7.9,5.939,5.939,0,1,0,5.439,10.111,5.934,5.934,0,0,0,8.117,0,5.939,5.939,0,1,0,5.619-10.065Z" transform="translate(-234.192 -259.993)" fill="#fde31d"/>
        <path id="Trazado_912905" data-name="Trazado 912905" d="M111.725,372.977c2.245,4.388,4.929,15.732,1.878,17.293s-10.681-7.252-12.926-11.64-.059-6.214,2.992-7.775S109.48,368.589,111.725,372.977Z" transform="translate(-84.46 -297.999)" fill="#ff6a47"/>
        <path id="Trazado_912906" data-name="Trazado 912906" d="M232.07,234.152v-8.425a3.088,3.088,0,0,0-3.195-2.97H214.607a3.088,3.088,0,0,0-3.195,2.97v8.425Z" transform="translate(-174.011 -180.186)" fill="#75d2f5"/>
        <path id="Trazado_912907" data-name="Trazado 912907" d="M189.27,51.491h25.55a2.414,2.414,0,0,0,2.414-2.414l-6.687-3.516L209.2,39.909a2.97,2.97,0,0,0-2.889-2.282h-8.534a2.97,2.97,0,0,0-2.889,2.282l-1.346,5.653-6.687,3.516A2.414,2.414,0,0,0,189.27,51.491Z" transform="translate(-154.316 -31.709)" fill="#e6cc9f"/>
        <path id="Trazado_912908" data-name="Trazado 912908" d="M225.4,107.655l.023,7.085a7.555,7.555,0,0,0,15.068,0l.023-7.085Z" transform="translate(-185.232 -87.873)" fill="#ffceb7"/>
        <path id="Trazado_912909" data-name="Trazado 912909" d="M52.5,280.311h4.95V324.65H52.5Z" transform="translate(-46.561 -226.346)" fill="#dfba7f"/>
        <path id="Trazado_912910" data-name="Trazado 912910" d="M255.5,280.311h4.95V324.65H255.5Z" transform="translate(-209.37 -226.346)" fill="#dfba7f"/>
        <path id="Trazado_912911" data-name="Trazado 912911" d="M105.626,378.635c-2.245-4.388-.059-6.214,2.992-7.775.353-.18.7-.348,1.046-.5-1.8-1.288-3.822-.612-6,.5-3.051,1.561-5.237,3.387-2.992,7.775s9.875,13.2,12.926,11.64a2.139,2.139,0,0,0,.962-1.188A35.75,35.75,0,0,1,105.626,378.635Z" transform="translate(-84.459 -298.004)" fill="#fd3501"/>
        <path id="Trazado_912912" data-name="Trazado 912912" d="M169.185,351.249c0,4.929-2.778,16.25-6.2,16.25s-6.2-11.321-6.2-16.25,2.778-5.559,6.2-5.559S169.185,346.32,169.185,351.249Z" transform="translate(-130.191 -278.781)" fill="#ff6a47"/>
        <path id="Trazado_912913" data-name="Trazado 912913" d="M161.725,351.25c0-3.663,1.535-4.951,3.73-5.371a13.357,13.357,0,0,0-2.475-.187c-3.427,0-6.2.63-6.2,5.559s2.778,16.25,6.2,16.25c.88,0,1.717-.747,2.475-1.94C163.26,362.107,161.725,354.913,161.725,351.25Z" transform="translate(-130.191 -278.782)" fill="#fd3501"/>
        <path id="Trazado_912914" data-name="Trazado 912914" d="M291.4,344a5.94,5.94,0,0,1,4.56-5.777,5.974,5.974,0,0,1,4.067-7.9,5.978,5.978,0,0,1,3.055-7.567,5.953,5.953,0,0,0-8,7.567,5.974,5.974,0,0,0-4.067,7.9,5.94,5.94,0,1,0,3.856,11.176A5.94,5.94,0,0,1,291.4,344Z" transform="translate(-234.19 -259.938)" fill="#e9ca1c"/>
        <path id="Trazado_912915" data-name="Trazado 912915" d="M219.556,222.757h-4.95a3.088,3.088,0,0,0-3.195,2.97v8.425h4.95v-8.425A3.089,3.089,0,0,1,219.556,222.757Z" transform="translate(-174.011 -180.186)" fill="#2ec2f1"/>
        <path id="Trazado_912916" data-name="Trazado 912916" d="M230.377,114.74l-.023-7.085H225.4l.023,7.085a7.56,7.56,0,0,0,10.009,6.575A7.563,7.563,0,0,1,230.377,114.74Z" transform="translate(-185.232 -87.873)" fill="#ffaa81"/>
        <path id="Trazado_912917" data-name="Trazado 912917" d="M191.808,49.078l6.687-3.516,1.346-5.653a2.97,2.97,0,0,1,2.889-2.282h-4.95a2.97,2.97,0,0,0-2.889,2.282l-1.346,5.653-6.687,3.516a2.414,2.414,0,0,0,2.414,2.414h4.95a2.414,2.414,0,0,1-2.414-2.414Z" transform="translate(-154.319 -31.709)" fill="#dfba7f"/>
      </g>
      <g id="Grupo_1116361" data-name="Grupo 1116361" transform="translate(0 0.236)">
        <path id="Trazado_912918" data-name="Trazado 912918" d="M98.4,88.954V3.206h2.97V.236H0v2.97H2.97v7.989h2.97V3.206h2.97V98.54H5.939V14.164H2.97V98.54H0v2.97H101.367V98.54H98.4V91.924h-2.97V98.54h-2.97V3.206h2.97V88.954H98.4ZM11.879,57.171H49.2V98.54H11.879ZM44.048,17.059h16.27l5.228,2.749a.924.924,0,0,1-.589.211H39.408a.925.925,0,0,1-.589-.211Zm1.513-2.97.911-3.824a1.48,1.48,0,0,1,1.444-1.141H56.45a1.48,1.48,0,0,1,1.444,1.141l.911,3.824ZM67.071,54.2H64v-6.94a4.537,4.537,0,0,0-3.987-4.406V34.841a14.013,14.013,0,0,1,7.058,11.884Zm-23.73,0v-6.94a1.611,1.611,0,0,1,1.71-1.485H59.32a1.611,1.611,0,0,1,1.71,1.485V54.2Zm13.7-11.395H47.724V35.876a9.05,9.05,0,0,0,9.319-.243Zm1.208-19.818-.018,5.54a6.07,6.07,0,0,1-12.1,0l-.018-5.54Zm-13.5,19.828a4.559,4.559,0,0,0-4.382,4.445V54.2H37.325V46.722a14.051,14.051,0,0,1,7.429-12.093ZM52.169,98.54V57.171h37.32V98.54ZM89.488,54.2H70.041V46.728a17.022,17.022,0,0,0-9.6-15.037A8.929,8.929,0,0,0,61.2,28.7l.022-5.71h3.739a3.9,3.9,0,0,0,3.9-3.9v-.9l-6.883-3.619-1.19-5A4.44,4.44,0,0,0,56.45,6.154H47.916a4.44,4.44,0,0,0-4.333,3.423l-1.19,5L35.51,18.193v.9a3.9,3.9,0,0,0,3.9,3.9h3.738l.019,5.6,0,.1a8.923,8.923,0,0,0,.763,3,17.021,17.021,0,0,0-9.577,15.022V54.2H11.879v-51H89.488Z" transform="translate(0 -0.236)"/>
        <path id="Trazado_912919" data-name="Trazado 912919" d="M305.957,331.414a7.447,7.447,0,0,0-4.05-7.974,7.424,7.424,0,1,0-14.635,0,7.443,7.443,0,0,0-4.065,7.883,7.423,7.423,0,1,0,7.227,12.928,7.461,7.461,0,0,0,8.114,0,7.423,7.423,0,1,0,7.41-12.837Zm-2.887-.786a7.385,7.385,0,0,0-4.524,1.2,7.371,7.371,0,0,0-4.321-1.2,4.452,4.452,0,1,1,8.845.009Zm-8.481-12.893a4.462,4.462,0,0,1,4.423,4.965,7.371,7.371,0,0,0-4.423,1.2,7.368,7.368,0,0,0-4.422-1.2,4.462,4.462,0,0,1,4.423-4.965Zm-8.513,12.378a4.465,4.465,0,0,1,6.341-4.032,7.394,7.394,0,0,0-1.093,5.242,7.415,7.415,0,0,0-.889.5,7.368,7.368,0,0,0-4.327-1.2,4.52,4.52,0,0,1-.032-.506Zm-4.158,7.923a4.472,4.472,0,0,1,6.343-4.031,7.46,7.46,0,0,0,0,8.063A4.472,4.472,0,0,1,281.919,338.037Zm8.117,0a4.455,4.455,0,1,1,4.455,4.455A4.46,4.46,0,0,1,290.036,338.037Zm12.572,4.454a4.436,4.436,0,0,1-1.887-.423,7.46,7.46,0,0,0,0-8.063,4.453,4.453,0,1,1,1.888,8.486Z" transform="translate(-223.721 -252.494)"/>
        <path id="Trazado_912920" data-name="Trazado 912920" d="M106.309,311.13l2.961-2.991-2.11-2.089-2.61,2.636v-4.633h-2.97v4.631l-2.607-2.634-2.11,2.089,2.96,2.991a5.544,5.544,0,0,0-4.312,4.922,5.6,5.6,0,0,0-3.67-.322l1.274-4.015-2.831-.9-1.122,3.536-2.11-4.124-2.644,1.353,2.11,4.123L83,314.546l-.927,2.821,4,1.316c-2.35,2.081-2.582,4.733-.9,8.012,1.977,3.783,10.126,14.6,14.925,12.285,1.124-.575,1.806-1.741,2.062-3.527,5.967,1.586,8.556-13.11,8.6-17.6C110.754,313.316,108.516,311.7,106.309,311.13Zm-7.567,25.206c-2.556.469-13.454-11.394-11.432-14.56a6.1,6.1,0,0,1,2.538-2.048l1.123-.556c2.27-1.029,3.4-.844,4.512.666a42.327,42.327,0,0,0,1.782,8.451,20.944,20.944,0,0,0,2.016,4.577C99.413,335.437,98.9,336.257,98.742,336.336Zm7.3-8.967c-1.407,4.317-2.725,5.252-2.976,5.252-2.46-.941-4.9-11.648-4.72-14.765,0-3.508,1.391-4.074,4.72-4.074s4.72.566,4.72,4.074A35.29,35.29,0,0,1,106.04,327.369Z" transform="translate(-65.821 -243.902)"/>
      </g>
      <g id="Grupo_1116362" data-name="Grupo 1116362" transform="translate(16.591 60.318)">
        <path id="Trazado_912921" data-name="Trazado 912921" d="M278.8,303.7h2.97v2.97H278.8Z" transform="translate(-240.191 -303.704)" fill="#fff"/>
        <path id="Trazado_912922" data-name="Trazado 912922" d="M83.8,303.7h2.97v2.97H83.8Z" transform="translate(-83.798 -303.704)" fill="#fff"/>
      </g>
    </g>
  </g>
</svg>
