<svg xmlns="http://www.w3.org/2000/svg" width="190" height="145.891" viewBox="0 0 190 145.891">
  <g id="Grupo_1116366" data-name="Grupo 1116366" transform="translate(-495.051 -5230)">
    <rect id="Rectángulo_404902" data-name="Rectángulo 404902" width="190" height="145.891" rx="8" transform="translate(495.051 5230)" fill="#9ad354"/>
    <g id="Grupo_1116358" data-name="Grupo 1116358" transform="translate(534.918 5248)">
      <g id="Grupo_1116355" data-name="Grupo 1116355" transform="translate(8.978 7.923)">
        <path id="Trazado_912864" data-name="Trazado 912864" d="M385.912,404.362l-6.159,4.313v2.363h18.033a3.418,3.418,0,0,0,3.235-3.442v-22.33H385.915Z" transform="translate(-306.726 -310.101)" fill="#fde31d"/>
        <path id="Trazado_912865" data-name="Trazado 912865" d="M64.951,343.237s-5.683-6.607-11.3-6.474c-4.1.023-8.421,1.738-8.421,8.066,14.147-5.227,13.487,6.732,19.725,6.732h.116c6.239,0,5.578-11.959,19.725-6.732,0-6.328-4.316-8.043-8.421-8.066-5.622-.133-11.3,6.474-11.3,6.474Z" transform="translate(-44.346 -272.056)" fill="#8ae897"/>
        <path id="Trazado_912866" data-name="Trazado 912866" d="M137.226,61.562c6.239,0,5.578-11.959,19.725-6.732,0-6.328-4.316-8.043-8.421-8.066-5.622-.133-11.3,6.474-11.3,6.474Z" transform="translate(-116.505 -44.6)" fill="#8ae897"/>
        <path id="Trazado_912867" data-name="Trazado 912867" d="M65.135,185.29c-5.875,0-5.676-11.959-19.823-6.732,0-6.328,4.226-8.121,8.331-8.145,5.622-.133,11.492,6.552,11.492,6.552Z" transform="translate(-44.413 -141.583)" fill="#8ae897"/>
        <path id="Trazado_912868" data-name="Trazado 912868" d="M137.226,238.325c3.214,0,4.4-8.765,14.765-4.934a7.042,7.042,0,0,0-6.654-7.3c-4.121-.1-8.111,4.618-8.111,4.618v7.611Z" transform="translate(-116.505 -185.256)" fill="#8ae897"/>
        <path id="Trazado_912869" data-name="Trazado 912869" d="M53.73,243.291c-3.79-3.79-10.075-7.963-12.069-5.969-1.256,1.256-.064,4.214,1.936,7.179l10.26-1.08C53.814,243.377,53.774,243.334,53.73,243.291Z" transform="translate(-41.146 -193.658)" fill="#fde31d"/>
        <path id="Trazado_912870" data-name="Trazado 912870" d="M52.514,268.558a34.289,34.289,0,0,0,4.033,4.89c3.79,3.79,6.529,2.883,7.756,1.656s2.11-3.9-1.529-7.625Z" transform="translate(-50.062 -217.715)" fill="#8ae897"/>
        <path id="Trazado_912871" data-name="Trazado 912871" d="M184.414,116.051c-1.994-1.994-8.279,2.179-12.069,5.969q-.351.351-.65.691l10.682.666C184.438,120.364,185.691,117.328,184.414,116.051Z" transform="translate(-143.54 -98.542)" fill="#fde31d"/>
        <path id="Trazado_912872" data-name="Trazado 912872" d="M164.168,148.806c-3.027,3.432-2.157,5.914-1.006,7.065,1.227,1.227,3.966,2.134,7.756-1.656a34.368,34.368,0,0,0,3.933-4.743Z" transform="translate(-136.012 -124.637)" fill="#8ae897"/>
        <path id="Trazado_912873" data-name="Trazado 912873" d="M194.586,280.329c-1.692-2.255-8.5.988-12.791,4.205-.18.135-.349.27-.513.4l10.087,2.538C193.925,284.73,195.694,281.806,194.586,280.329Z" transform="translate(-151.059 -227.206)" fill="#fde31d"/>
        <path id="Trazado_912874" data-name="Trazado 912874" d="M170.575,304.431c-3.727,3.049-3.219,5.711-2.221,7.04,1.041,1.388,3.625,2.673,7.912-.544a34.447,34.447,0,0,0,4.4-3.958Z" transform="translate(-140.353 -246.698)" fill="#8ae897"/>
        <path id="Trazado_912875" data-name="Trazado 912875" d="M82.991,107.325c-3.214,0-4.4-8.765-14.765-4.934a7.042,7.042,0,0,1,6.654-7.3c4.121-.1,8.111,4.618,8.111,4.618v7.611Z" transform="translate(-62.386 -82.509)" fill="#8ae897"/>
        <path id="Trazado_912876" data-name="Trazado 912876" d="M317.514,86.314l-1.05.575a5.424,5.424,0,0,1-7.364-2.156l-2.868-5.241,9.534-5.182,5.426,9.925Z" transform="translate(-249.061 -66.207)" fill="#ffceb7"/>
        <path id="Trazado_912877" data-name="Trazado 912877" d="M303.072,44.323l-11.442,6.219-2.8-9.636,7.616-4.168Z" transform="translate(-235.413 -36.738)" fill="#e6cc9f"/>
        <path id="Trazado_912878" data-name="Trazado 912878" d="M366.651,119.24a7.548,7.548,0,1,0-13.264,7.21l3.439,6.594,13.786-7.493C368.4,121.82,366.651,119.24,366.651,119.24Z" transform="translate(-285.327 -98.352)" fill="#fff"/>
        <path id="Trazado_912879" data-name="Trazado 912879" d="M386.458,162.849l-13.786,7.493,7.694,14.752,0,25.724h15.1V185.094c0-5.964-5.194-15.814-9.008-22.245Z" transform="translate(-301.172 -135.651)" fill="#ff6a47"/>
        <g id="Grupo_1116354" data-name="Grupo 1116354" transform="translate(0.88 4.072)">
          <path id="Trazado_912880" data-name="Trazado 912880" d="M77.714,95.7a6.86,6.86,0,0,0-2.833-.607,7.042,7.042,0,0,0-6.654,7.3,12.9,12.9,0,0,1,5.445-.942A7.125,7.125,0,0,1,77.714,95.7Z" transform="translate(-63.266 -86.58)" fill="#54e072"/>
          <path id="Trazado_912881" data-name="Trazado 912881" d="M56.155,170.767a8.38,8.38,0,0,0-2.512-.353c-4.1.024-8.331,1.816-8.331,8.145a19.962,19.962,0,0,1,5.457-1.288,6.871,6.871,0,0,1,5.385-6.5Z" transform="translate(-45.293 -145.655)" fill="#54e072"/>
          <path id="Trazado_912882" data-name="Trazado 912882" d="M56.134,337.108a8.362,8.362,0,0,0-2.487-.345c-4.1.023-8.421,1.738-8.421,8.066a19.881,19.881,0,0,1,5.459-1.29A6.828,6.828,0,0,1,56.134,337.108Z" transform="translate(-45.226 -276.128)" fill="#54e072"/>
          <path id="Trazado_912883" data-name="Trazado 912883" d="M142.618,55.619a26,26,0,0,0-5.392,4.565v8.325c2.409,0,3.79-1.784,5.392-3.672Z" transform="translate(-117.385 -55.619)" fill="#54e072"/>
          <path id="Trazado_912884" data-name="Trazado 912884" d="M142.618,228.691a16.479,16.479,0,0,0-5.392,4.06v7.611c1.784,0,2.942-2.7,5.392-4.447Z" transform="translate(-117.385 -191.365)" fill="#54e072"/>
        </g>
        <path id="Trazado_912885" data-name="Trazado 912885" d="M385.912,404.362l-6.159,4.313v2.363h18.033a3.418,3.418,0,0,0,3.235-3.442v-22.33H385.915Z" transform="translate(-306.726 -310.101)" fill="#fde31d"/>
        <path id="Trazado_912886" data-name="Trazado 912886" d="M385.755,229.764l0-25.724-8.885-17.035-4.2,2.283,7.694,14.752,0,25.724Z" transform="translate(-301.173 -154.598)" fill="#fd3501"/>
        <path id="Trazado_912887" data-name="Trazado 912887" d="M357.7,124.558a7.548,7.548,0,0,1,1.277-8.925,7.549,7.549,0,0,0-5.59,11.082l3.439,6.594,4.237-2.3Z" transform="translate(-285.327 -98.618)" fill="#e3e9ee"/>
        <path id="Trazado_912888" data-name="Trazado 912888" d="M313.422,93.848l-3.134-5.729-4.055,2.2,2.868,5.241a5.424,5.424,0,0,0,7.364,2.156l.987-.54A7.042,7.042,0,0,1,313.422,93.848Z" transform="translate(-249.062 -77.038)" fill="#ffaa81"/>
        <path id="Trazado_912889" data-name="Trazado 912889" d="M292.571,46.573l-3.74,2.047,2.8,9.636,5.18-2.815Z" transform="translate(-235.413 -44.452)" fill="#dfba7f"/>
        <path id="Trazado_912890" data-name="Trazado 912890" d="M233.06,210.068c-.018,3.6,5,5.4,8.038,4.017.808-.368,1.983-.878,3.323-1.45l-3.646-5.819Z" transform="translate(-191.67 -170.136)" fill="#ffceb7"/>
        <path id="Trazado_912891" data-name="Trazado 912891" d="M294.713,139.478a3.256,3.256,0,0,0-4.6-.158l-9.566,8.931-11.714,4.939,3.646,5.819c4.7-2.008,11.436-4.773,11.436-4.773l10.641-10.157A3.255,3.255,0,0,0,294.713,139.478Z" transform="translate(-219.727 -116.509)" fill="#fff"/>
        <path id="Trazado_912892" data-name="Trazado 912892" d="M47.984,454.369s5.442-13.858,19.247-13.858c14.975,0,18.839,13.858,18.839,13.858Z" transform="translate(-46.509 -353.43)" fill="#e6cc9f"/>
        <path id="Trazado_912893" data-name="Trazado 912893" d="M70.024,440.681a22.5,22.5,0,0,0-2.793-.171c-13.8,0-19.247,13.858-19.247,13.858h5.392s4.755-12.1,16.648-13.687Z" transform="translate(-46.509 -353.429)" fill="#dfba7f"/>
        <path id="Trazado_912894" data-name="Trazado 912894" d="M142.619,345.619a26,26,0,0,0-5.392,4.565v8.325c2.409,0,3.79-1.784,5.392-3.672Z" transform="translate(-116.505 -279.003)" fill="#54e072"/>
      </g>
      <g id="Grupo_1116356" data-name="Grupo 1116356" transform="translate(24.643 101.178)">
        <path id="Trazado_912895" data-name="Trazado 912895" d="M113.782,469.138h3.235v3.235h-3.235Z" transform="translate(-113.782 -469.138)" fill="#fff"/>
        <path id="Trazado_912896" data-name="Trazado 912896" d="M143.782,469.138h3.235v3.235h-3.235Z" transform="translate(-137.312 -469.138)" fill="#fff"/>
      </g>
      <g id="Grupo_1116357" data-name="Grupo 1116357" transform="translate(0.133 0)">
        <path id="Trazado_912897" data-name="Trazado 912897" d="M281.125,128.631a5.082,5.082,0,0,0,.341-1.825V78.753c0-3.045-1.2-7.224-3.58-12.42l-2.942,1.345c2.151,4.7,3.287,8.533,3.287,11.075v24.105h-3.246V81.783H271.75v21.075h-5.389l0-24.5-7.141-13.694,11.012-5.986c1.088,1.879,2.245,3.975,3.33,6.131l2.889-1.454a141.71,141.71,0,0,0-8.2-14,9.205,9.205,0,0,0-10.08-4.483l-3.723-6.81,8.622-4.686-1.545-2.843-7.954,4.323-6.627-7.587-9.9,5.415,2.8,9.632-7.949,4.32,1.545,2.843,8.63-4.691c2.134,4.012,3.731,7.937,9.138,7.439a9.214,9.214,0,0,0-.113,2.194l-5.626,5.252-20.147,8.495c-.823,5.34,5.85,8.652,10.32,6.565,3.575-1.627,14.593-6.154,14.7-6.2l.282-.116,4.6-4.394,7.889,15.126-.006,43.579-6.16,4.313v1.588H235.857v3.235h51.275V128.63h-6.006Zm-19.2-80.517a5.98,5.98,0,0,1,3.611,2.99c.023.035,1.305,1.933,3.043,4.79l-10.856,5.9-.05-.1,3.81-3.636a4.872,4.872,0,0,0-6.223-7.478,5.952,5.952,0,0,1,6.665-2.47Zm-15.7-16.761,4.441,5.085-.565.307-7.337,3.988-1.876-6.459Zm3.058,17.535a3.782,3.782,0,0,1-2.271-1.828l-2.089-3.818,6.692-3.637,3.581,6.55a9.11,9.11,0,0,0-2.113,1.925,4.521,4.521,0,0,1-3.8.808Zm-14.971,22.9c-1.668.716-4.457.225-5.514-1.571l5.221-2.2,1.914,3.055c-.625.272-1.177.516-1.621.718Zm14.533-6.131c-1.217.5-5.946,2.449-9.9,4.124l-1.9-3.039,10.228-4.312,9.776-9.127a1.638,1.638,0,0,1,2.223,2.407Zm11.491,62.975,6.023-4.218,0-18.319h5.389v20.713a1.823,1.823,0,0,1-1.617,1.825Zm14.309,0a5.082,5.082,0,0,0,.341-1.825V106.094h3.246v20.713a1.823,1.823,0,0,1-1.617,1.825Z" transform="translate(-176.71 -21.386)"/>
        <path id="Trazado_912898" data-name="Trazado 912898" d="M45.986,100.908A20.168,20.168,0,0,0,31.317,93.44V88.829c7.667-3.153,5.128-11.751,19.726-5.81.234-4.323-.488-8.429-4.015-10.492,3.342-2.763,9.432-8.811,6.77-12.451-3.519-4.69-14.941,3.8-15.056,3.882-4.206,3.156-4.652,6.453-3.645,8.706a23.379,23.379,0,0,0-3.78,2.628V62.205a9.278,9.278,0,0,0,2.468-2.185c3.181-3.771,5.718-4.339,12.3-1.641V56.058c-.341-8.854-9.2-11.219-14.765-6.367V46.313l5-5.046c3.054,1.422,5.964.079,8.712-2.621C48.2,35.39,54.381,27.876,51,24.289c-4.145-4.144-14.255,5.868-14.357,5.969-2.7,2.714-4.048,5.745-2.615,8.724l-2.708,2.734V26.286c7.666-3.151,5.128-11.752,19.725-5.811V18.153c.112-11.406-13.171-11.947-19.725-5.4-.012-1.043-.311-6.923,8.358-7.069V2.448c-4.018,0-6.643,1.149-8.358,2.645V0H28.082V12.857c-1.716-1.5-4.34-2.645-8.358-2.645v3.235c8.919.295,8.345,5.778,8.358,8.081C22.455,16.589,13.6,18.837,13.2,27.805c0,0,0,2.322,0,2.322,6.588-2.7,9.122-2.124,12.3,1.641a8.857,8.857,0,0,0,2.584,2.245v5.513c-2.44-2.042-6.148-4.474-9.9-4.39-7.408-.011-10.539,5.06-9.925,12.084C22.787,41.3,20.667,49.75,28.082,53.015V67.893l-2.758-2.762c1.426-2.982.085-6-2.617-8.719C22.6,56.31,12.5,46.3,8.349,50.443c-3.386,3.588,2.8,11.1,5.969,14.357,2.747,2.7,5.665,4.047,8.717,2.618l5.046,5.052v2.921C21.484,68.784,8.2,69.155,8.24,80.7v2.322C22.957,77.024,20.3,85.844,28.082,88.86v4.588c-8.2.4-15.439,6.863-18.674,13.8H.133v3.235H56.045v-3.235H49.689a23.726,23.726,0,0,0-3.7-6.336Zm2.439-74.38c1.013-.326-.409,3.113-1.55,4.724l-5.852-.616C42.811,29.064,46.757,26.462,48.425,26.528ZM36.688,36.356A5.2,5.2,0,0,1,38,33.571l6.638.7c-1.607,1.971-3.943,4.284-5.713,4.328a2.023,2.023,0,0,1-2.241-2.242ZM10.634,52.733c1.68-.357,5.457,2.232,7.283,3.724l-5.669.6c-.132-.212-.259-.423-.377-.63-1.412-2.464-1.33-3.543-1.236-3.691Zm9.783,12.019c-1.889-.046-4.393-2.665-6-4.674l6.635-.7c1.6,1.888,2.147,3.551,1.021,4.788A2.069,2.069,0,0,1,20.417,64.752Zm30.2-2.842a1.127,1.127,0,0,1,.6.1c.077.166.006,1.246-1.739,3.485-.228.292-.474.589-.733.888L43.03,64.952c2.083-1.32,5.657-3.06,7.583-3.042ZM39.629,67.432,46.1,69.06c-2.161,2.017-6.095,4.951-7.826,2.666C37.418,70.586,37.932,69.028,39.629,67.432Zm-2.244,7.695c2.082,1.062,4.225.754,6.568-.457a5.017,5.017,0,0,1,3.591,3.73C37.3,75.862,35.786,81.475,31.317,85.307V79.732A22.286,22.286,0,0,1,37.385,75.127Zm.387-24.747a5.268,5.268,0,0,1,4.669,3.4c-6.291-1.322-9.208,2.012-11.125,4.146V54C32.576,52.682,35.342,50.326,37.772,50.38ZM40.839,11.7c4.546-.067,6.307,2.214,6.737,4.161-10.272-2.557-11.783,3.062-16.258,6.9V17.183c1.747-1.864,5.89-5.48,9.522-5.48ZM27.91,29.612c-1.863-2.083-4.838-5.409-11.068-4.083,2.865-5.958,8.37-2.856,11.241.346V29.8ZM26,47.293c-2.535-2.954-5.928-6.908-14.239-4.692.7-2.837,3.029-4.265,6.616-4.231,3.644,0,7.907,3.676,9.71,5.567V49.43A14.168,14.168,0,0,1,26,47.293Zm-.33,35.7c-2.453-2.9-5.734-6.79-13.958-4.587.429-1.947,2.191-4.229,6.737-4.161,3.714,0,7.965,3.784,9.638,5.6v5.532a11.253,11.253,0,0,1-2.417-2.389Zm-9.489,19.938a17.845,17.845,0,0,1,29.993,4.313H13.07A25.438,25.438,0,0,1,16.177,102.931Z" transform="translate(-0.133 0)"/>
      </g>
    </g>
  </g>
</svg>
