<svg xmlns="http://www.w3.org/2000/svg" width="37.506" height="65.9" viewBox="0 0 37.506 65.9">
  <path id="Trazado_908275" data-name="Trazado 908275" d="M-7406.616-5125.184a8.834,8.834,0,0,1-3.093-.593,6.907,6.907,0,0,1-4.233-3.939c-1.634-4.073.764-9.209.93-9.554l16.081-35.208a8.261,8.261,0,0,1,4.086-4.017,5.483,5.483,0,0,1,4.367.317,5.469,5.469,0,0,1,2.972,3.183,8.441,8.441,0,0,1-.549,5.8l-1.8,4.465h-2.372l2.372-5.33a6.521,6.521,0,0,0,.459-4.292,3.5,3.5,0,0,0-1.941-2.023,3.513,3.513,0,0,0-2.821-.243,6.346,6.346,0,0,0-2.95,2.968l-16.1,35.238c-.021.045-2.206,4.653-.876,7.955a4.925,4.925,0,0,0,3.073,2.8,5.889,5.889,0,0,0,4.66-.035c3.064-1.412,4.516-5.306,4.53-5.345l.031-.075,20.508-44.5a12.418,12.418,0,0,0,.148-4.366,7.708,7.708,0,0,0-4.963-6.316,8.879,8.879,0,0,0-8.164.4,10.326,10.326,0,0,0-2.907,2.49l-10.378,20.5h-2.086l10.715-21.471.08-.134a12.178,12.178,0,0,1,3.578-3.116,10.882,10.882,0,0,1,9.922-.514,9.717,9.717,0,0,1,6.191,7.934,14.159,14.159,0,0,1-.221,5.183l-.059.163-20.533,44.556c-.189.5-1.893,4.745-5.556,6.433A7.337,7.337,0,0,1-7406.616-5125.184Z" transform="translate(7414.509 5191.083)"/>
</svg>
