<svg xmlns="http://www.w3.org/2000/svg" xmlns:xlink="http://www.w3.org/1999/xlink" width="295" height="179" viewBox="0 0 295 179">
  <defs>
    <clipPath id="clip-path">
      <rect id="Rect치ngulo_405149" data-name="Rect치ngulo 405149" width="295" height="179" rx="8" transform="translate(967.051 6735.299)" fill="#fff"/>
    </clipPath>
  </defs>
  <g id="Grupo_1119194" data-name="Grupo 1119194" transform="translate(-967.051 -6735.299)">
    <rect id="Rect치ngulo_404915" data-name="Rect치ngulo 404915" width="295" height="179" rx="8" transform="translate(967.051 6735.299)" fill="#bcd1cd"/>
    <g id="Enmascarar_grupo_1098783" data-name="Enmascarar grupo 1098783" clip-path="url(#clip-path)">
      <g id="Grupo_1114170" data-name="Grupo 1114170" transform="translate(951.088 6705.728)">
        <g id="Grupo_1114169" data-name="Grupo 1114169" transform="translate(10.067 10.272)">
          <g id="Grupo_1114168" data-name="Grupo 1114168" transform="translate(0)">
            <g id="Grupo_1114068" data-name="Grupo 1114068" transform="translate(96.157 148.478)">
              <path id="Trazado_906983" data-name="Trazado 906983" d="M48.853,411.871h190l-4.676-109.984c-10-22.792-50.353-42.141-61.27-47.038-.11-.055-.221-.092-.313-.129-.442-.2-.828-.387-1.16-.534-.829-.35-1.27-.534-1.27-.534l-5.1-19.017-1.4.939-39.785,26.658-1.234.828-1.178.792-.056-.4v-.019l-.257-1.62-.221-1.473v-.018l-1.9-12.224-1.252-8.119-3.5,1.178-15.1,5.082L97.236,256.4l-.884,4.676-1.27,6.591-.221,1.141s-.258.11-.718.35c-2.486,1.252-11.028,6.149-21.264,18.153-5.358,6.278-9.868,22.866-13.5,42.27-1.638,8.671-3.093,17.913-4.363,27.045C51.909,378.862,49.848,400.475,48.853,411.871Z" transform="translate(-48.853 -234.635)" fill="#ca3e2b"/>
            </g>
            <g id="Grupo_1114069" data-name="Grupo 1114069" transform="translate(0 174.915)">
              <path id="Trazado_906984" data-name="Trazado 906984" d="M252.386,273.552v67.492l101.828,27.929.5.129,1.289.35,2.062.571,40.171-91.812,2.043-4.658Z" transform="translate(-252.386 -273.552)" fill="#ca3e2b"/>
            </g>
            <g id="Grupo_1114137" data-name="Grupo 1114137" transform="translate(0)">
              <g id="Grupo_1114123" data-name="Grupo 1114123" transform="translate(0.994)">
                <g id="Grupo_1114102" data-name="Grupo 1114102" transform="translate(8.279)">
                  <g id="Grupo_1114085" data-name="Grupo 1114085" transform="translate(56.415)">
                    <g id="Grupo_1114071" data-name="Grupo 1114071" transform="translate(16.069)">
                      <g id="Grupo_1114070" data-name="Grupo 1114070">
                        <path id="Trazado_906985" data-name="Trazado 906985" d="M321.023,44.862a18.089,18.089,0,0,0,3.261-5.663,2.9,2.9,0,0,0,.128-1.568c-.37-1.387-2.205-1.706-3.626-1.506-4.661.657-8.529,3.836-11.97,7.046-9.522,8.883-17.839,18.962-26.125,29.007,8.719-13.8,16.379-28.4,21.189-44,1.071-3.473,1.987-7.286.65-10.665a1.887,1.887,0,0,0-.7-.979c-.663-.395-1.5.033-2.119.5-4.051,3.036-6.406,7.788-8.36,12.458-5.792,13.84-9.337,28.491-13.512,42.9q1.886-12.476,2.663-25.086a101.541,101.541,0,0,0-.474-21.521,22.563,22.563,0,0,0-2.437-7.943c-.522-.9-1.333-1.843-2.374-1.776a2.946,2.946,0,0,0-2.058,1.643c-2.67,4.291-3.386,9.489-3.776,14.528a156.669,156.669,0,0,0,.207,25.791q.557,6.322,1.564,12.593c.619,3.878.834,8.908,2.575,12.457,2.8,5.7,6.356-1.12,8.223-3.759,4.29-6.066,10.975-9.677,16.7-14.261A120.028,120.028,0,0,0,321.023,44.862Z" transform="translate(-270.952 -16.063)" fill="#6e572d"/>
                      </g>
                    </g>
                    <g id="Grupo_1114073" data-name="Grupo 1114073" transform="translate(16.069)">
                      <g id="Grupo_1114072" data-name="Grupo 1114072">
                        <path id="Trazado_906986" data-name="Trazado 906986" d="M321.023,44.862a18.089,18.089,0,0,0,3.261-5.663,2.9,2.9,0,0,0,.128-1.568c-.37-1.387-2.205-1.706-3.626-1.506-4.661.657-8.529,3.836-11.97,7.046-9.522,8.883-17.839,18.962-26.125,29.007,8.719-13.8,16.379-28.4,21.189-44,1.071-3.473,1.987-7.286.65-10.665a1.887,1.887,0,0,0-.7-.979c-.663-.395-1.5.033-2.119.5-4.051,3.036-6.406,7.788-8.36,12.458-5.792,13.84-9.337,28.491-13.512,42.9q1.886-12.476,2.663-25.086a101.541,101.541,0,0,0-.474-21.521,22.563,22.563,0,0,0-2.437-7.943c-.522-.9-1.333-1.843-2.374-1.776a2.946,2.946,0,0,0-2.058,1.643c-2.67,4.291-3.386,9.489-3.776,14.528a156.669,156.669,0,0,0,.207,25.791q.557,6.322,1.564,12.593c.619,3.878.834,8.908,2.575,12.457,2.8,5.7,6.356-1.12,8.223-3.759,4.29-6.066,10.975-9.677,16.7-14.261A120.028,120.028,0,0,0,321.023,44.862Z" transform="translate(-270.952 -16.063)" fill="#6e572d"/>
                      </g>
                    </g>
                    <g id="Grupo_1114075" data-name="Grupo 1114075" transform="translate(16.069)" opacity="0.44">
                      <g id="Grupo_1114074" data-name="Grupo 1114074">
                        <path id="Trazado_906987" data-name="Trazado 906987" d="M321.023,44.862a18.089,18.089,0,0,0,3.261-5.663,2.9,2.9,0,0,0,.128-1.568c-.37-1.387-2.205-1.706-3.626-1.506-4.661.657-8.529,3.836-11.97,7.046-9.522,8.883-17.839,18.962-26.125,29.007,8.719-13.8,16.379-28.4,21.189-44,1.071-3.473,1.987-7.286.65-10.665a1.887,1.887,0,0,0-.7-.979c-.663-.395-1.5.033-2.119.5-4.051,3.036-6.406,7.788-8.36,12.458-5.792,13.84-9.337,28.491-13.512,42.9q1.886-12.476,2.663-25.086a101.541,101.541,0,0,0-.474-21.521,22.563,22.563,0,0,0-2.437-7.943c-.522-.9-1.333-1.843-2.374-1.776a2.946,2.946,0,0,0-2.058,1.643c-2.67,4.291-3.386,9.489-3.776,14.528a156.669,156.669,0,0,0,.207,25.791q.557,6.322,1.564,12.593c.619,3.878.834,8.908,2.575,12.457,2.8,5.7,6.356-1.12,8.223-3.759,4.29-6.066,10.975-9.677,16.7-14.261A120.028,120.028,0,0,0,321.023,44.862Z" transform="translate(-270.952 -16.063)" fill="#bcd1cd"/>
                      </g>
                    </g>
                    <g id="Grupo_1114077" data-name="Grupo 1114077" transform="translate(0 55.418)">
                      <g id="Grupo_1114076" data-name="Grupo 1114076">
                        <path id="Trazado_906988" data-name="Trazado 906988" d="M335.933,98.042,330.451,123.9l-.876,4.1-.338,1.593-1.058,4.97-.337,1.594-.808,3.778-.331,1.579-.779,3.633-.344,1.608-1.136,5.393-1.461,6.834,5.669,2.45,4.822-8.718,2.045-3.718.86-1.543,2.026-3.673.845-1.549,1.778-3.219.839-1.535,2.111-3.83.355-.62.439-.811,1.062-1.93.866-1.558,1.194-2.154.971-1.758,8.362-15.164a19.327,19.327,0,0,0-3.67-6.1,16.892,16.892,0,0,0-12.164-5.872A22.96,22.96,0,0,0,335.933,98.042Z" transform="translate(-322.984 -97.642)" fill="#f0953e"/>
                      </g>
                    </g>
                    <g id="Grupo_1114079" data-name="Grupo 1114079" transform="translate(0 55.418)" opacity="0.48">
                      <g id="Grupo_1114078" data-name="Grupo 1114078">
                        <path id="Trazado_906989" data-name="Trazado 906989" d="M335.933,98.042,330.451,123.9l-.876,4.1-.338,1.593-1.058,4.97-.337,1.594-.808,3.778-.331,1.579-.779,3.633-.344,1.608-1.136,5.393-1.461,6.834,5.669,2.45,4.822-8.718,2.045-3.718.86-1.543,2.026-3.673.845-1.549,1.778-3.219.839-1.535,2.111-3.83.355-.62.439-.811,1.062-1.93.866-1.558,1.194-2.154.971-1.758,8.362-15.164a19.327,19.327,0,0,0-3.67-6.1,16.892,16.892,0,0,0-12.164-5.872A22.96,22.96,0,0,0,335.933,98.042Z" transform="translate(-322.984 -97.642)" fill="#ca3e2b"/>
                      </g>
                    </g>
                    <g id="Grupo_1114084" data-name="Grupo 1114084" transform="translate(17.81 78.413)">
                      <g id="Grupo_1114081" data-name="Grupo 1114081" transform="translate(3.29)">
                        <g id="Grupo_1114080" data-name="Grupo 1114080">
                          <path id="Trazado_906990" data-name="Trazado 906990" d="M338.391,140.4a.785.785,0,0,0,.4.062.805.805,0,0,0,.722-.882,11.084,11.084,0,0,0-4.7-7.949.806.806,0,1,0-.912,1.329,9.452,9.452,0,0,1,4.011,6.779A.8.8,0,0,0,338.391,140.4Z" transform="translate(-333.547 -131.493)" fill="#37241b"/>
                        </g>
                      </g>
                      <g id="Grupo_1114083" data-name="Grupo 1114083" transform="translate(0 4.481)">
                        <g id="Grupo_1114082" data-name="Grupo 1114082">
                          <path id="Trazado_906991" data-name="Trazado 906991" d="M342.475,145.558a.806.806,0,0,0,1.073-1.028,11.165,11.165,0,0,0-6.436-6.39.807.807,0,0,0-1.037.473.823.823,0,0,0,.472,1.038,9.493,9.493,0,0,1,5.495,5.454A.8.8,0,0,0,342.475,145.558Z" transform="translate(-336.025 -138.09)" fill="#37241b"/>
                        </g>
                      </g>
                    </g>
                  </g>
                  <g id="Grupo_1114101" data-name="Grupo 1114101" transform="translate(0 4.76)">
                    <g id="Grupo_1114087" data-name="Grupo 1114087">
                      <g id="Grupo_1114086" data-name="Grupo 1114086">
                        <path id="Trazado_906992" data-name="Trazado 906992" d="M431.343,35.946a18.089,18.089,0,0,0-.678-6.5,2.9,2.9,0,0,0-.816-1.344c-1.113-.907-2.787-.09-3.821.906-3.39,3.264-4.661,8.108-5.568,12.726-2.507,12.779-3.338,25.819-4.163,38.814-1.027-16.293-3.376-32.607-8.623-48.067-1.168-3.441-2.661-7.068-5.725-9.021a1.88,1.88,0,0,0-1.139-.384c-.768.069-1.2.907-1.427,1.644-1.5,4.834-.625,10.063.53,14.993,3.42,14.607,9.136,28.556,14.2,42.678Q408.33,71.177,401.569,60.5a101.511,101.511,0,0,0-13-17.159,22.551,22.551,0,0,0-6.63-5.006c-.952-.427-2.16-.712-2.965-.048a2.942,2.942,0,0,0-.7,2.536c.352,5.042,2.818,9.673,5.457,13.984a156.681,156.681,0,0,0,15.286,20.774q4.157,4.8,8.65,9.285c2.774,2.78,5.9,6.729,9.388,8.584,5.61,2.981,4.493-4.634,4.458-7.866-.079-7.43,3.219-14.274,5.172-21.345A120.025,120.025,0,0,0,431.343,35.946Z" transform="translate(-378.252 -23.07)" fill="#6e572d"/>
                      </g>
                    </g>
                    <g id="Grupo_1114089" data-name="Grupo 1114089">
                      <g id="Grupo_1114088" data-name="Grupo 1114088">
                        <path id="Trazado_906993" data-name="Trazado 906993" d="M431.343,35.946a18.089,18.089,0,0,0-.678-6.5,2.9,2.9,0,0,0-.816-1.344c-1.113-.907-2.787-.09-3.821.906-3.39,3.264-4.661,8.108-5.568,12.726-2.507,12.779-3.338,25.819-4.163,38.814-1.027-16.293-3.376-32.607-8.623-48.067-1.168-3.441-2.661-7.068-5.725-9.021a1.88,1.88,0,0,0-1.139-.384c-.768.069-1.2.907-1.427,1.644-1.5,4.834-.625,10.063.53,14.993,3.42,14.607,9.136,28.556,14.2,42.678Q408.33,71.177,401.569,60.5a101.511,101.511,0,0,0-13-17.159,22.551,22.551,0,0,0-6.63-5.006c-.952-.427-2.16-.712-2.965-.048a2.942,2.942,0,0,0-.7,2.536c.352,5.042,2.818,9.673,5.457,13.984a156.681,156.681,0,0,0,15.286,20.774q4.157,4.8,8.65,9.285c2.774,2.78,5.9,6.729,9.388,8.584,5.61,2.981,4.493-4.634,4.458-7.866-.079-7.43,3.219-14.274,5.172-21.345A120.025,120.025,0,0,0,431.343,35.946Z" transform="translate(-378.252 -23.07)" fill="#6e572d"/>
                      </g>
                    </g>
                    <g id="Grupo_1114091" data-name="Grupo 1114091" opacity="0.44">
                      <g id="Grupo_1114090" data-name="Grupo 1114090">
                        <path id="Trazado_906994" data-name="Trazado 906994" d="M431.343,35.946a18.089,18.089,0,0,0-.678-6.5,2.9,2.9,0,0,0-.816-1.344c-1.113-.907-2.787-.09-3.821.906-3.39,3.264-4.661,8.108-5.568,12.726-2.507,12.779-3.338,25.819-4.163,38.814-1.027-16.293-3.376-32.607-8.623-48.067-1.168-3.441-2.661-7.068-5.725-9.021a1.88,1.88,0,0,0-1.139-.384c-.768.069-1.2.907-1.427,1.644-1.5,4.834-.625,10.063.53,14.993,3.42,14.607,9.136,28.556,14.2,42.678Q408.33,71.177,401.569,60.5a101.511,101.511,0,0,0-13-17.159,22.551,22.551,0,0,0-6.63-5.006c-.952-.427-2.16-.712-2.965-.048a2.942,2.942,0,0,0-.7,2.536c.352,5.042,2.818,9.673,5.457,13.984a156.681,156.681,0,0,0,15.286,20.774q4.157,4.8,8.65,9.285c2.774,2.78,5.9,6.729,9.388,8.584,5.61,2.981,4.493-4.634,4.458-7.866-.079-7.43,3.219-14.274,5.172-21.345A120.025,120.025,0,0,0,431.343,35.946Z" transform="translate(-378.252 -23.07)" fill="#bcd1cd"/>
                      </g>
                    </g>
                    <g id="Grupo_1114093" data-name="Grupo 1114093" transform="translate(25.834 59.617)">
                      <g id="Grupo_1114092" data-name="Grupo 1114092">
                        <path id="Trazado_906995" data-name="Trazado 906995" d="M372.4,117.158l10.715,24.163,1.694,3.835.661,1.488,2.056,4.647.66,1.489,1.561,3.534.658,1.473,1.5,3.4.664,1.5,2.24,5.036,2.823,6.392,6.028-1.338-1.2-9.89-.522-4.212-.208-1.754-.511-4.164-.223-1.751-.447-3.65-.22-1.735-.534-4.341-.075-.71-.12-.915-.27-2.186-.211-1.77-.3-2.445-.244-1.994-2.114-17.187a19.325,19.325,0,0,0-6.549-2.791,16.894,16.894,0,0,0-13.3,2.374A22.959,22.959,0,0,0,372.4,117.158Z" transform="translate(-372.398 -110.831)" fill="#f0953e"/>
                      </g>
                    </g>
                    <g id="Grupo_1114095" data-name="Grupo 1114095" transform="translate(25.834 59.617)" opacity="0.48">
                      <g id="Grupo_1114094" data-name="Grupo 1114094">
                        <path id="Trazado_906996" data-name="Trazado 906996" d="M372.4,117.158l10.715,24.163,1.694,3.835.661,1.488,2.056,4.647.66,1.489,1.561,3.534.658,1.473,1.5,3.4.664,1.5,2.24,5.036,2.823,6.392,6.028-1.338-1.2-9.89-.522-4.212-.208-1.754-.511-4.164-.223-1.751-.447-3.65-.22-1.735-.534-4.341-.075-.71-.12-.915-.27-2.186-.211-1.77-.3-2.445-.244-1.994-2.114-17.187a19.325,19.325,0,0,0-6.549-2.791,16.894,16.894,0,0,0-13.3,2.374A22.959,22.959,0,0,0,372.4,117.158Z" transform="translate(-372.398 -110.831)" fill="#ca3e2b"/>
                      </g>
                    </g>
                    <g id="Grupo_1114100" data-name="Grupo 1114100" transform="translate(45.962 78.845)">
                      <g id="Grupo_1114097" data-name="Grupo 1114097" transform="translate(0.041)">
                        <g id="Grupo_1114096" data-name="Grupo 1114096">
                          <path id="Trazado_906997" data-name="Trazado 906997" d="M383.626,144.145a.807.807,0,0,0,.427-1.322,11.08,11.08,0,0,0-8.469-3.683.806.806,0,0,0,.04,1.612,9.45,9.45,0,0,1,7.223,3.141A.806.806,0,0,0,383.626,144.145Z" transform="translate(-374.798 -139.136)" fill="#37241b"/>
                        </g>
                      </g>
                      <g id="Grupo_1114099" data-name="Grupo 1114099" transform="translate(0 5.206)">
                        <g id="Grupo_1114098" data-name="Grupo 1114098">
                          <path id="Trazado_906998" data-name="Trazado 906998" d="M383.469,150.052a.806.806,0,0,0,.267-1.462,11.166,11.166,0,0,0-8.96-1.4.807.807,0,0,0-.564.991.822.822,0,0,0,.991.564,9.5,9.5,0,0,1,7.649,1.2A.805.805,0,0,0,383.469,150.052Z" transform="translate(-374.184 -146.8)" fill="#37241b"/>
                        </g>
                      </g>
                    </g>
                  </g>
                </g>
                <g id="Grupo_1114109" data-name="Grupo 1114109" transform="translate(90.883 60.802)">
                  <g id="Grupo_1114103" data-name="Grupo 1114103" transform="translate(0 1.974)">
                    <ellipse id="Elipse_11657" data-name="Elipse 11657" cx="28.061" cy="28.061" rx="28.061" ry="28.061" fill="#ca3e2b"/>
                  </g>
                  <g id="Grupo_1114107" data-name="Grupo 1114107" transform="translate(3.103)">
                    <g id="Grupo_1114105" data-name="Grupo 1114105" transform="translate(13.119)">
                      <g id="Grupo_1114104" data-name="Grupo 1114104">
                        <path id="Trazado_906999" data-name="Trazado 906999" d="M277.931,113.543a8.916,8.916,0,0,0-4.435,2.545c-1.893,1.827-3.4,4.352-3.065,6.962a2.505,2.505,0,0,0,.391,1.147,2.046,2.046,0,0,0,1.679.774,4.16,4.16,0,0,0,1.832-.52c2.964-1.5,4.928-4.5,6.582-7.379a16.212,16.212,0,0,0,2.73,6.847c.809,1.029,2.075,1.945,3.338,1.6a2.658,2.658,0,0,0,1.774-2.212,5.515,5.515,0,0,0-.518-2.916,12.76,12.76,0,0,0-3.954-5.258,28.819,28.819,0,0,0,9.247-.531,7.182,7.182,0,0,0,3.314-1.442,2.935,2.935,0,0,0,.892-3.291c-.638-1.347-2.394-1.683-3.884-1.655a17.773,17.773,0,0,0-9.7,3.113,5.433,5.433,0,0,0-2.19,2.45c-1.06-2.834-2.347-5.638-4.877-7.3a4.607,4.607,0,0,0-3-.889,2.385,2.385,0,0,0-2.149,2.016,3.167,3.167,0,0,0,.607,1.834A12.408,12.408,0,0,0,277.931,113.543Z" transform="translate(-270.384 -105.569)" fill="#37241b"/>
                      </g>
                    </g>
                    <g id="Grupo_1114106" data-name="Grupo 1114106" transform="translate(0 17.488)">
                      <path id="Trazado_907000" data-name="Trazado 907000" d="M325.176,142.633a45.676,45.676,0,0,1,1.373-7.41,2.944,2.944,0,0,0-1.373-3.36c-.107-.061-.215-.122-.323-.182a2.859,2.859,0,0,0-4.005,1.27,26.765,26.765,0,0,0-1.846,9,2.827,2.827,0,0,0,1.008,2.346c.168.139.343.279.523.416A2.905,2.905,0,0,0,325.176,142.633Z" transform="translate(-318.996 -131.313)" fill="#ffe3d9"/>
                    </g>
                  </g>
                  <g id="Grupo_1114108" data-name="Grupo 1114108" transform="translate(4.922 33.976)">
                    <path id="Trazado_907001" data-name="Trazado 907001" d="M320.548,155.584h0a2.059,2.059,0,0,0-2.015,2.475l.806,3.906a2.059,2.059,0,0,0,2.653,1.541l1.262-.411a2.059,2.059,0,0,0,1.134-3.006l-2.069-3.5A2.058,2.058,0,0,0,320.548,155.584Z" transform="translate(-318.489 -155.584)" fill="#ffe3d9"/>
                  </g>
                </g>
                <g id="Grupo_1114116" data-name="Grupo 1114116" transform="translate(44.037 85.848)">
                  <g id="Grupo_1114110" data-name="Grupo 1114110" transform="translate(0 1.975)">
                    <ellipse id="Elipse_11658" data-name="Elipse 11658" cx="28.061" cy="28.061" rx="28.061" ry="28.061" fill="#ca3e2b"/>
                  </g>
                  <g id="Grupo_1114114" data-name="Grupo 1114114" transform="translate(3.104)">
                    <g id="Grupo_1114112" data-name="Grupo 1114112" transform="translate(13.119)">
                      <g id="Grupo_1114111" data-name="Grupo 1114111">
                        <path id="Trazado_907002" data-name="Trazado 907002" d="M346.893,150.414a8.911,8.911,0,0,0-4.435,2.544c-1.893,1.827-3.4,4.353-3.066,6.962a2.522,2.522,0,0,0,.391,1.147,2.048,2.048,0,0,0,1.68.774,4.162,4.162,0,0,0,1.832-.521c2.964-1.5,4.928-4.5,6.581-7.379a16.235,16.235,0,0,0,2.73,6.847c.81,1.029,2.075,1.944,3.339,1.6a2.655,2.655,0,0,0,1.773-2.211,5.524,5.524,0,0,0-.517-2.917,12.771,12.771,0,0,0-3.955-5.258,28.842,28.842,0,0,0,9.248-.53,7.183,7.183,0,0,0,3.314-1.443,2.935,2.935,0,0,0,.892-3.29c-.638-1.348-2.394-1.683-3.885-1.656a17.775,17.775,0,0,0-9.7,3.114,5.432,5.432,0,0,0-2.189,2.45c-1.061-2.835-2.348-5.639-4.877-7.3a4.6,4.6,0,0,0-3-.89,2.386,2.386,0,0,0-2.149,2.016,3.165,3.165,0,0,0,.608,1.834A12.407,12.407,0,0,0,346.893,150.414Z" transform="translate(-339.345 -142.439)" fill="#37241b"/>
                      </g>
                    </g>
                    <g id="Grupo_1114113" data-name="Grupo 1114113" transform="translate(0 17.489)">
                      <path id="Trazado_907003" data-name="Trazado 907003" d="M394.138,179.5a45.744,45.744,0,0,1,1.372-7.41,2.944,2.944,0,0,0-1.372-3.361l-.324-.182a2.858,2.858,0,0,0-4,1.271,26.765,26.765,0,0,0-1.847,9,2.824,2.824,0,0,0,1.007,2.345c.169.139.344.279.524.417A2.905,2.905,0,0,0,394.138,179.5Z" transform="translate(-387.957 -168.184)" fill="#ffe3d9"/>
                    </g>
                  </g>
                  <g id="Grupo_1114115" data-name="Grupo 1114115" transform="translate(4.922 33.977)">
                    <path id="Trazado_907004" data-name="Trazado 907004" d="M389.51,192.455h0a2.058,2.058,0,0,0-2.016,2.474l.806,3.906a2.058,2.058,0,0,0,2.653,1.541l1.262-.411a2.059,2.059,0,0,0,1.134-3.006l-2.069-3.494A2.059,2.059,0,0,0,389.51,192.455Z" transform="translate(-387.45 -192.455)" fill="#ffe3d9"/>
                  </g>
                </g>
                <g id="Grupo_1114122" data-name="Grupo 1114122" transform="translate(0 76.107)">
                  <g id="Grupo_1114117" data-name="Grupo 1114117" transform="translate(0 1.969)">
                    <path id="Trazado_907005" data-name="Trazado 907005" d="M393.557,175.22a2.6,2.6,0,0,0,.258.368c.35.5.718.958,1.1,1.418a28.022,28.022,0,0,0,43.688-.7,1.4,1.4,0,0,0,.2-.257,21.8,21.8,0,0,0,1.289-1.841,25.863,25.863,0,0,0,2.32-4.419v-.018a26.14,26.14,0,0,0,1.491-4.731c.184-.847.331-1.73.442-2.614.037-.313.073-.626.092-.939.074-.792.111-1.6.111-2.412a26.822,26.822,0,0,0-.129-2.725,27.5,27.5,0,0,0-.9-4.786,27.839,27.839,0,0,0-10.034-14.8,19.715,19.715,0,0,0-1.6-1.16,28.283,28.283,0,0,0-7.438-3.461h-.018A28.315,28.315,0,0,0,416.5,131a26.013,26.013,0,0,0-3.608.24,27.759,27.759,0,0,0-5.947,1.436.689.689,0,0,0-.2.092.776.776,0,0,0,.074.129.018.018,0,0,0,.018.018,133.6,133.6,0,0,0-8.874,22.976.138.138,0,0,0-.018.073c-.35,1.179-.681,2.375-.994,3.572v.018c-.239.957-.478,1.9-.7,2.872q-.082.359-.166.718-.8,3.535-1.436,7.125c-.294,1.639-.552,3.3-.773,4.952Z" transform="translate(-393.557 -130.998)" fill="#ca3e2b"/>
                  </g>
                  <g id="Grupo_1114120" data-name="Grupo 1114120" transform="translate(11.093)">
                    <g id="Grupo_1114119" data-name="Grupo 1114119">
                      <g id="Grupo_1114118" data-name="Grupo 1114118">
                        <path id="Trazado_907006" data-name="Trazado 907006" d="M411.768,145.589a2.71,2.71,0,0,0,.386,1.141,2.114,2.114,0,0,0,1.694.774,4.315,4.315,0,0,0,1.823-.516c2.965-1.51,4.935-4.511,6.591-7.383a16.16,16.16,0,0,0,2.725,6.849c.81,1.031,2.08,1.933,3.332,1.6a2.69,2.69,0,0,0,1.786-2.209,5.408,5.408,0,0,0-.534-2.928,12.786,12.786,0,0,0-3.94-5.247,28.866,28.866,0,0,0,9.242-.534,7.079,7.079,0,0,0,3.314-1.436,3.529,3.529,0,0,0,.773-1.031,2.453,2.453,0,0,0,.184-2.025v-.037a.666.666,0,0,0-.073-.2.3.3,0,0,0-.074-.128.018.018,0,0,0-.018-.018c-.681-1.215-2.357-1.547-3.793-1.51a16.344,16.344,0,0,0-3.664.461H431.5a17.55,17.55,0,0,0-6,2.651,5.317,5.317,0,0,0-2.191,2.449,17.433,17.433,0,0,0-3.351-6,7.959,7.959,0,0,0-1.528-1.289,4.96,4.96,0,0,0-2.559-.92c-.645,1.2-1.27,2.412-1.86,3.645a.692.692,0,0,0-.2.092.776.776,0,0,0,.074.129.018.018,0,0,0,.018.018,12.27,12.27,0,0,0,5.375,4.087,8.856,8.856,0,0,0-4.437,2.541C412.946,140.452,411.437,142.975,411.768,145.589Z" transform="translate(-411.723 -128.099)" fill="#37241b"/>
                      </g>
                    </g>
                  </g>
                  <g id="Grupo_1114121" data-name="Grupo 1114121" transform="translate(1.086 34.114)">
                    <path id="Trazado_907007" data-name="Trazado 907007" d="M459.82,185.443a2.061,2.061,0,0,0,2.21.663l1.27-.406a2.063,2.063,0,0,0,1.123-3.019l-2.062-3.5a1.9,1.9,0,0,0-1.1-.865Q460.457,181.853,459.82,185.443Z" transform="translate(-459.82 -178.318)" fill="#ffe3d9"/>
                  </g>
                </g>
              </g>
              <g id="Grupo_1114136" data-name="Grupo 1114136" transform="translate(0 72.406)">
                <g id="Grupo_1114124" data-name="Grupo 1114124" transform="translate(0)">
                  <path id="Trazado_907008" data-name="Trazado 907008" d="M201.868,191.579v60.478h61.62l70.64-26.9,12.28-4.676,10.089-3.848.939-.35h.037l.018-.018.829-.312,4.731-1.8,5.155-1.97,15.87-6.038-.442-5.376-.442-5.247-.166-1.878v-.166L381.2,171.6l-1.27-15.152L378.239,136.2l-.4-4.99-.718-8.561-23.547,7.18-5.394,1.657-10.66,3.259-1.179.35-34.243,10.457-3.351,1.031-2.854.865-1.325.4-11.322,3.461-1.933.59-5.523,1.675-5.763,1.767-4.216,1.289-8.69,2.651H257.1l-1.491.461H205.55q-.082.359-.166.718-.8,3.535-1.436,7.125c-.294,1.638-.552,3.3-.773,4.952h-.313a2.605,2.605,0,0,0,.258.368c-.055.5-.129.976-.184,1.454q-.055.47-.111.94c-.35,2.871-.589,5.762-.755,8.689-.018.258-.018.516-.037.774-.018.516-.056,1.012-.056,1.528-.037.589-.055,1.2-.073,1.8C201.886,189.26,201.868,190.42,201.868,191.579Z" transform="translate(-201.868 -122.651)" fill="#f0953e"/>
                </g>
                <g id="Grupo_1114135" data-name="Grupo 1114135" transform="translate(0 0.007)">
                  <g id="Grupo_1114133" data-name="Grupo 1114133" transform="translate(0 48.559)">
                    <g id="Grupo_1114126" data-name="Grupo 1114126" transform="translate(0.994)">
                      <g id="Grupo_1114125" data-name="Grupo 1114125">
                        <path id="Trazado_907009" data-name="Trazado 907009" d="M379.614,195.839c-.055.5-.129.976-.184,1.454l1.289-.037,43.614-.939h.018l.257-.018,3.9-.074,2.356-.055,2.522-.055,3.185-.074,3.425-.073-.037-1.823-4.179.092-3.462.074-1.657.037-2.246.055-2.522.056-1.97.037-44.259.976h-.313A2.6,2.6,0,0,0,379.614,195.839Z" transform="translate(-379.356 -194.145)" fill="#37241b"/>
                      </g>
                    </g>
                    <g id="Grupo_1114128" data-name="Grupo 1114128" transform="translate(0.037 13.918)">
                      <g id="Grupo_1114127" data-name="Grupo 1114127">
                        <path id="Trazado_907010" data-name="Trazado 907010" d="M375.725,217.6l53.924-.975h.516l9.629-.184-.037-1.8-10.291.184-1.124.018-52.543.957C375.762,216.383,375.743,216.991,375.725,217.6Z" transform="translate(-375.725 -214.634)" fill="#37241b"/>
                      </g>
                    </g>
                    <g id="Grupo_1114130" data-name="Grupo 1114130" transform="translate(0 37.447)">
                      <g id="Grupo_1114129" data-name="Grupo 1114129">
                        <path id="Trazado_907011" data-name="Trazado 907011" d="M363.908,249.269v1.823l56.5.46,15.612.129.018-1.823-15.833-.129Z" transform="translate(-363.908 -249.269)" fill="#37241b"/>
                      </g>
                    </g>
                    <g id="Grupo_1114132" data-name="Grupo 1114132" transform="translate(0 62.448)">
                      <g id="Grupo_1114131" data-name="Grupo 1114131">
                        <path id="Trazado_907012" data-name="Trazado 907012" d="M430.076,286.349l-58.931,2.025V290.2l59.116-2.025,8.1-.276-.055-1.823Z" transform="translate(-371.145 -286.073)" fill="#37241b"/>
                      </g>
                    </g>
                  </g>
                  <g id="Grupo_1114134" data-name="Grupo 1114134" transform="translate(51.066)">
                    <path id="Trazado_907013" data-name="Trazado 907013" d="M201.866,159.758l9.774,92.3h.781l120.589-45.925-6.958-83.475-121.515,37.1Z" transform="translate(-201.866 -122.662)" fill="#37241b"/>
                  </g>
                </g>
              </g>
            </g>
            <g id="Grupo_1114158" data-name="Grupo 1114158" transform="translate(132.581 39.077)">
              <g id="Grupo_1114138" data-name="Grupo 1114138" transform="translate(28.432 81.227)">
                <path id="Trazado_907014" data-name="Trazado 907014" d="M158.885,240.788l6.675,45.554,43.719-42.885-1.037-50.3-47.19,1.61-1.041,21.55-.463,9.761-.137,2.727Z" transform="translate(-158.885 -193.16)" fill="#8c442f"/>
              </g>
              <g id="Grupo_1114139" data-name="Grupo 1114139" transform="translate(29.095 101.799)">
                <path id="Trazado_907015" data-name="Trazado 907015" d="M182.412,235.792a13.376,13.376,0,0,0,3.4.6c11.277.725,22.419-4.891,30.348-12.948a98.043,98.043,0,0,1-33.286,2.587Z" transform="translate(-182.412 -223.444)" fill="#37241b"/>
              </g>
              <g id="Grupo_1114140" data-name="Grupo 1114140" transform="translate(1.359 4.882)">
                <path id="Trazado_907016" data-name="Trazado 907016" d="M143.029,130.841c.022-9.188,1.371-18.2,5.384-26.094a43.8,43.8,0,0,1,81.837,10.484,43.619,43.619,0,0,1-4.135,29.93l-13.137,34.055c-7.7.484-15.429.73-23.145.829-11.16.142-24.775,1.863-35.393-2.374-6.413-2.558-7.43-10.327-8.341-16.368C144.67,151.828,143,141.222,143.029,130.841Z" transform="translate(-143.029 -80.773)" fill="#8c442f"/>
              </g>
              <g id="Grupo_1114141" data-name="Grupo 1114141" transform="translate(0 57.48)">
                <path id="Trazado_907017" data-name="Trazado 907017" d="M143.773,167.67c6.03-3.022,14.331.167,16.786,6.449,2.339-3.159,5.338-6.171,9.191-6.947s8.515,1.669,8.79,5.591a13.461,13.461,0,0,1,11.66-4.856c2.719.283,5.626,1.753,6.335,4.394a11.136,11.136,0,0,1,17-2.948,18,18,0,0,1,19.336-10.908c-5.682,7.2-11.076,14.448-11.69,23.6-.228,3.4.3,6.875-.443,10.2-1.593,7.132-9.724,12.059-16.783,10.171a9.691,9.691,0,0,1-15.383,2.083c-2.042,1.85-4.182,3.742-6.816,4.552s-5.909.222-7.41-2.089a8.553,8.553,0,0,1-15.584-2.734,7.832,7.832,0,0,1-10.323-2.7c-1.382-2.363-1.376-5.252-1.418-7.99A136.682,136.682,0,0,0,143.773,167.67Z" transform="translate(-143.773 -158.202)" fill="#ffe3d9"/>
              </g>
              <g id="Grupo_1114148" data-name="Grupo 1114148" transform="translate(9.738 52.309)">
                <g id="Grupo_1114145" data-name="Grupo 1114145" transform="translate(0)">
                  <g id="Grupo_1114144" data-name="Grupo 1114144">
                    <g id="Grupo_1114142" data-name="Grupo 1114142" transform="translate(36.023 1.495)">
                      <path id="Trazado_907018" data-name="Trazado 907018" d="M196.568,157.23a3.755,3.755,0,1,0,3.007-4.375A3.755,3.755,0,0,0,196.568,157.23Z" transform="translate(-196.505 -152.792)" fill="#37241b"/>
                    </g>
                    <g id="Grupo_1114143" data-name="Grupo 1114143">
                      <path id="Trazado_907019" data-name="Trazado 907019" d="M249.6,155.029a3.755,3.755,0,1,0,3.007-4.375A3.754,3.754,0,0,0,249.6,155.029Z" transform="translate(-249.533 -150.59)" fill="#37241b"/>
                    </g>
                  </g>
                </g>
                <g id="Grupo_1114147" data-name="Grupo 1114147" transform="translate(17.541 24.212)">
                  <g id="Grupo_1114146" data-name="Grupo 1114146">
                    <path id="Trazado_907020" data-name="Trazado 907020" d="M222.394,192.426a6.137,6.137,0,0,0,.965-.074,6.782,6.782,0,0,0,5.514-5.235.735.735,0,0,0-1.44-.3,5.195,5.195,0,0,1-9.622,1.482.735.735,0,1,0-1.284.715A6.8,6.8,0,0,0,222.394,192.426Z" transform="translate(-216.433 -186.233)" fill="#37241b"/>
                  </g>
                </g>
              </g>
              <g id="Grupo_1114151" data-name="Grupo 1114151" transform="translate(73.368 58.46)">
                <g id="Grupo_1114149" data-name="Grupo 1114149">
                  <path id="Trazado_907021" data-name="Trazado 907021" d="M142.854,159.667c4.642-.328,8.727,3.158,10.652,7.19,2.072,4.341,2.122,9.865-.994,13.666-2.695,3.286-7.149,4.714-11.413,5.486a12.36,12.36,0,0,1-4.825.164c-3.642-.8-5.864-4.439-6.444-7.983C128.61,170.738,133.993,160.293,142.854,159.667Z" transform="translate(-129.658 -159.645)" fill="#8c442f"/>
                </g>
                <g id="Grupo_1114150" data-name="Grupo 1114150" transform="translate(6.028 3.185)">
                  <path id="Trazado_907022" data-name="Trazado 907022" d="M137.149,184.491a.733.733,0,0,0,.729-.651c.459-3.943,1.168-8.083,3.238-11.65,2.174-3.745,5.735-6.19,9.3-6.383a.734.734,0,0,0,.695-.773.715.715,0,0,0-.774-.694c-4.05.217-8.069,2.941-10.488,7.112-2.212,3.808-2.974,8.313-3.427,12.218a.739.739,0,0,0,.731.82Z" transform="translate(-136.413 -164.334)" fill="#37241b"/>
                </g>
              </g>
              <g id="Grupo_1114152" data-name="Grupo 1114152" transform="translate(22.718 41.252)">
                <path id="Trazado_907023" data-name="Trazado 907023" d="M237.764,165.006a.736.736,0,0,0,.52-1.255,59.248,59.248,0,0,1-4.42-5.028c-1.117-1.462,1.308-13.081,4.3-23.469a.735.735,0,1,0-1.413-.407c-1.05,3.648-6.18,21.987-4.053,24.768a59.166,59.166,0,0,0,4.549,5.176A.73.73,0,0,0,237.764,165.006Z" transform="translate(-232.185 -134.313)" fill="#37241b"/>
              </g>
              <g id="Grupo_1114153" data-name="Grupo 1114153" transform="translate(62.389 10.425)">
                <path id="Trazado_907024" data-name="Trazado 907024" d="M166.41,139.51a7.9,7.9,0,0,0-6.117-2.449,23.415,23.415,0,0,0-6.642,1.359,28.892,28.892,0,0,1-4.752-21.5c-4.483.287-8.686-2.58-11.288-6.241a14.275,14.275,0,0,1-2.5-5.537c-1.107-5.847,2.6-11.41,6.117-16.209,3.237,2.92,6.67,5.039,9.906,7.959,6.267,5.653,12.8,11.71,15.293,19.773C168.519,123.433,167.473,132.507,166.41,139.51Z" transform="translate(-134.91 -88.933)" fill="#ffe3d9"/>
              </g>
              <g id="Grupo_1114154" data-name="Grupo 1114154" transform="translate(4.865)">
                <path id="Trazado_907025" data-name="Trazado 907025" d="M174.112,91.5a5.378,5.378,0,0,0,2.967,6.047,8.223,8.223,0,0,0,7.073-.293,18.27,18.27,0,0,0,5.591-4.659c.163,4.064.745,8.845,4.3,10.817,3.065,1.7,6.941.406,9.89-1.488a27.211,27.211,0,0,0,8.86-9.311c-.033,3.5.215,7.585,3.09,9.586,2.967,2.066,7.1.7,10.112-1.306a28.551,28.551,0,0,0,11.677-16.387c-6.034-3.717-11.95-8.43-18.858-10.012a41.844,41.844,0,0,0-24.518,2.31C186.547,79.872,176.506,83.52,174.112,91.5Z" transform="translate(-173.936 -73.587)" fill="#ffe3d9"/>
              </g>
              <g id="Grupo_1114157" data-name="Grupo 1114157" transform="translate(2.789 38.612)">
                <g id="Grupo_1114155" data-name="Grupo 1114155" transform="translate(40.079 1.032)">
                  <path id="Trazado_907026" data-name="Trazado 907026" d="M200.6,135.438c1.658,1.383,3.05,3.481,2.5,5.546a4.575,4.575,0,0,1-2.928,2.95,8.588,8.588,0,0,1-4.31.248,22.7,22.7,0,0,1-4.159-1.172,14.061,14.061,0,0,1-4.615-2.5,5.641,5.641,0,0,1-2.051-4.59C185.74,128.9,197.4,132.775,200.6,135.438Z" transform="translate(-185.018 -131.946)" fill="#ffe3d9"/>
                </g>
                <g id="Grupo_1114156" data-name="Grupo 1114156" transform="translate(0)">
                  <path id="Trazado_907027" data-name="Trazado 907027" d="M257.847,130.92c2,.651,4.04,2.059,4.373,4.162a4.477,4.477,0,0,1-1.4,3.809,7.818,7.818,0,0,1-3.679,1.842,20.826,20.826,0,0,1-4.1.479,13.214,13.214,0,0,1-5.025-.568,5.771,5.771,0,0,1-3.6-3.453C242.263,130.475,254,129.667,257.847,130.92Z" transform="translate(-244.148 -130.427)" fill="#ffe3d9"/>
                </g>
              </g>
            </g>
            <g id="Grupo_1114159" data-name="Grupo 1114159" transform="translate(159.641 148.474)">
              <path id="Trazado_907028" data-name="Trazado 907028" d="M191.764,234.628,148.32,260.6l-9.276,24.119,6.8,26.283,58.442-42.981Z" transform="translate(-139.043 -234.628)" fill="#ca3e2b"/>
            </g>
            <g id="Grupo_1114167" data-name="Grupo 1114167" transform="translate(95.605 165.673)">
              <g id="Grupo_1114160" data-name="Grupo 1114160" transform="translate(45.829 0.31)">
                <path id="Trazado_907029" data-name="Trazado 907029" d="M241.114,278.107a.734.734,0,0,0,.572-.274L254.828,261.6a.735.735,0,1,0-1.144-.925L240.542,276.91a.735.735,0,0,0,.571,1.2Z" transform="translate(-240.378 -260.404)" fill="#37241b"/>
              </g>
              <g id="Grupo_1114166" data-name="Grupo 1114166" transform="translate(0)">
                <g id="Grupo_1114161" data-name="Grupo 1114161" transform="translate(59.435)">
                  <path id="Trazado_907030" data-name="Trazado 907030" d="M151.391,291.722a.735.735,0,0,0,.695-.495l7.3-21.012,17.1,21.233a.733.733,0,0,0,.508.27.752.752,0,0,0,.547-.177l33.086-28.757a.736.736,0,0,0-.965-1.111l-32.51,28.257-17.456-21.672a.736.736,0,0,0-1.268.221L151.649,288l-4.48-27.437a.735.735,0,0,0-1.314-.322l-.464.618a.737.737,0,0,0,.528,1.174l4.746,29.07a.735.735,0,0,0,.663.613C151.349,291.72,151.37,291.722,151.391,291.722Z" transform="translate(-145.244 -259.948)" fill="#37241b"/>
                </g>
                <g id="Grupo_1114162" data-name="Grupo 1114162" transform="translate(59.079 29.125)">
                  <path id="Trazado_907031" data-name="Trazado 907031" d="M231.436,433.738h1.8c1.05-39.858,2.706-80.122,5.007-119.962.166-3.075.35-6.149.534-9.224.018-.533.056-1.086.092-1.619l-1.049-.056-.773-.055c-.018.257-.037.5-.037.755q-.056.828-.111,1.657c-.055.92-.111,1.841-.147,2.761C234.308,349.732,232.5,391.946,231.436,433.738Z" transform="translate(-231.436 -302.822)" fill="#37241b"/>
                </g>
                <g id="Grupo_1114165" data-name="Grupo 1114165" transform="translate(0 62.006)">
                  <g id="Grupo_1114163" data-name="Grupo 1114163" transform="translate(135.5 23.952)">
                    <path id="Trazado_907032" data-name="Trazado 907032" d="M126.526,387.239l.81,73.329h1.473L128,387.22a.737.737,0,0,0-.736-.736A.767.767,0,0,0,126.526,387.239Z" transform="translate(-126.526 -386.484)" fill="#37241b"/>
                  </g>
                  <g id="Grupo_1114164" data-name="Grupo 1114164">
                    <path id="Trazado_907033" data-name="Trazado 907033" d="M310.464,449.26h1.823l6.186-54.9,3.074-27.395,1.749-15.538-1.8-.2-4.805,42.657Z" transform="translate(-310.464 -351.225)" fill="#37241b"/>
                  </g>
                </g>
              </g>
            </g>
          </g>
          <path id="Trazado_907034" data-name="Trazado 907034" d="M268.728,435.532v33.01H405.517a65.311,65.311,0,0,0-14.489-24.247c-2.927-3.075-6.775-6.075-10.991-5.486-5.118.718-7.953,6.131-9.978,10.9a49.441,49.441,0,0,0-14.968-30.653c-6.038-5.744-15.115-10-22.608-6.352-5.375,2.614-8.284,8.468-10.236,14.121a88.917,88.917,0,0,0-3.995,16.662c-2.191-8.487-4.6-17.38-10.6-23.787-3.572-3.811-8.653-6.627-13.863-6.057-7.843.847-12.942,8.635-15.63,16.053a70.454,70.454,0,0,0-4.013,19.46A22.777,22.777,0,0,0,268.728,435.532Z" transform="translate(-268.728 -142.827)" fill="#6e572d"/>
        </g>
      </g>
    </g>
    <path id="Trazado_916604" data-name="Trazado 916604" d="M17.861-36.623a9.766,9.766,0,0,0-3.683.715,11.644,11.644,0,0,0-3.233,1.961,12.371,12.371,0,0,0-2.491,2.915A9.8,9.8,0,0,0,7.1-27.454L6.784-25.6H14.1q.106-.583.185-1.245a4.074,4.074,0,0,1,.318-1.192,2.238,2.238,0,0,1,.689-.875,2.105,2.105,0,0,1,1.3-.344h3.657q1.855,0,1.537,1.8L21.147-23.8a2.024,2.024,0,0,1-2.226,1.855h-5.83l-1.272,7.261h5.83a9.766,9.766,0,0,0,3.684-.715,11.644,11.644,0,0,0,3.233-1.961,12.6,12.6,0,0,0,2.491-2.889A9.556,9.556,0,0,0,28.408-23.8l.636-3.657a8.64,8.64,0,0,0-.106-3.577,7.51,7.51,0,0,0-1.431-2.915,7.031,7.031,0,0,0-2.544-1.961,8.066,8.066,0,0,0-3.445-.715ZM16.589,0l1.272-7.314H10.547L9.275,0ZM10.971-9.805h7.314l.742-4.028a25.816,25.816,0,0,1-3.684.159q-1.829-.053-3.684-.053Zm.583-11.819H7.367L5.353-24.115H5.035l.583-3.339a11.722,11.722,0,0,1,1.537-4.16,13.2,13.2,0,0,1,2.888-3.366,14.523,14.523,0,0,1,3.79-2.279,11.206,11.206,0,0,1,4.293-.848h3.657A9.086,9.086,0,0,1,26.5-36.915a8.383,8.383,0,0,1,3.127,3.207l1.166,1.431a8.1,8.1,0,0,1,1.7,3.339,9.544,9.544,0,0,1,.053,4.134l-.636,3.657A11.571,11.571,0,0,1,30.714-17.7a13.146,13.146,0,0,1-2.12,2.941,13.918,13.918,0,0,1-2.809,2.252,12.793,12.793,0,0,1-3.312,1.431L19.822,3.975H9.858L7.844,1.484H7.526Zm6.1-1.8h1.537a.415.415,0,0,0,.477-.371l.265-1.484H18.55q-.424,0-.583.556t-.265,1.14Zm29.1-13.2a9.766,9.766,0,0,0-3.684.715,11.644,11.644,0,0,0-3.233,1.961,12.371,12.371,0,0,0-2.491,2.915,9.8,9.8,0,0,0-1.352,3.577L35.669-25.6h7.314q.106-.583.185-1.245a4.074,4.074,0,0,1,.318-1.192,2.238,2.238,0,0,1,.689-.875,2.105,2.105,0,0,1,1.3-.344h3.657q1.855,0,1.537,1.8L50.032-23.8a2.024,2.024,0,0,1-2.226,1.855h-5.83L40.7-14.681h5.83a9.766,9.766,0,0,0,3.683-.715,11.644,11.644,0,0,0,3.233-1.961,12.6,12.6,0,0,0,2.491-2.889A9.556,9.556,0,0,0,57.293-23.8l.636-3.657a8.64,8.64,0,0,0-.106-3.577,7.51,7.51,0,0,0-1.431-2.915,7.031,7.031,0,0,0-2.544-1.961,8.066,8.066,0,0,0-3.445-.715ZM45.474,0l1.272-7.314H39.432L38.16,0ZM39.856-9.805H47.17l.742-4.028a25.816,25.816,0,0,1-3.684.159q-1.828-.053-3.684-.053Zm.583-11.819H36.252l-2.014-2.491H33.92l.583-3.339a11.722,11.722,0,0,1,1.537-4.16,13.2,13.2,0,0,1,2.889-3.366,14.523,14.523,0,0,1,3.79-2.279,11.206,11.206,0,0,1,4.293-.848h3.657a9.086,9.086,0,0,1,4.717,1.192,8.383,8.383,0,0,1,3.127,3.207l1.166,1.431a8.1,8.1,0,0,1,1.7,3.339,9.544,9.544,0,0,1,.053,4.134l-.636,3.657A11.571,11.571,0,0,1,59.6-17.7a13.146,13.146,0,0,1-2.12,2.941,13.918,13.918,0,0,1-2.809,2.252,12.793,12.793,0,0,1-3.312,1.431L48.707,3.975H38.743L36.729,1.484h-.318Zm6.1-1.8h1.537a.415.415,0,0,0,.477-.371l.265-1.484H47.435q-.424,0-.583.556t-.265,1.14Z" transform="translate(1171.051 6798)" fill="#37241b"/>
  </g>
</svg>
