<svg xmlns="http://www.w3.org/2000/svg" xmlns:xlink="http://www.w3.org/1999/xlink" width="303" height="189" viewBox="0 0 303 189">
  <defs>
    <clipPath id="clip-path">
      <rect id="Rect치ngulo_404877" data-name="Rect치ngulo 404877" width="303" height="189" rx="8" fill="#fff"/>
    </clipPath>
  </defs>
  <g id="Enmascarar_grupo_1098775" data-name="Enmascarar grupo 1098775" clip-path="url(#clip-path)">
    <g id="Grupo_1114062" data-name="Grupo 1114062" transform="translate(-6.366 -29.7)">
      <g id="BACKGROUND">
        <rect id="Rect치ngulo_404878" data-name="Rect치ngulo 404878" width="314.483" height="241.616" fill="#f9e5d6"/>
      </g>
      <g id="OBJECTS" transform="translate(0 12.076)">
        <g id="Grupo_1113824" data-name="Grupo 1113824" transform="translate(0.121)">
          <g id="Grupo_1113799" data-name="Grupo 1113799" transform="translate(94.926 12.533)">
            <g id="Grupo_1113798" data-name="Grupo 1113798">
              <g id="Grupo_1113797" data-name="Grupo 1113797">
                <path id="Trazado_906792" data-name="Trazado 906792" d="M252.684,62.614s-2.189-7.479-6.931-6.931-5.472,2.736-9.484,1.095-5.472-6.931-12.038-5.654-7.3,8.572-14.774,8.025-10.031-.73-12.768,3.466Z" transform="translate(-196.689 -50.927)" fill="#fff"/>
              </g>
            </g>
          </g>
          <g id="Grupo_1113801" data-name="Grupo 1113801" transform="translate(27.275 37.606)">
            <g id="Grupo_1113800" data-name="Grupo 1113800">
              <path id="Trazado_906793" data-name="Trazado 906793" d="M65.43,105.367s-5.1-3.873-8.737-1.857c0,0,6.111.2,8.8,3.476,0,0,3.7-4.2,8.122-3.516C73.611,103.47,70.4,101.1,65.43,105.367Z" transform="translate(-56.693 -102.812)" fill="#1e1c18"/>
              <path id="Trazado_906794" data-name="Trazado 906794" d="M109.611,105.874s-3.391-2.334-5.669-.928c0,0,3.932-.057,5.756,1.966,0,0,2.251-2.811,5.111-2.505C114.809,104.407,112.672,102.979,109.611,105.874Z" transform="translate(-81.11 -103.455)" fill="#1e1c18"/>
            </g>
          </g>
          <g id="Grupo_1113804" data-name="Grupo 1113804" transform="translate(13.476)">
            <g id="Grupo_1113803" data-name="Grupo 1113803">
              <g id="Grupo_1113802" data-name="Grupo 1113802">
                <path id="Trazado_906795" data-name="Trazado 906795" d="M78.474,36.476s-2.536-5.606-9.459-3.935c-6.845,1.652-9.793-8.151-15.888-7.521s-5.545,4.453-13.321,5.714-8.393,0-11.668,5.742Z" transform="translate(-28.137 -24.991)" fill="#fff"/>
              </g>
            </g>
          </g>
          <g id="Grupo_1113808" data-name="Grupo 1113808" transform="translate(257.568 79.374)">
            <g id="Grupo_1113807" data-name="Grupo 1113807">
              <g id="Grupo_1113806" data-name="Grupo 1113806">
                <g id="Grupo_1113805" data-name="Grupo 1113805">
                  <path id="Trazado_906796" data-name="Trazado 906796" d="M569.509,197.517a5.715,5.715,0,0,0-6.812-2.834c-4.929,1.19-7.052-5.87-11.441-5.416s-3.993,3.206-9.593,4.114-6.044,0-8.4,4.135Z" transform="translate(-533.261 -189.246)" fill="#fff"/>
                </g>
              </g>
            </g>
          </g>
          <circle id="Elipse_11656" data-name="Elipse 11656" cx="49.937" cy="49.937" r="49.937" transform="translate(107.949 130.465) rotate(-45)" fill="#fff"/>
          <g id="Grupo_1113811" data-name="Grupo 1113811" transform="translate(48.573 50.073)">
            <g id="Grupo_1113810" data-name="Grupo 1113810">
              <g id="Grupo_1113809" data-name="Grupo 1113809">
                <path id="Trazado_906797" data-name="Trazado 906797" d="M137.014,136.882a5.715,5.715,0,0,0-6.811-2.834c-4.929,1.19-7.053-5.869-11.441-5.416s-3.993,3.206-9.593,4.114-6.044,0-8.4,4.135Z" transform="translate(-100.766 -128.612)" fill="#fff"/>
              </g>
            </g>
          </g>
          <g id="Grupo_1113814" data-name="Grupo 1113814" transform="translate(41.469 85.406)">
            <g id="Grupo_1113813" data-name="Grupo 1113813">
              <g id="Grupo_1113812" data-name="Grupo 1113812">
                <path id="Trazado_906798" data-name="Trazado 906798" d="M136.521,213.242s-2.541-5.62-9.482-3.944c-6.861,1.656-9.816-8.17-15.926-7.538s-5.558,4.463-13.353,5.727-8.412,0-11.7,5.756Z" transform="translate(-86.065 -201.73)" fill="#fff"/>
              </g>
            </g>
          </g>
          <g id="Grupo_1113817" data-name="Grupo 1113817" transform="translate(0 75.204)">
            <g id="Grupo_1113816" data-name="Grupo 1113816">
              <g id="Grupo_1113815" data-name="Grupo 1113815">
                <path id="Trazado_906799" data-name="Trazado 906799" d="M.25,188.888H25.175a5.715,5.715,0,0,0-6.812-2.834c-4.929,1.19-7.052-5.87-11.442-5.416-3.431.355-3.938,2.115-6.672,3.3Z" transform="translate(-0.25 -180.617)" fill="#fff"/>
              </g>
            </g>
          </g>
          <g id="Grupo_1113820" data-name="Grupo 1113820" transform="translate(251.665 29.392)">
            <g id="Grupo_1113819" data-name="Grupo 1113819" transform="translate(0 0)">
              <g id="Grupo_1113818" data-name="Grupo 1113818">
                <path id="Trazado_906800" data-name="Trazado 906800" d="M571.382,97.3s-2.535-5.606-9.459-3.935c-6.845,1.652-9.793-8.151-15.888-7.521s-5.545,4.453-13.321,5.713-8.393,0-11.668,5.743Z" transform="translate(-521.045 -85.815)" fill="#fff"/>
              </g>
            </g>
          </g>
          <g id="Grupo_1113823" data-name="Grupo 1113823" transform="translate(178.658 44.797)">
            <g id="Grupo_1113822" data-name="Grupo 1113822">
              <g id="Grupo_1113821" data-name="Grupo 1113821">
                <path id="Trazado_906801" data-name="Trazado 906801" d="M420.3,129.177s-2.536-5.606-9.459-3.935c-6.845,1.652-9.794-8.151-15.889-7.521s-5.545,4.452-13.321,5.713-8.392,0-11.668,5.742Z" transform="translate(-369.964 -117.693)" fill="#fff"/>
              </g>
            </g>
          </g>
        </g>
        <g id="Grupo_1113859" data-name="Grupo 1113859" transform="translate(0.27 103.298)">
          <g id="Grupo_1113827" data-name="Grupo 1113827" transform="translate(182.897 4.506)">
            <g id="Grupo_1113825" data-name="Grupo 1113825">
              <path id="Trazado_906802" data-name="Trazado 906802" d="M420.606,293.152c-.482.833-2.13,1.192-4.219,1.285-.459.022-.939.029-1.435.026-.782-.005-1.6-.037-2.418-.086-.632-.039-1.266-.088-1.887-.144-3.657-.331-6.905-.9-6.905-.9s-35.035-24.743-21.647-30.057c13.038-5.176,26.09,17.053,26.767,18.222-.763-1.417-17.738-33.182-3.543-33.417C419.837,247.84,420.606,293.152,420.606,293.152Z" transform="translate(-379.046 -248.081)" fill="#005454"/>
            </g>
            <g id="Grupo_1113826" data-name="Grupo 1113826" transform="translate(10.501 9.751)">
              <path id="Trazado_906803" data-name="Trazado 906803" d="M402.065,295.878l21.7,23.082c-.632-.039-1.266-.088-1.887-.144l-20.967-22.3a.468.468,0,0,1,.163-.759A.862.862,0,0,1,402.065,295.878Z" transform="translate(-400.776 -282.415)" fill="#003d3c"/>
              <path id="Trazado_906804" data-name="Trazado 906804" d="M446.541,304.865c-.459.022-.939.029-1.435.026l-7.7-36c-.063-.3.2-.575.586-.623a.714.714,0,0,1,.817.448Z" transform="translate(-419.701 -268.26)" fill="#003d3c"/>
            </g>
          </g>
          <g id="Grupo_1113830" data-name="Grupo 1113830" transform="translate(84.887 1.191)">
            <g id="Grupo_1113828" data-name="Grupo 1113828">
              <path id="Trazado_906805" data-name="Trazado 906805" d="M219.548,292.419l-4.129.11-2.832.075-4.406.117s-42.681-39.162-29.393-47.487c13.175-8.254,30.862,35.194,31.166,35.939-.191-.748-10.922-42.74,5.687-39.8C232.4,244.33,219.548,292.419,219.548,292.419Z" transform="translate(-176.225 -241.221)" fill="#005454"/>
            </g>
            <g id="Grupo_1113829" data-name="Grupo 1113829" transform="translate(11.239 12.841)">
              <path id="Trazado_906806" data-name="Trazado 906806" d="M228.891,268.354l-1.454,37.907-2.832.075-25.038-35.323a.487.487,0,0,1,.286-.737.834.834,0,0,1,.964.218l25.2,35.556,1.447-37.729a.657.657,0,0,1,.732-.527C228.594,267.8,228.9,268.053,228.891,268.354Z" transform="translate(-199.483 -267.795)" fill="#003d3c"/>
            </g>
          </g>
          <g id="Grupo_1113833" data-name="Grupo 1113833" transform="translate(44.564)">
            <g id="Grupo_1113831" data-name="Grupo 1113831">
              <path id="Trazado_906807" data-name="Trazado 906807" d="M118.693,291.377l-1.9.068-1.433.052-4.458.16s-23.451-31.964-17-44.82c5.027-10.025,20.707-12.191,24.485,2S118.693,291.377,118.693,291.377Z" transform="translate(-92.78 -238.756)" fill="#005454"/>
            </g>
            <g id="Grupo_1113832" data-name="Grupo 1113832" transform="translate(12.974 11.636)">
              <path id="Trazado_906808" data-name="Trazado 906808" d="M130.671,303.888l-1.433.052-9.6-40.464c-.072-.295.186-.579.572-.632a.72.72,0,0,1,.827.438Z" transform="translate(-119.628 -262.835)" fill="#003d3c"/>
            </g>
          </g>
          <g id="Grupo_1113836" data-name="Grupo 1113836" transform="translate(66.347 6.646)">
            <g id="Grupo_1113834" data-name="Grupo 1113834">
              <path id="Trazado_906809" data-name="Trazado 906809" d="M154.722,297.761s-3.249.568-6.907.9c-.622.056-1.256.105-1.887.144-.82.049-1.636.081-2.418.086-.495,0-.977,0-1.435-.025-2.089-.093-3.737-.453-4.219-1.285,0,0,.768-45.312,15.287-45.07,14.194.237-2.78,32-3.543,33.419.676-1.169,13.73-23.4,26.767-18.222C189.756,273.02,154.722,297.761,154.722,297.761Z" transform="translate(-137.857 -252.508)" fill="#00666c"/>
            </g>
            <g id="Grupo_1113835" data-name="Grupo 1113835" transform="translate(4.219 9.751)">
              <path id="Trazado_906810" data-name="Trazado 906810" d="M155.723,273.319l-7.7,36c-.495,0-.977,0-1.435-.025l7.73-36.15a.715.715,0,0,1,.817-.448C155.522,272.743,155.786,273.022,155.723,273.319Z" transform="translate(-146.588 -272.687)" fill="#005454"/>
              <path id="Trazado_906811" data-name="Trazado 906811" d="M177.415,300.939l-20.969,22.3c-.622.056-1.256.105-1.887.144l21.7-23.082a.859.859,0,0,1,.992-.125A.467.467,0,0,1,177.415,300.939Z" transform="translate(-150.708 -286.842)" fill="#005454"/>
            </g>
          </g>
          <g id="Grupo_1113841" data-name="Grupo 1113841" transform="translate(0 13.789)">
            <g id="Grupo_1113837" data-name="Grupo 1113837" transform="translate(0 15.305)">
              <path id="Trazado_906812" data-name="Trazado 906812" d="M.56,298.963v22.456c6.679,5.026,12.4,8.6,12.4,8.6l5.169-2.068S10.214,309.849.56,298.963Z" transform="translate(-0.56 -298.963)" fill="#003d3c"/>
            </g>
            <g id="Grupo_1113840" data-name="Grupo 1113840">
              <g id="Grupo_1113838" data-name="Grupo 1113838">
                <path id="Trazado_906813" data-name="Trazado 906813" d="M22.773,309.7l-1.941.28-1.406.2-2.386.344S6.2,298.155.559,286.622v-17.79a8.721,8.721,0,0,1,1.073-.562C21.008,259.746,22.773,309.7,22.773,309.7Z" transform="translate(-0.559 -267.291)" fill="#005454"/>
              </g>
              <g id="Grupo_1113839" data-name="Grupo 1113839" transform="translate(6.151 11.321)">
                <path id="Trazado_906814" data-name="Trazado 906814" d="M27.41,322.086l-1.406.2L13.32,291.427c-.117-.287.091-.592.466-.682a.77.77,0,0,1,.892.355Z" transform="translate(-13.288 -290.72)" fill="#003d3c"/>
              </g>
            </g>
          </g>
          <g id="Grupo_1113844" data-name="Grupo 1113844" transform="translate(6.276 2.006)">
            <g id="Grupo_1113842" data-name="Grupo 1113842">
              <path id="Trazado_906815" data-name="Trazado 906815" d="M56.87,294.106l-4.129.11-2.83.075-4.407.117S2.823,255.246,16.112,246.921c13.174-8.254,30.861,35.194,31.164,35.939-.191-.747-10.922-42.741,5.687-39.805C69.72,246.018,56.87,294.106,56.87,294.106Z" transform="translate(-13.547 -242.908)" fill="#00666c"/>
            </g>
            <g id="Grupo_1113843" data-name="Grupo 1113843" transform="translate(11.238 12.842)">
              <path id="Trazado_906816" data-name="Trazado 906816" d="M66.212,270.042l-1.454,37.907-2.83.075L36.889,272.7a.486.486,0,0,1,.286-.737.831.831,0,0,1,.964.219l25.2,35.555,1.448-37.728a.658.658,0,0,1,.732-.528C65.915,269.491,66.223,269.742,66.212,270.042Z" transform="translate(-36.803 -269.483)" fill="#005454"/>
            </g>
          </g>
          <g id="Grupo_1113849" data-name="Grupo 1113849" transform="translate(293.552 13.789)">
            <g id="Grupo_1113845" data-name="Grupo 1113845" transform="translate(4.646 15.305)">
              <path id="Trazado_906817" data-name="Trazado 906817" d="M635.215,298.963v22.456c-6.679,5.026-12.4,8.6-12.4,8.6l-5.169-2.068S625.561,309.849,635.215,298.963Z" transform="translate(-617.649 -298.963)" fill="#003d3c"/>
            </g>
            <g id="Grupo_1113848" data-name="Grupo 1113848">
              <g id="Grupo_1113846" data-name="Grupo 1113846">
                <path id="Trazado_906818" data-name="Trazado 906818" d="M630.246,268.832v17.79c-5.638,11.532-16.481,23.9-16.481,23.9l-2.385-.344-1.408-.2-1.939-.279s1.765-49.953,21.14-41.429A8.537,8.537,0,0,1,630.246,268.832Z" transform="translate(-608.034 -267.291)" fill="#005454"/>
              </g>
              <g id="Grupo_1113847" data-name="Grupo 1113847" transform="translate(1.939 11.321)">
                <path id="Trazado_906819" data-name="Trazado 906819" d="M626.136,291.427l-12.682,30.862-1.408-.2L624.779,291.1a.77.77,0,0,1,.891-.355C626.046,290.835,626.253,291.14,626.136,291.427Z" transform="translate(-612.046 -290.72)" fill="#003d3c"/>
              </g>
            </g>
          </g>
          <g id="Grupo_1113852" data-name="Grupo 1113852" transform="translate(261.458 2.006)">
            <g id="Grupo_1113850" data-name="Grupo 1113850">
              <path id="Trazado_906820" data-name="Trazado 906820" d="M557.692,294.408l-4.405-.117-2.832-.075-4.129-.11s-12.85-48.088,3.908-51.052c16.608-2.936,5.878,39.058,5.687,39.805.3-.746,17.988-44.193,31.164-35.939C600.374,255.246,557.692,294.408,557.692,294.408Z" transform="translate(-541.618 -242.908)" fill="#00666c"/>
            </g>
            <g id="Grupo_1113851" data-name="Grupo 1113851" transform="translate(7.383 12.842)">
              <path id="Trazado_906821" data-name="Trazado 906821" d="M586.22,272.7l-25.038,35.322-2.832-.075L556.9,270.042c-.011-.3.3-.551.691-.559a.657.657,0,0,1,.732.528l1.448,37.728,25.2-35.555a.832.832,0,0,1,.964-.219A.485.485,0,0,1,586.22,272.7Z" transform="translate(-556.896 -269.483)" fill="#005454"/>
            </g>
          </g>
          <g id="Grupo_1113855" data-name="Grupo 1113855" transform="translate(150.257 1.302)">
            <g id="Grupo_1113853" data-name="Grupo 1113853">
              <path id="Trazado_906822" data-name="Trazado 906822" d="M330.36,292.585l-4.407.091-2.832.059-4.131.085s-16.705-47.391-.22-51.139c16.363-3.718,9,38.825,8.887,39.464.2-.638,14.37-44.969,28.206-37.343C369.8,251.483,330.36,292.585,330.36,292.585Z" transform="translate(-311.5 -241.451)" fill="#00666c"/>
            </g>
            <g id="Grupo_1113854" data-name="Grupo 1113854" transform="translate(7.108 12.924)">
              <path id="Trazado_906823" data-name="Trazado 906823" d="M355.693,270.061,333.553,306.5l-2.832.059-4.51-37.767c-.036-.3.253-.563.643-.591a.684.684,0,0,1,.773.493l4.489,37.588L354.4,269.6a.815.815,0,0,1,.945-.265C355.7,269.465,355.859,269.788,355.693,270.061Z" transform="translate(-326.209 -268.196)" fill="#005454"/>
            </g>
          </g>
          <g id="Grupo_1113858" data-name="Grupo 1113858" transform="translate(216.901 6.849)">
            <g id="Grupo_1113856" data-name="Grupo 1113856">
              <path id="Trazado_906824" data-name="Trazado 906824" d="M485.83,304.291l-4.116-.273-2.823-.187-4.393-.292s-36.161-42.827-21.65-49.86c14.4-6.981,25.086,37.912,25.24,38.563-.06-.641-4.091-43.446,11.952-38.987C506.2,257.747,485.83,304.291,485.83,304.291Z" transform="translate(-449.413 -252.929)" fill="#00666c"/>
            </g>
            <g id="Grupo_1113857" data-name="Grupo 1113857" transform="translate(10.171 12.777)">
              <path id="Trazado_906825" data-name="Trazado 906825" d="M500.038,280.188l-7.449,37.494-2.823-.187L470.51,280.112c-.144-.28.036-.6.4-.705a.8.8,0,0,1,.923.307l19.384,37.627,7.414-37.317a.71.71,0,0,1,.81-.456C499.832,279.614,500.1,279.891,500.038,280.188Z" transform="translate(-470.46 -279.369)" fill="#005454"/>
            </g>
          </g>
        </g>
        <g id="Grupo_1113871" data-name="Grupo 1113871" transform="translate(0 148.863)">
          <g id="Grupo_1113860" data-name="Grupo 1113860">
            <path id="Trazado_906826" data-name="Trazado 906826" d="M316.034,345.883v67.842H0V344.751C105.451,328.806,208.031,329.127,316.034,345.883Z" transform="translate(0 -333.048)" fill="#008985"/>
          </g>
          <path id="Trazado_906827" data-name="Trazado 906827" d="M488.16,448.233S475.838,437.288,480,435.7s9.7,10.172,9.7,10.172.4-9.056,5.821-9.579-3.458,12.158-3.458,12.158Z" transform="translate(-247.603 -386.018)" fill="#00666c"/>
          <path id="Trazado_906828" data-name="Trazado 906828" d="M86.451,418.1s-12.322-10.945-8.164-12.535,9.7,10.172,9.7,10.172.4-9.056,5.821-9.579-3.467,11.64-3.467,11.64Z" transform="translate(-40.013 -370.448)" fill="#00666c"/>
          <path id="Trazado_906829" data-name="Trazado 906829" d="M539.237,419.384s-12.322-10.946-8.164-12.535,9.7,10.172,9.7,10.172.4-9.056,5.82-9.58-3.458,12.159-3.458,12.159Z" transform="translate(-273.998 -371.11)" fill="#00666c"/>
          <path id="Trazado_906830" data-name="Trazado 906830" d="M209.307,476.08s-12.322-10.946-8.164-12.535,9.7,10.172,9.7,10.172.4-9.056,5.821-9.579-2.25,11.5-2.25,11.5Z" transform="translate(-103.501 -400.408)" fill="#00666c"/>
          <path id="Trazado_906831" data-name="Trazado 906831" d="M105.019,356.321S92.7,345.375,96.855,343.786s9.7,10.172,9.7,10.172.4-9.056,5.821-9.58-2.25,11.505-2.25,11.505Z" transform="translate(-49.608 -338.521)" fill="#00666c"/>
          <path id="Trazado_906832" data-name="Trazado 906832" d="M465.7,382.934s-11.731-10.408-7.574-12,9.7,10.172,9.7,10.172.4-9.056,5.821-9.58-2.49,11.942-2.49,11.942Z" transform="translate(-236.284 -352.551)" fill="#00666c"/>
          <path id="Trazado_906833" data-name="Trazado 906833" d="M541.812,358.029s12.685-11.405,8.528-12.995-9.7,10.172-9.7,10.172-.4-9.056-5.821-9.579,2.49,11.942,2.49,11.942Z" transform="translate(-275.395 -339.166)" fill="#00666c"/>
          <path id="Trazado_906834" data-name="Trazado 906834" d="M353.969,376.81s12.685-11.405,8.527-12.995-9.7,10.172-9.7,10.172-.4-9.056-5.821-9.579,2.668,12.4,2.668,12.4Z" transform="translate(-178.339 -348.871)" fill="#00666c"/>
          <path id="Trazado_906835" data-name="Trazado 906835" d="M369.923,474.625s-11.313-10.945-7.155-12.535,9.7,10.172,9.7,10.172.4-9.056,5.82-9.579-2.49,11.942-2.49,11.942Z" transform="translate(-186.992 -399.656)" fill="#00666c"/>
          <g id="Grupo_1113862" data-name="Grupo 1113862" transform="translate(0 12.787)">
            <g id="Grupo_1113861" data-name="Grupo 1113861">
              <path id="Trazado_906836" data-name="Trazado 906836" d="M316.034,371.649v.986a1098.815,1098.815,0,0,0-161.419-12.115A1066.26,1066.26,0,0,0,0,371.856v-.983c26.1-3.807,52.348-6.686,78.062-8.564,26.6-1.944,53.568-2.881,80.137-2.794,26.589.091,53.716,1.215,80.625,3.344C264.135,364.86,290.086,367.815,316.034,371.649Z" transform="translate(0 -359.508)" fill="#00666c"/>
            </g>
          </g>
          <g id="Grupo_1113864" data-name="Grupo 1113864" transform="translate(0 58.279)">
            <g id="Grupo_1113863" data-name="Grupo 1113863">
              <path id="Trazado_906837" data-name="Trazado 906837" d="M316.034,465.792v.985a1098.951,1098.951,0,0,0-161.419-12.114A1066.155,1066.155,0,0,0,0,466v-.984c26.1-3.805,52.348-6.686,78.062-8.564,26.6-1.944,53.568-2.883,80.137-2.793,26.589.09,53.716,1.215,80.625,3.342C264.135,459,290.086,461.957,316.034,465.792Z" transform="translate(0 -453.651)" fill="#00666c"/>
            </g>
          </g>
          <g id="Grupo_1113866" data-name="Grupo 1113866" transform="translate(36.458 74.016)">
            <g id="Grupo_1113865" data-name="Grupo 1113865">
              <path id="Trazado_906838" data-name="Trazado 906838" d="M312.629,492.877h-9.242A1078.678,1078.678,0,0,0,193.6,487.228a1057.222,1057.222,0,0,0-109.059,5.649h-9.1c13.951-1.566,27.855-2.857,41.6-3.862,26.6-1.943,53.568-2.882,80.137-2.793,26.589.09,53.716,1.215,80.625,3.343Q295.053,490.93,312.629,492.877Z" transform="translate(-75.445 -486.216)" fill="#00666c"/>
            </g>
          </g>
          <g id="Grupo_1113868" data-name="Grupo 1113868" transform="translate(0 41.824)">
            <g id="Grupo_1113867" data-name="Grupo 1113867">
              <path id="Trazado_906839" data-name="Trazado 906839" d="M316.034,431.739v.986A1098.816,1098.816,0,0,0,154.615,420.61,1066.285,1066.285,0,0,0,0,431.946v-.983c26.1-3.807,52.348-6.686,78.062-8.564,26.6-1.944,53.568-2.886,80.137-2.793,26.589.09,53.716,1.214,80.625,3.343C264.135,424.95,290.086,427.905,316.034,431.739Z" transform="translate(0 -419.599)" fill="#00666c"/>
            </g>
          </g>
          <g id="Grupo_1113870" data-name="Grupo 1113870" transform="translate(0 27.305)">
            <g id="Grupo_1113869" data-name="Grupo 1113869">
              <path id="Trazado_906840" data-name="Trazado 906840" d="M316.034,401.694v.986a1098.825,1098.825,0,0,0-161.419-12.115A1066.289,1066.289,0,0,0,0,401.9v-.983c26.1-3.807,52.348-6.686,78.062-8.565,26.6-1.943,53.568-2.883,80.137-2.793,26.589.091,53.716,1.215,80.625,3.344C264.135,394.9,290.086,397.86,316.034,401.694Z" transform="translate(0 -389.553)" fill="#00666c"/>
            </g>
          </g>
          <path id="Trazado_906841" data-name="Trazado 906841" d="M167.672,382.347s-12.322-10.945-8.164-12.535,9.7,10.172,9.7,10.172.4-9.056,5.821-9.579-2.25,11.505-2.25,11.505Z" transform="translate(-81.985 -351.97)" fill="#00666c"/>
          <path id="Trazado_906842" data-name="Trazado 906842" d="M233.071,349.833s-11.568-10.275-7.665-11.768,9.108,9.55,9.108,9.55.376-8.5,5.464-8.993-2.113,10.8-2.113,10.8Z" transform="translate(-116.067 -335.569)" fill="#00666c"/>
        </g>
        <g id="Grupo_1114036" data-name="Grupo 1114036" transform="translate(54.22 26.807)">
          <g id="Grupo_1113873" data-name="Grupo 1113873" transform="translate(0 163.335)">
            <g id="Grupo_1113872" data-name="Grupo 1113872">
              <path id="Trazado_906843" data-name="Trazado 906843" d="M183.532,418.7c-6.59-.675-14.954.273-22.136,1.426-2.328.374-6.775,1.766-13.485,2.095-17.177.84-35.927-.8-35.705,5.162s12.768,5.209,35.212,3.8c20.6-1.3,24.57-3.317,45.984-1.165s39.639-1,30.971-6.02-27.113-3.587-38.447-5.021Q184.7,418.814,183.532,418.7Z" transform="translate(-112.203 -418.47)" fill="#00666c"/>
            </g>
          </g>
          <g id="Grupo_1114035" data-name="Grupo 1114035" transform="translate(11.569)">
            <g id="Grupo_1113874" data-name="Grupo 1113874" transform="translate(45.031 6.125)">
              <path id="Trazado_906844" data-name="Trazado 906844" d="M229.336,99.335c-.288,4.2,9.638,8.3,22.171,9.159s22.928-1.839,23.217-6.035-9.638-8.3-22.171-9.159S229.625,95.14,229.336,99.335Z" transform="translate(-229.33 -93.14)" fill="#f2b34d"/>
            </g>
            <g id="Grupo_1113883" data-name="Grupo 1113883" transform="translate(46.08 97.219)">
              <g id="Grupo_1113882" data-name="Grupo 1113882">
                <g id="Grupo_1113881" data-name="Grupo 1113881">
                  <g id="Grupo_1113876" data-name="Grupo 1113876">
                    <g id="Grupo_1113875" data-name="Grupo 1113875">
                      <path id="Trazado_906845" data-name="Trazado 906845" d="M234.729,304.088S280.2,314.965,289,304.05c5.227-6.488-33.236-21.472-41.554-22.24C221.887,279.451,234.729,304.088,234.729,304.088Z" transform="translate(-231.502 -281.651)" fill="#1e1c18"/>
                    </g>
                  </g>
                  <g id="Grupo_1113878" data-name="Grupo 1113878" transform="translate(27.48 22.075)">
                    <g id="Grupo_1113877" data-name="Grupo 1113877">
                      <path id="Trazado_906846" data-name="Trazado 906846" d="M297.8,332.413c1.074-.69,3.383-1.711,4.063-2.228a22.432,22.432,0,0,1,4.456-2.1,35.952,35.952,0,0,1,12.069-.431c-1.882,5.29-9.134,16.506-16.091,25.773-4.642.164-9.284.36-13.922.629,0,0,.777-4.61,2.611-6.182s-.131-2.49.786-5.111,3.276-3.538,3.407-5.766A5.029,5.029,0,0,1,297.8,332.413Z" transform="translate(-288.37 -327.333)" fill="#1e1c18"/>
                    </g>
                  </g>
                  <g id="Grupo_1113879" data-name="Grupo 1113879" transform="translate(3.091 19.627)">
                    <path id="Trazado_906847" data-name="Trazado 906847" d="M264.154,354.452a.374.374,0,0,1-.1-.015.381.381,0,0,1-.261-.471c.108-.376.2-.9.3-1.508.311-1.811.736-4.291,2.156-5.568.8-.723.922-1.761,1.071-3.075a9.983,9.983,0,0,1,1.224-4.294c.484-.809.887-1.4,1.21-1.876a7.8,7.8,0,0,0,1.615-4.234c.362-2.417,3.459-4.519,5.485-5.652-13.741.782-38.394-4.682-38.654-4.74a.381.381,0,1,1,.166-.743c.272.061,27.276,6.045,40.35,4.564a.38.38,0,0,1,.2.726c-.063.028-6.321,2.821-6.791,5.958a8.544,8.544,0,0,1-1.738,4.549c-.334.492-.714,1.049-1.186,1.839a9.356,9.356,0,0,0-1.121,3.99c-.155,1.356-.3,2.638-1.319,3.554-1.223,1.1-1.623,3.43-1.915,5.131-.108.629-.2,1.173-.321,1.589A.381.381,0,0,1,264.154,354.452Z" transform="translate(-237.899 -322.267)" fill="#403f39"/>
                  </g>
                  <g id="Grupo_1113880" data-name="Grupo 1113880" transform="translate(21.222 46.503)">
                    <path id="Trazado_906848" data-name="Trazado 906848" d="M299.8,405.108l-23.458-.285a.934.934,0,0,1-.881-1.209l2.067-6.7,3.707-18.216,16.4-.3-9.246,16.969-.189.346s.681.208,1.712.53c1.545.483,3.152,1.162,5.231,2.028a23.916,23.916,0,0,1,4.567,2.28C301.5,401.7,299.8,405.108,299.8,405.108Z" transform="translate(-275.419 -378.153)" fill="#f2b34d"/>
                    <path id="Trazado_906849" data-name="Trazado 906849" d="M286.052,378.136s-.487,1.327-.783,2.55c0,0,9.166,0,16.866-.215a8.233,8.233,0,0,0,1.1-2.579S292.049,377.814,286.052,378.136Z" transform="translate(-280.509 -377.884)" fill="#cc8b28"/>
                    <path id="Trazado_906850" data-name="Trazado 906850" d="M299.094,414.4a53.041,53.041,0,0,0-5.908,1.408,13.594,13.594,0,0,1,4.385-2.284l-.189.347S298.063,414.074,299.094,414.4Z" transform="translate(-284.6 -396.3)" fill="#cc8b28"/>
                  </g>
                </g>
              </g>
            </g>
            <g id="Grupo_1113891" data-name="Grupo 1113891" transform="translate(0 96.127)">
              <g id="Grupo_1113890" data-name="Grupo 1113890">
                <g id="Grupo_1113889" data-name="Grupo 1113889">
                  <g id="Grupo_1113888" data-name="Grupo 1113888">
                    <g id="Grupo_1113885" data-name="Grupo 1113885" transform="translate(25.191 2.791)">
                      <g id="Grupo_1113884" data-name="Grupo 1113884">
                        <path id="Trazado_906851" data-name="Trazado 906851" d="M188.273,285.828s12.433,53.67,25.592,56.625c15.478,3.475,2.55-52.174-4.467-56.671C207.191,284.369,188.273,285.828,188.273,285.828Z" transform="translate(-188.273 -285.166)" fill="#1e1c18"/>
                      </g>
                    </g>
                    <path id="Trazado_906852" data-name="Trazado 906852" d="M216.026,369.384s-14.654,5.394-18.089,5.965-4.574,5.058-6.143,3.439-4.042-1.938-5.462-.732-5.991,1.435-5.991,1.435l1.6,13.083s15.342-1.057,21.4-1.555C221.965,389.486,216.026,369.384,216.026,369.384Z" transform="translate(-158.984 -325.896)" fill="#1e1c18"/>
                    <g id="Grupo_1113886" data-name="Grupo 1113886" transform="translate(24.81)">
                      <path id="Trazado_906853" data-name="Trazado 906853" d="M187.866,336.464a.381.381,0,0,1-.3-.611c.92-1.21,3.251-3.123,5.491-1.7a6.892,6.892,0,0,0,5.024,1.1,2.875,2.875,0,0,0,1.888-1.411c1.259-2.268,2.372-2.457,4.392-2.8.289-.049.6-.1.934-.164.562-.105.685-.347.725-.426.4-.79-.517-2.748-1.682-5.228-.468-1-1-2.125-1.521-3.34-2.42-5.638-11.111-32.469-12.959-42.037a.38.38,0,0,1,.747-.144c1.841,9.533,10.5,36.265,12.911,41.882.517,1.2,1.044,2.326,1.51,3.316,1.352,2.876,2.245,4.777,1.671,5.9a1.657,1.657,0,0,1-1.262.827c-.341.064-.649.116-.947.167-1.96.332-2.772.469-3.854,2.418a3.652,3.652,0,0,1-2.365,1.779,7.566,7.566,0,0,1-5.62-1.192c-2.209-1.4-4.386,1.4-4.478,1.52A.38.38,0,0,1,187.866,336.464Z" transform="translate(-187.485 -279.391)" fill="#403f39"/>
                    </g>
                    <g id="Grupo_1113887" data-name="Grupo 1113887" transform="translate(0 51.858)">
                      <path id="Trazado_906854" data-name="Trazado 906854" d="M148.983,411.151c-2.14-.069-11.171.03-11.171.03a34.821,34.821,0,0,1-1.649-8.933c-.114-5.292.311-10.059.311-10.059l25.288-5.485c2.142,5.2,3.422,15.685,3.422,15.685a103.5,103.5,0,0,1-19-2.173c-.319-.069-.638-.137-.955-.207a3.292,3.292,0,0,1,.507.8,3.94,3.94,0,0,1,.169,2.5,3.4,3.4,0,0,1-.132.43,5.5,5.5,0,0,1,.749.184C150.593,405.207,157.2,411.413,148.983,411.151Z" transform="translate(-136.144 -386.705)" fill="#f2b34d"/>
                      <path id="Trazado_906855" data-name="Trazado 906855" d="M184.409,387.2a129.124,129.124,0,0,1,3.489,15.3,3.473,3.473,0,0,0,2.228-.109A76.3,76.3,0,0,0,186.97,386.7,7.31,7.31,0,0,0,184.409,387.2Z" transform="translate(-161.086 -386.705)" fill="#cc8b28"/>
                      <path id="Trazado_906856" data-name="Trazado 906856" d="M150.866,412.874a3.291,3.291,0,0,1,.507.8c-.8-1.041-4.317-2.046-4.317-2.046,3.508-.3,4.764,1.45,4.764,1.45C151.5,413.012,151.183,412.944,150.866,412.874Z" transform="translate(-141.783 -399.569)" fill="#cc8b28"/>
                      <path id="Trazado_906857" data-name="Trazado 906857" d="M151.5,421.684a46.918,46.918,0,0,0-5.724.791c1.385-1.078,3.894-1.342,5.107-1.405a3.4,3.4,0,0,1-.132.43A5.5,5.5,0,0,1,151.5,421.684Z" transform="translate(-141.119 -404.464)" fill="#cc8b28"/>
                    </g>
                  </g>
                </g>
              </g>
            </g>
            <g id="Grupo_1113915" data-name="Grupo 1113915" transform="translate(63.409 40.551)">
              <g id="Grupo_1113892" data-name="Grupo 1113892">
                <path id="Trazado_906858" data-name="Trazado 906858" d="M267.362,179.107c.385,1.774.833,3.523,1.3,5.178.015.058.033.118.053.176.408,1.43.83,2.785,1.234,4.019.087.263.171.521.256.773q.22.649.438,1.285c.889,2.607,1.744,4.988,2.637,7.1a25.632,25.632,0,0,0,4.255,7.284,10.239,10.239,0,0,0,3.123,2.4c3.3,1.592,4.3-3.156,3.38-9.143q-.111-.731-.263-1.483l-.053-.268a36.332,36.332,0,0,0-1.682-5.687c-.325-.838-.634-1.682-.9-2.538l-5.05-16.167-.007-.025-1.663-5.321-.723-2.31-5.828,8.454-.053.157C268.486,174.514,268.05,176.816,267.362,179.107Z" transform="translate(-267.362 -164.382)" fill="#ff8b84"/>
              </g>
              <path id="Trazado_906859" data-name="Trazado 906859" d="M267.362,183.607l3.176,10.578s7.923-2.987,11.151-9.344l-7.373-18.931S268.391,176.407,267.362,183.607Z" transform="translate(-267.362 -165.172)" fill="#3877d1"/>
              <path id="Trazado_906860" data-name="Trazado 906860" d="M284.141,202.048s-5.253,6.694-11.407,8.879a5.169,5.169,0,0,0,.661,2.314s8.632-3.189,11.646-9.261A5.947,5.947,0,0,0,284.141,202.048Z" transform="translate(-270.138 -183.847)" fill="#6499ff"/>
              <g id="Grupo_1113893" data-name="Grupo 1113893" transform="translate(9.388 32.17)">
                <path id="Trazado_906861" data-name="Trazado 906861" d="M287.574,239.325c3.291,5.145,24.066,22.782,29.115,19.958,3.442-1.925-2.867-6.037-9.784-14.12-6.562-7.669-10.173-11.392-11.711-12.9-.016-.016-.032-.033-.05-.049-.534-.523-.8-.766-.85-.807l-.006,0,0,0a1.38,1.38,0,0,0-.473-.3,1.583,1.583,0,0,0-.251-.082C290.861,230.366,284.6,234.67,287.574,239.325Z" transform="translate(-286.79 -230.954)" fill="#ff8b84"/>
              </g>
              <g id="Grupo_1113894" data-name="Grupo 1113894" transform="translate(13.73 32.049)">
                <path id="Trazado_906862" data-name="Trazado 906862" d="M295.774,233.7a15.433,15.433,0,0,1,2.947-1.246c.127-.041.249-.078.366-.114l.306-.09c.16-.046.307-.083.444-.119h0c-.016-.016-.033-.033-.051-.049-.534-.523-.8-.766-.85-.807l-.006,0,0,0a1.379,1.379,0,0,0-.473-.3c-.016-.09-.035-.178-.053-.268-.067.06-.131.123-.2.187-.014.012-.027.027-.039.039A26.01,26.01,0,0,0,295.774,233.7Z" transform="translate(-295.774 -230.704)" fill="#ff5f6f"/>
              </g>
              <g id="Grupo_1113914" data-name="Grupo 1113914" transform="translate(28.265 50.073)">
                <g id="Grupo_1113896" data-name="Grupo 1113896" transform="translate(19.16 11.646)">
                  <g id="Grupo_1113895" data-name="Grupo 1113895">
                    <path id="Trazado_906863" data-name="Trazado 906863" d="M365.5,292.1l.25.182A2.948,2.948,0,0,0,365.5,292.1Z" transform="translate(-365.504 -292.104)" fill="#fbb990"/>
                  </g>
                </g>
                <g id="Grupo_1113899" data-name="Grupo 1113899" transform="translate(5.322 4.447)">
                  <g id="Grupo_1113898" data-name="Grupo 1113898">
                    <g id="Grupo_1113897" data-name="Grupo 1113897">
                      <path id="Trazado_906864" data-name="Trazado 906864" d="M338.96,277.777c-1.644,1.325-2.646,4.593-1.766,5.5a5.7,5.7,0,0,1,1.139,1.652,3.358,3.358,0,0,1,.221.641,4.692,4.692,0,0,0,.725,1.163,9.13,9.13,0,0,0,4.768,3.047c2.122.56,5.017-1.1,6.864-2.559,1.352,1.161,4.114,3.342,5.2,2.817,1.3-.627-3.938-4.554-5.159-5.45-.159-.116-.251-.182-.251-.182s.448.093,1.04.173c1.233.167,3.087.278,2.8-.624-.425-1.336-6-2.858-7.365-4.207a6,6,0,0,0-1.374-1.047l-.077-.042a.339.339,0,0,1-.035-.017C344.97,278.261,340.876,276.234,338.96,277.777Z" transform="translate(-336.868 -277.205)" fill="#ff560d"/>
                    </g>
                  </g>
                </g>
                <g id="Grupo_1113900" data-name="Grupo 1113900" transform="translate(14.365 8.274)">
                  <path id="Trazado_906865" data-name="Trazado 906865" d="M356.868,287.811a5.955,5.955,0,0,0-1.211-2.222.273.273,0,0,1,.111-.449h0a.272.272,0,0,1,.3.084,6.328,6.328,0,0,1,1.394,2.656Z" transform="translate(-355.581 -285.126)" fill="#da3313"/>
                </g>
                <g id="Grupo_1113901" data-name="Grupo 1113901" transform="translate(6.239 1.561)">
                  <path id="Trazado_906866" data-name="Trazado 906866" d="M394.043,272.137h0a1.328,1.328,0,0,0-1.3-.9l-15.974.459a2.717,2.717,0,0,0-2.5,3.584l2.134,6.329a2.717,2.717,0,0,0,4.157,1.341l12.991-9.306A1.328,1.328,0,0,0,394.043,272.137Z" transform="translate(-357.041 -271.233)" fill="#93b4c0"/>
                  <path id="Trazado_906867" data-name="Trazado 906867" d="M374.145,281.781a.783.783,0,0,1-.534.74l-5.865,1.977-3.682,1.241-4.086,1.378c-.357-.309-.752-.636-1.157-.94l-.043-.127a.169.169,0,0,1,.107-.216l4.679-1.578,3.682-1.241,5.866-1.977a.783.783,0,0,1,.992.491A.765.765,0,0,1,374.145,281.781Z" transform="translate(-349.101 -276.279)" fill="#1e1c18"/>
                  <path id="Trazado_906868" data-name="Trazado 906868" d="M343.289,294.032a1.5,1.5,0,0,0-.508-.118.816.816,0,0,0-.73.388.929.929,0,0,0-.1.218.965.965,0,0,0,.05.716,3.615,3.615,0,0,0,.92.925l.257.211-2.3.776a1.594,1.594,0,0,1-2.014-.984l-.012-.03a1.6,1.6,0,0,1,1-2.039L343.094,293l0,.012A1.207,1.207,0,0,0,343.289,294.032Z" transform="translate(-338.764 -282.482)" fill="#f2b34d"/>
                  <path id="Trazado_906869" data-name="Trazado 906869" d="M362.85,288.776a1.61,1.61,0,0,1-1.069,1.233l-2.309.779c-.207-.191-.447-.407-.708-.634-.357-.309-.752-.636-1.157-.94a11.388,11.388,0,0,0-1.187-.8l4.333-1.46a1.6,1.6,0,0,1,1.6.336,1.585,1.585,0,0,1,.443.676A1.611,1.611,0,0,1,362.85,288.776Z" transform="translate(-347.887 -279.315)" fill="#f2b34d"/>
                </g>
                <path id="Trazado_906870" data-name="Trazado 906870" d="M333.676,280.243a26.417,26.417,0,0,0-4.285-3.168l5.635-6.485a10.454,10.454,0,0,0,4.254,3.585S335.079,276.484,333.676,280.243Z" transform="translate(-327.682 -269.34)" fill="#ff560d"/>
                <path id="Trazado_906871" data-name="Trazado 906871" d="M325.854,275.01s1.2,1.417,2.116,1.384,6.528-6.1,6.528-6.1-.839-1.959-1.518-2.295C332.979,268,328.188,272.418,325.854,275.01Z" transform="translate(-325.854 -268.003)" fill="#da3313"/>
                <g id="Grupo_1113902" data-name="Grupo 1113902" transform="translate(6.787 12.169)">
                  <path id="Trazado_906872" data-name="Trazado 906872" d="M339.9,293.186a4.141,4.141,0,0,0,.221.641A3.36,3.36,0,0,0,339.9,293.186Z" transform="translate(-339.9 -293.186)" fill="#fbb990"/>
                </g>
                <g id="Grupo_1113904" data-name="Grupo 1113904" transform="translate(12.547 10.183)">
                  <g id="Grupo_1113903" data-name="Grupo 1113903">
                    <path id="Trazado_906873" data-name="Trazado 906873" d="M351.864,289.634a.86.86,0,0,1,.054-.135.836.836,0,0,1,.946-.409c1.68.24,4.866,3.441,5,3.577a.285.285,0,0,1-.4.4c-.881-.89-3.439-3.237-4.677-3.415-.285-.041-.34.068-.358.1a1.112,1.112,0,0,0,.359,1.049c.066.067.211.193.38.34a9.513,9.513,0,0,1,2.431,2.769.285.285,0,0,1-.525.22,9.141,9.141,0,0,0-2.279-2.56c-.193-.168-.332-.288-.414-.373A1.71,1.71,0,0,1,351.864,289.634Z" transform="translate(-351.819 -289.075)" fill="#da3313"/>
                  </g>
                </g>
                <g id="Grupo_1113906" data-name="Grupo 1113906" transform="translate(10.523 11.458)">
                  <g id="Grupo_1113905" data-name="Grupo 1113905">
                    <path id="Trazado_906874" data-name="Trazado 906874" d="M347.672,292.348c.009-.028.018-.055.03-.082a.915.915,0,0,1,.786-.544c1.532-.183,4.469,2.93,4.8,3.286a.285.285,0,0,1-.418.388c-1.17-1.261-3.377-3.219-4.315-3.108-.259.031-.311.155-.328.2a.631.631,0,0,0,.121.574,6.9,6.9,0,0,0,.73.7,7.082,7.082,0,0,1,1.92,2.26.285.285,0,0,1-.525.22,6.683,6.683,0,0,0-1.773-2.055,7.013,7.013,0,0,1-.8-.778A1.216,1.216,0,0,1,347.672,292.348Z" transform="translate(-347.629 -291.714)" fill="#da3313"/>
                  </g>
                </g>
                <g id="Grupo_1113908" data-name="Grupo 1113908" transform="translate(9.382 12.993)">
                  <g id="Grupo_1113907" data-name="Grupo 1113907">
                    <path id="Trazado_906875" data-name="Trazado 906875" d="M345.314,295.5a.917.917,0,0,1,.1-.218.813.813,0,0,1,.73-.388c1.165.029,3.25,2.231,3.484,2.481a.285.285,0,0,1-.416.389c-.821-.88-2.384-2.283-3.082-2.3a.242.242,0,0,0-.232.119.413.413,0,0,0-.028.368,3.54,3.54,0,0,0,.776.749,4.277,4.277,0,0,1,1.314,1.438.285.285,0,0,1-.525.22,3.933,3.933,0,0,0-1.148-1.217,3.6,3.6,0,0,1-.92-.925A.967.967,0,0,1,345.314,295.5Z" transform="translate(-345.268 -294.89)" fill="#da3313"/>
                  </g>
                </g>
                <g id="Grupo_1113913" data-name="Grupo 1113913" transform="translate(9.153 7.735)">
                  <g id="Grupo_1113912" data-name="Grupo 1113912">
                    <g id="Grupo_1113911" data-name="Grupo 1113911">
                      <g id="Grupo_1113910" data-name="Grupo 1113910">
                        <g id="Grupo_1113909" data-name="Grupo 1113909">
                          <path id="Trazado_906876" data-name="Trazado 906876" d="M344.848,284.113a.255.255,0,0,1,.412,0,5.86,5.86,0,0,0,2.778,2.146l.016,0a.285.285,0,0,1,.189.355h0a.286.286,0,0,1-.355.189,6.5,6.5,0,0,1-3.043-2.392.253.253,0,0,1,0-.3Z" transform="translate(-344.796 -284.009)" fill="#da3313"/>
                        </g>
                      </g>
                    </g>
                  </g>
                </g>
              </g>
            </g>
            <g id="Grupo_1113929" data-name="Grupo 1113929" transform="translate(17.245 17.217)">
              <g id="Grupo_1113922" data-name="Grupo 1113922">
                <g id="Grupo_1113918" data-name="Grupo 1113918" transform="translate(11.978)">
                  <g id="Grupo_1113916" data-name="Grupo 1113916">
                    <path id="Trazado_906877" data-name="Trazado 906877" d="M205.385,132.374l-.965.39-.62.25-.9.365s-8.8-12.341-5.558-14.785c3.215-2.421,6.166,10.461,6.218,10.691-.028-.24-1.659-14.2,2.219-13.132C209.684,117.229,205.385,132.374,205.385,132.374Z" transform="translate(-196.618 -116.095)" fill="#00666c"/>
                  </g>
                  <g id="Grupo_1113917" data-name="Grupo 1113917" transform="translate(2.098 4.118)">
                    <path id="Trazado_906878" data-name="Trazado 906878" d="M207.637,124.8l-.974,12.37-.62.25-5.067-10.56a.168.168,0,1,1,.3-.145l5.043,10.51.98-12.452a.168.168,0,0,1,.335.027Z" transform="translate(-200.959 -124.616)" fill="#005454"/>
                  </g>
                </g>
                <g id="Grupo_1113921" data-name="Grupo 1113921" transform="translate(21.066 2.583)">
                  <g id="Grupo_1113919" data-name="Grupo 1113919">
                    <path id="Trazado_906879" data-name="Trazado 906879" d="M215.425,136.42l.721.75.464.482.677.7s13.081-7.66,11.12-11.217c-1.944-3.524-9.906,7.023-10.047,7.211.123-.207,7.323-12.277,3.348-12.89C217.7,120.84,215.425,136.42,215.425,136.42Z" transform="translate(-215.425 -121.441)" fill="#00666c"/>
                  </g>
                  <g id="Grupo_1113920" data-name="Grupo 1113920" transform="translate(0.721 3.931)">
                    <path id="Trazado_906880" data-name="Trazado 906880" d="M221.09,129.687l-4.172,11.686.464.482,8.944-7.563a.168.168,0,1,0-.217-.257l-8.9,7.527,4.2-11.763a.168.168,0,1,0-.316-.113Z" transform="translate(-216.918 -129.576)" fill="#005454"/>
                  </g>
                </g>
                <path id="Trazado_906881" data-name="Trazado 906881" d="M210.206,144.21s-5.026,33.747-30.022,38.191a9.736,9.736,0,0,1-2.153-.685c-2.941-1.288-7.652-4.823-5.768-13.993,2.67-13.008,12.869-28.063,12.869-28.063s5.6,1.008,12.062,2.178C201.636,142.643,206.486,143.525,210.206,144.21Z" transform="translate(-171.831 -128.272)" fill="#f2b34d"/>
                <path id="Trazado_906882" data-name="Trazado 906882" d="M216.837,146.539s-5.026,33.747-30.022,38.191a9.737,9.737,0,0,1-2.153-.685c.966-7.079,3.945-23.83,8.742-31.811a17.3,17.3,0,0,1,10.421-8.067C208.267,144.972,213.116,145.854,216.837,146.539Z" transform="translate(-178.462 -130.602)" fill="#cc8b28"/>
              </g>
              <g id="Grupo_1113923" data-name="Grupo 1113923" transform="translate(6.399 14.521)">
                <path id="Trazado_906883" data-name="Trazado 906883" d="M186.62,213.987a84.739,84.739,0,0,0,25.58,1.507c1.827-.184,3.685-.447,5.551-.8a51.745,51.745,0,0,0,9.342-2.669s-3.23-20.133-.6-31.659,6.32-18.474,6.01-22.71-7.074-9.469-7.074-9.469l-8.483-1.8s-12.6-1.508-18.384,3.034c-.985.773-2.145,2.58-3.368,5.147-.586,1.225-1.186,2.623-1.79,4.164-.483,1.237-.971,2.568-1.453,3.973-.069.2-.138.4-.206.607q-.575,1.7-1.137,3.527-.291.955-.581,1.941c-.027.092-.055.186-.081.279-1.421,4.916-2.725,10.352-3.73,15.839A80.3,80.3,0,0,0,186.62,213.987Z" transform="translate(-185.074 -146.144)" fill="#6499ff"/>
              </g>
              <g id="Grupo_1113924" data-name="Grupo 1113924" transform="translate(33.565 28.807)">
                <path id="Trazado_906884" data-name="Trazado 906884" d="M241.608,185.428a.317.317,0,0,1-.066-.627c.1-.021,9.995-2.217,12.553-8.89a.317.317,0,0,1,.592.227c-1.113,2.9-3.721,5.431-7.542,7.307a26.1,26.1,0,0,1-5.47,1.975A.322.322,0,0,1,241.608,185.428Z" transform="translate(-241.291 -175.708)" fill="#3877d1"/>
              </g>
              <g id="Grupo_1113925" data-name="Grupo 1113925" transform="translate(36.189 19.996)">
                <path id="Trazado_906885" data-name="Trazado 906885" d="M253.337,160.748a8.426,8.426,0,0,1-3.009-.583,11.467,11.467,0,0,1-3.508-2.143.317.317,0,0,1,.437-.46,11.041,11.041,0,0,0,3.316,2.017,6.9,6.9,0,0,0,7.093-1.029.317.317,0,1,1,.39.5A7.547,7.547,0,0,1,253.337,160.748Z" transform="translate(-246.721 -157.475)" fill="#3877d1"/>
              </g>
              <path id="Trazado_906886" data-name="Trazado 906886" d="M207.913,206.372s-2.7,3.8-10.3,2.621-9.72-3.838-9.72-3.838-7.324,20.3-1.816,39.326c0,0,20.045,7.491,41.476-1.222a17.424,17.424,0,0,1-.781-5.7c.262-2.36,1.114-4.024.065-6.141s-2.162-4.737-1.376-7.751.415-13.323.415-13.323S212.839,208.207,207.913,206.372Z" transform="translate(-178.133 -162.118)" fill="#1e1c18"/>
              <g id="Grupo_1113926" data-name="Grupo 1113926" transform="translate(6.185 14.143)">
                <path id="Trazado_906887" data-name="Trazado 906887" d="M234.361,145.826s4.285,18.726-.9,29.647a3.872,3.872,0,0,0,3.218.978s4.744-11.986.349-30.711C237.025,145.74,235.209,144.834,234.361,145.826Z" transform="translate(-209.863 -145.361)" fill="#1e1c18"/>
                <path id="Trazado_906888" data-name="Trazado 906888" d="M268.145,152.556s1.7,18.925-2.846,30.391l2.578.218a52.683,52.683,0,0,0,2.513-28.432S269.838,152.544,268.145,152.556Z" transform="translate(-226.318 -149.079)" fill="#1e1c18"/>
                <path id="Trazado_906889" data-name="Trazado 906889" d="M185.986,189.636s26.508-8.311,42.376-34.316c0,0,2.252,1.041,2.252,3.172,0,0-14.4,24.392-45.652,35.508C184.962,194,183.741,191.288,185.986,189.636Z" transform="translate(-184.631 -150.508)" fill="#f2b34d"/>
              </g>
              <g id="Grupo_1113927" data-name="Grupo 1113927" transform="translate(13.3 68.083)">
                <path id="Trazado_906890" data-name="Trazado 906890" d="M210.5,261.925c-.214,0-.424,0-.632,0a60.376,60.376,0,0,1-10.145-.97.459.459,0,0,1,.184-.9,59.379,59.379,0,0,0,9.989.952c5.1.056,12.272-.58,17.451-3.945a.459.459,0,0,1,.5.769C222.682,261.182,215.681,261.925,210.5,261.925Z" transform="translate(-199.355 -256.985)" fill="#403f39"/>
              </g>
              <g id="Grupo_1113928" data-name="Grupo 1113928" transform="translate(23.871 71.618)">
                <path id="Trazado_906891" data-name="Trazado 906891" d="M222.866,272.55q-.594,0-1.2-.034a.459.459,0,1,1,.052-.916,22.264,22.264,0,0,0,12.726-3.337,23.334,23.334,0,0,0,4.816-3.809.459.459,0,1,1,.683.612,23.744,23.744,0,0,1-5,3.964A23.412,23.412,0,0,1,222.866,272.55Z" transform="translate(-221.231 -264.301)" fill="#403f39"/>
              </g>
              <path id="Trazado_906892" data-name="Trazado 906892" d="M239.36,220.847s6.372,1.436,11.645,2.03c0,0,.5,12.526-7.187,11.984S239.36,220.847,239.36,220.847Z" transform="translate(-206.38 -170.227)" fill="#403f39"/>
              <path id="Trazado_906893" data-name="Trazado 906893" d="M199.3,171.688c.436,4.746,1.4,11.508,3.414,13.758,3.225,3.6,4.637-11.759,4.637-11.759l-3.53-9.9a2,2,0,0,0-1.278-.236c-.586,1.225-1.186,2.623-1.79,4.164C200.273,168.952,199.786,170.283,199.3,171.688Z" transform="translate(-186.028 -140.61)" fill="#3877d1"/>
            </g>
            <g id="Grupo_1113936" data-name="Grupo 1113936" transform="translate(60.674 36.357)">
              <g id="Grupo_1113935" data-name="Grupo 1113935">
                <g id="Grupo_1113934" data-name="Grupo 1113934">
                  <g id="Grupo_1113933" data-name="Grupo 1113933">
                    <g id="Grupo_1113932" data-name="Grupo 1113932">
                      <g id="Grupo_1113931" data-name="Grupo 1113931">
                        <g id="Grupo_1113930" data-name="Grupo 1113930">
                          <path id="Trazado_906894" data-name="Trazado 906894" d="M261.7,155.7h0s0,0,0,.007Z" transform="translate(-261.703 -155.702)" fill="#000c1c"/>
                        </g>
                      </g>
                    </g>
                  </g>
                </g>
              </g>
            </g>
            <g id="Grupo_1113996" data-name="Grupo 1113996" transform="translate(53.792 6.014)">
              <path id="Trazado_906895" data-name="Trazado 906895" d="M252.687,101.023s-3.771.21-4.24,1.9c-.546,1.966.655,1.933.655,1.933s-1.736.808-1.638,2.222a1.335,1.335,0,0,0,1.243,1.42s-1.778,1.449-.9,3.3c1.266,2.687,3.988,1.239,3.988,1.239S253.422,102.658,252.687,101.023Z" transform="translate(-247.461 -97.103)" fill="#000c1c"/>
              <g id="Grupo_1113941" data-name="Grupo 1113941" transform="translate(0.343 15.46)">
                <g id="Grupo_1113938" data-name="Grupo 1113938">
                  <g id="Grupo_1113937" data-name="Grupo 1113937">
                    <path id="Trazado_906896" data-name="Trazado 906896" d="M248.171,136c1.988,4.961,9.1,4.961,9.1,4.961l2.746-10.473-7.4-4.811-1.19-.772Z" transform="translate(-248.171 -124.904)" fill="#ff8b84"/>
                  </g>
                </g>
                <g id="Grupo_1113940" data-name="Grupo 1113940" transform="translate(4.431 0.772)">
                  <g id="Grupo_1113939" data-name="Grupo 1113939">
                    <path id="Trazado_906897" data-name="Trazado 906897" d="M257.347,126.5s-.439,9.271,5.513,12.022l1.891-7.211Z" transform="translate(-257.34 -126.502)" fill="#000c1c"/>
                  </g>
                </g>
              </g>
              <g id="Grupo_1113945" data-name="Grupo 1113945" transform="translate(17.415 11.306)">
                <g id="Grupo_1113944" data-name="Grupo 1113944">
                  <g id="Grupo_1113943" data-name="Grupo 1113943">
                    <g id="Grupo_1113942" data-name="Grupo 1113942">
                      <path id="Trazado_906898" data-name="Trazado 906898" d="M286.375,116.393s2.857-.8,3.169,2.495-3.46,6.3-6.044,4.888C283.5,123.776,284.843,117.6,286.375,116.393Z" transform="translate(-283.5 -116.307)" fill="#ff5f6f"/>
                    </g>
                  </g>
                </g>
              </g>
              <g id="Grupo_1113949" data-name="Grupo 1113949" transform="translate(3.092)">
                <g id="Grupo_1113948" data-name="Grupo 1113948">
                  <g id="Grupo_1113947" data-name="Grupo 1113947">
                    <g id="Grupo_1113946" data-name="Grupo 1113946">
                      <path id="Trazado_906899" data-name="Trazado 906899" d="M274.24,103.341c-.985,4.958-3.256,12.881-8.032,15.883-5.66,3.555-11.033-5.081-12.142-12.152h0c-.063-.4-.114-.8-.149-1.2a11.161,11.161,0,0,1,.249-3.873c.109-.393.216-.769.326-1.128q.185-.61.371-1.158c.081-.24.164-.471.247-.693a17.06,17.06,0,0,1,.979-2.209,6.943,6.943,0,0,1,2.489-2.78,8.514,8.514,0,0,1,3.262-1.049,16.233,16.233,0,0,1,7.6,1.376,8.022,8.022,0,0,1,4.8,8.98Z" transform="translate(-253.859 -92.911)" fill="#ff8b84"/>
                    </g>
                  </g>
                </g>
              </g>
              <g id="Grupo_1113950" data-name="Grupo 1113950" transform="translate(22.645 5.128)">
                <path id="Trazado_906900" data-name="Trazado 906900" d="M294.323,103.99a3.267,3.267,0,0,1,.757,2.815c-.323,1.748-.192,2.67.944,2.34s.605-4.32-1.641-5.623Z" transform="translate(-294.323 -103.522)" fill="#000c1c"/>
                <path id="Trazado_906901" data-name="Trazado 906901" d="M296.937,111.751s.166,2.551-.62,3.334-1.3.214-1.3.214l.534-2.516Z" transform="translate(-294.683 -107.774)" fill="#000c1c"/>
              </g>
              <path id="Trazado_906902" data-name="Trazado 906902" d="M274.428,98.619c-1-.561-2.338.937-3.07.937-.917,0-1.529-1.619-2.839-2.144a2.668,2.668,0,0,0-1.268-.122,2.977,2.977,0,0,0-2.378,1.832,1.9,1.9,0,0,1-1.309,1.126,4.279,4.279,0,0,0-2.417,2.039,2.535,2.535,0,0,1-4.1.276,6.644,6.644,0,0,0-1.873-1.69q.185-.61.371-1.158c.081-.24.164-.471.247-.693a17.054,17.054,0,0,1,.979-2.209,6.942,6.942,0,0,1,2.489-2.78,8.514,8.514,0,0,1,3.262-1.049,16.232,16.232,0,0,1,7.6,1.376A8,8,0,0,1,274.428,98.619Z" transform="translate(-251.446 -92.911)" fill="#000c1c"/>
              <g id="Grupo_1113953" data-name="Grupo 1113953" transform="translate(3.152 12.964)">
                <g id="Grupo_1113952" data-name="Grupo 1113952">
                  <g id="Grupo_1113951" data-name="Grupo 1113951">
                    <path id="Trazado_906903" data-name="Trazado 906903" d="M253.983,119.738c.035.392.086.791.149,1.2v0a5.791,5.791,0,0,0,2.594,1.656c.073.021.12.032.134.035a.3.3,0,0,0,.129-.588c-.01,0-.047-.011-.1-.028A5.231,5.231,0,0,1,253.983,119.738Z" transform="translate(-253.983 -119.738)" fill="#ff5f6f"/>
                  </g>
                </g>
              </g>
              <g id="Grupo_1113970" data-name="Grupo 1113970" transform="translate(2.331 6.645)">
                <g id="Grupo_1113956" data-name="Grupo 1113956">
                  <g id="Grupo_1113955" data-name="Grupo 1113955">
                    <g id="Grupo_1113954" data-name="Grupo 1113954">
                      <path id="Trazado_906904" data-name="Trazado 906904" d="M256.621,107.37a2.327,2.327,0,0,0-3.844.859c-1.55,2.924.784,7.142,3.711,6.83C256.489,115.059,257.574,109.072,256.621,107.37Z" transform="translate(-252.284 -106.662)" fill="#ff8b84"/>
                    </g>
                  </g>
                </g>
                <g id="Grupo_1113969" data-name="Grupo 1113969" transform="translate(1.155 1.765)">
                  <g id="Grupo_1113962" data-name="Grupo 1113962" transform="translate(0.77)">
                    <g id="Grupo_1113961" data-name="Grupo 1113961">
                      <g id="Grupo_1113960" data-name="Grupo 1113960">
                        <g id="Grupo_1113959" data-name="Grupo 1113959">
                          <g id="Grupo_1113958" data-name="Grupo 1113958">
                            <g id="Grupo_1113957" data-name="Grupo 1113957">
                              <path id="Trazado_906905" data-name="Trazado 906905" d="M257.515,114.566a.3.3,0,0,1-.208-.317,4.982,4.982,0,0,0-.97-3.443.3.3,0,0,1,.457-.386,5.5,5.5,0,0,1,1.108,3.891.3.3,0,0,1-.329.266A.292.292,0,0,1,257.515,114.566Z" transform="translate(-256.267 -110.315)" fill="#ff5f6f"/>
                            </g>
                          </g>
                        </g>
                      </g>
                    </g>
                  </g>
                  <g id="Grupo_1113968" data-name="Grupo 1113968" transform="translate(0 1.568)">
                    <g id="Grupo_1113967" data-name="Grupo 1113967">
                      <g id="Grupo_1113966" data-name="Grupo 1113966">
                        <g id="Grupo_1113965" data-name="Grupo 1113965">
                          <g id="Grupo_1113964" data-name="Grupo 1113964">
                            <g id="Grupo_1113963" data-name="Grupo 1113963">
                              <path id="Trazado_906906" data-name="Trazado 906906" d="M254.884,114.209a.3.3,0,0,1,.028-.578,3.335,3.335,0,0,1,1.83.134.3.3,0,0,1-.267.535,2.705,2.705,0,0,0-1.443-.083A.3.3,0,0,1,254.884,114.209Z" transform="translate(-254.674 -113.559)" fill="#ff5f6f"/>
                            </g>
                          </g>
                        </g>
                      </g>
                    </g>
                  </g>
                </g>
              </g>
              <g id="Grupo_1113975" data-name="Grupo 1113975" transform="translate(15.761 13.288)">
                <g id="Grupo_1113974" data-name="Grupo 1113974">
                  <g id="Grupo_1113973" data-name="Grupo 1113973">
                    <g id="Grupo_1113972" data-name="Grupo 1113972">
                      <g id="Grupo_1113971" data-name="Grupo 1113971">
                        <path id="Trazado_906907" data-name="Trazado 906907" d="M281.178,126.39a4.634,4.634,0,0,1-.938-.417.324.324,0,0,1,.321-.562,3.325,3.325,0,0,0,1,.4c.125-.517.45-2.95.71-5.121a.324.324,0,0,1,.643.077c-.139,1.157-.6,4.963-.78,5.374a.5.5,0,0,1-.311.282A1.147,1.147,0,0,1,281.178,126.39Z" transform="translate(-280.077 -120.409)" fill="#ff5f6f"/>
                      </g>
                    </g>
                  </g>
                </g>
              </g>
              <g id="Grupo_1113979" data-name="Grupo 1113979" transform="translate(13.114 11.951)">
                <g id="Grupo_1113978" data-name="Grupo 1113978">
                  <g id="Grupo_1113977" data-name="Grupo 1113977">
                    <g id="Grupo_1113976" data-name="Grupo 1113976">
                      <path id="Trazado_906908" data-name="Trazado 906908" d="M275.745,118.781c-.146.543-.507.917-.806.836s-.425-.585-.279-1.128.507-.917.807-.837S275.891,118.238,275.745,118.781Z" transform="translate(-274.599 -117.642)" fill="#000c1c"/>
                    </g>
                  </g>
                </g>
              </g>
              <g id="Grupo_1113983" data-name="Grupo 1113983" transform="translate(11.397 9.363)">
                <g id="Grupo_1113982" data-name="Grupo 1113982">
                  <g id="Grupo_1113981" data-name="Grupo 1113981">
                    <g id="Grupo_1113980" data-name="Grupo 1113980">
                      <path id="Trazado_906909" data-name="Trazado 906909" d="M271.3,113.761a.487.487,0,0,1-.048-.824,3.387,3.387,0,0,1,4.174.156.487.487,0,1,1-.645.729,2.428,2.428,0,0,0-2.966-.091A.487.487,0,0,1,271.3,113.761Z" transform="translate(-271.045 -112.286)" fill="#000c1c"/>
                    </g>
                  </g>
                </g>
              </g>
              <g id="Grupo_1113987" data-name="Grupo 1113987" transform="translate(19.783 13.868)">
                <g id="Grupo_1113986" data-name="Grupo 1113986">
                  <g id="Grupo_1113985" data-name="Grupo 1113985">
                    <g id="Grupo_1113984" data-name="Grupo 1113984">
                      <path id="Trazado_906910" data-name="Trazado 906910" d="M289.546,122.748c-.145.543-.506.917-.806.837s-.425-.586-.279-1.128.507-.917.807-.836S289.692,122.206,289.546,122.748Z" transform="translate(-288.4 -121.609)" fill="#000c1c"/>
                    </g>
                  </g>
                </g>
              </g>
              <g id="Grupo_1113991" data-name="Grupo 1113991" transform="translate(19.177 11.293)">
                <g id="Grupo_1113990" data-name="Grupo 1113990">
                  <g id="Grupo_1113989" data-name="Grupo 1113989">
                    <g id="Grupo_1113988" data-name="Grupo 1113988">
                      <path id="Trazado_906911" data-name="Trazado 906911" d="M287.233,117.014a.431.431,0,0,1,.259-.681,2.989,2.989,0,0,1,3.305,1.631.429.429,0,1,1-.782.355,2.142,2.142,0,0,0-2.356-1.143A.431.431,0,0,1,287.233,117.014Z" transform="translate(-287.146 -116.281)" fill="#000c1c"/>
                    </g>
                  </g>
                </g>
              </g>
              <g id="Grupo_1113993" data-name="Grupo 1113993" transform="translate(11.905 18.967)">
                <g id="Grupo_1113992" data-name="Grupo 1113992">
                  <path id="Trazado_906912" data-name="Trazado 906912" d="M277.659,134.7a18.324,18.324,0,0,1-5.562-2.542,3.8,3.8,0,0,0,2.473,3.481A2.873,2.873,0,0,0,277.659,134.7Z" transform="translate(-272.097 -132.16)" fill="#fff"/>
                </g>
              </g>
              <g id="Grupo_1113995" data-name="Grupo 1113995" transform="translate(11.573 22.191)">
                <g id="Grupo_1113994" data-name="Grupo 1113994">
                  <path id="Trazado_906913" data-name="Trazado 906913" d="M273.557,140.693a3.853,3.853,0,0,1-2.095-1.4.29.29,0,0,1,.473-.337,3.614,3.614,0,0,0,2.381,1.3.29.29,0,0,1-.05.578A4,4,0,0,1,273.557,140.693Z" transform="translate(-271.409 -138.832)" fill="#ff5f6f"/>
                </g>
              </g>
            </g>
            <g id="Grupo_1114000" data-name="Grupo 1114000" transform="translate(58.2)">
              <g id="Grupo_1113998" data-name="Grupo 1113998">
                <g id="Grupo_1113997" data-name="Grupo 1113997">
                  <path id="Trazado_906914" data-name="Trazado 906914" d="M274.88,91.608A24.136,24.136,0,0,0,257.4,90.4c-.972-1.625-1.152-2.26-.14-3.575l0-.016a8.013,8.013,0,0,1,.684-1.612,8.933,8.933,0,0,1,7.338-4.678c5.9-.528,8.546,3.027,9.652,5.42A9.882,9.882,0,0,1,275.652,88l.02.038C276.961,90.52,274.88,91.608,274.88,91.608Z" transform="translate(-256.583 -80.466)" fill="#f2b34d"/>
                </g>
              </g>
              <g id="Grupo_1113999" data-name="Grupo 1113999" transform="translate(0.683 4.54)">
                <path id="Trazado_906915" data-name="Trazado 906915" d="M276.4,92.9A120.681,120.681,0,0,0,258,91.664a8.016,8.016,0,0,1,.684-1.612,77.9,77.9,0,0,1,16.991.742,9.884,9.884,0,0,1,.711,2.065Z" transform="translate(-257.996 -89.862)" fill="#008985"/>
              </g>
            </g>
            <g id="Grupo_1114023" data-name="Grupo 1114023" transform="translate(34.652 77.211)">
              <g id="Grupo_1114005" data-name="Grupo 1114005" transform="translate(0 1.414)">
                <g id="Grupo_1114001" data-name="Grupo 1114001" transform="translate(4.281 7.069)">
                  <path id="Trazado_906916" data-name="Trazado 906916" d="M224.407,263.881c.027.141.052.285.076.431a106.41,106.41,0,0,1,1.232,11.916s-2.359-3.094-4.661-6.607c-.08-.122-.161-.245-.241-.368a40.763,40.763,0,0,1-3.637-6.578c-.057-.148-.11-.292-.156-.432a3.371,3.371,0,0,1-.236-1.988c.684-1.977,2.967-3.082,5.476-2.078C223.115,258.52,223.837,260.765,224.407,263.881Z" transform="translate(-216.712 -257.8)" fill="#ff560d"/>
                </g>
                <path id="Trazado_906917" data-name="Trazado 906917" d="M213.432,250.733s-6.868-4.26-5.364-5.713,5.955,4.4,5.955,4.4-1.425-5.137.809-6.161,1.037,7.038,1.037,7.038A1.959,1.959,0,0,1,213.432,250.733Z" transform="translate(-207.852 -243.171)" fill="#00666c"/>
                <g id="Grupo_1114002" data-name="Grupo 1114002" transform="translate(4.59 10.027)">
                  <path id="Trazado_906918" data-name="Trazado 906918" d="M221.129,264.112a.217.217,0,0,1-.188.242,7.183,7.183,0,0,0-3.435,1.485c-.057-.148-.11-.292-.156-.432a7.5,7.5,0,0,1,3.538-1.483A.216.216,0,0,1,221.129,264.112Z" transform="translate(-217.35 -263.921)" fill="#da3313"/>
                </g>
                <g id="Grupo_1114003" data-name="Grupo 1114003" transform="translate(8.327 13.151)">
                  <path id="Trazado_906919" data-name="Trazado 906919" d="M228.733,270.385c.027.141.052.285.076.431a7.835,7.835,0,0,0-3.389,1.115.217.217,0,0,1-.242-.36A8.1,8.1,0,0,1,228.733,270.385Z" transform="translate(-225.084 -270.385)" fill="#da3313"/>
                </g>
                <g id="Grupo_1114004" data-name="Grupo 1114004" transform="translate(8.383 17.314)">
                  <path id="Trazado_906920" data-name="Trazado 906920" d="M228.058,279.168a.216.216,0,0,1-.164.259,6.7,6.7,0,0,0-2.453,1.148c-.08-.122-.161-.245-.241-.368a7.145,7.145,0,0,1,2.6-1.2A.216.216,0,0,1,228.058,279.168Z" transform="translate(-225.2 -279)" fill="#da3313"/>
                </g>
              </g>
              <g id="Grupo_1114010" data-name="Grupo 1114010" transform="translate(10.018 1.425)">
                <g id="Grupo_1114006" data-name="Grupo 1114006" transform="translate(3.036 7.037)">
                  <path id="Trazado_906921" data-name="Trazado 906921" d="M242.023,264.432c0,.144.008.29.009.438a106.4,106.4,0,0,1-.607,11.963s-1.857-3.418-3.595-7.243c-.06-.133-.121-.266-.181-.4a40.782,40.782,0,0,1-2.587-7.057c-.033-.155-.064-.305-.088-.451a3.372,3.372,0,0,1,.071-2c.979-1.849,3.4-2.592,5.729-1.215C241.567,258.936,241.938,261.265,242.023,264.432Z" transform="translate(-234.867 -257.756)" fill="#ff560d"/>
                </g>
                <path id="Trazado_906922" data-name="Trazado 906922" d="M233.311,250.4s-6.135-5.262-4.426-6.467S234.1,249.2,234.1,249.2s-.621-5.294,1.743-5.964-.053,7.114-.053,7.114A1.959,1.959,0,0,1,233.311,250.4Z" transform="translate(-228.584 -243.194)" fill="#00666c"/>
                <g id="Grupo_1114007" data-name="Grupo 1114007" transform="translate(3.144 10.035)">
                  <path id="Trazado_906923" data-name="Trazado 906923" d="M239.023,264.188a.218.218,0,0,1-.223.21,7.177,7.177,0,0,0-3.622.941c-.033-.155-.064-.305-.088-.451a7.506,7.506,0,0,1,3.723-.924A.217.217,0,0,1,239.023,264.188Z" transform="translate(-235.09 -263.961)" fill="#da3313"/>
                </g>
                <g id="Grupo_1114008" data-name="Grupo 1114008" transform="translate(6.374 13.693)">
                  <path id="Trazado_906924" data-name="Trazado 906924" d="M245.594,271.55c0,.144.008.29.009.438a7.838,7.838,0,0,0-3.52.582.217.217,0,0,1-.183-.393A8.1,8.1,0,0,1,245.594,271.55Z" transform="translate(-241.775 -271.53)" fill="#da3313"/>
                </g>
                <g id="Grupo_1114009" data-name="Grupo 1114009" transform="translate(5.819 17.679)">
                  <path id="Trazado_906925" data-name="Trazado 906925" d="M243.609,279.981a.216.216,0,0,1-.2.231,6.7,6.7,0,0,0-2.6.759c-.06-.133-.121-.266-.181-.4a7.15,7.15,0,0,1,2.753-.791A.216.216,0,0,1,243.609,279.981Z" transform="translate(-240.626 -279.779)" fill="#da3313"/>
                </g>
              </g>
              <g id="Grupo_1114015" data-name="Grupo 1114015" transform="translate(18.016)">
                <g id="Grupo_1114011" data-name="Grupo 1114011" transform="translate(2.673 8.023)">
                  <path id="Trazado_906926" data-name="Trazado 906926" d="M252.58,264.962c.065.128.132.258.2.388a106.39,106.39,0,0,0,6.3,10.191s-.02-3.891-.34-8.079c-.011-.146-.022-.292-.034-.438a40.811,40.811,0,0,0-1.133-7.431c-.045-.152-.091-.3-.14-.438a3.372,3.372,0,0,0-1.026-1.719c-1.749-1.149-4.231-.631-5.606,1.7C250.331,259.926,251.128,262.146,252.58,264.962Z" transform="translate(-250.665 -256.849)" fill="#ff560d"/>
                </g>
                <path id="Trazado_906927" data-name="Trazado 906927" d="M251.378,248.051s2.841-7.566.763-7.8-2.031,7.121-2.031,7.121-2.006-4.938-4.4-4.386,3.474,6.208,3.474,6.208A1.96,1.96,0,0,0,251.378,248.051Z" transform="translate(-245.135 -240.246)" fill="#00666c"/>
                <g id="Grupo_1114012" data-name="Grupo 1114012" transform="translate(5.624 10.33)">
                  <path id="Trazado_906928" data-name="Trazado 906928" d="M256.8,262.9a.217.217,0,0,0,.3.076,7.175,7.175,0,0,1,3.628-.92c-.045-.152-.091-.3-.14-.438a7.508,7.508,0,0,0-3.708.984A.217.217,0,0,0,256.8,262.9Z" transform="translate(-256.773 -261.623)" fill="#da3313"/>
                </g>
                <g id="Grupo_1114013" data-name="Grupo 1114013" transform="translate(4.587 14.906)">
                  <path id="Trazado_906929" data-name="Trazado 906929" d="M254.627,272.322c.065.128.132.258.2.388a7.843,7.843,0,0,1,3.365-1.186.216.216,0,0,0-.029-.432A8.1,8.1,0,0,0,254.627,272.322Z" transform="translate(-254.627 -271.092)" fill="#da3313"/>
                </g>
                <g id="Grupo_1114014" data-name="Grupo 1114014" transform="translate(7.793 18.199)">
                  <path id="Trazado_906930" data-name="Trazado 906930" d="M261.282,278.827a.217.217,0,0,0,.288.105,6.7,6.7,0,0,1,2.645-.588c-.011-.146-.022-.292-.034-.438a7.139,7.139,0,0,0-2.793.633A.217.217,0,0,0,261.282,278.827Z" transform="translate(-261.261 -277.906)" fill="#da3313"/>
                </g>
              </g>
              <g id="Grupo_1114020" data-name="Grupo 1114020" transform="translate(26.796 0.656)">
                <g id="Grupo_1114016" data-name="Grupo 1114016" transform="translate(2.756 8.028)">
                  <path id="Trazado_906931" data-name="Trazado 906931" d="M270.979,266.348c.067.128.136.257.207.386a106.392,106.392,0,0,0,6.409,10.12s-.063-3.89-.43-8.074c-.013-.145-.025-.291-.039-.438a40.755,40.755,0,0,0-1.215-7.418c-.047-.151-.095-.3-.145-.436a3.368,3.368,0,0,0-1.045-1.707c-1.761-1.129-4.238-.584-5.587,1.757C268.675,261.338,269.5,263.549,270.979,266.348Z" transform="translate(-269.007 -258.215)" fill="#ff560d"/>
                </g>
                <path id="Trazado_906932" data-name="Trazado 906932" d="M269.6,249.415s2.756-7.6.676-7.808-1.952,7.144-1.952,7.144-2.061-4.916-4.449-4.337,3.543,6.169,3.543,6.169A1.959,1.959,0,0,0,269.6,249.415Z" transform="translate(-263.304 -241.603)" fill="#00666c"/>
                <g id="Grupo_1114017" data-name="Grupo 1114017" transform="translate(5.714 10.302)">
                  <path id="Trazado_906933" data-name="Trazado 906933" d="M275.159,264.244a.217.217,0,0,0,.3.073,7.172,7.172,0,0,1,3.617-.96c-.047-.151-.095-.3-.145-.436a7.5,7.5,0,0,0-3.7,1.025A.217.217,0,0,0,275.159,264.244Z" transform="translate(-275.128 -262.921)" fill="#da3313"/>
                </g>
                <g id="Grupo_1114018" data-name="Grupo 1114018" transform="translate(4.728 14.891)">
                  <path id="Trazado_906934" data-name="Trazado 906934" d="M273.088,273.688c.067.128.136.257.207.386a7.844,7.844,0,0,1,3.352-1.223.217.217,0,0,0-.033-.432A8.1,8.1,0,0,0,273.088,273.688Z" transform="translate(-273.088 -272.419)" fill="#da3313"/>
                </g>
                <g id="Grupo_1114019" data-name="Grupo 1114019" transform="translate(7.966 18.155)">
                  <path id="Trazado_906935" data-name="Trazado 906935" d="M279.81,280.126a.217.217,0,0,0,.289.1,6.708,6.708,0,0,1,2.638-.617c-.013-.145-.025-.291-.039-.438a7.14,7.14,0,0,0-2.786.664A.216.216,0,0,0,279.81,280.126Z" transform="translate(-279.789 -279.173)" fill="#da3313"/>
                </g>
              </g>
              <g id="Grupo_1114022" data-name="Grupo 1114022" transform="translate(2.971 14.63)">
                <path id="Trazado_906936" data-name="Trazado 906936" d="M250,270.522v16.825a8.557,8.557,0,0,1-8.56,8.56H222.561a8.553,8.553,0,0,1-7.036-3.682A8.541,8.541,0,0,1,214,287.347V270.522Z" transform="translate(-214.001 -270.522)" fill="#f2b34d"/>
                <g id="Grupo_1114021" data-name="Grupo 1114021" transform="translate(0 3.683)">
                  <rect id="Rect치ngulo_404879" data-name="Rect치ngulo 404879" width="35.995" height="0.983" fill="#cc8b28"/>
                  <rect id="Rect치ngulo_404880" data-name="Rect치ngulo 404880" width="35.995" height="0.983" transform="translate(0 5.678)" fill="#cc8b28"/>
                  <rect id="Rect치ngulo_404881" data-name="Rect치ngulo 404881" width="35.995" height="0.983" transform="translate(0 11.357)" fill="#cc8b28"/>
                  <path id="Trazado_906937" data-name="Trazado 906937" d="M250.061,313.4a8.465,8.465,0,0,1-.589.983H216.526a8.456,8.456,0,0,1-.589-.983Z" transform="translate(-215.002 -296.363)" fill="#cc8b28"/>
                </g>
              </g>
            </g>
            <g id="Grupo_1114034" data-name="Grupo 1114034" transform="translate(32.187 35.015)">
              <g id="Grupo_1114033" data-name="Grupo 1114033">
                <g id="Grupo_1114024" data-name="Grupo 1114024" transform="translate(0.501 0.297)">
                  <path id="Trazado_906938" data-name="Trazado 906938" d="M214.813,206.972c-1.622-1.01-2.783-1.622-3.846-3.6-1.9-3.544-3.238-9.449-4.56-15.5-.354-1.623-.723-3.481-1.048-5.458-.114-.7-.224-1.412-.325-2.133-1.282-9.122-3.342-26.026,4.372-26.725,6.626-.6,7.695,15.511,7.695,15.511s.1,3.58.436,8.567c.116,1.686.256,3.534.431,5.458.257,2.842.587,5.849,1.006,8.754.225,1.564.387,3.1.478,4.559.027.427.047.849.062,1.262.006.164.012.325.015.487C219.688,204.652,218.292,209.136,214.813,206.972Z" transform="translate(-203.788 -153.54)" fill="#ff8b84"/>
                </g>
                <path id="Trazado_906939" data-name="Trazado 906939" d="M205.457,154.7s-5.2,5.071-1.181,25.872c0,0,10,1.429,14.217-2.5,0,0-.828-15.813-3.285-20.88S208.018,151.946,205.457,154.7Z" transform="translate(-202.752 -152.926)" fill="#6499ff"/>
                <path id="Trazado_906940" data-name="Trazado 906940" d="M204.446,203.169a5.008,5.008,0,0,0,.6,2.863s10.114,1.594,15.159-2.954l-.5-2.438A27.3,27.3,0,0,1,204.446,203.169Z" transform="translate(-203.612 -177.583)" fill="#73b7ff"/>
                <g id="Grupo_1114025" data-name="Grupo 1114025" transform="translate(7.564 43.911)">
                  <path id="Trazado_906941" data-name="Trazado 906941" d="M238.031,279.161c-5.782-.005-18.4-23.252-19.53-29.251a5.449,5.449,0,0,1-.093-.812c-.143-3.959,4.479-5.646,7.29-5.246a3.507,3.507,0,0,1,1.369.456,1.724,1.724,0,0,1,.5.468,1.408,1.408,0,0,1,.117.209s2.836,4.4,7.362,17.832C238.434,272.879,243.813,279.168,238.031,279.161Z" transform="translate(-218.404 -243.795)" fill="#ff8b84"/>
                </g>
                <g id="Grupo_1114026" data-name="Grupo 1114026" transform="translate(12.908 43.162)">
                  <path id="Trazado_906942" data-name="Trazado 906942" d="M233.28,243.975c-.152,0-.315.01-.483.018a15.92,15.92,0,0,0-3.333.494s.873-.714,1.949-1.436c.341-.23.7-.459,1.063-.667.081-.047.164-.094.245-.139.027.427.047.849.062,1.262A1.724,1.724,0,0,1,233.28,243.975Z" transform="translate(-229.464 -242.245)" fill="#ff5f6f"/>
                </g>
                <g id="Grupo_1114032" data-name="Grupo 1114032" transform="translate(15.6 64.544)">
                  <g id="Grupo_1114031" data-name="Grupo 1114031">
                    <g id="Grupo_1114030" data-name="Grupo 1114030">
                      <g id="Grupo_1114029" data-name="Grupo 1114029">
                        <g id="Grupo_1114028" data-name="Grupo 1114028">
                          <g id="Grupo_1114027" data-name="Grupo 1114027">
                            <path id="Trazado_906943" data-name="Trazado 906943" d="M235.034,291.162c1.476,2.208,3.878,4.036,4.265,5.343,2.053,6.945,4.718,9.591,5.72,10.353a1.991,1.991,0,0,0,2.424-.164,1.781,1.781,0,0,0,2.121-.433c2,.9,2.67-.409,2.67-.409s1.527,1.729,2.529.635-1.562-3.013-2.243-4.672c-.032-.079-.065-.162-.1-.254.956.717,2.218,1.441,3.088,1.111,1.58-.6-4.672-6.018-4.672-6.018a12.4,12.4,0,0,0-2.963-2.832c-.667-.462-1.038-1.747-1.466-2.333l-1.016-4.994Z" transform="translate(-235.034 -286.494)" fill="#ff560d"/>
                          </g>
                        </g>
                      </g>
                    </g>
                  </g>
                </g>
                <path id="Trazado_906944" data-name="Trazado 906944" d="M233.393,289.522s.793,2.094,1.849,2.426,9.88-4.305,9.88-4.305-.165-2.566-.8-3.222C244.32,284.421,237.091,287.514,233.393,289.522Z" transform="translate(-218.586 -220.878)" fill="#da3313"/>
              </g>
            </g>
          </g>
        </g>
        <g id="Grupo_1114061" data-name="Grupo 1114061" transform="translate(0 164.029)">
          <g id="Grupo_1114048" data-name="Grupo 1114048">
            <g id="Grupo_1114047" data-name="Grupo 1114047">
              <path id="Trazado_906945" data-name="Trazado 906945" d="M77.94,481.567l6.508-9.539c3.186-4.208,6.12-6.791,8.1-6.946,4.751-.372-3.3,11.212-3.3,11.212S98.909,465.4,104.664,464.4s-8.032,14.774-8.032,14.774,10.585-4.634,15.677-3.458c2.623.605-1.859,3.341-6.822,5.851Z" transform="translate(-40.277 -416.069)" fill="#003d3c"/>
              <g id="Grupo_1114046" data-name="Grupo 1114046">
                <path id="Trazado_906946" data-name="Trazado 906946" d="M0,408.109a3.2,3.2,0,0,0,.286.246c2.806,2.125,7.67-6.013,3.175-14.157S2.669,375.3,8.7,374.876s.787,6.738,8.557,5.64,8.966-16.922,18.993-16.049c8.775.763,3.152,12.483-1.208,17.422-4.113,4.661-2.892,9.4,1.726,8.365s9.231,3.865,2.358,11.474-16.183,15.183-11.7,16.057,13.8-6.605,17.771,2.248c1.774,3.957-2.06,7.355-6.842,9.9H0Z" transform="translate(0 -364.432)" fill="#005454"/>
                <g id="Grupo_1114038" data-name="Grupo 1114038" transform="translate(1.551 10.136)">
                  <g id="Grupo_1114037" data-name="Grupo 1114037">
                    <path id="Trazado_906947" data-name="Trazado 906947" d="M4.592,440.777c10.565-21.439,28.324-54.285,28.54-54.685.137-.251-.019-.542-.349-.646a.729.729,0,0,0-.845.269c-.217.4-18.171,33.607-28.728,55.062Z" transform="translate(-3.21 -385.408)" fill="#003d3c"/>
                  </g>
                </g>
                <g id="Grupo_1114040" data-name="Grupo 1114040" transform="translate(10.662 22.182)">
                  <g id="Grupo_1114039" data-name="Grupo 1114039">
                    <path id="Trazado_906948" data-name="Trazado 906948" d="M30.081,422.259a.777.777,0,0,0,.3-.084.428.428,0,0,0,.171-.688c-.056-.062-5.582-6.295-7.223-10.79a.689.689,0,0,0-.8-.344c-.344.073-.545.346-.449.609,1.7,4.652,7.168,10.821,7.4,11.081A.734.734,0,0,0,30.081,422.259Z" transform="translate(-22.064 -410.336)" fill="#003d3c"/>
                  </g>
                </g>
                <g id="Grupo_1114041" data-name="Grupo 1114041" transform="translate(15.597 34.636)">
                  <path id="Trazado_906949" data-name="Trazado 906949" d="M32.981,440.851l.039,0c.4-.046,9.769-1.152,16.121-3.811a.442.442,0,0,0,.257-.672.76.76,0,0,0-.878-.2c-6.149,2.574-15.6,3.69-15.694,3.7-.353.041-.6.293-.542.563A.634.634,0,0,0,32.981,440.851Z" transform="translate(-32.277 -436.108)" fill="#003d3c"/>
                </g>
                <g id="Grupo_1114043" data-name="Grupo 1114043" transform="translate(0 54.585)">
                  <g id="Grupo_1114042" data-name="Grupo 1114042">
                    <path id="Trazado_906950" data-name="Trazado 906950" d="M0,477.389a51.239,51.239,0,0,0,5.692,4.464.419.419,0,0,1,.07.7.723.723,0,0,1-.432.171.785.785,0,0,1-.48-.117A51.515,51.515,0,0,1,0,478.917Z" transform="translate(0 -477.389)" fill="#003d3c"/>
                  </g>
                </g>
                <g id="Grupo_1114045" data-name="Grupo 1114045" transform="translate(2.434 61.343)">
                  <g id="Grupo_1114044" data-name="Grupo 1114044">
                    <path id="Trazado_906951" data-name="Trazado 906951" d="M16,494.206a48.2,48.2,0,0,0,11.077-1.882c.329-.107.482-.4.342-.648a.733.733,0,0,0-.849-.261C18.6,494,5.857,493.349,5.729,493.342a.614.614,0,0,0-.691.458c-.025.273.243.509.6.528A92.443,92.443,0,0,0,16,494.206Z" transform="translate(-5.037 -491.374)" fill="#003d3c"/>
                  </g>
                </g>
              </g>
            </g>
          </g>
          <g id="Grupo_1114060" data-name="Grupo 1114060" transform="translate(243.228)">
            <g id="Grupo_1114059" data-name="Grupo 1114059">
              <path id="Trazado_906952" data-name="Trazado 906952" d="M538.479,481.567l-6.508-9.539c-3.186-4.208-6.12-6.791-8.1-6.946-4.751-.372,3.3,11.212,3.3,11.212S517.51,465.4,511.755,464.4s8.032,14.774,8.032,14.774-10.585-4.634-15.677-3.458c-2.623.605,1.859,3.341,6.822,5.851Z" transform="translate(-503.336 -416.069)" fill="#003d3c"/>
              <g id="Grupo_1114058" data-name="Grupo 1114058" transform="translate(27.173)">
                <path id="Trazado_906953" data-name="Trazado 906953" d="M605.2,408.109a3.23,3.23,0,0,1-.285.246c-2.806,2.125-7.67-6.013-3.175-14.157s.792-18.9-5.236-19.323-.787,6.738-8.557,5.64-8.966-16.922-18.993-16.049c-8.776.763-3.152,12.483,1.208,17.422,4.113,4.661,2.892,9.4-1.726,8.365s-9.231,3.865-2.358,11.474,16.182,15.183,11.7,16.057-13.8-6.605-17.771,2.248c-1.775,3.957,2.059,7.355,6.842,9.9H605.2Z" transform="translate(-559.567 -364.432)" fill="#005454"/>
                <g id="Grupo_1114050" data-name="Grupo 1114050" transform="translate(14.11 10.136)">
                  <g id="Grupo_1114049" data-name="Grupo 1114049">
                    <path id="Trazado_906954" data-name="Trazado 906954" d="M617.356,440.777c-10.565-21.439-28.324-54.285-28.54-54.685-.137-.251.019-.542.349-.646a.73.73,0,0,1,.845.269c.217.4,18.172,33.607,28.727,55.062Z" transform="translate(-588.766 -385.408)" fill="#003d3c"/>
                  </g>
                </g>
                <g id="Grupo_1114052" data-name="Grupo 1114052" transform="translate(26.366 22.182)">
                  <g id="Grupo_1114051" data-name="Grupo 1114051">
                    <path id="Trazado_906955" data-name="Trazado 906955" d="M614.716,422.259a.776.776,0,0,1-.3-.084.428.428,0,0,1-.171-.688c.056-.062,5.582-6.295,7.223-10.79a.689.689,0,0,1,.8-.344c.344.073.545.346.449.609-1.7,4.652-7.168,10.821-7.4,11.081A.734.734,0,0,1,614.716,422.259Z" transform="translate(-614.128 -410.336)" fill="#003d3c"/>
                  </g>
                </g>
                <g id="Grupo_1114053" data-name="Grupo 1114053" transform="translate(12.835 34.636)">
                  <path id="Trazado_906956" data-name="Trazado 906956" d="M602.624,440.851l-.039,0c-.4-.046-9.769-1.152-16.121-3.811a.442.442,0,0,1-.257-.672.76.76,0,0,1,.878-.2c6.149,2.574,15.6,3.69,15.694,3.7.353.041.6.293.542.563A.634.634,0,0,1,602.624,440.851Z" transform="translate(-586.127 -436.108)" fill="#003d3c"/>
                </g>
                <g id="Grupo_1114055" data-name="Grupo 1114055" transform="translate(39.716 54.585)">
                  <g id="Grupo_1114054" data-name="Grupo 1114054">
                    <path id="Trazado_906957" data-name="Trazado 906957" d="M647.672,477.389a51.257,51.257,0,0,1-5.692,4.464.419.419,0,0,0-.07.7.723.723,0,0,0,.432.171.786.786,0,0,0,.48-.117,51.527,51.527,0,0,0,4.85-3.687Z" transform="translate(-641.754 -477.389)" fill="#003d3c"/>
                  </g>
                </g>
                <g id="Grupo_1114057" data-name="Grupo 1114057" transform="translate(20.769 61.343)">
                  <g id="Grupo_1114056" data-name="Grupo 1114056">
                    <path id="Trazado_906958" data-name="Trazado 906958" d="M614.017,494.206a48.2,48.2,0,0,1-11.077-1.882c-.329-.107-.482-.4-.342-.648a.733.733,0,0,1,.849-.261c7.963,2.591,20.709,1.935,20.837,1.929a.614.614,0,0,1,.691.458c.025.273-.243.509-.6.528A92.442,92.442,0,0,1,614.017,494.206Z" transform="translate(-602.547 -491.374)" fill="#003d3c"/>
                  </g>
                </g>
              </g>
            </g>
          </g>
        </g>
      </g>
    </g>
  </g>
</svg>
