<svg xmlns="http://www.w3.org/2000/svg" width="190" height="167.697" viewBox="0 0 190 167.697">
  <g id="Grupo_1119218" data-name="Grupo 1119218" transform="translate(-810.051 -1729)">
    <rect id="Rectángulo_404959" data-name="Rectángulo 404959" width="190" height="167.697" rx="8" transform="translate(810.051 1729)" fill="#9cc8ff"/>
    <g id="Layer_x0020_1" transform="translate(851.05 1766.881)">
      <path id="Trazado_916715" data-name="Trazado 916715" d="M12.888,18.77V7.618A2.522,2.522,0,0,1,15.41,5.1H66.187a2.522,2.522,0,0,1,2.523,2.523V18.77a2.522,2.522,0,0,1-2.523,2.523H15.41a2.522,2.522,0,0,1-2.523-2.523Zm21.705,8.85A2.522,2.522,0,0,1,37.115,25.1H66.187a2.523,2.523,0,1,1,0,5.045H37.115A2.522,2.522,0,0,1,34.593,27.62Zm9.8,6.327H66.187a2.522,2.522,0,1,1,0,5.045H44.394a2.522,2.522,0,1,1,0-5.045ZM40.011,47.314H71.578A12.512,12.512,0,0,1,81.36,37.156v-27.1a12.515,12.515,0,0,1-9.7-9.7H9.934a12.515,12.515,0,0,1-9.7,9.7V37.16a12.464,12.464,0,0,1,1.9.553l.615-3.5A2.516,2.516,0,0,1,4.8,32.17l6.767-1.188,5.856-4.088.886-.292a2.529,2.529,0,0,1,1.781.435l5.626,3.945,6.815,1.2a2.521,2.521,0,0,1,2,2.039l1.188,6.768,3.945,5.626a2.508,2.508,0,0,1,.345.7Z" transform="translate(14.696 14.697)" fill="#ffba00" fill-rule="evenodd"/>
      <path id="Trazado_916716" data-name="Trazado 916716" d="M.518.511V6.619H46.249V.511Z" transform="translate(32.111 24.325)" fill="#fff" fill-rule="evenodd"/>
      <g id="Grupo_1119217" data-name="Grupo 1119217" transform="translate(6.728 4.324)">
        <path id="Trazado_916717" data-name="Trazado 916717" d="M5.791,15.823a7.439,7.439,0,0,0,7.43-7.43A2.522,2.522,0,0,1,15.744,5.87H82.005a2.522,2.522,0,0,1,2.522,2.522,7.439,7.439,0,0,0,7.43,7.43,2.522,2.522,0,0,1,2.523,2.523V49.983A2.522,2.522,0,0,1,91.958,52.5a7.436,7.436,0,0,0-7.421,7.778,2.526,2.526,0,0,1-2.52,2.635H45.742L43.8,65.691l-.068.389H85.764A2.522,2.522,0,0,1,88.287,68.6h3.365a2.522,2.522,0,0,1,2.523-2.522h3.468V2.709H11.249A2.522,2.522,0,0,1,8.726.186H5.362A2.522,2.522,0,0,1,2.84,2.709H.107V66.08h9.6l-.068-.389L5.7,60.065a2.521,2.521,0,0,1,0-2.9l2.892-4.124a7.392,7.392,0,0,0-2.8-.541,2.522,2.522,0,0,1-2.523-2.522V18.345a2.522,2.522,0,0,1,2.523-2.523Z" transform="translate(-0.107 -0.186)" fill="#ffba00" fill-rule="evenodd"/>
        <path id="Trazado_916718" data-name="Trazado 916718" d="M22.338,13.941l-9.931,8.575a2.524,2.524,0,0,1-3.834-.647L5.782,17.034a2.523,2.523,0,1,1,4.369-2.523l1.266,2.194,7.623-6.582a2.523,2.523,0,1,1,3.3,3.818ZM16.154.86,11.517,4.111a2.535,2.535,0,0,1-1.011.42L4.928,5.51l-.98,5.577A2.5,2.5,0,0,1,3.528,12.1L.277,16.736l3.251,4.637a2.519,2.519,0,0,1,.419,1.012l.98,5.578,5.578.979a2.518,2.518,0,0,1,1.012.42l4.636,3.252,4.978-3.454.568-.2.085-.017.017,0,5.578-.98.282-1.606.7-3.971a2.5,2.5,0,0,1,.42-1.012l3.251-4.637L28.778,12.1a2.523,2.523,0,0,1-.42-1.011L27.38,5.51,21.616,4.491l-.826-.38L16.154.86Z" transform="translate(10.458 41.695)" fill="#ffba00" fill-rule="evenodd"/>
        <path id="Trazado_916719" data-name="Trazado 916719" d="M5.774,1.372,2,2.035.619,3,3.471,7.943l.451-1.384A2.517,2.517,0,0,1,6.9,4.887l1.043.248L5.774,1.372Z" transform="translate(31.689 73.473)" fill="#ffba00" fill-rule="evenodd"/>
        <path id="Trazado_916720" data-name="Trazado 916720" d="M4.8,7.942,7.649,3,6.272,2.035,2.494,1.372.322,5.134l1.626-.316a2.524,2.524,0,0,1,2.4,1.741Z" transform="translate(13.266 73.473)" fill="#ffba00" fill-rule="evenodd"/>
      </g>
      <path id="Trazado_916721" data-name="Trazado 916721" d="M79.2,52.007H57.408a2.522,2.522,0,1,1,0-5.045H79.2a2.522,2.522,0,1,1,0,5.045Zm25.9,21.574H99.112a2.522,2.522,0,1,1,0-5.045h3.468V5.164H16.187a2.523,2.523,0,0,1,0-5.045H105.1a2.522,2.522,0,0,1,2.522,2.523V71.058A2.523,2.523,0,0,1,105.1,73.58Zm-14.4,0H47.781l-.234,1.334a2.513,2.513,0,0,1-.261.756l4.557,7.892a2.522,2.522,0,0,1-2.024,4.017,2.659,2.659,0,0,1-.609-.068l-4.476-1.064L43.248,91a2.524,2.524,0,0,1-2.135,1.727,2.552,2.552,0,0,1-.264.013,2.523,2.523,0,0,1-2.183-1.26l-5.459-9.455-.1.07a2.53,2.53,0,0,1-2.9,0l-.1-.071-5.46,9.456a2.523,2.523,0,0,1-2.183,1.259,2.409,2.409,0,0,1-.264-.014A2.522,2.522,0,0,1,20.066,91l-1.484-4.554-4.476,1.064A2.522,2.522,0,0,1,11.338,83.8l4.692-8.126a2.522,2.522,0,0,1-.261-.755l-.234-1.335H2.523A2.522,2.522,0,0,1,0,71.057V2.642A2.522,2.522,0,0,1,2.523.119H7.778a2.523,2.523,0,1,1,0,5.045H5.045V68.536h9.6l-.068-.389-3.945-5.626a2.521,2.521,0,0,1,0-2.9L13.527,55.5a7.392,7.392,0,0,0-2.8-.541,2.522,2.522,0,0,1-2.523-2.522V20.8a2.522,2.522,0,0,1,2.523-2.523,7.439,7.439,0,0,0,7.43-7.43,2.522,2.522,0,0,1,2.522-2.522H86.944a2.522,2.522,0,0,1,2.522,2.522,7.439,7.439,0,0,0,7.43,7.43A2.522,2.522,0,0,1,99.418,20.8V52.439A2.522,2.522,0,0,1,96.9,54.961a7.439,7.439,0,0,0-7.43,7.43c0,.117,0,.233.009.348a2.523,2.523,0,0,1-2.52,2.635H50.68l-1.944,2.773-.068.389H90.7a2.522,2.522,0,0,1,0,5.045ZM43.165,70.692l.011-.071.685-3.9a2.5,2.5,0,0,1,.42-1.011l3.251-4.637-3.251-4.637a2.523,2.523,0,0,1-.42-1.011l-.979-5.578-5.578-.979-.017,0-.017,0-.017,0-.017,0-.017,0-.017,0-.017,0-.017,0-.017,0-.017,0-.017,0-.017,0-.017,0-.017,0-.016,0-.017,0-.017,0L37,48.8l-.017,0-.016-.005-.016-.005-.016-.005-.016-.006-.016-.005-.016-.006-.016-.006-.016-.006-.016-.006-.016-.006-.016-.006-.016-.006-.016-.007-.016-.006-.016-.007-.016-.007-.016-.007-.016-.007-.016-.007-.015-.007-.016-.007-.015-.007-.016-.008-.015-.008-.015-.008-.015-.008-.015-.008-.015-.008-.015-.008-.015-.008-.014-.008h0l0,0,0,0,0,0,0,0h0l0,0,0,0,0,0,0,0h0l0,0,0,0,0,0,0,0h0l0,0,0,0,0,0,0,0h0l0,0,0,0,0,0,0,0h0l0,0-.023-.014h0l-.066-.043,0,0,0,0h0l0,0,0,0,0,0,0,0h0l0,0,0,0,0,0,0,0-1.911-1.34L31.657,45.2,27.02,48.448a2.535,2.535,0,0,1-1.011.42l-5.578.979L19.5,55.12l-.054.3a2.5,2.5,0,0,1-.419,1.012L15.78,61.073l3.251,4.637a2.519,2.519,0,0,1,.419,1.012l.98,5.578,5.578.979a2.518,2.518,0,0,1,1.012.42l4.636,3.252.87-.61.039-.028,2.212-1.551L36.293,73.7l.043-.029h0l.014-.009h0l.014-.009h0l.028-.018h0l.014-.009h0l.014-.009h0l.014-.009h0l.014-.009h0l.014-.008h0l.014-.008h0l.014-.008h0l.014-.008h0l.014-.008h0l.014-.008h0l.015-.008h0l.014-.008h0l.015-.008h0l.015-.008h0l.015-.007h0l.015-.007h0l.015-.007h0l.015-.007h0l.015-.007h0l.015-.007h0l.015-.007h0l.015-.007h0l.015-.007h0l.015-.006h0l.015-.006h0l.015-.006h0l.015-.006h0l.015-.006h0l.016-.006h0l.015-.006h0l.016-.006h0l.016-.006h0l.016-.005h0l.016-.005h0l.016-.005h0l.016-.005h0l.016-.005h0l.016,0h0l.016,0h0l.016,0h0l.016,0h0l.016,0h0l.016,0h0l.016,0h0l.016,0h0l.016,0h0l.016,0h0l.016,0h0l.017,0h0l.017,0h0l.017,0h0l.017,0h0l.017,0h0l.017,0h0l.017,0h0l.017,0h0l.017,0h0l5.578-.98.282-1.606Zm-27.4-23.461.009-.049.01-.048.011-.048.012-.048.013-.047.013-.047.015-.046.015-.046a2.522,2.522,0,0,1,1.784-1.632l.041-.01.028-.006.014,0,.035-.007h.007l.042-.008L24.583,44l5.626-3.945a2.564,2.564,0,0,1,.228-.142h0a2.511,2.511,0,0,1,.851-.287l.035,0h0a2.5,2.5,0,0,1,.427-.02h0c.071,0,.143.009.213.017l.023,0,.012,0,.035,0h0c.047.007.094.015.141.025h0l.035.008.07.017.034.009h0l.035.01.035.01.023.007.012,0,.034.011h0l.034.012.011,0,.023.008.034.013.033.013h0l.034.014.01,0,.023.01.021.009.012.005.032.015h0a2.508,2.508,0,0,1,.258.139h0c.042.026.083.053.124.081L38.731,44,45.5,45.184h0l.048.009a2.521,2.521,0,0,1,2,2.039L48.735,54l3.945,5.626a2.508,2.508,0,0,1,.345.7H84.592a12.512,12.512,0,0,1,9.782-10.158v-27.1a12.515,12.515,0,0,1-9.7-9.7H22.948a12.515,12.515,0,0,1-9.7,9.7V50.175a12.463,12.463,0,0,1,1.9.553l.533-3.033.081-.463h0ZM79.2,34.307H28.424A2.522,2.522,0,0,1,25.9,31.784V20.632a2.522,2.522,0,0,1,2.523-2.523H79.2a2.522,2.522,0,0,1,2.523,2.523V31.784A2.522,2.522,0,0,1,79.2,34.307ZM30.947,29.262H76.678V23.154H30.947ZM25.961,79.117l-1.377-.966-3.778-.663L18.634,81.25,19.677,81a2.5,2.5,0,0,1,.583-.069,2.524,2.524,0,0,1,2.4,1.741l.451,1.383,2.852-4.94Zm12.77-.966-1.378.967,2.852,4.941.451-1.384A2.517,2.517,0,0,1,43.638,81l1.043.248-2.172-3.763-3.777.663ZM26.261,67.466a2.52,2.52,0,0,1-2.184-1.261l-2.791-4.835a2.523,2.523,0,1,1,4.369-2.523l1.266,2.194,7.623-6.582a2.523,2.523,0,1,1,3.3,3.818l-9.931,8.575a2.531,2.531,0,0,1-1.65.613ZM79.2,43.157H50.13a2.523,2.523,0,0,1,0-5.045H79.2a2.523,2.523,0,1,1,0,5.045Z" transform="translate(0 0)" fill="#010103" fill-rule="evenodd"/>
    </g>
  </g>
</svg>
