<svg xmlns="http://www.w3.org/2000/svg" xmlns:xlink="http://www.w3.org/1999/xlink" width="117.999" height="118" viewBox="0 0 117.999 118">
  <defs>
    <filter id="Trazado_874925" x="0" y="0" width="117.999" height="118" filterUnits="userSpaceOnUse">
      <feOffset dy="3" input="SourceAlpha"/>
      <feGaussianBlur stdDeviation="3" result="blur"/>
      <feFlood flood-opacity="0.161"/>
      <feComposite operator="in" in2="blur"/>
      <feComposite in="SourceGraphic"/>
    </filter>
  </defs>
  <g id="Grupo_1116047" data-name="Grupo 1116047" transform="translate(-750.051 -1818)">
    <g id="Grupo_1116046" data-name="Grupo 1116046">
      <g id="Grupo_1111552" data-name="Grupo 1111552" transform="translate(-49.449 -693.157)">
        <g id="Grupo_1111316" data-name="Grupo 1111316" transform="translate(808.5 2517.157)">
          <g id="Grupo_1109835" data-name="Grupo 1109835" transform="translate(0 0)">
            <g id="Grupo_1107913" data-name="Grupo 1107913" transform="translate(0 0)">
              <g transform="matrix(1, 0, 0, 1, -9, -6)" filter="url(#Trazado_874925)">
                <g id="Trazado_874925-2" data-name="Trazado 874925" transform="translate(9 6)" fill="#9cc8ff" opacity="0.859">
                  <path d="M 49.99972534179688 98.4998779296875 C 43.45164108276367 98.4998779296875 37.10022354125977 97.21776580810547 31.12189674377441 94.68914794921875 C 25.34676742553711 92.24647521972656 20.15985298156738 88.74925994873047 15.70523929595947 84.29464721679688 C 11.25062561035156 79.84004974365234 7.753411293029785 74.65313720703125 5.310725212097168 68.87800598144531 C 2.782111167907715 62.89969253540039 1.499996781349182 56.54829406738281 1.499996781349182 50.00022125244141 C 1.499996781349182 43.45157623291016 2.782111167907715 37.10017776489258 5.310725212097168 31.12186431884766 C 7.753411293029785 25.34673500061035 11.25062561035156 20.15983581542969 15.70523929595947 15.70522117614746 C 20.15985298156738 11.25062084197998 25.34676742553711 7.753406524658203 31.12189674377441 5.31073522567749 C 37.10022354125977 2.782120943069458 43.45164108276367 1.500006556510925 49.99972534179688 1.500006556510925 C 56.54780960083008 1.500006556510925 62.89922714233398 2.782120943069458 68.87755584716797 5.31073522567749 C 74.65267944335938 7.753406524658203 79.839599609375 11.25062084197998 84.29421234130859 15.70522117614746 C 88.74882507324219 20.15983581542969 92.24604034423828 25.34673500061035 94.68872833251953 31.12186431884766 C 97.21733856201172 37.10017776489258 98.49945068359375 43.45157623291016 98.49945068359375 49.99964904785156 C 98.49945068359375 56.54829406738281 97.21733856201172 62.89969253540039 94.68872833251953 68.87800598144531 C 92.24604034423828 74.65313720703125 88.74882507324219 79.84004974365234 84.29421234130859 84.29464721679688 C 79.839599609375 88.74925994873047 74.65267944335938 92.24647521972656 68.87755584716797 94.68914794921875 C 62.89922714233398 97.21776580810547 56.54780960083008 98.4998779296875 49.99972534179688 98.4998779296875 Z" stroke="none"/>
                  <path d="M 49.99972534179688 3 C 43.65348052978516 3 37.49866485595703 4.242240905761719 31.70623016357422 6.692230224609375 C 26.10989379882812 9.059272766113281 21.08323669433594 12.44853210449219 16.76589202880859 16.76587677001953 C 12.44855499267578 21.08321380615234 9.059295654296875 26.10985565185547 6.692230224609375 31.70618438720703 C 4.24224853515625 37.49859619140625 3 43.65341186523438 3 50.00022888183594 C 3 56.34645843505859 4.24224853515625 62.50127410888672 6.692230224609375 68.29368591308594 C 9.059295654296875 73.8900146484375 12.44855499267578 78.91665649414062 16.76589202880859 83.23399353027344 C 21.08323669433594 87.55132293701172 26.10989379882812 90.94059753417969 31.70623016357422 93.30764007568359 C 37.49866485595703 95.75762939453125 43.65348052978516 96.99987030029297 49.99972534179688 96.99987030029297 C 56.34597015380859 96.99987030029297 62.50078582763672 95.75762939453125 68.293212890625 93.30764007568359 C 73.88955688476562 90.94059753417969 78.91621398925781 87.55132293701172 83.23355865478516 83.23399353027344 C 87.55089569091797 78.91665649414062 90.94015502929688 73.8900146484375 93.30722045898438 68.29368591308594 C 95.7572021484375 62.50127410888672 96.99945068359375 56.34645843505859 96.99945068359375 49.99964141845703 C 96.99945068359375 43.65341186523438 95.7572021484375 37.49859619140625 93.30722045898438 31.70618438720703 C 90.94015502929688 26.10985565185547 87.55089569091797 21.08321380615234 83.23355865478516 16.76587677001953 C 78.91621398925781 12.44853210449219 73.88955688476562 9.059272766113281 68.293212890625 6.692230224609375 C 62.50078582763672 4.242240905761719 56.34597015380859 3 49.99972534179688 3 M 49.99972534179688 0 C 77.61381530761719 0 99.99945068359375 22.38559722900391 99.99945068359375 49.99964141845703 L 99.99945068359375 50.00022888183594 C 99.99945068359375 77.6142578125 77.61381530761719 99.99987030029297 49.99972534179688 99.99987030029297 C 22.38563537597656 99.99987030029297 0 77.6142578125 0 50.00022888183594 L 0 49.99964141845703 C 0 22.38559722900391 22.38563537597656 0 49.99972534179688 0 Z" stroke="none" fill="#fff"/>
                </g>
              </g>
              <g id="Trazado_874923" data-name="Trazado 874923" transform="translate(0 0)" fill="none">
                <path d="M50,0a50,50,0,0,1,50,50h0A50,50,0,0,1,0,50H0A50,50,0,0,1,50,0Z" stroke="none"/>
                <path d="M 49.99972534179688 3 C 43.65348052978516 3 37.49866485595703 4.242240905761719 31.70623016357422 6.692230224609375 C 26.10989379882812 9.059272766113281 21.08323669433594 12.44853210449219 16.76589202880859 16.76587677001953 C 12.44855499267578 21.08321380615234 9.059295654296875 26.10985565185547 6.692230224609375 31.70618438720703 C 4.24224853515625 37.49859619140625 3 43.65341186523438 3 50.00022888183594 C 3 56.34645843505859 4.24224853515625 62.50127410888672 6.692230224609375 68.29368591308594 C 9.059295654296875 73.8900146484375 12.44855499267578 78.91665649414062 16.76589202880859 83.23399353027344 C 21.08323669433594 87.55132293701172 26.10989379882812 90.94059753417969 31.70623016357422 93.30764007568359 C 37.49866485595703 95.75762939453125 43.65348052978516 96.99987030029297 49.99972534179688 96.99987030029297 C 56.34597015380859 96.99987030029297 62.50078582763672 95.75762939453125 68.293212890625 93.30764007568359 C 73.88955688476562 90.94059753417969 78.91621398925781 87.55132293701172 83.23355865478516 83.23399353027344 C 87.55089569091797 78.91665649414062 90.94015502929688 73.8900146484375 93.30722045898438 68.29368591308594 C 95.7572021484375 62.50127410888672 96.99945068359375 56.34645843505859 96.99945068359375 49.99964141845703 C 96.99945068359375 43.65341186523438 95.7572021484375 37.49859619140625 93.30722045898438 31.70618438720703 C 90.94015502929688 26.10985565185547 87.55089569091797 21.08321380615234 83.23355865478516 16.76587677001953 C 78.91621398925781 12.44853210449219 73.88955688476562 9.059272766113281 68.293212890625 6.692230224609375 C 62.50078582763672 4.242240905761719 56.34597015380859 3 49.99972534179688 3 M 49.99972534179688 0 C 77.61381530761719 0 99.99945068359375 22.38559722900391 99.99945068359375 49.99964141845703 L 99.99945068359375 50.00022888183594 C 99.99945068359375 77.6142578125 77.61381530761719 99.99987030029297 49.99972534179688 99.99987030029297 C 22.38563537597656 99.99987030029297 0 77.6142578125 0 50.00022888183594 L 0 49.99964141845703 C 0 22.38559722900391 22.38563537597656 0 49.99972534179688 0 Z" stroke="none" fill="#fff"/>
              </g>
            </g>
          </g>
        </g>
      </g>
      <g id="Grupo_1116045" data-name="Grupo 1116045" transform="translate(770.659 1844)">
        <g id="Grupo_1116026" data-name="Grupo 1116026" transform="translate(10.272 6.345)">
          <path id="Trazado_912477" data-name="Trazado 912477" d="M22.652,54.093l-5.7,7.947a.312.312,0,0,0-.059.182v44.387a.312.312,0,0,0,.312.312h11.21v-44.7a.312.312,0,0,0-.059-.182Z" transform="translate(-16.891 -54.093)" fill="#fff9e2"/>
        </g>
        <g id="Grupo_1116027" data-name="Grupo 1116027" transform="translate(10.272 56.827)">
          <path id="Trazado_912478" data-name="Trazado 912478" d="M16.891,484.5v2.034a.312.312,0,0,0,.312.312h11.21V484.5Z" transform="translate(-16.891 -484.496)" fill="#fbf4c6"/>
        </g>
        <g id="Grupo_1116028" data-name="Grupo 1116028" transform="translate(16.032 0.88)">
          <path id="Trazado_912479" data-name="Trazado 912479" d="M67.911,7.5H87.148a1.9,1.9,0,0,1,1.9,1.9v3.561H66.007V9.4A1.9,1.9,0,0,1,67.911,7.5Z" transform="translate(-66.007 -7.5)" fill="#fff9e2"/>
        </g>
        <g id="Grupo_1116029" data-name="Grupo 1116029" transform="translate(13.37 20.77)">
          <path id="Trazado_912480" data-name="Trazado 912480" d="M0,0H5.324V5.324H0Z" transform="translate(5.324 5.324) rotate(180)" fill="#e4936b"/>
        </g>
        <g id="Grupo_1116030" data-name="Grupo 1116030" transform="translate(16.032 6.345)">
          <path id="Trazado_912481" data-name="Trazado 912481" d="M94.754,62.04l-5.7-7.947H66.007l5.7,7.947a.312.312,0,0,1,.059.182v44.7H94.5a.312.312,0,0,0,.312-.312V62.222A.313.313,0,0,0,94.754,62.04Z" transform="translate(-66.007 -54.093)" fill="#e4936b"/>
        </g>
        <g id="Grupo_1116031" data-name="Grupo 1116031" transform="translate(21.793 6.345)">
          <path id="Trazado_912482" data-name="Trazado 912482" d="M138.109,62.04l-5.7-7.947H129.4l1.875,2.614a11.743,11.743,0,0,1,2.2,6.846V98.61a5.966,5.966,0,0,1-5.966,5.966H115.123v2.346h22.733a.312.312,0,0,0,.312-.312V62.222A.313.313,0,0,0,138.109,62.04Z" transform="translate(-115.123 -54.093)" fill="#e27d47"/>
        </g>
        <g id="Grupo_1116032" data-name="Grupo 1116032" transform="translate(29.478 6.345)">
          <circle id="Elipse_11743" data-name="Elipse 11743" cx="4.014" cy="4.014" r="4.014" fill="#f6e266"/>
        </g>
        <g id="Grupo_1116033" data-name="Grupo 1116033" transform="translate(26.546 6.345)">
          <path id="Trazado_912483" data-name="Trazado 912483" d="M159.659,54.093a4.014,4.014,0,0,0,0,8.028h2.932a4.014,4.014,0,0,1,0-8.028Z" transform="translate(-155.645 -54.093)" fill="#f1d333"/>
        </g>
        <g id="Grupo_1116034" data-name="Grupo 1116034" transform="translate(24.997 28.81)">
          <circle id="Elipse_11744" data-name="Elipse 11744" cx="8.318" cy="8.318" r="8.318" fill="#fff"/>
        </g>
        <g id="Grupo_1116035" data-name="Grupo 1116035" transform="translate(40.146 32.38)">
          <path id="Trazado_912484" data-name="Trazado 912484" d="M271.6,285.559a8.323,8.323,0,0,0,0-9.5Z" transform="translate(-271.598 -276.062)" fill="#f1f1f4"/>
        </g>
        <g id="Grupo_1116036" data-name="Grupo 1116036" transform="translate(28.708 32.576)">
          <path id="Trazado_912485" data-name="Trazado 912485" d="M174.768,285.939a2.344,2.344,0,0,1,.81-3.843,5.012,5.012,0,0,0,2.859-2.859,2.344,2.344,0,0,1,3.843-.81,3.465,3.465,0,0,1,.78,3.7,8.043,8.043,0,0,1-4.589,4.589A3.465,3.465,0,0,1,174.768,285.939Z" transform="translate(-174.08 -277.739)" fill="#fff9e2"/>
        </g>
        <g id="Grupo_1116037" data-name="Grupo 1116037" transform="translate(28.708 32.576)">
          <path id="Trazado_912486" data-name="Trazado 912486" d="M174.768,285.939a2.344,2.344,0,0,1,.81-3.843,5.012,5.012,0,0,0,2.859-2.859,2.344,2.344,0,0,1,3.843-.81,3.465,3.465,0,0,1,.78,3.7,8.043,8.043,0,0,1-4.589,4.589A3.465,3.465,0,0,1,174.768,285.939Z" transform="translate(-174.08 -277.739)" fill="#fbf4c6"/>
        </g>
        <g id="Grupo_1116038" data-name="Grupo 1116038" transform="translate(26.485 20.265)">
          <path id="Trazado_912487" data-name="Trazado 912487" d="M168.482,176.654H155.425a.3.3,0,0,1-.3-.3v-3.271a.3.3,0,0,1,.3-.3h13.058a.3.3,0,0,1,.3.3v3.271A.3.3,0,0,1,168.482,176.654Z" transform="translate(-155.123 -172.779)" fill="#fff"/>
        </g>
        <g id="Grupo_1116039" data-name="Grupo 1116039" transform="translate(49.296 55.465)">
          <path id="Trazado_912488" data-name="Trazado 912488" d="M349.6,472.883l.111,3.256a.473.473,0,0,0,.473.457h14.965a.473.473,0,0,0,.473-.457l.111-3.256Z" transform="translate(-349.603 -472.883)" fill="#daf1f4"/>
        </g>
        <g id="Grupo_1116040" data-name="Grupo 1116040" transform="translate(48.357 27.409)">
          <path id="Trazado_912489" data-name="Trazado 912489" d="M359.607,234.174a.473.473,0,0,0-.473-.489H342.07a.473.473,0,0,0-.473.489l.314,9.218h17.381Z" transform="translate(-341.598 -233.685)" fill="#ecf9f9"/>
        </g>
        <g id="Grupo_1116041" data-name="Grupo 1116041" transform="translate(48.671 37.117)">
          <path id="Trazado_912490" data-name="Trazado 912490" d="M344.277,316.449,344.9,334.8h16.132l.625-18.348Z" transform="translate(-344.277 -316.449)" fill="#fff9e2"/>
        </g>
        <g id="Grupo_1116042" data-name="Grupo 1116042" transform="translate(49.342 55.465)">
          <path id="Trazado_912491" data-name="Trazado 912491" d="M360.492,472.883a3.837,3.837,0,0,1-2.939,1.367H350l.064,1.889a.473.473,0,0,0,.473.457H365.5a.473.473,0,0,0,.473-.457l.111-3.256Z" transform="translate(-350 -472.883)" fill="#b9e4ef"/>
        </g>
        <g id="Grupo_1116043" data-name="Grupo 1116043" transform="translate(59.834 37.117)">
          <path id="Trazado_912492" data-name="Trazado 912492" d="M440.9,316.449l-.545,16a3.829,3.829,0,0,1-.9,2.346h5.594l.625-18.348Z" transform="translate(-439.451 -316.449)" fill="#fbf4c6"/>
        </g>
        <g id="Grupo_1116044" data-name="Grupo 1116044" transform="translate(61.281 27.409)">
          <path id="Trazado_912493" data-name="Trazado 912493" d="M456.4,233.685h-4.282l-.251,7.362-.08,2.346h4.772l.314-9.218A.473.473,0,0,0,456.4,233.685Z" transform="translate(-451.787 -233.685)" fill="#daf1f4"/>
        </g>
        <path id="Trazado_912494" data-name="Trazado 912494" d="M10.584,60.052H44.526a1.193,1.193,0,0,0,1.192-1.192V14.474a1.185,1.185,0,0,0-.224-.7L39.957,6.062V2.783A2.786,2.786,0,0,0,37.174,0H24.746a.88.88,0,1,0,0,1.759H37.174A1.025,1.025,0,0,1,38.2,2.783V5.465H16.912V2.783a1.025,1.025,0,0,1,1.024-1.024h2.705a.88.88,0,0,0,0-1.759H17.936a2.786,2.786,0,0,0-2.783,2.783V6.062L9.615,13.779a1.185,1.185,0,0,0-.223.695V58.861a1.193,1.193,0,0,0,1.192,1.192ZM38.626,7.224l5.333,7.432V58.293H22.673V15.253H38.524a.88.88,0,1,0,0-1.759H37.248a4.884,4.884,0,0,0,0-6.269Zm-2,3.134a3.135,3.135,0,1,1-3.135-3.135A3.138,3.138,0,0,1,36.627,10.359ZM29.622,7.368a4.884,4.884,0,0,0,0,5.982,3.135,3.135,0,0,1,0-5.982ZM26.8,7.224a4.883,4.883,0,0,0,0,6.269h-4.56l-4.5-6.269ZM11.151,14.656l4.881-6.8,4.881,6.8V58.293H11.151Z"/>
        <path id="Trazado_912495" data-name="Trazado 912495" d="M42.116,249.384H36.823a.88.88,0,1,0,0,1.759h5.293a.88.88,0,1,0,0-1.759Z" transform="translate(-23.437 -220.134)"/>
        <path id="Trazado_912496" data-name="Trazado 912496" d="M42.116,283.226H36.823a.88.88,0,0,0,0,1.759h5.293a.88.88,0,0,0,0-1.759Z" transform="translate(-23.437 -250.006)"/>
        <path id="Trazado_912497" data-name="Trazado 912497" d="M42.116,317.069H36.823a.88.88,0,0,0,0,1.759h5.293a.88.88,0,0,0,0-1.759Z" transform="translate(-23.437 -279.88)"/>
        <path id="Trazado_912498" data-name="Trazado 912498" d="M42.116,350.911H36.823a.88.88,0,1,0,0,1.759h5.293a.88.88,0,1,0,0-1.759Z" transform="translate(-23.437 -309.752)"/>
        <path id="Trazado_912499" data-name="Trazado 912499" d="M42.016,169.583H36.692a.88.88,0,0,0-.88.88v5.324a.88.88,0,0,0,.88.88h5.324a.88.88,0,0,0,.88-.88v-5.324A.88.88,0,0,0,42.016,169.583Zm-.88,5.324H37.571v-3.565h3.565v3.565Z" transform="translate(-23.321 -149.692)"/>
        <path id="Trazado_912500" data-name="Trazado 912500" d="M172.17,280.92a8.944,8.944,0,0,0,5.091-5.09,4.346,4.346,0,0,0-.978-4.644A3.225,3.225,0,0,0,171,272.3a4.141,4.141,0,0,1-2.358,2.358,3.225,3.225,0,0,0-1.113,5.285A4.347,4.347,0,0,0,172.17,280.92Zm-3.4-2.222a1.463,1.463,0,0,1,.506-2.4,5.906,5.906,0,0,0,3.361-3.361,1.463,1.463,0,0,1,2.4-.506,2.586,2.586,0,0,1,.582,2.763,7.179,7.179,0,0,1-4.087,4.087,2.587,2.587,0,0,1-2.763-.582Z" transform="translate(-138.753 -238.544)"/>
        <path id="Trazado_912501" data-name="Trazado 912501" d="M199.67,306.726a8.506,8.506,0,0,0,2.8-2.781.88.88,0,0,0-1.5-.926,6.737,6.737,0,0,1-2.221,2.2.88.88,0,1,0,.913,1.5Z" transform="translate(-166.781 -267.11)"/>
        <path id="Trazado_912502" data-name="Trazado 912502" d="M144.138,238.126a9.2,9.2,0,0,0-7.157,14.976A.88.88,0,0,0,138.349,252a7.355,7.355,0,0,1-1.65-4.672,7.432,7.432,0,1,1,4.565,6.864.88.88,0,1,0-.68,1.623,9.2,9.2,0,1,0,3.554-17.684Z" transform="translate(-110.822 -210.196)"/>
        <path id="Trazado_912503" data-name="Trazado 912503" d="M147.623,166.46v3.271a1.183,1.183,0,0,0,1.182,1.182h13.058a1.183,1.183,0,0,0,1.182-1.182V166.46a1.183,1.183,0,0,0-1.182-1.182H148.8A1.183,1.183,0,0,0,147.623,166.46Zm1.759.578h11.9v2.115h-11.9Z" transform="translate(-122.018 -145.892)"/>
        <path id="Trazado_912504" data-name="Trazado 912504" d="M162.164,419.09H148.5a.88.88,0,1,0,0,1.759h13.661a.88.88,0,1,0,0-1.759Z" transform="translate(-122.018 -369.935)"/>
        <path id="Trazado_912505" data-name="Trazado 912505" d="M181.342,446.09h-7.784a.88.88,0,1,0,0,1.759h7.784a.88.88,0,1,0,0-1.759Z" transform="translate(-144.134 -393.768)"/>
        <path id="Trazado_912506" data-name="Trazado 912506" d="M334.1,227.584c.064,1.887.989,29.037,1.05,30.822a1.347,1.347,0,0,0,1.352,1.307h14.965a1.347,1.347,0,0,0,1.352-1.307c.37-10.857.578-16.971,1.049-30.823a1.354,1.354,0,0,0-1.352-1.4H335.45a1.354,1.354,0,0,0-1.352,1.4Zm2.795,30.37L336.826,256h14.311l-.066,1.953Zm15.2-30.009-.271,7.948H343.11a.88.88,0,0,0,0,1.759h8.653l-.565,16.589H336.766l-.565-16.589H339a.88.88,0,1,0,0-1.759h-2.863l-.271-7.948Z" transform="translate(-286.62 -199.656)"/>
        <path id="Trazado_912507" data-name="Trazado 912507" d="M359.823,252.1l.131,3.843a.88.88,0,0,0,1.758-.06l-.131-3.843a.88.88,0,0,0-1.758.06Z" transform="translate(-309.328 -221.725)"/>
      </g>
    </g>
  </g>
</svg>
