<svg xmlns="http://www.w3.org/2000/svg" width="190" height="167.7" viewBox="0 0 190 167.7">
  <g id="Grupo_1119226" data-name="Grupo 1119226" transform="translate(-180.051 -1924)">
    <rect id="Rectángulo_404963" data-name="Rectángulo 404963" width="190" height="167.7" rx="8" transform="translate(180.051 1924)" fill="#9cc8ff"/>
    <g id="Grupo_1119225" data-name="Grupo 1119225" transform="translate(228.052 1958.247)">
      <g id="Grupo_1119223" data-name="Grupo 1119223" transform="translate(0.815 5.116)">
        <g id="Grupo_1119222" data-name="Grupo 1119222" transform="translate(0 0)">
          <path id="Trazado_916722" data-name="Trazado 916722" d="M288.657,252.266a2.994,2.994,0,0,0,3.9,2.072,3.027,3.027,0,0,0,1.872-3.665c-.627-2.21-3.086-3.93-3.977-4.492a.363.363,0,0,0-.513.131C289.423,247.248,288.074,250.009,288.657,252.266Z" transform="translate(-236.887 -203.433)" fill="#7e7e87"/>
          <path id="Trazado_916723" data-name="Trazado 916723" d="M197.359,242.349a2.994,2.994,0,0,0,.194,4.411,3.027,3.027,0,0,0,4.107-.248c1.586-1.663,1.819-4.654,1.851-5.707a.363.363,0,0,0-.374-.376C202.071,240.462,199.008,240.7,197.359,242.349Z" transform="translate(-161.584 -198.772)" fill="#7e7e87"/>
          <g id="Grupo_1119219" data-name="Grupo 1119219" transform="translate(41.932 53.636)">
            <path id="Trazado_916724" data-name="Trazado 916724" d="M235.18,315.044a3.766,3.766,0,0,0,.544,1.952,3.5,3.5,0,0,0,3.253,1.469,3.311,3.311,0,0,0,3.385-3.935,11.136,11.136,0,0,0-3.134-6.081.362.362,0,0,0-.525,0c-.131.137-.3-.041-.5.187C237.1,309.905,235.18,312.477,235.18,315.044Z" transform="translate(-235.18 -307.972)" fill="#95969b"/>
            <path id="Trazado_916725" data-name="Trazado 916725" d="M245.175,312.894c-.271-2.85-2.688-5.6-3.5-6.445a.362.362,0,0,0-.524,0c-.13.137-.3.323-.5.551a9.384,9.384,0,0,1,1.615,4.077,3.867,3.867,0,0,1-3.748,4.3c-.116,0-.231-.005-.344-.015a3.781,3.781,0,0,0,3.253,1.833A3.867,3.867,0,0,0,245.175,312.894Z" transform="translate(-237.63 -306.337)" fill="#7e7e87"/>
          </g>
          <path id="Trazado_916726" data-name="Trazado 916726" d="M97.978,380.314v21.272a.727.727,0,0,1-.727.727l-4.726.364H8.73A.727.727,0,0,1,8,401.949v-22a.727.727,0,0,1,.727-.727h5.184l4.731.174a3.139,3.139,0,0,1,2.857,1.956l2.381,4.006a5.18,5.18,0,0,0,4.868,2.461,4.927,4.927,0,0,0,4.391-2.461l2.419-4.19a3.891,3.891,0,0,1,2.879-1.916c.038-.005.1.005.14,0,.082-.007.162-.013.244-.016.04,0,.08,0,.122,0l4.386.191c.131,0,.26.007.389.02,1.243.118,1.792.894,2.423,1.99l1.965,4.33c.018.031.036.062.056.093.925,1.529,3.6,1.91,5.171,1.959a4.946,4.946,0,0,0,4.4-2.461l2.417-4.19a3.9,3.9,0,0,1,2.788-1.9c.024,0,.045-.007.069-.009.042-.005.087.016.129.012s.085-.009.129-.011a.973.973,0,0,1,.1-.005c.044,0,.089,0,.133,0l4.28.118c.131,0,.26.007.387.02a3.165,3.165,0,0,1,2.571,1.889l2.481,4.292a4.757,4.757,0,0,0,4.468,2.252,5.012,5.012,0,0,0,4.456-2.46l2.419-4.19a3.894,3.894,0,0,1,3.372-1.947h4.588l4.726.364a.727.727,0,0,1,.727.727Z" transform="translate(-7.364 -312.338)" fill="#d1a08f"/>
          <g id="Grupo_1119220" data-name="Grupo 1119220" transform="translate(5.914 66.884)">
            <path id="Trazado_916727" data-name="Trazado 916727" d="M325,387.819c-6.513,0-8.044.125-9.539-2.46l-2.417-4.19a3.9,3.9,0,0,0-2.792-1.9c.024,0,.045-.007.069-.009.042-.005.085-.011.127-.014s.085-.009.129-.011a.973.973,0,0,1,.1-.005c.044,0,.089,0,.133,0h4.313c.131,0,.26.007.387.02a3.891,3.891,0,0,1,2.985,1.927l2.359,4.052.145.258A4.836,4.836,0,0,0,325,387.819Z" transform="translate(-260.589 -379.223)" fill="#c68d7a"/>
            <path id="Trazado_916728" data-name="Trazado 916728" d="M190.358,387.821c-5.938,0-8.108.115-9.595-2.461l-2.419-4.19a3.891,3.891,0,0,0-2.881-1.916c.038-.005.076-.009.116-.013.08-.009.162-.013.244-.016.04,0,.08,0,.122,0h4.481c.131,0,.26.007.389.02a3.891,3.891,0,0,1,2.985,1.927l2.418,4.173a.738.738,0,0,0,.066.11A4.91,4.91,0,0,0,190.358,387.821Z" transform="translate(-150.299 -379.222)" fill="#c68d7a"/>
            <path id="Trazado_916729" data-name="Trazado 916729" d="M52.377,387.821c-5.786,0-8.076.115-9.563-2.461l-2.419-4.19a3.892,3.892,0,0,0-3.372-1.947h5.453a3.9,3.9,0,0,1,3.374,1.947l2.417,4.19A4.88,4.88,0,0,0,52.377,387.821Z" transform="translate(-37.023 -379.222)" fill="#c68d7a"/>
            <path id="Trazado_916730" data-name="Trazado 916730" d="M475.954,379.22H470.5a.727.727,0,0,1,.727.727v22a.727.727,0,0,1-.727.727h5.454a.727.727,0,0,0,.727-.727v-22A.727.727,0,0,0,475.954,379.22Z" transform="translate(-391.708 -379.22)" fill="#c68d7a"/>
          </g>
          <path id="Trazado_916731" data-name="Trazado 916731" d="M169.3,96.647l-10.872,16.565a4.786,4.786,0,0,1-6.656,1.227,1.8,1.8,0,0,1-.46-2.5l11.835-17.667Z" transform="translate(-124.364 -79.185)" fill="#bc7c63"/>
          <path id="Trazado_916732" data-name="Trazado 916732" d="M122.248,104.928l-20.775,14.81a4.918,4.918,0,0,1-6.856-1.175,1.845,1.845,0,0,1,.44-2.571l13.044-9.527Z" transform="translate(-77.958 -87.901)" fill="#c68d7a"/>
          <path id="Trazado_916733" data-name="Trazado 916733" d="M130.45,11.253a1.227,1.227,0,0,0-.763.269,22.262,22.262,0,0,1-5.137,3.236l-9.9,4.791a54.07,54.07,0,0,1-11.59,4.058L84.309,27.857a1.153,1.153,0,0,0-.884,1.306l.011.072a5.2,5.2,0,0,0,5.9,4.33c8.041-1.2,23.564-3.5,31.392-4.666a8.041,8.041,0,0,1,7.634,3.157,8.13,8.13,0,0,1,.888,8.192l-1.342,2.978a8.835,8.835,0,0,0,.842,8.732,4.267,4.267,0,0,0,1.46,1.293c1.389.75,2.35.359,3.726-.615a1.23,1.23,0,0,0,.452-1.407l-.807-1.759a6.242,6.242,0,0,1,.653-5.375l1.97-3.072a18.694,18.694,0,0,0,2.631-6.15l.858-7.6c.2-2,2.2-9.965,12.349-14.706a.613.613,0,0,0-.254-1.17l-2.655-.142H130.45Z" transform="translate(-69.065 -11.253)" fill="#d1a08f"/>
          <path id="Trazado_916734" data-name="Trazado 916734" d="M362.923,12.437c-10.151,4.742-12.22,13-12.417,15l-.858,7.6a18.409,18.409,0,0,1-2.52,6.147l-1.971,3.073a6.154,6.154,0,0,0-.633,5.334l.688,1.985a1.2,1.2,0,0,1,.067.4,1.227,1.227,0,0,1-.519,1,4.276,4.276,0,0,1-4.515.27,4.182,4.182,0,0,0,.431-.27,1.227,1.227,0,0,0,.519-1,1.2,1.2,0,0,0-.067-.4l-.688-1.985a6.154,6.154,0,0,1,.633-5.334l1.971-3.073a18.41,18.41,0,0,0,2.52-6.147l.858-7.6c.214-2.181,2.182-12.539,12.747-16.178l3.5.013a.612.612,0,0,1,.253,1.17Z" transform="translate(-279.099 -11.254)" fill="#c68d7a"/>
          <path id="Trazado_916735" data-name="Trazado 916735" d="M12.236,306.1l-1.9-1.181A12.368,12.368,0,0,1,4.814,291.6l.268-1.147a.761.761,0,0,1,1.142-.473l1,.621a12.368,12.368,0,0,1,5.52,13.326Z" transform="translate(-4.488 -239.22)" fill="#9ed146"/>
          <path id="Trazado_916736" data-name="Trazado 916736" d="M43.35,306.1l-.51-2.18A12.368,12.368,0,0,1,48.36,290.6l1-.621a.761.761,0,0,1,1.142.473l.268,1.147a12.368,12.368,0,0,1-5.52,13.326Z" transform="translate(-35.602 -239.22)" fill="#b1dd50"/>
          <path id="Trazado_916737" data-name="Trazado 916737" d="M427.77,306.1l-1.9-1.181a12.368,12.368,0,0,1-5.52-13.326l.268-1.147a.761.761,0,0,1,1.142-.473l1,.621a12.368,12.368,0,0,1,5.52,13.326Z" transform="translate(-344.492 -239.22)" fill="#9ed146"/>
          <path id="Trazado_916738" data-name="Trazado 916738" d="M458.884,306.1l-.51-2.18a12.368,12.368,0,0,1,5.52-13.326l1-.621a.761.761,0,0,1,1.142.473l.268,1.147a12.368,12.368,0,0,1-5.52,13.326Z" transform="translate(-375.606 -239.22)" fill="#b1dd50"/>
          <g id="Grupo_1119221" data-name="Grupo 1119221" transform="translate(44.32 26.121)">
            <path id="Trazado_916739" data-name="Trazado 916739" d="M248.658,161.106a3.763,3.763,0,0,0-.319,2,3.5,3.5,0,0,0,2.345,2.691,3.31,3.31,0,0,0,4.716-2.167,11.138,11.138,0,0,0-.315-6.834.362.362,0,0,0-.476-.219c-.176.07-.258-.163-.534-.039C252.541,157.233,249.728,158.772,248.658,161.106Z" transform="translate(-248.315 -156.221)" fill="#95969b"/>
            <path id="Trazado_916740" data-name="Trazado 916740" d="M255.842,162.52c.941-2.7-.111-6.209-.494-7.316a.362.362,0,0,0-.476-.219c-.175.07-.41.167-.685.292a9.385,9.385,0,0,1-.231,4.379,3.867,3.867,0,0,1-5.2,2.346c-.105-.048-.208-.1-.307-.157a3.781,3.781,0,0,0,2.193,3.022A3.866,3.866,0,0,0,255.842,162.52Z" transform="translate(-248.425 -154.959)" fill="#7e7e87"/>
          </g>
        </g>
      </g>
      <g id="Grupo_1119224" data-name="Grupo 1119224" transform="translate(-0.001 3.753)">
        <path id="Trazado_916741" data-name="Trazado 916741" d="M391.4,23.59a1.39,1.39,0,0,0,.155.009,1.363,1.363,0,0,0,1.353-1.211l.1-.91c0-.007,0-.013,0-.02.01-.1,1.3-10.163,12.521-15.02a1.363,1.363,0,0,0-1.083-2.5c-10.663,4.615-13.828,14-14.15,17.246l-.1.9A1.364,1.364,0,0,0,391.4,23.59Z" transform="translate(-319.27 -3.811)"/>
        <path id="Trazado_916742" data-name="Trazado 916742" d="M76.09,89.966a6.6,6.6,0,0,0,7.464,5.475l.541-.081-4.824,3.413a3.162,3.162,0,0,0-.754,4.4,6.155,6.155,0,0,0,8.571,1.469l2.3-1.628-.525.763a3.162,3.162,0,0,0,.81,4.392,6.1,6.1,0,0,0,3.475,1.087,6.224,6.224,0,0,0,1.128-.1,6.109,6.109,0,0,0,3.95-2.559l10.232-14.856,6.567-.975a6.688,6.688,0,0,1,6.358,2.63,6.79,6.79,0,0,1,.741,6.838l-1.345,2.985a10.259,10.259,0,0,0,.974,10.1,5.624,5.624,0,0,0,3.665,2.31,5.72,5.72,0,0,0,.968.083,5.619,5.619,0,0,0,3.258-1.041,2.609,2.609,0,0,0,.953-2.97l-.691-1.991a4.771,4.771,0,0,1,.494-4.164l1.975-3.08a18.645,18.645,0,0,0,2.774-7.1,1.363,1.363,0,1,0-2.709-.305,16.131,16.131,0,0,1-2.359,5.929l-1.975,3.08a7.483,7.483,0,0,0-.775,6.53l.658,1.9a2.934,2.934,0,0,1-4.01-.756,7.522,7.522,0,0,1-.714-7.406l1.345-2.985a9.518,9.518,0,0,0-1.038-9.585,9.411,9.411,0,0,0-8.947-3.7c-7.849,1.165-23.411,3.476-31.472,4.678A3.864,3.864,0,0,1,78.8,89.658L86.4,87.936a1.363,1.363,0,1,0-.6-2.659L78.01,87.042A2.526,2.526,0,0,0,76.079,89.9Zm9.424,12.452a3.427,3.427,0,0,1-4.771-.817.432.432,0,0,1,.1-.6c.185-.158,9.178-6.521,9.178-6.521l8.5-1.263Zm10.467,2.63a3.423,3.423,0,0,1-4.76.878.432.432,0,0,1-.111-.6l4.737-6.877c.217-.187,8.592-6.112,8.592-6.112l.331-.049Z" transform="translate(-62.224 -70.431)"/>
        <path id="Trazado_916743" data-name="Trazado 916743" d="M159.41,19.882a1.377,1.377,0,0,0,.3-.034l4.789-1.086a55.635,55.635,0,0,0,11.911-4.17l9.927-4.8a35.954,35.954,0,0,0,5.885-3.582,1.363,1.363,0,1,0-1.634-2.182,33.225,33.225,0,0,1-5.438,3.31l-9.928,4.8A52.9,52.9,0,0,1,163.9,16.1l-4.789,1.086a1.363,1.363,0,0,0,.3,2.693Z" transform="translate(-129.32 -3.753)"/>
        <path id="Trazado_916744" data-name="Trazado 916744" d="M285.413,249.109a4.357,4.357,0,0,0,4.217-5.447,8.373,8.373,0,0,0-2.865-4.122,14.458,14.458,0,0,0-2.118-1.51,1.363,1.363,0,0,0-1.823.471,14.443,14.443,0,0,0-1.121,2.347,8.375,8.375,0,0,0-.509,4.993h0A4.365,4.365,0,0,0,285.413,249.109Zm-.917-7.9a6.739,6.739,0,0,1,2.494,3.138,1.63,1.63,0,0,1-3.156.816A6.739,6.739,0,0,1,284.5,241.206Z" transform="translate(-229.929 -195.304)"/>
        <path id="Trazado_916745" data-name="Trazado 916745" d="M197.41,232.9a14.344,14.344,0,0,0-2.591.226,8.374,8.374,0,0,0-4.56,2.1,4.356,4.356,0,0,0,6.161,6.161,8.373,8.373,0,0,0,2.1-4.561,14.447,14.447,0,0,0,.226-2.591,1.363,1.363,0,0,0-1.332-1.332Zm-2.918,6.555a1.63,1.63,0,0,1-2.305-2.3,6.734,6.734,0,0,1,3.74-1.437A6.788,6.788,0,0,1,194.492,239.46Z" transform="translate(-154.632 -191.251)"/>
        <path id="Trazado_916746" data-name="Trazado 916746" d="M232.827,311.73a5.154,5.154,0,0,0,5.148-5.148c0-4.144-4.035-8.046-4.207-8.21a1.363,1.363,0,0,0-1.883,0c-.172.164-4.206,4.066-4.206,8.21A5.154,5.154,0,0,0,232.827,311.73Zm0-10.354c1.074,1.3,2.422,3.368,2.422,5.206a2.422,2.422,0,1,1-4.843,0C230.406,304.744,231.753,302.681,232.827,301.376Z" transform="translate(-186.294 -244.511)"/>
        <path id="Trazado_916747" data-name="Trazado 916747" d="M243.919,159.44a5.148,5.148,0,0,0,6.794-2.616c1.682-3.787-.422-8.991-.512-9.211a1.362,1.362,0,0,0-1.721-.764c-.223.08-5.495,2.01-7.177,5.8A5.154,5.154,0,0,0,243.919,159.44Zm-.124-5.688c.746-1.68,2.815-3.019,4.326-3.775.452,1.629.846,4.061.1,5.741a2.422,2.422,0,1,1-4.427-1.965Z" transform="translate(-197.08 -120.772)"/>
        <path id="Trazado_916748" data-name="Trazado 916748" d="M91.7,300.36H88.727a13.1,13.1,0,0,0,3.992-12.728l-.485-2.071a1.363,1.363,0,0,0-2.046-.848l-1.807,1.121a13.1,13.1,0,0,0-4.04,3.933,13.037,13.037,0,0,0-4.04-3.933l-1.807-1.121a1.363,1.363,0,0,0-2.046.848l-.485,2.071A13.1,13.1,0,0,0,80.109,300.5a5.272,5.272,0,0,0-3.365,2.489l-2.419,4.189a3.561,3.561,0,0,1-6.168,0l-2.419-4.189a5.271,5.271,0,0,0-4.553-2.629h-4.3a5.272,5.272,0,0,0-4.553,2.629l-2.419,4.189a3.561,3.561,0,0,1-6.168,0l-2.419-4.189a5.272,5.272,0,0,0-4.553-2.629H32.294a5.272,5.272,0,0,0-4.553,2.629l-2.419,4.189a3.561,3.561,0,0,1-6.168,0l-2.419-4.189a5.272,5.272,0,0,0-3.7-2.556A13.029,13.029,0,0,0,15.3,297.8a1.363,1.363,0,1,0-2.281-1.493,10.386,10.386,0,0,1-3.4,3.253,10.4,10.4,0,0,1,4.776-11.532,10.57,10.57,0,0,1,.321,2.917,1.363,1.363,0,0,0,2.725.086,13.121,13.121,0,0,0-.339-3.4l-.485-2.071a1.363,1.363,0,0,0-2.046-.848l-1.807,1.122a13.094,13.094,0,0,0-4.04,3.933,13.039,13.039,0,0,0-4.04-3.933l-1.807-1.122a1.363,1.363,0,0,0-2.046.848l-.485,2.071A13.1,13.1,0,0,0,4.336,300.36H1.363a1.363,1.363,0,0,0,0,2.727H12.182a2.538,2.538,0,0,1,2.192,1.265l2.419,4.189a6.288,6.288,0,0,0,10.891,0l2.419-4.189a2.538,2.538,0,0,1,2.192-1.265h4.481a2.538,2.538,0,0,1,2.192,1.265l2.419,4.189a6.288,6.288,0,0,0,10.891,0l2.419-4.189a2.538,2.538,0,0,1,2.192-1.265h4.3a2.538,2.538,0,0,1,2.192,1.265l2.419,4.189a6.288,6.288,0,0,0,10.891,0l2.419-4.189a2.537,2.537,0,0,1,2.192-1.265H91.7a1.363,1.363,0,1,0,0-2.726ZM3,288.253l.052-.222a10.365,10.365,0,0,1,4.208,4.735,13.086,13.086,0,0,0-.567,6.016A10.379,10.379,0,0,1,3,288.253Zm86.819-.1.193-.12a10.4,10.4,0,0,1-4.777,11.532A10.392,10.392,0,0,1,89.819,288.152Zm-11.2.1.052-.222a10.367,10.367,0,0,1,4.209,4.735,13.083,13.083,0,0,0-.567,6.016A10.378,10.378,0,0,1,78.617,288.253Z" transform="translate(0.001 -233.476)"/>
        <circle id="Elipse_11753" data-name="Elipse 11753" cx="1.363" cy="1.363" r="1.363" transform="translate(4.16 81.209)"/>
        <circle id="Elipse_11754" data-name="Elipse 11754" cx="1.363" cy="1.363" r="1.363" transform="translate(7.201 76.595)"/>
        <circle id="Elipse_11755" data-name="Elipse 11755" cx="1.363" cy="1.363" r="1.363" transform="translate(9.854 81.542)"/>
        <circle id="Elipse_11756" data-name="Elipse 11756" cx="1.363" cy="1.363" r="1.363" transform="translate(24.161 84.283)"/>
        <circle id="Elipse_11757" data-name="Elipse 11757" cx="1.363" cy="1.363" r="1.363" transform="translate(30.143 78.092)"/>
        <circle id="Elipse_11758" data-name="Elipse 11758" cx="1.363" cy="1.363" r="1.363" transform="translate(48.02 85.61)"/>
        <circle id="Elipse_11759" data-name="Elipse 11759" cx="1.363" cy="1.363" r="1.363" transform="translate(54.018 76.924)"/>
        <circle id="Elipse_11760" data-name="Elipse 11760" cx="1.363" cy="1.363" r="1.363" transform="translate(59.085 74.301)"/>
        <circle id="Elipse_11761" data-name="Elipse 11761" cx="1.363" cy="1.363" r="1.363" transform="translate(59.26 79.652)"/>
        <circle id="Elipse_11762" data-name="Elipse 11762" cx="1.363" cy="1.363" r="1.363" transform="translate(80.438 82.111)"/>
        <circle id="Elipse_11763" data-name="Elipse 11763" cx="1.363" cy="1.363" r="1.363" transform="translate(84.928 78.01)"/>
      </g>
    </g>
  </g>
</svg>
