<svg xmlns="http://www.w3.org/2000/svg" xmlns:xlink="http://www.w3.org/1999/xlink" width="117.999" height="118" viewBox="0 0 117.999 118">
  <defs>
    <filter id="Trazado_874925" x="0" y="0" width="117.999" height="118" filterUnits="userSpaceOnUse">
      <feOffset dy="3" input="SourceAlpha"/>
      <feGaussianBlur stdDeviation="3" result="blur"/>
      <feFlood flood-opacity="0.161"/>
      <feComposite operator="in" in2="blur"/>
      <feComposite in="SourceGraphic"/>
    </filter>
  </defs>
  <g id="Grupo_1119202" data-name="Grupo 1119202" transform="translate(8.999 6)">
    <g id="Grupo_1111316" data-name="Grupo 1111316" transform="translate(0 0)">
      <g id="Grupo_1109835" data-name="Grupo 1109835" transform="translate(0)">
        <g id="Grupo_1107913" data-name="Grupo 1107913">
          <g transform="matrix(1, 0, 0, 1, -9, -6)" filter="url(#Trazado_874925)">
            <g id="Trazado_874925-2" data-name="Trazado 874925" transform="translate(9 6)" fill="#9cc8ff" opacity="0.859">
              <path d="M 49.99972534179688 98.4998779296875 C 43.45164108276367 98.4998779296875 37.10022354125977 97.21776580810547 31.12189674377441 94.68914794921875 C 25.34676742553711 92.24647521972656 20.15985298156738 88.74925994873047 15.70523929595947 84.29464721679688 C 11.25062561035156 79.84004974365234 7.753411293029785 74.65313720703125 5.310725212097168 68.87800598144531 C 2.782111167907715 62.89969253540039 1.499996781349182 56.54829406738281 1.499996781349182 50.00022125244141 C 1.499996781349182 43.45157623291016 2.782111167907715 37.10017776489258 5.310725212097168 31.12186431884766 C 7.753411293029785 25.34673500061035 11.25062561035156 20.15983581542969 15.70523929595947 15.70522117614746 C 20.15985298156738 11.25062084197998 25.34676742553711 7.753406524658203 31.12189674377441 5.31073522567749 C 37.10022354125977 2.782120943069458 43.45164108276367 1.500006556510925 49.99972534179688 1.500006556510925 C 56.54780960083008 1.500006556510925 62.89922714233398 2.782120943069458 68.87755584716797 5.31073522567749 C 74.65267944335938 7.753406524658203 79.839599609375 11.25062084197998 84.29421234130859 15.70522117614746 C 88.74882507324219 20.15983581542969 92.24604034423828 25.34673500061035 94.68872833251953 31.12186431884766 C 97.21733856201172 37.10017776489258 98.49945068359375 43.45157623291016 98.49945068359375 49.99964904785156 C 98.49945068359375 56.54829406738281 97.21733856201172 62.89969253540039 94.68872833251953 68.87800598144531 C 92.24604034423828 74.65313720703125 88.74882507324219 79.84004974365234 84.29421234130859 84.29464721679688 C 79.839599609375 88.74925994873047 74.65267944335938 92.24647521972656 68.87755584716797 94.68914794921875 C 62.89922714233398 97.21776580810547 56.54780960083008 98.4998779296875 49.99972534179688 98.4998779296875 Z" stroke="none"/>
              <path d="M 49.99972534179688 3 C 43.65348052978516 3 37.49866485595703 4.242240905761719 31.70623016357422 6.692230224609375 C 26.10989379882812 9.059272766113281 21.08323669433594 12.44853210449219 16.76589202880859 16.76587677001953 C 12.44855499267578 21.08321380615234 9.059295654296875 26.10985565185547 6.692230224609375 31.70618438720703 C 4.24224853515625 37.49859619140625 3 43.65341186523438 3 50.00022888183594 C 3 56.34645843505859 4.24224853515625 62.50127410888672 6.692230224609375 68.29368591308594 C 9.059295654296875 73.8900146484375 12.44855499267578 78.91665649414062 16.76589202880859 83.23399353027344 C 21.08323669433594 87.55132293701172 26.10989379882812 90.94059753417969 31.70623016357422 93.30764007568359 C 37.49866485595703 95.75762939453125 43.65348052978516 96.99987030029297 49.99972534179688 96.99987030029297 C 56.34597015380859 96.99987030029297 62.50078582763672 95.75762939453125 68.293212890625 93.30764007568359 C 73.88955688476562 90.94059753417969 78.91621398925781 87.55132293701172 83.23355865478516 83.23399353027344 C 87.55089569091797 78.91665649414062 90.94015502929688 73.8900146484375 93.30722045898438 68.29368591308594 C 95.7572021484375 62.50127410888672 96.99945068359375 56.34645843505859 96.99945068359375 49.99964141845703 C 96.99945068359375 43.65341186523438 95.7572021484375 37.49859619140625 93.30722045898438 31.70618438720703 C 90.94015502929688 26.10985565185547 87.55089569091797 21.08321380615234 83.23355865478516 16.76587677001953 C 78.91621398925781 12.44853210449219 73.88955688476562 9.059272766113281 68.293212890625 6.692230224609375 C 62.50078582763672 4.242240905761719 56.34597015380859 3 49.99972534179688 3 M 49.99972534179688 0 C 77.61381530761719 0 99.99945068359375 22.38559722900391 99.99945068359375 49.99964141845703 L 99.99945068359375 50.00022888183594 C 99.99945068359375 77.6142578125 77.61381530761719 99.99987030029297 49.99972534179688 99.99987030029297 C 22.38563537597656 99.99987030029297 0 77.6142578125 0 50.00022888183594 L 0 49.99964141845703 C 0 22.38559722900391 22.38563537597656 0 49.99972534179688 0 Z" stroke="none" fill="#fff"/>
            </g>
          </g>
          <g id="Trazado_874923" data-name="Trazado 874923" transform="translate(0)" fill="none">
            <path d="M50,0a50,50,0,0,1,50,50h0A50,50,0,0,1,0,50H0A50,50,0,0,1,50,0Z" stroke="none"/>
            <path d="M 49.99972534179688 3 C 43.65348052978516 3 37.49866485595703 4.242240905761719 31.70623016357422 6.692230224609375 C 26.10989379882812 9.059272766113281 21.08323669433594 12.44853210449219 16.76589202880859 16.76587677001953 C 12.44855499267578 21.08321380615234 9.059295654296875 26.10985565185547 6.692230224609375 31.70618438720703 C 4.24224853515625 37.49859619140625 3 43.65341186523438 3 50.00022888183594 C 3 56.34645843505859 4.24224853515625 62.50127410888672 6.692230224609375 68.29368591308594 C 9.059295654296875 73.8900146484375 12.44855499267578 78.91665649414062 16.76589202880859 83.23399353027344 C 21.08323669433594 87.55132293701172 26.10989379882812 90.94059753417969 31.70623016357422 93.30764007568359 C 37.49866485595703 95.75762939453125 43.65348052978516 96.99987030029297 49.99972534179688 96.99987030029297 C 56.34597015380859 96.99987030029297 62.50078582763672 95.75762939453125 68.293212890625 93.30764007568359 C 73.88955688476562 90.94059753417969 78.91621398925781 87.55132293701172 83.23355865478516 83.23399353027344 C 87.55089569091797 78.91665649414062 90.94015502929688 73.8900146484375 93.30722045898438 68.29368591308594 C 95.7572021484375 62.50127410888672 96.99945068359375 56.34645843505859 96.99945068359375 49.99964141845703 C 96.99945068359375 43.65341186523438 95.7572021484375 37.49859619140625 93.30722045898438 31.70618438720703 C 90.94015502929688 26.10985565185547 87.55089569091797 21.08321380615234 83.23355865478516 16.76587677001953 C 78.91621398925781 12.44853210449219 73.88955688476562 9.059272766113281 68.293212890625 6.692230224609375 C 62.50078582763672 4.242240905761719 56.34597015380859 3 49.99972534179688 3 M 49.99972534179688 0 C 77.61381530761719 0 99.99945068359375 22.38559722900391 99.99945068359375 49.99964141845703 L 99.99945068359375 50.00022888183594 C 99.99945068359375 77.6142578125 77.61381530761719 99.99987030029297 49.99972534179688 99.99987030029297 C 22.38563537597656 99.99987030029297 0 77.6142578125 0 50.00022888183594 L 0 49.99964141845703 C 0 22.38559722900391 22.38563537597656 0 49.99972534179688 0 Z" stroke="none" fill="#fff"/>
          </g>
        </g>
      </g>
    </g>
    <g id="Grupo_1119201" data-name="Grupo 1119201" transform="translate(19 18)">
      <g id="Grupo_1119199" data-name="Grupo 1119199" transform="translate(0.924 0.924)">
        <g id="Grupo_1119197" data-name="Grupo 1119197">
          <path id="Trazado_916606" data-name="Trazado 916606" d="M75,7.5h44.58v3.694H75Z" transform="translate(-66.686 -7.5)" fill="#ffd9ab" fill-rule="evenodd"/>
          <path id="Trazado_916607" data-name="Trazado 916607" d="M46.457,37.5,48.3,46.163H58.5L53.887,37.5ZM17.7,46.163,22.319,37.5H15.813L7.5,46.163ZM29.749,37.5,27.9,46.163H38.1V37.5Z" transform="translate(-7.5 -33.806)" fill="#ff5678" fill-rule="evenodd"/>
          <path id="Trazado_916608" data-name="Trazado 916608" d="M58.5,107.844H48.3v5a5.119,5.119,0,0,0,10.2,0Zm-40.8,0H7.5v5.015a4.93,4.93,0,0,0,5.1,4.67,4.928,4.928,0,0,0,5.1-4.687Zm20.4,0H27.9v5a4.921,4.921,0,0,0,5.1,4.687,4.921,4.921,0,0,0,5.1-4.687Z" transform="translate(-7.5 -95.487)" fill="#ff5678" fill-rule="evenodd"/>
          <path id="Trazado_916609" data-name="Trazado 916609" d="M126.519,37.5l4.618,8.663h10.2L133.025,37.5ZM90.333,46.163h10.2l1.847-8.663h-7.43Zm20.4,0h10.2L119.088,37.5h-8.354Z" transform="translate(-80.132 -33.806)" fill="#fe8" fill-rule="evenodd"/>
          <path id="Trazado_916610" data-name="Trazado 916610" d="M141.338,107.844h-10.2v5a4.834,4.834,0,0,0,4.177,4.61,5.52,5.52,0,0,0,.924.078,4.93,4.93,0,0,0,5.1-4.67Zm-51,0v5a5.119,5.119,0,0,0,10.2,0v-5Zm20.4,0v5a5.119,5.119,0,0,0,10.2,0v-5Z" transform="translate(-80.132 -95.487)" fill="#fe8" fill-rule="evenodd"/>
          <path id="Trazado_916611" data-name="Trazado 916611" d="M30.111,199.94V181.018a5.518,5.518,0,0,1-.924.078,5.388,5.388,0,0,1-2.771-.757v19.6Z" transform="translate(-24.087 -159.054)" fill="#ffd9ab" fill-rule="evenodd"/>
          <path id="Trazado_916612" data-name="Trazado 916612" d="M455.583,181.018V199.94h3.695v-19.6a5.388,5.388,0,0,1-2.771.757A5.505,5.505,0,0,1,455.583,181.018Z" transform="translate(-400.402 -159.054)" fill="#ffd9ab" fill-rule="evenodd"/>
          <path id="Trazado_916613" data-name="Trazado 916613" d="M100.271,283.2a3.706,3.706,0,0,0-3.694-3.694H90.111a3.705,3.705,0,0,0-3.694,3.694v3.694h13.854V283.2Z" transform="translate(-76.698 -246.005)" fill="#ffd9ab" fill-rule="evenodd"/>
          <path id="Trazado_916614" data-name="Trazado 916614" d="M230.763,309.5a1.847,1.847,0,1,0,0,3.694h2.053a1.847,1.847,0,0,0,0-3.694Z" transform="translate(-201.649 -272.31)" fill="#ff5678" fill-rule="evenodd"/>
          <path id="Trazado_916615" data-name="Trazado 916615" d="M305.584,266.348v7.389h5.542v-7.389L310.2,264.5h-3.694Z" transform="translate(-268.875 -232.851)" fill="#86e895" fill-rule="evenodd"/>
          <path id="Trazado_916616" data-name="Trazado 916616" d="M313.084,227h3.695v4.618h-3.695Z" transform="translate(-275.451 -199.969)" fill="#86e895" fill-rule="evenodd"/>
          <path id="Trazado_916617" data-name="Trazado 916617" d="M380.583,266.348v7.389h5.542v-7.389L385.2,264.5h-3.695Z" transform="translate(-334.638 -232.851)" fill="#86e895" fill-rule="evenodd"/>
          <path id="Trazado_916618" data-name="Trazado 916618" d="M388.083,227h3.694v4.618h-3.694Z" transform="translate(-341.214 -199.969)" fill="#86e895" fill-rule="evenodd"/>
          <path id="Trazado_916619" data-name="Trazado 916619" d="M82.963,369.5H26.417v12.931H82.963ZM54.69,373.2a2.771,2.771,0,1,1-2.771,2.771A2.771,2.771,0,0,1,54.69,373.2Z" transform="translate(-24.087 -324.921)" fill="#ffd9ab" fill-rule="evenodd"/>
          <circle id="Elipse_11750" data-name="Elipse 11750" cx="2.771" cy="2.771" r="2.771" transform="translate(27.832 48.275)" fill="#fe8"/>
          <path id="Trazado_916620" data-name="Trazado 916620" d="M7.5,339.5H68.705V343.2H7.5Z" transform="translate(-7.5 -298.615)" fill="#ee795f" fill-rule="evenodd"/>
          <path id="Trazado_916621" data-name="Trazado 916621" d="M7.5,339.5h2.771V343.2H7.5Z" transform="translate(-7.5 -298.615)" fill="#d34f30" fill-rule="evenodd"/>
          <path id="Trazado_916622" data-name="Trazado 916622" d="M7.5,474.5H68.705v3.694H7.5Z" transform="translate(-7.5 -416.989)" fill="#ee795f" fill-rule="evenodd"/>
          <path id="Trazado_916623" data-name="Trazado 916623" d="M7.5,474.5h2.771v3.694H7.5Z" transform="translate(-7.5 -416.989)" fill="#d34f30" fill-rule="evenodd"/>
          <path id="Trazado_916624" data-name="Trazado 916624" d="M75,7.5H77.77v3.694H75Z" transform="translate(-66.687 -7.5)" fill="#ffaf7c" fill-rule="evenodd"/>
          <path id="Trazado_916625" data-name="Trazado 916625" d="M10.271,107.844H7.5v5.015a4.93,4.93,0,0,0,5.1,4.67,5.4,5.4,0,0,0,1.385-.182,4.765,4.765,0,0,1-3.715-4.488Z" transform="translate(-7.5 -95.487)" fill="#ff1142" fill-rule="evenodd"/>
          <path id="Trazado_916626" data-name="Trazado 916626" d="M18.583,37.5H15.812L7.5,46.163h2.771Z" transform="translate(-7.5 -33.806)" fill="#ff1142" fill-rule="evenodd"/>
          <path id="Trazado_916627" data-name="Trazado 916627" d="M26.417,369.5h2.771v12.931H26.417Z" transform="translate(-24.087 -324.921)" fill="#ffaf7c" fill-rule="evenodd"/>
          <path id="Trazado_916628" data-name="Trazado 916628" d="M92.882,279.5H90.112a3.705,3.705,0,0,0-3.694,3.694v3.695h2.771V283.2A3.705,3.705,0,0,1,92.882,279.5Z" transform="translate(-76.698 -246.004)" fill="#ffaf7c" fill-rule="evenodd"/>
          <path id="Trazado_916629" data-name="Trazado 916629" d="M305.584,266.348v7.389h2.771V264.5h-1.847Z" transform="translate(-268.875 -232.851)" fill="#00d23d" fill-rule="evenodd"/>
          <path id="Trazado_916630" data-name="Trazado 916630" d="M380.583,266.348v7.389h2.771V264.5h-1.847Z" transform="translate(-334.638 -232.851)" fill="#00d23d" fill-rule="evenodd"/>
        </g>
        <g id="Grupo_1119198" data-name="Grupo 1119198" transform="translate(50.563 47.351)">
          <path id="Trazado_916631" data-name="Trazado 916631" d="M423.625,393.848h-1.847V392h1.847Zm-3.695,0h-1.847V392h1.847Z" transform="translate(-418.083 -392.001)" fill="#fff"/>
        </g>
      </g>
      <g id="Grupo_1119200" data-name="Grupo 1119200">
        <path id="Trazado_916632" data-name="Trazado 916632" d="M63.053,18.279V12.91L54.74,4.247V0H8.312V4.247L5.63,7.042,6.963,8.321,9.63,5.542H14.2L10.57,12.357H3.09l2.594-2.7L4.351,8.375,0,12.91v5.369a5.477,5.477,0,0,0,2.33,4.427v18.18H0v5.542H2.33V57.511H0v5.542H55.664V61.205H1.847V59.358H61.205v1.847H57.511v1.847h5.542V57.511h-2.33V46.428h2.33V40.886h-2.33V22.706a5.477,5.477,0,0,0,2.33-4.427Zm-6.024,3.763a3.991,3.991,0,0,1-4.177-3.763V14.2h8.354v4.074A3.991,3.991,0,0,1,57.029,22.042ZM53.334,40.886V34.2l-.924-1.847V27.031H46.869v5.324L45.945,34.2v6.683H44.1V34.2l-.924-1.847V27.031H37.633v5.324L36.709,34.2v6.683H34.7a2.77,2.77,0,0,0-2.612-3.694H30.038a2.77,2.77,0,0,0-2.612,3.694H25.42V38.115A4.623,4.623,0,0,0,20.8,33.5H14.337a4.623,4.623,0,0,0-4.618,4.618v2.771H7.871V23.618a6.007,6.007,0,0,0,3.253-2.36,6.26,6.26,0,0,0,10.2,0,6.26,6.26,0,0,0,10.2,0,6.26,6.26,0,0,0,10.2,0,6.26,6.26,0,0,0,10.2,0,6.007,6.007,0,0,0,3.253,2.36V40.886ZM50.563,31.65H48.716V28.879h1.847Zm-2.2,1.847h2.553l.571,1.142v6.247H47.792V34.638ZM41.327,31.65H39.48V28.879h1.847Zm-2.2,1.847H41.68l.571,1.142v6.247H38.556V34.638ZM29.115,39.962a.925.925,0,0,1,.924-.924h2.053a.924.924,0,1,1,0,1.847H30.038A.925.925,0,0,1,29.115,39.962ZM16.646,37.191V35.344h1.847v1.847H20.34V35.344H20.8a2.774,2.774,0,0,1,2.771,2.771v2.771H11.566V38.115a2.774,2.774,0,0,1,2.771-2.771H14.8v1.847ZM12.048,14.2H20.4v4.074a3.991,3.991,0,0,1-4.177,3.763,3.991,3.991,0,0,1-4.177-3.763V14.2ZM30.6,5.542v6.816H22.467L23.92,5.542Zm22.82,0,6.54,6.816h-7.48L48.849,5.542ZM22.249,14.2H30.6v4.074a3.991,3.991,0,0,1-4.177,3.763,3.991,3.991,0,0,1-4.177-3.763V14.2Zm10.2,0H40.8v4.074a3.991,3.991,0,0,1-4.177,3.763,3.991,3.991,0,0,1-4.177-3.763Zm10.2,0H51v4.074a4.2,4.2,0,0,1-8.354,0Zm4.1-8.663,3.633,6.816H42.475L41.021,5.542Zm-7.623,0,1.453,6.816H32.45V5.542Zm13.76-3.694V3.694H10.16V1.847ZM16.3,5.542h5.734l-1.453,6.816H12.664ZM1.847,14.2H10.2v4.074a3.991,3.991,0,0,1-4.177,3.763,3.991,3.991,0,0,1-4.177-3.763Zm2.33,9.414a6.4,6.4,0,0,0,1.847.271v17H4.177Zm54.7,33.893H4.177V46.428h54.7Zm2.33-12.931H1.847V42.733H61.205Zm-2.33-3.694H57.029v-17a6.4,6.4,0,0,0,1.847-.271Z" transform="translate(0 0)"/>
        <path id="Trazado_916633" data-name="Trazado 916633" d="M229.694,399.39A3.694,3.694,0,1,0,226,395.7,3.7,3.7,0,0,0,229.694,399.39Zm0-5.542a1.847,1.847,0,1,1-1.847,1.847A1.849,1.849,0,0,1,229.694,393.848Z" transform="translate(-198.168 -343.726)"/>
      </g>
    </g>
  </g>
</svg>
