<svg xmlns="http://www.w3.org/2000/svg" width="190" height="167.7" viewBox="0 0 190 167.7">
  <g id="Grupo_1119236" data-name="Grupo 1119236" transform="translate(-810.051 -1924)">
    <rect id="Rectángulo_404962" data-name="Rectángulo 404962" width="190" height="167.7" rx="8" transform="translate(810.051 1924)" fill="#9cc8ff"/>
    <g id="Grupo_1119235" data-name="Grupo 1119235" transform="translate(853.052 1955.999)">
      <g id="Grupo_1119233" data-name="Grupo 1119233" transform="translate(2.218 1.384)">
        <g id="Grupo_1119232" data-name="Grupo 1119232">
          <g id="Grupo_1119229" data-name="Grupo 1119229" transform="translate(29.078)">
            <g id="Grupo_1119228" data-name="Grupo 1119228">
              <g id="Grupo_1119227" data-name="Grupo 1119227">
                <path id="Trazado_916749" data-name="Trazado 916749" d="M240.073,299.3c-.809,0-1.563.291-2.2-.116a4.065,4.065,0,0,1-1.871-3.424v-2.672h7.784l-.176,2.672A3.226,3.226,0,0,1,240.073,299.3Z" transform="translate(-219.293 -234.848)" fill="#918291"/>
                <path id="Trazado_916750" data-name="Trazado 916750" d="M233.052,268.637l-4.04.351h-4.465a2.694,2.694,0,0,1-2.694-2.694v-4.72h13.542v4.72A2.133,2.133,0,0,1,233.052,268.637Z" transform="translate(-208.02 -209.746)" fill="#7a6d79"/>
                <path id="Trazado_916751" data-name="Trazado 916751" d="M247.08,293.085v2.672a4.063,4.063,0,0,1-1.872,3.423,4.067,4.067,0,0,0,6.263-3.423v-2.672Z" transform="translate(-226.624 -234.847)" fill="#7a6d79"/>
                <path id="Trazado_916752" data-name="Trazado 916752" d="M258.013,263.281v4.373a2.694,2.694,0,0,1-2.694,2.694h4.392a2.694,2.694,0,0,0,2.694-2.694v-4.373Z" transform="translate(-234.678 -211.106)" fill="#685e68"/>
                <path id="Trazado_916753" data-name="Trazado 916753" d="M225.2,242.684l-4.04.351H211.3a2.694,2.694,0,0,1-2.694-2.694v-4.148h18.93v4.148a2.133,2.133,0,0,1-2.343,2.343Z" transform="translate(-197.471 -189.528)" fill="#918291"/>
                <path id="Trazado_916754" data-name="Trazado 916754" d="M271.255,238.333v3.713a2.694,2.694,0,0,1-2.694,2.694h4.392a2.694,2.694,0,0,0,2.694-2.694v-3.713Z" transform="translate(-245.226 -191.233)" fill="#7a6d79"/>
                <path id="Trazado_916755" data-name="Trazado 916755" d="M194.124,28.008c0-11.237-7.632-20.03-18.777-20.407a21.388,21.388,0,0,0-3.068-.237A20.777,20.777,0,0,0,159.9,42.66a10.943,10.943,0,0,1,3.22,7.709V53.7a1.358,1.358,0,0,0,1.358,1.358h15.91l3.887-.528a1.358,1.358,0,0,0,1.358-1.358l-.178-3.191a11.625,11.625,0,0,1,3.22-8.005c3.737-3.757,5.453-8.247,5.453-13.965Z" transform="translate(-153.851 -7.229)" fill="#ffe177"/>
                <path id="Trazado_916756" data-name="Trazado 916756" d="M247.505,6.809a20.646,20.646,0,0,0-3.068.125A20.779,20.779,0,0,1,256.78,42.229a10.959,10.959,0,0,0-3.231,7.719v3.317a1.358,1.358,0,0,1-1.358,1.358h4.743a1.358,1.358,0,0,0,1.358-1.358V49.948a10.958,10.958,0,0,1,3.231-7.719,20.779,20.779,0,0,0-14.018-35.42Z" transform="translate(-226.009 -6.797)" fill="#ffd15b"/>
              </g>
            </g>
          </g>
          <path id="Trazado_916757" data-name="Trazado 916757" d="M285.717,320.416a7.081,7.081,0,0,0,1.006,4.611c2.027,3.431,7.079,5.141,15.714.651,3.2-1.662,5.292-1.437,6.875-.964,1.188.355,1.585-.478,1.321-1.689-.173-.8.173-1.343-.327-2.263a16.357,16.357,0,0,0-1.453-2.2C302.8,310.748,287.55,309.925,285.717,320.416Z" transform="translate(-229.757 -250.407)" fill="#98d5b9"/>
          <path id="Trazado_916758" data-name="Trazado 916758" d="M314.53,351.523c-2.054-.583-4.8-.4-8.9,1.728-6.361,3.307-11.2,3.659-14.682,2.537,2.03,3.428,7.007,6.023,15.636,1.537,3.2-1.662,5.32-1.777,6.9-1.3a1.627,1.627,0,0,0,2.042-1.92A9.81,9.81,0,0,0,314.53,351.523Z" transform="translate(-233.979 -281.168)" fill="#7acaa6"/>
          <path id="Trazado_916759" data-name="Trazado 916759" d="M124.451,320.506c.736,4.212-4.609,11.614-15.442,6.06q-.237-.122-.466-.234c-2.939-1.437-4.932-1.52-6.438-1.07a1.627,1.627,0,0,1-2.042-1.92,12.3,12.3,0,0,1,2.45-4.775A16.568,16.568,0,0,1,117.54,312.8c4,.646,6.115,3.155,6.91,7.7Z" transform="translate(-81.896 -250.409)" fill="#98d5b9"/>
          <g id="Grupo_1119230" data-name="Grupo 1119230" transform="translate(26.647 62.391)">
            <path id="Trazado_916760" data-name="Trazado 916760" d="M159.01,321.118c-.8-4.55-4.113-6.971-8.111-7.617a8.79,8.79,0,0,1,3.228,5.583c.642,3.677-2.947,10.594-12.225,7.948.153.075.307.152.466.234C154.929,333.8,159.746,325.33,159.01,321.118Z" transform="translate(-141.902 -313.501)" fill="#7acaa6"/>
          </g>
          <g id="Grupo_1119231" data-name="Grupo 1119231" transform="translate(0 83.96)">
            <path id="Trazado_916761" data-name="Trazado 916761" d="M108.687,436.494l-10.472.321H11.207a.3.3,0,0,1-.163-.543l.33-.216a53.692,53.692,0,0,0,11.506-7.541l.907-.759v0A10.487,10.487,0,0,1,36.334,426.7c.305-.393,1.017-.3,1.367-.665s.368-1.2.775-1.54a13.823,13.823,0,0,1,8.741-3.271,13.5,13.5,0,0,1,5.818,1.312.406.406,0,0,0,.46-.075,10.485,10.485,0,0,1,14.537-.006.414.414,0,0,0,.474.069,12.826,12.826,0,0,1,5.812-1.3,13.743,13.743,0,0,1,8.753,3.263c.374.313.382.989.72,1.336.38.389,1.082.452,1.41.877a9.437,9.437,0,0,1,5.343-1.23,9.814,9.814,0,0,1,6.786,2.469L99.2,429.5a55.478,55.478,0,0,0,5.221,3.661,36.5,36.5,0,0,0,4.4,2.771.3.3,0,0,1-.132.559Z" transform="translate(-10.91 -419.53)" fill="#b98080"/>
          </g>
          <path id="Trazado_916762" data-name="Trazado 916762" d="M199.15,347.88a20.93,20.93,0,0,1,4.855,2.094,7.211,7.211,0,0,0,.677-3.131,25,25,0,0,0-4.88-1.944A7.24,7.24,0,0,1,199.15,347.88Z" transform="translate(-160.857 -276.12)" fill="#54ba8b"/>
          <path id="Trazado_916763" data-name="Trazado 916763" d="M400.976,458.625H389.125c-9.54-10.2-13.014-10.114-13.014-10.114a10.487,10.487,0,0,1,12.547,1.058v0l1.867,1.562a54.816,54.816,0,0,0,5.09,3.778,54.162,54.162,0,0,0,5.492,3.159A.3.3,0,0,1,400.976,458.625Z" transform="translate(-301.82 -357.38)" fill="#ae6c6c"/>
        </g>
      </g>
      <g id="Grupo_1119234" data-name="Grupo 1119234" transform="translate(-0.002 0.001)">
        <path id="Trazado_916764" data-name="Trazado 916764" d="M57.1,101.153H68.981a1.526,1.526,0,1,0,0-3.051H57.1a1.526,1.526,0,1,0,0,3.051Z" transform="translate(-44.265 -78.146)"/>
        <path id="Trazado_916765" data-name="Trazado 916765" d="M83.083,53.626l6.454,3.39a1.526,1.526,0,0,0,1.419-2.7L84.5,50.924a1.526,1.526,0,1,0-1.419,2.7Z" transform="translate(-65.531 -40.425)"/>
        <path id="Trazado_916766" data-name="Trazado 916766" d="M89.537,128.96l-6.454,3.39a1.526,1.526,0,1,0,1.419,2.7l6.454-3.391a1.526,1.526,0,0,0-1.419-2.7Z" transform="translate(-65.531 -102.586)"/>
        <path id="Trazado_916767" data-name="Trazado 916767" d="M383.008,99.628a1.525,1.525,0,0,0,1.526,1.526h11.885a1.526,1.526,0,1,0,0-3.051H384.534A1.526,1.526,0,0,0,383.008,99.628Z" transform="translate(-305.094 -78.146)"/>
        <path id="Trazado_916768" data-name="Trazado 916768" d="M384.534,57.192a1.518,1.518,0,0,0,.708-.175l6.454-3.39a1.526,1.526,0,0,0-1.419-2.7l-6.454,3.39a1.526,1.526,0,0,0,.711,2.877Z" transform="translate(-305.093 -40.426)"/>
        <path id="Trazado_916769" data-name="Trazado 916769" d="M383.823,131.662l6.454,3.39a1.526,1.526,0,0,0,1.419-2.7l-6.454-3.391a1.526,1.526,0,1,0-1.419,2.7Z" transform="translate(-305.093 -102.587)"/>
        <path id="Trazado_916770" data-name="Trazado 916770" d="M459.285,472.554l-1.12-.559a52.857,52.857,0,0,1-8.82-5.564,1.526,1.526,0,0,0-1.875,2.407,55.935,55.935,0,0,0,9.331,5.886l1.121.559a1.526,1.526,0,1,0,1.363-2.73Z" transform="translate(-355.974 -371.292)"/>
        <path id="Trazado_916771" data-name="Trazado 916771" d="M87.446,90.655a11.855,11.855,0,0,0-5.369-1.267,11.984,11.984,0,0,0-5.189,1.18,14.963,14.963,0,0,0-11.262-5.055,14.672,14.672,0,0,0-5.8,1.137A11.887,11.887,0,0,0,53.6,83.915v-2.7a10.845,10.845,0,0,1,3.9-5.1,9.348,9.348,0,0,0,5.483,4.8,1.526,1.526,0,1,0,.967-2.894,6.246,6.246,0,0,1-3.82-3.5,25.971,25.971,0,0,1,12.7-2.42,1.526,1.526,0,0,0,.222-3.043,29.521,29.521,0,0,0-13.316,2.28,7.435,7.435,0,0,1,5.881-5.864A15.037,15.037,0,0,1,80.11,70.477a10.84,10.84,0,0,1,2.166,4.163.11.11,0,0,1-.035.115.069.069,0,0,1-.079.02c-2.277-.681-4.909-.219-8.045,1.412a22.527,22.527,0,0,1-3.958,1.638,1.526,1.526,0,0,0,.865,2.926,25.565,25.565,0,0,0,4.5-1.857c2.4-1.248,4.284-1.639,5.765-1.2a3.108,3.108,0,0,0,3.026-.706,3.145,3.145,0,0,0,.943-3,13.8,13.8,0,0,0-2.736-5.385,18.046,18.046,0,0,0-17.63-6.1,10.519,10.519,0,0,0-8.216,8.625,7.008,7.008,0,0,0-.059,1.878A16.531,16.531,0,0,0,53.6,75.5V67.673A5.593,5.593,0,0,0,57.66,62.3v-.361a4.218,4.218,0,0,0,2.873-3.991v-1.8a4.217,4.217,0,0,0,2.688-3.923V50.583a2.883,2.883,0,0,0,1.858-2.69v-3.31a9.362,9.362,0,0,1,2.78-6.628A22.236,22.236,0,0,0,41,2.985a1.526,1.526,0,1,0,1.53,2.64A19.191,19.191,0,0,1,65.7,35.8a12.393,12.393,0,0,0-3.668,8.78v3.139H53.6V29.9l7.565-7.325a1.526,1.526,0,0,0-2.122-2.192l-6.968,6.747-6.968-6.747a1.526,1.526,0,0,0-2.122,2.192L50.55,29.9V47.722H42.112V44.571A12.372,12.372,0,0,0,38.456,35.8a19.131,19.131,0,0,1-1-25.946,1.526,1.526,0,0,0-2.321-1.981,22.182,22.182,0,0,0,1.155,30.078,9.34,9.34,0,0,1,2.768,6.615v3.322a2.883,2.883,0,0,0,1.87,2.694v1.641a4.217,4.217,0,0,0,2.688,3.923v1.8a4.219,4.219,0,0,0,2.873,3.991V62.3a5.593,5.593,0,0,0,4.059,5.371v7.808a16.377,16.377,0,0,0-3.013-2.495,6.994,6.994,0,0,0-.061-1.857c-1.006-5.755-5.734-9.226-12.334-9.054a1.526,1.526,0,1,0,.079,3.05c4.923-.123,8.321,2.179,9.182,6.189a29.9,29.9,0,0,0-13.313-2.268,1.526,1.526,0,1,0,.222,3.043,26.457,26.457,0,0,1,11.442,1.85c.408.168.834.359,1.266.572a6.369,6.369,0,0,1-3.152,3.235c-2.717,1.25-6.463.71-10.833-1.562-3.137-1.631-5.768-2.093-8.044-1.412a.069.069,0,0,1-.081-.02.11.11,0,0,1-.035-.114,10.845,10.845,0,0,1,2.166-4.164,13.447,13.447,0,0,1,4.867-3.813,1.526,1.526,0,1,0-1.31-2.756,16.509,16.509,0,0,0-5.968,4.7,13.8,13.8,0,0,0-2.736,5.386,3.144,3.144,0,0,0,.943,3,3.108,3.108,0,0,0,3.028.705c1.479-.443,3.365-.051,5.763,1.2a19.683,19.683,0,0,0,9.018,2.557,10.651,10.651,0,0,0,4.5-.931,9.437,9.437,0,0,0,4.5-4.413,10.847,10.847,0,0,1,3.907,5.1v2.7a11.888,11.888,0,0,0-6.241,2.75,15.077,15.077,0,0,0-17.046,3.9,12.009,12.009,0,0,0-13.123,1.813,64.7,64.7,0,0,1-13.3,8.884,1.526,1.526,0,1,0,1.365,2.729,67.819,67.819,0,0,0,13.9-9.282,8.959,8.959,0,0,1,10.665-.94A9.259,9.259,0,0,1,29.6,96.9a1.526,1.526,0,1,0,2.676-1.465,11.919,11.919,0,0,0-2.469-3.126,12.014,12.014,0,0,1,14.1-2.468,1.525,1.525,0,0,0,1.772-.293,8.961,8.961,0,0,1,12.778,0,1.525,1.525,0,0,0,1.819.268,11.163,11.163,0,0,1,5.342-1.251,11.931,11.931,0,0,1,8.715,3.743,11.92,11.92,0,0,0-2.47,3.128A1.526,1.526,0,1,0,74.548,96.9a9.233,9.233,0,0,1,2.827-3.125,8.931,8.931,0,0,1,4.7-1.333,8.836,8.836,0,0,1,4,.942,1.526,1.526,0,0,0,1.37-2.728ZM45.144,53.39a1.164,1.164,0,0,1-1.162-1.162V50.774H60.169v1.454a1.164,1.164,0,0,1-1.162,1.162Zm2.688,5.723a1.164,1.164,0,0,1-1.162-1.162V56.442H57.481v1.509a1.164,1.164,0,0,1-1.162,1.162Zm1.71,3.19v-.138h5.066V62.3a2.533,2.533,0,1,1-5.066,0Z" transform="translate(0.002 -0.001)"/>
        <circle id="Elipse_11764" data-name="Elipse 11764" cx="1.526" cy="1.526" r="1.526" transform="translate(20.545 94.642)"/>
        <circle id="Elipse_11765" data-name="Elipse 11765" cx="1.526" cy="1.526" r="1.526" transform="translate(33.405 91.463)"/>
        <circle id="Elipse_11766" data-name="Elipse 11766" cx="1.526" cy="1.526" r="1.526" transform="translate(35.374 96.633)"/>
        <circle id="Elipse_11767" data-name="Elipse 11767" cx="1.526" cy="1.526" r="1.526" transform="translate(60.835 93.387)"/>
        <circle id="Elipse_11768" data-name="Elipse 11768" cx="1.526" cy="1.526" r="1.526" transform="translate(65.508 90.989)"/>
        <circle id="Elipse_11769" data-name="Elipse 11769" cx="1.526" cy="1.526" r="1.526" transform="translate(65.829 96.061)"/>
      </g>
    </g>
  </g>
</svg>
