<svg xmlns="http://www.w3.org/2000/svg" xmlns:xlink="http://www.w3.org/1999/xlink" width="118" height="118" viewBox="0 0 118 118">
  <defs>
    <filter id="Trazado_874925" x="0" y="0" width="117.999" height="118" filterUnits="userSpaceOnUse">
      <feOffset dy="3" input="SourceAlpha"/>
      <feGaussianBlur stdDeviation="3" result="blur"/>
      <feFlood flood-opacity="0.161"/>
      <feComposite operator="in" in2="blur"/>
      <feComposite in="SourceGraphic"/>
    </filter>
  </defs>
  <g id="Grupo_1116049" data-name="Grupo 1116049" transform="translate(-1064.052 -1818)">
    <g id="Grupo_1111553" data-name="Grupo 1111553" transform="translate(264.552 -693.157)">
      <g id="Grupo_1111316" data-name="Grupo 1111316" transform="translate(808.5 2517.157)">
        <g id="Grupo_1109835" data-name="Grupo 1109835" transform="translate(0 0)">
          <g id="Grupo_1107913" data-name="Grupo 1107913" transform="translate(0 0)">
            <g transform="matrix(1, 0, 0, 1, -9, -6)" filter="url(#Trazado_874925)">
              <g id="Trazado_874925-2" data-name="Trazado 874925" transform="translate(9 6)" fill="#9cc8ff" opacity="0.859">
                <path d="M 49.99972534179688 98.4998779296875 C 43.45164108276367 98.4998779296875 37.10022354125977 97.21776580810547 31.12189674377441 94.68914794921875 C 25.34676742553711 92.24647521972656 20.15985298156738 88.74925994873047 15.70523929595947 84.29464721679688 C 11.25062561035156 79.84004974365234 7.753411293029785 74.65313720703125 5.310725212097168 68.87800598144531 C 2.782111167907715 62.89969253540039 1.499996781349182 56.54829406738281 1.499996781349182 50.00022125244141 C 1.499996781349182 43.45157623291016 2.782111167907715 37.10017776489258 5.310725212097168 31.12186431884766 C 7.753411293029785 25.34673500061035 11.25062561035156 20.15983581542969 15.70523929595947 15.70522117614746 C 20.15985298156738 11.25062084197998 25.34676742553711 7.753406524658203 31.12189674377441 5.31073522567749 C 37.10022354125977 2.782120943069458 43.45164108276367 1.500006556510925 49.99972534179688 1.500006556510925 C 56.54780960083008 1.500006556510925 62.89922714233398 2.782120943069458 68.87755584716797 5.31073522567749 C 74.65267944335938 7.753406524658203 79.839599609375 11.25062084197998 84.29421234130859 15.70522117614746 C 88.74882507324219 20.15983581542969 92.24604034423828 25.34673500061035 94.68872833251953 31.12186431884766 C 97.21733856201172 37.10017776489258 98.49945068359375 43.45157623291016 98.49945068359375 49.99964904785156 C 98.49945068359375 56.54829406738281 97.21733856201172 62.89969253540039 94.68872833251953 68.87800598144531 C 92.24604034423828 74.65313720703125 88.74882507324219 79.84004974365234 84.29421234130859 84.29464721679688 C 79.839599609375 88.74925994873047 74.65267944335938 92.24647521972656 68.87755584716797 94.68914794921875 C 62.89922714233398 97.21776580810547 56.54780960083008 98.4998779296875 49.99972534179688 98.4998779296875 Z" stroke="none"/>
                <path d="M 49.99972534179688 3 C 43.65348052978516 3 37.49866485595703 4.242240905761719 31.70623016357422 6.692230224609375 C 26.10989379882812 9.059272766113281 21.08323669433594 12.44853210449219 16.76589202880859 16.76587677001953 C 12.44855499267578 21.08321380615234 9.059295654296875 26.10985565185547 6.692230224609375 31.70618438720703 C 4.24224853515625 37.49859619140625 3 43.65341186523438 3 50.00022888183594 C 3 56.34645843505859 4.24224853515625 62.50127410888672 6.692230224609375 68.29368591308594 C 9.059295654296875 73.8900146484375 12.44855499267578 78.91665649414062 16.76589202880859 83.23399353027344 C 21.08323669433594 87.55132293701172 26.10989379882812 90.94059753417969 31.70623016357422 93.30764007568359 C 37.49866485595703 95.75762939453125 43.65348052978516 96.99987030029297 49.99972534179688 96.99987030029297 C 56.34597015380859 96.99987030029297 62.50078582763672 95.75762939453125 68.293212890625 93.30764007568359 C 73.88955688476562 90.94059753417969 78.91621398925781 87.55132293701172 83.23355865478516 83.23399353027344 C 87.55089569091797 78.91665649414062 90.94015502929688 73.8900146484375 93.30722045898438 68.29368591308594 C 95.7572021484375 62.50127410888672 96.99945068359375 56.34645843505859 96.99945068359375 49.99964141845703 C 96.99945068359375 43.65341186523438 95.7572021484375 37.49859619140625 93.30722045898438 31.70618438720703 C 90.94015502929688 26.10985565185547 87.55089569091797 21.08321380615234 83.23355865478516 16.76587677001953 C 78.91621398925781 12.44853210449219 73.88955688476562 9.059272766113281 68.293212890625 6.692230224609375 C 62.50078582763672 4.242240905761719 56.34597015380859 3 49.99972534179688 3 M 49.99972534179688 0 C 77.61381530761719 0 99.99945068359375 22.38559722900391 99.99945068359375 49.99964141845703 L 99.99945068359375 50.00022888183594 C 99.99945068359375 77.6142578125 77.61381530761719 99.99987030029297 49.99972534179688 99.99987030029297 C 22.38563537597656 99.99987030029297 0 77.6142578125 0 50.00022888183594 L 0 49.99964141845703 C 0 22.38559722900391 22.38563537597656 0 49.99972534179688 0 Z" stroke="none" fill="#fff"/>
              </g>
            </g>
            <g id="Trazado_874923" data-name="Trazado 874923" transform="translate(0 0)" fill="none">
              <path d="M50,0a50,50,0,0,1,50,50h0A50,50,0,0,1,0,50H0A50,50,0,0,1,50,0Z" stroke="none"/>
              <path d="M 49.99972534179688 3 C 43.65348052978516 3 37.49866485595703 4.242240905761719 31.70623016357422 6.692230224609375 C 26.10989379882812 9.059272766113281 21.08323669433594 12.44853210449219 16.76589202880859 16.76587677001953 C 12.44855499267578 21.08321380615234 9.059295654296875 26.10985565185547 6.692230224609375 31.70618438720703 C 4.24224853515625 37.49859619140625 3 43.65341186523438 3 50.00022888183594 C 3 56.34645843505859 4.24224853515625 62.50127410888672 6.692230224609375 68.29368591308594 C 9.059295654296875 73.8900146484375 12.44855499267578 78.91665649414062 16.76589202880859 83.23399353027344 C 21.08323669433594 87.55132293701172 26.10989379882812 90.94059753417969 31.70623016357422 93.30764007568359 C 37.49866485595703 95.75762939453125 43.65348052978516 96.99987030029297 49.99972534179688 96.99987030029297 C 56.34597015380859 96.99987030029297 62.50078582763672 95.75762939453125 68.293212890625 93.30764007568359 C 73.88955688476562 90.94059753417969 78.91621398925781 87.55132293701172 83.23355865478516 83.23399353027344 C 87.55089569091797 78.91665649414062 90.94015502929688 73.8900146484375 93.30722045898438 68.29368591308594 C 95.7572021484375 62.50127410888672 96.99945068359375 56.34645843505859 96.99945068359375 49.99964141845703 C 96.99945068359375 43.65341186523438 95.7572021484375 37.49859619140625 93.30722045898438 31.70618438720703 C 90.94015502929688 26.10985565185547 87.55089569091797 21.08321380615234 83.23355865478516 16.76587677001953 C 78.91621398925781 12.44853210449219 73.88955688476562 9.059272766113281 68.293212890625 6.692230224609375 C 62.50078582763672 4.242240905761719 56.34597015380859 3 49.99972534179688 3 M 49.99972534179688 0 C 77.61381530761719 0 99.99945068359375 22.38559722900391 99.99945068359375 49.99964141845703 L 99.99945068359375 50.00022888183594 C 99.99945068359375 77.6142578125 77.61381530761719 99.99987030029297 49.99972534179688 99.99987030029297 C 22.38563537597656 99.99987030029297 0 77.6142578125 0 50.00022888183594 L 0 49.99964141845703 C 0 22.38559722900391 22.38563537597656 0 49.99972534179688 0 Z" stroke="none" fill="#fff"/>
            </g>
          </g>
        </g>
      </g>
    </g>
    <g id="Egg_with_baket" data-name="Egg with baket" transform="translate(1084.218 1837)">
      <path id="Trazado_912508" data-name="Trazado 912508" d="M30.18,29.858c-2.147,0-4.646,2.163-6.168,4.646A12.618,12.618,0,0,0,19,31.833a6.926,6.926,0,0,1,.437-2.694c1.124-3.186,5.083-7.542,8.089-6.457a3.9,3.9,0,0,1,2.124,2.342,10.822,10.822,0,0,0,.531,4.833Z" transform="translate(-2.539 -4.935)" fill="#edc3a0"/>
      <path id="Trazado_912509" data-name="Trazado 912509" d="M26.111,24.515a6.051,6.051,0,0,0-1.687,1.343A.781.781,0,0,0,25,27.115h.344a1.905,1.905,0,0,0,1.905-1.9.781.781,0,0,0-1.14-.7Z" transform="translate(-3.694 -5.355)" fill="#eddcbe"/>
      <path id="Trazado_912510" data-name="Trazado 912510" d="M42.943,25.657v4.029c-2.733-1.015-5.169,2.452-6.082,5.2a.687.687,0,0,0,0-.125c-.234-2.413-1.28-5.091-3.693-5.091-.781-2.342-1.132-6.1.921-7.488C36.533,20.5,40.866,23.166,42.943,25.657Z" transform="translate(-5.512 -4.747)" fill="#edc3a0"/>
      <path id="Trazado_912511" data-name="Trazado 912511" d="M38.043,23.687a2.031,2.031,0,0,0-2.694,1.148,1.312,1.312,0,0,0,1.273,1.741h1.171a1.382,1.382,0,0,0,1.382-1.382A1.562,1.562,0,0,0,38.043,23.687Z" transform="translate(-6.109 -5.167)" fill="#eddcbe"/>
      <path id="Trazado_912512" data-name="Trazado 912512" d="M63.113,28.251c-1.866-.148-3.123,1.483-3.9,3.178a12.055,12.055,0,0,0-4.989.914V20.49c3.365-.078,8.526,3.927,8.893,7.761Z" transform="translate(-10.261 -4.491)" fill="#edc3a0"/>
      <path id="Trazado_912513" data-name="Trazado 912513" d="M59.018,27.7a1.351,1.351,0,0,0,.874-2.342,5.622,5.622,0,0,0-2.342-1.195.219.219,0,0,0-.25.219V25.94A1.757,1.757,0,0,0,59.018,27.7Z" transform="translate(-10.936 -5.296)" fill="#eddcbe"/>
      <path id="Trazado_912514" data-name="Trazado 912514" d="M78.444,31.354a11.712,11.712,0,0,0-6.566,5.4c-.406-2.865-2.256-6.246-4.427-7.449,1.476-3.576,7.027-7.566,9.939-5.739,2.2,1.374,1.858,5.309,1.054,7.792Z" transform="translate(-13.161 -5.064)" fill="#edc3a0"/>
      <path id="Trazado_912515" data-name="Trazado 912515" d="M74.712,28.7h2.233a1.413,1.413,0,0,0,.859-2.538c-1.038-.711-2.6-.07-3.646.64a1.031,1.031,0,0,0,.554,1.9Z" transform="translate(-14.528 -5.667)" fill="#eddcbe"/>
      <path id="Trazado_912516" data-name="Trazado 912516" d="M16.023,45.39V60.545l-3.006,3.006A2.7,2.7,0,0,1,8.41,61.638v-12.7a3.537,3.537,0,0,1,3.537-3.545Z" transform="translate(-0.219 -9.95)" fill="#fca16c"/>
      <path id="Trazado_912517" data-name="Trazado 912517" d="M16.016,45.39V60.545L13.01,63.551A2.7,2.7,0,0,1,8.4,61.638v-.3H9.965a1.663,1.663,0,0,0,1.109-.422l.445-.4a1.663,1.663,0,0,0,.539-1.476c-.289-2.046-.273-3.084-1.249-4.185C8.888,52.69,9,53.018,8.38,50.309V48.935a3.537,3.537,0,0,1,3.537-3.545Z" transform="translate(-0.213 -9.95)" fill="#fc7953"/>
      <path id="Trazado_912518" data-name="Trazado 912518" d="M12.52,51.69c.344,2.647.4,4.216,1.6,6.246.781,1.351,1.2,2.4,2.584,2.951l-1.991-9.2Z" transform="translate(-1.12 -11.331)" fill="#fc514e"/>
      <path id="Trazado_912519" data-name="Trazado 912519" d="M69.216,54.23C64.437,76.3,67.435,62.444,64.437,76.3a6.434,6.434,0,0,1-6.3,5.075H26.9A6.434,6.434,0,0,1,20.658,76.3c-1.046-4.81-3.123-14.632-4.778-22.073Z" transform="translate(-1.857 -11.888)" fill="#cb8065"/>
      <path id="Trazado_912520" data-name="Trazado 912520" d="M54.1,64.019c-.726,5.466-.687,5.216-1.015,7.691A2.639,2.639,0,0,1,50.47,74h-22.7a4.942,4.942,0,0,1-3.514-1.46c-1.608-1.562-3.3-1.452-4.685-1.452C17.4,61.013,16.95,58.983,16.88,58.6H32.589A4.115,4.115,0,0,1,35.5,59.8a4.084,4.084,0,0,0,2.9,1.2h13.07A2.639,2.639,0,0,1,54.1,64.019Z" transform="translate(-2.076 -12.846)" fill="#cb9e83"/>
      <path id="Trazado_912521" data-name="Trazado 912521" d="M83.172,42.994c-.593-.32-.18-.226-10.642-.226a6.582,6.582,0,0,0,.461-3.756,9.571,9.571,0,0,1,.781-1.241c2.194-2.928,6.395-5.372,8.753-3.9,2.491,1.523,1.9,6.332.648,9.127Z" transform="translate(-14.275 -7.328)" fill="#edc3a0"/>
      <path id="Trazado_912522" data-name="Trazado 912522" d="M82.775,37.768c-.468-2.1-2.342-1.936-4.146-.695a1.07,1.07,0,0,0,.6,1.952h2.53a1.038,1.038,0,0,0,1.015-1.257Z" transform="translate(-15.51 -7.927)" fill="#eddcbe"/>
      <path id="Trazado_912523" data-name="Trazado 912523" d="M14.5,52.292a1.983,1.983,0,0,1-1.983-1.983V47.381A1.991,1.991,0,0,1,14.5,45.39H69.112a1.983,1.983,0,0,1,1.983,1.991v2.928a1.983,1.983,0,0,1-1.983,1.983Z" transform="translate(-1.12 -9.95)" fill="#cb947e"/>
      <path id="Trazado_912524" data-name="Trazado 912524" d="M34.043,45.39H14.523a1.983,1.983,0,0,0-1.983,1.983v.9a.781.781,0,0,0,1.562,0v-.89a.422.422,0,0,1,.422-.422h19.52a.785.785,0,0,0,0-1.569Z" transform="translate(-1.125 -9.95)" fill="#e9bcb5"/>
      <path id="Trazado_912525" data-name="Trazado 912525" d="M75.92,45.39H43.58v6.9H75.92A1.983,1.983,0,0,0,77.9,50.309V47.381A1.983,1.983,0,0,0,75.92,45.39Z" transform="translate(-7.929 -9.95)" fill="#cb6c56"/>
      <path id="Trazado_912526" data-name="Trazado 912526" d="M45.87,1h6.5V45.5h-6.5Z" transform="translate(-8.431 -0.219)" fill="#cb8065"/>
      <path id="Trazado_912527" data-name="Trazado 912527" d="M45.87,1h6.5V8.16h-6.5Z" transform="translate(-8.431 -0.219)" fill="#cb9e83"/>
      <path id="Trazado_912528" data-name="Trazado 912528" d="M45.87,34.48h6.5V52.844h-6.5Z" transform="translate(-8.431 -7.558)" fill="#cb5851"/>
      <path id="Trazado_912529" data-name="Trazado 912529" d="M69.91,42.115H62.36c3.123-3.9,3.311-8.253-1.78-8.511.781-1.71,1.921-3,3.342-3.17,3.17-.39,6.1,4.685,6.473,8.081A6.465,6.465,0,0,1,69.91,42.115Z" transform="translate(-11.655 -6.667)" fill="#edc3a0"/>
      <path id="Trazado_912530" data-name="Trazado 912530" d="M67.465,35.576a.968.968,0,0,0,.781-1.507A5.286,5.286,0,0,0,66.918,32.7a.89.89,0,0,0-1.359.781v.2a1.882,1.882,0,0,0,1.905,1.89Z" transform="translate(-12.747 -7.14)" fill="#eddcbe"/>
      <path id="Trazado_912531" data-name="Trazado 912531" d="M60.959,43.007H54.19v-7.6c3.123-1.273,7.144-1.4,8.5.671C63.848,37.846,62.786,40.719,60.959,43.007Z" transform="translate(-10.255 -7.559)" fill="#edc3a0"/>
      <path id="Trazado_912532" data-name="Trazado 912532" d="M21.228,42.916H13.42c-1.374-2.256-2.569-6.067-.742-7.9,2.163-2.171,7.207-.234,9.736,2.03A7.454,7.454,0,0,0,21.228,42.916Z" transform="translate(-0.951 -7.468)" fill="#edc3a0"/>
      <path id="Trazado_912533" data-name="Trazado 912533" d="M15.6,37.141a.781.781,0,0,0-.781-.781c-.945,0-1.234.726-1.015,1.655a.921.921,0,0,0,1.819-.25Z" transform="translate(-1.386 -7.971)" fill="#eddcbe"/>
      <path id="Trazado_912534" data-name="Trazado 912534" d="M34.452,42.434H23.833c-.726-2.545.6-5.348,2.272-7.378,3.006-3.662,6.941-4.685,8.393-.055a10.034,10.034,0,0,1,.406,2.124A9.471,9.471,0,0,0,34.452,42.434Z" transform="translate(-3.556 -6.994)" fill="#edc3a0"/>
      <path id="Trazado_912535" data-name="Trazado 912535" d="M32.334,33.249a4.161,4.161,0,0,0-1.437.882,1.109,1.109,0,0,0-.367.828v.156a1.093,1.093,0,0,0,1.093,1.093h.328a1.687,1.687,0,0,0,1.687-1.687v-.289a1.023,1.023,0,0,0-1.3-.984Z" transform="translate(-5.068 -7.28)" fill="#eddcbe"/>
      <path id="Trazado_912536" data-name="Trazado 912536" d="M43.967,31.889v10.5H37.432a7.62,7.62,0,0,1-.2-2.178C37.37,36.55,40.454,30.585,43.967,31.889Z" transform="translate(-6.536 -6.95)" fill="#edc3a0"/>
      <path id="Trazado_912537" data-name="Trazado 912537" d="M21.347,43.182H13.539A12.391,12.391,0,0,1,12.29,40.41c2.022.226,2.623.437,3.49-.125,2.538-1.64,1.913-.835,3.568-5a12.422,12.422,0,0,1,3.186,2.03,7.454,7.454,0,0,0-1.187,5.872Z" transform="translate(-1.07 -7.734)" fill="#edaa82"/>
      <path id="Trazado_912538" data-name="Trazado 912538" d="M34.452,43.3H23.833c-.726-2.545.6-5.348,2.272-7.378l1.507,2.756a1.647,1.647,0,0,0,1.452.859c2.4,0,2.733.094,3.3-.344,1.663-1.273,1.562-1.218,2.132-3.326a10.033,10.033,0,0,1,.406,2.124A9.471,9.471,0,0,0,34.452,43.3Z" transform="translate(-3.556 -7.863)" fill="#edaa82"/>
      <path id="Trazado_912539" data-name="Trazado 912539" d="M30.18,30.418c-2.147,0-4.646,2.163-6.168,4.646A12.618,12.618,0,0,0,19,32.394a7.581,7.581,0,0,1,.96-3.9c1.109.359,1.562.593,2.288.437l3.779-.789a2.108,2.108,0,0,0,1.085-.617l2.3-2.452a5.527,5.527,0,0,1,.25.531A10.822,10.822,0,0,0,30.18,30.418Z" transform="translate(-2.54 -5.496)" fill="#edaa82"/>
      <path id="Trazado_912540" data-name="Trazado 912540" d="M23.619,37.31a12.493,12.493,0,0,0-3.186-2.03c.375.781.383.781.578.945l.4.273a.726.726,0,0,1,.258.906c-1.858,3.9-1.312,3.232-4.5,5.77h5.247A7.389,7.389,0,0,1,23.619,37.31Z" transform="translate(-2.14 -7.734)" fill="#ed9178"/>
      <path id="Trazado_912541" data-name="Trazado 912541" d="M42.949,26.4v4.029c-2.7-1.007-5.036,2.342-6.028,5.06h-.07c-.234-2.413-1.28-5.091-3.693-5.091a12.133,12.133,0,0,1-.578-2.787H35.3c1.562,0,1.562,1.288,3.123,1.288a3.9,3.9,0,0,0,1.608-.484,2.225,2.225,0,0,0,1.343-1.71l.273-1.663a11.791,11.791,0,0,1,1.3,1.359Z" transform="translate(-5.518 -5.489)" fill="#edaa82"/>
      <path id="Trazado_912542" data-name="Trazado 912542" d="M42.949,28.866v2.342c-2.7-1.007-5.036,2.342-6.028,5.06h-.07c-.234-2.413-1.28-5.091-3.693-5.091a12.133,12.133,0,0,1-.578-2.787h1.109l2.623,2.342a1.819,1.819,0,0,0,1.226.468h1.3a1.694,1.694,0,0,0,1.2-.5l1.093-1.093A2.467,2.467,0,0,1,42.949,28.866Z" transform="translate(-5.518 -6.223)" fill="#ed9178"/>
      <g id="Grupo_1116048" data-name="Grupo 1116048" transform="translate(30.692 23.048)">
        <path id="Trazado_912543" data-name="Trazado 912543" d="M43.976,33.42v9.369H37.433a7.871,7.871,0,0,1-.133-2.842l.632.375a2.03,2.03,0,0,0,1.726.148l1.663-.617A2.28,2.28,0,0,0,42.8,37.511l-.172-1.843a1.132,1.132,0,0,1,.234-.781C44.257,33.092,43.9,33.5,43.976,33.42Z" transform="translate(-37.228 -30.374)" fill="#edaa82"/>
        <path id="Trazado_912544" data-name="Trazado 912544" d="M60.959,43.46H54.19V38.775l2.085,1.8a3.232,3.232,0,0,0,2.4.781l1.483-.133a1.765,1.765,0,0,0,1.562-1.273l.992-3.4C63.848,38.3,62.786,41.172,60.959,43.46Z" transform="translate(-40.946 -31.06)" fill="#edaa82"/>
        <path id="Trazado_912545" data-name="Trazado 912545" d="M63.113,30.23c-1.866-.148-3.123,1.484-3.9,3.178a12.055,12.055,0,0,0-4.989.914v-3.9a6.356,6.356,0,0,0,2.186.164c6.16-1.234,4.849-1.054,6.6-1.054A4.738,4.738,0,0,1,63.113,30.23Z" transform="translate(-40.953 -29.518)" fill="#edaa82"/>
        <path id="Trazado_912546" data-name="Trazado 912546" d="M70.41,43.944H62.86a9.068,9.068,0,0,0,2.217-5.184l1.015,1.171a2.085,2.085,0,0,0,1.562.781c2.171,0,1.843.078,3.209-.547a1.961,1.961,0,0,1,0,.211A6.465,6.465,0,0,1,70.41,43.944Z" transform="translate(-42.847 -31.544)" fill="#edaa82"/>
      </g>
      <path id="Trazado_912547" data-name="Trazado 912547" d="M69.216,43.934H62.86a9.068,9.068,0,0,0,2.217-5.184v2.342a1.913,1.913,0,0,0,1.265,1.788Z" transform="translate(-12.155 -8.494)" fill="#ed9178"/>
      <path id="Trazado_912548" data-name="Trazado 912548" d="M78.8,30.665a13.33,13.33,0,0,1-.4,1.562,11.712,11.712,0,0,0-6.566,5.4c-.406-2.865-2.256-6.246-4.427-7.449a10.15,10.15,0,0,1,2.225-3.123l.148.781a3.685,3.685,0,0,0,2.444,2.819,5.513,5.513,0,0,0,3.014.586C79.114,30.618,78.755,30.665,78.8,30.665Z" transform="translate(-13.153 -5.93)" fill="#edaa82"/>
      <path id="Trazado_912549" data-name="Trazado 912549" d="M84.234,39.9a13.227,13.227,0,0,1-1.062,4.31c-.593-.32-.18-.226-10.642-.226a6.582,6.582,0,0,0,.461-3.756,9.573,9.573,0,0,1,.781-1.241l1.468,1.476a3.123,3.123,0,0,0,2.249.937c4.146,0,2.873.25,6.746-1.5Z" transform="translate(-14.275 -8.547)" fill="#edaa82"/>
      <path id="Trazado_912550" data-name="Trazado 912550" d="M83.672,43.114a10.565,10.565,0,0,1-.5,1.343c-.593-.32-.18-.226-10.642-.226a6.582,6.582,0,0,0,.461-3.756c.094-.172.187-.344.3-.515.992,1.249,1.562,2.249,3.123,2.483C82.126,43.263,80.268,43.114,83.672,43.114Z" transform="translate(-14.275 -8.76)" fill="#ed9178"/>
      <path id="Trazado_912551" data-name="Trazado 912551" d="M57.832,38.294l.484.219a1.866,1.866,0,0,0,1.858-.187L60.635,38a.578.578,0,0,0-.3-1.054l-2.124-.18a.789.789,0,0,0-.383,1.53Z" transform="translate(-10.922 -8.054)" fill="#eddcbe"/>
      <path id="Trazado_912552" data-name="Trazado 912552" d="M68.382,66.93,65.75,79.087a6.434,6.434,0,0,1-6.3,5.075H28.218a6.442,6.442,0,0,1-6.246-5.06l-.1-.406,2.069.141A5.52,5.52,0,0,1,27.46,80.4a5.466,5.466,0,0,0,3.9,1.616H56.529a4.685,4.685,0,0,0,4.575-3.6l1.827-7.527a4.685,4.685,0,0,1,3.5-3.467Z" transform="translate(-3.17 -14.672)" fill="#cb5851"/>
      <path id="Trazado_912553" data-name="Trazado 912553" d="M37.607,68.43h5.629a1.46,1.46,0,0,1,1.452,1.608L44.47,72.1a1.46,1.46,0,0,1-1.452,1.3H39.645a3.123,3.123,0,0,1-2.452-1.179l-.882-1.117a1.655,1.655,0,0,1,1.3-2.678Z" transform="translate(-6.258 -15.001)" fill="#fff" opacity="0.62"/>
      <path id="Trazado_912554" data-name="Trazado 912554" d="M54.19,45.39l9.635,9.635a2.42,2.42,0,0,0,3.435,0L76.9,45.39Z" transform="translate(-10.255 -9.95)" fill="#fcba80"/>
      <path id="Trazado_912555" data-name="Trazado 912555" d="M75.935,46.36l.96-.96H54.19l.96.96Z" transform="translate(-10.255 -9.952)" fill="#fca16c"/>
      <path id="Trazado_912556" data-name="Trazado 912556" d="M60.775,51.262l4.4,4.4a2.4,2.4,0,0,0,3.412,0l4.4-4.4a1.772,1.772,0,0,0-1.21-3.022H62.025a1.772,1.772,0,0,0-1.249,3.022Z" transform="translate(-11.585 -10.575)" fill="#fcd399"/>
      <path id="Trazado_912557" data-name="Trazado 912557" d="M65.283,52.494l1.905,1.913a1.054,1.054,0,0,0,1.484,0l1.905-1.913a.781.781,0,0,0-.539-1.3H65.8a.781.781,0,0,0-.515,1.3Z" transform="translate(-12.642 -11.221)" fill="#fff"/>
      <path id="Trazado_912558" data-name="Trazado 912558" d="M55.4,94H39.781a.781.781,0,1,0,0,1.562H55.4A.781.781,0,1,0,55.4,94Z" transform="translate(-6.925 -20.606)" fill="#231f20"/>
      <path id="Trazado_912559" data-name="Trazado 912559" d="M69.857,35.4c1.718-4.45,1.163-10.306-3.506-10.072.671-2.951.4-6.16-1.71-7.5-3.311-2.093-8.878,1.905-10.728,5.387a3.279,3.279,0,0,0-.39-.133c-.781-3.857-5.4-7.433-8.807-7.808V.781A.781.781,0,0,0,43.935,0h-6.5a.781.781,0,0,0-.781.781V19c-3.123-2.756-7.925-4.372-9.76-.781-3.615-4.31-10.658,2.342-11.189,7.738-5.466-.906-6.965,3.623-4.513,8.753A4.326,4.326,0,0,0,7.41,39v6.348a.781.781,0,0,0,1.562,0V38.985a2.756,2.756,0,0,1,1.85-2.592c-.3.718-.2,1.109-.2,3.966a2.764,2.764,0,0,0,2.772,2.764l1.562,7.222-2.709,2.7a1.921,1.921,0,0,1-3.272-1.359V48.5a.781.781,0,1,0-1.562,0v3.186a3.482,3.482,0,0,0,5.926,2.459l1.991-1.991,2.694,12.422a7.246,7.246,0,0,0,2.6,4.13H14.015a.781.781,0,0,0,0,1.562H65.095a.781.781,0,1,0,0-1.562H60.753a7.246,7.246,0,0,0,2.592-4.13c4.646-21.636,4.568-21.456,4.646-21.456a2.772,2.772,0,0,0,2.764-2.764V37.431a2.748,2.748,0,0,0-.9-2.03Zm-2-8.206c1.7,1.054,1.655,4.638.586,7.511-.39-.062.429-.039-9.1-.039a7.613,7.613,0,0,0,.172-2.819,11.532,11.532,0,0,1,4.287-4.115C65.462,26.828,66.937,26.633,67.859,27.195ZM56.459,44.5a1.655,1.655,0,0,1-2.342,0l-8.292-8.276H64.759ZM52.376,24.54c2.819-.351,6.769,6.121,5.356,10.15H52.266c2.342-3.787,2.046-7.527-2.061-8.37a3.365,3.365,0,0,1,2.171-1.78ZM51.8,28.952c.781,1.21.18,3.521-1.476,5.715H44.716V28.421c2.7-.984,6.028-1.054,7.066.531ZM44.771,37.33,49,41.561H44.716ZM55.577,23.424c1.874-2.967,6.246-5.583,8.23-4.3,1.343.851,1.679,3.6.851,6.5a12.735,12.735,0,0,0-5.6,4.1,11.993,11.993,0,0,0-3.779-5.786,2.637,2.637,0,0,0,.3-.515Zm-3.662-.406A5.324,5.324,0,0,0,48.456,26.1a12.883,12.883,0,0,0-3.74.617V16.842c2.709.461,6.371,3.256,7.2,6.207ZM43.155,1.562V44.5H38.22V4.583h2.717a.781.781,0,1,0,0-1.562H38.22V1.562ZM20.918,34.667c-.632-4.2,4.685-9.83,7.433-8.846,1.148.406,1.983,2.046,2.21,4.271a10.267,10.267,0,0,0-.586,4.575Zm10.634,0c-.523-3.67,2.3-9.291,5-9.127.148,0,.1-.96.1,9.127ZM29,18.075c1.772-1.2,5.466.671,7.66,3.123v2.764c-2.178-.133-3.9,1.765-5.02,3.678-.562-1.71-1.632-3.186-3.4-3.467C27.562,21.776,27.6,19.028,29,18.075Zm-4.271.414a3.076,3.076,0,0,1,1.562,1.733,11.275,11.275,0,0,0,.32,4.052c-2.132.492-4.091,2.342-5.341,4.146a13.726,13.726,0,0,0-4.029-2.1c.234-3.959,4.935-8.745,7.488-7.831ZM12.3,28.108c1.515-1.562,5.583-.383,8.175,1.655a8.432,8.432,0,0,0-1.132,4.911h-6.4c-1.28-2.327-1.944-5.294-.64-6.566Zm-.117,12.258V37.431a1.2,1.2,0,0,1,1.2-1.2H36.658v5.333H13.383a1.2,1.2,0,0,1-1.2-1.2Zm24.478,2.764v2.155a.781.781,0,0,0,.781.781h6.5a.781.781,0,0,0,.781-.781V43.123H50.51l2.506,2.506a3.2,3.2,0,0,0,2.217.937l-.3,2.3H46.91l.133-2.733a.782.782,0,1,0-1.562-.078l-.133,2.811H26.438l-.367-2.873a.787.787,0,0,0-1.562.2l.344,2.67h-4.49a.781.781,0,1,0,0,1.562h4.685l.687,5.286H23.682a.781.781,0,0,0,0,1.562h2.264l.718,5.559H24.447c-2.8,0-5.223-1.148-5.793-2.741l-3.67-16.967Zm9.572,19.7.258-5.559h7.363l-.695,5.559Zm-9.518,0L36.5,57.271h8.425l-.258,5.559Zm-8.472,0-.718-5.559h7.417l.211,5.559ZM36.33,52.742a.781.781,0,0,0-1.562,0l.109,2.9H27.32l-.711-5.223H45.247L45,55.709H36.408Zm10.236,2.967.242-5.286h7.909l-.679,5.286ZM19.582,64.251l-.265-1.2c2.475,1.562,5.075,1.343,7.574,1.343a10.009,10.009,0,0,0,.406,1.975.781.781,0,1,0,1.483-.484,8.167,8.167,0,0,1-.336-1.507H35.2c0,.508.07,1.21.141,1.835a.786.786,0,0,0,1.562-.18c-.062-.523-.1-1.077-.133-1.655h7.8a13.8,13.8,0,0,1-.133,1.655.786.786,0,0,0,1.562.18c.062-.562.109-1.156.141-1.772,0-.086-.781-.062,6.769-.062a29.146,29.146,0,0,1-.874,4.333H25.048A5.676,5.676,0,0,1,19.582,64.251Zm42.256,0a5.676,5.676,0,0,1-5.559,4.458H53.664a43.578,43.578,0,0,0,.843-4.318h2.42a.781.781,0,1,0,0-1.562h-2.21l.718-5.559a32.559,32.559,0,0,0,8.034-.6Zm2.03-9.369c-1.694.929-6.8.835-8.214.835l.625-5.294h5.106a.781.781,0,0,0,0-1.562h-4.88c.468-3.592.328-2.452.344-2.709.578-.328.476-.289,3.217-3.029H66.43Zm5.348-14.515a1.2,1.2,0,0,1-1.226,1.195H61.628l5.333-5.333a4.665,4.665,0,0,1,1.483.086.593.593,0,0,0,.125.086.3.3,0,0,0,.078,0,1.2,1.2,0,0,1,.547,1.007Z" transform="translate(0)" fill="#231f20"/>
      <path id="Trazado_912560" data-name="Trazado 912560" d="M21.981,50.472h9.658a.781.781,0,1,0,0-1.562H21.981a.781.781,0,1,0,0,1.562Z" transform="translate(-3.023 -10.722)" fill="#231f20"/>
    </g>
  </g>
</svg>
