<svg xmlns="http://www.w3.org/2000/svg" xmlns:xlink="http://www.w3.org/1999/xlink" width="117.999" height="118" viewBox="0 0 117.999 118">
  <defs>
    <filter id="Trazado_874925" x="0" y="0" width="117.999" height="118" filterUnits="userSpaceOnUse">
      <feOffset dy="3" input="SourceAlpha"/>
      <feGaussianBlur stdDeviation="3" result="blur"/>
      <feFlood flood-opacity="0.161"/>
      <feComposite operator="in" in2="blur"/>
      <feComposite in="SourceGraphic"/>
    </filter>
  </defs>
  <g id="Grupo_1119205" data-name="Grupo 1119205" transform="translate(8.999 6)">
    <g id="Grupo_1111553" data-name="Grupo 1111553" transform="translate(0 0)">
      <g id="Grupo_1111316" data-name="Grupo 1111316" transform="translate(0 0)">
        <g id="Grupo_1109835" data-name="Grupo 1109835" transform="translate(0)">
          <g id="Grupo_1107913" data-name="Grupo 1107913">
            <g transform="matrix(1, 0, 0, 1, -9, -6)" filter="url(#Trazado_874925)">
              <g id="Trazado_874925-2" data-name="Trazado 874925" transform="translate(9 6)" fill="#9cc8ff" opacity="0.859">
                <path d="M 49.99972534179688 98.4998779296875 C 43.45164108276367 98.4998779296875 37.10022354125977 97.21776580810547 31.12189674377441 94.68914794921875 C 25.34676742553711 92.24647521972656 20.15985298156738 88.74925994873047 15.70523929595947 84.29464721679688 C 11.25062561035156 79.84004974365234 7.753411293029785 74.65313720703125 5.310725212097168 68.87800598144531 C 2.782111167907715 62.89969253540039 1.499996781349182 56.54829406738281 1.499996781349182 50.00022125244141 C 1.499996781349182 43.45157623291016 2.782111167907715 37.10017776489258 5.310725212097168 31.12186431884766 C 7.753411293029785 25.34673500061035 11.25062561035156 20.15983581542969 15.70523929595947 15.70522117614746 C 20.15985298156738 11.25062084197998 25.34676742553711 7.753406524658203 31.12189674377441 5.31073522567749 C 37.10022354125977 2.782120943069458 43.45164108276367 1.500006556510925 49.99972534179688 1.500006556510925 C 56.54780960083008 1.500006556510925 62.89922714233398 2.782120943069458 68.87755584716797 5.31073522567749 C 74.65267944335938 7.753406524658203 79.839599609375 11.25062084197998 84.29421234130859 15.70522117614746 C 88.74882507324219 20.15983581542969 92.24604034423828 25.34673500061035 94.68872833251953 31.12186431884766 C 97.21733856201172 37.10017776489258 98.49945068359375 43.45157623291016 98.49945068359375 49.99964904785156 C 98.49945068359375 56.54829406738281 97.21733856201172 62.89969253540039 94.68872833251953 68.87800598144531 C 92.24604034423828 74.65313720703125 88.74882507324219 79.84004974365234 84.29421234130859 84.29464721679688 C 79.839599609375 88.74925994873047 74.65267944335938 92.24647521972656 68.87755584716797 94.68914794921875 C 62.89922714233398 97.21776580810547 56.54780960083008 98.4998779296875 49.99972534179688 98.4998779296875 Z" stroke="none"/>
                <path d="M 49.99972534179688 3 C 43.65348052978516 3 37.49866485595703 4.242240905761719 31.70623016357422 6.692230224609375 C 26.10989379882812 9.059272766113281 21.08323669433594 12.44853210449219 16.76589202880859 16.76587677001953 C 12.44855499267578 21.08321380615234 9.059295654296875 26.10985565185547 6.692230224609375 31.70618438720703 C 4.24224853515625 37.49859619140625 3 43.65341186523438 3 50.00022888183594 C 3 56.34645843505859 4.24224853515625 62.50127410888672 6.692230224609375 68.29368591308594 C 9.059295654296875 73.8900146484375 12.44855499267578 78.91665649414062 16.76589202880859 83.23399353027344 C 21.08323669433594 87.55132293701172 26.10989379882812 90.94059753417969 31.70623016357422 93.30764007568359 C 37.49866485595703 95.75762939453125 43.65348052978516 96.99987030029297 49.99972534179688 96.99987030029297 C 56.34597015380859 96.99987030029297 62.50078582763672 95.75762939453125 68.293212890625 93.30764007568359 C 73.88955688476562 90.94059753417969 78.91621398925781 87.55132293701172 83.23355865478516 83.23399353027344 C 87.55089569091797 78.91665649414062 90.94015502929688 73.8900146484375 93.30722045898438 68.29368591308594 C 95.7572021484375 62.50127410888672 96.99945068359375 56.34645843505859 96.99945068359375 49.99964141845703 C 96.99945068359375 43.65341186523438 95.7572021484375 37.49859619140625 93.30722045898438 31.70618438720703 C 90.94015502929688 26.10985565185547 87.55089569091797 21.08321380615234 83.23355865478516 16.76587677001953 C 78.91621398925781 12.44853210449219 73.88955688476562 9.059272766113281 68.293212890625 6.692230224609375 C 62.50078582763672 4.242240905761719 56.34597015380859 3 49.99972534179688 3 M 49.99972534179688 0 C 77.61381530761719 0 99.99945068359375 22.38559722900391 99.99945068359375 49.99964141845703 L 99.99945068359375 50.00022888183594 C 99.99945068359375 77.6142578125 77.61381530761719 99.99987030029297 49.99972534179688 99.99987030029297 C 22.38563537597656 99.99987030029297 0 77.6142578125 0 50.00022888183594 L 0 49.99964141845703 C 0 22.38559722900391 22.38563537597656 0 49.99972534179688 0 Z" stroke="none" fill="#fff"/>
              </g>
            </g>
            <g id="Trazado_874923" data-name="Trazado 874923" transform="translate(0)" fill="none">
              <path d="M50,0a50,50,0,0,1,50,50h0A50,50,0,0,1,0,50H0A50,50,0,0,1,50,0Z" stroke="none"/>
              <path d="M 49.99972534179688 3 C 43.65348052978516 3 37.49866485595703 4.242240905761719 31.70623016357422 6.692230224609375 C 26.10989379882812 9.059272766113281 21.08323669433594 12.44853210449219 16.76589202880859 16.76587677001953 C 12.44855499267578 21.08321380615234 9.059295654296875 26.10985565185547 6.692230224609375 31.70618438720703 C 4.24224853515625 37.49859619140625 3 43.65341186523438 3 50.00022888183594 C 3 56.34645843505859 4.24224853515625 62.50127410888672 6.692230224609375 68.29368591308594 C 9.059295654296875 73.8900146484375 12.44855499267578 78.91665649414062 16.76589202880859 83.23399353027344 C 21.08323669433594 87.55132293701172 26.10989379882812 90.94059753417969 31.70623016357422 93.30764007568359 C 37.49866485595703 95.75762939453125 43.65348052978516 96.99987030029297 49.99972534179688 96.99987030029297 C 56.34597015380859 96.99987030029297 62.50078582763672 95.75762939453125 68.293212890625 93.30764007568359 C 73.88955688476562 90.94059753417969 78.91621398925781 87.55132293701172 83.23355865478516 83.23399353027344 C 87.55089569091797 78.91665649414062 90.94015502929688 73.8900146484375 93.30722045898438 68.29368591308594 C 95.7572021484375 62.50127410888672 96.99945068359375 56.34645843505859 96.99945068359375 49.99964141845703 C 96.99945068359375 43.65341186523438 95.7572021484375 37.49859619140625 93.30722045898438 31.70618438720703 C 90.94015502929688 26.10985565185547 87.55089569091797 21.08321380615234 83.23355865478516 16.76587677001953 C 78.91621398925781 12.44853210449219 73.88955688476562 9.059272766113281 68.293212890625 6.692230224609375 C 62.50078582763672 4.242240905761719 56.34597015380859 3 49.99972534179688 3 M 49.99972534179688 0 C 77.61381530761719 0 99.99945068359375 22.38559722900391 99.99945068359375 49.99964141845703 L 99.99945068359375 50.00022888183594 C 99.99945068359375 77.6142578125 77.61381530761719 99.99987030029297 49.99972534179688 99.99987030029297 C 22.38563537597656 99.99987030029297 0 77.6142578125 0 50.00022888183594 L 0 49.99964141845703 C 0 22.38559722900391 22.38563537597656 0 49.99972534179688 0 Z" stroke="none" fill="#fff"/>
            </g>
          </g>
        </g>
      </g>
    </g>
    <g id="Grupo_1119204" data-name="Grupo 1119204" transform="translate(19 19)">
      <path id="Trazado_916634" data-name="Trazado 916634" d="M67.189,347.264H7.478L16.344,325.8H58.322Z" transform="translate(-6.58 -286.662)" fill="#a8eefc"/>
      <path id="Trazado_916635" data-name="Trazado 916635" d="M407.031,325.8H403.8l8.866,21.463H415.9Z" transform="translate(-355.288 -286.662)" fill="#7ee5f2"/>
      <path id="Trazado_916636" data-name="Trazado 916636" d="M91.96,337.782l-1.971-4.771H66.648L58.4,325.8h-5.31l-2.978,7.21H42.054l-1.971,4.771h8.061l-3.917,9.482h5.31l6.6-15.987,18.793,15.987h8.012L72.1,337.782Z" transform="translate(-35.268 -286.662)" fill="#ffdb56"/>
      <path id="Trazado_916637" data-name="Trazado 916637" d="M430.56,390.588h3.234l-1.971-4.771h-3.234Z" transform="translate(-377.102 -339.468)" fill="#ffbb24"/>
      <g id="Grupo_1119203" data-name="Grupo 1119203" transform="translate(6.786 39.139)">
        <path id="Trazado_916638" data-name="Trazado 916638" d="M64.552,333.011H56.491l2.978-7.21h8.061Z" transform="translate(-56.491 -325.801)" fill="#4ce166"/>
        <path id="Trazado_916639" data-name="Trazado 916639" d="M224.175,333.011H200.834l-8.244-7.21H221.2Z" transform="translate(-176.24 -325.801)" fill="#4ce166"/>
      </g>
      <path id="Trazado_916640" data-name="Trazado 916640" d="M410.009,333.011l-2.978-7.21H403.8l2.978,7.21Z" transform="translate(-355.288 -286.662)" fill="#44c868"/>
      <path id="Trazado_916641" data-name="Trazado 916641" d="M125.39,371.389l-6.6,15.987h25.4Z" transform="translate(-104.516 -326.773)" fill="#4ce166"/>
      <path id="Trazado_916642" data-name="Trazado 916642" d="M120.466,7.534a18.575,18.575,0,0,0-18.5,18.644c0,15.68,18.5,30.108,18.5,30.108s18.5-14.427,18.5-30.108A18.575,18.575,0,0,0,120.466,7.534Zm0,26.08a7.436,7.436,0,1,1,7.381-7.436A7.409,7.409,0,0,1,120.466,33.614Z" transform="translate(-89.712 -6.629)" fill="#ff4a4a"/>
      <path id="Trazado_916643" data-name="Trazado 916643" d="M244.157,7.534c-.545,0-1.084.025-1.617.072a18.591,18.591,0,0,1,16.888,18.572c0,12.827-12.382,24.814-16.888,28.752,1,.876,1.617,1.356,1.617,1.356s18.5-14.427,18.5-30.108A18.575,18.575,0,0,0,244.157,7.534Z" transform="translate(-213.403 -6.629)" fill="#e7343f"/>
      <path id="Trazado_916644" data-name="Trazado 916644" d="M195.363,109.98a8.342,8.342,0,0,0,0-16.683,8.19,8.19,0,0,0-4.688,1.465.909.909,0,0,0-.231,1.259.894.894,0,0,0,1.249.233,6.41,6.41,0,0,1,3.67-1.146,6.512,6.512,0,1,1-5.755,3.521.908.908,0,0,0-.382-1.221.9.9,0,0,0-1.212.385,8.415,8.415,0,0,0-.931,3.845A8.32,8.32,0,0,0,195.363,109.98Z" transform="translate(-164.609 -82.089)"/>
      <path id="Trazado_916645" data-name="Trazado 916645" d="M61.439,60.255,52.573,38.791h0a.9.9,0,0,0-.829-.557H42.908a45.813,45.813,0,0,0,4.266-6.966,26.856,26.856,0,0,0,2.983-11.718,19.4,19.4,0,1,0-38.807,0,26.856,26.856,0,0,0,2.983,11.718A45.788,45.788,0,0,0,18.6,38.234H9.765a.9.9,0,0,0-.829.557L2.894,53.417A.907.907,0,0,0,3.378,54.6a.894.894,0,0,0,1.174-.488l.862-2.087H11.53L8.361,59.7H2.246l.919-2.224A.907.907,0,0,0,2.68,56.29a.9.9,0,0,0-1.175.488L.07,60.255a.91.91,0,0,0,.082.85.9.9,0,0,0,.747.4H60.609a.9.9,0,0,0,.747-.4A.911.911,0,0,0,61.439,60.255ZM13.148,19.549a17.607,17.607,0,1,1,35.213,0c0,4.1-1.415,10.656-7.958,19.009l-.019.024q-.5.639-1.043,1.292a69.114,69.114,0,0,1-8.587,8.62A69.008,69.008,0,0,1,22.191,39.9q-.556-.669-1.068-1.323l-.016-.021C14.563,30.206,13.148,23.652,13.148,19.549ZM10.364,40.044H16.48l-2.231,5.4H8.134ZM15.617,59.7,21.232,46.1,37.211,59.7ZM40,59.7,21.454,43.924a.9.9,0,0,0-1.409.344L13.671,59.7H10.307l3.4-8.229a.91.91,0,0,0-.082-.85.9.9,0,0,0-.747-.4H6.163l1.223-2.961h7.462a.9.9,0,0,0,.829-.557l2.748-6.653h1.559q.406.51.828,1.02A67.777,67.777,0,0,0,30.2,50.373a.893.893,0,0,0,1.1,0c.106-.082,1.533-1.2,3.565-3.119H45.041a.905.905,0,0,0,0-1.81H36.72c1.246-1.262,2.607-2.733,3.976-4.38q.424-.51.828-1.02h9.62l2.23,5.4h-4.74a.905.905,0,0,0,0,1.81h5.488l1.223,2.961H36.837A.9.9,0,0,0,36,50.8a.91.91,0,0,0,.253,1L45.274,59.7Zm8.018,0-8.772-7.672H56.094L59.263,59.7Z" transform="translate(-0.001)"/>
    </g>
  </g>
</svg>
