<svg xmlns="http://www.w3.org/2000/svg" xmlns:xlink="http://www.w3.org/1999/xlink" width="118" height="118" viewBox="0 0 118 118">
  <defs>
    <filter id="Trazado_874925" x="0" y="0" width="118" height="118" filterUnits="userSpaceOnUse">
      <feOffset dy="3" input="SourceAlpha"/>
      <feGaussianBlur stdDeviation="3" result="blur"/>
      <feFlood flood-opacity="0.161"/>
      <feComposite operator="in" in2="blur"/>
      <feComposite in="SourceGraphic"/>
    </filter>
  </defs>
  <g id="Grupo_1116052" data-name="Grupo 1116052" transform="translate(6927 9801)">
    <g id="Grupo_1111552" data-name="Grupo 1111552" transform="translate(-7726.5 -12312.157)">
      <g id="Grupo_1111316" data-name="Grupo 1111316" transform="translate(808.5 2517.157)">
        <g id="Grupo_1109835" data-name="Grupo 1109835" transform="translate(0 0)">
          <g id="Grupo_1107913" data-name="Grupo 1107913" transform="translate(0 0)">
            <g transform="matrix(1, 0, 0, 1, -9, -6)" filter="url(#Trazado_874925)">
              <g id="Trazado_874925-2" data-name="Trazado 874925" transform="translate(9 6)" fill="#9cc8ff" opacity="0.859">
                <path d="M 49.99972534179688 98.4998779296875 C 43.45164108276367 98.4998779296875 37.10022354125977 97.21776580810547 31.12189674377441 94.68914794921875 C 25.34676742553711 92.24647521972656 20.15985298156738 88.74925994873047 15.70523929595947 84.29464721679688 C 11.25062561035156 79.84004974365234 7.753411293029785 74.65313720703125 5.310725212097168 68.87800598144531 C 2.782111167907715 62.89969253540039 1.499996781349182 56.54829406738281 1.499996781349182 50.00022125244141 C 1.499996781349182 43.45157623291016 2.782111167907715 37.10017776489258 5.310725212097168 31.12186431884766 C 7.753411293029785 25.34673500061035 11.25062561035156 20.15983581542969 15.70523929595947 15.70522117614746 C 20.15985298156738 11.25062084197998 25.34676742553711 7.753406524658203 31.12189674377441 5.31073522567749 C 37.10022354125977 2.782120943069458 43.45164108276367 1.500006556510925 49.99972534179688 1.500006556510925 C 56.54780960083008 1.500006556510925 62.89922714233398 2.782120943069458 68.87755584716797 5.31073522567749 C 74.65267944335938 7.753406524658203 79.839599609375 11.25062084197998 84.29421234130859 15.70522117614746 C 88.74882507324219 20.15983581542969 92.24604034423828 25.34673500061035 94.68872833251953 31.12186431884766 C 97.21733856201172 37.10017776489258 98.49945068359375 43.45157623291016 98.49945068359375 49.99964904785156 C 98.49945068359375 56.54829406738281 97.21733856201172 62.89969253540039 94.68872833251953 68.87800598144531 C 92.24604034423828 74.65313720703125 88.74882507324219 79.84004974365234 84.29421234130859 84.29464721679688 C 79.839599609375 88.74925994873047 74.65267944335938 92.24647521972656 68.87755584716797 94.68914794921875 C 62.89922714233398 97.21776580810547 56.54780960083008 98.4998779296875 49.99972534179688 98.4998779296875 Z" stroke="none"/>
                <path d="M 49.99972534179688 3 C 43.65348052978516 3 37.49866485595703 4.242240905761719 31.70623016357422 6.692230224609375 C 26.10989379882812 9.059272766113281 21.08323669433594 12.44853210449219 16.76589202880859 16.76587677001953 C 12.44855499267578 21.08321380615234 9.059295654296875 26.10985565185547 6.692230224609375 31.70618438720703 C 4.24224853515625 37.49859619140625 3 43.65341186523438 3 50.00022888183594 C 3 56.34645843505859 4.24224853515625 62.50127410888672 6.692230224609375 68.29368591308594 C 9.059295654296875 73.8900146484375 12.44855499267578 78.91665649414062 16.76589202880859 83.23399353027344 C 21.08323669433594 87.55132293701172 26.10989379882812 90.94059753417969 31.70623016357422 93.30764007568359 C 37.49866485595703 95.75762939453125 43.65348052978516 96.99987030029297 49.99972534179688 96.99987030029297 C 56.34597015380859 96.99987030029297 62.50078582763672 95.75762939453125 68.293212890625 93.30764007568359 C 73.88955688476562 90.94059753417969 78.91621398925781 87.55132293701172 83.23355865478516 83.23399353027344 C 87.55089569091797 78.91665649414062 90.94015502929688 73.8900146484375 93.30722045898438 68.29368591308594 C 95.7572021484375 62.50127410888672 96.99945068359375 56.34645843505859 96.99945068359375 49.99964141845703 C 96.99945068359375 43.65341186523438 95.7572021484375 37.49859619140625 93.30722045898438 31.70618438720703 C 90.94015502929688 26.10985565185547 87.55089569091797 21.08321380615234 83.23355865478516 16.76587677001953 C 78.91621398925781 12.44853210449219 73.88955688476562 9.059272766113281 68.293212890625 6.692230224609375 C 62.50078582763672 4.242240905761719 56.34597015380859 3 49.99972534179688 3 M 49.99972534179688 0 C 77.61381530761719 0 99.99945068359375 22.38559722900391 99.99945068359375 49.99964141845703 L 99.99945068359375 50.00022888183594 C 99.99945068359375 77.6142578125 77.61381530761719 99.99987030029297 49.99972534179688 99.99987030029297 C 22.38563537597656 99.99987030029297 0 77.6142578125 0 50.00022888183594 L 0 49.99964141845703 C 0 22.38559722900391 22.38563537597656 0 49.99972534179688 0 Z" stroke="none" fill="#fff"/>
              </g>
            </g>
            <g id="Trazado_874923" data-name="Trazado 874923" transform="translate(0 0)" fill="none">
              <path d="M50,0a50,50,0,0,1,50,50h0A50,50,0,0,1,0,50H0A50,50,0,0,1,50,0Z" stroke="none"/>
              <path d="M 49.99972534179688 3 C 43.65348052978516 3 37.49866485595703 4.242240905761719 31.70623016357422 6.692230224609375 C 26.10989379882812 9.059272766113281 21.08323669433594 12.44853210449219 16.76589202880859 16.76587677001953 C 12.44855499267578 21.08321380615234 9.059295654296875 26.10985565185547 6.692230224609375 31.70618438720703 C 4.24224853515625 37.49859619140625 3 43.65341186523438 3 50.00022888183594 C 3 56.34645843505859 4.24224853515625 62.50127410888672 6.692230224609375 68.29368591308594 C 9.059295654296875 73.8900146484375 12.44855499267578 78.91665649414062 16.76589202880859 83.23399353027344 C 21.08323669433594 87.55132293701172 26.10989379882812 90.94059753417969 31.70623016357422 93.30764007568359 C 37.49866485595703 95.75762939453125 43.65348052978516 96.99987030029297 49.99972534179688 96.99987030029297 C 56.34597015380859 96.99987030029297 62.50078582763672 95.75762939453125 68.293212890625 93.30764007568359 C 73.88955688476562 90.94059753417969 78.91621398925781 87.55132293701172 83.23355865478516 83.23399353027344 C 87.55089569091797 78.91665649414062 90.94015502929688 73.8900146484375 93.30722045898438 68.29368591308594 C 95.7572021484375 62.50127410888672 96.99945068359375 56.34645843505859 96.99945068359375 49.99964141845703 C 96.99945068359375 43.65341186523438 95.7572021484375 37.49859619140625 93.30722045898438 31.70618438720703 C 90.94015502929688 26.10985565185547 87.55089569091797 21.08321380615234 83.23355865478516 16.76587677001953 C 78.91621398925781 12.44853210449219 73.88955688476562 9.059272766113281 68.293212890625 6.692230224609375 C 62.50078582763672 4.242240905761719 56.34597015380859 3 49.99972534179688 3 M 49.99972534179688 0 C 77.61381530761719 0 99.99945068359375 22.38559722900391 99.99945068359375 49.99964141845703 L 99.99945068359375 50.00022888183594 C 99.99945068359375 77.6142578125 77.61381530761719 99.99987030029297 49.99972534179688 99.99987030029297 C 22.38563537597656 99.99987030029297 0 77.6142578125 0 50.00022888183594 L 0 49.99964141845703 C 0 22.38559722900391 22.38563537597656 0 49.99972534179688 0 Z" stroke="none" fill="#fff"/>
            </g>
          </g>
        </g>
      </g>
    </g>
    <g id="Grupo_1116051" data-name="Grupo 1116051" transform="translate(-6899 -9776)">
      <g id="Grupo_1116050" data-name="Grupo 1116050">
        <g id="filled_outline_8_">
          <path id="Trazado_912561" data-name="Trazado 912561" d="M468.069,81.962,457.258,71.13v43.405h14.468V90.756A12.4,12.4,0,0,0,468.069,81.962Z" transform="translate(-410.752 -63.896)" fill="#ffb782"/>
          <path id="Trazado_912562" data-name="Trazado 912562" d="M18.607,51.864,10.435,30.647A4.133,4.133,0,0,1,12.807,25.3L51.382,10.445a4.133,4.133,0,0,1,5.343,2.372L64.9,34.033a4.133,4.133,0,0,1-2.372,5.343L23.951,54.236A4.135,4.135,0,0,1,18.607,51.864Z" transform="translate(-9.124 -9.133)" fill="#de4c3c"/>
          <path id="Trazado_912563" data-name="Trazado 912563" d="M88.463,111.368,42.21,129.3l3.08,7.995,46.255-17.92Z" transform="translate(-37.917 -100.041)" fill="#7a4930"/>
          <path id="Trazado_912564" data-name="Trazado 912564" d="M10.161,37.031V14.295a4.134,4.134,0,0,1,4.134-4.134H55.633a4.134,4.134,0,0,1,4.134,4.134V37.031a4.134,4.134,0,0,1-4.134,4.134H14.295A4.134,4.134,0,0,1,10.161,37.031Z" transform="translate(-9.128 -9.128)" fill="#4398d1"/>
          <path id="Trazado_912565" data-name="Trazado 912565" d="M144.63,10.161h-4.392l-31,31h35.4a4.134,4.134,0,0,0,4.134-4.134V14.295A4.134,4.134,0,0,0,144.63,10.161Z" transform="translate(-98.124 -9.128)" fill="#3e8cc7"/>
          <rect id="Rectángulo_405077" data-name="Rectángulo 405077" width="4.134" height="2.067" transform="translate(5.167 17.569)" fill="#5eb3d1"/>
          <rect id="Rectángulo_405078" data-name="Rectángulo 405078" width="4.134" height="2.067" transform="translate(5.167 23.77)" fill="#5eb3d1"/>
          <rect id="Rectángulo_405079" data-name="Rectángulo 405079" width="4.134" height="2.067" transform="translate(23.77 23.77)" fill="#5eb3d1"/>
          <rect id="Rectángulo_405080" data-name="Rectángulo 405080" width="4.134" height="2.067" transform="translate(11.368 17.569)" fill="#5eb3d1"/>
          <rect id="Rectángulo_405081" data-name="Rectángulo 405081" width="4.134" height="2.067" transform="translate(17.569 17.569)" fill="#5eb3d1"/>
          <rect id="Rectángulo_405082" data-name="Rectángulo 405082" width="4.134" height="2.067" transform="translate(23.77 17.569)" fill="#5eb3d1"/>
          <rect id="Rectángulo_405083" data-name="Rectángulo 405083" width="2.067" height="3.1" transform="translate(43.405 5.167)" fill="#5eb3d1"/>
          <rect id="Rectángulo_405084" data-name="Rectángulo 405084" width="2.067" height="3.1" transform="translate(39.271 5.167)" fill="#5eb3d1"/>
          <rect id="Rectángulo_405085" data-name="Rectángulo 405085" width="2.067" height="3.1" transform="translate(35.138 5.167)" fill="#5eb3d1"/>
          <rect id="Rectángulo_405086" data-name="Rectángulo 405086" width="2.067" height="3.1" transform="translate(31.004 5.167)" fill="#5eb3d1"/>
          <rect id="Rectángulo_405087" data-name="Rectángulo 405087" width="18.602" height="10.335" transform="translate(42.372 50.639)" fill="#88b337"/>
          <path id="Trazado_912566" data-name="Trazado 912566" d="M319.288,182.185a4.48,4.48,0,0,0-6.469,6.2l8.469,9.239a13.938,13.938,0,0,0,.282,14.3l.751,1.2h13.435V198.653Z" transform="translate(-279.95 -162.482)" fill="#ffb782"/>
          <rect id="Rectángulo_405088" data-name="Rectángulo 405088" width="2.067" height="2.067" transform="translate(45.472 53.74)" fill="#6b962a"/>
          <path id="Trazado_912567" data-name="Trazado 912567" d="M50.806,57.421V52.461a1.653,1.653,0,0,1,1.654-1.654H57.42a1.653,1.653,0,0,1,1.654,1.654v4.961a1.653,1.653,0,0,1-1.654,1.654H52.46A1.653,1.653,0,0,1,50.806,57.421Z" transform="translate(-45.639 -45.64)" fill="#fdb62f"/>
          <rect id="Rectángulo_405089" data-name="Rectángulo 405089" width="3.1" height="2.067" transform="translate(5.167 8.268)" fill="#fd7b2f"/>
          <rect id="Rectángulo_405090" data-name="Rectángulo 405090" width="3.1" height="2.067" transform="translate(10.335 8.268)" fill="#fd7b2f"/>
          <path id="Trazado_912568" data-name="Trazado 912568" d="M493.019,300.993a1.031,1.031,0,0,1-.731-.3l-4.134-4.134a1.033,1.033,0,0,1,1.461-1.461l4.134,4.134a1.033,1.033,0,0,1-.731,1.764Z" transform="translate(-438.246 -264.822)" fill="#f2a46f"/>
          <path id="Trazado_912569" data-name="Trazado 912569" d="M51.673,10.948V5.167A5.173,5.173,0,0,0,46.506,0H5.167A5.173,5.173,0,0,0,0,5.167V27.9a5.156,5.156,0,0,0,4.634,5.114L8.519,43.1A5.167,5.167,0,0,0,15.2,46.065l24.259-9.344a14.936,14.936,0,0,0,1.288,13.264l.593.95V60.974a1.034,1.034,0,0,0,1.033,1.033h18.6a1.034,1.034,0,0,0,1.033-1.033V26.861a13.522,13.522,0,0,0-3.959-9.525Zm0,6.18,3.137,8.143a3.1,3.1,0,0,1-1.78,4.007l-1.793.692a5.153,5.153,0,0,0,.436-2.067V17.129ZM2.067,27.9V5.167a3.1,3.1,0,0,1,3.1-3.1H46.506a3.1,3.1,0,0,1,3.1,3.1v6.569H49.6l.009.024V27.9a3.112,3.112,0,0,1-.07.535l-9.466-9.468A5.514,5.514,0,0,0,32.112,26.6L36.147,31H5.167a3.1,3.1,0,0,1-3.1-3.1Zm13.24,5.167L7.958,35.9,6.87,33.071Zm-.852,11.066a3.1,3.1,0,0,1-4.008-1.779h0L8.7,37.824,21.04,33.071v-.006h17l1.344,1.464Zm45.486,15.8H43.405V51.673H59.941Zm0-10.335h-17L42.5,48.89a12.888,12.888,0,0,1-.261-13.236,1.033,1.033,0,0,0-.135-1.211L33.631,25.2a3.447,3.447,0,0,1,4.977-4.766L55.076,36.9l1.461-1.461-3.824-3.824,1.06-.413a5.166,5.166,0,0,0,2.963-6.676l-3.5-9.083L56.587,18.8A11.443,11.443,0,0,1,59.94,26.86V49.606Z"/>
          <path id="Trazado_912570" data-name="Trazado 912570" d="M48.294,50.98a2.687,2.687,0,0,0,2.687-2.687h0V43.333a2.687,2.687,0,0,0-2.687-2.687H43.333a2.687,2.687,0,0,0-2.687,2.687h0v4.961a2.687,2.687,0,0,0,2.687,2.687h4.961Zm-5.581-2.687V46.847H44.78V44.78H42.713V43.333a.621.621,0,0,1,.62-.62h4.961a.621.621,0,0,1,.62.62h0V44.78H46.847v2.067h2.067v1.447a.621.621,0,0,1-.62.62H43.333a.621.621,0,0,1-.62-.62Z" transform="translate(-36.512 -36.512)"/>
          <rect id="Rectángulo_405091" data-name="Rectángulo 405091" width="4.134" height="2.067" transform="translate(5.167 17.569)"/>
          <rect id="Rectángulo_405092" data-name="Rectángulo 405092" width="4.134" height="2.067" transform="translate(5.167 23.77)"/>
          <rect id="Rectángulo_405093" data-name="Rectángulo 405093" width="4.134" height="2.067" transform="translate(23.77 23.77)"/>
          <rect id="Rectángulo_405094" data-name="Rectángulo 405094" width="4.134" height="2.067" transform="translate(11.368 17.569)"/>
          <rect id="Rectángulo_405095" data-name="Rectángulo 405095" width="4.134" height="2.067" transform="translate(17.569 17.569)"/>
          <rect id="Rectángulo_405096" data-name="Rectángulo 405096" width="4.134" height="2.067" transform="translate(23.77 17.569)"/>
          <rect id="Rectángulo_405097" data-name="Rectángulo 405097" width="2.067" height="3.1" transform="translate(43.405 5.167)"/>
          <rect id="Rectángulo_405098" data-name="Rectángulo 405098" width="2.067" height="3.1" transform="translate(39.271 5.167)"/>
          <rect id="Rectángulo_405099" data-name="Rectángulo 405099" width="2.067" height="3.1" transform="translate(35.138 5.167)"/>
          <rect id="Rectángulo_405100" data-name="Rectángulo 405100" width="2.067" height="3.1" transform="translate(31.004 5.167)"/>
          <rect id="Rectángulo_405101" data-name="Rectángulo 405101" width="2.067" height="2.067" transform="translate(45.472 53.74)"/>
        </g>
      </g>
    </g>
  </g>
</svg>
