<svg xmlns="http://www.w3.org/2000/svg" xmlns:xlink="http://www.w3.org/1999/xlink" width="118" height="118" viewBox="0 0 118 118">
  <defs>
    <filter id="Trazado_874925" x="0" y="0" width="118" height="118" filterUnits="userSpaceOnUse">
      <feOffset dy="3" input="SourceAlpha"/>
      <feGaussianBlur stdDeviation="3" result="blur"/>
      <feFlood flood-opacity="0.161"/>
      <feComposite operator="in" in2="blur"/>
      <feComposite in="SourceGraphic"/>
    </filter>
  </defs>
  <g id="Grupo_1116055" data-name="Grupo 1116055" transform="translate(6613 9801)">
    <g id="Grupo_1111553" data-name="Grupo 1111553" transform="translate(-7412.5 -12312.157)">
      <g id="Grupo_1111316" data-name="Grupo 1111316" transform="translate(808.5 2517.157)">
        <g id="Grupo_1109835" data-name="Grupo 1109835" transform="translate(0 0)">
          <g id="Grupo_1107913" data-name="Grupo 1107913" transform="translate(0 0)">
            <g transform="matrix(1, 0, 0, 1, -9, -6)" filter="url(#Trazado_874925)">
              <g id="Trazado_874925-2" data-name="Trazado 874925" transform="translate(9 6)" fill="#9cc8ff" opacity="0.859">
                <path d="M 49.99972534179688 98.4998779296875 C 43.45164108276367 98.4998779296875 37.10022354125977 97.21776580810547 31.12189674377441 94.68914794921875 C 25.34676742553711 92.24647521972656 20.15985298156738 88.74925994873047 15.70523929595947 84.29464721679688 C 11.25062561035156 79.84004974365234 7.753411293029785 74.65313720703125 5.310725212097168 68.87800598144531 C 2.782111167907715 62.89969253540039 1.499996781349182 56.54829406738281 1.499996781349182 50.00022125244141 C 1.499996781349182 43.45157623291016 2.782111167907715 37.10017776489258 5.310725212097168 31.12186431884766 C 7.753411293029785 25.34673500061035 11.25062561035156 20.15983581542969 15.70523929595947 15.70522117614746 C 20.15985298156738 11.25062084197998 25.34676742553711 7.753406524658203 31.12189674377441 5.31073522567749 C 37.10022354125977 2.782120943069458 43.45164108276367 1.500006556510925 49.99972534179688 1.500006556510925 C 56.54780960083008 1.500006556510925 62.89922714233398 2.782120943069458 68.87755584716797 5.31073522567749 C 74.65267944335938 7.753406524658203 79.839599609375 11.25062084197998 84.29421234130859 15.70522117614746 C 88.74882507324219 20.15983581542969 92.24604034423828 25.34673500061035 94.68872833251953 31.12186431884766 C 97.21733856201172 37.10017776489258 98.49945068359375 43.45157623291016 98.49945068359375 49.99964904785156 C 98.49945068359375 56.54829406738281 97.21733856201172 62.89969253540039 94.68872833251953 68.87800598144531 C 92.24604034423828 74.65313720703125 88.74882507324219 79.84004974365234 84.29421234130859 84.29464721679688 C 79.839599609375 88.74925994873047 74.65267944335938 92.24647521972656 68.87755584716797 94.68914794921875 C 62.89922714233398 97.21776580810547 56.54780960083008 98.4998779296875 49.99972534179688 98.4998779296875 Z" stroke="none"/>
                <path d="M 49.99972534179688 3 C 43.65348052978516 3 37.49866485595703 4.242240905761719 31.70623016357422 6.692230224609375 C 26.10989379882812 9.059272766113281 21.08323669433594 12.44853210449219 16.76589202880859 16.76587677001953 C 12.44855499267578 21.08321380615234 9.059295654296875 26.10985565185547 6.692230224609375 31.70618438720703 C 4.24224853515625 37.49859619140625 3 43.65341186523438 3 50.00022888183594 C 3 56.34645843505859 4.24224853515625 62.50127410888672 6.692230224609375 68.29368591308594 C 9.059295654296875 73.8900146484375 12.44855499267578 78.91665649414062 16.76589202880859 83.23399353027344 C 21.08323669433594 87.55132293701172 26.10989379882812 90.94059753417969 31.70623016357422 93.30764007568359 C 37.49866485595703 95.75762939453125 43.65348052978516 96.99987030029297 49.99972534179688 96.99987030029297 C 56.34597015380859 96.99987030029297 62.50078582763672 95.75762939453125 68.293212890625 93.30764007568359 C 73.88955688476562 90.94059753417969 78.91621398925781 87.55132293701172 83.23355865478516 83.23399353027344 C 87.55089569091797 78.91665649414062 90.94015502929688 73.8900146484375 93.30722045898438 68.29368591308594 C 95.7572021484375 62.50127410888672 96.99945068359375 56.34645843505859 96.99945068359375 49.99964141845703 C 96.99945068359375 43.65341186523438 95.7572021484375 37.49859619140625 93.30722045898438 31.70618438720703 C 90.94015502929688 26.10985565185547 87.55089569091797 21.08321380615234 83.23355865478516 16.76587677001953 C 78.91621398925781 12.44853210449219 73.88955688476562 9.059272766113281 68.293212890625 6.692230224609375 C 62.50078582763672 4.242240905761719 56.34597015380859 3 49.99972534179688 3 M 49.99972534179688 0 C 77.61381530761719 0 99.99945068359375 22.38559722900391 99.99945068359375 49.99964141845703 L 99.99945068359375 50.00022888183594 C 99.99945068359375 77.6142578125 77.61381530761719 99.99987030029297 49.99972534179688 99.99987030029297 C 22.38563537597656 99.99987030029297 0 77.6142578125 0 50.00022888183594 L 0 49.99964141845703 C 0 22.38559722900391 22.38563537597656 0 49.99972534179688 0 Z" stroke="none" fill="#fff"/>
              </g>
            </g>
            <g id="Trazado_874923" data-name="Trazado 874923" transform="translate(0 0)" fill="none">
              <path d="M50,0a50,50,0,0,1,50,50h0A50,50,0,0,1,0,50H0A50,50,0,0,1,50,0Z" stroke="none"/>
              <path d="M 49.99972534179688 3 C 43.65348052978516 3 37.49866485595703 4.242240905761719 31.70623016357422 6.692230224609375 C 26.10989379882812 9.059272766113281 21.08323669433594 12.44853210449219 16.76589202880859 16.76587677001953 C 12.44855499267578 21.08321380615234 9.059295654296875 26.10985565185547 6.692230224609375 31.70618438720703 C 4.24224853515625 37.49859619140625 3 43.65341186523438 3 50.00022888183594 C 3 56.34645843505859 4.24224853515625 62.50127410888672 6.692230224609375 68.29368591308594 C 9.059295654296875 73.8900146484375 12.44855499267578 78.91665649414062 16.76589202880859 83.23399353027344 C 21.08323669433594 87.55132293701172 26.10989379882812 90.94059753417969 31.70623016357422 93.30764007568359 C 37.49866485595703 95.75762939453125 43.65348052978516 96.99987030029297 49.99972534179688 96.99987030029297 C 56.34597015380859 96.99987030029297 62.50078582763672 95.75762939453125 68.293212890625 93.30764007568359 C 73.88955688476562 90.94059753417969 78.91621398925781 87.55132293701172 83.23355865478516 83.23399353027344 C 87.55089569091797 78.91665649414062 90.94015502929688 73.8900146484375 93.30722045898438 68.29368591308594 C 95.7572021484375 62.50127410888672 96.99945068359375 56.34645843505859 96.99945068359375 49.99964141845703 C 96.99945068359375 43.65341186523438 95.7572021484375 37.49859619140625 93.30722045898438 31.70618438720703 C 90.94015502929688 26.10985565185547 87.55089569091797 21.08321380615234 83.23355865478516 16.76587677001953 C 78.91621398925781 12.44853210449219 73.88955688476562 9.059272766113281 68.293212890625 6.692230224609375 C 62.50078582763672 4.242240905761719 56.34597015380859 3 49.99972534179688 3 M 49.99972534179688 0 C 77.61381530761719 0 99.99945068359375 22.38559722900391 99.99945068359375 49.99964141845703 L 99.99945068359375 50.00022888183594 C 99.99945068359375 77.6142578125 77.61381530761719 99.99987030029297 49.99972534179688 99.99987030029297 C 22.38563537597656 99.99987030029297 0 77.6142578125 0 50.00022888183594 L 0 49.99964141845703 C 0 22.38559722900391 22.38563537597656 0 49.99972534179688 0 Z" stroke="none" fill="#fff"/>
            </g>
          </g>
        </g>
      </g>
    </g>
    <g id="Grupo_1116054" data-name="Grupo 1116054" transform="translate(-6608.892 -9777)">
      <path id="Trazado_912571" data-name="Trazado 912571" d="M157.456,67.9H192.97v39.464H157.456Z" transform="translate(-114.849 -59.272)" fill="#edba94"/>
      <path id="Trazado_912572" data-name="Trazado 912572" d="M168.47,69.871a12.447,12.447,0,0,0-.157-1.973H157.456V82.2A12.425,12.425,0,0,0,168.47,69.871Z" transform="translate(-114.849 -59.272)" fill="#e5a87f"/>
      <path id="Trazado_912573" data-name="Trazado 912573" d="M33.392,331.927h7.893v21.705H33.392Z" transform="translate(-6.547 -289.756)" fill="#9dc6fb"/>
      <path id="Trazado_912574" data-name="Trazado 912574" d="M33.392,331.927h2.541v21.705H33.392Z" transform="translate(-6.547 -289.756)" fill="#80b4fb"/>
      <path id="Trazado_912575" data-name="Trazado 912575" d="M157.456,67.9H160v39.464h-2.541Z" transform="translate(-114.849 -59.272)" fill="#e5a87f"/>
      <path id="Trazado_912576" data-name="Trazado 912576" d="M95.517,347.458h3.964V367.19H95.517Z" transform="translate(-60.779 -303.314)" fill="#f1f6f7"/>
      <path id="Trazado_912577" data-name="Trazado 912577" d="M274.029,78.432l-3.95-1.812-3.95,1.812V67.9h7.9Z" transform="translate(-209.714 -59.272)" fill="#fd6930"/>
      <path id="Trazado_912578" data-name="Trazado 912578" d="M201.131,214.444l-5.038-5.038-5.038,5.038h3.064V223h3.947v-8.555Z" transform="translate(-144.18 -182.802)" fill="#f1f6f7"/>
      <path id="Trazado_912579" data-name="Trazado 912579" d="M344.015,284.99h7.893v4.034h-7.893Z" transform="translate(-277.706 -248.783)" fill="#e5a87f"/>
      <path id="Trazado_912580" data-name="Trazado 912580" d="M126.578,331.864s3.785-3.843,11.431-3.843a11.839,11.839,0,0,1,4.267.8l3.027,1.17H151.3a2.537,2.537,0,0,1,2.537,2.537,4.861,4.861,0,0,1-.111.743h0l4.815-2.78,8.787-5.074a2.537,2.537,0,0,1,3.465.93,2.626,2.626,0,0,1-.927,3.465L153.8,342.361a6.315,6.315,0,0,1-3.893,1.342H126.578V331.864Z" transform="translate(-87.894 -283.773)" fill="#ffcebf"/>
      <path id="Trazado_912581" data-name="Trazado 912581" d="M139.08,348.324q-.533-.048-1.07-.049c-7.646,0-11.431,3.843-11.431,3.843v11.839h2.541V352.118S132.419,348.768,139.08,348.324Z" transform="translate(-87.895 -304.027)" fill="#ffb09e"/>
      <path id="Trazado_912582" data-name="Trazado 912582" d="M58.284,372.926a.953.953,0,1,1,.953-.953A.953.953,0,0,1,58.284,372.926Z" transform="translate(-27.445 -323.883)"/>
      <circle id="Elipse_11745" data-name="Elipse 11745" cx="9.866" cy="9.866" r="9.866" transform="translate(31.348 0.733)" fill="#ade194"/>
      <path id="Trazado_912583" data-name="Trazado 912583" d="M71.378,15.64a9.868,9.868,0,0,1,8.6-9.785A9.867,9.867,0,1,0,78.7,25.506a9.959,9.959,0,0,0,1.27-.081A9.868,9.868,0,0,1,71.378,15.64Z" transform="translate(-37.489 -5.041)" fill="#7dce6f"/>
      <g id="Grupo_1116053" data-name="Grupo 1116053" transform="translate(25.892 0)">
        <path id="Trazado_912584" data-name="Trazado 912584" d="M187.741,217.406h3.947a.953.953,0,0,0,.953-.953v-7.6h2.111c.933.006,1.506-.841.674-1.627l-5.037-5.038a.953.953,0,0,0-1.348,0L184,207.224c-.5.842-.259,1.446.674,1.627h2.112v7.6A.952.952,0,0,0,187.741,217.406Zm1.973-13.2,2.737,2.737h-.764a.953.953,0,0,0-.953.953v7.6h-2.041v-7.6a.953.953,0,0,0-.953-.953h-.764Z" transform="translate(-163.693 -176.255)"/>
        <path id="Trazado_912585" data-name="Trazado 912585" d="M345.36,277.49h-7.893a.953.953,0,0,0-.953.953v4.034a.953.953,0,0,0,.953.953h7.893a.953.953,0,0,0,.953-.953v-4.034A.953.953,0,0,0,345.36,277.49Zm-.953,4.034H338.42V279.4h5.987Z" transform="translate(-297.05 -242.235)"/>
        <path id="Trazado_912586" data-name="Trazado 912586" d="M345.36,246.771h-7.893a.953.953,0,0,0,0,1.906h7.893a.953.953,0,1,0,0-1.906Z" transform="translate(-297.05 -215.419)"/>
        <path id="Trazado_912587" data-name="Trazado 912587" d="M83.72,42.094a3.559,3.559,0,0,0-4.646-1.345V25.936a.953.953,0,1,0-1.906,0v15.91L68,47.138H66.492A3.49,3.49,0,0,0,63.4,45.261H57.587a19.512,19.512,0,0,0-7.472-1.967A20.874,20.874,0,0,0,43.561,44.3V21.159A10.946,10.946,0,0,0,51.983,9.579h3.478V19.16a.953.953,0,0,0,1.35.866l3.553-1.63,3.553,1.63a.972.972,0,0,0,1.35-.866V9.579h11.9v12.2a.953.953,0,1,0,1.906,0V8.626a.953.953,0,0,0-.953-.953h-26.5A11.025,11.025,0,0,0,43.491.021a.953.953,0,1,0-.4,1.864,8.913,8.913,0,1,1-3.754,0,.953.953,0,1,0-.4-1.864A10.985,10.985,0,0,0,30.4,10.6,10.982,10.982,0,0,0,41.655,21.407V45.048a16.021,16.021,0,0,0-2,1.1v-2a.953.953,0,0,0-.953-.953H35.691v-1.02a.953.953,0,0,0-.953-.953H26.845a.953.953,0,0,0-.953.953V63.876a.953.953,0,0,0,.953.953H38.7a.953.953,0,0,0,.953-.953V60.883H49.837a.953.953,0,1,0,0-1.906H39.655V48.5a16.443,16.443,0,0,1,10.46-3.3c2.6,0,7.029,1.937,7.294,1.967H63.4c1.786,0,2.336,3.167.017,3.167H51.914a.953.953,0,1,0,0,1.906H63.419a3.467,3.467,0,0,0,3.2-2.1l13.287-7.672a1.585,1.585,0,0,1,1.584,2.744c-.038.022-16.172,12.629-16.172,12.629a5.386,5.386,0,0,1-3.305,1.139H53.99a.953.953,0,0,0,0,1.906h8.023a7.3,7.3,0,0,0,4.479-1.544L82.507,46.823a3.581,3.581,0,0,0,1.214-4.729ZM63.362,17.675l-2.6-1.193a.953.953,0,0,0-.795,0l-2.6,1.193v-8.1h5.995ZM27.8,43.124h5.987v19.8H27.8Zm7.893,19.8V45.1h2.058V62.923H35.691Z" transform="translate(-25.892 0)"/>
        <path id="Trazado_912588" data-name="Trazado 912588" d="M102.286,53.187a.953.953,0,1,0-1.451,1.236L103.8,57.9a.953.953,0,0,0,.725.335h.016a.953.953,0,0,0,.73-.36l5.859-7.373a.953.953,0,0,0-1.492-1.186L104.5,55.786Z" transform="translate(-91.116 -42.74)"/>
      </g>
    </g>
  </g>
</svg>
