<svg xmlns="http://www.w3.org/2000/svg" xmlns:xlink="http://www.w3.org/1999/xlink" width="118" height="118" viewBox="0 0 118 118">
  <defs>
    <filter id="Trazado_874925" x="0" y="0" width="118" height="118" filterUnits="userSpaceOnUse">
      <feOffset dy="3" input="SourceAlpha"/>
      <feGaussianBlur stdDeviation="3" result="blur"/>
      <feFlood flood-opacity="0.161"/>
      <feComposite operator="in" in2="blur"/>
      <feComposite in="SourceGraphic"/>
    </filter>
  </defs>
  <g id="Grupo_1119206" data-name="Grupo 1119206" transform="translate(2100 9810)">
    <g id="Grupo_1111552" data-name="Grupo 1111552" transform="translate(-2899.5 -12321.157)">
      <g id="Grupo_1111316" data-name="Grupo 1111316" transform="translate(808.5 2517.157)">
        <g id="Grupo_1109835" data-name="Grupo 1109835" transform="translate(0 0)">
          <g id="Grupo_1107913" data-name="Grupo 1107913" transform="translate(0 0)">
            <g transform="matrix(1, 0, 0, 1, -9, -6)" filter="url(#Trazado_874925)">
              <g id="Trazado_874925-2" data-name="Trazado 874925" transform="translate(9 6)" fill="#9cc8ff" opacity="0.859">
                <path d="M 49.99972534179688 98.4998779296875 C 43.45164108276367 98.4998779296875 37.10022354125977 97.21776580810547 31.12189674377441 94.68914794921875 C 25.34676742553711 92.24647521972656 20.15985298156738 88.74925994873047 15.70523929595947 84.29464721679688 C 11.25062561035156 79.84004974365234 7.753411293029785 74.65313720703125 5.310725212097168 68.87800598144531 C 2.782111167907715 62.89969253540039 1.499996781349182 56.54829406738281 1.499996781349182 50.00022125244141 C 1.499996781349182 43.45157623291016 2.782111167907715 37.10017776489258 5.310725212097168 31.12186431884766 C 7.753411293029785 25.34673500061035 11.25062561035156 20.15983581542969 15.70523929595947 15.70522117614746 C 20.15985298156738 11.25062084197998 25.34676742553711 7.753406524658203 31.12189674377441 5.31073522567749 C 37.10022354125977 2.782120943069458 43.45164108276367 1.500006556510925 49.99972534179688 1.500006556510925 C 56.54780960083008 1.500006556510925 62.89922714233398 2.782120943069458 68.87755584716797 5.31073522567749 C 74.65267944335938 7.753406524658203 79.839599609375 11.25062084197998 84.29421234130859 15.70522117614746 C 88.74882507324219 20.15983581542969 92.24604034423828 25.34673500061035 94.68872833251953 31.12186431884766 C 97.21733856201172 37.10017776489258 98.49945068359375 43.45157623291016 98.49945068359375 49.99964904785156 C 98.49945068359375 56.54829406738281 97.21733856201172 62.89969253540039 94.68872833251953 68.87800598144531 C 92.24604034423828 74.65313720703125 88.74882507324219 79.84004974365234 84.29421234130859 84.29464721679688 C 79.839599609375 88.74925994873047 74.65267944335938 92.24647521972656 68.87755584716797 94.68914794921875 C 62.89922714233398 97.21776580810547 56.54780960083008 98.4998779296875 49.99972534179688 98.4998779296875 Z" stroke="none"/>
                <path d="M 49.99972534179688 3 C 43.65348052978516 3 37.49866485595703 4.242240905761719 31.70623016357422 6.692230224609375 C 26.10989379882812 9.059272766113281 21.08323669433594 12.44853210449219 16.76589202880859 16.76587677001953 C 12.44855499267578 21.08321380615234 9.059295654296875 26.10985565185547 6.692230224609375 31.70618438720703 C 4.24224853515625 37.49859619140625 3 43.65341186523438 3 50.00022888183594 C 3 56.34645843505859 4.24224853515625 62.50127410888672 6.692230224609375 68.29368591308594 C 9.059295654296875 73.8900146484375 12.44855499267578 78.91665649414062 16.76589202880859 83.23399353027344 C 21.08323669433594 87.55132293701172 26.10989379882812 90.94059753417969 31.70623016357422 93.30764007568359 C 37.49866485595703 95.75762939453125 43.65348052978516 96.99987030029297 49.99972534179688 96.99987030029297 C 56.34597015380859 96.99987030029297 62.50078582763672 95.75762939453125 68.293212890625 93.30764007568359 C 73.88955688476562 90.94059753417969 78.91621398925781 87.55132293701172 83.23355865478516 83.23399353027344 C 87.55089569091797 78.91665649414062 90.94015502929688 73.8900146484375 93.30722045898438 68.29368591308594 C 95.7572021484375 62.50127410888672 96.99945068359375 56.34645843505859 96.99945068359375 49.99964141845703 C 96.99945068359375 43.65341186523438 95.7572021484375 37.49859619140625 93.30722045898438 31.70618438720703 C 90.94015502929688 26.10985565185547 87.55089569091797 21.08321380615234 83.23355865478516 16.76587677001953 C 78.91621398925781 12.44853210449219 73.88955688476562 9.059272766113281 68.293212890625 6.692230224609375 C 62.50078582763672 4.242240905761719 56.34597015380859 3 49.99972534179688 3 M 49.99972534179688 0 C 77.61381530761719 0 99.99945068359375 22.38559722900391 99.99945068359375 49.99964141845703 L 99.99945068359375 50.00022888183594 C 99.99945068359375 77.6142578125 77.61381530761719 99.99987030029297 49.99972534179688 99.99987030029297 C 22.38563537597656 99.99987030029297 0 77.6142578125 0 50.00022888183594 L 0 49.99964141845703 C 0 22.38559722900391 22.38563537597656 0 49.99972534179688 0 Z" stroke="none" fill="#fff"/>
              </g>
            </g>
            <g id="Trazado_874923" data-name="Trazado 874923" transform="translate(0 0)" fill="none">
              <path d="M50,0a50,50,0,0,1,50,50h0A50,50,0,0,1,0,50H0A50,50,0,0,1,50,0Z" stroke="none"/>
              <path d="M 49.99972534179688 3 C 43.65348052978516 3 37.49866485595703 4.242240905761719 31.70623016357422 6.692230224609375 C 26.10989379882812 9.059272766113281 21.08323669433594 12.44853210449219 16.76589202880859 16.76587677001953 C 12.44855499267578 21.08321380615234 9.059295654296875 26.10985565185547 6.692230224609375 31.70618438720703 C 4.24224853515625 37.49859619140625 3 43.65341186523438 3 50.00022888183594 C 3 56.34645843505859 4.24224853515625 62.50127410888672 6.692230224609375 68.29368591308594 C 9.059295654296875 73.8900146484375 12.44855499267578 78.91665649414062 16.76589202880859 83.23399353027344 C 21.08323669433594 87.55132293701172 26.10989379882812 90.94059753417969 31.70623016357422 93.30764007568359 C 37.49866485595703 95.75762939453125 43.65348052978516 96.99987030029297 49.99972534179688 96.99987030029297 C 56.34597015380859 96.99987030029297 62.50078582763672 95.75762939453125 68.293212890625 93.30764007568359 C 73.88955688476562 90.94059753417969 78.91621398925781 87.55132293701172 83.23355865478516 83.23399353027344 C 87.55089569091797 78.91665649414062 90.94015502929688 73.8900146484375 93.30722045898438 68.29368591308594 C 95.7572021484375 62.50127410888672 96.99945068359375 56.34645843505859 96.99945068359375 49.99964141845703 C 96.99945068359375 43.65341186523438 95.7572021484375 37.49859619140625 93.30722045898438 31.70618438720703 C 90.94015502929688 26.10985565185547 87.55089569091797 21.08321380615234 83.23355865478516 16.76587677001953 C 78.91621398925781 12.44853210449219 73.88955688476562 9.059272766113281 68.293212890625 6.692230224609375 C 62.50078582763672 4.242240905761719 56.34597015380859 3 49.99972534179688 3 M 49.99972534179688 0 C 77.61381530761719 0 99.99945068359375 22.38559722900391 99.99945068359375 49.99964141845703 L 99.99945068359375 50.00022888183594 C 99.99945068359375 77.6142578125 77.61381530761719 99.99987030029297 49.99972534179688 99.99987030029297 C 22.38563537597656 99.99987030029297 0 77.6142578125 0 50.00022888183594 L 0 49.99964141845703 C 0 22.38559722900391 22.38563537597656 0 49.99972534179688 0 Z" stroke="none" fill="#fff"/>
            </g>
          </g>
        </g>
      </g>
    </g>
    <g id="_11-best_price" data-name="11-best price" transform="translate(-2073 -9785.999)">
      <circle id="Elipse_11751" data-name="Elipse 11751" cx="21" cy="21" r="21" transform="translate(21 1)" fill="#ebd557"/>
      <circle id="Elipse_11752" data-name="Elipse 11752" cx="17" cy="17" r="17" transform="translate(25 5)" fill="#fcea81"/>
      <path id="Trazado_916646" data-name="Trazado 916646" d="M43,19H41a3,3,0,0,1,0-6h7a2,2,0,0,0,0-4H44V5H40V9.08A7,7,0,0,0,41,23h2a3,3,0,0,1,0,6H36a2,2,0,0,0,0,4h4v4h4V32.92A7,7,0,0,0,43,19Z" fill="#d7986c"/>
      <path id="Trazado_916647" data-name="Trazado 916647" d="M38,45H37a3,3,0,0,1,0,6H36a3,3,0,0,1,0,6H35a3,3,0,0,1,0,6H18l-7-2V43c3,0,5-4,5-4l4-14s5,0,5,6l-1,8H38a3,3,0,0,1,0,6Z" fill="#e7cea0"/>
      <path id="Trazado_916648" data-name="Trazado 916648" d="M1,41H11V63H1Z" fill="#7bace6"/>
      <path id="Trazado_916649" data-name="Trazado 916649" d="M42,42a4,4,0,0,0-4-4H25.13L26,31.12A.49.49,0,0,0,26,31c0-5.54-3.92-7-6-7a1,1,0,0,0-1,.73L15,38.62a7.67,7.67,0,0,1-3,3.17V41a1,1,0,0,0-1-1H1a1,1,0,0,0-1,1V63a1,1,0,0,0,1,1H11a1,1,0,0,0,1-1v-.67L17.73,64A.8.8,0,0,0,18,64H35a4,4,0,0,0,3-6.58,4,4,0,0,0,1-6,4,4,0,0,0,1-6A4,4,0,0,0,42,42ZM10,62H2V42h8Zm25,0H18.14L12,60.25V43.88c3-.69,4.81-4.26,4.89-4.43a1.34,1.34,0,0,0,.07-.18l3.77-13.18c1.17.26,3.25,1.23,3.27,4.85l-1,7.94A1,1,0,0,0,24,40H38a2,2,0,0,1,0,4H33a1,1,0,0,0,0,2h4a2,2,0,0,1,0,4H32a1,1,0,0,0,0,2h4a2,2,0,0,1,0,4H31a1,1,0,0,0,0,2h4a2,2,0,0,1,0,4Z"/>
      <path id="Trazado_916650" data-name="Trazado 916650" d="M13,15h1v1a1,1,0,0,0,2,0V15h1a1,1,0,0,0,0-2H16V12a1,1,0,0,0-2,0v1H13a1,1,0,0,0,0,2Z"/>
      <path id="Trazado_916651" data-name="Trazado 916651" d="M54,50H53V49a1,1,0,0,0-2,0v1H50a1,1,0,0,0,0,2h1v1a1,1,0,0,0,2,0V52h1a1,1,0,0,0,0-2Z"/>
      <path id="Trazado_916652" data-name="Trazado 916652" d="M42,0A22,22,0,0,0,20,22a1,1,0,0,0,2,0A20,20,0,1,1,45.81,41.64a1,1,0,0,0,.19,2h.19A22,22,0,0,0,42,0Z"/>
      <path id="Trazado_916653" data-name="Trazado 916653" d="M51,26a8,8,0,0,0-8-8H41a2,2,0,0,1,0-4h7a3,3,0,1,0,0-6H45V5a1,1,0,0,0-1-1H40a1,1,0,0,0-1,1V8.26A8,8,0,0,0,41,24h2a2,2,0,0,1,0,4H36a3,3,0,1,0,0,6h3v3a1,1,0,0,0,1,1h4a1,1,0,0,0,1-1V33.74A8,8,0,0,0,51,26Zm-7.14,5.93a1,1,0,0,0-.86,1V36H41V33a1,1,0,0,0-1-1H36a1,1,0,0,1,0-2h7a4,4,0,0,0,0-8H41a6,6,0,0,1-.86-11.93,1,1,0,0,0,.86-1V6h2V9a1,1,0,0,0,1,1h4a1,1,0,0,1,0,2H41a4,4,0,0,0,0,8h2a6,6,0,0,1,.86,11.93Z"/>
    </g>
  </g>
</svg>
