<svg xmlns="http://www.w3.org/2000/svg" xmlns:xlink="http://www.w3.org/1999/xlink" width="118" height="118" viewBox="0 0 118 118">
  <defs>
    <filter id="Trazado_874925" x="0" y="0" width="117.999" height="118" filterUnits="userSpaceOnUse">
      <feOffset dy="3" input="SourceAlpha"/>
      <feGaussianBlur stdDeviation="3" result="blur"/>
      <feFlood flood-opacity="0.161"/>
      <feComposite operator="in" in2="blur"/>
      <feComposite in="SourceGraphic"/>
    </filter>
  </defs>
  <g id="Grupo_1119209" data-name="Grupo 1119209" transform="translate(1786 9810)">
    <g id="Grupo_1111553" data-name="Grupo 1111553" transform="translate(-2585.5 -12321.157)">
      <g id="Grupo_1111316" data-name="Grupo 1111316" transform="translate(808.5 2517.157)">
        <g id="Grupo_1109835" data-name="Grupo 1109835" transform="translate(0 0)">
          <g id="Grupo_1107913" data-name="Grupo 1107913" transform="translate(0 0)">
            <g transform="matrix(1, 0, 0, 1, -9, -6)" filter="url(#Trazado_874925)">
              <g id="Trazado_874925-2" data-name="Trazado 874925" transform="translate(9 6)" fill="#9cc8ff" opacity="0.859">
                <path d="M 49.99972534179688 98.4998779296875 C 43.45164108276367 98.4998779296875 37.10022354125977 97.21776580810547 31.12189674377441 94.68914794921875 C 25.34676742553711 92.24647521972656 20.15985298156738 88.74925994873047 15.70523929595947 84.29464721679688 C 11.25062561035156 79.84004974365234 7.753411293029785 74.65313720703125 5.310725212097168 68.87800598144531 C 2.782111167907715 62.89969253540039 1.499996781349182 56.54829406738281 1.499996781349182 50.00022125244141 C 1.499996781349182 43.45157623291016 2.782111167907715 37.10017776489258 5.310725212097168 31.12186431884766 C 7.753411293029785 25.34673500061035 11.25062561035156 20.15983581542969 15.70523929595947 15.70522117614746 C 20.15985298156738 11.25062084197998 25.34676742553711 7.753406524658203 31.12189674377441 5.31073522567749 C 37.10022354125977 2.782120943069458 43.45164108276367 1.500006556510925 49.99972534179688 1.500006556510925 C 56.54780960083008 1.500006556510925 62.89922714233398 2.782120943069458 68.87755584716797 5.31073522567749 C 74.65267944335938 7.753406524658203 79.839599609375 11.25062084197998 84.29421234130859 15.70522117614746 C 88.74882507324219 20.15983581542969 92.24604034423828 25.34673500061035 94.68872833251953 31.12186431884766 C 97.21733856201172 37.10017776489258 98.49945068359375 43.45157623291016 98.49945068359375 49.99964904785156 C 98.49945068359375 56.54829406738281 97.21733856201172 62.89969253540039 94.68872833251953 68.87800598144531 C 92.24604034423828 74.65313720703125 88.74882507324219 79.84004974365234 84.29421234130859 84.29464721679688 C 79.839599609375 88.74925994873047 74.65267944335938 92.24647521972656 68.87755584716797 94.68914794921875 C 62.89922714233398 97.21776580810547 56.54780960083008 98.4998779296875 49.99972534179688 98.4998779296875 Z" stroke="none"/>
                <path d="M 49.99972534179688 3 C 43.65348052978516 3 37.49866485595703 4.242240905761719 31.70623016357422 6.692230224609375 C 26.10989379882812 9.059272766113281 21.08323669433594 12.44853210449219 16.76589202880859 16.76587677001953 C 12.44855499267578 21.08321380615234 9.059295654296875 26.10985565185547 6.692230224609375 31.70618438720703 C 4.24224853515625 37.49859619140625 3 43.65341186523438 3 50.00022888183594 C 3 56.34645843505859 4.24224853515625 62.50127410888672 6.692230224609375 68.29368591308594 C 9.059295654296875 73.8900146484375 12.44855499267578 78.91665649414062 16.76589202880859 83.23399353027344 C 21.08323669433594 87.55132293701172 26.10989379882812 90.94059753417969 31.70623016357422 93.30764007568359 C 37.49866485595703 95.75762939453125 43.65348052978516 96.99987030029297 49.99972534179688 96.99987030029297 C 56.34597015380859 96.99987030029297 62.50078582763672 95.75762939453125 68.293212890625 93.30764007568359 C 73.88955688476562 90.94059753417969 78.91621398925781 87.55132293701172 83.23355865478516 83.23399353027344 C 87.55089569091797 78.91665649414062 90.94015502929688 73.8900146484375 93.30722045898438 68.29368591308594 C 95.7572021484375 62.50127410888672 96.99945068359375 56.34645843505859 96.99945068359375 49.99964141845703 C 96.99945068359375 43.65341186523438 95.7572021484375 37.49859619140625 93.30722045898438 31.70618438720703 C 90.94015502929688 26.10985565185547 87.55089569091797 21.08321380615234 83.23355865478516 16.76587677001953 C 78.91621398925781 12.44853210449219 73.88955688476562 9.059272766113281 68.293212890625 6.692230224609375 C 62.50078582763672 4.242240905761719 56.34597015380859 3 49.99972534179688 3 M 49.99972534179688 0 C 77.61381530761719 0 99.99945068359375 22.38559722900391 99.99945068359375 49.99964141845703 L 99.99945068359375 50.00022888183594 C 99.99945068359375 77.6142578125 77.61381530761719 99.99987030029297 49.99972534179688 99.99987030029297 C 22.38563537597656 99.99987030029297 0 77.6142578125 0 50.00022888183594 L 0 49.99964141845703 C 0 22.38559722900391 22.38563537597656 0 49.99972534179688 0 Z" stroke="none" fill="#fff"/>
              </g>
            </g>
            <g id="Trazado_874923" data-name="Trazado 874923" transform="translate(0 0)" fill="none">
              <path d="M50,0a50,50,0,0,1,50,50h0A50,50,0,0,1,0,50H0A50,50,0,0,1,50,0Z" stroke="none"/>
              <path d="M 49.99972534179688 3 C 43.65348052978516 3 37.49866485595703 4.242240905761719 31.70623016357422 6.692230224609375 C 26.10989379882812 9.059272766113281 21.08323669433594 12.44853210449219 16.76589202880859 16.76587677001953 C 12.44855499267578 21.08321380615234 9.059295654296875 26.10985565185547 6.692230224609375 31.70618438720703 C 4.24224853515625 37.49859619140625 3 43.65341186523438 3 50.00022888183594 C 3 56.34645843505859 4.24224853515625 62.50127410888672 6.692230224609375 68.29368591308594 C 9.059295654296875 73.8900146484375 12.44855499267578 78.91665649414062 16.76589202880859 83.23399353027344 C 21.08323669433594 87.55132293701172 26.10989379882812 90.94059753417969 31.70623016357422 93.30764007568359 C 37.49866485595703 95.75762939453125 43.65348052978516 96.99987030029297 49.99972534179688 96.99987030029297 C 56.34597015380859 96.99987030029297 62.50078582763672 95.75762939453125 68.293212890625 93.30764007568359 C 73.88955688476562 90.94059753417969 78.91621398925781 87.55132293701172 83.23355865478516 83.23399353027344 C 87.55089569091797 78.91665649414062 90.94015502929688 73.8900146484375 93.30722045898438 68.29368591308594 C 95.7572021484375 62.50127410888672 96.99945068359375 56.34645843505859 96.99945068359375 49.99964141845703 C 96.99945068359375 43.65341186523438 95.7572021484375 37.49859619140625 93.30722045898438 31.70618438720703 C 90.94015502929688 26.10985565185547 87.55089569091797 21.08321380615234 83.23355865478516 16.76587677001953 C 78.91621398925781 12.44853210449219 73.88955688476562 9.059272766113281 68.293212890625 6.692230224609375 C 62.50078582763672 4.242240905761719 56.34597015380859 3 49.99972534179688 3 M 49.99972534179688 0 C 77.61381530761719 0 99.99945068359375 22.38559722900391 99.99945068359375 49.99964141845703 L 99.99945068359375 50.00022888183594 C 99.99945068359375 77.6142578125 77.61381530761719 99.99987030029297 49.99972534179688 99.99987030029297 C 22.38563537597656 99.99987030029297 0 77.6142578125 0 50.00022888183594 L 0 49.99964141845703 C 0 22.38559722900391 22.38563537597656 0 49.99972534179688 0 Z" stroke="none" fill="#fff"/>
            </g>
          </g>
        </g>
      </g>
    </g>
    <g id="Grupo_1119208" data-name="Grupo 1119208" transform="translate(-1757 -9784.039)">
      <path id="Trazado_916654" data-name="Trazado 916654" d="M80.548,119.926h-44.5A4.046,4.046,0,0,0,32,123.971v38.434H84.594V123.971A4.046,4.046,0,0,0,80.548,119.926Zm0,0" transform="translate(-27.954 -104.73)" fill="#4398d1"/>
      <path id="Trazado_916655" data-name="Trazado 916655" d="M106.48,151.926H65.011A1.011,1.011,0,0,0,64,152.937v35.4h44.5V153.949A2.023,2.023,0,0,0,106.48,151.926Zm0,0" transform="translate(-55.909 -132.684)" fill="#87ced9"/>
      <path id="Trazado_916656" data-name="Trazado 916656" d="M213.331,207.926,184,237.257h29.331Zm0,0" transform="translate(-160.737 -181.604)" fill="#71c4d1"/>
      <path id="Trazado_916657" data-name="Trazado 916657" d="M247.171,7.926l3.141,3.448,4.444-1.415,1,4.557,4.557,1-1.415,4.444,3.448,3.141-3.448,3.141,1.415,4.444-4.557,1-1,4.557-4.444-1.415-3.141,3.448L244.03,34.82l-4.444,1.415-1-4.557-4.557-1,1.415-4.444L232,23.1l3.448-3.141-1.415-4.444,4.557-1,1-4.557,4.444,1.415Zm0,0" transform="translate(-202.669 -6.89)" fill="#fdb62f"/>
      <g id="Grupo_1119207" data-name="Grupo 1119207" transform="translate(36.411 10.139)">
        <path id="Trazado_916658" data-name="Trazado 916658" d="M306.344,92.384,316.457,82.27l1.431,1.43L307.774,93.814Zm0,0" transform="translate(-304.025 -81.973)" fill="#fd6d2f"/>
        <path id="Trazado_916659" data-name="Trazado 916659" d="M291.034,85.994a3.034,3.034,0,1,1,3.034-3.034A3.034,3.034,0,0,1,291.034,85.994Zm0-4.046a1.011,1.011,0,1,0,1.011,1.011A1.011,1.011,0,0,0,291.034,81.949Zm0,0" transform="translate(-288 -79.926)" fill="#fd6d2f"/>
        <path id="Trazado_916660" data-name="Trazado 916660" d="M371.034,133.994a3.034,3.034,0,1,1,3.034-3.034A3.034,3.034,0,0,1,371.034,133.994Zm0-4.046a1.011,1.011,0,1,0,1.011,1.011A1.011,1.011,0,0,0,371.034,129.949Zm0,0" transform="translate(-357.886 -121.857)" fill="#fd6d2f"/>
      </g>
      <path id="Trazado_916661" data-name="Trazado 916661" d="M123.5,342.316l-3.633,1.474,2.371,4.8h3.979Zm0,0" transform="translate(-104.709 -299.004)" fill="#e0e3e6"/>
      <path id="Trazado_916662" data-name="Trazado 916662" d="M142.4,237.282l-12.567-.2-2.716-5.376,9.958-9.855Zm0,0" transform="translate(-111.049 -193.766)" fill="#e0e3e6"/>
      <path id="Trazado_916663" data-name="Trazado 916663" d="M96.156,304.69a2.933,2.933,0,0,0,4.088,1.676l2.412-1.194L99.94,299.8l-2.513,1.492A2.883,2.883,0,0,0,96.156,304.69Zm0,0" transform="translate(-83.868 -261.86)" fill="#e3584b"/>
      <path id="Trazado_916664" data-name="Trazado 916664" d="M249.281,265.932l3.345-1.163.663,1.91-3.344,1.163Zm0,0" transform="translate(-217.765 -231.261)" fill="#5eb3d1"/>
      <path id="Trazado_916665" data-name="Trazado 916665" d="M228.492,204.716l2.231-2.325,1.46,1.4-2.231,2.325Zm0,0" transform="translate(-199.604 -176.769)" fill="#5eb3d1"/>
      <path id="Trazado_916666" data-name="Trazado 916666" d="M272,327.926h3.034v2.023H272Zm0,0" transform="translate(-237.612 -286.433)" fill="#5eb3d1"/>
      <path id="Trazado_916667" data-name="Trazado 916667" d="M320,279.926h19.217v12.137H320Zm0,0" transform="translate(-279.543 -244.501)" fill="#e3584b"/>
      <path id="Trazado_916668" data-name="Trazado 916668" d="M344,303.926h4.046v2.023H344Zm0,0" transform="translate(-300.509 -265.467)" fill="#c9433c"/>
      <path id="Trazado_916669" data-name="Trazado 916669" d="M392,303.926h7.08v2.023H392Zm0,0" transform="translate(-342.44 -265.467)" fill="#c9433c"/>
      <path id="Trazado_916670" data-name="Trazado 916670" d="M344,335.926h13.148v2.023H344Zm0,0" transform="translate(-300.509 -293.421)" fill="#c9433c"/>
      <path id="Trazado_916671" data-name="Trazado 916671" d="M8,183.926H23.171v8.091H8Zm0,0" transform="translate(-6.989 -160.638)" fill="#fd6d2f"/>
      <path id="Trazado_916672" data-name="Trazado 916672" d="M32,207.926h2.023v2.023H32Zm0,0" transform="translate(-27.954 -181.604)" fill="#e3584b"/>
      <path id="Trazado_916673" data-name="Trazado 916673" d="M64,207.926h5.057v2.023H64Zm0,0" transform="translate(-55.909 -181.604)" fill="#e3584b"/>
      <path id="Trazado_916674" data-name="Trazado 916674" d="M63.628,429.994H11.034A3.034,3.034,0,0,1,8,426.96v-3.034H31.143a1.829,1.829,0,0,1,1.637,1.011,1.829,1.829,0,0,0,1.637,1.011h5.829a1.829,1.829,0,0,0,1.637-1.011,1.829,1.829,0,0,1,1.637-1.011H66.662v3.034A3.034,3.034,0,0,1,63.628,429.994Zm0,0" transform="translate(-6.989 -370.296)" fill="#d6d9db"/>
      <path id="Trazado_916675" data-name="Trazado 916675" d="M72.091,199.926v6.069H64v2.023H74.114v-8.091Zm0,0" transform="translate(-55.909 -174.616)" fill="#71c4d1"/>
      <path id="Trazado_916676" data-name="Trazado 916676" d="M32,247.926h4.046v2.023H32Zm0,0" transform="translate(-27.954 -216.547)" fill="#3e8cc7"/>
      <path id="Trazado_916677" data-name="Trazado 916677" d="M416,375.926h4.046v2.023H416Zm0,0" transform="translate(-363.406 -328.364)" fill="#3e8cc7"/>
      <path id="Trazado_916678" data-name="Trazado 916678" d="M59.674,290.131H57.651v-2.023H55.628v2.023H53.605v-2.023H51.582v2.023H36.531a2.826,2.826,0,0,0-2.547,1.571.81.81,0,0,1-.731.452H27.428a.809.809,0,0,1-.731-.452,2.825,2.825,0,0,0-2.542-1.571H9.1V271.926H7.08v18.206H5.057V271.926H3.034v18.206H1.011A1.011,1.011,0,0,0,0,291.143v3.034a4.046,4.046,0,0,0,4.046,4.046H56.64a4.046,4.046,0,0,0,4.046-4.046v-3.034A1.011,1.011,0,0,0,59.674,290.131Zm-1.011,4.046A2.023,2.023,0,0,1,56.64,296.2H4.046a2.023,2.023,0,0,1-2.023-2.023v-2.023H24.155a.809.809,0,0,1,.731.452,2.825,2.825,0,0,0,2.542,1.571h5.829a2.825,2.825,0,0,0,2.547-1.571.81.81,0,0,1,.726-.452H58.662Zm0,0" transform="translate(0 -237.513)"/>
      <path id="Trazado_916679" data-name="Trazado 916679" d="M47.263,113.949v-2.023H29.057A5.063,5.063,0,0,0,24,116.983v1.011h2.023v-1.011a3.034,3.034,0,0,1,3.034-3.034Zm0,0" transform="translate(-20.966 -97.741)"/>
      <path id="Trazado_916680" data-name="Trazado 916680" d="M56,145.949H77.24v-2.023H58.023A2.023,2.023,0,0,0,56,145.949Zm0,0" transform="translate(-48.92 -125.695)"/>
      <path id="Trazado_916681" data-name="Trazado 916681" d="M253.056,12.755l1.214-3.826a1.011,1.011,0,0,0-.746-1.3L249.6,6.776l-.853-3.919a1.012,1.012,0,0,0-1.291-.751l-3.826,1.213L240.92.355a1.042,1.042,0,0,0-1.494,0l-2.7,2.97-3.83-1.219a1.011,1.011,0,0,0-1.3.747l-.858,3.923-3.915.858a1.011,1.011,0,0,0-.747,1.3l1.214,3.826-2.97,2.7a1.01,1.01,0,0,0,0,1.494l2.97,2.7-1.214,3.826a1.011,1.011,0,0,0,.747,1.3l3.924.858.857,3.923a1.012,1.012,0,0,0,1.3.747l3.826-1.219,2.7,2.97a1.011,1.011,0,0,0,1.495,0l2.7-2.97,3.826,1.219a1.011,1.011,0,0,0,1.3-.747l.858-3.923,3.923-.858a1.011,1.011,0,0,0,.747-1.3l-1.213-3.826,2.97-2.7a1.011,1.011,0,0,0,0-1.494ZM251.214,18.6a1.011,1.011,0,0,0-.282,1.055l1.074,3.387-3.472.76a1.013,1.013,0,0,0-.771.771l-.756,3.468-3.387-1.079a1.017,1.017,0,0,0-1.055.282l-2.393,2.632-2.393-2.63a1,1,0,0,0-1.05-.282l-3.391,1.076-.76-3.472a1.013,1.013,0,0,0-.771-.771l-3.468-.756,1.079-3.387a1.011,1.011,0,0,0-.282-1.055L226.5,16.207l2.63-2.393a1.01,1.01,0,0,0,.282-1.055l-1.076-3.387,3.472-.76a1.013,1.013,0,0,0,.771-.771l.756-3.468,3.387,1.079a1.011,1.011,0,0,0,1.055-.282l2.393-2.632,2.393,2.63a1.01,1.01,0,0,0,1.055.282l3.387-1.076.76,3.472a1.013,1.013,0,0,0,.771.771l3.472.76-1.078,3.387a1.011,1.011,0,0,0,.282,1.055l2.628,2.389Zm0,0" transform="translate(-195.67)"/>
      <path id="Trazado_916682" data-name="Trazado 916682" d="M306.344,92.384,316.457,82.27l1.431,1.43L307.774,93.814Zm0,0" transform="translate(-267.613 -71.834)"/>
      <path id="Trazado_916683" data-name="Trazado 916683" d="M294.069,82.96a3.034,3.034,0,1,0-3.034,3.034A3.034,3.034,0,0,0,294.069,82.96Zm-4.046,0a1.011,1.011,0,1,1,1.011,1.011A1.011,1.011,0,0,1,290.023,82.96Zm0,0" transform="translate(-251.589 -69.787)"/>
      <path id="Trazado_916684" data-name="Trazado 916684" d="M371.034,127.926a3.034,3.034,0,1,0,3.034,3.034A3.034,3.034,0,0,0,371.034,127.926Zm0,4.046a1.011,1.011,0,1,1,1.011-1.011A1.011,1.011,0,0,1,371.034,131.971Zm0,0" transform="translate(-321.475 -111.718)"/>
      <path id="Trazado_916685" data-name="Trazado 916685" d="M103.107,213.872a1,1,0,0,0-.941.265l-9.872,9.769-2.4,1.428a3.887,3.887,0,0,0,1.464,7.208l2.107,4.263a1.011,1.011,0,0,0,.91.564h3.979a1.012,1.012,0,0,0,.928-1.416l-2.094-4.834,11,.182h.017a1.011,1.011,0,0,0,.956-1.341l-5.323-15.434A1.011,1.011,0,0,0,103.107,213.872ZM90.1,229.279a1.864,1.864,0,0,1,.83-2.21l1.58-.937,1.769,3.5-1.5.741a1.936,1.936,0,0,1-1.606.052A1.874,1.874,0,0,1,90.1,229.279ZM95,235.347l-1.529-3.089c.064-.028.132-.039.2-.071l1.459-.722,1.681,3.882Zm1.262-6.262-2.108-4.173,8.293-8.207,4.328,12.55Zm0,0" transform="translate(-76.847 -186.775)"/>
      <path id="Trazado_916686" data-name="Trazado 916686" d="M249.281,265.932l3.345-1.163.663,1.91-3.344,1.163Zm0,0" transform="translate(-217.765 -231.261)"/>
      <path id="Trazado_916687" data-name="Trazado 916687" d="M228.492,204.716l2.231-2.325,1.46,1.4-2.231,2.325Zm0,0" transform="translate(-199.604 -176.769)"/>
      <path id="Trazado_916688" data-name="Trazado 916688" d="M272,327.926h3.034v2.023H272Zm0,0" transform="translate(-237.612 -286.433)"/>
      <path id="Trazado_916689" data-name="Trazado 916689" d="M332.228,223.006h-2.023v-7.08h-2.023v7.08H326.16v-2.023h-2.023v2.023H313.011A1.011,1.011,0,0,0,312,224.017v12.137a1.011,1.011,0,0,0,1.011,1.011h19.217a1.011,1.011,0,0,0,1.011-1.011V224.017A1.011,1.011,0,0,0,332.228,223.006Zm-1.011,12.137H314.023V225.029h17.194Zm0,0" transform="translate(-272.555 -188.593)"/>
      <path id="Trazado_916690" data-name="Trazado 916690" d="M344,303.926h4.046v2.023H344Zm0,0" transform="translate(-300.509 -265.467)"/>
      <path id="Trazado_916691" data-name="Trazado 916691" d="M392,303.926h7.08v2.023H392Zm0,0" transform="translate(-342.44 -265.467)"/>
      <path id="Trazado_916692" data-name="Trazado 916692" d="M344,335.926h13.148v2.023H344Zm0,0" transform="translate(-300.509 -293.421)"/>
      <path id="Trazado_916693" data-name="Trazado 916693" d="M1.011,186.04H16.183a1.011,1.011,0,0,0,1.011-1.011v-8.091a1.011,1.011,0,0,0-1.011-1.011H1.011A1.011,1.011,0,0,0,0,176.937v8.091A1.011,1.011,0,0,0,1.011,186.04Zm1.011-8.091H15.171v6.069H2.023Zm0,0" transform="translate(0 -153.65)"/>
      <path id="Trazado_916694" data-name="Trazado 916694" d="M32,207.926h2.023v2.023H32Zm0,0" transform="translate(-27.954 -181.604)"/>
      <path id="Trazado_916695" data-name="Trazado 916695" d="M64,207.926h5.057v2.023H64Zm0,0" transform="translate(-55.909 -181.604)"/>
    </g>
  </g>
</svg>
